1 86 20.0 -336 170.0 -1 0 0 0 1 0 0 0 -1 3004.DAT
0 STEP
1 86 20.0 -192 190.0 -1 0 0 0 1 0 0 0 -1 3004.DAT
0 STEP
1 86 20.0 -216 220.0 0 0 1 0 1 0 -1 0 0 3001.DAT
0 STEP
1 86 10.0 -240 220.0 0 0 1 0 1 0 -1 0 0 3010.DAT
0 STEP
1 86 10.0 -264 190.0 0 0 1 0 1 0 -1 0 0 3005.DAT
0 STEP
1 86 20.0 -288 190.0 -1 0 0 0 1 0 0 0 -1 3004.DAT
0 STEP
1 86 10.0 -312 190.0 0 0 1 0 1 0 -1 0 0 3005.DAT
0 STEP
1 86 10.0 -336 200.0 0 0 1 0 1 0 -1 0 0 3004.DAT
0 STEP
1 86 10.0 -360 190.0 0 0 1 0 1 0 -1 0 0 3005.DAT
0 STEP
1 86 20.0 -384 190.0 -1 0 0 0 1 0 0 0 -1 3004.DAT
0 STEP
1 86 10.0 -408 190.0 0 0 1 0 1 0 -1 0 0 3005.DAT
0 STEP
1 86 10.0 -432 190.0 0 0 1 0 1 0 -1 0 0 3005.DAT
0 STEP
1 86 10.0 -456 190.0 0 0 1 0 1 0 -1 0 0 3005.DAT
0 STEP
1 86 10.0 -480 220.0 0 0 1 0 1 0 -1 0 0 3010.DAT
0 STEP
1 86 20.0 -120 240.0 0 0 1 0 1 0 -1 0 0 3001.DAT
0 STEP
1 86 10.0 -144 240.0 0 0 1 0 1 0 -1 0 0 3010.DAT
0 STEP
1 86 10.0 -168 210.0 0 0 1 0 1 0 -1 0 0 3005.DAT
0 STEP
1 86 10.0 -192 220.0 0 0 1 0 1 0 -1 0 0 3004.DAT
0 STEP
1 86 20.0 -264 220.0 0 0 1 0 1 0 -1 0 0 3003.DAT
0 STEP
1 86 10.0 -288 220.0 0 0 1 0 1 0 -1 0 0 3004.DAT
0 STEP
1 86 20.0 -312 210.0 -1 0 0 0 1 0 0 0 -1 3004.DAT
0 STEP
1 86 20.0 -360 210.0 -1 0 0 0 1 0 0 0 -1 3004.DAT
0 STEP
1 86 10.0 -384 220.0 0 0 1 0 1 0 -1 0 0 3004.DAT
0 STEP
1 86 20.0 -408 210.0 -1 0 0 0 1 0 0 0 -1 3004.DAT
0 STEP
1 86 10.0 -432 220.0 0 0 1 0 1 0 -1 0 0 3004.DAT
0 STEP
1 86 20.0 -456 220.0 0 0 1 0 1 0 -1 0 0 3003.DAT
0 STEP
1 86 20.0 -504 210.0 -1 0 0 0 1 0 0 0 -1 3004.DAT
0 STEP
1 86 10.0 -528 240.0 0 0 1 0 1 0 -1 0 0 3010.DAT
0 STEP
1 86 20.0 -552 240.0 0 0 1 0 1 0 -1 0 0 3001.DAT
0 STEP
1 86 10.0 -576 210.0 0 0 1 0 1 0 -1 0 0 3005.DAT
0 STEP
1 86 20.0 -696 220.0 0 0 1 0 1 0 -1 0 0 3003.DAT
0 STEP
1 86 10.0 -720 210.0 0 0 1 0 1 0 -1 0 0 3005.DAT
0 STEP
1 86 20.0 -744 240.0 0 0 1 0 1 0 -1 0 0 3001.DAT
0 STEP
1 86 10.0 -768 240.0 0 0 1 0 1 0 -1 0 0 3010.DAT
0 STEP
1 86 20.0 -792 240.0 0 0 1 0 1 0 -1 0 0 3001.DAT
0 STEP
1 86 10.0 -816 210.0 0 0 1 0 1 0 -1 0 0 3005.DAT
0 STEP
1 86 20.0 -840 240.0 0 0 1 0 1 0 -1 0 0 3001.DAT
0 STEP
1 86 10.0 -864 210.0 0 0 1 0 1 0 -1 0 0 3005.DAT
0 STEP
1 86 10.0 -888 220.0 0 0 1 0 1 0 -1 0 0 3004.DAT
0 STEP
1 86 20.0 -912 240.0 0 0 1 0 1 0 -1 0 0 3001.DAT
0 STEP
1 86 10.0 -936 220.0 0 0 1 0 1 0 -1 0 0 3004.DAT
0 STEP
1 86 20.0 -960 210.0 -1 0 0 0 1 0 0 0 -1 3004.DAT
0 STEP
1 86 10.0 -984 210.0 0 0 1 0 1 0 -1 0 0 3005.DAT
0 STEP
1 86 10.0 -1008 210.0 0 0 1 0 1 0 -1 0 0 3005.DAT
0 STEP
1 86 20.0 -1032 240.0 0 0 1 0 1 0 -1 0 0 3001.DAT
0 STEP
1 86 10.0 -1056 240.0 0 0 1 0 1 0 -1 0 0 3010.DAT
0 STEP
1 86 20.0 -1080 210.0 -1 0 0 0 1 0 0 0 -1 3004.DAT
0 STEP
1 86 20.0 -1104 220.0 0 0 1 0 1 0 -1 0 0 3003.DAT
0 STEP
1 86 10.0 -1128 220.0 0 0 1 0 1 0 -1 0 0 3004.DAT
0 STEP
1 86 20.0 -1152 210.0 -1 0 0 0 1 0 0 0 -1 3004.DAT
0 STEP
1 86 20.0 -1176 240.0 0 0 1 0 1 0 -1 0 0 3001.DAT
0 STEP
1 86 20.0 -96 240.0 0 0 1 0 1 0 -1 0 0 3003.DAT
0 STEP
1 86 20.0 -168 240.0 0 0 1 0 1 0 -1 0 0 3003.DAT
0 STEP
1 86 10.0 -312 240.0 0 0 1 0 1 0 -1 0 0 3004.DAT
0 STEP
1 86 20.0 -336 230.0 -1 0 0 0 1 0 0 0 -1 3004.DAT
0 STEP
1 86 20.0 -360 240.0 0 0 1 0 1 0 -1 0 0 3003.DAT
0 STEP
1 86 10.0 -408 230.0 0 0 1 0 1 0 -1 0 0 3005.DAT
0 STEP
1 86 20.0 -504 240.0 0 0 1 0 1 0 -1 0 0 3003.DAT
0 STEP
1 86 10.0 -576 240.0 0 0 1 0 1 0 -1 0 0 3004.DAT
0 STEP
1 86 20.0 -600 240.0 0 0 1 0 1 0 -1 0 0 3003.DAT
0 STEP
1 86 10.0 -624 240.0 0 0 1 0 1 0 -1 0 0 3004.DAT
0 STEP
1 86 20.0 -648 230.0 -1 0 0 0 1 0 0 0 -1 3004.DAT
0 STEP
1 86 10.0 -672 240.0 0 0 1 0 1 0 -1 0 0 3004.DAT
0 STEP
1 86 10.0 -720 240.0 0 0 1 0 1 0 -1 0 0 3004.DAT
0 STEP
1 86 10.0 -816 240.0 0 0 1 0 1 0 -1 0 0 3004.DAT
0 STEP
1 86 10.0 -864 240.0 0 0 1 0 1 0 -1 0 0 3004.DAT
0 STEP
1 86 10.0 -960 230.0 0 0 1 0 1 0 -1 0 0 3005.DAT
0 STEP
1 86 20.0 -984 230.0 -1 0 0 0 1 0 0 0 -1 3004.DAT
0 STEP
1 86 10.0 -1008 240.0 0 0 1 0 1 0 -1 0 0 3004.DAT
0 STEP
1 86 20.0 -1080 240.0 0 0 1 0 1 0 -1 0 0 3003.DAT
0 STEP
1 86 20.0 -1152 240.0 0 0 1 0 1 0 -1 0 0 3003.DAT
0 STEP
1 86 10.0 -1200 240.0 0 0 1 0 1 0 -1 0 0 3004.DAT
0 STEP
1 86 20.0 -1224 240.0 0 0 1 0 1 0 -1 0 0 3003.DAT
0 STEP
1 86 10.0 -1248 230.0 0 0 1 0 1 0 -1 0 0 3005.DAT
0 STEP
1 86 10.0 -1272 230.0 0 0 1 0 1 0 -1 0 0 3005.DAT
0 STEP
1 86 10.0 -192 250.0 0 0 1 0 1 0 -1 0 0 3005.DAT
0 STEP
1 86 10.0 -288 250.0 0 0 1 0 1 0 -1 0 0 3005.DAT
0 STEP
1 86 10.0 -336 280.0 0 0 1 0 1 0 -1 0 0 3010.DAT
0 STEP
1 86 10.0 -456 250.0 0 0 1 0 1 0 -1 0 0 3005.DAT
0 STEP
1 86 10.0 -648 250.0 0 0 1 0 1 0 -1 0 0 3005.DAT
0 STEP
1 86 10.0 -696 260.0 0 0 1 0 1 0 -1 0 0 3004.DAT
0 STEP
1 86 10.0 -888 250.0 0 0 1 0 1 0 -1 0 0 3005.DAT
0 STEP
1 86 20.0 -936 250.0 -1 0 0 0 1 0 0 0 -1 3004.DAT
0 STEP
1 86 10.0 -960 260.0 0 0 1 0 1 0 -1 0 0 3004.DAT
0 STEP
1 86 20.0 -984 260.0 0 0 1 0 1 0 -1 0 0 3003.DAT
0 STEP
1 86 10.0 -1104 260.0 0 0 1 0 1 0 -1 0 0 3004.DAT
0 STEP
1 86 20.0 -1128 260.0 0 0 1 0 1 0 -1 0 0 3003.DAT
0 STEP
1 86 20.0 -168 270.0 -1 0 0 0 1 0 0 0 -1 3004.DAT
0 STEP
1 86 20.0 -288 270.0 -1 0 0 0 1 0 0 0 -1 3004.DAT
0 STEP
1 86 20.0 -312 320.0 0 0 1 0 1 0 -1 0 0 2456.DAT
0 STEP
1 86 10.0 -504 270.0 0 0 1 0 1 0 -1 0 0 3005.DAT
0 STEP
1 86 20.0 -576 270.0 -1 0 0 0 1 0 0 0 -1 3004.DAT
0 STEP
1 86 10.0 -672 270.0 0 0 1 0 1 0 -1 0 0 3005.DAT
0 STEP
1 86 20.0 -720 270.0 -1 0 0 0 1 0 0 0 -1 3004.DAT
0 STEP
1 86 10.0 -816 270.0 0 0 1 0 1 0 -1 0 0 3005.DAT
0 STEP
1 86 10.0 -864 270.0 0 0 1 0 1 0 -1 0 0 3005.DAT
0 STEP
1 86 20.0 -888 270.0 -1 0 0 0 1 0 0 0 -1 3004.DAT
0 STEP
1 86 10.0 -936 270.0 0 0 1 0 1 0 -1 0 0 3005.DAT
0 STEP
1 86 10.0 -1008 270.0 0 0 1 0 1 0 -1 0 0 3005.DAT
0 STEP
1 86 20.0 -1080 270.0 -1 0 0 0 1 0 0 0 -1 3004.DAT
0 STEP
1 86 10.0 -1152 270.0 0 0 1 0 1 0 -1 0 0 3005.DAT
0 STEP
1 86 10.0 -288 360.0 0 0 1 0 1 0 -1 0 0 3008.DAT
0 STEP
1 86 10.0 -336 330.0 0 0 1 0 1 0 -1 0 0 3005.DAT
0 STEP
1 86 10.0 -336 360.0 0 0 1 0 1 0 -1 0 0 3004.DAT
0 STEP
1 86 10.0 -360 380.0 0 0 1 0 1 0 -1 0 0 3004.DAT
0 STEP
1 86 20.0 -312 390.0 -1 0 0 0 1 0 0 0 -1 3004.DAT
0 STEP
1 86 20.0 -336 420.0 0 0 1 0 1 0 -1 0 0 3001.DAT
0 STEP
1 86 20.0 -312 440.0 0 0 1 0 1 0 -1 0 0 3001.DAT
0 STEP
1 86 10.0 -360 410.0 0 0 1 0 1 0 -1 0 0 3005.DAT
0 STEP
1 86 10.0 -360 450.0 0 0 1 0 1 0 -1 0 0 3005.DAT
0 STEP
1 86 20.0 -336 470.0 -1 0 0 0 1 0 0 0 -1 3004.DAT
0 STEP
1 86 10.0 -360 480.0 0 0 1 0 1 0 -1 0 0 3004.DAT
0 STEP
1 86 10.0 -336 490.0 0 0 1 0 1 0 -1 0 0 3005.DAT
0 STEP
1 86 30.0 -336 60.0 0 0 1 0 1 0 -1 0 0 3004.DAT
0 STEP
1 86 40.0 -360 80.0 0 0 1 0 1 0 -1 0 0 3003.DAT
0 STEP
1 86 30.0 -144 140.0 0 0 1 0 1 0 -1 0 0 3009.DAT
0 STEP
1 86 40.0 -168 120.0 0 0 1 0 1 0 -1 0 0 3001.DAT
0 STEP
1 86 30.0 -288 90.0 0 0 1 0 1 0 -1 0 0 3005.DAT
0 STEP
1 86 30.0 -312 100.0 0 0 1 0 1 0 -1 0 0 3004.DAT
0 STEP
1 86 40.0 -336 100.0 0 0 1 0 1 0 -1 0 0 3003.DAT
0 STEP
1 86 30.0 -384 120.0 0 0 1 0 1 0 -1 0 0 3010.DAT
0 STEP
1 18 40.0 -528 90.0 -1 0 0 0 1 0 0 0 -1 3004.DAT
0 STEP
1 86 30.0 -192 140.0 0 0 1 0 1 0 -1 0 0 3010.DAT
0 STEP
1 86 30.0 -216 110.0 0 0 1 0 1 0 -1 0 0 3005.DAT
0 STEP
1 86 30.0 -240 120.0 0 0 1 0 1 0 -1 0 0 3004.DAT
0 STEP
1 86 30.0 -264 110.0 0 0 1 0 1 0 -1 0 0 3005.DAT
0 STEP
1 86 30.0 -288 140.0 0 0 1 0 1 0 -1 0 0 3010.DAT
0 STEP
1 86 30.0 -360 120.0 0 0 1 0 1 0 -1 0 0 3004.DAT
0 STEP
1 86 30.0 -408 110.0 0 0 1 0 1 0 -1 0 0 3005.DAT
0 STEP
1 86 30.0 -432 140.0 0 0 1 0 1 0 -1 0 0 3010.DAT
0 STEP
1 86 30.0 -480 110.0 0 0 1 0 1 0 -1 0 0 3005.DAT
0 STEP
1 86 40.0 -504 120.0 0 0 1 0 1 0 -1 0 0 3003.DAT
0 STEP
1 86 40.0 -528 120.0 0 0 1 0 1 0 -1 0 0 3003.DAT
0 STEP
1 86 30.0 -216 140.0 0 0 1 0 1 0 -1 0 0 3004.DAT
0 STEP
1 86 30.0 -264 140.0 0 0 1 0 1 0 -1 0 0 3004.DAT
0 STEP
1 86 30.0 -312 130.0 0 0 1 0 1 0 -1 0 0 3005.DAT
0 STEP
1 86 30.0 -336 140.0 0 0 1 0 1 0 -1 0 0 3004.DAT
0 STEP
1 86 30.0 -408 160.0 0 0 1 0 1 0 -1 0 0 3010.DAT
0 STEP
1 86 30.0 -456 160.0 0 0 1 0 1 0 -1 0 0 3010.DAT
0 STEP
1 86 30.0 -480 140.0 0 0 1 0 1 0 -1 0 0 3004.DAT
0 STEP
1 86 30.0 -240 150.0 0 0 1 0 1 0 -1 0 0 3005.DAT
0 STEP
1 86 40.0 -312 150.0 -1 0 0 0 1 0 0 0 -1 3004.DAT
0 STEP
1 86 30.0 -360 150.0 0 0 1 0 1 0 -1 0 0 3005.DAT
0 STEP
1 86 40.0 -504 150.0 -1 0 0 0 1 0 0 0 -1 3004.DAT
0 STEP
1 86 30.0 -528 180.0 0 0 1 0 1 0 -1 0 0 3010.DAT
0 STEP
1 86 30.0 -120 180.0 0 0 1 0 1 0 -1 0 0 3004.DAT
0 STEP
1 86 40.0 -168 170.0 -1 0 0 0 1 0 0 0 -1 3004.DAT
0 STEP
1 86 40.0 -216 170.0 -1 0 0 0 1 0 0 0 -1 3004.DAT
0 STEP
1 86 30.0 -240 180.0 0 0 1 0 1 0 -1 0 0 3004.DAT
0 STEP
1 86 30.0 -264 170.0 0 0 1 0 1 0 -1 0 0 3005.DAT
0 STEP
1 86 40.0 -312 180.0 0 0 1 0 1 0 -1 0 0 3003.DAT
0 STEP
1 86 30.0 -360 180.0 0 0 1 0 1 0 -1 0 0 3004.DAT
0 STEP
1 86 30.0 -384 170.0 0 0 1 0 1 0 -1 0 0 3005.DAT
0 STEP
1 86 40.0 -480 170.0 -1 0 0 0 1 0 0 0 -1 3004.DAT
0 STEP
1 86 40.0 -504 180.0 0 0 1 0 1 0 -1 0 0 3003.DAT
0 STEP
1 86 30.0 -96 200.0 0 0 1 0 1 0 -1 0 0 3004.DAT
0 STEP
1 86 40.0 -168 200.0 0 0 1 0 1 0 -1 0 0 3003.DAT
0 STEP
1 86 40.0 -264 190.0 -1 0 0 0 1 0 0 0 -1 3004.DAT
0 STEP
1 86 40.0 -336 200.0 0 0 1 0 1 0 -1 0 0 3003.DAT
0 STEP
1 86 40.0 -432 200.0 0 0 1 0 1 0 -1 0 0 3003.DAT
0 STEP
1 86 40.0 -480 220.0 0 0 1 0 1 0 -1 0 0 3001.DAT
0 STEP
1 86 30.0 -816 190.0 0 0 1 0 1 0 -1 0 0 3005.DAT
0 STEP
1 86 30.0 -840 190.0 0 0 1 0 1 0 -1 0 0 3005.DAT
0 STEP
1 86 30.0 -864 200.0 0 0 1 0 1 0 -1 0 0 3004.DAT
0 STEP
1 86 40.0 -888 220.0 0 0 1 0 1 0 -1 0 0 3001.DAT
0 STEP
1 86 30.0 -912 190.0 0 0 1 0 1 0 -1 0 0 3005.DAT
0 STEP
1 86 40.0 -936 200.0 0 0 1 0 1 0 -1 0 0 3003.DAT
0 STEP
1 86 40.0 -960 190.0 -1 0 0 0 1 0 0 0 -1 3004.DAT
0 STEP
1 19 30.0 -1152 190.0 0 0 1 0 1 0 -1 0 0 3005.DAT
0 STEP
1 19 30.0 -1176 190.0 0 0 1 0 1 0 -1 0 0 3005.DAT
0 STEP
1 86 30.0 -72 220.0 0 0 1 0 1 0 -1 0 0 3004.DAT
0 STEP
1 86 40.0 -144 240.0 0 0 1 0 1 0 -1 0 0 3001.DAT
0 STEP
1 86 40.0 -192 210.0 -1 0 0 0 1 0 0 0 -1 3004.DAT
0 STEP
1 86 40.0 -240 220.0 0 0 1 0 1 0 -1 0 0 3003.DAT
0 STEP
1 86 40.0 -288 220.0 0 0 1 0 1 0 -1 0 0 3003.DAT
0 STEP
1 86 30.0 -384 240.0 0 0 1 0 1 0 -1 0 0 3010.DAT
0 STEP
1 86 40.0 -576 210.0 -1 0 0 0 1 0 0 0 -1 3004.DAT
0 STEP
1 86 30.0 -600 210.0 0 0 1 0 1 0 -1 0 0 3005.DAT
0 STEP
1 86 30.0 -624 240.0 0 0 1 0 1 0 -1 0 0 3010.DAT
0 STEP
1 86 30.0 -648 210.0 0 0 1 0 1 0 -1 0 0 3005.DAT
0 STEP
1 86 30.0 -672 240.0 0 0 1 0 1 0 -1 0 0 3010.DAT
0 STEP
1 86 40.0 -720 210.0 -1 0 0 0 1 0 0 0 -1 3004.DAT
0 STEP
1 86 40.0 -768 240.0 0 0 1 0 1 0 -1 0 0 3001.DAT
0 STEP
1 86 40.0 -816 240.0 0 0 1 0 1 0 -1 0 0 3001.DAT
0 STEP
1 86 40.0 -984 210.0 -1 0 0 0 1 0 0 0 -1 3004.DAT
0 STEP
1 86 40.0 -1008 240.0 0 0 1 0 1 0 -1 0 0 3001.DAT
0 STEP
1 86 40.0 -1056 210.0 -1 0 0 0 1 0 0 0 -1 3004.DAT
0 STEP
1 86 40.0 -1128 220.0 0 0 1 0 1 0 -1 0 0 3003.DAT
0 STEP
1 86 30.0 -1200 210.0 0 0 1 0 1 0 -1 0 0 3005.DAT
0 STEP
1 86 30.0 -1224 210.0 0 0 1 0 1 0 -1 0 0 3005.DAT
0 STEP
1 86 30.0 -1248 210.0 0 0 1 0 1 0 -1 0 0 3005.DAT
0 STEP
1 86 30.0 -1272 210.0 0 0 1 0 1 0 -1 0 0 3005.DAT
0 STEP
1 86 30.0 -1296 220.0 0 0 1 0 1 0 -1 0 0 3004.DAT
0 STEP
1 86 30.0 -1320 210.0 0 0 1 0 1 0 -1 0 0 3005.DAT
0 STEP
1 86 30.0 -1344 220.0 0 0 1 0 1 0 -1 0 0 3004.DAT
0 STEP
1 86 30.0 -1368 220.0 0 0 1 0 1 0 -1 0 0 3004.DAT
0 STEP
1 86 30.0 -1392 220.0 0 0 1 0 1 0 -1 0 0 3004.DAT
0 STEP
1 86 30.0 -1416 210.0 0 0 1 0 1 0 -1 0 0 3005.DAT
0 STEP
1 86 30.0 -48 240.0 0 0 1 0 1 0 -1 0 0 3004.DAT
0 STEP
1 86 40.0 -192 240.0 0 0 1 0 1 0 -1 0 0 3003.DAT
0 STEP
1 86 40.0 -312 240.0 0 0 1 0 1 0 -1 0 0 3003.DAT
0 STEP
1 86 40.0 -408 230.0 -1 0 0 0 1 0 0 0 -1 3004.DAT
0 STEP
1 86 40.0 -432 230.0 -1 0 0 0 1 0 0 0 -1 3004.DAT
0 STEP
1 86 40.0 -528 240.0 0 0 1 0 1 0 -1 0 0 3003.DAT
0 STEP
1 86 40.0 -576 240.0 0 0 1 0 1 0 -1 0 0 3003.DAT
0 STEP
1 86 40.0 -720 240.0 0 0 1 0 1 0 -1 0 0 3003.DAT
0 STEP
1 86 40.0 -864 230.0 -1 0 0 0 1 0 0 0 -1 3004.DAT
0 STEP
1 86 30.0 -936 230.0 0 0 1 0 1 0 -1 0 0 3005.DAT
0 STEP
1 86 30.0 -960 240.0 0 0 1 0 1 0 -1 0 0 3004.DAT
0 STEP
1 86 40.0 -1056 240.0 0 0 1 0 1 0 -1 0 0 3003.DAT
0 STEP
1 86 40.0 -1200 240.0 0 0 1 0 1 0 -1 0 0 3003.DAT
0 STEP
1 86 40.0 -1248 230.0 -1 0 0 0 1 0 0 0 -1 3004.DAT
0 STEP
1 86 30.0 -1272 240.0 0 0 1 0 1 0 -1 0 0 3004.DAT
0 STEP
1 86 30.0 -1320 240.0 0 0 1 0 1 0 -1 0 0 3004.DAT
0 STEP
1 86 30.0 0 250.0 0 0 1 0 1 0 -1 0 0 3005.DAT
0 STEP
1 86 30.0 -24 250.0 0 0 1 0 1 0 -1 0 0 3005.DAT
0 STEP
1 86 30.0 -72 250.0 0 0 1 0 1 0 -1 0 0 3005.DAT
0 STEP
1 86 40.0 -240 250.0 -1 0 0 0 1 0 0 0 -1 3004.DAT
0 STEP
1 86 40.0 -288 250.0 -1 0 0 0 1 0 0 0 -1 3004.DAT
0 STEP
1 86 40.0 -336 260.0 0 0 1 0 1 0 -1 0 0 3003.DAT
0 STEP
1 86 40.0 -456 250.0 -1 0 0 0 1 0 0 0 -1 3004.DAT
0 STEP
1 86 40.0 -648 250.0 -1 0 0 0 1 0 0 0 -1 3004.DAT
0 STEP
1 86 40.0 -696 260.0 0 0 1 0 1 0 -1 0 0 3003.DAT
0 STEP
1 86 40.0 -864 260.0 0 0 1 0 1 0 -1 0 0 3003.DAT
0 STEP
1 86 40.0 -1104 260.0 0 0 1 0 1 0 -1 0 0 3003.DAT
0 STEP
1 86 30.0 -1248 250.0 0 0 1 0 1 0 -1 0 0 3005.DAT
0 STEP
1 86 30.0 -1296 250.0 0 0 1 0 1 0 -1 0 0 3005.DAT
0 STEP
1 86 30.0 -96 270.0 0 0 1 0 1 0 -1 0 0 3005.DAT
0 STEP
1 86 30.0 -360 270.0 0 0 1 0 1 0 -1 0 0 3005.DAT
0 STEP
1 86 40.0 -504 270.0 -1 0 0 0 1 0 0 0 -1 3004.DAT
0 STEP
1 86 40.0 -528 270.0 -1 0 0 0 1 0 0 0 -1 3004.DAT
0 STEP
1 86 30.0 -600 270.0 0 0 1 0 1 0 -1 0 0 3005.DAT
0 STEP
1 86 30.0 -648 270.0 0 0 1 0 1 0 -1 0 0 3005.DAT
0 STEP
1 86 40.0 -936 270.0 -1 0 0 0 1 0 0 0 -1 3004.DAT
0 STEP
1 86 30.0 -960 270.0 0 0 1 0 1 0 -1 0 0 3005.DAT
0 STEP
1 86 40.0 -1056 270.0 -1 0 0 0 1 0 0 0 -1 3004.DAT
0 STEP
1 86 40.0 -1152 270.0 -1 0 0 0 1 0 0 0 -1 3004.DAT
0 STEP
1 86 30.0 -1200 270.0 0 0 1 0 1 0 -1 0 0 3005.DAT
0 STEP
1 86 30.0 -1224 270.0 0 0 1 0 1 0 -1 0 0 3005.DAT
0 STEP
1 86 40.0 -288 300.0 0 0 1 0 1 0 -1 0 0 3003.DAT
0 STEP
1 86 30.0 -336 290.0 0 0 1 0 1 0 -1 0 0 3005.DAT
0 STEP
1 86 30.0 -360 300.0 0 0 1 0 1 0 -1 0 0 3004.DAT
0 STEP
1 86 30.0 -336 340.0 0 0 1 0 1 0 -1 0 0 3010.DAT
0 STEP
1 86 30.0 -288 340.0 0 0 1 0 1 0 -1 0 0 3004.DAT
0 STEP
1 86 30.0 -360 330.0 0 0 1 0 1 0 -1 0 0 3005.DAT
0 STEP
1 86 30.0 -360 360.0 0 0 1 0 1 0 -1 0 0 3004.DAT
0 STEP
1 86 30.0 -288 370.0 0 0 1 0 1 0 -1 0 0 3005.DAT
0 STEP
1 86 30.0 -288 400.0 0 0 1 0 1 0 -1 0 0 3004.DAT
0 STEP
1 86 30.0 -288 430.0 0 0 1 0 1 0 -1 0 0 3005.DAT
0 STEP
1 86 50.0 -336 40.0 0 0 1 0 1 0 -1 0 0 3010.DAT
0 STEP
1 86 50.0 -360 40.0 0 0 1 0 1 0 -1 0 0 3004.DAT
0 STEP
1 86 50.0 -312 100.0 0 0 1 0 1 0 -1 0 0 3010.DAT
0 STEP
1 86 50.0 -144 100.0 0 0 1 0 1 0 -1 0 0 3004.DAT
0 STEP
1 86 50.0 -360 110.0 0 0 1 0 1 0 -1 0 0 3005.DAT
0 STEP
1 86 50.0 -192 160.0 0 0 1 0 1 0 -1 0 0 3010.DAT
0 STEP
1 86 50.0 -336 130.0 0 0 1 0 1 0 -1 0 0 3005.DAT
0 STEP
1 86 50.0 -360 180.0 0 0 1 0 1 0 -1 0 0 3009.DAT
0 STEP
1 86 50.0 -336 160.0 0 0 1 0 1 0 -1 0 0 3004.DAT
0 STEP
1 86 50.0 -480 150.0 0 0 1 0 1 0 -1 0 0 3005.DAT
0 STEP
1 86 50.0 -216 220.0 0 0 1 0 1 0 -1 0 0 3010.DAT
0 STEP
1 86 50.0 -240 190.0 0 0 1 0 1 0 -1 0 0 3005.DAT
0 STEP
1 86 50.0 -288 190.0 0 0 1 0 1 0 -1 0 0 3005.DAT
0 STEP
1 86 50.0 -384 200.0 0 0 1 0 1 0 -1 0 0 3004.DAT
0 STEP
1 86 50.0 -408 200.0 0 0 1 0 1 0 -1 0 0 3004.DAT
0 STEP
1 86 50.0 -456 190.0 0 0 1 0 1 0 -1 0 0 3005.DAT
0 STEP
1 86 50.0 -912 200.0 0 0 1 0 1 0 -1 0 0 3004.DAT
0 STEP
1 86 50.0 -120 240.0 0 0 1 0 1 0 -1 0 0 3010.DAT
0 STEP
1 86 50.0 -264 220.0 0 0 1 0 1 0 -1 0 0 3004.DAT
0 STEP
1 86 50.0 -312 210.0 0 0 1 0 1 0 -1 0 0 3005.DAT
0 STEP
1 86 50.0 -456 220.0 0 0 1 0 1 0 -1 0 0 3004.DAT
0 STEP
1 86 50.0 -504 220.0 0 0 1 0 1 0 -1 0 0 3004.DAT
0 STEP
1 86 50.0 -528 210.0 0 0 1 0 1 0 -1 0 0 3005.DAT
0 STEP
1 86 50.0 -696 220.0 0 0 1 0 1 0 -1 0 0 3004.DAT
0 STEP
1 86 50.0 -744 240.0 0 0 1 0 1 0 -1 0 0 3010.DAT
0 STEP
1 86 50.0 -792 240.0 0 0 1 0 1 0 -1 0 0 3010.DAT
0 STEP
1 86 50.0 -840 240.0 0 0 1 0 1 0 -1 0 0 3010.DAT
0 STEP
1 86 50.0 -864 210.0 0 0 1 0 1 0 -1 0 0 3005.DAT
0 STEP
1 86 50.0 -960 240.0 0 0 1 0 1 0 -1 0 0 3010.DAT
0 STEP
1 86 50.0 -1032 240.0 0 0 1 0 1 0 -1 0 0 3010.DAT
0 STEP
1 86 50.0 -1080 240.0 0 0 1 0 1 0 -1 0 0 3010.DAT
0 STEP
1 86 50.0 -1104 220.0 0 0 1 0 1 0 -1 0 0 3004.DAT
0 STEP
1 86 50.0 -1152 210.0 0 0 1 0 1 0 -1 0 0 3005.DAT
0 STEP
1 86 50.0 -1176 240.0 0 0 1 0 1 0 -1 0 0 3010.DAT
0 STEP
1 86 50.0 -168 240.0 0 0 1 0 1 0 -1 0 0 3004.DAT
0 STEP
1 86 50.0 -336 230.0 0 0 1 0 1 0 -1 0 0 3005.DAT
0 STEP
1 86 50.0 -384 230.0 0 0 1 0 1 0 -1 0 0 3005.DAT
0 STEP
1 86 50.0 -552 240.0 0 0 1 0 1 0 -1 0 0 3004.DAT
0 STEP
1 86 50.0 -600 240.0 0 0 1 0 1 0 -1 0 0 3004.DAT
0 STEP
1 86 50.0 -624 240.0 0 0 1 0 1 0 -1 0 0 3004.DAT
0 STEP
1 86 50.0 -648 230.0 0 0 1 0 1 0 -1 0 0 3005.DAT
0 STEP
1 86 50.0 -672 240.0 0 0 1 0 1 0 -1 0 0 3004.DAT
0 STEP
1 86 50.0 -912 230.0 0 0 1 0 1 0 -1 0 0 3005.DAT
0 STEP
1 86 50.0 -936 240.0 0 0 1 0 1 0 -1 0 0 3004.DAT
0 STEP
1 86 50.0 -984 240.0 0 0 1 0 1 0 -1 0 0 3004.DAT
0 STEP
1 86 50.0 -1152 240.0 0 0 1 0 1 0 -1 0 0 3004.DAT
0 STEP
1 86 50.0 -1224 240.0 0 0 1 0 1 0 -1 0 0 3004.DAT
0 STEP
1 86 50.0 -1272 230.0 0 0 1 0 1 0 -1 0 0 3005.DAT
0 STEP
1 86 50.0 -504 250.0 0 0 1 0 1 0 -1 0 0 3005.DAT
0 STEP
1 86 50.0 -912 260.0 0 0 1 0 1 0 -1 0 0 3004.DAT
0 STEP
1 86 50.0 -1128 260.0 0 0 1 0 1 0 -1 0 0 3004.DAT
0 STEP
1 86 50.0 -168 270.0 0 0 1 0 1 0 -1 0 0 3005.DAT
0 STEP
1 86 50.0 -288 270.0 0 0 1 0 1 0 -1 0 0 3005.DAT
0 STEP
1 86 50.0 -312 280.0 0 0 1 0 1 0 -1 0 0 3004.DAT
0 STEP
1 14 50.0 -576 270.0 0 0 1 0 1 0 -1 0 0 3005.DAT
0 STEP
1 86 50.0 -720 270.0 0 0 1 0 1 0 -1 0 0 3005.DAT
0 STEP
1 86 50.0 -888 270.0 0 0 1 0 1 0 -1 0 0 3005.DAT
0 STEP
1 86 50.0 -984 270.0 0 0 1 0 1 0 -1 0 0 3005.DAT
0 STEP
