1 86 70.0 -24 230.0 0 0 1 0 1 0 -1 0 0 3005.DAT
0 STEP
1 86 150.0 -24 230.0 0 0 1 0 1 0 -1 0 0 3005.DAT
0 STEP
1 86 110.0 -72 390.0 0 0 1 0 1 0 -1 0 0 3005.DAT
0 STEP
1 86 110.0 -96 290.0 0 0 1 0 1 0 -1 0 0 3005.DAT
0 STEP
1 86 70.0 -96 330.0 0 0 1 0 1 0 -1 0 0 3005.DAT
0 STEP
1 86 170.0 -96 350.0 0 0 1 0 1 0 -1 0 0 3005.DAT
0 STEP
1 86 70.0 -96 370.0 0 0 1 0 1 0 -1 0 0 3005.DAT
0 STEP
1 86 70.0 -96 430.0 0 0 1 0 1 0 -1 0 0 3005.DAT
0 STEP
1 86 50.0 -120 270.0 0 0 1 0 1 0 -1 0 0 3005.DAT
0 STEP
1 86 110.0 -120 270.0 0 0 1 0 1 0 -1 0 0 3005.DAT
0 STEP
1 86 90.0 -120 350.0 0 0 1 0 1 0 -1 0 0 3005.DAT
0 STEP
1 86 70.0 -120 410.0 0 0 1 0 1 0 -1 0 0 3005.DAT
0 STEP
1 86 130.0 -120 430.0 0 0 1 0 1 0 -1 0 0 3005.DAT
0 STEP
1 86 130.0 -144 250.0 0 0 1 0 1 0 -1 0 0 3005.DAT
0 STEP
1 86 30.0 -144 270.0 0 0 1 0 1 0 -1 0 0 3005.DAT
0 STEP
1 86 50.0 -144 310.0 0 0 1 0 1 0 -1 0 0 3005.DAT
0 STEP
1 86 150.0 -144 310.0 0 0 1 0 1 0 -1 0 0 3005.DAT
0 STEP
1 86 50.0 -144 350.0 0 0 1 0 1 0 -1 0 0 3005.DAT
0 STEP
1 86 110.0 -144 350.0 0 0 1 0 1 0 -1 0 0 3005.DAT
0 STEP
1 86 150.0 -144 370.0 0 0 1 0 1 0 -1 0 0 3005.DAT
0 STEP
1 86 70.0 -168 170.0 0 0 1 0 1 0 -1 0 0 3005.DAT
0 STEP
1 86 170.0 -168 190.0 0 0 1 0 1 0 -1 0 0 3005.DAT
0 STEP
1 86 110.0 -168 210.0 0 0 1 0 1 0 -1 0 0 3005.DAT
0 STEP
1 86 50.0 -168 230.0 0 0 1 0 1 0 -1 0 0 3005.DAT
0 STEP
1 86 170.0 -168 250.0 0 0 1 0 1 0 -1 0 0 3005.DAT
0 STEP
1 86 150.0 -168 270.0 0 0 1 0 1 0 -1 0 0 3005.DAT
0 STEP
1 86 110.0 -168 290.0 0 0 1 0 1 0 -1 0 0 3005.DAT
0 STEP
1 86 90.0 -168 330.0 0 0 1 0 1 0 -1 0 0 3005.DAT
0 STEP
1 86 170.0 -192 170.0 0 0 1 0 1 0 -1 0 0 3005.DAT
0 STEP
1 86 50.0 -192 210.0 0 0 1 0 1 0 -1 0 0 3005.DAT
0 STEP
1 86 150.0 -192 210.0 0 0 1 0 1 0 -1 0 0 3005.DAT
0 STEP
1 86 30.0 -192 250.0 0 0 1 0 1 0 -1 0 0 3005.DAT
0 STEP
1 86 110.0 -192 250.0 0 0 1 0 1 0 -1 0 0 3005.DAT
0 STEP
1 86 150.0 -192 270.0 0 0 1 0 1 0 -1 0 0 3005.DAT
0 STEP
1 86 170.0 -192 310.0 0 0 1 0 1 0 -1 0 0 3005.DAT
0 STEP
1 86 50.0 -192 330.0 0 0 1 0 1 0 -1 0 0 3005.DAT
0 STEP
1 86 150.0 -192 350.0 0 0 1 0 1 0 -1 0 0 3005.DAT
0 STEP
1 86 130.0 -216 130.0 0 0 1 0 1 0 -1 0 0 3005.DAT
0 STEP
1 86 170.0 -216 170.0 0 0 1 0 1 0 -1 0 0 3005.DAT
0 STEP
1 86 110.0 -216 190.0 0 0 1 0 1 0 -1 0 0 3005.DAT
0 STEP
1 86 30.0 -216 290.0 0 0 1 0 1 0 -1 0 0 3005.DAT
0 STEP
1 86 90.0 -216 290.0 0 0 1 0 1 0 -1 0 0 3005.DAT
0 STEP
1 86 150.0 -216 290.0 0 0 1 0 1 0 -1 0 0 3005.DAT
0 STEP
1 86 110.0 -240 10.0 0 0 1 0 1 0 -1 0 0 3005.DAT
0 STEP
1 86 130.0 -240 130.0 0 0 1 0 1 0 -1 0 0 3005.DAT
0 STEP
1 86 50.0 -240 150.0 0 0 1 0 1 0 -1 0 0 3005.DAT
0 STEP
1 86 170.0 -240 150.0 0 0 1 0 1 0 -1 0 0 3005.DAT
0 STEP
1 86 30.0 -240 170.0 0 0 1 0 1 0 -1 0 0 3005.DAT
0 STEP
1 86 150.0 -240 170.0 0 0 1 0 1 0 -1 0 0 3005.DAT
0 STEP
1 86 90.0 -240 190.0 0 0 1 0 1 0 -1 0 0 3005.DAT
0 STEP
1 86 170.0 -240 210.0 0 0 1 0 1 0 -1 0 0 3005.DAT
0 STEP
1 86 90.0 -240 230.0 0 0 1 0 1 0 -1 0 0 3005.DAT
0 STEP
1 86 150.0 -240 250.0 0 0 1 0 1 0 -1 0 0 3005.DAT
0 STEP
1 86 30.0 -240 270.0 0 0 1 0 1 0 -1 0 0 3005.DAT
0 STEP
1 86 70.0 -240 270.0 0 0 1 0 1 0 -1 0 0 3005.DAT
0 STEP
1 86 70.0 -240 330.0 0 0 1 0 1 0 -1 0 0 3005.DAT
0 STEP
1 86 130.0 -240 330.0 0 0 1 0 1 0 -1 0 0 3005.DAT
0 STEP
1 86 150.0 -264 130.0 0 0 1 0 1 0 -1 0 0 3005.DAT
0 STEP
1 86 30.0 -264 170.0 0 0 1 0 1 0 -1 0 0 3005.DAT
0 STEP
1 86 190.0 -264 170.0 0 0 1 0 1 0 -1 0 0 3005.DAT
0 STEP
1 86 30.0 -264 210.0 0 0 1 0 1 0 -1 0 0 3005.DAT
0 STEP
1 86 190.0 -264 230.0 0 0 1 0 1 0 -1 0 0 3005.DAT
0 STEP
1 86 50.0 -264 270.0 0 0 1 0 1 0 -1 0 0 3005.DAT
0 STEP
1 86 170.0 -264 270.0 0 0 1 0 1 0 -1 0 0 3005.DAT
0 STEP
1 86 110.0 -264 290.0 0 0 1 0 1 0 -1 0 0 3005.DAT
0 STEP
1 86 70.0 -264 310.0 0 0 1 0 1 0 -1 0 0 3005.DAT
0 STEP
1 86 150.0 -264 310.0 0 0 1 0 1 0 -1 0 0 3005.DAT
0 STEP
1 86 110.0 -288 10.0 0 0 1 0 1 0 -1 0 0 3005.DAT
0 STEP
1 86 130.0 -288 30.0 0 0 1 0 1 0 -1 0 0 3005.DAT
0 STEP
1 86 110.0 -288 50.0 0 0 1 0 1 0 -1 0 0 3005.DAT
0 STEP
1 86 130.0 -288 250.0 0 0 1 0 1 0 -1 0 0 3005.DAT
0 STEP
1 86 110.0 -288 310.0 0 0 1 0 1 0 -1 0 0 3005.DAT
0 STEP
1 86 90.0 -312 90.0 0 0 1 0 1 0 -1 0 0 3005.DAT
0 STEP
1 86 130.0 -312 110.0 0 0 1 0 1 0 -1 0 0 3005.DAT
0 STEP
1 86 70.0 -312 130.0 0 0 1 0 1 0 -1 0 0 3005.DAT
0 STEP
1 86 150.0 -312 150.0 0 0 1 0 1 0 -1 0 0 3005.DAT
0 STEP
1 86 50.0 -312 170.0 0 0 1 0 1 0 -1 0 0 3005.DAT
0 STEP
1 86 70.0 -312 210.0 0 0 1 0 1 0 -1 0 0 3005.DAT
0 STEP
1 86 110.0 -312 230.0 0 0 1 0 1 0 -1 0 0 3005.DAT
0 STEP
1 86 170.0 -312 230.0 0 0 1 0 1 0 -1 0 0 3005.DAT
0 STEP
1 86 70.0 -312 270.0 0 0 1 0 1 0 -1 0 0 3005.DAT
0 STEP
1 86 110.0 -312 270.0 0 0 1 0 1 0 -1 0 0 3005.DAT
0 STEP
1 86 90.0 -336 50.0 0 0 1 0 1 0 -1 0 0 3005.DAT
0 STEP
1 86 150.0 -336 190.0 0 0 1 0 1 0 -1 0 0 3005.DAT
0 STEP
1 86 130.0 -336 230.0 0 0 1 0 1 0 -1 0 0 3005.DAT
0 STEP
1 86 110.0 -336 250.0 0 0 1 0 1 0 -1 0 0 3005.DAT
0 STEP
1 86 90.0 -360 30.0 0 0 1 0 1 0 -1 0 0 3005.DAT
0 STEP
1 86 130.0 -360 30.0 0 0 1 0 1 0 -1 0 0 3005.DAT
0 STEP
1 86 90.0 -360 90.0 0 0 1 0 1 0 -1 0 0 3005.DAT
0 STEP
1 86 70.0 -360 130.0 0 0 1 0 1 0 -1 0 0 3005.DAT
0 STEP
1 86 150.0 -360 130.0 0 0 1 0 1 0 -1 0 0 3005.DAT
0 STEP
1 86 150.0 -360 210.0 0 0 1 0 1 0 -1 0 0 3005.DAT
0 STEP
1 86 130.0 -384 50.0 0 0 1 0 1 0 -1 0 0 3005.DAT
0 STEP
1 86 150.0 -384 190.0 0 0 1 0 1 0 -1 0 0 3005.DAT
0 STEP
1 86 130.0 -384 210.0 0 0 1 0 1 0 -1 0 0 3005.DAT
0 STEP
1 86 110.0 -408 70.0 0 0 1 0 1 0 -1 0 0 3005.DAT
0 STEP
1 86 130.0 -408 110.0 0 0 1 0 1 0 -1 0 0 3005.DAT
0 STEP
1 86 130.0 -408 170.0 0 0 1 0 1 0 -1 0 0 3005.DAT
0 STEP
1 86 90.0 -432 150.0 0 0 1 0 1 0 -1 0 0 3005.DAT
0 STEP
1 86 130.0 -144 360.0 0 0 1 0 1 0 -1 0 0 3004.DAT
0 STEP
1 86 130.0 -312 80.0 0 0 1 0 1 0 -1 0 0 3004.DAT
0 STEP
1 86 150.0 -216 160.0 0 0 1 0 1 0 -1 0 0 3004.DAT
0 STEP
1 86 130.0 -96 320.0 0 0 1 0 1 0 -1 0 0 3004.DAT
0 STEP
1 86 100.0 -384 170.0 -1 0 0 0 1 0 0 0 -1 3004.DAT
0 STEP
1 86 170.0 -144 320.0 0 0 1 0 1 0 -1 0 0 3004.DAT
0 STEP
1 86 140.0 -144 190.0 -1 0 0 0 1 0 0 0 -1 3004.DAT
0 STEP
1 86 140.0 -312 130.0 -1 0 0 0 1 0 0 0 -1 3004.DAT
0 STEP
1 86 100.0 -72 410.0 -1 0 0 0 1 0 0 0 -1 3004.DAT
0 STEP
1 86 130.0 -144 220.0 0 0 1 0 1 0 -1 0 0 3004.DAT
0 STEP
1 86 100.0 -240 170.0 -1 0 0 0 1 0 0 0 -1 3004.DAT
0 STEP
1 86 30.0 -216 260.0 0 0 1 0 1 0 -1 0 0 3004.DAT
0 STEP
1 86 110.0 -192 280.0 0 0 1 0 1 0 -1 0 0 3004.DAT
0 STEP
1 86 60.0 -144 330.0 -1 0 0 0 1 0 0 0 -1 3004.DAT
0 STEP
1 86 130.0 -240 260.0 0 0 1 0 1 0 -1 0 0 3004.DAT
0 STEP
1 86 140.0 -144 330.0 -1 0 0 0 1 0 0 0 -1 3004.DAT
0 STEP
1 86 130.0 -360 60.0 0 0 1 0 1 0 -1 0 0 3004.DAT
0 STEP
1 86 140.0 -312 270.0 -1 0 0 0 1 0 0 0 -1 3004.DAT
0 STEP
1 86 140.0 -168 290.0 -1 0 0 0 1 0 0 0 -1 3004.DAT
0 STEP
1 86 180.0 -240 170.0 -1 0 0 0 1 0 0 0 -1 3004.DAT
0 STEP
1 86 150.0 -240 220.0 0 0 1 0 1 0 -1 0 0 3004.DAT
0 STEP
1 86 170.0 -168 220.0 0 0 1 0 1 0 -1 0 0 3004.DAT
0 STEP
1 86 150.0 -336 220.0 0 0 1 0 1 0 -1 0 0 3004.DAT
0 STEP
1 86 80.0 -144 350.0 -1 0 0 0 1 0 0 0 -1 3004.DAT
0 STEP
1 86 130.0 -24 180.0 0 0 1 0 1 0 -1 0 0 3004.DAT
0 STEP
1 86 160.0 -192 330.0 -1 0 0 0 1 0 0 0 -1 3004.DAT
0 STEP
1 86 130.0 -144 300.0 0 0 1 0 1 0 -1 0 0 3004.DAT
0 STEP
1 86 90.0 -264 300.0 0 0 1 0 1 0 -1 0 0 3004.DAT
0 STEP
1 86 170.0 -168 280.0 0 0 1 0 1 0 -1 0 0 3004.DAT
0 STEP
1 86 160.0 -144 350.0 -1 0 0 0 1 0 0 0 -1 3004.DAT
0 STEP
1 86 150.0 0 120.0 0 0 1 0 1 0 -1 0 0 3004.DAT
0 STEP
1 86 120.0 -408 90.0 -1 0 0 0 1 0 0 0 -1 3004.DAT
0 STEP
1 86 90.0 -168 360.0 0 0 1 0 1 0 -1 0 0 3004.DAT
0 STEP
1 86 30.0 -264 240.0 0 0 1 0 1 0 -1 0 0 3004.DAT
0 STEP
1 86 110.0 -360 20.0 0 0 1 0 1 0 -1 0 0 3004.DAT
0 STEP
1 86 100.0 -288 30.0 -1 0 0 0 1 0 0 0 -1 3004.DAT
0 STEP
1 86 150.0 -144 280.0 0 0 1 0 1 0 -1 0 0 3004.DAT
0 STEP
1 86 130.0 -336 20.0 0 0 1 0 1 0 -1 0 0 3004.DAT
0 STEP
1 86 120.0 -168 230.0 -1 0 0 0 1 0 0 0 -1 3004.DAT
0 STEP
1 86 120.0 -168 370.0 -1 0 0 0 1 0 0 0 -1 3004.DAT
0 STEP
1 86 150.0 -240 140.0 0 0 1 0 1 0 -1 0 0 3004.DAT
0 STEP
1 86 60.0 -264 220.0 0 0 1 0 1 0 -1 0 0 3003.DAT
0 STEP
1 86 70.0 -312 240.0 0 0 1 0 1 0 -1 0 0 3004.DAT
0 STEP
1 86 50.0 -264 300.0 0 0 1 0 1 0 -1 0 0 3004.DAT
0 STEP
1 86 100.0 -240 330.0 -1 0 0 0 1 0 0 0 -1 3004.DAT
0 STEP
1 86 120.0 -384 110.0 -1 0 0 0 1 0 0 0 -1 3004.DAT
0 STEP
1 86 90.0 -408 80.0 0 0 1 0 1 0 -1 0 0 3004.DAT
0 STEP
1 86 110.0 -360 160.0 0 0 1 0 1 0 -1 0 0 3004.DAT
0 STEP
1 86 170.0 -240 300.0 0 0 1 0 1 0 -1 0 0 3004.DAT
0 STEP
1 86 150.0 -192 240.0 0 0 1 0 1 0 -1 0 0 3004.DAT
0 STEP
1 86 130.0 -360 120.0 0 0 1 0 1 0 -1 0 0 3004.DAT
0 STEP
1 86 70.0 -336 140.0 0 0 1 0 1 0 -1 0 0 3004.DAT
0 STEP
1 86 160.0 -120 330.0 -1 0 0 0 1 0 0 0 -1 3004.DAT
0 STEP
1 86 190.0 -240 200.0 0 0 1 0 1 0 -1 0 0 3004.DAT
0 STEP
1 86 140.0 -312 230.0 -1 0 0 0 1 0 0 0 -1 3004.DAT
0 STEP
1 86 110.0 -264 200.0 0 0 1 0 1 0 -1 0 0 3004.DAT
0 STEP
1 86 120.0 -264 310.0 -1 0 0 0 1 0 0 0 -1 3004.DAT
0 STEP
1 86 120.0 -312 10.0 -1 0 0 0 1 0 0 0 -1 3004.DAT
0 STEP
1 86 40.0 -144 290.0 -1 0 0 0 1 0 0 0 -1 3004.DAT
0 STEP
1 86 110.0 -384 40.0 0 0 1 0 1 0 -1 0 0 3004.DAT
0 STEP
1 86 160.0 -288 250.0 -1 0 0 0 1 0 0 0 -1 3004.DAT
0 STEP
1 86 70.0 -408 160.0 0 0 1 0 1 0 -1 0 0 3004.DAT
0 STEP
1 86 100.0 -144 290.0 -1 0 0 0 1 0 0 0 -1 3004.DAT
0 STEP
1 86 150.0 -288 140.0 0 0 1 0 1 0 -1 0 0 3004.DAT
0 STEP
1 86 120.0 -360 90.0 -1 0 0 0 1 0 0 0 -1 3004.DAT
0 STEP
1 86 70.0 -240 240.0 0 0 1 0 1 0 -1 0 0 3004.DAT
0 STEP
1 86 80.0 -216 190.0 -1 0 0 0 1 0 0 0 -1 3004.DAT
0 STEP
1 86 100.0 -336 70.0 -1 0 0 0 1 0 0 0 -1 3004.DAT
0 STEP
1 86 50.0 -192 180.0 0 0 1 0 1 0 -1 0 0 3004.DAT
0 STEP
1 86 180.0 -216 210.0 -1 0 0 0 1 0 0 0 -1 3004.DAT
0 STEP
1 86 110.0 -288 240.0 0 0 1 0 1 0 -1 0 0 3004.DAT
0 STEP
1 86 180.0 -240 270.0 -1 0 0 0 1 0 0 0 -1 3004.DAT
0 STEP
1 86 70.0 -144 300.0 0 0 1 0 1 0 -1 0 0 3004.DAT
0 STEP
1 86 110.0 -72 360.0 0 0 1 0 1 0 -1 0 0 3004.DAT
0 STEP
1 86 90.0 -312 120.0 0 0 1 0 1 0 -1 0 0 3004.DAT
0 STEP
1 86 120.0 -336 50.0 -1 0 0 0 1 0 0 0 -1 3004.DAT
0 STEP
1 86 120.0 -168 260.0 0 0 1 0 1 0 -1 0 0 3003.DAT
0 STEP
1 86 180.0 -192 220.0 0 0 1 0 1 0 -1 0 0 3003.DAT
0 STEP
1 86 130.0 -408 140.0 0 0 1 0 1 0 -1 0 0 3004.DAT
0 STEP
1 86 120.0 -240 230.0 -1 0 0 0 1 0 0 0 -1 3004.DAT
0 STEP
1 86 150.0 -168 360.0 0 0 1 0 1 0 -1 0 0 3004.DAT
0 STEP
1 86 70.0 -264 280.0 0 0 1 0 1 0 -1 0 0 3004.DAT
0 STEP
1 86 100.0 -216 310.0 -1 0 0 0 1 0 0 0 -1 3004.DAT
0 STEP
1 86 90.0 -432 180.0 0 0 1 0 1 0 -1 0 0 3004.DAT
0 STEP
1 86 80.0 -312 190.0 -1 0 0 0 1 0 0 0 -1 3004.DAT
0 STEP
1 86 140.0 -168 310.0 -1 0 0 0 1 0 0 0 -1 3010.DAT
0 STEP
1 86 110.0 -96 240.0 0 0 1 0 1 0 -1 0 0 3004.DAT
0 STEP
1 86 70.0 -144 380.0 0 0 1 0 1 0 -1 0 0 3004.DAT
0 STEP
1 86 140.0 -120 350.0 -1 0 0 0 1 0 0 0 -1 3010.DAT
0 STEP
1 86 180.0 -144 280.0 0 0 1 0 1 0 -1 0 0 3003.DAT
0 STEP
1 86 60.0 -288 280.0 0 0 1 0 1 0 -1 0 0 3003.DAT
0 STEP
1 86 110.0 -264 20.0 0 0 1 0 1 0 -1 0 0 3004.DAT
0 STEP
1 86 50.0 -192 240.0 0 0 1 0 1 0 -1 0 0 3004.DAT
0 STEP
1 86 100.0 -240 210.0 -1 0 0 0 1 0 0 0 -1 3010.DAT
0 STEP
1 86 170.0 -264 300.0 0 0 1 0 1 0 -1 0 0 3004.DAT
0 STEP
1 86 120.0 -408 200.0 0 0 1 0 1 0 -1 0 0 3003.DAT
0 STEP
1 86 190.0 -168 260.0 0 0 1 0 1 0 -1 0 0 3010.DAT
0 STEP
1 86 100.0 -192 220.0 0 0 1 0 1 0 -1 0 0 3003.DAT
0 STEP
1 86 70.0 -96 400.0 0 0 1 0 1 0 -1 0 0 3004.DAT
0 STEP
1 86 80.0 -288 170.0 -1 0 0 0 1 0 0 0 -1 3010.DAT
0 STEP
1 86 180.0 -192 250.0 -1 0 0 0 1 0 0 0 -1 3004.DAT
0 STEP
1 86 70.0 -72 420.0 0 0 1 0 1 0 -1 0 0 3004.DAT
0 STEP
1 86 30.0 -192 220.0 0 0 1 0 1 0 -1 0 0 3004.DAT
0 STEP
1 86 50.0 -312 220.0 0 0 1 0 1 0 -1 0 0 3010.DAT
0 STEP
1 86 100.0 -360 230.0 -1 0 0 0 1 0 0 0 -1 3004.DAT
0 STEP
1 86 160.0 -144 240.0 0 0 1 0 1 0 -1 0 0 3003.DAT
0 STEP
1 86 100.0 -264 130.0 -1 0 0 0 1 0 0 0 -1 3010.DAT
0 STEP
1 86 90.0 -288 280.0 0 0 1 0 1 0 -1 0 0 3004.DAT
0 STEP
1 86 170.0 -312 180.0 0 0 1 0 1 0 -1 0 0 3004.DAT
0 STEP
1 86 90.0 -312 240.0 0 0 1 0 1 0 -1 0 0 3010.DAT
0 STEP
1 86 110.0 -384 140.0 0 0 1 0 1 0 -1 0 0 3004.DAT
0 STEP
1 86 140.0 -360 150.0 -1 0 0 0 1 0 0 0 -1 3004.DAT
0 STEP
1 86 80.0 -312 160.0 0 0 1 0 1 0 -1 0 0 3003.DAT
0 STEP
1 86 20.0 0 150.0 -1 0 0 0 1 0 0 0 -1 3004.DAT
0 STEP
1 86 150.0 -336 160.0 0 0 1 0 1 0 -1 0 0 3004.DAT
0 STEP
1 86 140.0 -144 390.0 -1 0 0 0 1 0 0 0 -1 3004.DAT
0 STEP
1 86 100.0 -96 320.0 0 0 1 0 1 0 -1 0 0 3003.DAT
0 STEP
1 86 80.0 -192 160.0 0 0 1 0 1 0 -1 0 0 3003.DAT
0 STEP
1 86 70.0 -240 160.0 0 0 1 0 1 0 -1 0 0 3010.DAT
0 STEP
1 86 70.0 -384 180.0 0 0 1 0 1 0 -1 0 0 3004.DAT
0 STEP
1 86 60.0 -264 250.0 -1 0 0 0 1 0 0 0 -1 3004.DAT
0 STEP
1 86 170.0 -264 160.0 0 0 1 0 1 0 -1 0 0 3004.DAT
0 STEP
1 86 130.0 -240 160.0 0 0 1 0 1 0 -1 0 0 3004.DAT
0 STEP
1 86 160.0 -168 330.0 -1 0 0 0 1 0 0 0 -1 3004.DAT
0 STEP
1 86 100.0 -120 300.0 0 0 1 0 1 0 -1 0 0 3003.DAT
0 STEP
1 86 130.0 -216 320.0 0 0 1 0 1 0 -1 0 0 3004.DAT
0 STEP
1 86 140.0 -168 170.0 -1 0 0 0 1 0 0 0 -1 3004.DAT
0 STEP
1 86 40.0 -192 270.0 -1 0 0 0 1 0 0 0 -1 3004.DAT
0 STEP
1 86 130.0 -384 160.0 0 0 1 0 1 0 -1 0 0 3010.DAT
0 STEP
1 86 30.0 -288 180.0 0 0 1 0 1 0 -1 0 0 3004.DAT
0 STEP
1 86 100.0 -96 350.0 -1 0 0 0 1 0 0 0 -1 3010.DAT
0 STEP
1 86 140.0 -312 180.0 0 0 1 0 1 0 -1 0 0 3003.DAT
0 STEP
1 86 140.0 -312 210.0 -1 0 0 0 1 0 0 0 -1 3010.DAT
0 STEP
1 86 100.0 -360 200.0 0 0 1 0 1 0 -1 0 0 3003.DAT
0 STEP
1 86 100.0 -120 420.0 0 0 1 0 1 0 -1 0 0 3003.DAT
0 STEP
1 86 110.0 -192 160.0 0 0 1 0 1 0 -1 0 0 3004.DAT
0 STEP
1 86 100.0 -120 330.0 -1 0 0 0 1 0 0 0 -1 3004.DAT
0 STEP
1 86 140.0 -192 160.0 0 0 1 0 1 0 -1 0 0 3003.DAT
0 STEP
1 86 150.0 -408 160.0 0 0 1 0 1 0 -1 0 0 3004.DAT
0 STEP
1 86 120.0 -312 150.0 -1 0 0 0 1 0 0 0 -1 3004.DAT
0 STEP
1 86 110.0 -312 100.0 0 0 1 0 1 0 -1 0 0 3010.DAT
0 STEP
1 86 120.0 -216 290.0 -1 0 0 0 1 0 0 0 -1 3004.DAT
0 STEP
1 86 160.0 -144 210.0 -1 0 0 0 1 0 0 0 -1 3004.DAT
0 STEP
1 86 100.0 -240 300.0 -1 0 0 0 1 0 0 0 -1 3001.DAT
0 STEP
1 86 140.0 -192 300.0 0 0 1 0 1 0 -1 0 0 3003.DAT
0 STEP
1 86 100.0 -288 200.0 0 0 1 0 1 0 -1 0 0 3003.DAT
0 STEP
1 86 110.0 -312 180.0 0 0 1 0 1 0 -1 0 0 3004.DAT
0 STEP
1 86 70.0 -192 220.0 0 0 1 0 1 0 -1 0 0 3004.DAT
0 STEP
1 86 120.0 -168 340.0 0 0 1 0 1 0 -1 0 0 3003.DAT
0 STEP
1 86 150.0 -168 240.0 0 0 1 0 1 0 -1 0 0 3004.DAT
0 STEP
1 86 120.0 -120 240.0 0 0 1 0 1 0 -1 0 0 3003.DAT
0 STEP
1 86 30.0 -240 220.0 0 0 1 0 1 0 -1 0 0 3010.DAT
0 STEP
1 86 80.0 -96 220.0 0 0 1 0 1 0 -1 0 0 3003.DAT
0 STEP
1 86 70.0 -288 200.0 0 0 1 0 1 0 -1 0 0 3004.DAT
0 STEP
1 86 60.0 -216 250.0 -1 0 0 0 1 0 0 0 -1 3004.DAT
0 STEP
1 86 50.0 -288 220.0 0 0 1 0 1 0 -1 0 0 3010.DAT
0 STEP
1 86 150.0 -120 260.0 0 0 1 0 1 0 -1 0 0 3009.DAT
0 STEP
1 86 100.0 -240 260.0 0 0 1 0 1 0 -1 0 0 3003.DAT
0 STEP
1 86 100.0 -264 260.0 0 0 1 0 1 0 -1 0 0 3003.DAT
0 STEP
1 86 100.0 -72 440.0 0 0 1 0 1 0 -1 0 0 3003.DAT
0 STEP
1 86 150.0 -384 160.0 0 0 1 0 1 0 -1 0 0 3004.DAT
0 STEP
1 86 140.0 -96 220.0 0 0 1 0 1 0 -1 0 0 3003.DAT
0 STEP
1 86 90.0 -384 80.0 0 0 1 0 1 0 -1 0 0 3010.DAT
0 STEP
1 86 120.0 -48 420.0 0 0 1 0 1 0 -1 0 0 3003.DAT
0 STEP
1 86 60.0 -168 200.0 0 0 1 0 1 0 -1 0 0 3003.DAT
0 STEP
1 86 70.0 0 120.0 0 0 1 0 1 0 -1 0 0 3004.DAT
0 STEP
1 86 140.0 -216 240.0 0 0 1 0 1 0 -1 0 0 3001.DAT
0 STEP
1 86 160.0 -216 190.0 -1 0 0 0 1 0 0 0 -1 3010.DAT
0 STEP
1 86 120.0 -312 40.0 0 0 1 0 1 0 -1 0 0 3003.DAT
0 STEP
1 86 200.0 0 150.0 -1 0 0 0 1 0 0 0 -1 3004.DAT
0 STEP
1 86 100.0 -144 380.0 0 0 1 0 1 0 -1 0 0 3003.DAT
0 STEP
1 86 100.0 -216 340.0 0 0 1 0 1 0 -1 0 0 3003.DAT
0 STEP
1 86 130.0 -336 140.0 0 0 1 0 1 0 -1 0 0 3008.DAT
0 STEP
1 86 120.0 -120 210.0 -1 0 0 0 1 0 0 0 -1 3004.DAT
0 STEP
1 86 100.0 -336 20.0 0 0 1 0 1 0 -1 0 0 3003.DAT
0 STEP
1 86 80.0 -192 260.0 0 0 1 0 1 0 -1 0 0 3003.DAT
0 STEP
1 86 90.0 -408 200.0 0 0 1 0 1 0 -1 0 0 3004.DAT
0 STEP
1 86 100.0 -168 180.0 0 0 1 0 1 0 -1 0 0 3003.DAT
0 STEP
1 86 150.0 -240 300.0 0 0 1 0 1 0 -1 0 0 3010.DAT
0 STEP
1 86 120.0 -384 80.0 0 0 1 0 1 0 -1 0 0 3003.DAT
0 STEP
1 86 140.0 -360 180.0 0 0 1 0 1 0 -1 0 0 3003.DAT
0 STEP
1 86 140.0 -264 280.0 0 0 1 0 1 0 -1 0 0 3003.DAT
0 STEP
1 86 140.0 -264 230.0 -1 0 0 0 1 0 0 0 -1 3010.DAT
0 STEP
1 86 80.0 -360 160.0 0 0 1 0 1 0 -1 0 0 3003.DAT
0 STEP
1 86 130.0 -192 240.0 0 0 1 0 1 0 -1 0 0 3010.DAT
0 STEP
1 86 100.0 -216 130.0 -1 0 0 0 1 0 0 0 -1 3004.DAT
0 STEP
1 86 180.0 -240 240.0 0 0 1 0 1 0 -1 0 0 3003.DAT
0 STEP
1 86 130.0 -360 220.0 0 0 1 0 1 0 -1 0 0 3004.DAT
0 STEP
1 86 180.0 -192 280.0 0 0 1 0 1 0 -1 0 0 3003.DAT
0 STEP
1 86 90.0 -264 220.0 0 0 1 0 1 0 -1 0 0 3004.DAT
0 STEP
1 86 90.0 -96 400.0 0 0 1 0 1 0 -1 0 0 3010.DAT
0 STEP
1 86 140.0 -168 200.0 0 0 1 0 1 0 -1 0 0 3003.DAT
0 STEP
1 86 100.0 -144 320.0 0 0 1 0 1 0 -1 0 0 3003.DAT
0 STEP
1 86 70.0 -168 300.0 0 0 1 0 1 0 -1 0 0 3008.DAT
0 STEP
1 86 80.0 -384 140.0 0 0 1 0 1 0 -1 0 0 3003.DAT
0 STEP
1 86 140.0 -288 280.0 -1 0 0 0 1 0 0 0 -1 3001.DAT
0 STEP
1 86 90.0 -312 40.0 0 0 1 0 1 0 -1 0 0 3010.DAT
0 STEP
1 86 140.0 -312 250.0 -1 0 0 0 1 0 0 0 -1 3010.DAT
0 STEP
1 86 110.0 -336 200.0 0 0 1 0 1 0 -1 0 0 3010.DAT
0 STEP
1 86 100.0 -216 240.0 0 0 1 0 1 0 -1 0 0 3001.DAT
0 STEP
1 86 100.0 -216 160.0 -1 0 0 0 1 0 0 0 -1 3001.DAT
0 STEP
1 86 160.0 -216 320.0 0 0 1 0 1 0 -1 0 0 3003.DAT
0 STEP
1 86 100.0 -288 140.0 -1 0 0 0 1 0 0 0 -1 3001.DAT
0 STEP
1 86 60.0 -192 290.0 -1 0 0 0 1 0 0 0 -1 3010.DAT
0 STEP
1 86 150.0 -48 200.0 0 0 1 0 1 0 -1 0 0 3010.DAT
0 STEP
1 86 60.0 -216 300.0 0 0 1 0 1 0 -1 0 0 3001.DAT
0 STEP
1 86 80.0 -336 200.0 0 0 1 0 1 0 -1 0 0 3001.DAT
0 STEP
1 86 100.0 -384 200.0 0 0 1 0 1 0 -1 0 0 3003.DAT
0 STEP
1 86 170.0 -120 280.0 0 0 1 0 1 0 -1 0 0 3010.DAT
0 STEP
1 86 50.0 -168 300.0 0 0 1 0 1 0 -1 0 0 3009.DAT
0 STEP
1 86 100.0 -144 270.0 -1 0 0 0 1 0 0 0 -1 3010.DAT
0 STEP
1 86 100.0 -144 220.0 0 0 1 0 1 0 -1 0 0 3001.DAT
0 STEP
1 86 80.0 -288 240.0 0 0 1 0 1 0 -1 0 0 3003.DAT
0 STEP
1 86 60.0 -120 320.0 0 0 1 0 1 0 -1 0 0 3001.DAT
0 STEP
1 86 100.0 -240 140.0 0 0 1 0 1 0 -1 0 0 3003.DAT
0 STEP
1 86 40.0 -216 200.0 0 0 1 0 1 0 -1 0 0 3001.DAT
0 STEP
1 86 120.0 -192 190.0 -1 0 0 0 1 0 0 0 -1 3009.DAT
0 STEP
1 86 160.0 -264 250.0 -1 0 0 0 1 0 0 0 -1 3010.DAT
0 STEP
1 86 50.0 -144 240.0 0 0 1 0 1 0 -1 0 0 3010.DAT
0 STEP
1 86 60.0 -264 190.0 -1 0 0 0 1 0 0 0 -1 3010.DAT
0 STEP
1 86 160.0 -264 200.0 -1 0 0 0 1 0 0 0 -1 3001.DAT
0 STEP
1 86 90.0 -168 260.0 0 0 1 0 1 0 -1 0 0 3009.DAT
0 STEP
1 86 100.0 -360 120.0 0 0 1 0 1 0 -1 0 0 3003.DAT
0 STEP
1 86 30.0 -168 260.0 0 0 1 0 1 0 -1 0 0 3010.DAT
0 STEP
1 86 100.0 -264 160.0 -1 0 0 0 1 0 0 0 -1 2456.DAT
0 STEP
1 86 180.0 -216 260.0 0 0 1 0 1 0 -1 0 0 3001.DAT
0 STEP
1 86 50.0 -240 240.0 0 0 1 0 1 0 -1 0 0 3008.DAT
0 STEP
1 86 140.0 -240 190.0 -1 0 0 0 1 0 0 0 -1 3010.DAT
0 STEP
1 86 70.0 -360 200.0 0 0 1 0 1 0 -1 0 0 3004.DAT
0 STEP
1 86 80.0 -72 380.0 0 0 1 0 1 0 -1 0 0 3003.DAT
0 STEP
1 86 100.0 -408 140.0 0 0 1 0 1 0 -1 0 0 3001.DAT
0 STEP
1 86 120.0 -432 160.0 0 0 1 0 1 0 -1 0 0 3001.DAT
0 STEP
1 86 140.0 -72 220.0 0 0 1 0 1 0 -1 0 0 3003.DAT
0 STEP
1 86 160.0 -288 200.0 0 0 1 0 1 0 -1 0 0 3001.DAT
0 STEP
1 86 130.0 -288 200.0 0 0 1 0 1 0 -1 0 0 3010.DAT
0 STEP
1 86 100.0 -336 120.0 0 0 1 0 1 0 -1 0 0 3001.DAT
0 STEP
1 86 80.0 -192 310.0 -1 0 0 0 1 0 0 0 -1 3010.DAT
0 STEP
1 86 100.0 -360 60.0 0 0 1 0 1 0 -1 0 0 3003.DAT
0 STEP
1 86 100.0 -192 340.0 -1 0 0 0 1 0 0 0 -1 3001.DAT
0 STEP
1 86 130.0 -120 300.0 0 0 1 0 1 0 -1 0 0 3010.DAT
0 STEP
1 86 70.0 -144 220.0 0 0 1 0 1 0 -1 0 0 3010.DAT
0 STEP
1 86 70.0 -216 220.0 0 0 1 0 1 0 -1 0 0 3004.DAT
0 STEP
1 86 80.0 -120 240.0 0 0 1 0 1 0 -1 0 0 3001.DAT
0 STEP
1 86 200.0 -24 150.0 -1 0 0 0 1 0 0 0 -1 3004.DAT
0 STEP
1 86 180.0 -24 170.0 -1 0 0 0 1 0 0 0 -1 3004.DAT
0 STEP
1 86 170.0 -48 180.0 0 0 1 0 1 0 -1 0 0 3004.DAT
0 STEP
1 86 160.0 -24 200.0 0 0 1 0 1 0 -1 0 0 3003.DAT
0 STEP
1 86 150.0 -24 140.0 0 0 1 0 1 0 -1 0 0 3010.DAT
0 STEP
1 86 50.0 -48 190.0 0 0 1 0 1 0 -1 0 0 3005.DAT
0 STEP
1 86 90.0 -48 210.0 0 0 1 0 1 0 -1 0 0 3005.DAT
0 STEP
1 86 90.0 -24 170.0 0 0 1 0 1 0 -1 0 0 3005.DAT
0 STEP
1 86 40.0 -24 170.0 -1 0 0 0 1 0 0 0 -1 3004.DAT
0 STEP
1 86 20.0 -24 150.0 -1 0 0 0 1 0 0 0 -1 3004.DAT
0 STEP
1 86 70.0 -48 220.0 0 0 1 0 1 0 -1 0 0 3004.DAT
0 STEP
1 86 90.0 -24 200.0 0 0 1 0 1 0 -1 0 0 3004.DAT
0 STEP
1 86 70.0 -24 140.0 0 0 1 0 1 0 -1 0 0 3010.DAT
0 STEP
1 86 80.0 -48 180.0 0 0 1 0 1 0 -1 0 0 3003.DAT
0 STEP
1 86 60.0 -24 200.0 0 0 1 0 1 0 -1 0 0 3003.DAT
0 STEP
1 86 80.0 -72 220.0 0 0 1 0 1 0 -1 0 0 3003.DAT
0 STEP
1 86 110.0 -96 430.0 0 0 1 0 1 0 -1 0 0 3005.DAT
0 STEP
1 86 110.0 -96 370.0 0 0 1 0 1 0 -1 0 0 3005.DAT
0 STEP
1 86 130.0 -72 430.0 0 0 1 0 1 0 -1 0 0 3005.DAT
0 STEP
1 86 150.0 -96 390.0 0 0 1 0 1 0 -1 0 0 3005.DAT
0 STEP
1 86 130.0 -96 440.0 0 0 1 0 1 0 -1 0 0 3004.DAT
0 STEP
1 86 140.0 -72 370.0 -1 0 0 0 1 0 0 0 -1 3004.DAT
0 STEP
1 86 140.0 -120 410.0 -1 0 0 0 1 0 0 0 -1 3004.DAT
0 STEP
1 86 150.0 -96 420.0 0 0 1 0 1 0 -1 0 0 3004.DAT
0 STEP
1 86 70.0 -120 380.0 0 0 1 0 1 0 -1 0 0 3004.DAT
0 STEP
1 86 140.0 -72 400.0 0 0 1 0 1 0 -1 0 0 3003.DAT
0 STEP
1 86 100.0 -96 450.0 -1 0 0 0 1 0 0 0 -1 3004.DAT
0 STEP
1 86 140.0 -96 370.0 -1 0 0 0 1 0 0 0 -1 3004.DAT
0 STEP
1 86 150.0 -96 340.0 0 0 1 0 1 0 -1 0 0 3004.DAT
0 STEP
1 86 120.0 -96 400.0 0 0 1 0 1 0 -1 0 0 3003.DAT
0 STEP
1 86 120.0 -120 380.0 -1 0 0 0 1 0 0 0 -1 3001.DAT
0 STEP
