1 86 40.0 -192 20.0 -1 0 0 0 1 0 0 0 -1 3001.DAT
0 STEP
1 86 20.0 -216 10.0 -1 0 0 0 1 0 0 0 -1 3004.DAT
0 STEP
1 86 10.0 -216 40.0 0 0 1 0 1 0 -1 0 0 3004.DAT
0 STEP
1 86 20.0 -192 50.0 -1 0 0 0 1 0 0 0 -1 3004.DAT
0 STEP
1 86 80.0 -168 10.0 -1 0 0 0 1 0 0 0 -1 3009.DAT
0 STEP
1 86 80.0 -168 40.0 -1 0 0 0 1 0 0 0 -1 2456.DAT
0 STEP
1 86 40.0 -216 40.0 0 0 1 0 1 0 -1 0 0 3003.DAT
0 STEP
1 86 50.0 -216 10.0 0 0 1 0 1 0 -1 0 0 3005.DAT
0 STEP
1 86 60.0 -432 20.0 0 0 1 0 1 0 -1 0 0 3003.DAT
0 STEP
1 86 60.0 -456 10.0 -1 0 0 0 1 0 0 0 -1 3004.DAT
0 STEP
1 86 60.0 -456 40.0 0 0 1 0 1 0 -1 0 0 3003.DAT
0 STEP
1 86 50.0 -192 50.0 0 0 1 0 1 0 -1 0 0 3005.DAT
0 STEP
1 86 60.0 -432 50.0 -1 0 0 0 1 0 0 0 -1 3004.DAT
0 STEP
1 86 80.0 0 20.0 0 0 1 0 1 0 -1 0 0 3003.DAT
0 STEP
1 86 80.0 -24 10.0 -1 0 0 0 1 0 0 0 -1 3004.DAT
0 STEP
1 86 70.0 -48 20.0 0 0 1 0 1 0 -1 0 0 3004.DAT
0 STEP
1 86 80.0 -72 10.0 -1 0 0 0 1 0 0 0 -1 3004.DAT
0 STEP
1 86 100.0 -96 20.0 -1 0 0 0 1 0 0 0 -1 3001.DAT
0 STEP
1 86 80.0 -216 20.0 0 0 1 0 1 0 -1 0 0 3003.DAT
0 STEP
1 86 120.0 -384 20.0 -1 0 0 0 1 0 0 0 -1 2456.DAT
0 STEP
1 86 70.0 -408 10.0 0 0 1 0 1 0 -1 0 0 3005.DAT
0 STEP
1 86 70.0 -1392 20.0 0 0 1 0 1 0 -1 0 0 3004.DAT
0 STEP
1 86 80.0 -1416 10.0 -1 0 0 0 1 0 0 0 -1 3004.DAT
0 STEP
1 86 70.0 -1440 20.0 0 0 1 0 1 0 -1 0 0 3004.DAT
0 STEP
1 86 80.0 -24 40.0 0 0 1 0 1 0 -1 0 0 3003.DAT
0 STEP
1 86 80.0 -72 40.0 0 0 1 0 1 0 -1 0 0 3003.DAT
0 STEP
1 86 70.0 -408 40.0 0 0 1 0 1 0 -1 0 0 3004.DAT
0 STEP
1 86 80.0 -1368 30.0 -1 0 0 0 1 0 0 0 -1 3004.DAT
0 STEP
1 86 80.0 -1416 40.0 0 0 1 0 1 0 -1 0 0 3003.DAT
0 STEP
1 86 80.0 0 50.0 -1 0 0 0 1 0 0 0 -1 3004.DAT
0 STEP
1 86 70.0 -48 50.0 0 0 1 0 1 0 -1 0 0 3005.DAT
0 STEP
1 86 100.0 -96 50.0 -1 0 0 0 1 0 0 0 -1 3010.DAT
0 STEP
1 86 80.0 -192 50.0 -1 0 0 0 1 0 0 0 -1 3004.DAT
0 STEP
1 86 100.0 -216 50.0 -1 0 0 0 1 0 0 0 -1 3010.DAT
0 STEP
1 86 100.0 -384 50.0 -1 0 0 0 1 0 0 0 -1 3010.DAT
0 STEP
1 86 100.0 -48 20.0 0 0 1 0 1 0 -1 0 0 3003.DAT
0 STEP
1 86 100.0 -120 10.0 -1 0 0 0 1 0 0 0 -1 3004.DAT
0 STEP
1 86 140.0 -144 20.0 -1 0 0 0 1 0 0 0 -1 2456.DAT
0 STEP
1 86 120.0 -192 20.0 -1 0 0 0 1 0 0 0 -1 3001.DAT
0 STEP
1 86 140.0 -240 20.0 -1 0 0 0 1 0 0 0 -1 2456.DAT
0 STEP
1 86 120.0 -336 20.0 -1 0 0 0 1 0 0 0 -1 3001.DAT
0 STEP
1 86 90.0 -360 10.0 0 0 1 0 1 0 -1 0 0 3005.DAT
0 STEP
1 86 100.0 -408 10.0 -1 0 0 0 1 0 0 0 -1 3004.DAT
0 STEP
1 86 90.0 -432 20.0 0 0 1 0 1 0 -1 0 0 3004.DAT
0 STEP
1 86 120.0 -456 20.0 -1 0 0 0 1 0 0 0 -1 3001.DAT
0 STEP
1 86 90.0 -480 10.0 0 0 1 0 1 0 -1 0 0 3005.DAT
0 STEP
1 86 100.0 -1368 10.0 -1 0 0 0 1 0 0 0 -1 3004.DAT
0 STEP
1 86 120.0 -1392 20.0 -1 0 0 0 1 0 0 0 -1 3001.DAT
0 STEP
1 86 90.0 -1440 10.0 0 0 1 0 1 0 -1 0 0 3005.DAT
0 STEP
1 86 100.0 -1464 10.0 -1 0 0 0 1 0 0 0 -1 3004.DAT
0 STEP
1 86 90.0 -120 40.0 0 0 1 0 1 0 -1 0 0 3004.DAT
0 STEP
1 86 90.0 -360 40.0 0 0 1 0 1 0 -1 0 0 3004.DAT
0 STEP
1 86 100.0 -408 40.0 0 0 1 0 1 0 -1 0 0 3003.DAT
0 STEP
1 86 90.0 -480 40.0 0 0 1 0 1 0 -1 0 0 3004.DAT
0 STEP
1 86 120.0 -1344 30.0 -1 0 0 0 1 0 0 0 -1 3010.DAT
0 STEP
1 86 100.0 -1440 40.0 0 0 1 0 1 0 -1 0 0 3003.DAT
0 STEP
1 86 90.0 -1464 30.0 0 0 1 0 1 0 -1 0 0 3005.DAT
0 STEP
1 86 100.0 -48 50.0 -1 0 0 0 1 0 0 0 -1 3004.DAT
0 STEP
1 86 140.0 -144 50.0 -1 0 0 0 1 0 0 0 -1 3009.DAT
0 STEP
1 86 140.0 -240 50.0 -1 0 0 0 1 0 0 0 -1 3009.DAT
0 STEP
1 86 160.0 -336 50.0 -1 0 0 0 1 0 0 0 -1 3008.DAT
0 STEP
1 86 90.0 -432 50.0 0 0 1 0 1 0 -1 0 0 3005.DAT
0 STEP
1 86 100.0 -456 50.0 -1 0 0 0 1 0 0 0 -1 3004.DAT
0 STEP
1 86 100.0 -1464 50.0 -1 0 0 0 1 0 0 0 -1 3004.DAT
0 STEP
1 86 110.0 -72 10.0 0 0 1 0 1 0 -1 0 0 3005.DAT
0 STEP
1 86 140.0 -216 10.0 -1 0 0 0 1 0 0 0 -1 3010.DAT
0 STEP
1 86 110.0 -264 10.0 0 0 1 0 1 0 -1 0 0 3005.DAT
0 STEP
1 86 120.0 -288 20.0 0 0 1 0 1 0 -1 0 0 3003.DAT
0 STEP
1 86 110.0 -312 10.0 0 0 1 0 1 0 -1 0 0 3005.DAT
0 STEP
1 86 160.0 -360 10.0 -1 0 0 0 1 0 0 0 -1 3009.DAT
0 STEP
1 86 140.0 -432 10.0 -1 0 0 0 1 0 0 0 -1 3010.DAT
0 STEP
1 86 140.0 -480 10.0 -1 0 0 0 1 0 0 0 -1 3010.DAT
0 STEP
1 86 110.0 -504 20.0 0 0 1 0 1 0 -1 0 0 3004.DAT
0 STEP
1 86 120.0 -528 20.0 0 0 1 0 1 0 -1 0 0 3003.DAT
0 STEP
1 86 140.0 -1344 10.0 -1 0 0 0 1 0 0 0 -1 3010.DAT
0 STEP
1 86 110.0 -1416 20.0 0 0 1 0 1 0 -1 0 0 3004.DAT
0 STEP
1 86 120.0 -1440 10.0 -1 0 0 0 1 0 0 0 -1 3004.DAT
0 STEP
1 86 110.0 -1488 20.0 0 0 1 0 1 0 -1 0 0 3004.DAT
0 STEP
1 86 110.0 -72 40.0 0 0 1 0 1 0 -1 0 0 3004.DAT
0 STEP
1 86 120.0 -120 40.0 0 0 1 0 1 0 -1 0 0 3003.DAT
0 STEP
1 86 120.0 -216 30.0 -1 0 0 0 1 0 0 0 -1 3004.DAT
0 STEP
1 86 140.0 -264 40.0 -1 0 0 0 1 0 0 0 -1 3001.DAT
0 STEP
1 86 140.0 -312 40.0 -1 0 0 0 1 0 0 0 -1 3001.DAT
0 STEP
1 86 140.0 -360 40.0 -1 0 0 0 1 0 0 0 -1 3001.DAT
0 STEP
1 86 140.0 -432 40.0 -1 0 0 0 1 0 0 0 -1 3001.DAT
0 STEP
1 86 120.0 -480 40.0 0 0 1 0 1 0 -1 0 0 3003.DAT
0 STEP
1 86 110.0 -1320 30.0 0 0 1 0 1 0 -1 0 0 3005.DAT
0 STEP
1 86 110.0 -1368 30.0 0 0 1 0 1 0 -1 0 0 3005.DAT
0 STEP
1 86 120.0 -1464 30.0 -1 0 0 0 1 0 0 0 -1 3004.DAT
0 STEP
1 86 110.0 -192 50.0 0 0 1 0 1 0 -1 0 0 3005.DAT
0 STEP
1 86 120.0 -288 50.0 -1 0 0 0 1 0 0 0 -1 3004.DAT
0 STEP
1 86 140.0 -504 50.0 -1 0 0 0 1 0 0 0 -1 3010.DAT
0 STEP
1 86 120.0 -528 50.0 -1 0 0 0 1 0 0 0 -1 3004.DAT
0 STEP
1 86 130.0 -120 10.0 0 0 1 0 1 0 -1 0 0 3005.DAT
0 STEP
1 86 180.0 -264 10.0 -1 0 0 0 1 0 0 0 -1 3009.DAT
0 STEP
1 86 180.0 -312 10.0 -1 0 0 0 1 0 0 0 -1 3009.DAT
0 STEP
1 86 140.0 -408 20.0 0 0 1 0 1 0 -1 0 0 3003.DAT
0 STEP
1 86 140.0 -504 20.0 0 0 1 0 1 0 -1 0 0 3003.DAT
0 STEP
1 86 130.0 -552 10.0 0 0 1 0 1 0 -1 0 0 3005.DAT
0 STEP
1 86 130.0 -576 20.0 0 0 1 0 1 0 -1 0 0 3004.DAT
0 STEP
1 86 160.0 -1320 20.0 -1 0 0 0 1 0 0 0 -1 3001.DAT
0 STEP
1 86 130.0 -1368 20.0 0 0 1 0 1 0 -1 0 0 3004.DAT
0 STEP
1 86 140.0 -1416 20.0 0 0 1 0 1 0 -1 0 0 3003.DAT
0 STEP
1 86 130.0 -1464 10.0 0 0 1 0 1 0 -1 0 0 3005.DAT
0 STEP
1 86 130.0 -552 40.0 0 0 1 0 1 0 -1 0 0 3004.DAT
0 STEP
1 86 130.0 -1440 30.0 0 0 1 0 1 0 -1 0 0 3005.DAT
0 STEP
1 86 160.0 -192 50.0 -1 0 0 0 1 0 0 0 -1 3010.DAT
0 STEP
1 86 140.0 -408 50.0 -1 0 0 0 1 0 0 0 -1 3004.DAT
0 STEP
1 86 130.0 -456 50.0 0 0 1 0 1 0 -1 0 0 3005.DAT
0 STEP
1 86 140.0 -576 50.0 -1 0 0 0 1 0 0 0 -1 3004.DAT
0 STEP
1 86 220.0 -168 10.0 -1 0 0 0 1 0 0 0 -1 3008.DAT
0 STEP
1 86 150.0 -288 20.0 0 0 1 0 1 0 -1 0 0 3004.DAT
0 STEP
1 86 150.0 -528 10.0 0 0 1 0 1 0 -1 0 0 3005.DAT
0 STEP
1 86 160.0 -552 10.0 -1 0 0 0 1 0 0 0 -1 3004.DAT
0 STEP
1 86 160.0 -576 20.0 0 0 1 0 1 0 -1 0 0 3003.DAT
0 STEP
1 86 150.0 -600 10.0 0 0 1 0 1 0 -1 0 0 3005.DAT
0 STEP
1 86 160.0 -624 20.0 0 0 1 0 1 0 -1 0 0 3003.DAT
0 STEP
1 86 150.0 -648 20.0 0 0 1 0 1 0 -1 0 0 3004.DAT
0 STEP
1 86 160.0 -672 20.0 0 0 1 0 1 0 -1 0 0 3003.DAT
0 STEP
1 86 150.0 -696 20.0 0 0 1 0 1 0 -1 0 0 3004.DAT
0 STEP
1 86 160.0 -720 20.0 0 0 1 0 1 0 -1 0 0 3003.DAT
0 STEP
1 86 150.0 -744 20.0 0 0 1 0 1 0 -1 0 0 3004.DAT
0 STEP
1 86 160.0 -768 20.0 0 0 1 0 1 0 -1 0 0 3003.DAT
0 STEP
1 86 150.0 -792 20.0 0 0 1 0 1 0 -1 0 0 3004.DAT
0 STEP
1 86 160.0 -816 20.0 0 0 1 0 1 0 -1 0 0 3003.DAT
0 STEP
1 86 150.0 -840 20.0 0 0 1 0 1 0 -1 0 0 3004.DAT
0 STEP
1 86 160.0 -864 20.0 0 0 1 0 1 0 -1 0 0 3003.DAT
0 STEP
1 86 150.0 -888 20.0 0 0 1 0 1 0 -1 0 0 3004.DAT
0 STEP
1 86 160.0 -912 20.0 0 0 1 0 1 0 -1 0 0 3003.DAT
0 STEP
1 86 150.0 -936 20.0 0 0 1 0 1 0 -1 0 0 3004.DAT
0 STEP
1 86 160.0 -960 20.0 0 0 1 0 1 0 -1 0 0 3003.DAT
0 STEP
1 86 150.0 -984 20.0 0 0 1 0 1 0 -1 0 0 3004.DAT
0 STEP
1 86 160.0 -1008 20.0 0 0 1 0 1 0 -1 0 0 3003.DAT
0 STEP
1 86 150.0 -1032 20.0 0 0 1 0 1 0 -1 0 0 3004.DAT
0 STEP
1 86 160.0 -1056 20.0 0 0 1 0 1 0 -1 0 0 3003.DAT
0 STEP
1 86 150.0 -1080 20.0 0 0 1 0 1 0 -1 0 0 3004.DAT
0 STEP
1 86 160.0 -1104 20.0 0 0 1 0 1 0 -1 0 0 3003.DAT
0 STEP
1 86 150.0 -1128 20.0 0 0 1 0 1 0 -1 0 0 3004.DAT
0 STEP
1 86 160.0 -1152 20.0 0 0 1 0 1 0 -1 0 0 3003.DAT
0 STEP
1 86 150.0 -1176 20.0 0 0 1 0 1 0 -1 0 0 3004.DAT
0 STEP
1 86 160.0 -1200 20.0 0 0 1 0 1 0 -1 0 0 3003.DAT
0 STEP
1 86 150.0 -1224 20.0 0 0 1 0 1 0 -1 0 0 3004.DAT
0 STEP
1 86 160.0 -1248 20.0 0 0 1 0 1 0 -1 0 0 3003.DAT
0 STEP
1 86 150.0 -1272 20.0 0 0 1 0 1 0 -1 0 0 3004.DAT
0 STEP
1 86 160.0 -1296 10.0 -1 0 0 0 1 0 0 0 -1 3004.DAT
0 STEP
1 86 160.0 -1368 20.0 0 0 1 0 1 0 -1 0 0 3003.DAT
0 STEP
1 86 180.0 -168 40.0 -1 0 0 0 1 0 0 0 -1 3001.DAT
0 STEP
1 86 160.0 -216 40.0 0 0 1 0 1 0 -1 0 0 3003.DAT
0 STEP
1 86 150.0 -480 40.0 0 0 1 0 1 0 -1 0 0 3004.DAT
0 STEP
1 86 150.0 -528 40.0 0 0 1 0 1 0 -1 0 0 3004.DAT
0 STEP
1 86 160.0 -552 40.0 0 0 1 0 1 0 -1 0 0 3003.DAT
0 STEP
1 86 150.0 -600 40.0 0 0 1 0 1 0 -1 0 0 3004.DAT
0 STEP
1 86 160.0 -1296 40.0 0 0 1 0 1 0 -1 0 0 3003.DAT
0 STEP
1 86 150.0 -288 50.0 0 0 1 0 1 0 -1 0 0 3005.DAT
0 STEP
1 86 150.0 -384 50.0 0 0 1 0 1 0 -1 0 0 3005.DAT
0 STEP
1 86 160.0 -456 50.0 -1 0 0 0 1 0 0 0 -1 3004.DAT
0 STEP
1 86 150.0 -1320 50.0 0 0 1 0 1 0 -1 0 0 3005.DAT
0 STEP
1 86 170.0 -192 20.0 0 0 1 0 1 0 -1 0 0 3004.DAT
0 STEP
1 86 220.0 -288 20.0 -1 0 0 0 1 0 0 0 -1 2456.DAT
0 STEP
1 86 170.0 -336 20.0 0 0 1 0 1 0 -1 0 0 3004.DAT
0 STEP
1 86 220.0 -408 10.0 -1 0 0 0 1 0 0 0 -1 3009.DAT
0 STEP
1 86 180.0 -456 10.0 -1 0 0 0 1 0 0 0 -1 3004.DAT
0 STEP
1 86 180.0 -504 10.0 -1 0 0 0 1 0 0 0 -1 3004.DAT
0 STEP
1 86 180.0 -528 20.0 0 0 1 0 1 0 -1 0 0 3003.DAT
0 STEP
1 86 180.0 -600 20.0 0 0 1 0 1 0 -1 0 0 3003.DAT
0 STEP
1 86 180.0 -648 20.0 0 0 1 0 1 0 -1 0 0 3003.DAT
0 STEP
1 86 180.0 -696 20.0 0 0 1 0 1 0 -1 0 0 3003.DAT
0 STEP
1 86 180.0 -744 20.0 0 0 1 0 1 0 -1 0 0 3003.DAT
0 STEP
1 86 180.0 -792 20.0 0 0 1 0 1 0 -1 0 0 3003.DAT
0 STEP
1 86 180.0 -840 20.0 0 0 1 0 1 0 -1 0 0 3003.DAT
0 STEP
1 86 180.0 -888 20.0 0 0 1 0 1 0 -1 0 0 3003.DAT
0 STEP
1 86 180.0 -936 20.0 0 0 1 0 1 0 -1 0 0 3003.DAT
0 STEP
1 86 180.0 -984 20.0 0 0 1 0 1 0 -1 0 0 3003.DAT
0 STEP
1 86 180.0 -1032 20.0 0 0 1 0 1 0 -1 0 0 3003.DAT
0 STEP
1 86 180.0 -1080 20.0 0 0 1 0 1 0 -1 0 0 3003.DAT
0 STEP
1 86 180.0 -1128 20.0 0 0 1 0 1 0 -1 0 0 3003.DAT
0 STEP
1 86 180.0 -1176 20.0 0 0 1 0 1 0 -1 0 0 3003.DAT
0 STEP
1 86 180.0 -1224 20.0 0 0 1 0 1 0 -1 0 0 3003.DAT
0 STEP
1 86 180.0 -1272 20.0 0 0 1 0 1 0 -1 0 0 3003.DAT
0 STEP
1 86 200.0 -408 30.0 -1 0 0 0 1 0 0 0 -1 3010.DAT
0 STEP
1 86 170.0 -456 30.0 0 0 1 0 1 0 -1 0 0 3005.DAT
0 STEP
1 86 180.0 -480 40.0 0 0 1 0 1 0 -1 0 0 3003.DAT
0 STEP
1 86 170.0 -504 30.0 0 0 1 0 1 0 -1 0 0 3005.DAT
0 STEP
1 86 170.0 -1344 30.0 0 0 1 0 1 0 -1 0 0 3005.DAT
0 STEP
1 86 180.0 -288 50.0 -1 0 0 0 1 0 0 0 -1 3004.DAT
0 STEP
1 86 180.0 -384 50.0 -1 0 0 0 1 0 0 0 -1 3004.DAT
0 STEP
1 86 170.0 -408 50.0 0 0 1 0 1 0 -1 0 0 3005.DAT
0 STEP
1 86 180.0 -528 50.0 -1 0 0 0 1 0 0 0 -1 3004.DAT
0 STEP
1 86 170.0 -576 50.0 0 0 1 0 1 0 -1 0 0 3005.DAT
0 STEP
1 86 180.0 -1320 50.0 -1 0 0 0 1 0 0 0 -1 3004.DAT
0 STEP
1 86 220.0 -192 20.0 -1 0 0 0 1 0 0 0 -1 3001.DAT
0 STEP
1 86 200.0 -216 20.0 0 0 1 0 1 0 -1 0 0 3003.DAT
0 STEP
1 86 220.0 -336 20.0 -1 0 0 0 1 0 0 0 -1 3001.DAT
0 STEP
1 86 190.0 -384 20.0 0 0 1 0 1 0 -1 0 0 3004.DAT
0 STEP
1 86 240.0 -432 20.0 -1 0 0 0 1 0 0 0 -1 2456.DAT
0 STEP
1 86 190.0 -480 10.0 0 0 1 0 1 0 -1 0 0 3005.DAT
0 STEP
1 86 190.0 -552 20.0 0 0 1 0 1 0 -1 0 0 3004.DAT
0 STEP
1 86 190.0 -576 20.0 0 0 1 0 1 0 -1 0 0 3004.DAT
0 STEP
1 86 190.0 -624 20.0 0 0 1 0 1 0 -1 0 0 3004.DAT
0 STEP
1 86 190.0 -672 20.0 0 0 1 0 1 0 -1 0 0 3004.DAT
0 STEP
1 86 190.0 -720 20.0 0 0 1 0 1 0 -1 0 0 3004.DAT
0 STEP
1 86 190.0 -768 20.0 0 0 1 0 1 0 -1 0 0 3004.DAT
0 STEP
1 86 190.0 -816 20.0 0 0 1 0 1 0 -1 0 0 3004.DAT
0 STEP
1 86 190.0 -864 20.0 0 0 1 0 1 0 -1 0 0 3004.DAT
0 STEP
1 86 190.0 -912 20.0 0 0 1 0 1 0 -1 0 0 3004.DAT
0 STEP
1 86 190.0 -960 20.0 0 0 1 0 1 0 -1 0 0 3004.DAT
0 STEP
1 86 190.0 -1008 20.0 0 0 1 0 1 0 -1 0 0 3004.DAT
0 STEP
1 86 190.0 -1056 20.0 0 0 1 0 1 0 -1 0 0 3004.DAT
0 STEP
1 86 190.0 -1104 20.0 0 0 1 0 1 0 -1 0 0 3004.DAT
0 STEP
1 86 190.0 -1152 20.0 0 0 1 0 1 0 -1 0 0 3004.DAT
0 STEP
1 86 190.0 -1200 20.0 0 0 1 0 1 0 -1 0 0 3004.DAT
0 STEP
1 86 190.0 -1248 20.0 0 0 1 0 1 0 -1 0 0 3004.DAT
0 STEP
1 86 190.0 -1296 10.0 0 0 1 0 1 0 -1 0 0 3005.DAT
0 STEP
1 86 240.0 -264 40.0 -1 0 0 0 1 0 0 0 -1 2456.DAT
0 STEP
1 86 190.0 -312 40.0 0 0 1 0 1 0 -1 0 0 3004.DAT
0 STEP
1 86 190.0 -360 40.0 0 0 1 0 1 0 -1 0 0 3004.DAT
0 STEP
1 86 220.0 -456 40.0 -1 0 0 0 1 0 0 0 -1 3001.DAT
0 STEP
1 86 190.0 -504 40.0 0 0 1 0 1 0 -1 0 0 3004.DAT
0 STEP
1 86 190.0 -1296 40.0 0 0 1 0 1 0 -1 0 0 3004.DAT
0 STEP
1 86 200.0 -216 50.0 -1 0 0 0 1 0 0 0 -1 3004.DAT
0 STEP
1 86 200.0 -408 50.0 -1 0 0 0 1 0 0 0 -1 3004.DAT
0 STEP
1 86 190.0 -432 50.0 0 0 1 0 1 0 -1 0 0 3005.DAT
0 STEP
1 86 240.0 -144 20.0 -1 0 0 0 1 0 0 0 -1 3001.DAT
0 STEP
1 86 210.0 -240 10.0 0 0 1 0 1 0 -1 0 0 3005.DAT
0 STEP
1 86 210.0 -384 10.0 0 0 1 0 1 0 -1 0 0 3005.DAT
0 STEP
1 86 210.0 -456 10.0 0 0 1 0 1 0 -1 0 0 3005.DAT
0 STEP
1 86 210.0 -480 20.0 0 0 1 0 1 0 -1 0 0 3004.DAT
0 STEP
1 86 210.0 -240 40.0 0 0 1 0 1 0 -1 0 0 3004.DAT
0 STEP
1 86 210.0 -312 30.0 0 0 1 0 1 0 -1 0 0 3005.DAT
0 STEP
1 86 210.0 -360 30.0 0 0 1 0 1 0 -1 0 0 3005.DAT
0 STEP
1 86 210.0 -384 40.0 0 0 1 0 1 0 -1 0 0 3004.DAT
0 STEP
1 86 240.0 -144 50.0 -1 0 0 0 1 0 0 0 -1 3010.DAT
0 STEP
1 86 210.0 -192 50.0 0 0 1 0 1 0 -1 0 0 3005.DAT
0 STEP
1 86 210.0 -288 50.0 0 0 1 0 1 0 -1 0 0 3005.DAT
0 STEP
1 86 210.0 -312 60.0 0 0 1 0 1 0 -1 0 0 3004.DAT
0 STEP
1 86 210.0 -360 60.0 0 0 1 0 1 0 -1 0 0 3004.DAT
0 STEP
1 86 220.0 -432 50.0 -1 0 0 0 1 0 0 0 -1 3004.DAT
0 STEP
1 86 210.0 -480 50.0 0 0 1 0 1 0 -1 0 0 3005.DAT
0 STEP
1 86 210.0 -336 70.0 0 0 1 0 1 0 -1 0 0 3005.DAT
0 STEP
1 86 210.0 -384 70.0 0 0 1 0 1 0 -1 0 0 3005.DAT
0 STEP
1 86 240.0 -120 10.0 -1 0 0 0 1 0 0 0 -1 3004.DAT
0 STEP
1 86 230.0 -216 10.0 0 0 1 0 1 0 -1 0 0 3005.DAT
0 STEP
1 86 230.0 -240 20.0 0 0 1 0 1 0 -1 0 0 3004.DAT
0 STEP
1 86 230.0 -360 10.0 0 0 1 0 1 0 -1 0 0 3005.DAT
0 STEP
1 86 240.0 -384 20.0 0 0 1 0 1 0 -1 0 0 3003.DAT
0 STEP
1 86 240.0 -456 10.0 -1 0 0 0 1 0 0 0 -1 3004.DAT
0 STEP
1 86 240.0 -120 40.0 0 0 1 0 1 0 -1 0 0 3003.DAT
0 STEP
1 86 230.0 -168 40.0 0 0 1 0 1 0 -1 0 0 3004.DAT
0 STEP
1 86 230.0 -216 40.0 0 0 1 0 1 0 -1 0 0 3004.DAT
0 STEP
1 86 240.0 -312 40.0 0 0 1 0 1 0 -1 0 0 3003.DAT
0 STEP
1 86 230.0 -360 40.0 0 0 1 0 1 0 -1 0 0 3004.DAT
0 STEP
1 86 260.0 -192 50.0 -1 0 0 0 1 0 0 0 -1 3010.DAT
0 STEP
1 86 260.0 -240 50.0 -1 0 0 0 1 0 0 0 -1 3010.DAT
0 STEP
1 86 240.0 -288 50.0 -1 0 0 0 1 0 0 0 -1 3004.DAT
0 STEP
1 86 240.0 -384 50.0 -1 0 0 0 1 0 0 0 -1 3004.DAT
0 STEP
1 86 230.0 -408 50.0 0 0 1 0 1 0 -1 0 0 3005.DAT
0 STEP
1 86 260.0 -96 20.0 0 0 1 0 1 0 -1 0 0 3003.DAT
0 STEP
1 86 260.0 -216 10.0 -1 0 0 0 1 0 0 0 -1 3004.DAT
0 STEP
1 86 260.0 -240 20.0 0 0 1 0 1 0 -1 0 0 3003.DAT
0 STEP
1 86 250.0 -264 10.0 0 0 1 0 1 0 -1 0 0 3005.DAT
0 STEP
1 86 250.0 -312 10.0 0 0 1 0 1 0 -1 0 0 3005.DAT
0 STEP
1 86 280.0 -168 40.0 -1 0 0 0 1 0 0 0 -1 3001.DAT
0 STEP
1 86 260.0 -216 40.0 0 0 1 0 1 0 -1 0 0 3003.DAT
0 STEP
1 86 260.0 -408 40.0 0 0 1 0 1 0 -1 0 0 3003.DAT
0 STEP
1 86 260.0 -96 50.0 -1 0 0 0 1 0 0 0 -1 3004.DAT
0 STEP
1 86 250.0 -336 50.0 0 0 1 0 1 0 -1 0 0 3005.DAT
0 STEP
1 86 250.0 -432 50.0 0 0 1 0 1 0 -1 0 0 3005.DAT
0 STEP
1 86 300.0 -48 20.0 -1 0 0 0 1 0 0 0 -1 3001.DAT
0 STEP
1 86 270.0 -72 10.0 0 0 1 0 1 0 -1 0 0 3005.DAT
0 STEP
1 86 270.0 -120 10.0 0 0 1 0 1 0 -1 0 0 3005.DAT
0 STEP
1 86 270.0 -192 20.0 0 0 1 0 1 0 -1 0 0 3004.DAT
0 STEP
1 86 280.0 -264 10.0 -1 0 0 0 1 0 0 0 -1 3004.DAT
0 STEP
1 86 300.0 -72 40.0 -1 0 0 0 1 0 0 0 -1 3001.DAT
0 STEP
1 86 280.0 -120 30.0 -1 0 0 0 1 0 0 0 -1 3004.DAT
0 STEP
1 86 300.0 -48 50.0 -1 0 0 0 1 0 0 0 -1 3010.DAT
0 STEP
1 86 270.0 -120 50.0 0 0 1 0 1 0 -1 0 0 3005.DAT
0 STEP
1 86 270.0 -288 50.0 0 0 1 0 1 0 -1 0 0 3005.DAT
0 STEP
1 86 280.0 -432 50.0 -1 0 0 0 1 0 0 0 -1 3004.DAT
0 STEP
1 86 290.0 0 10.0 0 0 1 0 1 0 -1 0 0 3005.DAT
0 STEP
1 86 300.0 -24 10.0 -1 0 0 0 1 0 0 0 -1 3004.DAT
0 STEP
1 86 300.0 -72 10.0 -1 0 0 0 1 0 0 0 -1 3004.DAT
0 STEP
1 86 290.0 -96 20.0 0 0 1 0 1 0 -1 0 0 3004.DAT
0 STEP
1 86 300.0 -120 10.0 -1 0 0 0 1 0 0 0 -1 3004.DAT
0 STEP
1 86 290.0 -144 20.0 0 0 1 0 1 0 -1 0 0 3004.DAT
0 STEP
1 86 300.0 -192 10.0 -1 0 0 0 1 0 0 0 -1 3004.DAT
0 STEP
1 86 300.0 -216 20.0 0 0 1 0 1 0 -1 0 0 3003.DAT
0 STEP
1 86 290.0 -240 20.0 0 0 1 0 1 0 -1 0 0 3004.DAT
0 STEP
1 86 290.0 -408 20.0 0 0 1 0 1 0 -1 0 0 3004.DAT
0 STEP
1 86 290.0 0 40.0 0 0 1 0 1 0 -1 0 0 3004.DAT
0 STEP
1 86 300.0 -24 40.0 0 0 1 0 1 0 -1 0 0 3003.DAT
0 STEP
1 86 290.0 -192 30.0 0 0 1 0 1 0 -1 0 0 3005.DAT
0 STEP
1 86 290.0 -96 50.0 0 0 1 0 1 0 -1 0 0 3005.DAT
0 STEP
1 86 300.0 -120 50.0 -1 0 0 0 1 0 0 0 -1 3004.DAT
0 STEP
1 86 290.0 -144 50.0 0 0 1 0 1 0 -1 0 0 3005.DAT
0 STEP
1 86 300.0 -216 50.0 -1 0 0 0 1 0 0 0 -1 3004.DAT
0 STEP
1 86 290.0 -408 50.0 0 0 1 0 1 0 -1 0 0 3005.DAT
0 STEP
1 86 310.0 0 20.0 0 0 1 0 1 0 -1 0 0 3004.DAT
0 STEP
1 86 320.0 -96 20.0 0 0 1 0 1 0 -1 0 0 3003.DAT
0 STEP
1 86 320.0 -144 10.0 -1 0 0 0 1 0 0 0 -1 3004.DAT
0 STEP
1 86 310.0 -168 10.0 0 0 1 0 1 0 -1 0 0 3005.DAT
0 STEP
1 86 310.0 -120 30.0 0 0 1 0 1 0 -1 0 0 3005.DAT
0 STEP
1 86 320.0 -144 40.0 0 0 1 0 1 0 -1 0 0 3003.DAT
0 STEP
1 86 310.0 -192 40.0 0 0 1 0 1 0 -1 0 0 3004.DAT
0 STEP
1 86 310.0 0 50.0 0 0 1 0 1 0 -1 0 0 3005.DAT
0 STEP
1 86 320.0 -96 50.0 -1 0 0 0 1 0 0 0 -1 3004.DAT
0 STEP
1 86 330.0 -72 10.0 0 0 1 0 1 0 -1 0 0 3005.DAT
0 STEP
1 86 330.0 -120 10.0 0 0 1 0 1 0 -1 0 0 3005.DAT
0 STEP
1 86 330.0 -120 40.0 0 0 1 0 1 0 -1 0 0 3004.DAT
0 STEP
