1 86 20.0 -600 730.0 -1 0 0 0 1 0 0 0 -1 3004.DAT
0 STEP
1 86 20.0 -600 780.0 0 0 1 0 1 0 -1 0 0 3001.DAT
0 STEP
1 86 10.0 -576 820.0 0 0 1 0 1 0 -1 0 0 3010.DAT
0 STEP
1 86 10.0 -600 840.0 0 0 1 0 1 0 -1 0 0 3004.DAT
0 STEP
1 86 20.0 -600 870.0 -1 0 0 0 1 0 0 0 -1 3004.DAT
0 STEP
1 86 20.0 -624 880.0 0 0 1 0 1 0 -1 0 0 3003.DAT
0 STEP
1 86 30.0 -2352 420.0 0 0 1 0 1 0 -1 0 0 3004.DAT
0 STEP
1 86 30.0 -2376 410.0 0 0 1 0 1 0 -1 0 0 3005.DAT
0 STEP
1 86 30.0 -1440 430.0 0 0 1 0 1 0 -1 0 0 3005.DAT
0 STEP
1 86 30.0 -1464 430.0 0 0 1 0 1 0 -1 0 0 3005.DAT
0 STEP
1 86 30.0 -1488 440.0 0 0 1 0 1 0 -1 0 0 3004.DAT
0 STEP
1 86 30.0 -1512 430.0 0 0 1 0 1 0 -1 0 0 3005.DAT
0 STEP
1 86 30.0 -1536 430.0 0 0 1 0 1 0 -1 0 0 3005.DAT
0 STEP
1 86 40.0 -1560 430.0 -1 0 0 0 1 0 0 0 -1 3004.DAT
0 STEP
1 86 30.0 -1584 440.0 0 0 1 0 1 0 -1 0 0 3004.DAT
0 STEP
1 86 30.0 -1608 440.0 0 0 1 0 1 0 -1 0 0 3004.DAT
0 STEP
1 86 30.0 -1632 430.0 0 0 1 0 1 0 -1 0 0 3005.DAT
0 STEP
1 86 40.0 -1656 440.0 0 0 1 0 1 0 -1 0 0 3003.DAT
0 STEP
1 86 30.0 -1680 430.0 0 0 1 0 1 0 -1 0 0 3005.DAT
0 STEP
1 86 30.0 -1704 430.0 0 0 1 0 1 0 -1 0 0 3005.DAT
0 STEP
1 86 60.0 -1728 430.0 -1 0 0 0 1 0 0 0 -1 3010.DAT
0 STEP
1 86 40.0 -1752 430.0 -1 0 0 0 1 0 0 0 -1 3004.DAT
0 STEP
1 86 30.0 -1776 460.0 0 0 1 0 1 0 -1 0 0 3010.DAT
0 STEP
1 86 30.0 -1800 430.0 0 0 1 0 1 0 -1 0 0 3005.DAT
0 STEP
1 86 40.0 -1824 430.0 -1 0 0 0 1 0 0 0 -1 3004.DAT
0 STEP
1 86 30.0 -1848 440.0 0 0 1 0 1 0 -1 0 0 3004.DAT
0 STEP
1 86 30.0 -1872 430.0 0 0 1 0 1 0 -1 0 0 3005.DAT
0 STEP
1 86 40.0 -1896 430.0 -1 0 0 0 1 0 0 0 -1 3004.DAT
0 STEP
1 86 40.0 -1920 440.0 0 0 1 0 1 0 -1 0 0 3003.DAT
0 STEP
1 86 30.0 -1944 440.0 0 0 1 0 1 0 -1 0 0 3004.DAT
0 STEP
1 86 40.0 -1968 440.0 0 0 1 0 1 0 -1 0 0 3003.DAT
0 STEP
1 86 40.0 -1992 430.0 -1 0 0 0 1 0 0 0 -1 3004.DAT
0 STEP
1 86 30.0 -2016 430.0 0 0 1 0 1 0 -1 0 0 3005.DAT
0 STEP
1 86 30.0 -2040 430.0 0 0 1 0 1 0 -1 0 0 3005.DAT
0 STEP
1 86 30.0 -2064 440.0 0 0 1 0 1 0 -1 0 0 3004.DAT
0 STEP
1 86 40.0 -2088 440.0 0 0 1 0 1 0 -1 0 0 3003.DAT
0 STEP
1 86 30.0 -2112 440.0 0 0 1 0 1 0 -1 0 0 3004.DAT
0 STEP
1 86 30.0 -2136 440.0 0 0 1 0 1 0 -1 0 0 3004.DAT
0 STEP
1 86 30.0 -2160 460.0 0 0 1 0 1 0 -1 0 0 3010.DAT
0 STEP
1 86 30.0 -2184 440.0 0 0 1 0 1 0 -1 0 0 3004.DAT
0 STEP
1 86 60.0 -2208 440.0 -1 0 0 0 1 0 0 0 -1 3001.DAT
0 STEP
1 86 30.0 -2232 430.0 0 0 1 0 1 0 -1 0 0 3005.DAT
0 STEP
1 86 30.0 -2256 460.0 0 0 1 0 1 0 -1 0 0 3010.DAT
0 STEP
1 86 60.0 -2280 430.0 -1 0 0 0 1 0 0 0 -1 3010.DAT
0 STEP
1 86 30.0 -2304 430.0 0 0 1 0 1 0 -1 0 0 3005.DAT
0 STEP
1 86 40.0 -2328 460.0 0 0 1 0 1 0 -1 0 0 3001.DAT
0 STEP
1 86 30.0 -2376 440.0 0 0 1 0 1 0 -1 0 0 3004.DAT
0 STEP
1 86 30.0 -312 480.0 0 0 1 0 1 0 -1 0 0 3010.DAT
0 STEP
1 86 40.0 -336 480.0 0 0 1 0 1 0 -1 0 0 3001.DAT
0 STEP
1 86 60.0 -360 450.0 -1 0 0 0 1 0 0 0 -1 3010.DAT
0 STEP
1 86 30.0 -384 460.0 0 0 1 0 1 0 -1 0 0 3004.DAT
0 STEP
1 86 30.0 -408 460.0 0 0 1 0 1 0 -1 0 0 3004.DAT
0 STEP
1 86 40.0 -432 460.0 0 0 1 0 1 0 -1 0 0 3003.DAT
0 STEP
1 86 30.0 -456 450.0 0 0 1 0 1 0 -1 0 0 3005.DAT
0 STEP
1 86 60.0 -480 460.0 -1 0 0 0 1 0 0 0 -1 3001.DAT
0 STEP
1 86 30.0 -504 450.0 0 0 1 0 1 0 -1 0 0 3005.DAT
0 STEP
1 86 40.0 -528 450.0 -1 0 0 0 1 0 0 0 -1 3004.DAT
0 STEP
1 86 30.0 -552 450.0 0 0 1 0 1 0 -1 0 0 3005.DAT
0 STEP
1 86 30.0 -576 450.0 0 0 1 0 1 0 -1 0 0 3005.DAT
0 STEP
1 86 30.0 -600 460.0 0 0 1 0 1 0 -1 0 0 3004.DAT
0 STEP
1 86 40.0 -624 450.0 -1 0 0 0 1 0 0 0 -1 3004.DAT
0 STEP
1 86 30.0 -648 450.0 0 0 1 0 1 0 -1 0 0 3005.DAT
0 STEP
1 86 30.0 -672 460.0 0 0 1 0 1 0 -1 0 0 3004.DAT
0 STEP
1 86 30.0 -744 450.0 0 0 1 0 1 0 -1 0 0 3005.DAT
0 STEP
1 86 30.0 -768 450.0 0 0 1 0 1 0 -1 0 0 3005.DAT
0 STEP
1 86 60.0 -792 450.0 -1 0 0 0 1 0 0 0 -1 3010.DAT
0 STEP
1 86 60.0 -816 450.0 -1 0 0 0 1 0 0 0 -1 3010.DAT
0 STEP
1 86 40.0 -840 450.0 -1 0 0 0 1 0 0 0 -1 3004.DAT
0 STEP
1 86 60.0 -864 460.0 -1 0 0 0 1 0 0 0 -1 3001.DAT
0 STEP
1 86 30.0 -888 460.0 0 0 1 0 1 0 -1 0 0 3004.DAT
0 STEP
1 86 30.0 -912 460.0 0 0 1 0 1 0 -1 0 0 3004.DAT
0 STEP
1 86 30.0 -936 450.0 0 0 1 0 1 0 -1 0 0 3005.DAT
0 STEP
1 86 60.0 -960 450.0 -1 0 0 0 1 0 0 0 -1 3010.DAT
0 STEP
1 86 40.0 -984 460.0 0 0 1 0 1 0 -1 0 0 3003.DAT
0 STEP
1 86 60.0 -1008 460.0 -1 0 0 0 1 0 0 0 -1 3001.DAT
0 STEP
1 86 40.0 -1032 450.0 -1 0 0 0 1 0 0 0 -1 3004.DAT
0 STEP
1 86 30.0 -1056 450.0 0 0 1 0 1 0 -1 0 0 3005.DAT
0 STEP
1 86 30.0 -1128 450.0 0 0 1 0 1 0 -1 0 0 3005.DAT
0 STEP
1 86 30.0 -1152 480.0 0 0 1 0 1 0 -1 0 0 3010.DAT
0 STEP
1 86 40.0 -1176 450.0 -1 0 0 0 1 0 0 0 -1 3004.DAT
0 STEP
1 86 60.0 -1368 450.0 -1 0 0 0 1 0 0 0 -1 3010.DAT
0 STEP
1 86 40.0 -1392 450.0 -1 0 0 0 1 0 0 0 -1 3004.DAT
0 STEP
1 86 40.0 -1416 460.0 0 0 1 0 1 0 -1 0 0 3003.DAT
0 STEP
1 86 30.0 -1440 460.0 0 0 1 0 1 0 -1 0 0 3004.DAT
0 STEP
1 86 40.0 -1464 450.0 -1 0 0 0 1 0 0 0 -1 3004.DAT
0 STEP
1 86 40.0 -1512 480.0 0 0 1 0 1 0 -1 0 0 3001.DAT
0 STEP
1 86 30.0 -1536 460.0 0 0 1 0 1 0 -1 0 0 3004.DAT
0 STEP
1 86 60.0 -1560 450.0 -1 0 0 0 1 0 0 0 -1 3010.DAT
0 STEP
1 86 30.0 -1632 460.0 0 0 1 0 1 0 -1 0 0 3004.DAT
0 STEP
1 86 30.0 -1680 480.0 0 0 1 0 1 0 -1 0 0 3010.DAT
0 STEP
1 86 30.0 -1704 480.0 0 0 1 0 1 0 -1 0 0 3010.DAT
0 STEP
1 86 40.0 -1728 460.0 0 0 1 0 1 0 -1 0 0 3003.DAT
0 STEP
1 86 30.0 -1752 480.0 0 0 1 0 1 0 -1 0 0 3010.DAT
0 STEP
1 86 40.0 -1800 450.0 -1 0 0 0 1 0 0 0 -1 3004.DAT
0 STEP
1 86 40.0 -1824 460.0 0 0 1 0 1 0 -1 0 0 3003.DAT
0 STEP
1 86 40.0 -1872 450.0 -1 0 0 0 1 0 0 0 -1 3004.DAT
0 STEP
1 86 40.0 -1896 460.0 0 0 1 0 1 0 -1 0 0 3003.DAT
0 STEP
1 86 30.0 -1992 480.0 0 0 1 0 1 0 -1 0 0 3010.DAT
0 STEP
1 86 60.0 -2016 460.0 -1 0 0 0 1 0 0 0 -1 3001.DAT
0 STEP
1 86 30.0 -2040 480.0 0 0 1 0 1 0 -1 0 0 3010.DAT
0 STEP
1 86 30.0 -2232 480.0 0 0 1 0 1 0 -1 0 0 3010.DAT
0 STEP
1 86 30.0 -2280 450.0 0 0 1 0 1 0 -1 0 0 3005.DAT
0 STEP
1 86 60.0 -2304 450.0 -1 0 0 0 1 0 0 0 -1 3010.DAT
0 STEP
1 86 30.0 -2352 450.0 0 0 1 0 1 0 -1 0 0 3005.DAT
0 STEP
1 86 40.0 -2400 450.0 -1 0 0 0 1 0 0 0 -1 3004.DAT
0 STEP
1 86 60.0 -2424 450.0 -1 0 0 0 1 0 0 0 -1 3010.DAT
0 STEP
1 86 30.0 -288 470.0 0 0 1 0 1 0 -1 0 0 3005.DAT
0 STEP
1 86 30.0 -360 470.0 0 0 1 0 1 0 -1 0 0 3005.DAT
0 STEP
1 86 60.0 -456 470.0 -1 0 0 0 1 0 0 0 -1 3010.DAT
0 STEP
1 86 60.0 -576 480.0 -1 0 0 0 1 0 0 0 -1 3001.DAT
0 STEP
1 86 30.0 -624 520.0 0 0 1 0 1 0 -1 0 0 3009.DAT
0 STEP
1 86 30.0 -648 480.0 0 0 1 0 1 0 -1 0 0 3004.DAT
0 STEP
1 86 40.0 -936 480.0 0 0 1 0 1 0 -1 0 0 3003.DAT
0 STEP
1 86 60.0 -960 480.0 -1 0 0 0 1 0 0 0 -1 3001.DAT
0 STEP
1 86 60.0 -1032 470.0 -1 0 0 0 1 0 0 0 -1 3010.DAT
0 STEP
1 86 40.0 -1056 470.0 -1 0 0 0 1 0 0 0 -1 3004.DAT
0 STEP
1 86 40.0 -1128 470.0 -1 0 0 0 1 0 0 0 -1 3004.DAT
0 STEP
1 86 30.0 -1176 480.0 0 0 1 0 1 0 -1 0 0 3004.DAT
0 STEP
1 86 30.0 -1344 480.0 0 0 1 0 1 0 -1 0 0 3004.DAT
0 STEP
1 86 30.0 -1368 480.0 0 0 1 0 1 0 -1 0 0 3004.DAT
0 STEP
1 86 30.0 -1392 480.0 0 0 1 0 1 0 -1 0 0 3004.DAT
0 STEP
1 86 40.0 -1464 480.0 0 0 1 0 1 0 -1 0 0 3003.DAT
0 STEP
1 86 40.0 -1488 470.0 -1 0 0 0 1 0 0 0 -1 3004.DAT
0 STEP
1 86 30.0 -1560 480.0 0 0 1 0 1 0 -1 0 0 3004.DAT
0 STEP
1 86 30.0 -1584 470.0 0 0 1 0 1 0 -1 0 0 3005.DAT
0 STEP
1 86 30.0 -1608 470.0 0 0 1 0 1 0 -1 0 0 3005.DAT
0 STEP
1 86 40.0 -1656 470.0 -1 0 0 0 1 0 0 0 -1 3004.DAT
0 STEP
1 86 30.0 -1800 470.0 0 0 1 0 1 0 -1 0 0 3005.DAT
0 STEP
1 86 60.0 -1848 470.0 -1 0 0 0 1 0 0 0 -1 3010.DAT
0 STEP
1 86 30.0 -1872 470.0 0 0 1 0 1 0 -1 0 0 3005.DAT
0 STEP
1 86 40.0 -1920 470.0 -1 0 0 0 1 0 0 0 -1 3004.DAT
0 STEP
1 86 30.0 -1944 470.0 0 0 1 0 1 0 -1 0 0 3005.DAT
0 STEP
1 86 40.0 -1968 470.0 -1 0 0 0 1 0 0 0 -1 3004.DAT
0 STEP
1 86 30.0 -2064 470.0 0 0 1 0 1 0 -1 0 0 3005.DAT
0 STEP
1 86 40.0 -2088 470.0 -1 0 0 0 1 0 0 0 -1 3004.DAT
0 STEP
1 86 40.0 -2112 470.0 -1 0 0 0 1 0 0 0 -1 3004.DAT
0 STEP
1 86 40.0 -2136 470.0 -1 0 0 0 1 0 0 0 -1 3004.DAT
0 STEP
1 86 30.0 -2184 470.0 0 0 1 0 1 0 -1 0 0 3005.DAT
0 STEP
1 86 40.0 -2208 470.0 -1 0 0 0 1 0 0 0 -1 3004.DAT
0 STEP
1 86 30.0 -2280 480.0 0 0 1 0 1 0 -1 0 0 3004.DAT
0 STEP
1 86 30.0 -2304 480.0 0 0 1 0 1 0 -1 0 0 3004.DAT
0 STEP
1 86 30.0 -2352 480.0 0 0 1 0 1 0 -1 0 0 3004.DAT
0 STEP
1 86 40.0 -2376 480.0 0 0 1 0 1 0 -1 0 0 3003.DAT
0 STEP
1 86 30.0 -2400 470.0 0 0 1 0 1 0 -1 0 0 3005.DAT
0 STEP
1 86 40.0 -288 500.0 0 0 1 0 1 0 -1 0 0 3003.DAT
0 STEP
1 86 60.0 -360 500.0 -1 0 0 0 1 0 0 0 -1 3001.DAT
0 STEP
1 86 30.0 -384 490.0 0 0 1 0 1 0 -1 0 0 3005.DAT
0 STEP
1 86 40.0 -408 490.0 -1 0 0 0 1 0 0 0 -1 3004.DAT
0 STEP
1 86 40.0 -600 490.0 -1 0 0 0 1 0 0 0 -1 3004.DAT
0 STEP
1 86 30.0 -672 490.0 0 0 1 0 1 0 -1 0 0 3005.DAT
0 STEP
1 86 60.0 -984 490.0 -1 0 0 0 1 0 0 0 -1 3010.DAT
0 STEP
1 86 30.0 -1008 490.0 0 0 1 0 1 0 -1 0 0 3005.DAT
0 STEP
1 86 30.0 -1032 500.0 0 0 1 0 1 0 -1 0 0 3004.DAT
0 STEP
1 86 40.0 -1056 500.0 0 0 1 0 1 0 -1 0 0 3003.DAT
0 STEP
1 86 30.0 -1128 500.0 0 0 1 0 1 0 -1 0 0 3004.DAT
0 STEP
1 86 30.0 -1416 500.0 0 0 1 0 1 0 -1 0 0 3004.DAT
0 STEP
1 86 40.0 -1440 500.0 0 0 1 0 1 0 -1 0 0 3003.DAT
0 STEP
1 86 40.0 -1488 500.0 0 0 1 0 1 0 -1 0 0 3003.DAT
0 STEP
1 86 30.0 -1536 490.0 0 0 1 0 1 0 -1 0 0 3005.DAT
0 STEP
1 86 40.0 -1584 490.0 -1 0 0 0 1 0 0 0 -1 3004.DAT
0 STEP
1 86 30.0 -1608 500.0 0 0 1 0 1 0 -1 0 0 3004.DAT
0 STEP
1 86 30.0 -1632 490.0 0 0 1 0 1 0 -1 0 0 3005.DAT
0 STEP
1 86 40.0 -1656 500.0 0 0 1 0 1 0 -1 0 0 3003.DAT
0 STEP
1 86 40.0 -1728 490.0 -1 0 0 0 1 0 0 0 -1 3004.DAT
0 STEP
1 86 30.0 -1800 500.0 0 0 1 0 1 0 -1 0 0 3004.DAT
0 STEP
1 86 40.0 -1824 490.0 -1 0 0 0 1 0 0 0 -1 3004.DAT
0 STEP
1 86 30.0 -1848 500.0 0 0 1 0 1 0 -1 0 0 3004.DAT
0 STEP
1 86 40.0 -1872 490.0 -1 0 0 0 1 0 0 0 -1 3004.DAT
0 STEP
1 86 40.0 -1896 490.0 -1 0 0 0 1 0 0 0 -1 3004.DAT
0 STEP
1 86 30.0 -1920 500.0 0 0 1 0 1 0 -1 0 0 3004.DAT
0 STEP
1 86 30.0 -1944 500.0 0 0 1 0 1 0 -1 0 0 3004.DAT
0 STEP
1 86 30.0 -1968 500.0 0 0 1 0 1 0 -1 0 0 3004.DAT
0 STEP
1 86 40.0 -2016 490.0 -1 0 0 0 1 0 0 0 -1 3004.DAT
0 STEP
1 86 30.0 -2064 500.0 0 0 1 0 1 0 -1 0 0 3004.DAT
0 STEP
1 86 40.0 -2088 500.0 0 0 1 0 1 0 -1 0 0 3003.DAT
0 STEP
1 86 40.0 -2112 500.0 0 0 1 0 1 0 -1 0 0 3003.DAT
0 STEP
1 86 40.0 -2136 500.0 0 0 1 0 1 0 -1 0 0 3003.DAT
0 STEP
1 86 30.0 -2184 500.0 0 0 1 0 1 0 -1 0 0 3004.DAT
0 STEP
1 86 30.0 -2208 500.0 0 0 1 0 1 0 -1 0 0 3004.DAT
0 STEP
1 86 30.0 -264 510.0 0 0 1 0 1 0 -1 0 0 3005.DAT
0 STEP
1 86 30.0 -600 520.0 0 0 1 0 1 0 -1 0 0 3004.DAT
0 STEP
1 86 40.0 -648 520.0 0 0 1 0 1 0 -1 0 0 3003.DAT
0 STEP
1 86 30.0 -672 520.0 0 0 1 0 1 0 -1 0 0 3004.DAT
0 STEP
1 86 60.0 -1008 510.0 -1 0 0 0 1 0 0 0 -1 3010.DAT
0 STEP
1 86 30.0 -1080 510.0 0 0 1 0 1 0 -1 0 0 3005.DAT
0 STEP
1 86 40.0 -1176 510.0 -1 0 0 0 1 0 0 0 -1 3004.DAT
0 STEP
1 86 30.0 -1368 510.0 0 0 1 0 1 0 -1 0 0 3005.DAT
0 STEP
1 86 40.0 -1392 510.0 -1 0 0 0 1 0 0 0 -1 3004.DAT
0 STEP
1 86 40.0 -1464 510.0 -1 0 0 0 1 0 0 0 -1 3004.DAT
0 STEP
1 86 40.0 -1536 510.0 -1 0 0 0 1 0 0 0 -1 3004.DAT
0 STEP
1 86 30.0 -1560 510.0 0 0 1 0 1 0 -1 0 0 3005.DAT
0 STEP
1 86 30.0 -1584 510.0 0 0 1 0 1 0 -1 0 0 3005.DAT
0 STEP
1 86 40.0 -1632 510.0 -1 0 0 0 1 0 0 0 -1 3004.DAT
0 STEP
1 86 30.0 -1728 510.0 0 0 1 0 1 0 -1 0 0 3005.DAT
0 STEP
1 86 30.0 -1776 510.0 0 0 1 0 1 0 -1 0 0 3005.DAT
0 STEP
1 86 30.0 -1824 510.0 0 0 1 0 1 0 -1 0 0 3005.DAT
0 STEP
1 86 30.0 -1872 510.0 0 0 1 0 1 0 -1 0 0 3005.DAT
0 STEP
1 86 60.0 -1896 510.0 -1 0 0 0 1 0 0 0 -1 3010.DAT
0 STEP
1 86 30.0 -2016 510.0 0 0 1 0 1 0 -1 0 0 3005.DAT
0 STEP
1 86 30.0 -2160 510.0 0 0 1 0 1 0 -1 0 0 3005.DAT
0 STEP
1 86 40.0 -2256 510.0 -1 0 0 0 1 0 0 0 -1 3004.DAT
0 STEP
1 86 30.0 -2280 510.0 0 0 1 0 1 0 -1 0 0 3005.DAT
0 STEP
1 86 30.0 -2304 510.0 0 0 1 0 1 0 -1 0 0 3005.DAT
0 STEP
1 86 40.0 -2328 510.0 -1 0 0 0 1 0 0 0 -1 3004.DAT
0 STEP
1 86 60.0 -312 530.0 -1 0 0 0 1 0 0 0 -1 3010.DAT
0 STEP
1 86 40.0 -1056 530.0 -1 0 0 0 1 0 0 0 -1 3004.DAT
0 STEP
1 86 30.0 -600 550.0 0 0 1 0 1 0 -1 0 0 3005.DAT
0 STEP
1 86 30.0 -648 550.0 0 0 1 0 1 0 -1 0 0 3005.DAT
0 STEP
1 86 40.0 -600 580.0 0 0 1 0 1 0 -1 0 0 3003.DAT
0 STEP
1 86 40.0 -648 580.0 0 0 1 0 1 0 -1 0 0 3003.DAT
0 STEP
1 86 30.0 -624 590.0 0 0 1 0 1 0 -1 0 0 3005.DAT
0 STEP
1 86 60.0 -600 610.0 -1 0 0 0 1 0 0 0 -1 3010.DAT
0 STEP
1 86 60.0 -624 620.0 -1 0 0 0 1 0 0 0 -1 3001.DAT
0 STEP
1 86 30.0 -648 680.0 0 0 1 0 1 0 -1 0 0 3008.DAT
0 STEP
1 86 30.0 -600 630.0 0 0 1 0 1 0 -1 0 0 3005.DAT
0 STEP
1 86 30.0 -600 680.0 0 0 1 0 1 0 -1 0 0 3010.DAT
0 STEP
1 86 30.0 -624 660.0 0 0 1 0 1 0 -1 0 0 3004.DAT
0 STEP
1 86 30.0 -624 690.0 0 0 1 0 1 0 -1 0 0 3005.DAT
0 STEP
1 86 30.0 -624 720.0 0 0 1 0 1 0 -1 0 0 3004.DAT
0 STEP
1 86 40.0 -624 760.0 0 0 1 0 1 0 -1 0 0 3003.DAT
0 STEP
1 86 40.0 -648 770.0 -1 0 0 0 1 0 0 0 -1 3004.DAT
0 STEP
1 86 40.0 -672 780.0 0 0 1 0 1 0 -1 0 0 3003.DAT
0 STEP
1 86 30.0 -576 790.0 0 0 1 0 1 0 -1 0 0 3005.DAT
0 STEP
1 86 40.0 -624 790.0 -1 0 0 0 1 0 0 0 -1 3004.DAT
0 STEP
1 86 40.0 -648 820.0 0 0 1 0 1 0 -1 0 0 3001.DAT
0 STEP
1 86 30.0 -576 820.0 0 0 1 0 1 0 -1 0 0 3004.DAT
0 STEP
1 86 30.0 -624 820.0 0 0 1 0 1 0 -1 0 0 3004.DAT
0 STEP
1 86 40.0 -672 810.0 -1 0 0 0 1 0 0 0 -1 3004.DAT
0 STEP
1 86 40.0 -600 830.0 -1 0 0 0 1 0 0 0 -1 3004.DAT
0 STEP
1 86 30.0 -672 830.0 0 0 1 0 1 0 -1 0 0 3005.DAT
0 STEP
1 86 40.0 -576 850.0 -1 0 0 0 1 0 0 0 -1 3004.DAT
0 STEP
1 86 30.0 -600 850.0 0 0 1 0 1 0 -1 0 0 3005.DAT
0 STEP
1 86 30.0 -624 850.0 0 0 1 0 1 0 -1 0 0 3005.DAT
0 STEP
1 86 30.0 -672 860.0 0 0 1 0 1 0 -1 0 0 3004.DAT
0 STEP
1 86 30.0 -696 920.0 0 0 1 0 1 0 -1 0 0 3008.DAT
0 STEP
1 86 40.0 -648 900.0 0 0 1 0 1 0 -1 0 0 3001.DAT
0 STEP
1 86 30.0 -672 890.0 0 0 1 0 1 0 -1 0 0 3005.DAT
0 STEP
1 86 40.0 -624 910.0 -1 0 0 0 1 0 0 0 -1 3004.DAT
0 STEP
1 86 40.0 -672 910.0 -1 0 0 0 1 0 0 0 -1 3004.DAT
0 STEP
1 86 40.0 -672 940.0 0 0 1 0 1 0 -1 0 0 3003.DAT
0 STEP
1 86 40.0 -672 970.0 -1 0 0 0 1 0 0 0 -1 3004.DAT
0 STEP
1 86 60.0 -672 270.0 -1 0 0 0 1 0 0 0 -1 3004.DAT
0 STEP
1 86 50.0 -696 340.0 0 0 1 0 1 0 -1 0 0 3008.DAT
0 STEP
1 86 60.0 -672 320.0 0 0 1 0 1 0 -1 0 0 3001.DAT
0 STEP
1 86 60.0 -360 360.0 0 0 1 0 1 0 -1 0 0 2456.DAT
0 STEP
1 86 60.0 -384 360.0 0 0 1 0 1 0 -1 0 0 2456.DAT
0 STEP
1 86 50.0 -984 320.0 0 0 1 0 1 0 -1 0 0 3004.DAT
0 STEP
1 86 60.0 -408 330.0 -1 0 0 0 1 0 0 0 -1 3004.DAT
0 STEP
1 86 50.0 -648 330.0 0 0 1 0 1 0 -1 0 0 3005.DAT
0 STEP
1 86 60.0 -720 340.0 0 0 1 0 1 0 -1 0 0 3003.DAT
0 STEP
1 86 60.0 -960 330.0 -1 0 0 0 1 0 0 0 -1 3004.DAT
0 STEP
1 86 50.0 -408 350.0 0 0 1 0 1 0 -1 0 0 3005.DAT
0 STEP
1 86 50.0 -432 350.0 0 0 1 0 1 0 -1 0 0 3005.DAT
0 STEP
1 86 60.0 -552 350.0 -1 0 0 0 1 0 0 0 -1 3004.DAT
0 STEP
1 86 60.0 -576 360.0 0 0 1 0 1 0 -1 0 0 3003.DAT
0 STEP
1 86 60.0 -600 350.0 -1 0 0 0 1 0 0 0 -1 3004.DAT
0 STEP
1 86 50.0 -624 350.0 0 0 1 0 1 0 -1 0 0 3005.DAT
0 STEP
1 86 60.0 -648 350.0 -1 0 0 0 1 0 0 0 -1 3004.DAT
0 STEP
1 86 50.0 -744 350.0 0 0 1 0 1 0 -1 0 0 3005.DAT
0 STEP
1 86 50.0 -768 350.0 0 0 1 0 1 0 -1 0 0 3005.DAT
0 STEP
1 86 50.0 -792 360.0 0 0 1 0 1 0 -1 0 0 3004.DAT
0 STEP
1 86 60.0 -816 350.0 -1 0 0 0 1 0 0 0 -1 3004.DAT
0 STEP
1 86 60.0 -936 350.0 -1 0 0 0 1 0 0 0 -1 3004.DAT
0 STEP
1 86 50.0 -960 360.0 0 0 1 0 1 0 -1 0 0 3004.DAT
0 STEP
1 86 80.0 -984 350.0 -1 0 0 0 1 0 0 0 -1 3010.DAT
0 STEP
1 86 50.0 -1008 360.0 0 0 1 0 1 0 -1 0 0 3004.DAT
0 STEP
1 86 50.0 -408 400.0 0 0 1 0 1 0 -1 0 0 3010.DAT
0 STEP
1 86 60.0 -432 370.0 -1 0 0 0 1 0 0 0 -1 3004.DAT
0 STEP
1 86 50.0 -456 380.0 0 0 1 0 1 0 -1 0 0 3004.DAT
0 STEP
1 86 60.0 -480 400.0 0 0 1 0 1 0 -1 0 0 3001.DAT
0 STEP
1 86 80.0 -504 380.0 -1 0 0 0 1 0 0 0 -1 3001.DAT
0 STEP
1 86 80.0 -528 370.0 -1 0 0 0 1 0 0 0 -1 3010.DAT
0 STEP
1 86 50.0 -552 370.0 0 0 1 0 1 0 -1 0 0 3005.DAT
0 STEP
1 86 50.0 -600 380.0 0 0 1 0 1 0 -1 0 0 3004.DAT
0 STEP
1 86 50.0 -624 400.0 0 0 1 0 1 0 -1 0 0 3010.DAT
0 STEP
1 86 50.0 -648 380.0 0 0 1 0 1 0 -1 0 0 3004.DAT
0 STEP
1 86 50.0 -672 380.0 0 0 1 0 1 0 -1 0 0 3004.DAT
0 STEP
1 86 50.0 -720 370.0 0 0 1 0 1 0 -1 0 0 3005.DAT
0 STEP
1 86 60.0 -744 380.0 0 0 1 0 1 0 -1 0 0 3003.DAT
0 STEP
1 86 60.0 -768 370.0 -1 0 0 0 1 0 0 0 -1 3004.DAT
0 STEP
1 86 60.0 -816 400.0 0 0 1 0 1 0 -1 0 0 3001.DAT
0 STEP
1 86 80.0 -840 380.0 -1 0 0 0 1 0 0 0 -1 3001.DAT
0 STEP
1 86 50.0 -864 370.0 0 0 1 0 1 0 -1 0 0 3005.DAT
0 STEP
1 86 80.0 -888 370.0 -1 0 0 0 1 0 0 0 -1 3010.DAT
0 STEP
1 86 50.0 -912 420.0 0 0 1 0 1 0 -1 0 0 3009.DAT
0 STEP
1 86 60.0 -936 380.0 0 0 1 0 1 0 -1 0 0 3003.DAT
0 STEP
1 86 60.0 -984 400.0 0 0 1 0 1 0 -1 0 0 3001.DAT
0 STEP
1 86 50.0 -1872 400.0 0 0 1 0 1 0 -1 0 0 3010.DAT
0 STEP
1 86 50.0 -1896 380.0 0 0 1 0 1 0 -1 0 0 3004.DAT
0 STEP
1 86 50.0 -1920 380.0 0 0 1 0 1 0 -1 0 0 3004.DAT
0 STEP
1 86 50.0 -432 400.0 0 0 1 0 1 0 -1 0 0 3004.DAT
0 STEP
1 86 50.0 -528 400.0 0 0 1 0 1 0 -1 0 0 3004.DAT
0 STEP
1 86 50.0 -552 420.0 0 0 1 0 1 0 -1 0 0 3010.DAT
0 STEP
1 86 60.0 -576 390.0 -1 0 0 0 1 0 0 0 -1 3004.DAT
0 STEP
1 86 50.0 -720 440.0 0 0 1 0 1 0 -1 0 0 3009.DAT
0 STEP
1 86 60.0 -768 420.0 0 0 1 0 1 0 -1 0 0 3001.DAT
0 STEP
1 86 60.0 -792 400.0 0 0 1 0 1 0 -1 0 0 3003.DAT
0 STEP
1 86 60.0 -864 390.0 -1 0 0 0 1 0 0 0 -1 3004.DAT
0 STEP
1 86 80.0 -888 400.0 -1 0 0 0 1 0 0 0 -1 3001.DAT
0 STEP
1 86 50.0 -960 390.0 0 0 1 0 1 0 -1 0 0 3005.DAT
0 STEP
1 86 60.0 -1008 390.0 -1 0 0 0 1 0 0 0 -1 3004.DAT
0 STEP
1 86 60.0 -1584 390.0 -1 0 0 0 1 0 0 0 -1 3004.DAT
0 STEP
1 86 60.0 -1608 390.0 -1 0 0 0 1 0 0 0 -1 3004.DAT
0 STEP
1 86 50.0 -1632 440.0 0 0 1 0 1 0 -1 0 0 3009.DAT
0 STEP
1 86 50.0 -1656 400.0 0 0 1 0 1 0 -1 0 0 3004.DAT
0 STEP
1 86 50.0 -1680 390.0 0 0 1 0 1 0 -1 0 0 3005.DAT
0 STEP
1 86 60.0 -1704 390.0 -1 0 0 0 1 0 0 0 -1 3004.DAT
0 STEP
1 86 50.0 -1728 400.0 0 0 1 0 1 0 -1 0 0 3004.DAT
0 STEP
1 86 60.0 -1752 400.0 0 0 1 0 1 0 -1 0 0 3003.DAT
0 STEP
1 86 50.0 -1776 390.0 0 0 1 0 1 0 -1 0 0 3005.DAT
0 STEP
1 86 60.0 -1800 390.0 -1 0 0 0 1 0 0 0 -1 3004.DAT
0 STEP
1 86 50.0 -1824 400.0 0 0 1 0 1 0 -1 0 0 3004.DAT
0 STEP
1 86 60.0 -1848 390.0 -1 0 0 0 1 0 0 0 -1 3004.DAT
0 STEP
1 86 60.0 -2280 400.0 0 0 1 0 1 0 -1 0 0 3003.DAT
0 STEP
1 86 60.0 -2304 390.0 -1 0 0 0 1 0 0 0 -1 3004.DAT
0 STEP
1 86 50.0 -2328 400.0 0 0 1 0 1 0 -1 0 0 3004.DAT
0 STEP
1 86 50.0 -2352 400.0 0 0 1 0 1 0 -1 0 0 3004.DAT
0 STEP
1 86 50.0 -2376 390.0 0 0 1 0 1 0 -1 0 0 3005.DAT
0 STEP
1 86 60.0 -288 410.0 -1 0 0 0 1 0 0 0 -1 3004.DAT
0 STEP
1 86 60.0 -312 410.0 -1 0 0 0 1 0 0 0 -1 3004.DAT
0 STEP
1 86 50.0 -336 420.0 0 0 1 0 1 0 -1 0 0 3004.DAT
0 STEP
1 86 60.0 -456 410.0 -1 0 0 0 1 0 0 0 -1 3004.DAT
0 STEP
1 86 80.0 -504 420.0 -1 0 0 0 1 0 0 0 -1 3001.DAT
0 STEP
1 86 80.0 -576 410.0 -1 0 0 0 1 0 0 0 -1 3010.DAT
0 STEP
1 86 50.0 -600 410.0 0 0 1 0 1 0 -1 0 0 3005.DAT
0 STEP
1 86 50.0 -648 410.0 0 0 1 0 1 0 -1 0 0 3005.DAT
0 STEP
1 86 50.0 -672 410.0 0 0 1 0 1 0 -1 0 0 3005.DAT
0 STEP
1 86 60.0 -744 410.0 -1 0 0 0 1 0 0 0 -1 3004.DAT
0 STEP
1 86 80.0 -840 410.0 -1 0 0 0 1 0 0 0 -1 3010.DAT
0 STEP
1 86 80.0 -864 420.0 -1 0 0 0 1 0 0 0 -1 3001.DAT
0 STEP
1 86 60.0 -936 410.0 -1 0 0 0 1 0 0 0 -1 3004.DAT
0 STEP
1 86 50.0 -960 420.0 0 0 1 0 1 0 -1 0 0 3004.DAT
0 STEP
1 86 80.0 -1008 420.0 -1 0 0 0 1 0 0 0 -1 3001.DAT
0 STEP
1 86 50.0 -1032 410.0 0 0 1 0 1 0 -1 0 0 3005.DAT
0 STEP
1 86 60.0 -1056 410.0 -1 0 0 0 1 0 0 0 -1 3004.DAT
0 STEP
1 86 60.0 -1152 460.0 0 0 1 0 1 0 -1 0 0 2456.DAT
0 STEP
1 86 60.0 -1368 420.0 0 0 1 0 1 0 -1 0 0 3003.DAT
0 STEP
1 86 50.0 -1392 420.0 0 0 1 0 1 0 -1 0 0 3004.DAT
0 STEP
1 86 50.0 -1416 420.0 0 0 1 0 1 0 -1 0 0 3004.DAT
0 STEP
1 86 50.0 -1440 410.0 0 0 1 0 1 0 -1 0 0 3005.DAT
0 STEP
1 86 60.0 -1464 420.0 0 0 1 0 1 0 -1 0 0 3003.DAT
0 STEP
1 86 60.0 -1488 420.0 0 0 1 0 1 0 -1 0 0 3003.DAT
0 STEP
1 86 50.0 -1512 410.0 0 0 1 0 1 0 -1 0 0 3005.DAT
0 STEP
1 86 60.0 -1536 420.0 0 0 1 0 1 0 -1 0 0 3003.DAT
0 STEP
1 86 50.0 -1560 410.0 0 0 1 0 1 0 -1 0 0 3005.DAT
0 STEP
1 86 60.0 -1584 440.0 0 0 1 0 1 0 -1 0 0 3001.DAT
0 STEP
1 86 60.0 -1608 420.0 0 0 1 0 1 0 -1 0 0 3003.DAT
0 STEP
1 86 50.0 -1680 420.0 0 0 1 0 1 0 -1 0 0 3004.DAT
0 STEP
1 86 60.0 -1704 420.0 0 0 1 0 1 0 -1 0 0 3003.DAT
0 STEP
1 86 60.0 -1776 420.0 0 0 1 0 1 0 -1 0 0 3003.DAT
0 STEP
1 86 50.0 -1800 410.0 0 0 1 0 1 0 -1 0 0 3005.DAT
0 STEP
1 86 50.0 -1848 420.0 0 0 1 0 1 0 -1 0 0 3004.DAT
0 STEP
1 86 50.0 -1896 410.0 0 0 1 0 1 0 -1 0 0 3005.DAT
0 STEP
1 86 50.0 -1920 410.0 0 0 1 0 1 0 -1 0 0 3005.DAT
0 STEP
1 86 50.0 -1944 420.0 0 0 1 0 1 0 -1 0 0 3004.DAT
0 STEP
1 86 50.0 -1968 410.0 0 0 1 0 1 0 -1 0 0 3005.DAT
0 STEP
1 86 60.0 -1992 410.0 -1 0 0 0 1 0 0 0 -1 3004.DAT
0 STEP
1 86 50.0 -2016 420.0 0 0 1 0 1 0 -1 0 0 3004.DAT
0 STEP
1 86 60.0 -2040 410.0 -1 0 0 0 1 0 0 0 -1 3004.DAT
0 STEP
1 86 60.0 -2064 410.0 -1 0 0 0 1 0 0 0 -1 3004.DAT
0 STEP
1 86 50.0 -2088 410.0 0 0 1 0 1 0 -1 0 0 3005.DAT
0 STEP
1 86 60.0 -2112 410.0 -1 0 0 0 1 0 0 0 -1 3004.DAT
0 STEP
1 86 50.0 -2136 420.0 0 0 1 0 1 0 -1 0 0 3004.DAT
0 STEP
1 86 50.0 -2160 420.0 0 0 1 0 1 0 -1 0 0 3004.DAT
0 STEP
1 86 50.0 -2184 440.0 0 0 1 0 1 0 -1 0 0 3010.DAT
0 STEP
1 86 50.0 -2208 410.0 0 0 1 0 1 0 -1 0 0 3005.DAT
0 STEP
1 86 50.0 -2232 410.0 0 0 1 0 1 0 -1 0 0 3005.DAT
0 STEP
1 86 60.0 -2256 410.0 -1 0 0 0 1 0 0 0 -1 3004.DAT
0 STEP
1 86 60.0 -2304 420.0 0 0 1 0 1 0 -1 0 0 3003.DAT
0 STEP
1 86 50.0 -2376 420.0 0 0 1 0 1 0 -1 0 0 3004.DAT
0 STEP
1 86 50.0 -192 460.0 0 0 1 0 1 0 -1 0 0 3010.DAT
0 STEP
1 86 60.0 -216 430.0 -1 0 0 0 1 0 0 0 -1 3004.DAT
0 STEP
1 86 60.0 -240 430.0 -1 0 0 0 1 0 0 0 -1 3004.DAT
0 STEP
1 86 50.0 -264 430.0 0 0 1 0 1 0 -1 0 0 3005.DAT
0 STEP
1 86 50.0 -288 440.0 0 0 1 0 1 0 -1 0 0 3004.DAT
0 STEP
1 86 50.0 -312 460.0 0 0 1 0 1 0 -1 0 0 3010.DAT
0 STEP
1 86 60.0 -360 430.0 -1 0 0 0 1 0 0 0 -1 3004.DAT
0 STEP
1 86 60.0 -384 440.0 0 0 1 0 1 0 -1 0 0 3003.DAT
0 STEP
1 86 50.0 -432 430.0 0 0 1 0 1 0 -1 0 0 3005.DAT
0 STEP
1 86 80.0 -456 440.0 -1 0 0 0 1 0 0 0 -1 3001.DAT
0 STEP
1 86 50.0 -528 430.0 0 0 1 0 1 0 -1 0 0 3005.DAT
0 STEP
1 86 50.0 -576 430.0 0 0 1 0 1 0 -1 0 0 3005.DAT
0 STEP
1 86 50.0 -600 440.0 0 0 1 0 1 0 -1 0 0 3004.DAT
0 STEP
1 86 50.0 -648 440.0 0 0 1 0 1 0 -1 0 0 3004.DAT
0 STEP
1 86 50.0 -672 480.0 0 0 1 0 1 0 -1 0 0 3009.DAT
0 STEP
1 86 50.0 -696 440.0 0 0 1 0 1 0 -1 0 0 3004.DAT
0 STEP
1 86 50.0 -744 440.0 0 0 1 0 1 0 -1 0 0 3004.DAT
0 STEP
1 86 60.0 -792 430.0 -1 0 0 0 1 0 0 0 -1 3004.DAT
0 STEP
1 86 50.0 -840 430.0 0 0 1 0 1 0 -1 0 0 3005.DAT
0 STEP
1 86 60.0 -888 440.0 0 0 1 0 1 0 -1 0 0 3003.DAT
0 STEP
1 86 60.0 -936 440.0 0 0 1 0 1 0 -1 0 0 3003.DAT
0 STEP
1 86 60.0 -1032 430.0 -1 0 0 0 1 0 0 0 -1 3004.DAT
0 STEP
1 86 60.0 -1056 440.0 0 0 1 0 1 0 -1 0 0 3003.DAT
0 STEP
1 86 50.0 -1080 440.0 0 0 1 0 1 0 -1 0 0 3004.DAT
0 STEP
1 86 60.0 -1104 440.0 0 0 1 0 1 0 -1 0 0 3003.DAT
0 STEP
1 86 50.0 -1128 430.0 0 0 1 0 1 0 -1 0 0 3005.DAT
0 STEP
1 86 50.0 -1176 430.0 0 0 1 0 1 0 -1 0 0 3005.DAT
0 STEP
1 86 60.0 -1200 430.0 -1 0 0 0 1 0 0 0 -1 3004.DAT
0 STEP
1 86 50.0 -1224 430.0 0 0 1 0 1 0 -1 0 0 3005.DAT
0 STEP
1 86 50.0 -1248 440.0 0 0 1 0 1 0 -1 0 0 3004.DAT
0 STEP
1 86 50.0 -1272 460.0 0 0 1 0 1 0 -1 0 0 3010.DAT
0 STEP
1 86 60.0 -1296 430.0 -1 0 0 0 1 0 0 0 -1 3004.DAT
0 STEP
1 86 50.0 -1320 440.0 0 0 1 0 1 0 -1 0 0 3004.DAT
0 STEP
1 86 60.0 -1344 440.0 0 0 1 0 1 0 -1 0 0 3003.DAT
0 STEP
1 86 50.0 -1440 440.0 0 0 1 0 1 0 -1 0 0 3004.DAT
0 STEP
1 86 80.0 -1512 430.0 -1 0 0 0 1 0 0 0 -1 3010.DAT
0 STEP
1 86 60.0 -1800 430.0 -1 0 0 0 1 0 0 0 -1 3004.DAT
0 STEP
1 86 50.0 -2040 440.0 0 0 1 0 1 0 -1 0 0 3004.DAT
0 STEP
1 86 50.0 -2064 460.0 0 0 1 0 1 0 -1 0 0 3010.DAT
0 STEP
1 86 60.0 -2112 440.0 0 0 1 0 1 0 -1 0 0 3003.DAT
0 STEP
1 86 50.0 -2232 480.0 0 0 1 0 1 0 -1 0 0 3009.DAT
0 STEP
1 86 60.0 -2256 440.0 0 0 1 0 1 0 -1 0 0 3003.DAT
0 STEP
1 86 50.0 -2352 430.0 0 0 1 0 1 0 -1 0 0 3005.DAT
0 STEP
1 86 50.0 -2400 430.0 0 0 1 0 1 0 -1 0 0 3005.DAT
0 STEP
1 86 50.0 -2424 430.0 0 0 1 0 1 0 -1 0 0 3005.DAT
0 STEP
1 86 50.0 -2448 440.0 0 0 1 0 1 0 -1 0 0 3004.DAT
0 STEP
1 86 50.0 -2472 460.0 0 0 1 0 1 0 -1 0 0 3010.DAT
0 STEP
1 86 50.0 -2496 440.0 0 0 1 0 1 0 -1 0 0 3004.DAT
0 STEP
1 86 50.0 -2520 430.0 0 0 1 0 1 0 -1 0 0 3005.DAT
0 STEP
1 86 50.0 -2544 430.0 0 0 1 0 1 0 -1 0 0 3005.DAT
0 STEP
1 86 50.0 -2568 430.0 0 0 1 0 1 0 -1 0 0 3005.DAT
0 STEP
1 86 50.0 -2592 430.0 0 0 1 0 1 0 -1 0 0 3005.DAT
0 STEP
1 86 50.0 -2616 440.0 0 0 1 0 1 0 -1 0 0 3004.DAT
0 STEP
1 86 60.0 -2640 440.0 0 0 1 0 1 0 -1 0 0 3003.DAT
0 STEP
1 86 60.0 -2664 440.0 0 0 1 0 1 0 -1 0 0 3003.DAT
0 STEP
1 86 60.0 -2688 430.0 -1 0 0 0 1 0 0 0 -1 3004.DAT
0 STEP
1 86 50.0 -120 460.0 0 0 1 0 1 0 -1 0 0 3004.DAT
0 STEP
1 86 50.0 -144 450.0 0 0 1 0 1 0 -1 0 0 3005.DAT
0 STEP
1 86 50.0 -168 460.0 0 0 1 0 1 0 -1 0 0 3004.DAT
0 STEP
1 86 50.0 -216 480.0 0 0 1 0 1 0 -1 0 0 3010.DAT
0 STEP
1 86 50.0 -240 450.0 0 0 1 0 1 0 -1 0 0 3005.DAT
0 STEP
1 86 60.0 -264 450.0 -1 0 0 0 1 0 0 0 -1 3004.DAT
0 STEP
1 86 60.0 -408 450.0 -1 0 0 0 1 0 0 0 -1 3004.DAT
0 STEP
1 86 80.0 -504 450.0 -1 0 0 0 1 0 0 0 -1 3010.DAT
0 STEP
1 86 60.0 -576 450.0 -1 0 0 0 1 0 0 0 -1 3004.DAT
0 STEP
1 86 60.0 -1128 450.0 -1 0 0 0 1 0 0 0 -1 3004.DAT
0 STEP
1 86 60.0 -1200 480.0 0 0 1 0 1 0 -1 0 0 3001.DAT
0 STEP
1 86 50.0 -1224 460.0 0 0 1 0 1 0 -1 0 0 3004.DAT
0 STEP
1 86 60.0 -1296 480.0 0 0 1 0 1 0 -1 0 0 3001.DAT
0 STEP
1 86 60.0 -1488 450.0 -1 0 0 0 1 0 0 0 -1 3004.DAT
0 STEP
1 86 50.0 -1536 450.0 0 0 1 0 1 0 -1 0 0 3005.DAT
0 STEP
1 86 60.0 -1608 450.0 -1 0 0 0 1 0 0 0 -1 3004.DAT
0 STEP
1 86 60.0 -1680 480.0 0 0 1 0 1 0 -1 0 0 3001.DAT
0 STEP
1 86 60.0 -1704 450.0 -1 0 0 0 1 0 0 0 -1 3004.DAT
0 STEP
1 86 50.0 -1752 450.0 0 0 1 0 1 0 -1 0 0 3005.DAT
0 STEP
1 86 50.0 -1776 460.0 0 0 1 0 1 0 -1 0 0 3004.DAT
0 STEP
1 86 80.0 -1848 450.0 -1 0 0 0 1 0 0 0 -1 3010.DAT
0 STEP
1 86 80.0 -1944 450.0 -1 0 0 0 1 0 0 0 -1 3010.DAT
0 STEP
1 86 80.0 -1992 450.0 -1 0 0 0 1 0 0 0 -1 3010.DAT
0 STEP
1 86 60.0 -2136 450.0 -1 0 0 0 1 0 0 0 -1 3004.DAT
0 STEP
1 86 50.0 -2160 450.0 0 0 1 0 1 0 -1 0 0 3005.DAT
0 STEP
1 86 50.0 -2280 460.0 0 0 1 0 1 0 -1 0 0 3004.DAT
0 STEP
1 86 50.0 -2352 460.0 0 0 1 0 1 0 -1 0 0 3004.DAT
0 STEP
1 86 50.0 -2376 450.0 0 0 1 0 1 0 -1 0 0 3005.DAT
0 STEP
1 86 60.0 -2520 460.0 0 0 1 0 1 0 -1 0 0 3003.DAT
0 STEP
1 86 50.0 -2544 460.0 0 0 1 0 1 0 -1 0 0 3004.DAT
0 STEP
1 86 60.0 -2568 460.0 0 0 1 0 1 0 -1 0 0 3003.DAT
0 STEP
1 86 50.0 -2592 460.0 0 0 1 0 1 0 -1 0 0 3004.DAT
0 STEP
1 86 50.0 -96 480.0 0 0 1 0 1 0 -1 0 0 3004.DAT
0 STEP
1 86 60.0 -144 470.0 -1 0 0 0 1 0 0 0 -1 3004.DAT
0 STEP
1 86 60.0 -240 470.0 -1 0 0 0 1 0 0 0 -1 3004.DAT
0 STEP
1 86 60.0 -264 480.0 0 0 1 0 1 0 -1 0 0 3003.DAT
0 STEP
1 86 60.0 -288 470.0 -1 0 0 0 1 0 0 0 -1 3004.DAT
0 STEP
1 86 60.0 -360 470.0 -1 0 0 0 1 0 0 0 -1 3004.DAT
0 STEP
1 86 50.0 -384 470.0 0 0 1 0 1 0 -1 0 0 3005.DAT
0 STEP
1 86 50.0 -408 470.0 0 0 1 0 1 0 -1 0 0 3005.DAT
0 STEP
1 86 50.0 -504 470.0 0 0 1 0 1 0 -1 0 0 3005.DAT
0 STEP
1 86 50.0 -600 470.0 0 0 1 0 1 0 -1 0 0 3005.DAT
0 STEP
1 86 50.0 -624 500.0 0 0 1 0 1 0 -1 0 0 3010.DAT
0 STEP
1 86 60.0 -648 470.0 -1 0 0 0 1 0 0 0 -1 3004.DAT
0 STEP
1 86 50.0 -696 470.0 0 0 1 0 1 0 -1 0 0 3005.DAT
0 STEP
1 86 50.0 -744 470.0 0 0 1 0 1 0 -1 0 0 3005.DAT
0 STEP
1 86 60.0 -888 470.0 -1 0 0 0 1 0 0 0 -1 3004.DAT
0 STEP
1 86 60.0 -1080 470.0 -1 0 0 0 1 0 0 0 -1 3004.DAT
0 STEP
1 86 50.0 -1104 470.0 0 0 1 0 1 0 -1 0 0 3005.DAT
0 STEP
1 86 60.0 -1176 480.0 0 0 1 0 1 0 -1 0 0 3003.DAT
0 STEP
1 86 60.0 -1248 470.0 -1 0 0 0 1 0 0 0 -1 3004.DAT
0 STEP
1 86 60.0 -1320 470.0 -1 0 0 0 1 0 0 0 -1 3004.DAT
0 STEP
1 86 60.0 -1344 470.0 -1 0 0 0 1 0 0 0 -1 3004.DAT
0 STEP
1 86 60.0 -1368 470.0 -1 0 0 0 1 0 0 0 -1 3004.DAT
0 STEP
1 86 50.0 -1392 470.0 0 0 1 0 1 0 -1 0 0 3005.DAT
0 STEP
1 86 80.0 -1440 470.0 -1 0 0 0 1 0 0 0 -1 3010.DAT
0 STEP
1 86 60.0 -1536 480.0 0 0 1 0 1 0 -1 0 0 3003.DAT
0 STEP
1 86 50.0 -1560 470.0 0 0 1 0 1 0 -1 0 0 3005.DAT
0 STEP
1 86 80.0 -1608 480.0 -1 0 0 0 1 0 0 0 -1 3001.DAT
0 STEP
1 86 50.0 -1704 480.0 0 0 1 0 1 0 -1 0 0 3004.DAT
0 STEP
1 86 60.0 -1752 480.0 0 0 1 0 1 0 -1 0 0 3003.DAT
0 STEP
1 86 60.0 -1800 470.0 -1 0 0 0 1 0 0 0 -1 3004.DAT
0 STEP
1 86 60.0 -1872 470.0 -1 0 0 0 1 0 0 0 -1 3004.DAT
0 STEP
1 86 50.0 -1944 480.0 0 0 1 0 1 0 -1 0 0 3004.DAT
0 STEP
1 86 80.0 -1992 480.0 -1 0 0 0 1 0 0 0 -1 3001.DAT
0 STEP
1 86 80.0 -2040 470.0 -1 0 0 0 1 0 0 0 -1 3010.DAT
0 STEP
1 86 60.0 -2160 470.0 -1 0 0 0 1 0 0 0 -1 3004.DAT
0 STEP
1 86 50.0 -2256 480.0 0 0 1 0 1 0 -1 0 0 3004.DAT
0 STEP
1 86 60.0 -2304 480.0 0 0 1 0 1 0 -1 0 0 3003.DAT
0 STEP
1 86 60.0 -2400 470.0 -1 0 0 0 1 0 0 0 -1 3004.DAT
0 STEP
1 86 50.0 -2424 470.0 0 0 1 0 1 0 -1 0 0 3005.DAT
0 STEP
1 86 60.0 -2448 480.0 0 0 1 0 1 0 -1 0 0 3003.DAT
0 STEP
1 86 60.0 -2496 470.0 -1 0 0 0 1 0 0 0 -1 3004.DAT
0 STEP
1 86 60.0 -72 490.0 -1 0 0 0 1 0 0 0 -1 3004.DAT
0 STEP
1 86 60.0 -120 500.0 0 0 1 0 1 0 -1 0 0 3003.DAT
0 STEP
1 86 60.0 -144 500.0 0 0 1 0 1 0 -1 0 0 3003.DAT
0 STEP
1 86 60.0 -168 500.0 0 0 1 0 1 0 -1 0 0 3003.DAT
0 STEP
1 86 60.0 -240 500.0 0 0 1 0 1 0 -1 0 0 3003.DAT
0 STEP
1 86 60.0 -384 490.0 -1 0 0 0 1 0 0 0 -1 3004.DAT
0 STEP
1 86 60.0 -432 490.0 -1 0 0 0 1 0 0 0 -1 3004.DAT
0 STEP
1 86 50.0 -648 490.0 0 0 1 0 1 0 -1 0 0 3005.DAT
0 STEP
1 86 60.0 -696 540.0 0 0 1 0 1 0 -1 0 0 2456.DAT
0 STEP
1 86 60.0 -744 500.0 0 0 1 0 1 0 -1 0 0 3003.DAT
0 STEP
1 86 60.0 -1008 490.0 -1 0 0 0 1 0 0 0 -1 3004.DAT
0 STEP
1 86 60.0 -1032 490.0 -1 0 0 0 1 0 0 0 -1 3004.DAT
0 STEP
1 86 50.0 -1080 490.0 0 0 1 0 1 0 -1 0 0 3005.DAT
0 STEP
1 86 50.0 -1104 500.0 0 0 1 0 1 0 -1 0 0 3004.DAT
0 STEP
1 86 50.0 -1128 490.0 0 0 1 0 1 0 -1 0 0 3005.DAT
0 STEP
1 86 50.0 -1224 490.0 0 0 1 0 1 0 -1 0 0 3005.DAT
0 STEP
1 86 60.0 -1248 500.0 0 0 1 0 1 0 -1 0 0 3003.DAT
0 STEP
1 86 60.0 -1320 500.0 0 0 1 0 1 0 -1 0 0 3003.DAT
0 STEP
1 86 50.0 -1344 490.0 0 0 1 0 1 0 -1 0 0 3005.DAT
0 STEP
1 86 50.0 -1368 500.0 0 0 1 0 1 0 -1 0 0 3004.DAT
0 STEP
1 86 80.0 -1392 490.0 -1 0 0 0 1 0 0 0 -1 3010.DAT
0 STEP
1 86 50.0 -1416 490.0 0 0 1 0 1 0 -1 0 0 3005.DAT
0 STEP
1 86 50.0 -1560 500.0 0 0 1 0 1 0 -1 0 0 3004.DAT
0 STEP
1 86 60.0 -1776 500.0 0 0 1 0 1 0 -1 0 0 3003.DAT
0 STEP
1 86 60.0 -1800 500.0 0 0 1 0 1 0 -1 0 0 3003.DAT
0 STEP
1 86 50.0 -1848 490.0 0 0 1 0 1 0 -1 0 0 3005.DAT
0 STEP
1 86 60.0 -1920 490.0 -1 0 0 0 1 0 0 0 -1 3004.DAT
0 STEP
1 86 60.0 -1968 490.0 -1 0 0 0 1 0 0 0 -1 3004.DAT
0 STEP
1 86 50.0 -2040 500.0 0 0 1 0 1 0 -1 0 0 3004.DAT
0 STEP
1 86 60.0 -2160 500.0 0 0 1 0 1 0 -1 0 0 3003.DAT
0 STEP
1 86 80.0 -2184 490.0 -1 0 0 0 1 0 0 0 -1 3010.DAT
0 STEP
1 86 50.0 -2208 490.0 0 0 1 0 1 0 -1 0 0 3005.DAT
0 STEP
1 86 50.0 -2280 490.0 0 0 1 0 1 0 -1 0 0 3005.DAT
0 STEP
1 86 60.0 -2352 500.0 0 0 1 0 1 0 -1 0 0 3003.DAT
0 STEP
1 86 60.0 -2400 500.0 0 0 1 0 1 0 -1 0 0 3003.DAT
0 STEP
1 86 60.0 -2424 500.0 0 0 1 0 1 0 -1 0 0 3003.DAT
0 STEP
1 86 50.0 -2496 490.0 0 0 1 0 1 0 -1 0 0 3005.DAT
0 STEP
1 86 50.0 -2520 490.0 0 0 1 0 1 0 -1 0 0 3005.DAT
0 STEP
1 86 50.0 -192 510.0 0 0 1 0 1 0 -1 0 0 3005.DAT
0 STEP
1 86 60.0 -264 510.0 -1 0 0 0 1 0 0 0 -1 3004.DAT
0 STEP
1 86 50.0 -312 510.0 0 0 1 0 1 0 -1 0 0 3005.DAT
0 STEP
1 86 50.0 -600 510.0 0 0 1 0 1 0 -1 0 0 3005.DAT
0 STEP
1 86 50.0 -720 510.0 0 0 1 0 1 0 -1 0 0 3005.DAT
0 STEP
1 86 60.0 -984 510.0 -1 0 0 0 1 0 0 0 -1 3004.DAT
0 STEP
1 86 60.0 -1032 520.0 0 0 1 0 1 0 -1 0 0 3003.DAT
0 STEP
1 86 60.0 -1080 510.0 -1 0 0 0 1 0 0 0 -1 3004.DAT
0 STEP
1 86 60.0 -1128 510.0 -1 0 0 0 1 0 0 0 -1 3004.DAT
0 STEP
1 86 60.0 -1224 510.0 -1 0 0 0 1 0 0 0 -1 3004.DAT
0 STEP
1 86 50.0 -1272 510.0 0 0 1 0 1 0 -1 0 0 3005.DAT
0 STEP
1 86 50.0 -1344 520.0 0 0 1 0 1 0 -1 0 0 3004.DAT
0 STEP
1 86 60.0 -1416 520.0 0 0 1 0 1 0 -1 0 0 3003.DAT
0 STEP
1 86 60.0 -1584 520.0 0 0 1 0 1 0 -1 0 0 3003.DAT
0 STEP
1 86 50.0 -1608 520.0 0 0 1 0 1 0 -1 0 0 3004.DAT
0 STEP
1 86 60.0 -1704 520.0 0 0 1 0 1 0 -1 0 0 3003.DAT
0 STEP
1 86 60.0 -1728 510.0 -1 0 0 0 1 0 0 0 -1 3004.DAT
0 STEP
1 86 50.0 -1752 520.0 0 0 1 0 1 0 -1 0 0 3004.DAT
0 STEP
1 86 60.0 -1824 520.0 0 0 1 0 1 0 -1 0 0 3003.DAT
0 STEP
1 86 50.0 -1848 520.0 0 0 1 0 1 0 -1 0 0 3004.DAT
0 STEP
1 86 60.0 -1872 510.0 -1 0 0 0 1 0 0 0 -1 3004.DAT
0 STEP
1 86 60.0 -1920 520.0 0 0 1 0 1 0 -1 0 0 3003.DAT
0 STEP
1 86 60.0 -1944 520.0 0 0 1 0 1 0 -1 0 0 3003.DAT
0 STEP
1 86 60.0 -1968 520.0 0 0 1 0 1 0 -1 0 0 3003.DAT
0 STEP
1 86 50.0 -1992 520.0 0 0 1 0 1 0 -1 0 0 3004.DAT
0 STEP
1 86 60.0 -2016 520.0 0 0 1 0 1 0 -1 0 0 3003.DAT
0 STEP
1 86 50.0 -2064 510.0 0 0 1 0 1 0 -1 0 0 3005.DAT
0 STEP
1 86 60.0 -2184 520.0 0 0 1 0 1 0 -1 0 0 3003.DAT
0 STEP
1 86 60.0 -2208 520.0 0 0 1 0 1 0 -1 0 0 3003.DAT
0 STEP
1 86 50.0 -2280 520.0 0 0 1 0 1 0 -1 0 0 3004.DAT
0 STEP
1 86 60.0 -2304 510.0 -1 0 0 0 1 0 0 0 -1 3004.DAT
0 STEP
1 86 60.0 -2376 520.0 0 0 1 0 1 0 -1 0 0 3003.DAT
0 STEP
1 86 60.0 -2448 510.0 -1 0 0 0 1 0 0 0 -1 3004.DAT
0 STEP
1 86 50.0 -600 540.0 0 0 1 0 1 0 -1 0 0 3004.DAT
0 STEP
1 86 60.0 -720 580.0 0 0 1 0 1 0 -1 0 0 2456.DAT
0 STEP
1 86 50.0 -744 530.0 0 0 1 0 1 0 -1 0 0 3005.DAT
0 STEP
1 86 50.0 -1128 530.0 0 0 1 0 1 0 -1 0 0 3005.DAT
0 STEP
1 86 50.0 -1152 530.0 0 0 1 0 1 0 -1 0 0 3005.DAT
0 STEP
1 86 50.0 -1176 530.0 0 0 1 0 1 0 -1 0 0 3005.DAT
0 STEP
1 86 60.0 -1200 530.0 -1 0 0 0 1 0 0 0 -1 3004.DAT
0 STEP
1 86 50.0 -1368 530.0 0 0 1 0 1 0 -1 0 0 3005.DAT
0 STEP
1 86 50.0 -1392 530.0 0 0 1 0 1 0 -1 0 0 3005.DAT
0 STEP
1 86 60.0 -1440 530.0 -1 0 0 0 1 0 0 0 -1 3004.DAT
0 STEP
1 86 50.0 -1464 530.0 0 0 1 0 1 0 -1 0 0 3005.DAT
0 STEP
1 86 50.0 -1488 530.0 0 0 1 0 1 0 -1 0 0 3005.DAT
0 STEP
1 86 50.0 -1512 530.0 0 0 1 0 1 0 -1 0 0 3005.DAT
0 STEP
1 86 60.0 -1536 530.0 -1 0 0 0 1 0 0 0 -1 3004.DAT
0 STEP
1 86 60.0 -1560 530.0 -1 0 0 0 1 0 0 0 -1 3004.DAT
0 STEP
1 86 50.0 -1632 530.0 0 0 1 0 1 0 -1 0 0 3005.DAT
0 STEP
1 86 50.0 -1656 530.0 0 0 1 0 1 0 -1 0 0 3005.DAT
0 STEP
1 86 50.0 -1680 530.0 0 0 1 0 1 0 -1 0 0 3005.DAT
0 STEP
1 86 50.0 -1728 530.0 0 0 1 0 1 0 -1 0 0 3005.DAT
0 STEP
1 86 60.0 -1776 530.0 -1 0 0 0 1 0 0 0 -1 3004.DAT
0 STEP
1 86 50.0 -1800 530.0 0 0 1 0 1 0 -1 0 0 3005.DAT
0 STEP
1 86 50.0 -1872 530.0 0 0 1 0 1 0 -1 0 0 3005.DAT
0 STEP
1 86 50.0 -1896 530.0 0 0 1 0 1 0 -1 0 0 3005.DAT
0 STEP
1 86 50.0 -2040 530.0 0 0 1 0 1 0 -1 0 0 3005.DAT
0 STEP
1 86 60.0 -2064 530.0 -1 0 0 0 1 0 0 0 -1 3004.DAT
0 STEP
1 86 60.0 -2088 530.0 -1 0 0 0 1 0 0 0 -1 3004.DAT
0 STEP
1 86 60.0 -2112 530.0 -1 0 0 0 1 0 0 0 -1 3004.DAT
0 STEP
1 86 50.0 -2136 530.0 0 0 1 0 1 0 -1 0 0 3005.DAT
0 STEP
1 86 60.0 -2160 530.0 -1 0 0 0 1 0 0 0 -1 3004.DAT
0 STEP
1 86 60.0 -2256 530.0 -1 0 0 0 1 0 0 0 -1 3004.DAT
0 STEP
1 86 50.0 -2304 530.0 0 0 1 0 1 0 -1 0 0 3005.DAT
0 STEP
1 86 60.0 -2328 530.0 -1 0 0 0 1 0 0 0 -1 3004.DAT
0 STEP
1 86 60.0 -2352 530.0 -1 0 0 0 1 0 0 0 -1 3004.DAT
0 STEP
1 86 60.0 -2400 530.0 -1 0 0 0 1 0 0 0 -1 3004.DAT
0 STEP
1 86 50.0 -624 550.0 0 0 1 0 1 0 -1 0 0 3005.DAT
0 STEP
1 86 60.0 -648 550.0 -1 0 0 0 1 0 0 0 -1 3004.DAT
0 STEP
1 86 60.0 -672 550.0 -1 0 0 0 1 0 0 0 -1 3004.DAT
0 STEP
1 86 50.0 -624 580.0 0 0 1 0 1 0 -1 0 0 3004.DAT
0 STEP
1 86 60.0 -672 580.0 0 0 1 0 1 0 -1 0 0 3003.DAT
0 STEP
1 86 50.0 -648 610.0 0 0 1 0 1 0 -1 0 0 3005.DAT
0 STEP
1 86 60.0 -672 610.0 -1 0 0 0 1 0 0 0 -1 3004.DAT
0 STEP
1 86 50.0 -696 610.0 0 0 1 0 1 0 -1 0 0 3005.DAT
0 STEP
1 86 50.0 -600 680.0 0 0 1 0 1 0 -1 0 0 3009.DAT
0 STEP
1 86 60.0 -648 680.0 0 0 1 0 1 0 -1 0 0 2456.DAT
0 STEP
1 86 50.0 -672 630.0 0 0 1 0 1 0 -1 0 0 3005.DAT
0 STEP
1 86 50.0 -696 660.0 0 0 1 0 1 0 -1 0 0 3010.DAT
0 STEP
1 86 50.0 -624 650.0 0 0 1 0 1 0 -1 0 0 3005.DAT
0 STEP
1 86 50.0 -672 660.0 0 0 1 0 1 0 -1 0 0 3004.DAT
0 STEP
1 86 50.0 -720 660.0 0 0 1 0 1 0 -1 0 0 3004.DAT
0 STEP
1 86 50.0 -624 680.0 0 0 1 0 1 0 -1 0 0 3004.DAT
0 STEP
1 86 50.0 -672 690.0 0 0 1 0 1 0 -1 0 0 3005.DAT
0 STEP
1 86 50.0 -720 690.0 0 0 1 0 1 0 -1 0 0 3005.DAT
0 STEP
1 86 60.0 -624 710.0 -1 0 0 0 1 0 0 0 -1 3004.DAT
0 STEP
1 86 60.0 -672 710.0 -1 0 0 0 1 0 0 0 -1 3004.DAT
0 STEP
1 86 50.0 -696 710.0 0 0 1 0 1 0 -1 0 0 3005.DAT
0 STEP
1 86 50.0 -624 730.0 0 0 1 0 1 0 -1 0 0 3005.DAT
0 STEP
1 86 50.0 -672 740.0 0 0 1 0 1 0 -1 0 0 3004.DAT
0 STEP
1 86 50.0 -696 740.0 0 0 1 0 1 0 -1 0 0 3004.DAT
0 STEP
1 86 60.0 -600 760.0 0 0 1 0 1 0 -1 0 0 3003.DAT
0 STEP
1 86 60.0 -648 750.0 -1 0 0 0 1 0 0 0 -1 3004.DAT
0 STEP
1 86 50.0 -696 770.0 0 0 1 0 1 0 -1 0 0 3005.DAT
0 STEP
1 86 60.0 -576 790.0 -1 0 0 0 1 0 0 0 -1 3004.DAT
0 STEP
1 86 50.0 -600 800.0 0 0 1 0 1 0 -1 0 0 3004.DAT
0 STEP
1 86 50.0 -696 840.0 0 0 1 0 1 0 -1 0 0 3009.DAT
0 STEP
1 86 60.0 -576 820.0 0 0 1 0 1 0 -1 0 0 3003.DAT
0 STEP
1 86 60.0 -624 810.0 -1 0 0 0 1 0 0 0 -1 3004.DAT
0 STEP
1 86 50.0 -624 830.0 0 0 1 0 1 0 -1 0 0 3005.DAT
0 STEP
1 86 50.0 -672 860.0 0 0 1 0 1 0 -1 0 0 3010.DAT
0 STEP
1 86 60.0 -600 860.0 0 0 1 0 1 0 -1 0 0 3003.DAT
0 STEP
1 86 50.0 -624 860.0 0 0 1 0 1 0 -1 0 0 3004.DAT
0 STEP
1 86 60.0 -624 890.0 -1 0 0 0 1 0 0 0 -1 3004.DAT
0 STEP
1 86 50.0 -696 910.0 0 0 1 0 1 0 -1 0 0 3005.DAT
0 STEP
1 86 70.0 -672 200.0 0 0 1 0 1 0 -1 0 0 3009.DAT
0 STEP
1 86 70.0 -696 150.0 0 0 1 0 1 0 -1 0 0 3005.DAT
0 STEP
1 86 80.0 -696 180.0 0 0 1 0 1 0 -1 0 0 3003.DAT
0 STEP
1 86 70.0 -648 200.0 0 0 1 0 1 0 -1 0 0 3004.DAT
0 STEP
1 86 80.0 -312 220.0 0 0 1 0 1 0 -1 0 0 3003.DAT
0 STEP
1 86 80.0 -336 210.0 -1 0 0 0 1 0 0 0 -1 3004.DAT
0 STEP
1 86 70.0 -696 220.0 0 0 1 0 1 0 -1 0 0 3004.DAT
0 STEP
1 86 80.0 -720 210.0 -1 0 0 0 1 0 0 0 -1 3004.DAT
0 STEP
1 86 80.0 -1032 210.0 -1 0 0 0 1 0 0 0 -1 3004.DAT
0 STEP
1 86 70.0 -336 280.0 0 0 1 0 1 0 -1 0 0 3009.DAT
0 STEP
1 86 70.0 -360 230.0 0 0 1 0 1 0 -1 0 0 3005.DAT
0 STEP
1 86 80.0 -648 240.0 0 0 1 0 1 0 -1 0 0 3003.DAT
0 STEP
1 86 80.0 -720 240.0 0 0 1 0 1 0 -1 0 0 3003.DAT
0 STEP
1 86 80.0 -1008 260.0 0 0 1 0 1 0 -1 0 0 3001.DAT
0 STEP
1 86 70.0 -1032 240.0 0 0 1 0 1 0 -1 0 0 3004.DAT
0 STEP
1 86 80.0 -1056 240.0 0 0 1 0 1 0 -1 0 0 3003.DAT
0 STEP
1 86 80.0 -312 300.0 0 0 1 0 1 0 -1 0 0 2456.DAT
0 STEP
1 86 70.0 -360 260.0 0 0 1 0 1 0 -1 0 0 3004.DAT
0 STEP
1 86 80.0 -384 250.0 -1 0 0 0 1 0 0 0 -1 3004.DAT
0 STEP
1 86 70.0 -624 260.0 0 0 1 0 1 0 -1 0 0 3004.DAT
0 STEP
1 86 80.0 -696 250.0 -1 0 0 0 1 0 0 0 -1 3004.DAT
0 STEP
1 86 70.0 -744 250.0 0 0 1 0 1 0 -1 0 0 3005.DAT
0 STEP
1 86 70.0 -984 280.0 0 0 1 0 1 0 -1 0 0 3010.DAT
0 STEP
1 86 80.0 -384 280.0 0 0 1 0 1 0 -1 0 0 3003.DAT
0 STEP
1 86 70.0 -408 280.0 0 0 1 0 1 0 -1 0 0 3004.DAT
0 STEP
1 86 70.0 -648 300.0 0 0 1 0 1 0 -1 0 0 3010.DAT
0 STEP
1 86 80.0 -696 280.0 0 0 1 0 1 0 -1 0 0 3003.DAT
0 STEP
1 86 70.0 -720 270.0 0 0 1 0 1 0 -1 0 0 3005.DAT
0 STEP
1 86 70.0 -744 280.0 0 0 1 0 1 0 -1 0 0 3004.DAT
0 STEP
1 86 70.0 -960 270.0 0 0 1 0 1 0 -1 0 0 3005.DAT
0 STEP
1 86 70.0 -1032 270.0 0 0 1 0 1 0 -1 0 0 3005.DAT
0 STEP
1 86 80.0 -1056 270.0 -1 0 0 0 1 0 0 0 -1 3004.DAT
0 STEP
1 86 80.0 -360 290.0 -1 0 0 0 1 0 0 0 -1 3004.DAT
0 STEP
1 86 80.0 -432 290.0 -1 0 0 0 1 0 0 0 -1 3004.DAT
0 STEP
1 86 80.0 -600 300.0 0 0 1 0 1 0 -1 0 0 3003.DAT
0 STEP
1 86 80.0 -624 300.0 0 0 1 0 1 0 -1 0 0 3003.DAT
0 STEP
1 86 70.0 -720 300.0 0 0 1 0 1 0 -1 0 0 3004.DAT
0 STEP
1 86 70.0 -936 290.0 0 0 1 0 1 0 -1 0 0 3005.DAT
0 STEP
1 86 70.0 -960 300.0 0 0 1 0 1 0 -1 0 0 3004.DAT
0 STEP
1 86 80.0 -1032 320.0 0 0 1 0 1 0 -1 0 0 3001.DAT
0 STEP
1 86 80.0 -1056 300.0 0 0 1 0 1 0 -1 0 0 3003.DAT
0 STEP
1 86 80.0 -264 310.0 -1 0 0 0 1 0 0 0 -1 3004.DAT
0 STEP
1 86 80.0 -288 310.0 -1 0 0 0 1 0 0 0 -1 3004.DAT
0 STEP
1 86 80.0 -408 310.0 -1 0 0 0 1 0 0 0 -1 3004.DAT
0 STEP
1 86 70.0 -432 310.0 0 0 1 0 1 0 -1 0 0 3005.DAT
0 STEP
1 86 80.0 -456 340.0 0 0 1 0 1 0 -1 0 0 3001.DAT
0 STEP
1 86 70.0 -480 320.0 0 0 1 0 1 0 -1 0 0 3004.DAT
0 STEP
1 86 80.0 -504 310.0 -1 0 0 0 1 0 0 0 -1 3004.DAT
0 STEP
1 86 70.0 -528 310.0 0 0 1 0 1 0 -1 0 0 3005.DAT
0 STEP
1 86 80.0 -552 310.0 -1 0 0 0 1 0 0 0 -1 3004.DAT
0 STEP
1 86 80.0 -576 310.0 -1 0 0 0 1 0 0 0 -1 3004.DAT
0 STEP
1 86 70.0 -696 340.0 0 0 1 0 1 0 -1 0 0 3010.DAT
0 STEP
1 86 80.0 -744 310.0 -1 0 0 0 1 0 0 0 -1 3004.DAT
0 STEP
1 86 70.0 -768 310.0 0 0 1 0 1 0 -1 0 0 3005.DAT
0 STEP
1 86 80.0 -792 310.0 -1 0 0 0 1 0 0 0 -1 3004.DAT
0 STEP
1 86 70.0 -816 320.0 0 0 1 0 1 0 -1 0 0 3004.DAT
0 STEP
1 86 70.0 -840 320.0 0 0 1 0 1 0 -1 0 0 3004.DAT
0 STEP
1 86 70.0 -864 340.0 0 0 1 0 1 0 -1 0 0 3010.DAT
0 STEP
1 86 80.0 -888 310.0 -1 0 0 0 1 0 0 0 -1 3004.DAT
0 STEP
1 86 70.0 -912 310.0 0 0 1 0 1 0 -1 0 0 3005.DAT
0 STEP
1 86 70.0 -936 320.0 0 0 1 0 1 0 -1 0 0 3004.DAT
0 STEP
1 86 80.0 -1008 340.0 0 0 1 0 1 0 -1 0 0 3001.DAT
0 STEP
1 86 70.0 -264 330.0 0 0 1 0 1 0 -1 0 0 3005.DAT
0 STEP
1 86 70.0 -288 360.0 0 0 1 0 1 0 -1 0 0 3010.DAT
0 STEP
1 86 70.0 -432 340.0 0 0 1 0 1 0 -1 0 0 3004.DAT
0 STEP
1 86 70.0 -504 340.0 0 0 1 0 1 0 -1 0 0 3004.DAT
0 STEP
1 86 70.0 -528 340.0 0 0 1 0 1 0 -1 0 0 3004.DAT
0 STEP
1 86 70.0 -552 330.0 0 0 1 0 1 0 -1 0 0 3005.DAT
0 STEP
1 86 70.0 -576 330.0 0 0 1 0 1 0 -1 0 0 3005.DAT
0 STEP
1 86 70.0 -600 330.0 0 0 1 0 1 0 -1 0 0 3005.DAT
0 STEP
1 86 70.0 -624 340.0 0 0 1 0 1 0 -1 0 0 3004.DAT
0 STEP
1 86 80.0 -744 340.0 0 0 1 0 1 0 -1 0 0 3003.DAT
0 STEP
1 86 80.0 -768 340.0 0 0 1 0 1 0 -1 0 0 3003.DAT
0 STEP
1 86 70.0 -792 340.0 0 0 1 0 1 0 -1 0 0 3004.DAT
0 STEP
1 86 70.0 -888 330.0 0 0 1 0 1 0 -1 0 0 3005.DAT
0 STEP
1 86 80.0 -912 330.0 -1 0 0 0 1 0 0 0 -1 3004.DAT
0 STEP
1 86 70.0 -984 330.0 0 0 1 0 1 0 -1 0 0 3005.DAT
0 STEP
1 86 80.0 -1056 330.0 -1 0 0 0 1 0 0 0 -1 3004.DAT
0 STEP
1 86 70.0 -240 380.0 0 0 1 0 1 0 -1 0 0 3010.DAT
0 STEP
1 86 70.0 -264 360.0 0 0 1 0 1 0 -1 0 0 3004.DAT
0 STEP
1 86 70.0 -336 380.0 0 0 1 0 1 0 -1 0 0 3010.DAT
0 STEP
1 86 70.0 -408 380.0 0 0 1 0 1 0 -1 0 0 3010.DAT
0 STEP
1 86 80.0 -480 350.0 -1 0 0 0 1 0 0 0 -1 3004.DAT
0 STEP
1 86 70.0 -840 350.0 0 0 1 0 1 0 -1 0 0 3005.DAT
0 STEP
1 86 80.0 -888 350.0 -1 0 0 0 1 0 0 0 -1 3004.DAT
0 STEP
1 86 80.0 -912 360.0 0 0 1 0 1 0 -1 0 0 3003.DAT
0 STEP
1 86 80.0 -960 350.0 -1 0 0 0 1 0 0 0 -1 3004.DAT
0 STEP
1 86 70.0 -1056 350.0 0 0 1 0 1 0 -1 0 0 3005.DAT
0 STEP
1 86 70.0 -216 380.0 0 0 1 0 1 0 -1 0 0 3004.DAT
0 STEP
1 86 70.0 -312 380.0 0 0 1 0 1 0 -1 0 0 3004.DAT
0 STEP
1 86 80.0 -552 380.0 0 0 1 0 1 0 -1 0 0 3003.DAT
0 STEP
1 86 80.0 -600 380.0 0 0 1 0 1 0 -1 0 0 3003.DAT
0 STEP
1 86 80.0 -624 370.0 -1 0 0 0 1 0 0 0 -1 3004.DAT
0 STEP
1 86 80.0 -648 380.0 0 0 1 0 1 0 -1 0 0 3003.DAT
0 STEP
1 86 70.0 -672 400.0 0 0 1 0 1 0 -1 0 0 3010.DAT
0 STEP
1 86 80.0 -720 380.0 0 0 1 0 1 0 -1 0 0 3003.DAT
0 STEP
1 86 80.0 -792 370.0 -1 0 0 0 1 0 0 0 -1 3004.DAT
0 STEP
1 86 80.0 -960 400.0 0 0 1 0 1 0 -1 0 0 3001.DAT
0 STEP
1 86 80.0 -1032 370.0 -1 0 0 0 1 0 0 0 -1 3004.DAT
0 STEP
1 86 70.0 -1056 380.0 0 0 1 0 1 0 -1 0 0 3004.DAT
0 STEP
1 86 70.0 -1752 370.0 0 0 1 0 1 0 -1 0 0 3005.DAT
0 STEP
1 86 70.0 -1776 380.0 0 0 1 0 1 0 -1 0 0 3004.DAT
0 STEP
1 86 70.0 -1800 370.0 0 0 1 0 1 0 -1 0 0 3005.DAT
0 STEP
1 86 80.0 -1824 380.0 0 0 1 0 1 0 -1 0 0 3003.DAT
0 STEP
1 86 70.0 -1848 370.0 0 0 1 0 1 0 -1 0 0 3005.DAT
0 STEP
1 86 80.0 -1872 370.0 -1 0 0 0 1 0 0 0 -1 3004.DAT
0 STEP
1 86 80.0 -1896 400.0 0 0 1 0 1 0 -1 0 0 3001.DAT
0 STEP
1 86 80.0 -1920 380.0 0 0 1 0 1 0 -1 0 0 3003.DAT
0 STEP
1 86 70.0 -192 390.0 0 0 1 0 1 0 -1 0 0 3005.DAT
0 STEP
1 86 70.0 -264 390.0 0 0 1 0 1 0 -1 0 0 3005.DAT
0 STEP
1 86 80.0 -432 390.0 -1 0 0 0 1 0 0 0 -1 3004.DAT
0 STEP
1 86 70.0 -456 390.0 0 0 1 0 1 0 -1 0 0 3005.DAT
0 STEP
1 86 80.0 -528 390.0 -1 0 0 0 1 0 0 0 -1 3004.DAT
0 STEP
1 86 70.0 -624 400.0 0 0 1 0 1 0 -1 0 0 3004.DAT
0 STEP
1 86 70.0 -696 390.0 0 0 1 0 1 0 -1 0 0 3005.DAT
0 STEP
1 86 70.0 -912 420.0 0 0 1 0 1 0 -1 0 0 3010.DAT
0 STEP
1 86 80.0 -1032 400.0 0 0 1 0 1 0 -1 0 0 3003.DAT
0 STEP
1 86 70.0 -1512 390.0 0 0 1 0 1 0 -1 0 0 3005.DAT
0 STEP
1 86 70.0 -1536 390.0 0 0 1 0 1 0 -1 0 0 3005.DAT
0 STEP
1 86 80.0 -1560 390.0 -1 0 0 0 1 0 0 0 -1 3004.DAT
0 STEP
1 86 80.0 -1632 390.0 -1 0 0 0 1 0 0 0 -1 3004.DAT
0 STEP
1 86 80.0 -1656 400.0 0 0 1 0 1 0 -1 0 0 3003.DAT
0 STEP
1 86 80.0 -1680 400.0 0 0 1 0 1 0 -1 0 0 3003.DAT
0 STEP
1 86 80.0 -1728 400.0 0 0 1 0 1 0 -1 0 0 3003.DAT
0 STEP
1 86 80.0 -1872 420.0 0 0 1 0 1 0 -1 0 0 3001.DAT
0 STEP
1 86 70.0 -2208 400.0 0 0 1 0 1 0 -1 0 0 3004.DAT
0 STEP
1 86 80.0 -2232 400.0 0 0 1 0 1 0 -1 0 0 3003.DAT
0 STEP
1 86 80.0 -2256 390.0 -1 0 0 0 1 0 0 0 -1 3004.DAT
0 STEP
1 86 80.0 -2328 400.0 0 0 1 0 1 0 -1 0 0 3003.DAT
0 STEP
1 86 80.0 -2352 420.0 0 0 1 0 1 0 -1 0 0 3001.DAT
0 STEP
1 86 80.0 -2376 420.0 0 0 1 0 1 0 -1 0 0 3001.DAT
0 STEP
1 86 70.0 -168 420.0 0 0 1 0 1 0 -1 0 0 3004.DAT
0 STEP
1 86 70.0 -192 420.0 0 0 1 0 1 0 -1 0 0 3004.DAT
0 STEP
1 86 70.0 -216 410.0 0 0 1 0 1 0 -1 0 0 3005.DAT
0 STEP
1 86 70.0 -264 420.0 0 0 1 0 1 0 -1 0 0 3004.DAT
0 STEP
1 86 80.0 -432 420.0 0 0 1 0 1 0 -1 0 0 3003.DAT
0 STEP
1 86 70.0 -528 410.0 0 0 1 0 1 0 -1 0 0 3005.DAT
0 STEP
1 86 70.0 -552 420.0 0 0 1 0 1 0 -1 0 0 3004.DAT
0 STEP
1 86 70.0 -600 440.0 0 0 1 0 1 0 -1 0 0 3010.DAT
0 STEP
1 86 70.0 -648 420.0 0 0 1 0 1 0 -1 0 0 3004.DAT
0 STEP
1 86 70.0 -696 420.0 0 0 1 0 1 0 -1 0 0 3004.DAT
0 STEP
1 86 70.0 -720 410.0 0 0 1 0 1 0 -1 0 0 3005.DAT
0 STEP
1 86 70.0 -1128 410.0 0 0 1 0 1 0 -1 0 0 3005.DAT
0 STEP
1 86 80.0 -1176 420.0 0 0 1 0 1 0 -1 0 0 3003.DAT
0 STEP
1 86 70.0 -1392 440.0 0 0 1 0 1 0 -1 0 0 3010.DAT
0 STEP
1 86 80.0 -1416 410.0 -1 0 0 0 1 0 0 0 -1 3004.DAT
0 STEP
1 86 70.0 -1440 420.0 0 0 1 0 1 0 -1 0 0 3004.DAT
0 STEP
1 86 80.0 -1512 410.0 -1 0 0 0 1 0 0 0 -1 3004.DAT
0 STEP
1 86 80.0 -1560 420.0 0 0 1 0 1 0 -1 0 0 3003.DAT
0 STEP
1 86 80.0 -1632 420.0 0 0 1 0 1 0 -1 0 0 3003.DAT
0 STEP
1 86 80.0 -1800 410.0 -1 0 0 0 1 0 0 0 -1 3004.DAT
0 STEP
1 86 80.0 -1824 410.0 -1 0 0 0 1 0 0 0 -1 3004.DAT
0 STEP
1 86 70.0 -1848 410.0 0 0 1 0 1 0 -1 0 0 3005.DAT
0 STEP
1 86 80.0 -1920 410.0 -1 0 0 0 1 0 0 0 -1 3004.DAT
0 STEP
1 86 80.0 -1944 420.0 0 0 1 0 1 0 -1 0 0 3003.DAT
0 STEP
1 86 80.0 -1968 440.0 0 0 1 0 1 0 -1 0 0 3001.DAT
0 STEP
1 86 80.0 -2016 420.0 0 0 1 0 1 0 -1 0 0 3003.DAT
0 STEP
1 86 80.0 -2088 420.0 0 0 1 0 1 0 -1 0 0 3003.DAT
0 STEP
1 86 80.0 -2136 410.0 -1 0 0 0 1 0 0 0 -1 3004.DAT
0 STEP
1 86 80.0 -2160 410.0 -1 0 0 0 1 0 0 0 -1 3004.DAT
0 STEP
1 86 80.0 -2184 440.0 0 0 1 0 1 0 -1 0 0 3001.DAT
0 STEP
1 86 70.0 -2400 410.0 0 0 1 0 1 0 -1 0 0 3005.DAT
0 STEP
1 86 70.0 -2424 420.0 0 0 1 0 1 0 -1 0 0 3004.DAT
0 STEP
1 86 70.0 -2448 410.0 0 0 1 0 1 0 -1 0 0 3005.DAT
0 STEP
1 86 70.0 -2472 410.0 0 0 1 0 1 0 -1 0 0 3005.DAT
0 STEP
1 86 70.0 -2496 420.0 0 0 1 0 1 0 -1 0 0 3004.DAT
0 STEP
1 86 70.0 -2520 410.0 0 0 1 0 1 0 -1 0 0 3005.DAT
0 STEP
1 86 70.0 -2544 420.0 0 0 1 0 1 0 -1 0 0 3004.DAT
0 STEP
1 86 70.0 -2568 420.0 0 0 1 0 1 0 -1 0 0 3004.DAT
0 STEP
1 86 70.0 -144 430.0 0 0 1 0 1 0 -1 0 0 3005.DAT
0 STEP
1 86 80.0 -288 440.0 0 0 1 0 1 0 -1 0 0 3003.DAT
0 STEP
1 86 70.0 -312 430.0 0 0 1 0 1 0 -1 0 0 3005.DAT
0 STEP
1 86 70.0 -336 430.0 0 0 1 0 1 0 -1 0 0 3005.DAT
0 STEP
1 86 80.0 -408 430.0 -1 0 0 0 1 0 0 0 -1 3004.DAT
0 STEP
1 86 70.0 -528 440.0 0 0 1 0 1 0 -1 0 0 3004.DAT
0 STEP
1 86 80.0 -576 430.0 -1 0 0 0 1 0 0 0 -1 3004.DAT
0 STEP
1 86 80.0 -624 430.0 -1 0 0 0 1 0 0 0 -1 3004.DAT
0 STEP
1 86 70.0 -720 460.0 0 0 1 0 1 0 -1 0 0 3010.DAT
0 STEP
1 86 80.0 -744 440.0 0 0 1 0 1 0 -1 0 0 3003.DAT
0 STEP
1 86 80.0 -840 430.0 -1 0 0 0 1 0 0 0 -1 3004.DAT
0 STEP
1 86 80.0 -1080 430.0 -1 0 0 0 1 0 0 0 -1 3004.DAT
0 STEP
1 86 80.0 -1128 430.0 -1 0 0 0 1 0 0 0 -1 3004.DAT
0 STEP
1 86 80.0 -1224 430.0 -1 0 0 0 1 0 0 0 -1 3004.DAT
0 STEP
1 86 80.0 -1248 440.0 0 0 1 0 1 0 -1 0 0 3003.DAT
0 STEP
1 86 80.0 -1272 440.0 0 0 1 0 1 0 -1 0 0 3003.DAT
0 STEP
1 86 80.0 -1320 440.0 0 0 1 0 1 0 -1 0 0 3003.DAT
0 STEP
1 86 80.0 -1416 440.0 0 0 1 0 1 0 -1 0 0 3003.DAT
0 STEP
1 86 70.0 -1656 430.0 0 0 1 0 1 0 -1 0 0 3005.DAT
0 STEP
1 86 70.0 -1680 430.0 0 0 1 0 1 0 -1 0 0 3005.DAT
0 STEP
1 86 70.0 -1752 430.0 0 0 1 0 1 0 -1 0 0 3005.DAT
0 STEP
1 86 70.0 -1824 460.0 0 0 1 0 1 0 -1 0 0 3010.DAT
0 STEP
1 86 80.0 -1848 430.0 -1 0 0 0 1 0 0 0 -1 3004.DAT
0 STEP
1 86 70.0 -1920 430.0 0 0 1 0 1 0 -1 0 0 3005.DAT
0 STEP
1 86 70.0 -1992 430.0 0 0 1 0 1 0 -1 0 0 3005.DAT
0 STEP
1 86 70.0 -2040 430.0 0 0 1 0 1 0 -1 0 0 3005.DAT
0 STEP
1 86 70.0 -2064 430.0 0 0 1 0 1 0 -1 0 0 3005.DAT
0 STEP
1 86 70.0 -2136 430.0 0 0 1 0 1 0 -1 0 0 3005.DAT
0 STEP
1 86 80.0 -2160 440.0 0 0 1 0 1 0 -1 0 0 3003.DAT
0 STEP
1 86 70.0 -2232 430.0 0 0 1 0 1 0 -1 0 0 3005.DAT
0 STEP
1 86 80.0 -2328 430.0 -1 0 0 0 1 0 0 0 -1 3004.DAT
0 STEP
1 86 70.0 -2400 440.0 0 0 1 0 1 0 -1 0 0 3004.DAT
0 STEP
1 86 80.0 -2448 440.0 0 0 1 0 1 0 -1 0 0 3003.DAT
0 STEP
1 86 80.0 -2472 440.0 0 0 1 0 1 0 -1 0 0 3003.DAT
0 STEP
1 86 80.0 -2520 430.0 -1 0 0 0 1 0 0 0 -1 3004.DAT
0 STEP
1 86 80.0 -2592 440.0 0 0 1 0 1 0 -1 0 0 3003.DAT
0 STEP
1 86 80.0 -2616 440.0 0 0 1 0 1 0 -1 0 0 3003.DAT
0 STEP
1 86 70.0 -2712 440.0 0 0 1 0 1 0 -1 0 0 3004.DAT
0 STEP
1 86 70.0 -2736 440.0 0 0 1 0 1 0 -1 0 0 3004.DAT
0 STEP
1 86 70.0 -2760 440.0 0 0 1 0 1 0 -1 0 0 3004.DAT
0 STEP
1 86 70.0 -2784 430.0 0 0 1 0 1 0 -1 0 0 3005.DAT
0 STEP
1 86 70.0 -2808 430.0 0 0 1 0 1 0 -1 0 0 3005.DAT
0 STEP
1 86 70.0 -2832 430.0 0 0 1 0 1 0 -1 0 0 3005.DAT
0 STEP
1 86 70.0 -96 480.0 0 0 1 0 1 0 -1 0 0 3010.DAT
0 STEP
1 86 80.0 -120 460.0 0 0 1 0 1 0 -1 0 0 3003.DAT
0 STEP
1 86 80.0 -144 450.0 -1 0 0 0 1 0 0 0 -1 3004.DAT
0 STEP
1 86 80.0 -168 460.0 0 0 1 0 1 0 -1 0 0 3003.DAT
0 STEP
1 86 80.0 -192 480.0 0 0 1 0 1 0 -1 0 0 3001.DAT
0 STEP
1 86 80.0 -216 480.0 0 0 1 0 1 0 -1 0 0 3001.DAT
0 STEP
1 86 80.0 -240 450.0 -1 0 0 0 1 0 0 0 -1 3004.DAT
0 STEP
1 86 70.0 -312 460.0 0 0 1 0 1 0 -1 0 0 3004.DAT
0 STEP
1 86 70.0 -336 480.0 0 0 1 0 1 0 -1 0 0 3010.DAT
0 STEP
1 86 70.0 -432 460.0 0 0 1 0 1 0 -1 0 0 3004.DAT
0 STEP
1 86 70.0 -552 450.0 0 0 1 0 1 0 -1 0 0 3005.DAT
0 STEP
1 86 70.0 -624 460.0 0 0 1 0 1 0 -1 0 0 3004.DAT
0 STEP
1 86 80.0 -648 450.0 -1 0 0 0 1 0 0 0 -1 3004.DAT
0 STEP
1 86 80.0 -672 450.0 -1 0 0 0 1 0 0 0 -1 3004.DAT
0 STEP
1 86 80.0 -696 460.0 0 0 1 0 1 0 -1 0 0 3003.DAT
0 STEP
1 86 70.0 -840 450.0 0 0 1 0 1 0 -1 0 0 3005.DAT
0 STEP
1 86 70.0 -984 460.0 0 0 1 0 1 0 -1 0 0 3004.DAT
0 STEP
1 86 70.0 -1032 450.0 0 0 1 0 1 0 -1 0 0 3005.DAT
0 STEP
1 86 70.0 -1080 450.0 0 0 1 0 1 0 -1 0 0 3005.DAT
0 STEP
1 86 70.0 -1176 450.0 0 0 1 0 1 0 -1 0 0 3005.DAT
0 STEP
1 86 70.0 -1224 450.0 0 0 1 0 1 0 -1 0 0 3005.DAT
0 STEP
1 86 70.0 -1440 450.0 0 0 1 0 1 0 -1 0 0 3005.DAT
0 STEP
1 86 70.0 -1464 480.0 0 0 1 0 1 0 -1 0 0 3010.DAT
0 STEP
1 86 80.0 -1512 450.0 -1 0 0 0 1 0 0 0 -1 3004.DAT
0 STEP
1 86 80.0 -1536 450.0 -1 0 0 0 1 0 0 0 -1 3004.DAT
0 STEP
1 86 80.0 -1632 450.0 -1 0 0 0 1 0 0 0 -1 3004.DAT
0 STEP
1 86 70.0 -1656 480.0 0 0 1 0 1 0 -1 0 0 3010.DAT
0 STEP
1 86 80.0 -1728 450.0 -1 0 0 0 1 0 0 0 -1 3004.DAT
0 STEP
1 86 80.0 -1752 450.0 -1 0 0 0 1 0 0 0 -1 3004.DAT
0 STEP
1 86 80.0 -1776 450.0 -1 0 0 0 1 0 0 0 -1 3004.DAT
0 STEP
1 86 70.0 -1800 450.0 0 0 1 0 1 0 -1 0 0 3005.DAT
0 STEP
1 86 80.0 -1896 450.0 -1 0 0 0 1 0 0 0 -1 3004.DAT
0 STEP
1 86 70.0 -1920 460.0 0 0 1 0 1 0 -1 0 0 3004.DAT
0 STEP
1 86 80.0 -2040 450.0 -1 0 0 0 1 0 0 0 -1 3004.DAT
0 STEP
1 86 80.0 -2064 480.0 0 0 1 0 1 0 -1 0 0 3001.DAT
0 STEP
1 86 80.0 -2088 450.0 -1 0 0 0 1 0 0 0 -1 3004.DAT
0 STEP
1 86 80.0 -2232 460.0 0 0 1 0 1 0 -1 0 0 3003.DAT
0 STEP
1 86 80.0 -2280 450.0 -1 0 0 0 1 0 0 0 -1 3004.DAT
0 STEP
1 86 70.0 -2328 480.0 0 0 1 0 1 0 -1 0 0 3010.DAT
0 STEP
1 86 80.0 -2496 450.0 -1 0 0 0 1 0 0 0 -1 3004.DAT
0 STEP
1 86 80.0 -2544 460.0 0 0 1 0 1 0 -1 0 0 3003.DAT
0 STEP
1 86 80.0 -2688 450.0 -1 0 0 0 1 0 0 0 -1 3004.DAT
0 STEP
1 86 70.0 -24 480.0 0 0 1 0 1 0 -1 0 0 3004.DAT
0 STEP
1 86 70.0 -48 480.0 0 0 1 0 1 0 -1 0 0 3004.DAT
0 STEP
1 86 70.0 -72 470.0 0 0 1 0 1 0 -1 0 0 3005.DAT
0 STEP
1 86 80.0 -384 470.0 -1 0 0 0 1 0 0 0 -1 3004.DAT
0 STEP
1 86 70.0 -408 480.0 0 0 1 0 1 0 -1 0 0 3004.DAT
0 STEP
1 86 80.0 -504 470.0 -1 0 0 0 1 0 0 0 -1 3004.DAT
0 STEP
1 86 80.0 -672 500.0 0 0 1 0 1 0 -1 0 0 3001.DAT
0 STEP
1 86 80.0 -744 470.0 -1 0 0 0 1 0 0 0 -1 3004.DAT
0 STEP
1 86 70.0 -768 480.0 0 0 1 0 1 0 -1 0 0 3004.DAT
0 STEP
1 86 80.0 -912 470.0 -1 0 0 0 1 0 0 0 -1 3004.DAT
0 STEP
1 86 70.0 -936 480.0 0 0 1 0 1 0 -1 0 0 3004.DAT
0 STEP
1 86 70.0 -1056 470.0 0 0 1 0 1 0 -1 0 0 3005.DAT
0 STEP
1 86 80.0 -1104 480.0 0 0 1 0 1 0 -1 0 0 3003.DAT
0 STEP
1 86 80.0 -1128 480.0 0 0 1 0 1 0 -1 0 0 3003.DAT
0 STEP
1 86 70.0 -1224 480.0 0 0 1 0 1 0 -1 0 0 3004.DAT
0 STEP
1 86 80.0 -1272 470.0 -1 0 0 0 1 0 0 0 -1 3004.DAT
0 STEP
1 86 70.0 -1416 480.0 0 0 1 0 1 0 -1 0 0 3004.DAT
0 STEP
1 86 70.0 -1488 500.0 0 0 1 0 1 0 -1 0 0 3010.DAT
0 STEP
1 86 70.0 -1512 480.0 0 0 1 0 1 0 -1 0 0 3004.DAT
0 STEP
1 86 70.0 -1560 480.0 0 0 1 0 1 0 -1 0 0 3004.DAT
0 STEP
1 86 70.0 -1632 470.0 0 0 1 0 1 0 -1 0 0 3005.DAT
0 STEP
1 86 80.0 -1704 480.0 0 0 1 0 1 0 -1 0 0 3003.DAT
0 STEP
1 86 70.0 -1728 480.0 0 0 1 0 1 0 -1 0 0 3004.DAT
0 STEP
1 86 70.0 -1776 470.0 0 0 1 0 1 0 -1 0 0 3005.DAT
0 STEP
1 86 80.0 -1896 480.0 0 0 1 0 1 0 -1 0 0 3003.DAT
0 STEP
1 86 80.0 -1944 470.0 -1 0 0 0 1 0 0 0 -1 3004.DAT
0 STEP
1 86 70.0 -2088 480.0 0 0 1 0 1 0 -1 0 0 3004.DAT
0 STEP
1 86 70.0 -2112 480.0 0 0 1 0 1 0 -1 0 0 3004.DAT
0 STEP
1 86 70.0 -2136 480.0 0 0 1 0 1 0 -1 0 0 3004.DAT
0 STEP
1 86 70.0 -2208 480.0 0 0 1 0 1 0 -1 0 0 3004.DAT
0 STEP
1 86 80.0 -2256 470.0 -1 0 0 0 1 0 0 0 -1 3004.DAT
0 STEP
1 86 70.0 -2280 480.0 0 0 1 0 1 0 -1 0 0 3004.DAT
0 STEP
1 86 80.0 -2352 470.0 -1 0 0 0 1 0 0 0 -1 3004.DAT
0 STEP
1 86 70.0 -2376 480.0 0 0 1 0 1 0 -1 0 0 3004.DAT
0 STEP
1 86 80.0 -2424 470.0 -1 0 0 0 1 0 0 0 -1 3004.DAT
0 STEP
1 86 70.0 -2472 470.0 0 0 1 0 1 0 -1 0 0 3005.DAT
0 STEP
1 86 80.0 -2592 470.0 -1 0 0 0 1 0 0 0 -1 3004.DAT
0 STEP
1 86 70.0 -2616 470.0 0 0 1 0 1 0 -1 0 0 3005.DAT
0 STEP
1 86 70.0 -2640 470.0 0 0 1 0 1 0 -1 0 0 3005.DAT
0 STEP
1 86 70.0 -2664 470.0 0 0 1 0 1 0 -1 0 0 3005.DAT
0 STEP
1 86 70.0 -2688 470.0 0 0 1 0 1 0 -1 0 0 3005.DAT
0 STEP
1 86 70.0 0 490.0 0 0 1 0 1 0 -1 0 0 3005.DAT
0 STEP
1 86 70.0 -288 500.0 0 0 1 0 1 0 -1 0 0 3004.DAT
0 STEP
1 86 70.0 -312 490.0 0 0 1 0 1 0 -1 0 0 3005.DAT
0 STEP
1 86 80.0 -600 500.0 0 0 1 0 1 0 -1 0 0 3003.DAT
0 STEP
1 86 80.0 -624 540.0 0 0 1 0 1 0 -1 0 0 2456.DAT
0 STEP
1 86 70.0 -648 500.0 0 0 1 0 1 0 -1 0 0 3004.DAT
0 STEP
1 86 80.0 -1056 490.0 -1 0 0 0 1 0 0 0 -1 3004.DAT
0 STEP
1 86 80.0 -1080 490.0 -1 0 0 0 1 0 0 0 -1 3004.DAT
0 STEP
1 86 80.0 -1272 500.0 0 0 1 0 1 0 -1 0 0 3003.DAT
0 STEP
1 86 80.0 -1344 500.0 0 0 1 0 1 0 -1 0 0 3003.DAT
0 STEP
1 86 80.0 -1368 500.0 0 0 1 0 1 0 -1 0 0 3003.DAT
0 STEP
1 86 80.0 -1440 490.0 -1 0 0 0 1 0 0 0 -1 3004.DAT
0 STEP
1 86 70.0 -1584 490.0 0 0 1 0 1 0 -1 0 0 3005.DAT
0 STEP
1 86 80.0 -1632 490.0 -1 0 0 0 1 0 0 0 -1 3004.DAT
0 STEP
1 86 80.0 -1848 500.0 0 0 1 0 1 0 -1 0 0 3003.DAT
0 STEP
1 86 70.0 -1872 490.0 0 0 1 0 1 0 -1 0 0 3005.DAT
0 STEP
1 86 70.0 -1944 490.0 0 0 1 0 1 0 -1 0 0 3005.DAT
0 STEP
1 86 70.0 -2016 490.0 0 0 1 0 1 0 -1 0 0 3005.DAT
0 STEP
1 86 80.0 -2040 490.0 -1 0 0 0 1 0 0 0 -1 3004.DAT
0 STEP
1 86 70.0 -2232 490.0 0 0 1 0 1 0 -1 0 0 3005.DAT
0 STEP
1 86 80.0 -2256 500.0 0 0 1 0 1 0 -1 0 0 3003.DAT
0 STEP
1 86 70.0 -2472 500.0 0 0 1 0 1 0 -1 0 0 3004.DAT
0 STEP
1 86 70.0 -2496 500.0 0 0 1 0 1 0 -1 0 0 3004.DAT
0 STEP
1 86 70.0 -2520 500.0 0 0 1 0 1 0 -1 0 0 3004.DAT
0 STEP
1 86 70.0 -2544 490.0 0 0 1 0 1 0 -1 0 0 3005.DAT
0 STEP
1 86 70.0 -2568 490.0 0 0 1 0 1 0 -1 0 0 3005.DAT
0 STEP
1 86 70.0 -2592 490.0 0 0 1 0 1 0 -1 0 0 3005.DAT
0 STEP
1 86 80.0 -312 510.0 -1 0 0 0 1 0 0 0 -1 3004.DAT
0 STEP
1 86 80.0 -720 510.0 -1 0 0 0 1 0 0 0 -1 3004.DAT
0 STEP
1 86 70.0 -768 510.0 0 0 1 0 1 0 -1 0 0 3005.DAT
0 STEP
1 86 80.0 -1056 520.0 0 0 1 0 1 0 -1 0 0 3003.DAT
0 STEP
1 86 80.0 -1104 510.0 -1 0 0 0 1 0 0 0 -1 3004.DAT
0 STEP
1 86 80.0 -1176 520.0 0 0 1 0 1 0 -1 0 0 3003.DAT
0 STEP
1 86 80.0 -1392 520.0 0 0 1 0 1 0 -1 0 0 3003.DAT
0 STEP
1 86 70.0 -1440 510.0 0 0 1 0 1 0 -1 0 0 3005.DAT
0 STEP
1 86 80.0 -1512 520.0 0 0 1 0 1 0 -1 0 0 3003.DAT
0 STEP
1 86 70.0 -1536 510.0 0 0 1 0 1 0 -1 0 0 3005.DAT
0 STEP
1 86 70.0 -1560 510.0 0 0 1 0 1 0 -1 0 0 3005.DAT
0 STEP
1 86 80.0 -1608 520.0 0 0 1 0 1 0 -1 0 0 3003.DAT
0 STEP
1 86 80.0 -1632 520.0 0 0 1 0 1 0 -1 0 0 3003.DAT
0 STEP
1 86 80.0 -1752 520.0 0 0 1 0 1 0 -1 0 0 3003.DAT
0 STEP
1 86 80.0 -1992 520.0 0 0 1 0 1 0 -1 0 0 3003.DAT
0 STEP
1 86 80.0 -2040 520.0 0 0 1 0 1 0 -1 0 0 3003.DAT
0 STEP
1 86 80.0 -2088 510.0 -1 0 0 0 1 0 0 0 -1 3004.DAT
0 STEP
1 86 80.0 -2112 510.0 -1 0 0 0 1 0 0 0 -1 3004.DAT
0 STEP
1 86 80.0 -2136 520.0 0 0 1 0 1 0 -1 0 0 3003.DAT
0 STEP
1 86 80.0 -2232 520.0 0 0 1 0 1 0 -1 0 0 3003.DAT
0 STEP
1 86 80.0 -2280 520.0 0 0 1 0 1 0 -1 0 0 3003.DAT
0 STEP
1 86 70.0 -288 530.0 0 0 1 0 1 0 -1 0 0 3005.DAT
0 STEP
1 86 70.0 -600 530.0 0 0 1 0 1 0 -1 0 0 3005.DAT
0 STEP
1 86 70.0 -648 530.0 0 0 1 0 1 0 -1 0 0 3005.DAT
0 STEP
1 86 70.0 -744 560.0 0 0 1 0 1 0 -1 0 0 3010.DAT
0 STEP
1 86 80.0 -1128 530.0 -1 0 0 0 1 0 0 0 -1 3004.DAT
0 STEP
1 86 80.0 -1152 530.0 -1 0 0 0 1 0 0 0 -1 3004.DAT
0 STEP
1 86 70.0 -1224 530.0 0 0 1 0 1 0 -1 0 0 3005.DAT
0 STEP
1 86 70.0 -1320 530.0 0 0 1 0 1 0 -1 0 0 3005.DAT
0 STEP
1 86 70.0 -1344 530.0 0 0 1 0 1 0 -1 0 0 3005.DAT
0 STEP
1 86 80.0 -1368 530.0 -1 0 0 0 1 0 0 0 -1 3004.DAT
0 STEP
1 86 80.0 -1464 530.0 -1 0 0 0 1 0 0 0 -1 3004.DAT
0 STEP
1 86 80.0 -1656 530.0 -1 0 0 0 1 0 0 0 -1 3004.DAT
0 STEP
1 86 80.0 -1680 530.0 -1 0 0 0 1 0 0 0 -1 3004.DAT
0 STEP
1 86 80.0 -1728 530.0 -1 0 0 0 1 0 0 0 -1 3004.DAT
0 STEP
1 86 80.0 -1800 530.0 -1 0 0 0 1 0 0 0 -1 3004.DAT
0 STEP
1 86 80.0 -1848 530.0 -1 0 0 0 1 0 0 0 -1 3004.DAT
0 STEP
1 86 80.0 -1872 530.0 -1 0 0 0 1 0 0 0 -1 3004.DAT
0 STEP
1 86 80.0 -1896 530.0 -1 0 0 0 1 0 0 0 -1 3004.DAT
0 STEP
1 86 80.0 -2304 530.0 -1 0 0 0 1 0 0 0 -1 3004.DAT
0 STEP
1 86 70.0 -2424 530.0 0 0 1 0 1 0 -1 0 0 3005.DAT
0 STEP
1 86 70.0 -600 560.0 0 0 1 0 1 0 -1 0 0 3004.DAT
0 STEP
1 86 80.0 -648 570.0 -1 0 0 0 1 0 0 0 -1 3004.DAT
0 STEP
1 86 70.0 -600 590.0 0 0 1 0 1 0 -1 0 0 3005.DAT
0 STEP
1 86 80.0 -648 600.0 0 0 1 0 1 0 -1 0 0 3003.DAT
0 STEP
1 86 70.0 -696 640.0 0 0 1 0 1 0 -1 0 0 3010.DAT
0 STEP
1 86 80.0 -600 630.0 -1 0 0 0 1 0 0 0 -1 3004.DAT
0 STEP
1 86 70.0 -672 660.0 0 0 1 0 1 0 -1 0 0 3010.DAT
0 STEP
1 86 70.0 -600 660.0 0 0 1 0 1 0 -1 0 0 3004.DAT
0 STEP
1 86 80.0 -624 660.0 0 0 1 0 1 0 -1 0 0 3003.DAT
0 STEP
1 86 70.0 -600 690.0 0 0 1 0 1 0 -1 0 0 3005.DAT
0 STEP
1 86 70.0 -624 690.0 0 0 1 0 1 0 -1 0 0 3005.DAT
0 STEP
1 86 70.0 -600 720.0 0 0 1 0 1 0 -1 0 0 3004.DAT
0 STEP
1 86 70.0 -624 760.0 0 0 1 0 1 0 -1 0 0 3010.DAT
0 STEP
1 86 70.0 -672 730.0 0 0 1 0 1 0 -1 0 0 3005.DAT
0 STEP
1 86 70.0 -648 780.0 0 0 1 0 1 0 -1 0 0 3004.DAT
0 STEP
1 86 70.0 -600 790.0 0 0 1 0 1 0 -1 0 0 3005.DAT
0 STEP
1 86 70.0 -600 820.0 0 0 1 0 1 0 -1 0 0 3004.DAT
0 STEP
1 86 70.0 -624 840.0 0 0 1 0 1 0 -1 0 0 3004.DAT
0 STEP
1 86 70.0 -576 850.0 0 0 1 0 1 0 -1 0 0 3005.DAT
0 STEP
1 86 70.0 -624 870.0 0 0 1 0 1 0 -1 0 0 3005.DAT
0 STEP
1 86 100.0 -672 40.0 0 0 1 0 1 0 -1 0 0 3003.DAT
0 STEP
1 86 90.0 -696 30.0 0 0 1 0 1 0 -1 0 0 3005.DAT
0 STEP
1 86 100.0 -696 60.0 0 0 1 0 1 0 -1 0 0 3003.DAT
0 STEP
1 86 90.0 -672 100.0 0 0 1 0 1 0 -1 0 0 3010.DAT
0 STEP
1 86 90.0 -648 100.0 0 0 1 0 1 0 -1 0 0 3004.DAT
0 STEP
1 86 90.0 -696 100.0 0 0 1 0 1 0 -1 0 0 3004.DAT
0 STEP
1 86 90.0 -720 140.0 0 0 1 0 1 0 -1 0 0 3010.DAT
0 STEP
1 86 90.0 -648 130.0 0 0 1 0 1 0 -1 0 0 3005.DAT
0 STEP
1 86 90.0 -696 130.0 0 0 1 0 1 0 -1 0 0 3005.DAT
0 STEP
1 86 90.0 -288 150.0 0 0 1 0 1 0 -1 0 0 3005.DAT
0 STEP
1 86 90.0 -624 200.0 0 0 1 0 1 0 -1 0 0 3009.DAT
0 STEP
1 86 90.0 -648 180.0 0 0 1 0 1 0 -1 0 0 3010.DAT
0 STEP
1 86 90.0 -672 150.0 0 0 1 0 1 0 -1 0 0 3005.DAT
0 STEP
1 86 100.0 -696 150.0 -1 0 0 0 1 0 0 0 -1 3004.DAT
0 STEP
1 86 90.0 -744 220.0 0 0 1 0 1 0 -1 0 0 3008.DAT
0 STEP
1 86 90.0 -1056 180.0 0 0 1 0 1 0 -1 0 0 3010.DAT
0 STEP
1 86 90.0 -1080 150.0 0 0 1 0 1 0 -1 0 0 3005.DAT
0 STEP
1 86 90.0 -288 200.0 0 0 1 0 1 0 -1 0 0 3010.DAT
0 STEP
1 86 90.0 -312 180.0 0 0 1 0 1 0 -1 0 0 3004.DAT
0 STEP
1 86 90.0 -600 170.0 0 0 1 0 1 0 -1 0 0 3005.DAT
0 STEP
1 86 100.0 -672 170.0 -1 0 0 0 1 0 0 0 -1 3004.DAT
0 STEP
1 86 90.0 -768 180.0 0 0 1 0 1 0 -1 0 0 3004.DAT
0 STEP
1 86 90.0 -336 190.0 0 0 1 0 1 0 -1 0 0 3005.DAT
0 STEP
1 86 90.0 -576 240.0 0 0 1 0 1 0 -1 0 0 3009.DAT
0 STEP
1 86 90.0 -600 220.0 0 0 1 0 1 0 -1 0 0 3010.DAT
0 STEP
1 86 100.0 -672 240.0 0 0 1 0 1 0 -1 0 0 2456.DAT
0 STEP
1 86 90.0 -720 190.0 0 0 1 0 1 0 -1 0 0 3005.DAT
0 STEP
1 86 90.0 -792 200.0 0 0 1 0 1 0 -1 0 0 3004.DAT
0 STEP
1 86 90.0 -1032 190.0 0 0 1 0 1 0 -1 0 0 3005.DAT
0 STEP
1 86 90.0 -360 240.0 0 0 1 0 1 0 -1 0 0 3010.DAT
0 STEP
1 86 90.0 -528 260.0 0 0 1 0 1 0 -1 0 0 3009.DAT
0 STEP
1 86 90.0 -552 240.0 0 0 1 0 1 0 -1 0 0 3010.DAT
0 STEP
1 86 100.0 -696 220.0 0 0 1 0 1 0 -1 0 0 3003.DAT
0 STEP
1 86 90.0 -768 210.0 0 0 1 0 1 0 -1 0 0 3005.DAT
0 STEP
1 86 90.0 -816 210.0 0 0 1 0 1 0 -1 0 0 3005.DAT
0 STEP
1 86 90.0 -840 210.0 0 0 1 0 1 0 -1 0 0 3005.DAT
0 STEP
1 86 90.0 -984 220.0 0 0 1 0 1 0 -1 0 0 3004.DAT
0 STEP
1 86 90.0 -1008 210.0 0 0 1 0 1 0 -1 0 0 3005.DAT
0 STEP
1 86 90.0 -336 230.0 0 0 1 0 1 0 -1 0 0 3005.DAT
0 STEP
1 86 90.0 -384 230.0 0 0 1 0 1 0 -1 0 0 3005.DAT
0 STEP
1 86 90.0 -408 260.0 0 0 1 0 1 0 -1 0 0 3010.DAT
0 STEP
1 86 90.0 -432 230.0 0 0 1 0 1 0 -1 0 0 3005.DAT
0 STEP
1 86 90.0 -456 260.0 0 0 1 0 1 0 -1 0 0 3010.DAT
0 STEP
1 86 90.0 -480 240.0 0 0 1 0 1 0 -1 0 0 3004.DAT
0 STEP
1 86 90.0 -504 260.0 0 0 1 0 1 0 -1 0 0 3010.DAT
0 STEP
1 86 90.0 -768 240.0 0 0 1 0 1 0 -1 0 0 3004.DAT
0 STEP
1 86 90.0 -792 230.0 0 0 1 0 1 0 -1 0 0 3005.DAT
0 STEP
1 86 90.0 -816 240.0 0 0 1 0 1 0 -1 0 0 3004.DAT
0 STEP
1 86 90.0 -840 260.0 0 0 1 0 1 0 -1 0 0 3010.DAT
0 STEP
1 86 90.0 -864 260.0 0 0 1 0 1 0 -1 0 0 3010.DAT
0 STEP
1 86 90.0 -888 230.0 0 0 1 0 1 0 -1 0 0 3005.DAT
0 STEP
1 86 90.0 -912 230.0 0 0 1 0 1 0 -1 0 0 3005.DAT
0 STEP
1 86 90.0 -936 240.0 0 0 1 0 1 0 -1 0 0 3004.DAT
0 STEP
1 86 90.0 -960 230.0 0 0 1 0 1 0 -1 0 0 3005.DAT
0 STEP
1 86 90.0 -1032 230.0 0 0 1 0 1 0 -1 0 0 3005.DAT
0 STEP
1 86 90.0 -288 250.0 0 0 1 0 1 0 -1 0 0 3005.DAT
0 STEP
1 86 90.0 -336 300.0 0 0 1 0 1 0 -1 0 0 3009.DAT
0 STEP
1 86 90.0 -432 260.0 0 0 1 0 1 0 -1 0 0 3004.DAT
0 STEP
1 86 90.0 -792 260.0 0 0 1 0 1 0 -1 0 0 3004.DAT
0 STEP
1 86 90.0 -888 260.0 0 0 1 0 1 0 -1 0 0 3004.DAT
0 STEP
1 86 90.0 -912 280.0 0 0 1 0 1 0 -1 0 0 3010.DAT
0 STEP
1 86 90.0 -960 260.0 0 0 1 0 1 0 -1 0 0 3004.DAT
0 STEP
1 86 90.0 -984 250.0 0 0 1 0 1 0 -1 0 0 3005.DAT
0 STEP
1 86 90.0 -1032 260.0 0 0 1 0 1 0 -1 0 0 3004.DAT
0 STEP
1 86 90.0 -288 280.0 0 0 1 0 1 0 -1 0 0 3004.DAT
0 STEP
1 86 90.0 -480 270.0 0 0 1 0 1 0 -1 0 0 3005.DAT
0 STEP
1 86 90.0 -600 270.0 0 0 1 0 1 0 -1 0 0 3005.DAT
0 STEP
1 86 90.0 -624 270.0 0 0 1 0 1 0 -1 0 0 3005.DAT
0 STEP
1 86 90.0 -648 270.0 0 0 1 0 1 0 -1 0 0 3005.DAT
0 STEP
1 86 90.0 -720 300.0 0 0 1 0 1 0 -1 0 0 3010.DAT
0 STEP
1 86 90.0 -768 270.0 0 0 1 0 1 0 -1 0 0 3005.DAT
0 STEP
1 86 90.0 -816 270.0 0 0 1 0 1 0 -1 0 0 3005.DAT
0 STEP
1 86 90.0 -936 270.0 0 0 1 0 1 0 -1 0 0 3005.DAT
0 STEP
1 86 90.0 -984 300.0 0 0 1 0 1 0 -1 0 0 3010.DAT
0 STEP
1 86 90.0 -480 300.0 0 0 1 0 1 0 -1 0 0 3004.DAT
0 STEP
1 86 90.0 -552 290.0 0 0 1 0 1 0 -1 0 0 3005.DAT
0 STEP
1 86 90.0 -648 320.0 0 0 1 0 1 0 -1 0 0 3010.DAT
0 STEP
1 86 90.0 -768 300.0 0 0 1 0 1 0 -1 0 0 3004.DAT
0 STEP
1 86 90.0 -792 290.0 0 0 1 0 1 0 -1 0 0 3005.DAT
0 STEP
1 86 90.0 -816 300.0 0 0 1 0 1 0 -1 0 0 3004.DAT
0 STEP
1 86 90.0 -888 290.0 0 0 1 0 1 0 -1 0 0 3005.DAT
0 STEP
1 86 90.0 -936 300.0 0 0 1 0 1 0 -1 0 0 3004.DAT
0 STEP
1 86 90.0 -960 290.0 0 0 1 0 1 0 -1 0 0 3005.DAT
0 STEP
1 86 90.0 -360 320.0 0 0 1 0 1 0 -1 0 0 3004.DAT
0 STEP
1 86 90.0 -384 310.0 0 0 1 0 1 0 -1 0 0 3005.DAT
0 STEP
1 86 90.0 -432 340.0 0 0 1 0 1 0 -1 0 0 3010.DAT
0 STEP
1 86 100.0 -672 360.0 0 0 1 0 1 0 -1 0 0 2456.DAT
0 STEP
1 86 100.0 -696 310.0 -1 0 0 0 1 0 0 0 -1 3004.DAT
0 STEP
1 86 90.0 -840 310.0 0 0 1 0 1 0 -1 0 0 3005.DAT
0 STEP
1 86 90.0 -864 310.0 0 0 1 0 1 0 -1 0 0 3005.DAT
0 STEP
1 86 90.0 -960 320.0 0 0 1 0 1 0 -1 0 0 3004.DAT
0 STEP
1 86 90.0 -384 340.0 0 0 1 0 1 0 -1 0 0 3004.DAT
0 STEP
1 86 90.0 -408 340.0 0 0 1 0 1 0 -1 0 0 3004.DAT
0 STEP
1 86 90.0 -600 340.0 0 0 1 0 1 0 -1 0 0 3004.DAT
0 STEP
1 86 90.0 -624 330.0 0 0 1 0 1 0 -1 0 0 3005.DAT
0 STEP
1 86 100.0 -696 380.0 0 0 1 0 1 0 -1 0 0 2456.DAT
0 STEP
1 86 90.0 -936 330.0 0 0 1 0 1 0 -1 0 0 3005.DAT
0 STEP
1 86 90.0 -360 350.0 0 0 1 0 1 0 -1 0 0 3005.DAT
0 STEP
1 86 100.0 -576 350.0 -1 0 0 0 1 0 0 0 -1 3004.DAT
0 STEP
1 86 100.0 -624 350.0 -1 0 0 0 1 0 0 0 -1 3004.DAT
0 STEP
1 86 100.0 -720 350.0 -1 0 0 0 1 0 0 0 -1 3004.DAT
0 STEP
1 86 90.0 -792 350.0 0 0 1 0 1 0 -1 0 0 3005.DAT
0 STEP
1 86 90.0 -936 420.0 0 0 1 0 1 0 -1 0 0 3008.DAT
0 STEP
1 86 90.0 -336 370.0 0 0 1 0 1 0 -1 0 0 3005.DAT
0 STEP
1 86 90.0 -360 380.0 0 0 1 0 1 0 -1 0 0 3004.DAT
0 STEP
1 86 90.0 -384 370.0 0 0 1 0 1 0 -1 0 0 3005.DAT
0 STEP
1 86 100.0 -408 370.0 -1 0 0 0 1 0 0 0 -1 3004.DAT
0 STEP
1 86 100.0 -480 370.0 -1 0 0 0 1 0 0 0 -1 3004.DAT
0 STEP
1 86 100.0 -576 380.0 0 0 1 0 1 0 -1 0 0 3003.DAT
0 STEP
1 86 90.0 -744 370.0 0 0 1 0 1 0 -1 0 0 3005.DAT
0 STEP
1 86 100.0 -768 380.0 0 0 1 0 1 0 -1 0 0 3003.DAT
0 STEP
1 86 100.0 -816 370.0 -1 0 0 0 1 0 0 0 -1 3004.DAT
0 STEP
1 86 100.0 -864 380.0 0 0 1 0 1 0 -1 0 0 3003.DAT
0 STEP
1 86 90.0 -984 420.0 0 0 1 0 1 0 -1 0 0 3009.DAT
0 STEP
1 86 90.0 -1776 400.0 0 0 1 0 1 0 -1 0 0 3010.DAT
0 STEP
1 86 90.0 -1800 380.0 0 0 1 0 1 0 -1 0 0 3004.DAT
0 STEP
1 86 90.0 -1848 380.0 0 0 1 0 1 0 -1 0 0 3004.DAT
0 STEP
1 86 90.0 -336 460.0 0 0 1 0 1 0 -1 0 0 3008.DAT
0 STEP
1 86 100.0 -384 390.0 -1 0 0 0 1 0 0 0 -1 3004.DAT
0 STEP
1 86 100.0 -408 400.0 0 0 1 0 1 0 -1 0 0 3003.DAT
0 STEP
1 86 100.0 -456 400.0 0 0 1 0 1 0 -1 0 0 3003.DAT
0 STEP
1 86 90.0 -480 400.0 0 0 1 0 1 0 -1 0 0 3004.DAT
0 STEP
1 86 100.0 -624 390.0 -1 0 0 0 1 0 0 0 -1 3004.DAT
0 STEP
1 86 90.0 -744 400.0 0 0 1 0 1 0 -1 0 0 3004.DAT
0 STEP
1 86 90.0 -792 390.0 0 0 1 0 1 0 -1 0 0 3005.DAT
0 STEP
1 86 100.0 -816 400.0 0 0 1 0 1 0 -1 0 0 3003.DAT
0 STEP
1 86 100.0 -912 390.0 -1 0 0 0 1 0 0 0 -1 3004.DAT
0 STEP
1 86 90.0 -1008 390.0 0 0 1 0 1 0 -1 0 0 3005.DAT
0 STEP
1 86 90.0 -1536 400.0 0 0 1 0 1 0 -1 0 0 3004.DAT
0 STEP
1 86 90.0 -1584 400.0 0 0 1 0 1 0 -1 0 0 3004.DAT
0 STEP
1 86 90.0 -1608 420.0 0 0 1 0 1 0 -1 0 0 3010.DAT
0 STEP
1 86 90.0 -1704 420.0 0 0 1 0 1 0 -1 0 0 3010.DAT
0 STEP
1 86 90.0 -1752 400.0 0 0 1 0 1 0 -1 0 0 3004.DAT
0 STEP
1 86 90.0 -2280 400.0 0 0 1 0 1 0 -1 0 0 3004.DAT
0 STEP
1 86 90.0 -2304 390.0 0 0 1 0 1 0 -1 0 0 3005.DAT
0 STEP
1 86 90.0 -312 420.0 0 0 1 0 1 0 -1 0 0 3004.DAT
0 STEP
1 86 100.0 -360 420.0 0 0 1 0 1 0 -1 0 0 3003.DAT
0 STEP
1 86 100.0 -384 420.0 0 0 1 0 1 0 -1 0 0 3003.DAT
0 STEP
1 86 100.0 -528 420.0 0 0 1 0 1 0 -1 0 0 3003.DAT
0 STEP
1 86 90.0 -552 410.0 0 0 1 0 1 0 -1 0 0 3005.DAT
0 STEP
1 86 90.0 -600 410.0 0 0 1 0 1 0 -1 0 0 3005.DAT
0 STEP
1 86 90.0 -624 410.0 0 0 1 0 1 0 -1 0 0 3005.DAT
0 STEP
1 86 100.0 -648 410.0 -1 0 0 0 1 0 0 0 -1 3004.DAT
0 STEP
1 86 100.0 -720 420.0 0 0 1 0 1 0 -1 0 0 3003.DAT
0 STEP
1 86 100.0 -768 410.0 -1 0 0 0 1 0 0 0 -1 3004.DAT
0 STEP
1 86 90.0 -792 420.0 0 0 1 0 1 0 -1 0 0 3004.DAT
0 STEP
1 86 100.0 -912 420.0 0 0 1 0 1 0 -1 0 0 3003.DAT
0 STEP
1 86 100.0 -1056 420.0 0 0 1 0 1 0 -1 0 0 3003.DAT
0 STEP
1 86 90.0 -1152 420.0 0 0 1 0 1 0 -1 0 0 3004.DAT
0 STEP
1 86 90.0 -1368 420.0 0 0 1 0 1 0 -1 0 0 3004.DAT
0 STEP
1 86 90.0 -1392 420.0 0 0 1 0 1 0 -1 0 0 3004.DAT
0 STEP
1 86 90.0 -1440 410.0 0 0 1 0 1 0 -1 0 0 3005.DAT
0 STEP
1 86 90.0 -1464 410.0 0 0 1 0 1 0 -1 0 0 3005.DAT
0 STEP
1 86 90.0 -1488 410.0 0 0 1 0 1 0 -1 0 0 3005.DAT
0 STEP
1 86 100.0 -1848 410.0 -1 0 0 0 1 0 0 0 -1 3004.DAT
0 STEP
1 86 90.0 -1992 420.0 0 0 1 0 1 0 -1 0 0 3004.DAT
0 STEP
1 86 90.0 -2040 420.0 0 0 1 0 1 0 -1 0 0 3004.DAT
0 STEP
1 86 90.0 -2064 420.0 0 0 1 0 1 0 -1 0 0 3004.DAT
0 STEP
1 86 90.0 -2112 440.0 0 0 1 0 1 0 -1 0 0 3010.DAT
0 STEP
1 86 90.0 -2208 410.0 0 0 1 0 1 0 -1 0 0 3005.DAT
0 STEP
1 86 90.0 -2256 420.0 0 0 1 0 1 0 -1 0 0 3004.DAT
0 STEP
1 86 90.0 -2304 420.0 0 0 1 0 1 0 -1 0 0 3004.DAT
0 STEP
1 86 90.0 -216 430.0 0 0 1 0 1 0 -1 0 0 3005.DAT
0 STEP
1 86 90.0 -240 430.0 0 0 1 0 1 0 -1 0 0 3005.DAT
0 STEP
1 86 90.0 -264 460.0 0 0 1 0 1 0 -1 0 0 3010.DAT
0 STEP
1 86 90.0 -480 430.0 0 0 1 0 1 0 -1 0 0 3005.DAT
0 STEP
1 86 90.0 -552 440.0 0 0 1 0 1 0 -1 0 0 3004.DAT
0 STEP
1 86 100.0 -600 440.0 0 0 1 0 1 0 -1 0 0 3003.DAT
0 STEP
1 86 90.0 -648 430.0 0 0 1 0 1 0 -1 0 0 3005.DAT
0 STEP
1 86 100.0 -672 430.0 -1 0 0 0 1 0 0 0 -1 3004.DAT
0 STEP
1 86 100.0 -768 440.0 0 0 1 0 1 0 -1 0 0 3003.DAT
0 STEP
1 86 90.0 -816 430.0 0 0 1 0 1 0 -1 0 0 3005.DAT
0 STEP
1 86 100.0 -888 430.0 -1 0 0 0 1 0 0 0 -1 3004.DAT
0 STEP
1 86 100.0 -1032 440.0 0 0 1 0 1 0 -1 0 0 3003.DAT
0 STEP
1 86 90.0 -1104 440.0 0 0 1 0 1 0 -1 0 0 3004.DAT
0 STEP
1 86 90.0 -1200 460.0 0 0 1 0 1 0 -1 0 0 3010.DAT
0 STEP
1 86 90.0 -1296 440.0 0 0 1 0 1 0 -1 0 0 3004.DAT
0 STEP
1 86 90.0 -1344 440.0 0 0 1 0 1 0 -1 0 0 3004.DAT
0 STEP
1 86 100.0 -1440 440.0 0 0 1 0 1 0 -1 0 0 3003.DAT
0 STEP
1 86 100.0 -1464 460.0 0 0 1 0 1 0 -1 0 0 3001.DAT
0 STEP
1 86 100.0 -1488 430.0 -1 0 0 0 1 0 0 0 -1 3004.DAT
0 STEP
1 86 90.0 -1536 430.0 0 0 1 0 1 0 -1 0 0 3005.DAT
0 STEP
1 86 100.0 -1584 440.0 0 0 1 0 1 0 -1 0 0 3003.DAT
0 STEP
1 86 100.0 -1656 440.0 0 0 1 0 1 0 -1 0 0 3003.DAT
0 STEP
1 86 100.0 -1680 440.0 0 0 1 0 1 0 -1 0 0 3003.DAT
0 STEP
1 86 100.0 -1752 430.0 -1 0 0 0 1 0 0 0 -1 3004.DAT
0 STEP
1 86 90.0 -1800 430.0 0 0 1 0 1 0 -1 0 0 3005.DAT
0 STEP
1 86 90.0 -1824 480.0 0 0 1 0 1 0 -1 0 0 3009.DAT
0 STEP
1 86 100.0 -1920 440.0 0 0 1 0 1 0 -1 0 0 3003.DAT
0 STEP
1 86 100.0 -2136 460.0 0 0 1 0 1 0 -1 0 0 3001.DAT
0 STEP
1 86 100.0 -2232 430.0 -1 0 0 0 1 0 0 0 -1 3004.DAT
0 STEP
1 86 90.0 -2400 430.0 0 0 1 0 1 0 -1 0 0 3005.DAT
0 STEP
1 86 90.0 -2424 430.0 0 0 1 0 1 0 -1 0 0 3005.DAT
0 STEP
1 86 90.0 -2496 430.0 0 0 1 0 1 0 -1 0 0 3005.DAT
0 STEP
1 86 90.0 -2544 430.0 0 0 1 0 1 0 -1 0 0 3005.DAT
0 STEP
1 86 90.0 -2568 440.0 0 0 1 0 1 0 -1 0 0 3004.DAT
0 STEP
1 86 90.0 -2640 440.0 0 0 1 0 1 0 -1 0 0 3004.DAT
0 STEP
1 86 90.0 -2664 440.0 0 0 1 0 1 0 -1 0 0 3004.DAT
0 STEP
1 86 90.0 -2688 430.0 0 0 1 0 1 0 -1 0 0 3005.DAT
0 STEP
1 86 90.0 -2712 430.0 0 0 1 0 1 0 -1 0 0 3005.DAT
0 STEP
1 86 90.0 -312 450.0 0 0 1 0 1 0 -1 0 0 3005.DAT
0 STEP
1 86 100.0 -384 450.0 -1 0 0 0 1 0 0 0 -1 3004.DAT
0 STEP
1 86 90.0 -408 460.0 0 0 1 0 1 0 -1 0 0 3004.DAT
0 STEP
1 86 100.0 -432 450.0 -1 0 0 0 1 0 0 0 -1 3004.DAT
0 STEP
1 86 100.0 -528 450.0 -1 0 0 0 1 0 0 0 -1 3004.DAT
0 STEP
1 86 90.0 -576 450.0 0 0 1 0 1 0 -1 0 0 3005.DAT
0 STEP
1 86 100.0 -624 450.0 -1 0 0 0 1 0 0 0 -1 3004.DAT
0 STEP
1 86 90.0 -720 460.0 0 0 1 0 1 0 -1 0 0 3004.DAT
0 STEP
1 86 90.0 -840 460.0 0 0 1 0 1 0 -1 0 0 3004.DAT
0 STEP
1 86 90.0 -888 460.0 0 0 1 0 1 0 -1 0 0 3004.DAT
0 STEP
1 86 100.0 -912 450.0 -1 0 0 0 1 0 0 0 -1 3004.DAT
0 STEP
1 86 90.0 -1056 460.0 0 0 1 0 1 0 -1 0 0 3004.DAT
0 STEP
1 86 90.0 -1080 460.0 0 0 1 0 1 0 -1 0 0 3004.DAT
0 STEP
1 86 90.0 -1128 450.0 0 0 1 0 1 0 -1 0 0 3005.DAT
0 STEP
1 86 100.0 -1152 450.0 -1 0 0 0 1 0 0 0 -1 3004.DAT
0 STEP
1 86 90.0 -1176 460.0 0 0 1 0 1 0 -1 0 0 3004.DAT
0 STEP
1 86 90.0 -1224 480.0 0 0 1 0 1 0 -1 0 0 3010.DAT
0 STEP
1 86 100.0 -1392 460.0 0 0 1 0 1 0 -1 0 0 3003.DAT
0 STEP
1 86 100.0 -1488 460.0 0 0 1 0 1 0 -1 0 0 3003.DAT
0 STEP
1 86 90.0 -1800 460.0 0 0 1 0 1 0 -1 0 0 3004.DAT
0 STEP
1 86 100.0 -2256 450.0 -1 0 0 0 1 0 0 0 -1 3004.DAT
0 STEP
1 86 100.0 -2328 460.0 0 0 1 0 1 0 -1 0 0 3003.DAT
0 STEP
1 86 90.0 -2400 480.0 0 0 1 0 1 0 -1 0 0 3010.DAT
0 STEP
1 86 90.0 -2520 460.0 0 0 1 0 1 0 -1 0 0 3004.DAT
0 STEP
1 86 90.0 -144 480.0 0 0 1 0 1 0 -1 0 0 3004.DAT
0 STEP
1 86 90.0 -240 470.0 0 0 1 0 1 0 -1 0 0 3005.DAT
0 STEP
1 86 90.0 -288 500.0 0 0 1 0 1 0 -1 0 0 3010.DAT
0 STEP
1 86 90.0 -312 480.0 0 0 1 0 1 0 -1 0 0 3004.DAT
0 STEP
1 86 90.0 -360 470.0 0 0 1 0 1 0 -1 0 0 3005.DAT
0 STEP
1 86 90.0 -432 480.0 0 0 1 0 1 0 -1 0 0 3004.DAT
0 STEP
1 86 90.0 -600 470.0 0 0 1 0 1 0 -1 0 0 3005.DAT
0 STEP
1 86 90.0 -624 470.0 0 0 1 0 1 0 -1 0 0 3005.DAT
0 STEP
1 86 90.0 -648 480.0 0 0 1 0 1 0 -1 0 0 3004.DAT
0 STEP
1 86 100.0 -1152 480.0 0 0 1 0 1 0 -1 0 0 3003.DAT
0 STEP
1 86 90.0 -1248 480.0 0 0 1 0 1 0 -1 0 0 3004.DAT
0 STEP
1 86 90.0 -1296 470.0 0 0 1 0 1 0 -1 0 0 3005.DAT
0 STEP
1 86 90.0 -1320 480.0 0 0 1 0 1 0 -1 0 0 3004.DAT
0 STEP
1 86 90.0 -1344 470.0 0 0 1 0 1 0 -1 0 0 3005.DAT
0 STEP
1 86 90.0 -1368 470.0 0 0 1 0 1 0 -1 0 0 3005.DAT
0 STEP
1 86 90.0 -1416 500.0 0 0 1 0 1 0 -1 0 0 3010.DAT
0 STEP
1 86 100.0 -1512 480.0 0 0 1 0 1 0 -1 0 0 3003.DAT
0 STEP
1 86 90.0 -1536 500.0 0 0 1 0 1 0 -1 0 0 3010.DAT
0 STEP
1 86 90.0 -1560 500.0 0 0 1 0 1 0 -1 0 0 3010.DAT
0 STEP
1 86 90.0 -1584 470.0 0 0 1 0 1 0 -1 0 0 3005.DAT
0 STEP
1 86 100.0 -1632 470.0 -1 0 0 0 1 0 0 0 -1 3004.DAT
0 STEP
1 86 100.0 -1656 470.0 -1 0 0 0 1 0 0 0 -1 3004.DAT
0 STEP
1 86 100.0 -1680 470.0 -1 0 0 0 1 0 0 0 -1 3004.DAT
0 STEP
1 86 90.0 -1728 470.0 0 0 1 0 1 0 -1 0 0 3005.DAT
0 STEP
1 86 90.0 -1752 480.0 0 0 1 0 1 0 -1 0 0 3004.DAT
0 STEP
1 86 100.0 -1776 480.0 0 0 1 0 1 0 -1 0 0 3003.DAT
0 STEP
1 86 90.0 -1872 470.0 0 0 1 0 1 0 -1 0 0 3005.DAT
0 STEP
1 86 90.0 -1920 500.0 0 0 1 0 1 0 -1 0 0 3010.DAT
0 STEP
1 86 100.0 -2088 480.0 0 0 1 0 1 0 -1 0 0 3003.DAT
0 STEP
1 86 90.0 -2160 470.0 0 0 1 0 1 0 -1 0 0 3005.DAT
0 STEP
1 86 90.0 -2208 470.0 0 0 1 0 1 0 -1 0 0 3005.DAT
0 STEP
1 86 100.0 -2280 480.0 0 0 1 0 1 0 -1 0 0 3003.DAT
0 STEP
1 86 90.0 -2304 480.0 0 0 1 0 1 0 -1 0 0 3004.DAT
0 STEP
1 86 90.0 -2376 500.0 0 0 1 0 1 0 -1 0 0 3010.DAT
0 STEP
1 86 90.0 -2448 480.0 0 0 1 0 1 0 -1 0 0 3004.DAT
0 STEP
1 86 90.0 -2472 480.0 0 0 1 0 1 0 -1 0 0 3004.DAT
0 STEP
1 86 90.0 -2496 480.0 0 0 1 0 1 0 -1 0 0 3004.DAT
0 STEP
1 86 90.0 -2568 470.0 0 0 1 0 1 0 -1 0 0 3005.DAT
0 STEP
1 86 90.0 -120 490.0 0 0 1 0 1 0 -1 0 0 3005.DAT
0 STEP
1 86 90.0 -168 500.0 0 0 1 0 1 0 -1 0 0 3004.DAT
0 STEP
1 86 90.0 -240 500.0 0 0 1 0 1 0 -1 0 0 3004.DAT
0 STEP
1 86 90.0 -384 490.0 0 0 1 0 1 0 -1 0 0 3005.DAT
0 STEP
1 86 90.0 -408 490.0 0 0 1 0 1 0 -1 0 0 3005.DAT
0 STEP
1 86 90.0 -696 490.0 0 0 1 0 1 0 -1 0 0 3005.DAT
0 STEP
1 86 90.0 -720 490.0 0 0 1 0 1 0 -1 0 0 3005.DAT
0 STEP
1 86 90.0 -1008 490.0 0 0 1 0 1 0 -1 0 0 3005.DAT
0 STEP
1 86 90.0 -1032 490.0 0 0 1 0 1 0 -1 0 0 3005.DAT
0 STEP
1 86 90.0 -1176 490.0 0 0 1 0 1 0 -1 0 0 3005.DAT
0 STEP
1 86 90.0 -1296 500.0 0 0 1 0 1 0 -1 0 0 3004.DAT
0 STEP
1 86 100.0 -1488 490.0 -1 0 0 0 1 0 0 0 -1 3004.DAT
0 STEP
1 86 90.0 -1584 500.0 0 0 1 0 1 0 -1 0 0 3004.DAT
0 STEP
1 86 90.0 -1656 500.0 0 0 1 0 1 0 -1 0 0 3004.DAT
0 STEP
1 86 90.0 -1680 500.0 0 0 1 0 1 0 -1 0 0 3004.DAT
0 STEP
1 86 90.0 -1728 500.0 0 0 1 0 1 0 -1 0 0 3004.DAT
0 STEP
1 86 100.0 -1800 490.0 -1 0 0 0 1 0 0 0 -1 3004.DAT
0 STEP
1 86 90.0 -1872 500.0 0 0 1 0 1 0 -1 0 0 3004.DAT
0 STEP
1 86 100.0 -1944 490.0 -1 0 0 0 1 0 0 0 -1 3004.DAT
0 STEP
1 86 90.0 -1968 500.0 0 0 1 0 1 0 -1 0 0 3004.DAT
0 STEP
1 86 100.0 -2016 490.0 -1 0 0 0 1 0 0 0 -1 3004.DAT
0 STEP
1 86 90.0 -2112 490.0 0 0 1 0 1 0 -1 0 0 3005.DAT
0 STEP
1 86 100.0 -2160 490.0 -1 0 0 0 1 0 0 0 -1 3004.DAT
0 STEP
1 86 90.0 -2208 500.0 0 0 1 0 1 0 -1 0 0 3004.DAT
0 STEP
1 86 100.0 -2232 490.0 -1 0 0 0 1 0 0 0 -1 3004.DAT
0 STEP
1 86 90.0 -2328 490.0 0 0 1 0 1 0 -1 0 0 3005.DAT
0 STEP
1 86 90.0 -2352 500.0 0 0 1 0 1 0 -1 0 0 3004.DAT
0 STEP
1 86 90.0 -2424 490.0 0 0 1 0 1 0 -1 0 0 3005.DAT
0 STEP
1 86 90.0 -144 510.0 0 0 1 0 1 0 -1 0 0 3005.DAT
0 STEP
1 86 90.0 -264 510.0 0 0 1 0 1 0 -1 0 0 3005.DAT
0 STEP
1 86 90.0 -648 510.0 0 0 1 0 1 0 -1 0 0 3005.DAT
0 STEP
1 86 90.0 -696 520.0 0 0 1 0 1 0 -1 0 0 3004.DAT
0 STEP
1 86 90.0 -984 510.0 0 0 1 0 1 0 -1 0 0 3005.DAT
0 STEP
1 86 90.0 -1032 520.0 0 0 1 0 1 0 -1 0 0 3004.DAT
0 STEP
1 86 90.0 -1080 510.0 0 0 1 0 1 0 -1 0 0 3005.DAT
0 STEP
1 86 90.0 -1128 510.0 0 0 1 0 1 0 -1 0 0 3005.DAT
0 STEP
1 86 90.0 -1152 510.0 0 0 1 0 1 0 -1 0 0 3005.DAT
0 STEP
1 86 90.0 -1200 510.0 0 0 1 0 1 0 -1 0 0 3005.DAT
0 STEP
1 86 90.0 -1248 510.0 0 0 1 0 1 0 -1 0 0 3005.DAT
0 STEP
1 86 90.0 -1320 510.0 0 0 1 0 1 0 -1 0 0 3005.DAT
0 STEP
1 86 90.0 -1440 520.0 0 0 1 0 1 0 -1 0 0 3004.DAT
0 STEP
1 86 90.0 -1464 510.0 0 0 1 0 1 0 -1 0 0 3005.DAT
0 STEP
1 86 90.0 -1488 520.0 0 0 1 0 1 0 -1 0 0 3004.DAT
0 STEP
1 86 90.0 -1704 520.0 0 0 1 0 1 0 -1 0 0 3004.DAT
0 STEP
1 86 90.0 -1776 520.0 0 0 1 0 1 0 -1 0 0 3004.DAT
0 STEP
1 86 90.0 -1800 510.0 0 0 1 0 1 0 -1 0 0 3005.DAT
0 STEP
1 86 90.0 -1944 520.0 0 0 1 0 1 0 -1 0 0 3004.DAT
0 STEP
1 86 90.0 -2016 520.0 0 0 1 0 1 0 -1 0 0 3004.DAT
0 STEP
1 86 90.0 -2160 520.0 0 0 1 0 1 0 -1 0 0 3004.DAT
0 STEP
1 86 90.0 -2184 520.0 0 0 1 0 1 0 -1 0 0 3004.DAT
0 STEP
1 86 90.0 -2304 510.0 0 0 1 0 1 0 -1 0 0 3005.DAT
0 STEP
1 86 90.0 -2328 520.0 0 0 1 0 1 0 -1 0 0 3004.DAT
0 STEP
1 86 90.0 -600 560.0 0 0 1 0 1 0 -1 0 0 3010.DAT
0 STEP
1 86 90.0 -648 540.0 0 0 1 0 1 0 -1 0 0 3004.DAT
0 STEP
1 86 90.0 -1584 530.0 0 0 1 0 1 0 -1 0 0 3005.DAT
0 STEP
1 86 90.0 -1968 530.0 0 0 1 0 1 0 -1 0 0 3005.DAT
0 STEP
1 86 90.0 -2064 530.0 0 0 1 0 1 0 -1 0 0 3005.DAT
0 STEP
1 86 90.0 -2088 530.0 0 0 1 0 1 0 -1 0 0 3005.DAT
0 STEP
1 86 90.0 -2112 530.0 0 0 1 0 1 0 -1 0 0 3005.DAT
0 STEP
1 86 90.0 -2208 530.0 0 0 1 0 1 0 -1 0 0 3005.DAT
0 STEP
1 86 90.0 -2256 530.0 0 0 1 0 1 0 -1 0 0 3005.DAT
0 STEP
1 86 90.0 -2352 530.0 0 0 1 0 1 0 -1 0 0 3005.DAT
0 STEP
1 86 90.0 -672 560.0 0 0 1 0 1 0 -1 0 0 3004.DAT
0 STEP
1 86 90.0 -600 700.0 0 0 1 0 1 0 -1 0 0 3009.DAT
0 STEP
1 86 110.0 -672 10.0 0 0 1 0 1 0 -1 0 0 3005.DAT
0 STEP
1 86 110.0 -672 80.0 0 0 1 0 1 0 -1 0 0 3004.DAT
0 STEP
1 86 110.0 -696 90.0 0 0 1 0 1 0 -1 0 0 3005.DAT
0 STEP
1 86 110.0 -672 110.0 0 0 1 0 1 0 -1 0 0 3005.DAT
0 STEP
1 86 110.0 -696 120.0 0 0 1 0 1 0 -1 0 0 3004.DAT
0 STEP
1 86 110.0 -672 140.0 0 0 1 0 1 0 -1 0 0 3004.DAT
0 STEP
1 86 110.0 -696 180.0 0 0 1 0 1 0 -1 0 0 3004.DAT
0 STEP
1 86 110.0 -696 260.0 0 0 1 0 1 0 -1 0 0 3004.DAT
0 STEP
1 86 110.0 -696 290.0 0 0 1 0 1 0 -1 0 0 3005.DAT
0 STEP
1 86 110.0 -384 340.0 0 0 1 0 1 0 -1 0 0 3010.DAT
0 STEP
1 86 110.0 -984 320.0 0 0 1 0 1 0 -1 0 0 3004.DAT
0 STEP
1 86 110.0 -408 350.0 0 0 1 0 1 0 -1 0 0 3005.DAT
0 STEP
1 86 110.0 -600 380.0 0 0 1 0 1 0 -1 0 0 3010.DAT
0 STEP
1 86 110.0 -648 350.0 0 0 1 0 1 0 -1 0 0 3005.DAT
0 STEP
1 86 110.0 -744 350.0 0 0 1 0 1 0 -1 0 0 3005.DAT
0 STEP
1 86 110.0 -768 350.0 0 0 1 0 1 0 -1 0 0 3005.DAT
0 STEP
1 86 110.0 -792 400.0 0 0 1 0 1 0 -1 0 0 3009.DAT
0 STEP
1 86 110.0 -960 400.0 0 0 1 0 1 0 -1 0 0 3009.DAT
0 STEP
1 86 110.0 -456 370.0 0 0 1 0 1 0 -1 0 0 3005.DAT
0 STEP
1 86 110.0 -552 370.0 0 0 1 0 1 0 -1 0 0 3005.DAT
0 STEP
1 86 110.0 -624 370.0 0 0 1 0 1 0 -1 0 0 3005.DAT
0 STEP
1 86 110.0 -648 380.0 0 0 1 0 1 0 -1 0 0 3004.DAT
0 STEP
1 86 110.0 -720 380.0 0 0 1 0 1 0 -1 0 0 3004.DAT
0 STEP
1 86 110.0 -744 380.0 0 0 1 0 1 0 -1 0 0 3004.DAT
0 STEP
1 86 110.0 -912 370.0 0 0 1 0 1 0 -1 0 0 3005.DAT
0 STEP
1 86 110.0 -984 370.0 0 0 1 0 1 0 -1 0 0 3005.DAT
0 STEP
1 86 110.0 -432 390.0 0 0 1 0 1 0 -1 0 0 3005.DAT
0 STEP
1 86 110.0 -480 390.0 0 0 1 0 1 0 -1 0 0 3005.DAT
0 STEP
1 86 110.0 -528 390.0 0 0 1 0 1 0 -1 0 0 3005.DAT
0 STEP
1 86 110.0 -552 420.0 0 0 1 0 1 0 -1 0 0 3010.DAT
0 STEP
1 86 110.0 -936 420.0 0 0 1 0 1 0 -1 0 0 3010.DAT
0 STEP
1 86 110.0 -984 420.0 0 0 1 0 1 0 -1 0 0 3010.DAT
0 STEP
1 86 110.0 -312 410.0 0 0 1 0 1 0 -1 0 0 3005.DAT
0 STEP
1 86 110.0 -336 410.0 0 0 1 0 1 0 -1 0 0 3005.DAT
0 STEP
1 86 110.0 -432 420.0 0 0 1 0 1 0 -1 0 0 3004.DAT
0 STEP
1 86 110.0 -480 420.0 0 0 1 0 1 0 -1 0 0 3004.DAT
0 STEP
1 86 110.0 -624 420.0 0 0 1 0 1 0 -1 0 0 3004.DAT
0 STEP
1 86 110.0 -744 410.0 0 0 1 0 1 0 -1 0 0 3005.DAT
0 STEP
1 86 110.0 -1032 410.0 0 0 1 0 1 0 -1 0 0 3005.DAT
0 STEP
1 86 110.0 -1728 440.0 0 0 1 0 1 0 -1 0 0 3010.DAT
0 STEP
1 86 110.0 -1752 410.0 0 0 1 0 1 0 -1 0 0 3005.DAT
0 STEP
1 86 110.0 -1776 420.0 0 0 1 0 1 0 -1 0 0 3004.DAT
0 STEP
1 86 110.0 -1800 440.0 0 0 1 0 1 0 -1 0 0 3010.DAT
0 STEP
1 86 110.0 -1824 440.0 0 0 1 0 1 0 -1 0 0 3010.DAT
0 STEP
1 86 110.0 -1872 410.0 0 0 1 0 1 0 -1 0 0 3005.DAT
0 STEP
1 86 110.0 -1896 440.0 0 0 1 0 1 0 -1 0 0 3010.DAT
0 STEP
1 86 110.0 -1920 410.0 0 0 1 0 1 0 -1 0 0 3005.DAT
0 STEP
1 86 110.0 -1944 420.0 0 0 1 0 1 0 -1 0 0 3004.DAT
0 STEP
1 86 110.0 -2280 410.0 0 0 1 0 1 0 -1 0 0 3005.DAT
0 STEP
1 86 110.0 -2304 410.0 0 0 1 0 1 0 -1 0 0 3005.DAT
0 STEP
1 86 110.0 -2328 420.0 0 0 1 0 1 0 -1 0 0 3004.DAT
0 STEP
1 86 110.0 -2352 440.0 0 0 1 0 1 0 -1 0 0 3010.DAT
0 STEP
1 86 110.0 -2376 440.0 0 0 1 0 1 0 -1 0 0 3010.DAT
0 STEP
1 86 110.0 -288 430.0 0 0 1 0 1 0 -1 0 0 3005.DAT
0 STEP
1 86 110.0 -312 440.0 0 0 1 0 1 0 -1 0 0 3004.DAT
0 STEP
1 86 110.0 -336 440.0 0 0 1 0 1 0 -1 0 0 3004.DAT
0 STEP
1 86 110.0 -408 440.0 0 0 1 0 1 0 -1 0 0 3004.DAT
0 STEP
1 86 110.0 -576 440.0 0 0 1 0 1 0 -1 0 0 3004.DAT
0 STEP
1 86 110.0 -648 440.0 0 0 1 0 1 0 -1 0 0 3004.DAT
0 STEP
1 86 110.0 -744 440.0 0 0 1 0 1 0 -1 0 0 3004.DAT
0 STEP
1 86 110.0 -816 440.0 0 0 1 0 1 0 -1 0 0 3004.DAT
0 STEP
1 86 110.0 -840 440.0 0 0 1 0 1 0 -1 0 0 3004.DAT
0 STEP
1 86 110.0 -1536 460.0 0 0 1 0 1 0 -1 0 0 3010.DAT
0 STEP
1 86 110.0 -1560 430.0 0 0 1 0 1 0 -1 0 0 3005.DAT
0 STEP
1 86 110.0 -1608 440.0 0 0 1 0 1 0 -1 0 0 3004.DAT
0 STEP
1 86 110.0 -1632 440.0 0 0 1 0 1 0 -1 0 0 3004.DAT
0 STEP
1 86 110.0 -1704 430.0 0 0 1 0 1 0 -1 0 0 3005.DAT
0 STEP
1 86 110.0 -1848 430.0 0 0 1 0 1 0 -1 0 0 3005.DAT
0 STEP
1 86 110.0 -1872 460.0 0 0 1 0 1 0 -1 0 0 3010.DAT
0 STEP
1 86 110.0 -1968 460.0 0 0 1 0 1 0 -1 0 0 3010.DAT
0 STEP
1 86 110.0 -1992 430.0 0 0 1 0 1 0 -1 0 0 3005.DAT
0 STEP
1 86 110.0 -2016 430.0 0 0 1 0 1 0 -1 0 0 3005.DAT
0 STEP
1 86 110.0 -2040 440.0 0 0 1 0 1 0 -1 0 0 3004.DAT
0 STEP
1 86 110.0 -2064 460.0 0 0 1 0 1 0 -1 0 0 3010.DAT
0 STEP
1 86 110.0 -2088 440.0 0 0 1 0 1 0 -1 0 0 3004.DAT
0 STEP
1 86 110.0 -2112 460.0 0 0 1 0 1 0 -1 0 0 3010.DAT
0 STEP
1 86 110.0 -2160 430.0 0 0 1 0 1 0 -1 0 0 3005.DAT
0 STEP
1 86 110.0 -2184 430.0 0 0 1 0 1 0 -1 0 0 3005.DAT
0 STEP
1 86 110.0 -2208 460.0 0 0 1 0 1 0 -1 0 0 3010.DAT
0 STEP
1 86 110.0 -2256 430.0 0 0 1 0 1 0 -1 0 0 3005.DAT
0 STEP
1 86 110.0 -2280 440.0 0 0 1 0 1 0 -1 0 0 3004.DAT
0 STEP
1 86 110.0 -2304 460.0 0 0 1 0 1 0 -1 0 0 3010.DAT
0 STEP
1 86 110.0 -360 450.0 0 0 1 0 1 0 -1 0 0 3005.DAT
0 STEP
1 86 110.0 -480 450.0 0 0 1 0 1 0 -1 0 0 3005.DAT
0 STEP
1 86 110.0 -672 450.0 0 0 1 0 1 0 -1 0 0 3005.DAT
0 STEP
1 86 110.0 -696 450.0 0 0 1 0 1 0 -1 0 0 3005.DAT
0 STEP
1 86 110.0 -720 450.0 0 0 1 0 1 0 -1 0 0 3005.DAT
0 STEP
1 86 110.0 -864 450.0 0 0 1 0 1 0 -1 0 0 3005.DAT
0 STEP
1 86 110.0 -888 450.0 0 0 1 0 1 0 -1 0 0 3005.DAT
0 STEP
1 86 110.0 -1008 450.0 0 0 1 0 1 0 -1 0 0 3005.DAT
0 STEP
1 86 110.0 -1056 450.0 0 0 1 0 1 0 -1 0 0 3005.DAT
0 STEP
1 86 110.0 -1368 460.0 0 0 1 0 1 0 -1 0 0 3004.DAT
0 STEP
1 86 110.0 -1416 460.0 0 0 1 0 1 0 -1 0 0 3004.DAT
0 STEP
1 86 110.0 -1512 450.0 0 0 1 0 1 0 -1 0 0 3005.DAT
0 STEP
1 86 110.0 -1560 460.0 0 0 1 0 1 0 -1 0 0 3004.DAT
0 STEP
1 86 110.0 -1704 460.0 0 0 1 0 1 0 -1 0 0 3004.DAT
0 STEP
1 86 110.0 -1752 460.0 0 0 1 0 1 0 -1 0 0 3004.DAT
0 STEP
1 86 110.0 -1776 450.0 0 0 1 0 1 0 -1 0 0 3005.DAT
0 STEP
1 86 110.0 -2016 460.0 0 0 1 0 1 0 -1 0 0 3004.DAT
0 STEP
1 86 110.0 -2160 460.0 0 0 1 0 1 0 -1 0 0 3004.DAT
0 STEP
1 86 110.0 -2184 460.0 0 0 1 0 1 0 -1 0 0 3004.DAT
0 STEP
1 86 110.0 -2232 460.0 0 0 1 0 1 0 -1 0 0 3004.DAT
0 STEP
1 86 110.0 -1584 480.0 0 0 1 0 1 0 -1 0 0 3004.DAT
0 STEP
1 86 110.0 -1848 480.0 0 0 1 0 1 0 -1 0 0 3004.DAT
0 STEP
1 86 110.0 -1920 480.0 0 0 1 0 1 0 -1 0 0 3004.DAT
0 STEP
1 86 110.0 -1944 470.0 0 0 1 0 1 0 -1 0 0 3005.DAT
0 STEP
1 86 110.0 -2256 480.0 0 0 1 0 1 0 -1 0 0 3004.DAT
0 STEP
1 86 110.0 -2400 470.0 0 0 1 0 1 0 -1 0 0 3005.DAT
0 STEP
1 86 110.0 -1368 490.0 0 0 1 0 1 0 -1 0 0 3005.DAT
0 STEP
1 86 110.0 -1416 490.0 0 0 1 0 1 0 -1 0 0 3005.DAT
0 STEP
1 86 110.0 -1440 490.0 0 0 1 0 1 0 -1 0 0 3005.DAT
0 STEP
1 86 110.0 -1560 490.0 0 0 1 0 1 0 -1 0 0 3005.DAT
0 STEP
1 86 110.0 -1632 490.0 0 0 1 0 1 0 -1 0 0 3005.DAT
0 STEP
1 86 110.0 -1656 490.0 0 0 1 0 1 0 -1 0 0 3005.DAT
0 STEP
1 86 110.0 -1680 490.0 0 0 1 0 1 0 -1 0 0 3005.DAT
0 STEP
1 86 110.0 -1704 490.0 0 0 1 0 1 0 -1 0 0 3005.DAT
0 STEP
1 86 110.0 -1728 490.0 0 0 1 0 1 0 -1 0 0 3005.DAT
0 STEP
1 86 110.0 -1752 490.0 0 0 1 0 1 0 -1 0 0 3005.DAT
0 STEP
1 86 110.0 -1824 490.0 0 0 1 0 1 0 -1 0 0 3005.DAT
0 STEP
1 86 110.0 -1896 490.0 0 0 1 0 1 0 -1 0 0 3005.DAT
0 STEP
1 86 110.0 -2040 490.0 0 0 1 0 1 0 -1 0 0 3005.DAT
0 STEP
