1 86 110.0 -24 30.0 0 0 1 0 1 0 -1 0 0 3005.DAT
0 STEP
1 86 70.0 -24 50.0 0 0 1 0 1 0 -1 0 0 3005.DAT
0 STEP
1 86 110.0 -48 50.0 0 0 1 0 1 0 -1 0 0 3005.DAT
0 STEP
1 86 110.0 -216 30.0 0 0 1 0 1 0 -1 0 0 3005.DAT
0 STEP
1 86 30.0 -336 10.0 0 0 1 0 1 0 -1 0 0 3005.DAT
0 STEP
1 86 150.0 -336 30.0 0 0 1 0 1 0 -1 0 0 3005.DAT
0 STEP
1 86 10.0 -336 50.0 0 0 1 0 1 0 -1 0 0 3005.DAT
0 STEP
1 86 50.0 -336 50.0 0 0 1 0 1 0 -1 0 0 3005.DAT
0 STEP
1 86 150.0 -360 30.0 0 0 1 0 1 0 -1 0 0 3005.DAT
0 STEP
1 86 50.0 -360 50.0 0 0 1 0 1 0 -1 0 0 3005.DAT
0 STEP
1 86 50.0 -384 10.0 0 0 1 0 1 0 -1 0 0 3005.DAT
0 STEP
1 86 50.0 -408 50.0 0 0 1 0 1 0 -1 0 0 3005.DAT
0 STEP
1 86 20.0 -360 50.0 -1 0 0 0 1 0 0 0 -1 3004.DAT
0 STEP
1 86 20.0 -384 10.0 -1 0 0 0 1 0 0 0 -1 3004.DAT
0 STEP
1 86 30.0 -336 40.0 0 0 1 0 1 0 -1 0 0 3004.DAT
0 STEP
1 86 80.0 -48 10.0 -1 0 0 0 1 0 0 0 -1 3004.DAT
0 STEP
1 86 110.0 -72 40.0 0 0 1 0 1 0 -1 0 0 3004.DAT
0 STEP
1 86 80.0 -96 50.0 -1 0 0 0 1 0 0 0 -1 3004.DAT
0 STEP
1 86 100.0 -24 50.0 -1 0 0 0 1 0 0 0 -1 3004.DAT
0 STEP
1 86 80.0 -192 10.0 -1 0 0 0 1 0 0 0 -1 3004.DAT
0 STEP
1 86 80.0 -120 10.0 -1 0 0 0 1 0 0 0 -1 3004.DAT
0 STEP
1 86 80.0 -96 20.0 0 0 1 0 1 0 -1 0 0 3003.DAT
0 STEP
1 86 10.0 -384 40.0 0 0 1 0 1 0 -1 0 0 3004.DAT
0 STEP
1 86 80.0 -72 40.0 0 0 1 0 1 0 -1 0 0 3003.DAT
0 STEP
1 86 110.0 -48 20.0 0 0 1 0 1 0 -1 0 0 3004.DAT
0 STEP
1 86 80.0 -168 20.0 0 0 1 0 1 0 -1 0 0 3003.DAT
0 STEP
1 86 80.0 -216 40.0 0 0 1 0 1 0 -1 0 0 3003.DAT
0 STEP
1 86 80.0 -24 20.0 0 0 1 0 1 0 -1 0 0 3003.DAT
0 STEP
1 86 50.0 -336 20.0 0 0 1 0 1 0 -1 0 0 3004.DAT
0 STEP
1 86 80.0 -192 40.0 0 0 1 0 1 0 -1 0 0 3003.DAT
0 STEP
1 86 80.0 -72 10.0 -1 0 0 0 1 0 0 0 -1 3004.DAT
0 STEP
1 86 80.0 0 10.0 -1 0 0 0 1 0 0 0 -1 3004.DAT
0 STEP
1 86 80.0 -168 50.0 -1 0 0 0 1 0 0 0 -1 3004.DAT
0 STEP
1 86 80.0 -144 50.0 -1 0 0 0 1 0 0 0 -1 3004.DAT
0 STEP
1 86 10.0 -336 20.0 0 0 1 0 1 0 -1 0 0 3004.DAT
0 STEP
1 86 80.0 -216 10.0 -1 0 0 0 1 0 0 0 -1 3004.DAT
0 STEP
1 86 10.0 -360 20.0 0 0 1 0 1 0 -1 0 0 3004.DAT
0 STEP
1 86 40.0 -360 20.0 0 0 1 0 1 0 -1 0 0 3003.DAT
0 STEP
1 86 80.0 -120 40.0 0 0 1 0 1 0 -1 0 0 3003.DAT
0 STEP
1 86 80.0 -144 20.0 0 0 1 0 1 0 -1 0 0 3003.DAT
0 STEP
1 86 20.0 -408 40.0 0 0 1 0 1 0 -1 0 0 3003.DAT
0 STEP
1 86 40.0 -384 40.0 0 0 1 0 1 0 -1 0 0 3003.DAT
0 STEP
1 86 80.0 -48 40.0 0 0 1 0 1 0 -1 0 0 3003.DAT
0 STEP
1 86 80.0 -240 10.0 -1 0 0 0 1 0 0 0 -1 3004.DAT
0 STEP
1 86 80.0 0 40.0 0 0 1 0 1 0 -1 0 0 3003.DAT
0 STEP
1 86 90.0 -264 10.0 0 0 1 0 1 0 -1 0 0 3005.DAT
0 STEP
1 86 130.0 -312 50.0 0 0 1 0 1 0 -1 0 0 3005.DAT
0 STEP
1 86 150.0 -288 30.0 0 0 1 0 1 0 -1 0 0 3005.DAT
0 STEP
1 86 110.0 -288 50.0 0 0 1 0 1 0 -1 0 0 3005.DAT
0 STEP
1 86 10.0 -288 30.0 0 0 1 0 1 0 -1 0 0 3005.DAT
0 STEP
1 86 110.0 -240 50.0 0 0 1 0 1 0 -1 0 0 3005.DAT
0 STEP
1 86 110.0 -240 20.0 0 0 1 0 1 0 -1 0 0 3004.DAT
0 STEP
1 86 70.0 -312 20.0 0 0 1 0 1 0 -1 0 0 3004.DAT
0 STEP
1 86 130.0 -288 40.0 0 0 1 0 1 0 -1 0 0 3004.DAT
0 STEP
1 86 10.0 -312 20.0 0 0 1 0 1 0 -1 0 0 3004.DAT
0 STEP
1 86 60.0 -264 10.0 -1 0 0 0 1 0 0 0 -1 3004.DAT
0 STEP
1 86 120.0 -312 10.0 -1 0 0 0 1 0 0 0 -1 3004.DAT
0 STEP
1 86 120.0 -312 30.0 -1 0 0 0 1 0 0 0 -1 3010.DAT
0 STEP
1 86 40.0 -288 20.0 0 0 1 0 1 0 -1 0 0 3003.DAT
0 STEP
1 86 100.0 -288 20.0 0 0 1 0 1 0 -1 0 0 3003.DAT
0 STEP
1 86 40.0 -312 20.0 0 0 1 0 1 0 -1 0 0 3003.DAT
0 STEP
1 86 80.0 -264 40.0 -1 0 0 0 1 0 0 0 -1 3001.DAT
0 STEP
1 86 60.0 -312 50.0 -1 0 0 0 1 0 0 0 -1 3009.DAT
0 STEP
1 86 60.0 -288 50.0 -1 0 0 0 1 0 0 0 -1 3010.DAT
0 STEP
1 86 70.0 -288 20.0 0 0 1 0 1 0 -1 0 0 3004.DAT
0 STEP
1 86 80.0 -240 40.0 0 0 1 0 1 0 -1 0 0 3003.DAT
0 STEP
1 86 50.0 -432 10.0 0 0 1 0 1 0 -1 0 0 3005.DAT
0 STEP
1 86 60.0 -408 30.0 -1 0 0 0 1 0 0 0 -1 3004.DAT
0 STEP
1 86 40.0 -432 50.0 -1 0 0 0 1 0 0 0 -1 3004.DAT
0 STEP
1 86 40.0 -408 10.0 -1 0 0 0 1 0 0 0 -1 3004.DAT
0 STEP
1 86 60.0 -432 30.0 -1 0 0 0 1 0 0 0 -1 3010.DAT
0 STEP
