1 86 20.0 -720 40.0 0 0 1 0 1 0 -1 0 0 3003.DAT
0 STEP
1 86 20.0 -672 50.0 -1 0 0 0 1 0 0 0 -1 3004.DAT
0 STEP
1 86 10.0 -696 50.0 0 0 1 0 1 0 -1 0 0 3005.DAT
0 STEP
1 86 10.0 -744 50.0 0 0 1 0 1 0 -1 0 0 3005.DAT
0 STEP
1 86 20.0 -720 70.0 -1 0 0 0 1 0 0 0 -1 3004.DAT
0 STEP
1 86 40.0 -624 30.0 -1 0 0 0 1 0 0 0 -1 3004.DAT
0 STEP
1 86 30.0 -648 30.0 0 0 1 0 1 0 -1 0 0 3005.DAT
0 STEP
1 86 30.0 -672 30.0 0 0 1 0 1 0 -1 0 0 3005.DAT
0 STEP
1 86 60.0 -696 30.0 -1 0 0 0 1 0 0 0 -1 3010.DAT
0 STEP
1 86 30.0 -744 30.0 0 0 1 0 1 0 -1 0 0 3005.DAT
0 STEP
1 86 40.0 -768 30.0 -1 0 0 0 1 0 0 0 -1 3004.DAT
0 STEP
1 86 60.0 -792 30.0 -1 0 0 0 1 0 0 0 -1 3010.DAT
0 STEP
1 86 60.0 -600 50.0 -1 0 0 0 1 0 0 0 -1 3010.DAT
0 STEP
1 86 30.0 -624 50.0 0 0 1 0 1 0 -1 0 0 3005.DAT
0 STEP
1 86 30.0 -648 60.0 0 0 1 0 1 0 -1 0 0 3004.DAT
0 STEP
1 86 60.0 -696 60.0 -1 0 0 0 1 0 0 0 -1 3001.DAT
0 STEP
1 86 30.0 -744 60.0 0 0 1 0 1 0 -1 0 0 3004.DAT
0 STEP
1 86 40.0 -768 60.0 0 0 1 0 1 0 -1 0 0 3003.DAT
0 STEP
1 86 40.0 -792 60.0 0 0 1 0 1 0 -1 0 0 3003.DAT
0 STEP
1 86 30.0 -816 50.0 0 0 1 0 1 0 -1 0 0 3005.DAT
0 STEP
1 86 80.0 -624 70.0 -1 0 0 0 1 0 0 0 -1 3009.DAT
0 STEP
1 86 40.0 -672 70.0 -1 0 0 0 1 0 0 0 -1 3004.DAT
0 STEP
1 86 60.0 -576 40.0 0 0 1 0 1 0 -1 0 0 3003.DAT
0 STEP
1 86 60.0 -600 30.0 -1 0 0 0 1 0 0 0 -1 3004.DAT
0 STEP
1 86 60.0 -648 40.0 0 0 1 0 1 0 -1 0 0 3003.DAT
0 STEP
1 86 50.0 -672 40.0 0 0 1 0 1 0 -1 0 0 3004.DAT
0 STEP
1 86 50.0 -720 30.0 0 0 1 0 1 0 -1 0 0 3005.DAT
0 STEP
1 86 50.0 -744 40.0 0 0 1 0 1 0 -1 0 0 3004.DAT
0 STEP
1 86 50.0 -816 30.0 0 0 1 0 1 0 -1 0 0 3005.DAT
0 STEP
1 86 60.0 -840 40.0 0 0 1 0 1 0 -1 0 0 3003.DAT
0 STEP
1 86 60.0 -624 50.0 -1 0 0 0 1 0 0 0 -1 3004.DAT
0 STEP
1 86 60.0 -720 60.0 0 0 1 0 1 0 -1 0 0 3003.DAT
0 STEP
1 86 50.0 -816 60.0 0 0 1 0 1 0 -1 0 0 3004.DAT
0 STEP
1 86 60.0 -576 70.0 -1 0 0 0 1 0 0 0 -1 3004.DAT
0 STEP
1 86 80.0 -600 70.0 -1 0 0 0 1 0 0 0 -1 3010.DAT
0 STEP
1 86 80.0 -648 70.0 -1 0 0 0 1 0 0 0 -1 3010.DAT
0 STEP
1 86 50.0 -744 70.0 0 0 1 0 1 0 -1 0 0 3005.DAT
0 STEP
1 86 80.0 -840 70.0 -1 0 0 0 1 0 0 0 -1 3010.DAT
0 STEP
1 86 70.0 -624 30.0 0 0 1 0 1 0 -1 0 0 3005.DAT
0 STEP
1 86 80.0 -672 30.0 -1 0 0 0 1 0 0 0 -1 3004.DAT
0 STEP
1 86 80.0 -720 30.0 -1 0 0 0 1 0 0 0 -1 3004.DAT
0 STEP
1 86 70.0 -744 30.0 0 0 1 0 1 0 -1 0 0 3005.DAT
0 STEP
1 86 80.0 -768 40.0 0 0 1 0 1 0 -1 0 0 3003.DAT
0 STEP
1 86 70.0 -816 40.0 0 0 1 0 1 0 -1 0 0 3004.DAT
0 STEP
1 86 70.0 -864 30.0 0 0 1 0 1 0 -1 0 0 3005.DAT
0 STEP
1 86 80.0 -672 60.0 0 0 1 0 1 0 -1 0 0 3003.DAT
0 STEP
1 86 70.0 -744 60.0 0 0 1 0 1 0 -1 0 0 3004.DAT
0 STEP
1 86 70.0 -792 60.0 0 0 1 0 1 0 -1 0 0 3004.DAT
0 STEP
1 86 70.0 -864 60.0 0 0 1 0 1 0 -1 0 0 3004.DAT
0 STEP
1 86 80.0 -768 70.0 -1 0 0 0 1 0 0 0 -1 3004.DAT
0 STEP
1 86 80.0 -816 70.0 -1 0 0 0 1 0 0 0 -1 3004.DAT
0 STEP
1 86 140.0 -552 30.0 -1 0 0 0 1 0 0 0 -1 3009.DAT
0 STEP
1 86 90.0 -576 30.0 0 0 1 0 1 0 -1 0 0 3005.DAT
0 STEP
1 86 90.0 -600 30.0 0 0 1 0 1 0 -1 0 0 3005.DAT
0 STEP
1 86 120.0 -624 40.0 -1 0 0 0 1 0 0 0 -1 3001.DAT
0 STEP
1 86 90.0 -648 40.0 0 0 1 0 1 0 -1 0 0 3004.DAT
0 STEP
1 86 90.0 -744 40.0 0 0 1 0 1 0 -1 0 0 3004.DAT
0 STEP
1 86 100.0 -816 30.0 -1 0 0 0 1 0 0 0 -1 3004.DAT
0 STEP
1 86 90.0 -840 40.0 0 0 1 0 1 0 -1 0 0 3004.DAT
0 STEP
1 86 140.0 -864 40.0 -1 0 0 0 1 0 0 0 -1 2456.DAT
0 STEP
1 86 100.0 -552 60.0 0 0 1 0 1 0 -1 0 0 3003.DAT
0 STEP
1 86 120.0 -576 60.0 -1 0 0 0 1 0 0 0 -1 3001.DAT
0 STEP
1 86 90.0 -720 60.0 0 0 1 0 1 0 -1 0 0 3004.DAT
0 STEP
1 86 100.0 -792 60.0 0 0 1 0 1 0 -1 0 0 3003.DAT
0 STEP
1 86 90.0 -816 50.0 0 0 1 0 1 0 -1 0 0 3005.DAT
0 STEP
1 86 90.0 -744 70.0 0 0 1 0 1 0 -1 0 0 3005.DAT
0 STEP
1 86 140.0 -864 70.0 -1 0 0 0 1 0 0 0 -1 3009.DAT
0 STEP
1 86 110.0 -528 40.0 0 0 1 0 1 0 -1 0 0 3004.DAT
0 STEP
1 86 120.0 -576 30.0 -1 0 0 0 1 0 0 0 -1 3004.DAT
0 STEP
1 86 160.0 -600 30.0 -1 0 0 0 1 0 0 0 -1 3009.DAT
0 STEP
1 86 110.0 -648 30.0 0 0 1 0 1 0 -1 0 0 3005.DAT
0 STEP
1 86 110.0 -672 30.0 0 0 1 0 1 0 -1 0 0 3005.DAT
0 STEP
1 86 110.0 -792 30.0 0 0 1 0 1 0 -1 0 0 3005.DAT
0 STEP
1 86 110.0 -840 30.0 0 0 1 0 1 0 -1 0 0 3005.DAT
0 STEP
1 86 110.0 -600 50.0 0 0 1 0 1 0 -1 0 0 3005.DAT
0 STEP
1 86 120.0 -648 50.0 -1 0 0 0 1 0 0 0 -1 3004.DAT
0 STEP
1 86 110.0 -672 60.0 0 0 1 0 1 0 -1 0 0 3004.DAT
0 STEP
1 86 110.0 -816 60.0 0 0 1 0 1 0 -1 0 0 3004.DAT
0 STEP
1 86 120.0 -840 50.0 -1 0 0 0 1 0 0 0 -1 3004.DAT
0 STEP
1 86 110.0 -888 50.0 0 0 1 0 1 0 -1 0 0 3005.DAT
0 STEP
1 86 120.0 -528 70.0 -1 0 0 0 1 0 0 0 -1 3004.DAT
0 STEP
1 86 140.0 -72 40.0 0 0 1 0 1 0 -1 0 0 3003.DAT
0 STEP
1 86 130.0 -96 30.0 0 0 1 0 1 0 -1 0 0 3005.DAT
0 STEP
1 86 140.0 -120 40.0 0 0 1 0 1 0 -1 0 0 3003.DAT
0 STEP
1 86 140.0 -456 30.0 -1 0 0 0 1 0 0 0 -1 3004.DAT
0 STEP
1 86 130.0 -480 30.0 0 0 1 0 1 0 -1 0 0 3005.DAT
0 STEP
1 86 130.0 -504 40.0 0 0 1 0 1 0 -1 0 0 3004.DAT
0 STEP
1 86 140.0 -528 40.0 0 0 1 0 1 0 -1 0 0 3003.DAT
0 STEP
1 86 140.0 -840 30.0 -1 0 0 0 1 0 0 0 -1 3004.DAT
0 STEP
1 86 130.0 -888 40.0 0 0 1 0 1 0 -1 0 0 3004.DAT
0 STEP
1 86 130.0 -48 50.0 0 0 1 0 1 0 -1 0 0 3005.DAT
0 STEP
1 86 130.0 -96 60.0 0 0 1 0 1 0 -1 0 0 3004.DAT
0 STEP
1 86 160.0 -144 50.0 -1 0 0 0 1 0 0 0 -1 3010.DAT
0 STEP
1 86 140.0 -456 60.0 0 0 1 0 1 0 -1 0 0 3003.DAT
0 STEP
1 86 180.0 -480 60.0 -1 0 0 0 1 0 0 0 -1 2456.DAT
0 STEP
1 86 140.0 -552 50.0 -1 0 0 0 1 0 0 0 -1 3004.DAT
0 STEP
1 86 130.0 -600 60.0 0 0 1 0 1 0 -1 0 0 3004.DAT
0 STEP
1 86 160.0 -120 70.0 -1 0 0 0 1 0 0 0 -1 3010.DAT
0 STEP
1 86 130.0 -504 70.0 0 0 1 0 1 0 -1 0 0 3005.DAT
0 STEP
1 86 130.0 -552 70.0 0 0 1 0 1 0 -1 0 0 3005.DAT
0 STEP
1 86 130.0 -840 70.0 0 0 1 0 1 0 -1 0 0 3005.DAT
0 STEP
1 86 130.0 -888 70.0 0 0 1 0 1 0 -1 0 0 3005.DAT
0 STEP
1 86 180.0 -96 20.0 -1 0 0 0 1 0 0 0 -1 3001.DAT
0 STEP
1 86 160.0 -480 20.0 0 0 1 0 1 0 -1 0 0 3003.DAT
0 STEP
1 86 150.0 -24 40.0 0 0 1 0 1 0 -1 0 0 3004.DAT
0 STEP
1 86 150.0 -48 30.0 0 0 1 0 1 0 -1 0 0 3005.DAT
0 STEP
1 86 150.0 -144 30.0 0 0 1 0 1 0 -1 0 0 3005.DAT
0 STEP
1 86 160.0 -168 40.0 0 0 1 0 1 0 -1 0 0 3003.DAT
0 STEP
1 86 160.0 -192 30.0 -1 0 0 0 1 0 0 0 -1 3004.DAT
0 STEP
1 86 150.0 -216 30.0 0 0 1 0 1 0 -1 0 0 3005.DAT
0 STEP
1 86 150.0 -240 30.0 0 0 1 0 1 0 -1 0 0 3005.DAT
0 STEP
1 86 180.0 -264 40.0 -1 0 0 0 1 0 0 0 -1 3001.DAT
0 STEP
1 86 150.0 -288 30.0 0 0 1 0 1 0 -1 0 0 3005.DAT
0 STEP
1 86 160.0 -312 30.0 -1 0 0 0 1 0 0 0 -1 3004.DAT
0 STEP
1 86 150.0 -336 30.0 0 0 1 0 1 0 -1 0 0 3005.DAT
0 STEP
1 86 160.0 -360 30.0 -1 0 0 0 1 0 0 0 -1 3004.DAT
0 STEP
1 86 150.0 -384 40.0 0 0 1 0 1 0 -1 0 0 3004.DAT
0 STEP
1 86 180.0 -408 40.0 -1 0 0 0 1 0 0 0 -1 3001.DAT
0 STEP
1 86 150.0 -432 30.0 0 0 1 0 1 0 -1 0 0 3005.DAT
0 STEP
1 86 160.0 -504 60.0 0 0 1 0 1 0 -1 0 0 3001.DAT
0 STEP
1 86 150.0 -576 30.0 0 0 1 0 1 0 -1 0 0 3005.DAT
0 STEP
1 86 150.0 -888 30.0 0 0 1 0 1 0 -1 0 0 3005.DAT
0 STEP
1 86 150.0 -48 60.0 0 0 1 0 1 0 -1 0 0 3004.DAT
0 STEP
1 86 180.0 -96 50.0 -1 0 0 0 1 0 0 0 -1 3010.DAT
0 STEP
1 86 160.0 -192 60.0 0 0 1 0 1 0 -1 0 0 3003.DAT
0 STEP
1 86 160.0 -216 60.0 0 0 1 0 1 0 -1 0 0 3003.DAT
0 STEP
1 86 160.0 -240 60.0 0 0 1 0 1 0 -1 0 0 3003.DAT
0 STEP
1 86 150.0 -288 60.0 0 0 1 0 1 0 -1 0 0 3004.DAT
0 STEP
1 86 150.0 -312 60.0 0 0 1 0 1 0 -1 0 0 3004.DAT
0 STEP
1 86 160.0 -336 60.0 0 0 1 0 1 0 -1 0 0 3003.DAT
0 STEP
1 86 150.0 -360 60.0 0 0 1 0 1 0 -1 0 0 3004.DAT
0 STEP
1 86 160.0 -432 60.0 0 0 1 0 1 0 -1 0 0 3003.DAT
0 STEP
1 86 180.0 -600 50.0 -1 0 0 0 1 0 0 0 -1 3010.DAT
0 STEP
1 86 150.0 -840 60.0 0 0 1 0 1 0 -1 0 0 3004.DAT
0 STEP
1 86 150.0 -888 60.0 0 0 1 0 1 0 -1 0 0 3004.DAT
0 STEP
1 86 150.0 -24 70.0 0 0 1 0 1 0 -1 0 0 3005.DAT
0 STEP
1 86 150.0 -72 70.0 0 0 1 0 1 0 -1 0 0 3005.DAT
0 STEP
1 86 180.0 -96 80.0 -1 0 0 0 1 0 0 0 -1 3001.DAT
0 STEP
1 86 150.0 -144 70.0 0 0 1 0 1 0 -1 0 0 3005.DAT
0 STEP
1 86 160.0 -168 70.0 -1 0 0 0 1 0 0 0 -1 3004.DAT
0 STEP
1 86 160.0 -264 70.0 -1 0 0 0 1 0 0 0 -1 3004.DAT
0 STEP
1 86 180.0 -384 70.0 -1 0 0 0 1 0 0 0 -1 3010.DAT
0 STEP
1 86 150.0 -408 70.0 0 0 1 0 1 0 -1 0 0 3005.DAT
0 STEP
1 86 150.0 -528 70.0 0 0 1 0 1 0 -1 0 0 3005.DAT
0 STEP
1 86 200.0 -552 70.0 -1 0 0 0 1 0 0 0 -1 3009.DAT
0 STEP
1 86 150.0 -600 70.0 0 0 1 0 1 0 -1 0 0 3005.DAT
0 STEP
1 86 150.0 -624 70.0 0 0 1 0 1 0 -1 0 0 3005.DAT
0 STEP
1 86 150.0 -456 90.0 0 0 1 0 1 0 -1 0 0 3005.DAT
0 STEP
1 86 180.0 -480 90.0 -1 0 0 0 1 0 0 0 -1 3010.DAT
0 STEP
1 86 180.0 -48 40.0 0 0 1 0 1 0 -1 0 0 3001.DAT
0 STEP
1 86 180.0 -72 10.0 -1 0 0 0 1 0 0 0 -1 3004.DAT
0 STEP
1 86 180.0 -120 20.0 0 0 1 0 1 0 -1 0 0 3003.DAT
0 STEP
1 86 180.0 -144 20.0 0 0 1 0 1 0 -1 0 0 3003.DAT
0 STEP
1 86 170.0 -168 10.0 0 0 1 0 1 0 -1 0 0 3005.DAT
0 STEP
1 86 170.0 -432 20.0 0 0 1 0 1 0 -1 0 0 3004.DAT
0 STEP
1 86 180.0 -456 20.0 0 0 1 0 1 0 -1 0 0 3003.DAT
0 STEP
1 86 180.0 -504 10.0 -1 0 0 0 1 0 0 0 -1 3004.DAT
0 STEP
1 86 170.0 -528 40.0 0 0 1 0 1 0 -1 0 0 3010.DAT
0 STEP
1 86 180.0 0 30.0 -1 0 0 0 1 0 0 0 -1 3004.DAT
0 STEP
1 86 180.0 -24 30.0 -1 0 0 0 1 0 0 0 -1 3004.DAT
0 STEP
1 86 170.0 -72 60.0 0 0 1 0 1 0 -1 0 0 3010.DAT
0 STEP
1 86 180.0 -216 30.0 -1 0 0 0 1 0 0 0 -1 3004.DAT
0 STEP
1 86 180.0 -240 30.0 -1 0 0 0 1 0 0 0 -1 3004.DAT
0 STEP
1 86 180.0 -288 40.0 0 0 1 0 1 0 -1 0 0 3003.DAT
0 STEP
1 86 180.0 -336 30.0 -1 0 0 0 1 0 0 0 -1 3004.DAT
0 STEP
1 86 180.0 -384 40.0 0 0 1 0 1 0 -1 0 0 3003.DAT
0 STEP
1 86 180.0 -576 30.0 -1 0 0 0 1 0 0 0 -1 3004.DAT
0 STEP
1 86 170.0 -888 40.0 0 0 1 0 1 0 -1 0 0 3004.DAT
0 STEP
1 86 180.0 0 60.0 0 0 1 0 1 0 -1 0 0 3003.DAT
0 STEP
1 86 180.0 -24 60.0 0 0 1 0 1 0 -1 0 0 3003.DAT
0 STEP
1 86 180.0 -120 50.0 -1 0 0 0 1 0 0 0 -1 3004.DAT
0 STEP
1 86 170.0 -312 50.0 0 0 1 0 1 0 -1 0 0 3005.DAT
0 STEP
1 86 170.0 -360 50.0 0 0 1 0 1 0 -1 0 0 3005.DAT
0 STEP
1 86 200.0 -456 50.0 -1 0 0 0 1 0 0 0 -1 3010.DAT
0 STEP
1 86 170.0 -552 50.0 0 0 1 0 1 0 -1 0 0 3005.DAT
0 STEP
1 86 220.0 -576 60.0 -1 0 0 0 1 0 0 0 -1 2456.DAT
0 STEP
1 86 180.0 -144 80.0 0 0 1 0 1 0 -1 0 0 3003.DAT
0 STEP
1 86 180.0 -288 70.0 -1 0 0 0 1 0 0 0 -1 3004.DAT
0 STEP
1 86 180.0 -312 70.0 -1 0 0 0 1 0 0 0 -1 3004.DAT
0 STEP
1 86 180.0 -360 70.0 -1 0 0 0 1 0 0 0 -1 3004.DAT
0 STEP
1 86 180.0 -408 70.0 -1 0 0 0 1 0 0 0 -1 3004.DAT
0 STEP
1 86 180.0 -456 80.0 0 0 1 0 1 0 -1 0 0 3003.DAT
0 STEP
1 86 180.0 -600 70.0 -1 0 0 0 1 0 0 0 -1 3004.DAT
0 STEP
1 86 180.0 -48 90.0 -1 0 0 0 1 0 0 0 -1 3004.DAT
0 STEP
1 86 180.0 -120 90.0 -1 0 0 0 1 0 0 0 -1 3004.DAT
0 STEP
1 86 180.0 -432 90.0 -1 0 0 0 1 0 0 0 -1 3004.DAT
0 STEP
1 86 190.0 -480 20.0 0 0 1 0 1 0 -1 0 0 3004.DAT
0 STEP
1 86 200.0 -72 40.0 0 0 1 0 1 0 -1 0 0 3003.DAT
0 STEP
1 86 200.0 -168 30.0 -1 0 0 0 1 0 0 0 -1 3004.DAT
0 STEP
1 86 190.0 -192 40.0 0 0 1 0 1 0 -1 0 0 3004.DAT
0 STEP
1 86 200.0 -312 40.0 0 0 1 0 1 0 -1 0 0 3003.DAT
0 STEP
1 86 200.0 -360 40.0 0 0 1 0 1 0 -1 0 0 3003.DAT
0 STEP
1 86 200.0 -432 40.0 0 0 1 0 1 0 -1 0 0 3003.DAT
0 STEP
1 86 190.0 -504 60.0 0 0 1 0 1 0 -1 0 0 3010.DAT
0 STEP
1 86 200.0 -528 40.0 0 0 1 0 1 0 -1 0 0 3003.DAT
0 STEP
1 86 200.0 -168 60.0 0 0 1 0 1 0 -1 0 0 3003.DAT
0 STEP
1 86 190.0 -216 60.0 0 0 1 0 1 0 -1 0 0 3004.DAT
0 STEP
1 86 190.0 -240 60.0 0 0 1 0 1 0 -1 0 0 3004.DAT
0 STEP
1 86 190.0 -336 60.0 0 0 1 0 1 0 -1 0 0 3004.DAT
0 STEP
1 86 200.0 -552 50.0 -1 0 0 0 1 0 0 0 -1 3004.DAT
0 STEP
1 86 200.0 -888 50.0 -1 0 0 0 1 0 0 0 -1 3004.DAT
0 STEP
1 86 200.0 -72 70.0 -1 0 0 0 1 0 0 0 -1 3004.DAT
0 STEP
1 86 190.0 -192 70.0 0 0 1 0 1 0 -1 0 0 3005.DAT
0 STEP
1 86 190.0 -264 70.0 0 0 1 0 1 0 -1 0 0 3005.DAT
0 STEP
1 86 200.0 -432 70.0 -1 0 0 0 1 0 0 0 -1 3004.DAT
0 STEP
1 86 200.0 -528 70.0 -1 0 0 0 1 0 0 0 -1 3004.DAT
0 STEP
1 86 190.0 -72 90.0 0 0 1 0 1 0 -1 0 0 3005.DAT
0 STEP
1 86 210.0 -24 30.0 0 0 1 0 1 0 -1 0 0 3005.DAT
0 STEP
1 86 210.0 -48 30.0 0 0 1 0 1 0 -1 0 0 3005.DAT
0 STEP
1 86 210.0 -120 40.0 0 0 1 0 1 0 -1 0 0 3004.DAT
0 STEP
1 86 210.0 -144 40.0 0 0 1 0 1 0 -1 0 0 3004.DAT
0 STEP
1 86 210.0 -192 30.0 0 0 1 0 1 0 -1 0 0 3005.DAT
0 STEP
1 86 210.0 -216 40.0 0 0 1 0 1 0 -1 0 0 3004.DAT
0 STEP
1 86 210.0 -240 40.0 0 0 1 0 1 0 -1 0 0 3004.DAT
0 STEP
1 86 210.0 -288 40.0 0 0 1 0 1 0 -1 0 0 3004.DAT
0 STEP
1 86 210.0 -336 40.0 0 0 1 0 1 0 -1 0 0 3004.DAT
0 STEP
1 86 210.0 -384 40.0 0 0 1 0 1 0 -1 0 0 3004.DAT
0 STEP
1 86 210.0 -456 30.0 0 0 1 0 1 0 -1 0 0 3005.DAT
0 STEP
1 86 220.0 -480 30.0 -1 0 0 0 1 0 0 0 -1 3004.DAT
0 STEP
1 86 210.0 -504 30.0 0 0 1 0 1 0 -1 0 0 3005.DAT
0 STEP
1 86 210.0 -552 30.0 0 0 1 0 1 0 -1 0 0 3005.DAT
0 STEP
1 86 210.0 -576 30.0 0 0 1 0 1 0 -1 0 0 3005.DAT
0 STEP
1 86 210.0 -24 60.0 0 0 1 0 1 0 -1 0 0 3004.DAT
0 STEP
1 86 210.0 -48 60.0 0 0 1 0 1 0 -1 0 0 3004.DAT
0 STEP
1 86 210.0 -192 60.0 0 0 1 0 1 0 -1 0 0 3004.DAT
0 STEP
1 86 210.0 -504 60.0 0 0 1 0 1 0 -1 0 0 3004.DAT
0 STEP
1 86 210.0 -864 60.0 0 0 1 0 1 0 -1 0 0 3004.DAT
0 STEP
1 86 210.0 -120 70.0 0 0 1 0 1 0 -1 0 0 3005.DAT
0 STEP
1 86 210.0 -144 70.0 0 0 1 0 1 0 -1 0 0 3005.DAT
0 STEP
1 86 210.0 -360 70.0 0 0 1 0 1 0 -1 0 0 3005.DAT
0 STEP
1 86 210.0 -408 70.0 0 0 1 0 1 0 -1 0 0 3005.DAT
0 STEP
1 86 210.0 -456 70.0 0 0 1 0 1 0 -1 0 0 3005.DAT
0 STEP
1 86 210.0 -600 70.0 0 0 1 0 1 0 -1 0 0 3005.DAT
0 STEP
1 86 240.0 -552 30.0 -1 0 0 0 1 0 0 0 -1 3004.DAT
0 STEP
1 86 260.0 -576 30.0 -1 0 0 0 1 0 0 0 -1 3010.DAT
0 STEP
1 86 230.0 -600 40.0 0 0 1 0 1 0 -1 0 0 3004.DAT
0 STEP
1 86 230.0 -504 50.0 0 0 1 0 1 0 -1 0 0 3005.DAT
0 STEP
1 86 230.0 -552 50.0 0 0 1 0 1 0 -1 0 0 3005.DAT
0 STEP
1 86 260.0 -600 70.0 -1 0 0 0 1 0 0 0 -1 3010.DAT
0 STEP
1 86 260.0 -600 40.0 0 0 1 0 1 0 -1 0 0 3003.DAT
0 STEP
1 86 280.0 -624 30.0 -1 0 0 0 1 0 0 0 -1 3010.DAT
0 STEP
1 86 260.0 -552 50.0 -1 0 0 0 1 0 0 0 -1 3004.DAT
0 STEP
1 86 250.0 -624 60.0 0 0 1 0 1 0 -1 0 0 3004.DAT
0 STEP
1 86 280.0 -624 60.0 0 0 1 0 1 0 -1 0 0 3003.DAT
0 STEP
1 86 290.0 -600 30.0 0 0 1 0 1 0 -1 0 0 3005.DAT
0 STEP
1 86 300.0 -648 30.0 -1 0 0 0 1 0 0 0 -1 3004.DAT
0 STEP
1 86 290.0 -576 60.0 0 0 1 0 1 0 -1 0 0 3004.DAT
0 STEP
1 86 300.0 -600 50.0 -1 0 0 0 1 0 0 0 -1 3004.DAT
0 STEP
1 86 300.0 -648 60.0 0 0 1 0 1 0 -1 0 0 3003.DAT
0 STEP
1 86 300.0 -672 60.0 0 0 1 0 1 0 -1 0 0 3003.DAT
0 STEP
1 86 310.0 -624 60.0 0 0 1 0 1 0 -1 0 0 3004.DAT
0 STEP
1 86 320.0 -696 50.0 -1 0 0 0 1 0 0 0 -1 3004.DAT
0 STEP
