1 86 10.0 0 80.0 0 0 1 0 1 0 -1 0 0 3008.DAT
0 STEP
1 86 20.0 -24 30.0 0 0 1 0 1 0 -1 0 0 3002.DAT
0 STEP
1 86 10.0 -48 10.0 0 0 1 0 1 0 -1 0 0 3005.DAT
0 STEP
1 86 10.0 -48 100.0 0 0 1 0 1 0 -1 0 0 3008.DAT
0 STEP
1 86 40.0 -24 70.0 -1 0 0 0 1 0 0 0 -1 3010.DAT
0 STEP
1 86 40.0 -24 100.0 -1 0 0 0 1 0 0 0 -1 3001.DAT
0 STEP
1 86 40.0 -72 90.0 -1 0 0 0 1 0 0 0 -1 3010.DAT
0 STEP
1 86 20.0 -96 100.0 0 0 1 0 1 0 -1 0 0 3003.DAT
0 STEP
1 86 10.0 -72 130.0 0 0 1 0 1 0 -1 0 0 3622.DAT
0 STEP
1 86 20.0 -24 180.0 0 0 1 0 1 0 -1 0 0 2456.DAT
0 STEP
1 86 40.0 -96 130.0 -1 0 0 0 1 0 0 0 -1 3010.DAT
0 STEP
1 86 10.0 -96 150.0 0 0 1 0 1 0 -1 0 0 3005.DAT
0 STEP
1 86 40.0 0 170.0 -1 0 0 0 1 0 0 0 -1 3010.DAT
0 STEP
1 86 10.0 -72 200.0 0 0 1 0 1 0 -1 0 0 3010.DAT
0 STEP
1 86 40.0 -96 170.0 -1 0 0 0 1 0 0 0 -1 3010.DAT
0 STEP
1 86 10.0 0 240.0 0 0 1 0 1 0 -1 0 0 3009.DAT
0 STEP
1 86 10.0 -48 260.0 0 0 1 0 1 0 -1 0 0 3008.DAT
0 STEP
1 86 10.0 -96 190.0 0 0 1 0 1 0 -1 0 0 3005.DAT
0 STEP
1 86 40.0 -96 210.0 -1 0 0 0 1 0 0 0 -1 3010.DAT
0 STEP
1 86 10.0 -96 240.0 0 0 1 0 1 0 -1 0 0 3004.DAT
0 STEP
1 86 20.0 -24 250.0 -1 0 0 0 1 0 0 0 -1 3004.DAT
0 STEP
1 86 10.0 -72 270.0 0 0 1 0 1 0 -1 0 0 3622.DAT
0 STEP
1 86 40.0 -24 270.0 -1 0 0 0 1 0 0 0 -1 3010.DAT
0 STEP
1 86 40.0 -96 270.0 -1 0 0 0 1 0 0 0 -1 3010.DAT
0 STEP
1 86 40.0 -24 300.0 -1 0 0 0 1 0 0 0 -1 3001.DAT
0 STEP
1 86 10.0 -96 300.0 0 0 1 0 1 0 -1 0 0 3004.DAT
0 STEP
1 86 20.0 0 360.0 0 0 1 0 1 0 -1 0 0 2456.DAT
0 STEP
1 86 10.0 -72 380.0 0 0 1 0 1 0 -1 0 0 3008.DAT
0 STEP
1 86 10.0 -24 400.0 0 0 1 0 1 0 -1 0 0 3008.DAT
0 STEP
1 86 40.0 -96 340.0 -1 0 0 0 1 0 0 0 -1 3001.DAT
0 STEP
1 86 10.0 -48 380.0 0 0 1 0 1 0 -1 0 0 3010.DAT
0 STEP
1 86 40.0 -96 370.0 -1 0 0 0 1 0 0 0 -1 3010.DAT
0 STEP
1 86 10.0 -96 400.0 0 0 1 0 1 0 -1 0 0 3004.DAT
0 STEP
1 86 40.0 0 430.0 -1 0 0 0 1 0 0 0 -1 3010.DAT
0 STEP
1 86 10.0 -48 430.0 0 0 1 0 1 0 -1 0 0 3005.DAT
0 STEP
1 86 40.0 -96 430.0 -1 0 0 0 1 0 0 0 -1 3010.DAT
0 STEP
1 86 10.0 0 500.0 0 0 1 0 1 0 -1 0 0 3009.DAT
0 STEP
1 86 10.0 -48 500.0 0 0 1 0 1 0 -1 0 0 3009.DAT
0 STEP
1 86 40.0 -96 460.0 -1 0 0 0 1 0 0 0 -1 3001.DAT
0 STEP
1 86 10.0 -72 490.0 0 0 1 0 1 0 -1 0 0 3622.DAT
0 STEP
1 86 40.0 -24 500.0 -1 0 0 0 1 0 0 0 -1 3001.DAT
0 STEP
1 86 10.0 -96 520.0 0 0 1 0 1 0 -1 0 0 3010.DAT
0 STEP
1 86 40.0 -24 530.0 -1 0 0 0 1 0 0 0 -1 3010.DAT
0 STEP
1 86 40.0 -72 540.0 -1 0 0 0 1 0 0 0 -1 3001.DAT
0 STEP
1 86 10.0 -24 580.0 0 0 1 0 1 0 -1 0 0 3010.DAT
0 STEP
1 86 10.0 0 570.0 0 0 1 0 1 0 -1 0 0 3005.DAT
0 STEP
1 86 10.0 -48 570.0 0 0 1 0 1 0 -1 0 0 3005.DAT
0 STEP
1 86 20.0 0 590.0 -1 0 0 0 1 0 0 0 -1 3004.DAT
0 STEP
1 86 20.0 -48 590.0 -1 0 0 0 1 0 0 0 -1 3004.DAT
0 STEP
1 86 10.0 -48 610.0 0 0 1 0 1 0 -1 0 0 3005.DAT
0 STEP
1 86 60.0 0 10.0 -1 0 0 0 1 0 0 0 -1 3010.DAT
0 STEP
1 86 60.0 -48 10.0 -1 0 0 0 1 0 0 0 -1 3010.DAT
0 STEP
1 86 30.0 0 60.0 0 0 1 0 1 0 -1 0 0 3010.DAT
0 STEP
1 86 50.0 -48 90.0 -1 0 0 0 1 0 0 0 -1 3622.DAT
0 STEP
1 86 60.0 0 120.0 -1 0 0 0 1 0 0 0 -1 3001.DAT
0 STEP
1 86 60.0 0 150.0 -1 0 0 0 1 0 0 0 -1 3010.DAT
0 STEP
1 86 60.0 -96 150.0 -1 0 0 0 1 0 0 0 -1 3010.DAT
0 STEP
1 86 60.0 0 200.0 -1 0 0 0 1 0 0 0 -1 3001.DAT
0 STEP
1 86 60.0 -96 190.0 -1 0 0 0 1 0 0 0 -1 3010.DAT
0 STEP
1 86 60.0 0 240.0 -1 0 0 0 1 0 0 0 -1 3001.DAT
0 STEP
1 86 60.0 -96 240.0 -1 0 0 0 1 0 0 0 -1 3001.DAT
0 STEP
1 86 60.0 0 280.0 -1 0 0 0 1 0 0 0 -1 3001.DAT
0 STEP
1 86 60.0 -96 300.0 -1 0 0 0 1 0 0 0 -1 3001.DAT
0 STEP
1 86 60.0 -24 340.0 -1 0 0 0 1 0 0 0 -1 3001.DAT
0 STEP
1 86 60.0 -24 380.0 -1 0 0 0 1 0 0 0 -1 3001.DAT
0 STEP
1 86 60.0 -96 400.0 -1 0 0 0 1 0 0 0 -1 3001.DAT
0 STEP
1 86 60.0 -24 410.0 -1 0 0 0 1 0 0 0 -1 3010.DAT
0 STEP
1 86 60.0 -24 440.0 -1 0 0 0 1 0 0 0 -1 3001.DAT
0 STEP
1 86 50.0 0 460.0 -1 0 0 0 1 0 0 0 -1 3002.DAT
0 STEP
1 86 60.0 -24 470.0 -1 0 0 0 1 0 0 0 -1 3010.DAT
0 STEP
1 86 30.0 0 490.0 0 0 1 0 1 0 -1 0 0 3005.DAT
0 STEP
1 86 60.0 -96 490.0 -1 0 0 0 1 0 0 0 -1 3010.DAT
0 STEP
1 86 30.0 0 540.0 0 0 1 0 1 0 -1 0 0 3010.DAT
0 STEP
1 86 60.0 -96 520.0 -1 0 0 0 1 0 0 0 -1 3001.DAT
0 STEP
1 86 30.0 -48 540.0 0 0 1 0 1 0 -1 0 0 3004.DAT
0 STEP
1 86 50.0 -24 550.0 -1 0 0 0 1 0 0 0 -1 3622.DAT
0 STEP
1 86 60.0 -96 550.0 -1 0 0 0 1 0 0 0 -1 3010.DAT
0 STEP
1 86 30.0 -24 600.0 0 0 1 0 1 0 -1 0 0 3010.DAT
0 STEP
1 86 50.0 0 610.0 -1 0 0 0 1 0 0 0 -1 3622.DAT
0 STEP
1 86 60.0 -48 610.0 -1 0 0 0 1 0 0 0 -1 3010.DAT
0 STEP
1 86 50.0 -48 630.0 -1 0 0 0 1 0 0 0 -1 3622.DAT
0 STEP
1 86 60.0 -24 30.0 0 0 1 0 1 0 -1 0 0 3002.DAT
0 STEP
1 86 70.0 0 30.0 -1 0 0 0 1 0 0 0 -1 3622.DAT
0 STEP
1 86 70.0 0 60.0 -1 0 0 0 1 0 0 0 -1 3002.DAT
0 STEP
1 86 70.0 0 90.0 -1 0 0 0 1 0 0 0 -1 3622.DAT
0 STEP
1 86 70.0 -96 100.0 -1 0 0 0 1 0 0 0 -1 3002.DAT
0 STEP
1 86 60.0 -24 160.0 0 0 1 0 1 0 -1 0 0 3001.DAT
0 STEP
1 86 60.0 -24 230.0 0 0 1 0 1 0 -1 0 0 3002.DAT
0 STEP
1 86 60.0 0 360.0 0 0 1 0 1 0 -1 0 0 2456.DAT
0 STEP
1 86 60.0 0 540.0 0 0 1 0 1 0 -1 0 0 2456.DAT
0 STEP
1 86 60.0 -24 600.0 0 0 1 0 1 0 -1 0 0 3001.DAT
0 STEP
1 86 80.0 -48 530.0 -1 0 0 0 1 0 0 0 -1 3004.DAT
0 STEP
1 86 70.0 -48 550.0 0 0 1 0 1 0 -1 0 0 3005.DAT
0 STEP
1 86 70.0 -48 590.0 0 0 1 0 1 0 -1 0 0 3005.DAT
0 STEP
1 86 90.0 -24 20.0 0 0 1 0 1 0 -1 0 0 3004.DAT
0 STEP
1 86 90.0 -48 100.0 0 0 1 0 1 0 -1 0 0 3008.DAT
0 STEP
1 86 90.0 -24 120.0 0 0 1 0 1 0 -1 0 0 3008.DAT
0 STEP
1 86 90.0 -72 160.0 0 0 1 0 1 0 -1 0 0 3008.DAT
0 STEP
1 86 90.0 -96 130.0 0 0 1 0 1 0 -1 0 0 3005.DAT
0 STEP
1 86 90.0 0 170.0 0 0 1 0 1 0 -1 0 0 3005.DAT
0 STEP
1 86 90.0 -96 170.0 0 0 1 0 1 0 -1 0 0 3005.DAT
0 STEP
1 86 90.0 -48 220.0 0 0 1 0 1 0 -1 0 0 3010.DAT
0 STEP
1 86 90.0 -24 260.0 0 0 1 0 1 0 -1 0 0 3009.DAT
0 STEP
1 86 90.0 -96 210.0 0 0 1 0 1 0 -1 0 0 3005.DAT
0 STEP
1 86 90.0 -72 320.0 0 0 1 0 1 0 -1 0 0 3008.DAT
0 STEP
1 86 90.0 -48 270.0 0 0 1 0 1 0 -1 0 0 3005.DAT
0 STEP
1 86 90.0 -96 270.0 0 0 1 0 1 0 -1 0 0 3005.DAT
0 STEP
1 86 90.0 -48 320.0 0 0 1 0 1 0 -1 0 0 3010.DAT
0 STEP
1 86 90.0 0 340.0 0 0 1 0 1 0 -1 0 0 3010.DAT
0 STEP
1 86 90.0 -96 350.0 0 0 1 0 1 0 -1 0 0 3622.DAT
0 STEP
1 86 90.0 -48 440.0 0 0 1 0 1 0 -1 0 0 3008.DAT
0 STEP
1 86 90.0 0 390.0 0 0 1 0 1 0 -1 0 0 3005.DAT
0 STEP
1 86 90.0 0 460.0 0 0 1 0 1 0 -1 0 0 3009.DAT
0 STEP
1 86 90.0 -72 480.0 0 0 1 0 1 0 -1 0 0 3008.DAT
0 STEP
1 86 90.0 -96 450.0 0 0 1 0 1 0 -1 0 0 3622.DAT
0 STEP
1 86 90.0 -24 520.0 0 0 1 0 1 0 -1 0 0 3010.DAT
0 STEP
1 86 90.0 0 560.0 0 0 1 0 1 0 -1 0 0 3010.DAT
0 STEP
1 86 90.0 -48 570.0 0 0 1 0 1 0 -1 0 0 3622.DAT
0 STEP
1 86 90.0 -24 590.0 0 0 1 0 1 0 -1 0 0 3622.DAT
0 STEP
