# Blender 4.0.1
# www.blender.org
mtllib Toucan_Low_Poly.mtl
o Toucan_Low_Poly
v -0.000088 0.334977 0.248848
v -0.002664 0.308087 0.242221
v 0.007054 0.346768 0.245571
v -0.008736 0.348165 0.244957
v -0.008692 0.378247 0.240893
v 0.015219 0.372982 0.231539
v 0.011036 0.398689 0.228880
v 0.001455 0.291087 0.236198
v 0.015648 0.352158 0.221593
v -0.005184 0.416701 0.221565
v -0.013990 0.348369 0.232190
v -0.001975 0.287137 0.232295
v 0.001381 0.285690 0.233483
v -0.002604 0.298860 0.229306
v 0.009767 0.333116 0.207145
v 0.024486 0.396584 0.192839
v 0.000852 0.319528 0.213047
v -0.020965 0.387344 0.210460
v -0.019313 0.416498 0.203991
v -0.006048 0.331084 0.202257
v -0.018725 0.359245 0.197765
v 0.021792 0.426046 0.187133
v -0.008534 0.449133 0.180171
v 0.008830 0.440372 0.193260
v -0.013413 0.347127 0.187527
v 0.023297 0.374077 0.171566
v -0.023127 0.443373 0.158154
v 0.006409 0.346446 0.176032
v -0.028165 0.408378 0.166747
v 0.015234 0.356575 0.174331
v -0.018886 0.367784 0.162035
v -0.025271 0.383409 0.164975
v -0.007529 0.353451 0.159892
v 0.021360 0.451712 0.148770
v 0.003616 0.469177 0.141734
v 0.027934 0.429790 0.155001
v -0.030346 0.435059 0.135017
v 0.017951 0.368307 0.145835
v 0.032144 0.410906 0.141576
v -0.029320 0.390788 0.130711
v 0.007007 0.360002 0.138483
v -0.017464 0.372855 0.127797
v -0.015306 0.470204 0.122394
v 0.031036 0.450454 0.104575
v -0.003068 0.365000 0.118825
v -0.035081 0.421145 0.112438
v 0.014931 0.473410 0.108421
v 0.017111 0.374581 0.108822
v -0.025327 0.383372 0.107303
v 0.030642 0.391217 0.123987
v -0.015166 0.372212 0.092121
v -0.004274 0.485869 0.080113
v -0.030946 0.452808 0.104257
v 0.036196 0.414473 0.106524
v 0.002523 0.368894 0.094033
v 0.050833 0.011210 0.086136
v -0.055068 0.010443 0.086520
v -0.037218 0.392646 0.085557
v 0.037670 0.395627 0.087275
v 0.038705 0.428453 0.078153
v -0.041707 0.434766 0.062772
v 0.015140 0.483302 0.074773
v -0.054668 0.008061 0.073451
v -0.023346 0.476649 0.076189
v 0.053600 0.008735 0.072317
v 0.019683 0.369678 0.081979
v 0.001017 0.362350 0.081025
v -0.047277 0.017455 0.066302
v -0.003703 0.316601 0.079147
v -0.028059 0.306625 0.073867
v 0.023233 0.306984 0.075360
v -0.015440 0.347569 0.077094
v 0.022751 0.345900 0.075545
v -0.034193 0.461192 0.070997
v 0.045569 0.022361 0.058414
v -0.002128 0.292037 0.074467
v -0.037700 0.331680 0.067400
v -0.047130 0.012472 0.044081
v 0.046471 0.301391 0.061258
v 0.040072 0.339085 0.063184
v 0.038469 0.371059 0.066952
v -0.033115 0.360685 0.071915
v 0.035515 0.281168 0.064704
v -0.045005 0.341377 0.051367
v -0.052123 0.285388 0.055018
v -0.049685 0.022590 0.054324
v 0.036881 0.459369 0.063595
v -0.031975 0.263917 0.057530
v 0.025274 0.484242 0.059471
v -0.040698 0.374890 0.059900
v 0.001455 0.262866 0.060189
v 0.060828 0.263582 0.039639
v 0.045544 0.348936 0.044530
v -0.043776 0.399722 0.055740
v 0.043176 0.436519 0.052968
v -0.050473 0.022196 0.030568
v 0.043296 0.405648 0.057514
v 0.065629 0.304365 0.038134
v -0.065455 0.293655 0.041402
v 0.054093 0.335213 0.027914
v -0.043882 0.463119 0.035832
v 0.052087 0.021622 0.053841
v 0.046942 0.014037 0.028302
v -0.021856 0.493387 0.043024
v 0.036842 0.480197 0.041366
v -0.058380 0.318372 0.037719
v -0.048302 0.013813 0.028223
v -0.046545 0.453338 0.027602
v 0.009505 0.497339 0.045442
v -0.044363 0.412623 0.034261
v -0.043096 0.027775 0.032090
v 0.045093 0.457335 0.042928
v 0.037679 0.246060 0.042710
v 0.047606 0.441837 0.034392
v -0.070659 0.302821 0.035006
v -0.043580 0.380854 0.029678
v 0.042385 0.422542 0.038087
v -0.055340 0.248050 0.035832
v -0.129101 0.010811 0.048445
v -0.047847 0.440923 0.032612
v -0.127697 0.008664 0.044494
v 0.129891 0.011384 0.046957
v -0.129819 0.016078 0.043022
v 0.128169 0.008260 0.045052
v 0.122056 0.022029 0.038509
v -0.042928 0.467420 0.019457
v 0.041960 0.378840 0.036480
v -0.001061 0.212358 0.023934
v 0.019436 0.498383 0.023784
v -0.045172 0.403381 0.018046
v 0.044394 0.037378 0.015369
v 0.053543 0.033060 0.021314
v -0.116313 0.026187 0.033173
v 0.127928 0.014582 0.039149
v -0.117522 0.027578 0.030479
v 0.042845 0.404613 0.030543
v -0.041711 0.221047 0.024909
v 0.050465 0.014474 0.029208
v -0.116313 0.014009 0.028687
v 0.116232 0.014198 0.027745
v -0.045497 0.033364 0.021232
v 0.048784 0.359326 0.020811
v 0.038192 0.213840 0.018053
v -0.077430 0.259219 0.020576
v 0.116291 0.026479 0.028549
v -0.050709 0.347446 0.022835
v 0.052938 0.016976 0.016734
v -0.092873 0.297735 0.022733
v 0.079565 0.342600 0.009355
v 0.040614 0.031228 -0.005803
v 0.082704 0.265105 0.018971
v -0.071094 0.319112 0.027295
v 0.096147 0.322983 0.004819
v 0.078818 0.330025 0.018335
v -0.061861 0.330051 0.022612
v 0.044398 0.458998 0.016349
v 0.096401 0.287473 0.016289
v -0.097439 0.035397 0.014729
v 0.043895 0.424824 0.016648
v 0.088094 0.038196 0.006464
v 0.077274 0.236633 0.006653
v -0.080962 0.329288 0.017883
v 0.079699 0.021142 0.001227
v -0.105997 0.016507 0.014390
v -0.036366 0.485425 0.009841
v 0.036799 0.485341 0.007542
v 0.060497 0.221904 0.014418
v 0.089733 0.035768 0.012491
v 0.099505 0.263298 -0.001984
v -0.066984 0.212691 0.000072
v -0.043481 0.462485 0.007893
v -0.005003 0.501720 0.012023
v -0.051110 0.034609 0.010435
v -0.046294 0.395096 0.003932
v 0.046188 0.392369 0.007237
v 0.104631 0.017576 0.014034
v -0.054926 0.022506 0.008341
v -0.097373 0.323190 0.004762
v -0.099734 0.271163 0.007063
v -0.063032 0.350347 0.008739
v -0.104418 0.296938 0.002001
v 0.065571 0.356674 0.001330
v 0.089942 0.247273 -0.000963
v -0.083777 0.025866 0.002129
v -0.041750 0.043110 -0.005289
v 0.062552 0.029561 0.011340
v 0.065245 0.041151 0.000469
v -0.096565 0.034390 0.003574
v -0.086964 0.229376 -0.016054
v 0.089614 0.032378 -0.006858
v -0.083163 0.350556 -0.002152
v 0.053634 0.370995 -0.001466
v -0.056033 0.019113 0.000118
v -0.085149 0.036852 0.004792
v 0.106036 0.283919 -0.010699
v 0.074177 0.034297 0.007088
v -0.041957 0.187750 -0.005884
v -0.052542 0.372828 -0.001781
v 0.049031 0.184597 -0.015431
v -0.098681 0.248515 -0.008749
v -0.065931 0.032008 0.001104
v 0.086323 0.348173 -0.007830
v 0.089890 0.341219 -0.029672
v 0.048827 0.016705 0.001013
v 0.085263 0.019254 -0.005223
v 0.016887 0.493695 -0.010515
v 0.099073 0.247236 -0.014181
v -0.044408 0.016694 0.005315
v -0.042209 0.442383 -0.018003
v -0.064769 0.039736 -0.002593
v -0.083434 0.209738 -0.029608
v 0.066042 0.017543 -0.002869
v -0.045316 0.423417 0.004263
v -0.064425 0.362436 -0.006307
v -0.095149 0.022272 -0.006214
v 0.042524 0.460045 -0.007534
v -0.071768 0.021584 -0.008091
v -0.039551 0.467274 -0.015031
v -0.037955 0.037882 -0.018059
v 0.002675 0.167772 -0.021493
v -0.078021 0.020491 -0.017270
v 0.103373 0.311865 -0.023571
v 0.034610 0.474432 -0.017976
v -0.074809 0.033278 -0.028577
v 0.042388 0.423997 -0.018945
v 0.065545 0.365518 -0.013189
v 0.046820 0.029591 -0.035913
v 0.044731 0.048344 -0.024007
v -0.103050 0.313277 -0.016631
v -0.010467 0.493749 -0.014657
v -0.065346 0.369558 -0.029328
v -0.067200 0.042197 -0.020851
v 0.076947 0.029551 -0.024859
v -0.109981 0.262177 -0.026471
v 0.071426 0.041166 -0.016887
v -0.108686 0.290497 -0.047148
v -0.049551 0.393140 -0.023589
v -0.044070 0.166752 -0.034403
v 0.090438 0.230860 -0.020612
v 0.000450 0.479843 -0.034629
v -0.091602 0.336350 -0.041605
v 0.038373 0.435931 -0.032659
v -0.078837 0.026081 -0.024622
v 0.059359 0.023299 -0.037468
v 0.052315 0.385531 -0.024059
v -0.043804 0.027348 -0.041913
v 0.047557 0.052140 -0.034928
v -0.032981 0.443408 -0.038646
v 0.111944 0.272503 -0.059894
v 0.077944 0.205012 -0.020897
v 0.030531 0.451066 -0.038330
v -0.022983 0.473943 -0.031065
v -0.063909 0.176774 -0.035596
v -0.041786 0.410741 -0.039014
v 0.108039 0.249169 -0.033716
v -0.061795 0.022514 -0.041547
v -0.045965 0.050593 -0.033000
v 0.040869 0.152979 -0.052310
v -0.080284 0.190207 -0.041697
v 0.044024 0.046709 -0.038739
v 0.070821 0.363781 -0.033092
v 0.060992 0.047146 -0.044288
v -0.066965 0.360726 -0.070526
v 0.016406 0.472099 -0.037073
v -0.013226 0.157268 -0.035617
v 0.069436 0.034997 -0.041231
v -0.055242 0.051049 -0.040536
v 0.012474 0.150109 -0.044197
v -0.041790 0.042053 -0.049228
v -0.093296 0.216804 -0.043807
v -0.090979 0.202318 -0.052758
v -0.114016 0.243098 -0.075265
v 0.080412 0.170664 -0.068881
v -0.068573 0.031128 -0.049815
v -0.066662 0.038410 -0.049102
v -0.047496 0.062678 -0.040724
v 0.066806 0.030231 -0.047998
v 0.046352 0.048206 -0.049923
v -0.105378 0.233810 -0.041119
v 0.017423 0.439492 -0.052236
v 0.037210 0.406987 -0.046886
v 0.053603 0.056882 -0.041025
v -0.041721 0.052799 -0.044844
v 0.046007 0.085773 -0.048565
v -0.050831 0.156032 -0.054210
v -0.047642 0.381714 -0.054755
v -0.002441 0.141297 -0.051296
v 0.053438 0.084589 -0.052565
v -0.052189 0.082797 -0.053593
v -0.013870 0.446903 -0.051494
v 0.095484 0.207484 -0.059319
v 0.002591 0.451774 -0.052458
v 0.053933 0.375463 -0.056997
v -0.054911 0.051586 -0.050929
v -0.043955 0.070807 -0.055498
v -0.040231 0.105395 -0.058228
v -0.099142 0.306987 -0.083660
v -0.050172 0.111718 -0.059645
v -0.020683 0.411127 -0.057339
v 0.055077 0.049183 -0.053174
v -0.046687 0.049209 -0.051960
v 0.038729 0.113755 -0.063323
v 0.043020 0.075767 -0.056510
v 0.062573 0.151870 -0.075204
v 0.094389 0.324697 -0.070146
v -0.050362 0.077281 -0.058636
v -0.090132 0.189422 -0.070622
v 0.020101 0.400612 -0.062171
v -0.058340 0.027874 -0.072168
v 0.050697 0.072056 -0.056574
v -0.079303 0.163991 -0.083415
v 0.043892 0.114818 -0.059405
v 0.064864 0.039049 -0.077289
v -0.049982 0.143582 -0.059315
v 0.055835 0.029488 -0.066217
v -0.044555 0.129724 -0.058400
v 0.043377 0.133521 -0.057804
v -0.029175 0.138438 -0.057920
v 0.051788 0.123442 -0.061538
v 0.026209 0.132926 -0.061628
v 0.055707 0.143016 -0.064021
v -0.029013 0.388008 -0.065405
v -0.090111 0.329616 -0.082799
v 0.030303 0.371917 -0.085765
v -0.062289 0.042383 -0.070181
v -0.043585 0.115751 -0.059371
v 0.112011 0.229006 -0.072836
v -0.051573 0.037163 -0.066712
v 0.075463 0.353475 -0.073028
v 0.038773 0.110233 -0.071036
v 0.057262 0.034549 -0.080289
v 0.056278 0.364024 -0.086692
v -0.044449 0.089150 -0.067090
v -0.054488 0.127838 -0.066307
v 0.055408 0.108309 -0.068425
v -0.035707 0.118233 -0.066830
v 0.048121 0.088758 -0.067479
v 0.002033 0.412736 -0.062507
v -0.080319 0.343593 -0.088986
v -0.020929 0.125342 -0.071474
v -0.058695 0.146782 -0.078004
v 0.093521 0.188575 -0.083856
v 0.015085 0.387745 -0.071938
v -0.105956 0.210197 -0.073215
v 0.032426 0.121685 -0.071499
v 0.021902 0.123388 -0.077323
v -0.057010 0.035892 -0.080791
v -0.004709 0.381637 -0.078469
v -0.107695 0.273003 -0.093197
v -0.039319 0.111703 -0.073987
v -0.036746 0.366161 -0.095046
v 0.052759 0.140034 -0.082449
v 0.065561 0.032913 -0.079430
v 0.095023 0.176396 -0.110540
v 0.110786 0.226310 -0.114456
v 0.103299 0.279545 -0.105355
v -0.066425 0.033230 -0.079190
v -0.053409 0.131588 -0.078072
v 0.040649 0.124936 -0.081230
v -0.022577 0.123030 -0.078879
v 0.106275 0.197096 -0.104050
v -0.042430 0.123175 -0.080622
v 0.069859 0.352785 -0.102026
v 0.000067 0.121760 -0.087656
v -0.069393 0.347145 -0.116829
v -0.023817 0.126143 -0.095860
v 0.085036 0.326380 -0.120107
v -0.040563 0.133635 -0.092343
v -0.107857 0.202461 -0.120203
v 0.076555 0.144031 -0.148993
v 0.027460 0.128524 -0.099280
v -0.087170 0.323594 -0.113620
v 0.048035 0.136073 -0.129899
v -0.099066 0.187601 -0.096218
v 0.086968 0.153608 -0.147277
v -0.001740 0.362051 -0.109233
v 0.002330 0.125229 -0.107102
v 0.059543 0.349799 -0.123083
v -0.096348 0.171459 -0.127903
v -0.050987 0.138379 -0.121305
v -0.096131 0.287753 -0.126758
v -0.051902 0.344335 -0.136991
v -0.104238 0.241585 -0.134075
v 0.102211 0.242890 -0.141392
v -0.076231 0.143981 -0.144592
v -0.090900 0.156007 -0.148911
v -0.015380 0.128596 -0.139773
v 0.093579 0.162269 -0.152009
v 0.007127 0.127904 -0.135375
v 0.020848 0.345667 -0.143816
v -0.019568 0.346511 -0.142445
v 0.081000 0.303480 -0.159209
v 0.071220 0.322146 -0.152786
v -0.099701 0.203149 -0.161199
v 0.050745 0.331340 -0.155828
v -0.080390 0.314341 -0.148385
v 0.095183 0.170169 -0.177018
v -0.068863 0.320988 -0.155899
v -0.053923 0.130998 -0.170150
v 0.089493 0.287855 -0.152344
v -0.096165 0.169576 -0.173762
v 0.097240 0.201177 -0.169509
v 0.026013 0.121749 -0.188928
v -0.007733 0.325914 -0.169421
v 0.058996 0.132349 -0.171792
v -0.088017 0.266605 -0.167889
v -0.045406 0.321220 -0.167657
v 0.087189 0.240424 -0.183900
v 0.079882 0.145050 -0.183486
v -0.079796 0.144737 -0.189927
v -0.070650 0.293667 -0.178804
v 0.025181 0.307084 -0.183021
v 0.064710 0.296198 -0.180668
v -0.089387 0.217259 -0.185840
v -0.029525 0.121924 -0.195313
v -0.043046 0.285275 -0.195071
v -0.072477 0.140216 -0.210016
v -0.002058 0.108507 -0.227054
v -0.013317 0.295618 -0.192666
v -0.087004 0.181049 -0.203855
v 0.063831 0.135467 -0.207931
v 0.068558 0.249084 -0.206631
v -0.074975 0.154524 -0.231709
v -0.055767 0.131801 -0.206774
v 0.076286 0.145377 -0.217939
v 0.087900 0.178807 -0.203566
v 0.008240 0.259545 -0.215900
v -0.032730 0.114556 -0.230617
v -0.076567 0.244621 -0.200189
v -0.055661 0.249992 -0.211814
v -0.070394 0.132024 -0.222629
v 0.028650 0.117396 -0.222084
v -0.070141 0.205516 -0.222245
v 0.071152 0.151590 -0.244340
v 0.057836 0.125161 -0.224599
v 0.069919 0.207167 -0.222183
v -0.025092 0.253399 -0.217327
v -0.058122 0.123599 -0.226404
v 0.068985 0.116984 -0.237042
v 0.030342 0.103482 -0.244473
v -0.070068 0.134748 -0.242516
v -0.072465 0.169492 -0.237562
v 0.064655 0.138073 -0.248807
v -0.051949 0.098266 -0.251874
v 0.039531 0.264013 -0.209347
v -0.068972 0.115169 -0.239559
v 0.069479 0.163723 -0.245583
v -0.037006 0.202036 -0.244124
v 0.013354 0.075364 -0.283182
v 0.065082 0.101979 -0.270216
v 0.051742 0.089215 -0.263936
v -0.056149 0.087775 -0.273297
v -0.056224 0.137394 -0.265861
v 0.035011 0.207764 -0.240341
v 0.050355 0.130805 -0.275913
v -0.034005 0.114207 -0.301185
v 0.055932 0.107536 -0.293534
v 0.034154 0.108493 -0.306448
v -0.037421 0.078523 -0.282399
v -0.055965 0.108037 -0.292402
v 0.058872 0.186213 -0.243409
v -0.064861 0.101166 -0.272663
v -0.056698 0.174260 -0.255186
v 0.029139 0.105402 -0.327635
v -0.002477 0.064190 -0.313958
v 0.053008 0.166117 -0.267837
v -0.020437 0.097841 -0.345612
v 0.017724 0.095414 -0.345452
v 0.042685 0.072031 -0.313762
v -0.005838 0.217277 -0.238411
v -0.039853 0.069791 -0.326046
v -0.052247 0.086244 -0.320674
v -0.008713 0.088871 -0.363042
v -0.061135 0.143585 -0.281083
v 0.022272 0.083849 -0.362021
v -0.025688 0.085261 -0.358767
v 0.050970 0.088574 -0.323679
v 0.001683 0.089828 -0.367735
v 0.054602 0.118338 -0.319594
v 0.009230 0.063663 -0.358875
v 0.000171 0.082130 -0.372529
v -0.034253 0.146877 -0.299491
v -0.041874 0.109653 -0.349644
v 0.029744 0.072065 -0.359463
v 0.003379 0.070317 -0.373168
v -0.019198 0.069916 -0.367108
v -0.050756 0.115589 -0.316750
v 0.021425 0.097855 -0.376476
v 0.031488 0.158433 -0.287095
v -0.018588 0.097306 -0.378421
v -0.038887 0.076463 -0.349381
v -0.002267 0.169033 -0.279022
v 0.048737 0.079773 -0.326493
v 0.044314 0.133320 -0.312671
v 0.004185 0.094547 -0.382737
v 0.015056 0.133424 -0.324872
v -0.010263 0.136760 -0.320227
v -0.011080 0.109276 -0.372330
v 0.027580 0.105857 -0.366739
vn 0.1747 0.7737 0.6090
vn 0.5278 -0.0811 0.8455
vn 0.9137 0.0718 -0.3999
vn 0.1838 -0.8766 0.4448
vn 0.4247 -0.7071 -0.5653
vn 0.6228 0.7519 -0.2164
vn 0.9917 -0.0007 -0.1285
vn 0.9576 0.0515 -0.2835
vn 0.9494 0.1466 -0.2777
vn 0.8205 -0.5387 0.1913
vn 0.9284 -0.3546 0.1111
vn 0.8415 -0.4628 0.2788
vn 0.9567 0.2872 0.0474
vn 0.8579 0.5117 -0.0471
vn 0.8539 0.3145 0.4148
vn 0.5033 -0.6832 -0.5290
vn 0.7384 0.4516 -0.5008
vn -0.1050 -0.7936 0.5993
vn 0.9249 0.0378 -0.3783
vn 0.8699 0.1989 -0.4512
vn 0.7492 0.6337 0.1927
vn 0.5161 0.6046 0.6067
vn 0.9535 -0.2478 -0.1714
vn 0.8969 -0.4370 -0.0679
vn 0.9421 -0.1569 -0.2965
vn 0.5160 -0.5317 0.6716
vn 0.7045 -0.5320 0.4697
vn 0.6994 -0.4319 0.5694
vn 0.5521 0.7082 0.4402
vn 0.9194 0.2948 -0.2602
vn 0.8438 -0.0517 -0.5341
vn 0.7972 -0.5760 -0.1807
vn 0.6250 -0.0446 0.7793
vn -0.0732 0.1195 0.9901
vn 0.6672 0.6929 0.2734
vn 0.5380 0.6513 -0.5351
vn 0.6410 0.6049 0.4724
vn 0.1255 0.9302 0.3450
vn 0.6544 -0.7403 0.1541
vn 0.8068 0.5645 0.1744
vn 0.5405 -0.8216 0.1811
vn 0.5807 -0.8113 -0.0674
vn -0.5435 -0.8353 -0.0827
vn 0.8162 0.4715 0.3338
vn 0.2917 -0.5284 0.7973
vn 0.2267 -0.6484 0.7268
vn -0.3120 0.7647 0.5637
vn 0.7123 0.7000 -0.0510
vn 0.7969 0.3011 0.5237
vn 0.6760 0.3150 -0.6662
vn 0.5643 0.4878 -0.6660
vn 0.2545 0.5425 -0.8006
vn 0.5597 0.5837 -0.5882
vn -0.7054 0.6147 0.3530
vn 0.0007 -0.1539 0.9881
vn -0.5315 -0.8022 -0.2720
vn -0.8627 -0.0646 -0.5015
vn -0.5062 -0.1098 -0.8554
vn 0.9848 0.1654 -0.0531
vn 0.9582 0.2153 0.1887
vn 0.9980 -0.0465 0.0435
vn 0.5134 -0.8393 0.1789
vn 0.2571 -0.8982 0.3565
vn 0.1340 -0.8387 0.5279
vn -0.9923 -0.1179 -0.0392
vn -0.5651 0.8008 0.1985
vn -0.9986 0.0171 -0.0494
vn 0.2555 0.7282 -0.6360
vn 0.0804 0.8322 -0.5486
vn 0.3919 0.8145 -0.4278
vn 0.3759 -0.3253 0.8677
vn 0.0259 -0.5106 0.8594
vn 0.2029 0.7384 -0.6431
vn -0.0092 0.7214 -0.6924
vn -0.0269 -0.3144 0.9489
vn -0.0126 -0.9173 0.3980
vn 0.0616 -0.9172 0.3937
vn 0.1362 -0.8011 0.5829
vn 0.1678 0.9185 0.3581
vn 0.3938 0.7322 0.5557
vn 0.7844 0.5552 0.2765
vn -0.3927 0.7844 0.4802
vn -0.1292 0.7341 -0.6667
vn 0.1764 -0.3005 -0.9373
vn -0.5717 -0.3103 -0.7595
vn -0.8643 0.4268 0.2663
vn -0.5644 0.7813 0.2665
vn -0.0478 0.7027 -0.7099
vn -0.0036 0.8899 -0.4561
vn -0.2518 0.8673 -0.4295
vn -0.9155 0.3595 0.1805
vn -0.3748 -0.1411 0.9163
vn -0.0346 -0.0637 0.9974
vn -0.1955 -0.1821 0.9637
vn -0.0138 0.5417 -0.8404
vn -0.2856 0.5578 -0.7793
vn -0.1268 0.4990 -0.8573
vn -0.6715 0.6352 -0.3815
vn -0.4150 0.6216 -0.6644
vn 0.6375 -0.5026 -0.5839
vn -0.3105 -0.5725 -0.7588
vn 0.1526 -0.9851 -0.0789
vn 0.9856 0.1584 -0.0593
vn 0.6046 -0.2893 -0.7421
vn 0.7660 0.1243 0.6308
vn 0.5686 0.2081 -0.7958
vn 0.1257 0.3961 0.9096
vn 0.2480 0.8548 0.4558
vn 0.1281 -0.4319 -0.8928
vn 0.8978 0.3806 0.2215
vn -0.3595 0.9061 0.2231
vn 0.8624 0.3086 0.4012
vn -0.9366 0.3488 -0.0324
vn -0.8672 0.3984 0.2988
vn -0.9875 0.1017 0.1205
vn -0.7986 -0.3409 -0.4960
vn -0.5397 -0.7860 -0.3015
vn -0.8179 -0.5598 0.1327
vn -0.8158 -0.2050 -0.5407
vn -0.5102 -0.8582 -0.0565
vn -0.9405 -0.0508 -0.3359
vn -0.1561 0.8529 0.4983
vn 0.5210 0.8022 0.2914
vn -0.8818 -0.4026 -0.2455
vn -0.8041 -0.5944 -0.0053
vn -0.9601 -0.1106 -0.2567
vn -0.9887 0.1395 0.0552
vn -0.3668 -0.9260 0.0888
vn -0.1449 -0.1481 0.9783
vn -0.5720 -0.7885 0.2261
vn -0.9685 -0.2148 -0.1257
vn -0.4590 0.4398 0.7719
vn -0.7678 0.3882 0.5097
vn -0.4994 0.5361 0.6806
vn -0.4761 0.5868 0.6549
vn -0.4737 0.4719 0.7436
vn -0.6551 0.6684 0.3521
vn -0.8597 0.4975 -0.1155
vn -0.3141 0.8781 -0.3610
vn -0.6568 -0.1762 -0.7332
vn -0.5641 0.7233 0.3982
vn -0.6171 -0.5176 0.5927
vn -0.7583 -0.5128 0.4026
vn -0.5550 -0.6716 0.4908
vn -0.7900 0.5201 -0.3245
vn -0.9394 -0.2499 -0.2345
vn -0.7512 -0.3397 -0.5659
vn -0.1491 -0.9592 -0.2402
vn -0.2554 -0.9484 -0.1876
vn -0.8477 0.3917 0.3578
vn -0.8871 -0.3923 0.2432
vn -0.9835 -0.1744 -0.0488
vn -0.8602 -0.4723 0.1923
vn 0.3843 0.4937 0.7801
vn -0.8830 0.4552 0.1144
vn -0.3061 -0.3288 0.8934
vn -0.5749 0.8173 -0.0395
vn -0.1225 -0.9917 0.0396
vn 0.8823 -0.4703 0.0208
vn 0.7057 -0.7073 -0.0414
vn 0.7329 0.6634 -0.1505
vn 0.7270 0.6855 -0.0398
vn 0.3774 -0.9234 0.0705
vn 0.5473 -0.8256 0.1378
vn 0.7092 -0.4577 0.5362
vn 0.6623 -0.2993 0.6869
vn 0.7072 0.5278 -0.4704
vn 0.9060 0.0326 -0.4221
vn 0.6032 -0.2924 0.7420
vn 0.8533 0.2549 -0.4548
vn -0.5498 0.7828 0.2914
vn 0.3736 -0.5580 0.7410
vn 0.1208 -0.1661 0.9787
vn 0.8514 -0.0551 0.5217
vn 0.5878 -0.0074 0.8090
vn 0.6062 0.4564 -0.6513
vn 0.4102 0.7194 -0.5606
vn 0.9329 -0.2603 -0.2489
vn 0.8821 0.4711 0.0075
vn 0.7659 0.3702 -0.5257
vn 0.9834 0.1177 -0.1384
vn 0.2123 0.8298 -0.5161
vn 0.4072 0.8730 -0.2684
vn 0.0909 -0.4273 -0.8995
vn 0.3950 -0.2215 -0.8916
vn -0.7410 -0.3415 -0.5783
vn -0.0920 0.3443 0.9343
vn 0.9817 0.0915 0.1671
vn 0.9403 -0.2561 0.2241
vn 0.9961 -0.0279 0.0838
vn 0.9644 0.1765 -0.1969
vn 0.9133 0.2931 0.2829
vn 0.9805 0.0184 0.1959
vn 0.3133 -0.9437 0.1066
vn 0.2242 -0.9635 0.1460
vn -0.8339 -0.1776 0.5225
vn -0.1330 -0.6317 0.7637
vn 0.3440 -0.0794 0.9356
vn 0.8867 -0.1443 0.4393
vn 0.5020 -0.5786 0.6428
vn -0.6714 -0.5096 0.5381
vn -0.8251 -0.4328 -0.3631
vn 0.7929 0.5986 -0.1143
vn 0.3917 0.9189 0.0470
vn 0.8121 0.5461 0.2056
vn 0.9294 -0.3666 0.0416
vn 0.6010 -0.7992 -0.0060
vn 0.3735 -0.7050 0.6028
vn 0.0120 -0.6492 0.7605
vn 0.0494 -0.7429 0.6676
vn 0.2046 0.5011 -0.8409
vn 0.0343 0.5019 -0.8642
vn 0.1139 0.6223 -0.7744
vn 0.5188 0.4786 -0.7084
vn 0.0710 -0.4077 -0.9104
vn 0.6201 0.5578 -0.5518
vn 0.4070 -0.8233 -0.3956
vn 0.3582 -0.8946 -0.2673
vn 0.7819 -0.6077 -0.1392
vn 0.8629 -0.4591 -0.2113
vn 0.8153 -0.5476 -0.1883
vn 0.9578 -0.2875 0.0068
vn 0.5850 0.7793 0.2247
vn 0.4358 0.8226 0.3652
vn -0.1184 0.9448 0.3054
vn 0.3460 0.4846 -0.8034
vn 0.0140 0.3392 -0.9406
vn 0.4087 0.2931 -0.8643
vn -0.2674 0.8649 -0.4248
vn -0.1425 0.9867 -0.0780
vn 0.3415 0.8566 -0.3867
vn -0.0107 0.6880 -0.7256
vn 0.2300 -0.8226 0.5200
vn -0.0723 -0.9893 0.1264
vn -0.5019 -0.3081 0.8082
vn 0.5219 -0.7444 0.4165
vn 0.0551 -0.1184 0.9914
vn -0.4602 0.8696 0.1787
vn -0.1225 -0.9905 0.0622
vn -0.2791 -0.9452 0.1693
vn -0.2954 -0.6938 0.6568
vn -0.4379 0.3432 -0.8309
vn -0.7370 0.2665 -0.6211
vn -0.3501 0.3514 -0.8683
vn -0.8725 -0.4751 -0.1136
vn -0.9669 -0.2549 0.0150
vn -0.9710 -0.2328 0.0549
vn -0.2698 -0.4436 0.8546
vn -0.8602 0.3795 -0.3407
vn -0.5117 0.5801 -0.6337
vn -0.8716 -0.0889 -0.4821
vn -0.8915 -0.1630 -0.4227
vn -0.5305 0.4872 -0.6937
vn -0.4483 -0.5289 -0.7206
vn -0.0734 0.8490 -0.5233
vn -0.2736 0.8182 -0.5056
vn -0.3087 -0.7698 0.5587
vn -0.1193 -0.7481 0.6528
vn -0.5154 -0.6328 0.5779
vn 0.7009 -0.4011 0.5898
vn -0.3820 0.4273 -0.8194
vn -0.2167 0.5410 -0.8126
vn -0.9554 0.2949 -0.0135
vn -0.9759 0.1917 -0.1040
vn -0.9906 0.1347 0.0221
vn 0.6950 -0.7190 -0.0078
vn -0.9642 0.1205 -0.2360
vn -0.9984 0.0370 -0.0430
vn -0.6289 0.7498 -0.2058
vn -0.9962 0.0302 0.0815
vn -0.7126 0.5327 -0.4566
vn -0.9611 -0.0044 -0.2762
vn -0.9281 0.0837 -0.3629
vn -0.3015 0.7586 -0.5776
vn -0.1460 -0.1168 0.9824
vn -0.4038 0.2095 0.8906
vn 0.3360 0.1193 0.9343
vn 0.5837 -0.8099 -0.0583
vn 0.7176 -0.6547 -0.2373
vn 0.2745 -0.8818 -0.3834
vn 0.4301 0.1825 -0.8841
vn -0.7100 -0.6516 0.2669
vn -0.5697 0.4677 -0.6758
vn -0.5076 0.6450 -0.5712
vn -0.2208 0.6765 -0.7026
vn 0.1600 0.7446 0.6481
vn -0.2397 -0.0911 0.9666
vn -0.7295 -0.4924 0.4747
vn -0.8070 -0.4158 0.4194
vn -0.8610 0.5041 -0.0673
vn -0.7681 0.6203 -0.1587
vn -0.7476 -0.4535 0.4852
vn -0.6406 -0.3607 0.6779
vn -0.9483 0.3164 0.0258
vn -0.7947 -0.2583 0.5492
vn -0.9732 -0.1076 0.2033
vn -0.8519 -0.4147 0.3197
vn -0.7723 -0.4809 0.4150
vn -0.9990 -0.0451 0.0052
vn 0.3039 0.9524 0.0252
vn 0.9916 0.1287 -0.0125
vn 0.9013 0.4132 -0.1300
vn 0.7445 -0.6579 0.1139
vn 0.7181 -0.6015 0.3500
vn 0.7052 -0.6485 0.2865
vn 0.1336 -0.9796 0.1504
vn 0.7021 -0.5997 0.3838
vn 0.3927 -0.8303 0.3955
vn 0.9494 -0.3017 -0.0873
vn 0.8495 -0.4544 -0.2681
vn 0.8617 0.2500 -0.4416
vn 0.3361 0.7313 -0.5935
vn 0.9021 0.1447 0.4066
vn 0.6650 0.6906 -0.2843
vn 0.8406 0.2793 -0.4641
vn 0.8168 -0.5626 -0.1280
vn 0.9387 0.2212 0.2645
vn 0.7467 0.4004 0.5312
vn 0.8612 0.3416 0.3762
vn -0.7952 -0.5616 -0.2287
vn 0.2978 -0.1151 0.9477
vn 0.6564 -0.0490 0.7528
vn 0.9932 -0.0107 0.1162
vn 0.1053 -0.9698 -0.2198
vn 0.6771 -0.4193 -0.6048
vn 0.5013 -0.8618 0.0775
vn 0.6845 0.3297 -0.6502
vn 0.9178 0.3502 0.1869
vn 0.0726 -0.9973 0.0140
vn 0.2650 -0.9521 -0.1527
vn 0.1439 -0.6927 0.7067
vn 0.1028 -0.5721 0.8137
vn 0.0843 -0.9801 0.1798
vn -0.4516 -0.8355 -0.3130
vn -0.1334 -0.9683 -0.2110
vn -0.0141 -0.7288 0.6846
vn 0.0582 0.4020 -0.9138
vn -0.6214 -0.5569 -0.5512
vn -0.9622 -0.1154 0.2468
vn -0.8582 -0.4865 -0.1638
vn -0.5778 -0.6496 -0.4941
vn -0.6912 0.6722 0.2654
vn -0.5155 0.8306 0.2105
vn -0.7553 0.6487 -0.0936
vn -0.0569 0.5734 -0.8173
vn -0.9034 0.3678 0.2206
vn -0.9426 -0.3296 0.0546
vn -0.9884 0.0309 0.1486
vn -0.0205 0.7067 -0.7072
vn -0.9340 -0.2515 0.2538
vn -0.9890 0.0314 0.1443
vn -0.9812 0.0829 0.1742
vn -0.9930 -0.0369 0.1121
vn -0.6924 0.3162 -0.6486
vn -0.6106 -0.1738 0.7726
vn -0.5478 0.6689 0.5025
vn -0.9199 -0.1320 0.3694
vn -0.5259 0.3092 0.7923
vn -0.6889 0.0151 0.7247
vn -0.7071 0.0528 0.7051
vn -0.8823 0.2426 -0.4033
vn -0.7240 0.2933 -0.6244
vn -0.9040 0.1393 -0.4043
vn -0.9213 0.0627 -0.3838
vn -0.8675 0.1942 -0.4581
vn -0.7278 -0.3214 -0.6058
vn 0.1202 0.8839 0.4519
vn -0.5774 0.7424 -0.3397
vn 0.4514 -0.5926 0.6671
vn -0.0586 -0.9798 -0.1910
vn -0.7132 -0.6970 -0.0739
vn -0.9522 -0.2517 -0.1733
vn -0.9487 -0.1121 -0.2958
vn -0.8065 -0.5874 0.0664
vn -0.9624 0.1148 -0.2463
vn -0.9300 0.2666 -0.2532
vn 0.7772 -0.1460 0.6121
vn 0.8373 -0.2808 0.4692
vn 0.9330 -0.2562 0.2527
vn 0.9718 0.0176 0.2350
vn 0.8364 -0.4429 0.3229
vn 0.2595 -0.9365 -0.2360
vn -0.0014 -0.9663 -0.2575
vn 0.4389 0.5269 -0.7279
vn 0.1241 0.8301 -0.5437
vn 0.7526 0.4904 -0.4394
vn 0.5860 -0.8102 0.0134
vn 0.0088 -0.9986 -0.0525
vn 0.9728 -0.1763 0.1503
vn 0.1694 0.9549 0.2437
vn -0.3488 0.6670 -0.6583
vn -0.0295 0.8515 -0.5235
vn -0.9290 0.3246 0.1774
vn 0.9947 0.1027 -0.0026
vn -0.9887 0.0580 0.1385
vn -0.9979 -0.0074 0.0644
vn -0.3948 -0.9129 0.1040
vn 0.9143 -0.0035 -0.4050
vn 0.8462 0.2001 -0.4939
vn -0.8444 0.3417 0.4127
vn -0.6624 0.0778 0.7451
vn -0.5354 -0.4351 0.7239
vn -0.1671 0.9043 0.3928
vn -0.5626 0.7557 -0.3353
vn -0.7526 0.6583 0.0150
vn -0.8626 0.4447 -0.2413
vn -0.8849 0.4465 -0.1324
vn -0.9505 0.0857 0.2988
vn -0.9628 0.0416 -0.2671
vn -0.7965 -0.5138 0.3188
vn 0.7865 -0.4614 0.4105
vn 0.7985 -0.4439 0.4067
vn 0.9047 0.2636 -0.3346
vn 0.7616 0.4227 -0.4912
vn 0.4740 0.8731 -0.1144
vn 0.9894 0.0595 0.1324
vn -0.4470 -0.8857 -0.1256
vn 0.2619 -0.6033 -0.7533
vn 0.0645 0.5772 -0.8140
vn 0.5971 -0.2531 -0.7612
vn 0.9776 0.0133 0.2099
vn 0.8734 0.0761 0.4810
vn 0.5836 0.3703 0.7227
vn 0.8818 0.3345 0.3326
vn 0.6350 0.0235 0.7722
vn -0.0184 0.3152 -0.9489
vn -0.2970 -0.5935 0.7481
vn -0.1925 -0.9088 0.3702
vn -0.0128 -0.9881 0.1533
vn -0.5976 0.5338 -0.5983
vn -0.6378 0.7119 0.2940
vn -0.4362 0.8998 -0.0069
vn -0.6709 0.5544 -0.4925
vn -0.6044 -0.2018 0.7707
vn -0.9344 -0.0646 0.3502
vn -0.5294 -0.8365 0.1411
vn -0.9650 0.2060 -0.1623
vn -0.9761 0.2162 -0.0221
vn 0.7960 -0.5611 -0.2270
vn 0.9303 -0.1212 -0.3461
vn 0.9997 -0.0185 -0.0175
vn 0.9979 0.0098 0.0642
vn 0.9805 0.1392 0.1384
vn 0.7712 0.0891 0.6304
vn 0.9584 0.2209 0.1810
vn 0.1276 -0.4452 -0.8863
vn 0.2809 -0.6315 -0.7227
vn -0.1485 -0.9491 -0.2778
vn -0.2246 -0.8539 0.4696
vn -0.9681 0.0169 0.2501
vn -0.4332 0.2507 0.8657
vn -0.8482 0.3515 0.3962
vn -0.4630 -0.7864 0.4088
vn -0.7347 -0.1993 0.6484
vn -0.2040 -0.9606 -0.1888
vn -0.9675 0.1916 0.1653
vn -0.5135 -0.7728 0.3730
vn -0.4865 -0.8727 -0.0408
vn -0.8132 -0.5295 0.2413
vn -0.3895 -0.9035 0.1790
vn -0.7897 0.4635 -0.4020
vn -0.8143 -0.4379 0.3811
vn -0.8787 -0.4621 0.1198
vn 0.9644 -0.2211 0.1449
vn 0.5749 0.6221 -0.5315
vn 0.8255 0.4980 -0.2654
vn 0.6126 0.7440 -0.2668
vn -0.2718 0.1335 0.9530
vn 0.9902 0.0225 0.1378
vn 0.3795 0.5686 -0.7299
vn -0.1914 -0.8117 0.5519
vn -0.2700 -0.7832 0.5600
vn -0.9715 -0.0676 0.2274
vn -0.8542 0.2891 -0.4322
vn -0.9084 0.1907 0.3721
vn -0.9807 0.0811 0.1780
vn -0.6211 -0.2801 -0.7319
vn -0.7867 -0.4981 0.3648
vn -0.4004 -0.8970 0.1873
vn -0.9328 0.3301 -0.1442
vn 0.9096 0.1582 -0.3841
vn -0.3416 -0.9354 0.0916
vn -0.1815 -0.8750 0.4489
vn -0.2670 0.5795 0.7700
vn 0.9534 0.2421 -0.1803
vn 0.5775 0.3739 -0.7257
vn 0.7134 0.1084 0.6924
vn 0.9954 -0.0873 0.0398
vn 0.6263 0.7053 0.3321
vn -0.6694 0.0053 0.7429
vn 0.7777 -0.0505 0.6266
vn 0.5877 -0.4192 -0.6921
vn -0.2268 0.5989 0.7680
vn -0.0481 -0.5511 0.8330
vn -0.7403 -0.6711 0.0391
vn -0.7232 -0.6830 -0.1025
vn -0.9982 -0.0338 0.0494
vn 0.0388 -0.9930 -0.1120
vn 0.5031 0.4278 0.7509
vt 0.047203 0.001512
vt 0.069800 0.001512
vt 0.058642 0.007606
vt 0.156737 0.003251
vt 0.150153 0.014124
vt 0.151726 0.001910
vt 0.209413 0.047359
vt 0.220030 0.060645
vt 0.215398 0.072231
vt 0.824548 0.414871
vt 0.820792 0.438085
vt 0.816456 0.422874
vt 0.578780 0.709758
vt 0.581063 0.713992
vt 0.560928 0.725027
vt 0.864394 0.211910
vt 0.876718 0.298423
vt 0.829582 0.242389
vt 0.935610 0.225095
vt 0.909624 0.208624
vt 0.929230 0.182415
vt 0.780363 0.048524
vt 0.735774 0.044014
vt 0.775884 0.003337
vt 0.843505 0.445071
vt 0.846344 0.482347
vt 0.061233 0.835495
vt 0.097802 0.851677
vt 0.114817 0.867914
vt 0.893917 0.354609
vt 0.814965 0.301921
vt 0.734686 0.010081
vt 0.961021 0.947441
vt 0.983406 0.930499
vt 0.997202 0.962633
vt 0.917300 0.321347
vt 0.934631 0.387303
vt 0.914839 0.421536
vt 0.137555 0.961300
vt 0.082602 0.945682
vt 0.134097 0.926775
vt 0.958500 0.911951
vt 0.429936 0.589673
vt 0.454930 0.589682
vt 0.423130 0.599382
vt 0.653116 0.009926
vt 0.683686 0.001740
vt 0.669703 0.019565
vt 0.934561 0.917286
vt 0.378364 0.601742
vt 0.693992 0.164910
vt 0.691351 0.184656
vt 0.672077 0.189249
vt 0.714842 0.177459
vt 0.632177 0.128722
vt 0.646447 0.158557
vt 0.595708 0.120134
vt 0.022587 0.915324
vt 0.013459 0.862083
vt 0.018527 0.863882
vt 0.940838 0.892567
vt 0.199695 0.971084
vt 0.149625 0.992131
vt 0.242691 0.297970
vt 0.222149 0.312490
vt 0.228891 0.295518
vt 0.006168 0.296267
vt 0.018981 0.251928
vt 0.055869 0.271103
vt 0.024004 0.205054
vt 0.107113 0.830996
vt 0.122968 0.872643
vt 0.095438 0.831027
vt 0.994405 0.030359
vt 0.963248 0.049975
vt 0.990552 0.008650
vt 0.905054 0.722850
vt 0.883068 0.755111
vt 0.869778 0.732541
vt 0.597764 0.147639
vt 0.539150 0.157655
vt 0.572240 0.131761
vt 0.976936 0.118403
vt 0.993431 0.171554
vt 0.973935 0.213166
vt 0.956645 0.087552
vt 0.953849 0.070618
vt 0.962650 0.066689
vt 0.049369 0.478325
vt 0.095272 0.501453
vt 0.040603 0.534113
vt 0.866732 0.515846
vt 0.817773 0.533591
vt 0.835391 0.472222
vt 0.053353 0.173090
vt 0.104297 0.187923
vt 0.252319 0.947328
vt 0.300401 0.975822
vt 0.257886 0.995800
vt 0.497315 0.177394
vt 0.451216 0.090432
vt 0.515572 0.126859
vt 0.828743 0.923375
vt 0.749515 0.958007
vt 0.795862 0.905725
vt 0.782122 0.967394
vt 0.104898 0.024739
vt 0.080534 0.001560
vt 0.114468 0.006508
vt 0.304690 0.131894
vt 0.320217 0.102440
vt 0.349230 0.173686
vt 0.140880 0.607228
vt 0.132481 0.554181
vt 0.185254 0.570730
vt 0.475156 0.848730
vt 0.409070 0.846756
vt 0.405013 0.810731
vt 0.548441 0.537192
vt 0.564006 0.500945
vt 0.602156 0.516486
vt 0.116617 0.276864
vt 0.160627 0.253680
vt 0.149367 0.330430
vt 0.205736 0.630906
vt 0.178057 0.625535
vt 0.968354 0.353497
vt 0.971346 0.373276
vt 0.943052 0.369375
vt 0.613889 0.051731
vt 0.631545 0.076970
vt 0.640070 0.126924
vt 0.623514 0.046028
vt 0.564884 0.063211
vt 0.583923 0.054094
vt 0.578963 0.071342
vt 0.977190 0.320650
vt 0.588870 0.008212
vt 0.623212 0.001995
vt 0.641733 0.008006
vt 0.313500 0.626086
vt 0.357299 0.622679
vt 0.343179 0.653319
vt 0.988010 0.383183
vt 0.965826 0.395063
vt 0.995907 0.402775
vt 0.170652 0.028994
vt 0.199360 0.050202
vt 0.185628 0.071806
vt 0.892548 0.582000
vt 0.856489 0.542557
vt 0.885771 0.540250
vt 0.672566 0.183814
vt 0.663306 0.103119
vt 0.692105 0.116465
vt 0.378437 0.197992
vt 0.418953 0.250809
vt 0.421994 0.270098
vt 0.226458 0.128478
vt 0.211867 0.141646
vt 0.584397 0.622398
vt 0.579781 0.599108
vt 0.603938 0.612375
vt 0.638944 0.621412
vt 0.601197 0.640835
vt 0.641283 0.654935
vt 0.021339 0.598935
vt 0.008052 0.570056
vt 0.017997 0.554226
vt 0.664124 0.631829
vt 0.668852 0.513781
vt 0.608150 0.474331
vt 0.626106 0.456087
vt 0.036178 0.626854
vt 0.031514 0.595443
vt 0.629060 0.573301
vt 0.611620 0.549254
vt 0.640932 0.568778
vt 0.597868 0.671016
vt 0.426706 0.372095
vt 0.379826 0.320408
vt 0.420449 0.324851
vt 0.187766 0.031400
vt 0.169491 0.012597
vt 0.170622 0.001709
vt 0.185571 0.035401
vt 0.280990 0.032917
vt 0.281477 0.021866
vt 0.287442 0.031180
vt 0.938560 0.289132
vt 0.949322 0.339196
vt 0.939586 0.968738
vt 0.871364 0.972790
vt 0.912886 0.937247
vt 0.640939 0.160583
vt 0.606678 0.132254
vt 0.623089 0.184011
vt 0.667328 0.195229
vt 0.129827 0.900369
vt 0.167318 0.898191
vt 0.956163 0.507279
vt 0.931758 0.432693
vt 0.197097 0.929974
vt 0.001512 0.231550
vt 0.073951 0.772764
vt 0.067753 0.788555
vt 0.052122 0.013432
vt 0.035815 0.038489
vt 0.021179 0.018699
vt 0.018560 0.047989
vt 0.048451 0.032884
vt 0.030508 0.122704
vt 0.013701 0.102928
vt 0.842114 0.616336
vt 0.886710 0.605019
vt 0.887210 0.652435
vt 0.983255 0.255666
vt 0.088228 0.594209
vt 0.049481 0.589351
vt 0.536458 0.685593
vt 0.565177 0.692481
vt 0.556815 0.701733
vt 0.941559 0.575441
vt 0.932523 0.575615
vt 0.907969 0.529064
vt 0.820374 0.778764
vt 0.772060 0.765966
vt 0.806831 0.735257
vt 0.924277 0.693656
vt 0.870410 0.783569
vt 0.849283 0.752499
vt 0.649537 0.235764
vt 0.567305 0.193621
vt 0.895101 0.483628
vt 0.871586 0.014942
vt 0.924942 0.033875
vt 0.894564 0.458480
vt 0.872860 0.471779
vt 0.336728 0.897567
vt 0.344359 0.852869
vt 0.368052 0.878943
vt 0.862104 0.001591
vt 0.878592 0.004647
vt 0.958578 0.766190
vt 0.963379 0.803874
vt 0.919081 0.796197
vt 0.739227 0.809772
vt 0.729871 0.779627
vt 0.743663 0.741812
vt 0.771507 0.370295
vt 0.762409 0.471990
vt 0.708239 0.399383
vt 0.056166 0.356173
vt 0.101126 0.341051
vt 0.082704 0.422428
vt 0.512796 0.464764
vt 0.541438 0.454455
vt 0.527589 0.491361
vt 0.644329 0.844675
vt 0.689524 0.807277
vt 0.694250 0.821621
vt 0.604127 0.873708
vt 0.658183 0.849159
vt 0.682178 0.857864
vt 0.858945 0.880992
vt 0.901564 0.852081
vt 0.911637 0.879255
vt 0.107345 0.645534
vt 0.134733 0.653329
vt 0.115109 0.689919
vt 0.163277 0.777573
vt 0.158083 0.816876
vt 0.123537 0.785553
vt 0.144561 0.743137
vt 0.620812 0.350281
vt 0.611514 0.343607
vt 0.662028 0.302252
vt 0.694703 0.587430
vt 0.676481 0.567301
vt 0.729904 0.607350
vt 0.936878 0.007034
vt 0.916365 0.001514
vt 0.944237 0.006639
vt 0.362062 0.137773
vt 0.567919 0.283427
vt 0.500562 0.241507
vt 0.681001 0.469054
vt 0.168314 0.655624
vt 0.190377 0.703864
vt 0.161595 0.693552
vt 0.548334 0.765052
vt 0.597219 0.787788
vt 0.537842 0.785955
vt 0.779030 0.564083
vt 0.249323 0.669678
vt 0.255106 0.718931
vt 0.229584 0.711411
vt 0.151908 0.048797
vt 0.619855 0.536215
vt 0.581940 0.477305
vt 0.581831 0.449765
vt 0.237822 0.094242
vt 0.228886 0.126241
vt 0.216046 0.078305
vt 0.154666 0.499285
vt 0.202317 0.500367
vt 0.644931 0.431985
vt 0.673971 0.395328
vt 0.615622 0.413682
vt 0.654548 0.144302
vt 0.194342 0.330742
vt 0.179980 0.381964
vt 0.294848 0.750664
vt 0.286081 0.734454
vt 0.317283 0.741997
vt 0.478466 0.003847
vt 0.498173 0.024464
vt 0.446570 0.013807
vt 0.274556 0.687644
vt 0.317662 0.686208
vt 0.231118 0.592149
vt 0.334452 0.732311
vt 0.652154 0.532261
vt 0.695229 0.605615
vt 0.188397 0.157411
vt 0.147756 0.141135
vt 0.037280 0.668599
vt 0.052185 0.691826
vt 0.042539 0.688467
vt 0.436781 0.936027
vt 0.484840 0.895855
vt 0.487702 0.921788
vt 0.017186 0.054035
vt 0.019703 0.070261
vt 0.005789 0.066534
vt 0.582175 0.393626
vt 0.561704 0.418874
vt 0.222410 0.405444
vt 0.223799 0.456126
vt 0.188484 0.444856
vt 0.245219 0.183619
vt 0.231242 0.160238
vt 0.240195 0.152621
vt 0.473828 0.445637
vt 0.475941 0.410535
vt 0.506405 0.440420
vt 0.347107 0.545723
vt 0.290122 0.546565
vt 0.285318 0.510468
vt 0.226769 0.768573
vt 0.236698 0.740635
vt 0.271529 0.800965
vt 0.047950 0.630175
vt 0.397573 0.542320
vt 0.412799 0.573045
vt 0.463056 0.515297
vt 0.433292 0.474731
vt 0.465468 0.474755
vt 0.200138 0.722715
vt 0.180768 0.667919
vt 0.213052 0.701626
vt 0.394811 0.408407
vt 0.442049 0.428538
vt 0.016790 0.792292
vt 0.002704 0.861789
vt 0.001508 0.843867
vt 0.821526 0.116432
vt 0.742812 0.108167
vt 0.952373 0.285348
vt 0.088448 0.996288
vt 0.013291 0.956007
vt 0.720297 0.282005
vt 0.753186 0.281923
vt 0.001511 0.068490
vt 0.023288 0.075712
vt 0.008865 0.086094
vt 0.034699 0.852867
vt 0.041868 0.826411
vt 0.966529 0.425029
vt 0.993865 0.472566
vt 0.973975 0.477499
vt 0.981528 0.564297
vt 0.970372 0.556980
vt 0.598588 0.090732
vt 0.581286 0.108035
vt 0.940898 0.089720
vt 0.914380 0.068080
vt 0.906151 0.050911
vt 0.853953 0.567078
vt 0.017784 0.934541
vt 0.948437 0.523080
vt 0.930232 0.472519
vt 0.493924 0.576974
vt 0.520600 0.553797
vt 0.504085 0.656934
vt 0.596169 0.709193
vt 0.597292 0.695543
vt 0.744738 0.676428
vt 0.739573 0.644355
vt 0.775522 0.653870
vt 0.986755 0.074808
vt 0.295983 0.937195
vt 0.262102 0.914610
vt 0.750948 0.846484
vt 0.375047 0.017077
vt 0.400546 0.001742
vt 0.455154 0.031657
vt 0.097946 0.717807
vt 0.084029 0.671139
vt 0.834683 0.853666
vt 0.596314 0.265331
vt 0.650845 0.279567
vt 0.691785 0.358200
vt 0.717064 0.324928
vt 0.655355 0.655590
vt 0.676635 0.673048
vt 0.648136 0.675836
vt 0.374905 0.903443
vt 0.827662 0.403802
vt 0.855190 0.408374
vt 0.852703 0.443113
vt 0.370297 0.932159
vt 0.330171 0.954164
vt 0.875426 0.452092
vt 0.865300 0.486601
vt 0.657625 0.705974
vt 0.629650 0.699068
vt 0.665497 0.360735
vt 0.137777 0.698347
vt 0.687634 0.746425
vt 0.646459 0.806482
vt 0.596179 0.764308
vt 0.627322 0.759001
vt 0.558268 0.746188
vt 0.178728 0.739811
vt 0.712075 0.686406
vt 0.682258 0.697029
vt 0.692388 0.643480
vt 0.202587 0.797014
vt 0.184672 0.845116
vt 0.137425 0.396894
vt 0.696798 0.045318
vt 0.665470 0.055263
vt 0.350518 0.812334
vt 0.359298 0.790177
vt 0.491935 0.763355
vt 0.517272 0.816433
vt 0.133508 0.450917
vt 0.438769 0.724602
vt 0.443562 0.781864
vt 0.374397 0.752501
vt 0.535877 0.005157
vt 0.398406 0.705797
vt 0.211240 0.279125
vt 0.763361 0.594140
vt 0.815166 0.601141
vt 0.185755 0.124414
vt 0.151353 0.025324
vt 0.868933 0.517933
vt 0.389376 0.231052
vt 0.351487 0.176161
vt 0.367380 0.167620
vt 0.558447 0.617891
vt 0.543751 0.607474
vt 0.479666 0.376904
vt 0.554365 0.655279
vt 0.265256 0.350116
vt 0.247474 0.294941
vt 0.289713 0.276957
vt 0.301886 0.218738
vt 0.257397 0.229561
vt 0.272785 0.174181
vt 0.060363 0.656077
vt 0.527267 0.521414
vt 0.532326 0.501140
vt 0.540564 0.516154
vt 0.450950 0.880689
vt 0.421183 0.879381
vt 0.405488 0.851076
vt 0.350607 0.189358
vt 0.347519 0.233284
vt 0.293325 0.162365
vt 0.388172 0.240128
vt 0.327953 0.352698
vt 0.293762 0.412263
vt 0.386224 0.840963
vt 0.087633 0.726208
vt 0.066453 0.711663
vt 0.046613 0.674435
vt 0.857490 0.037354
vt 0.864921 0.088592
vt 0.825175 0.041914
vt 0.930915 0.085570
vt 0.959937 0.167325
vt 0.912655 0.140365
vt 0.537270 0.041201
vt 0.579754 0.052582
vt 0.559059 0.061419
vt 0.684213 0.192508
vt 0.570200 0.104506
vt 0.702403 0.206832
vt 0.930229 0.539531
vt 0.897129 0.418231
vt 0.008464 0.001738
vt 0.756149 0.721934
vt 0.024135 0.420494
vt 0.072382 0.104896
vt 0.677292 0.290429
vt 0.709656 0.281758
vt 0.701692 0.322806
vt 0.095195 0.802377
vt 0.095459 0.762354
vt 0.950150 0.581830
vt 0.943905 0.553734
vt 0.628186 0.312792
vt 0.617262 0.905524
vt 0.529464 0.879981
vt 0.946831 0.834726
vt 0.557401 0.454788
vt 0.694075 0.768831
vt 0.203799 0.751549
vt 0.110118 0.110441
vt 0.266966 0.762405
vt 0.317667 0.760674
vt 0.606314 0.015030
vt 0.573127 0.032822
vt 0.026674 0.690806
vt 0.385629 0.660293
vt 0.351789 0.675692
vt 0.548995 0.340899
vt 0.584128 0.354869
vt 0.648253 0.035121
vt 0.618970 0.035497
vt 0.467650 0.035390
vt 0.433677 0.015776
vt 0.462304 0.020467
vt 0.629009 0.596522
vt 0.527499 0.581770
vt 0.582464 0.552867
vt 0.727665 0.556989
vt 0.358268 0.190171
vt 0.249394 0.488789
vt 0.522143 0.877366
vt 0.519978 0.890888
vt 0.488164 0.513076
vt 0.379025 0.597763
vt 0.329360 0.594246
vt 0.275638 0.465212
vt 0.305774 0.500354
vt 0.433995 0.540536
vt 0.456427 0.559952
vt 0.331550 0.283534
vt 0.683885 0.602920
vt 0.655758 0.592446
vt 0.447698 0.349973
vt 0.895199 0.075883
vt 0.099432 0.907500
vt 0.113660 0.885613
vt 0.761029 0.238482
vt 0.735752 0.241059
vt 0.015490 0.753553
vt 0.001509 0.783158
vt 0.964654 0.290671
vt 0.952896 0.026036
vt 0.991239 0.001964
vt 0.967260 0.030782
vt 0.038051 0.768112
vt 0.904269 0.595171
vt 0.871258 0.476761
vt 0.905078 0.530046
vt 0.713463 0.050754
vt 0.700521 0.047359
vt 0.732017 0.015123
vt 0.997333 0.548916
vt 0.516142 0.079509
vt 0.219322 0.255988
vt 0.788675 0.688880
vt 0.996308 0.131279
vt 0.977993 0.612131
vt 0.479831 0.677704
vt 0.503389 0.689671
vt 0.962806 0.147258
vt 0.112891 0.622419
vt 0.992143 0.088469
vt 0.998373 0.019683
vt 0.998372 0.105171
vt 0.942052 0.612319
vt 0.959647 0.679292
vt 0.694719 0.901358
vt 0.636182 0.933624
vt 0.679755 0.977936
vt 0.736232 0.934263
vt 0.750577 0.604877
vt 0.793332 0.602306
vt 0.824979 0.621392
vt 0.540048 0.442069
vt 0.336009 0.984639
vt 0.722032 0.517432
vt 0.838319 0.567852
vt 0.397265 0.142164
vt 0.352476 0.098724
vt 0.402042 0.070439
vt 0.650735 0.102445
vt 0.663962 0.134186
vt 0.950758 0.115261
vt 0.940858 0.099320
vt 0.950764 0.070107
vt 0.568053 0.068299
vt 0.558669 0.074681
vt 0.492414 0.037453
vt 0.674170 0.001521
vt 0.186409 0.214802
vt 0.884765 0.595152
vt 0.862546 0.568409
vt 0.239313 0.100201
vt 0.242356 0.132840
vt 0.230000 0.134956
vt 0.677521 0.612713
vt 0.688342 0.646665
vt 0.245188 0.516897
vt 0.277533 0.534879
vt 0.250329 0.536004
vt 0.257222 0.560272
vt 0.247217 0.163049
vt 0.502901 0.347048
vt 0.487826 0.364451
vt 0.459237 0.308839
vt 0.528870 0.675153
vt 0.510265 0.637670
vt 0.455537 0.308634
vt 0.728117 0.001513
vt 0.766051 0.001513
vt 0.730461 0.005693
vt 0.346519 0.426280
vt 0.383589 0.488453
vt 0.146458 0.033280
vt 0.113542 0.001510
vt 0.147564 0.001507
vt 0.839535 0.952823
vt 0.868422 0.926153
vt 0.306037 0.022683
vt 0.324091 0.029606
vt 0.341087 0.096978
vt 0.315499 0.003870
vt 0.366749 0.001554
vt 0.902561 0.898933
vt 0.861615 0.697851
vt 0.825692 0.700468
vt 0.827533 0.661579
vt 0.456784 0.686303
vt 0.466979 0.655753
vt 0.307512 0.882585
vt 0.718477 0.693219
vt 0.764912 0.877923
vt 0.828658 0.829293
vt 0.736321 0.916350
vt 0.797471 0.887040
vt 0.532340 0.433112
vt 0.056047 0.013780
vt 0.761780 0.307724
vt 0.775731 0.315626
vt 0.796313 0.348558
vt 0.385573 0.005173
vt 0.370861 0.015190
vt 0.378501 0.001938
vt 0.837508 0.005709
vt 0.834822 0.001533
vt 0.844293 0.001799
vt 0.660421 0.111754
vt 0.641550 0.083208
vt 0.659468 0.078414
vt 0.462847 0.207384
vt 0.586318 0.831809
vt 0.628892 0.848647
vt 0.552178 0.859434
vt 0.968226 0.745174
vt 0.952687 0.711581
vt 0.991462 0.730460
vt 0.596416 0.330904
vt 0.456557 0.818312
vt 0.437649 0.917849
vt 0.409248 0.937957
vt 0.275131 0.557030
vt 0.200022 0.207078
vt 0.221014 0.227784
vt 0.222873 0.249902
vt 0.226969 0.370726
vt 0.243682 0.422617
vt 0.456533 0.381145
vt 0.398566 0.277272
vt 0.877621 0.152257
vt 0.875156 0.061000
vt 0.032358 0.785559
vt 0.069825 0.826398
vt 0.018905 0.476511
vt 0.001675 0.520789
vt 0.419960 0.573657
vt 0.949461 0.022204
vt 0.943438 0.010761
vt 0.975505 0.001788
vt 0.833140 0.984409
vt 0.208090 0.261384
vt 0.200745 0.219145
vt 0.806806 0.633920
vt 0.633320 0.120214
vt 0.601152 0.088856
vt 0.618782 0.078671
vt 0.781551 0.804452
vt 0.120381 0.735465
vt 0.997943 0.773697
vt 0.592747 0.932678
vt 0.689211 0.003580
vt 0.721189 0.005395
vt 0.416266 0.196434
vt 0.442281 0.241290
vt 0.617917 0.542678
vt 0.425664 0.680877
vt 0.451992 0.675205
vt 0.279232 0.632024
vt 0.571738 0.001856
vt 0.415597 0.006603
vt 0.479986 0.571310
vt 0.446683 0.634647
vt 0.452774 0.596175
vt 0.603709 0.571902
vt 0.519269 0.060998
vt 0.434445 0.001522
vt 0.236800 0.632495
vt 0.220416 0.668487
vt 0.230374 0.623505
vt 0.205163 0.667306
vt 0.361886 0.022033
vt 0.333291 0.035770
vt 0.346529 0.018340
vt 0.415277 0.234496
vt 0.423868 0.904980
vt 0.425389 0.922442
vt 0.019298 0.001517
vt 0.042941 0.001577
vt 0.051415 0.010123
vt 0.026020 0.640552
vt 0.001601 0.600283
vt 0.899795 0.109849
vt 0.887338 0.107417
vt 0.892522 0.082329
vt 0.465555 0.262177
vt 0.447713 0.280383
vt 0.435529 0.261729
vt 0.325970 0.473821
vt 0.865767 0.499114
vt 0.041254 0.722470
vt 0.029306 0.709833
vt 0.056244 0.634318
vt 0.025263 0.063946
vt 0.945158 0.732108
vt 0.913370 0.770995
vt 0.950487 0.691985
vt 0.912661 0.644406
vt 0.936249 0.649310
vt 0.968811 0.866309
vt 0.707524 0.749155
vt 0.722003 0.743623
vt 0.725685 0.777717
vt 0.502254 0.992494
vt 0.544472 0.916505
vt 0.544472 0.978950
vt 0.510715 0.922923
vt 0.408665 0.615822
vt 0.472723 0.041875
vt 0.229818 0.524940
vt 0.298644 0.129559
vt 0.268546 0.110835
vt 0.247738 0.051138
vt 0.225409 0.192908
vt 0.499609 0.293930
vt 0.440857 0.892789
vt 0.453749 0.406074
vt 0.228558 0.185117
vt 0.250722 0.246235
vt 0.234203 0.276075
vt 0.232135 0.248606
vt 0.239110 0.279615
vt 0.227019 0.224814
vt 0.496948 0.729986
vt 0.482086 0.709758
vt 0.174872 0.002039
vt 0.792615 0.176875
vt 0.507430 0.037859
vt 0.012700 0.350090
vt 0.012651 0.015205
vt 0.001506 0.057557
vt 0.001506 0.001775
vt 0.692612 0.633126
vt 0.842746 0.723385
vt 0.801055 0.429456
vt 0.959944 0.610284
vt 0.905258 0.798058
vt 0.986992 0.672048
vt 0.911184 0.826872
vt 0.678071 0.296460
vt 0.684520 0.318398
vt 0.714930 0.719560
vt 0.732118 0.708563
vt 0.995640 0.820966
vt 0.661018 0.817703
vt 0.566065 0.430421
vt 0.161427 0.001548
vt 0.200706 0.674898
vt 0.388445 0.174291
vt 0.694406 0.570894
vt 0.046563 0.603705
vt 0.225509 0.337806
vt 0.598356 0.563593
vt 0.569280 0.474391
vt 0.549949 0.468597
vt 0.138001 0.874436
vt 0.177613 0.861069
vt 0.618174 0.356994
vt 0.623622 0.377345
vt 0.596308 0.378207
vt 0.002596 0.454173
vt 0.905293 0.005518
vt 0.666182 0.165238
vt 0.865345 0.041458
vt 0.885947 0.060745
vt 0.825696 0.409356
vt 0.720618 0.060614
vt 0.698961 0.085768
vt 0.698954 0.059908
vt 0.670796 0.949824
vt 0.122982 0.830892
vt 0.279039 0.041112
vt 0.324449 0.068255
vt 0.229470 0.001609
vt 0.273308 0.006810
vt 0.969301 0.278316
vt 0.957695 0.248480
vt 0.969296 0.229964
vt 0.629034 0.378718
vt 0.339008 0.040681
vt 0.405514 0.913618
vt 0.980765 0.690549
vt 0.953982 0.680233
vt 0.471536 0.733330
vt 0.504236 0.739625
vt 0.606977 0.400636
vt 0.390986 0.944865
vt 0.475395 0.024827
vt 0.245681 0.104260
vt 0.196618 0.001983
vt 0.229574 0.039126
vt 0.578259 0.091305
vt 0.830674 0.001538
vt 0.719591 0.177055
vt 0.234389 0.882694
vt 0.016682 0.829190
vt 0.022181 0.849912
vt 0.783030 0.638421
vt 0.863378 0.926718
vt 0.296582 0.040086
vt 0.273772 0.001507
vt 0.308087 0.001512
vt 0.269073 0.070004
vt 0.361961 0.701093
vt 0.987716 0.300078
vt 0.240788 0.458237
vt 0.250725 0.206140
vt 0.711537 0.223556
vt 0.950808 0.394159
vt 0.992689 0.410924
vt 0.973344 0.430271
vt 0.460303 0.569149
vt 0.916311 0.021760
vt 0.880822 0.001504
vt 0.898590 0.001511
vt 0.898769 0.013894
vt 0.974332 0.877428
vt 0.887639 0.489228
vt 0.383877 0.837925
vt 0.985572 0.687992
vt 0.818207 0.359883
vt 0.614914 0.294624
vt 0.296096 0.048203
vt 0.303711 0.031736
vt 0.313663 0.048212
vt 0.287958 0.584442
vt 0.827695 0.538233
vt 0.419432 0.244577
vt 0.718418 0.633394
vt 0.347486 0.094261
vt 0.353473 0.122228
vt 0.333897 0.107844
vt 0.792530 0.328741
vt 0.845399 0.367729
vt 0.700071 0.098848
vt 0.688936 0.139489
vt 0.378480 0.611339
vt 0.955888 0.042153
vt 0.631136 0.050189
vt 0.670680 0.023980
vt 0.655057 0.074106
vt 0.698268 0.277653
vt 0.725824 0.003532
vt 0.948130 0.614015
vt 0.712247 0.993773
vt 0.944273 0.001507
vt 0.701729 0.735624
vt 0.895167 0.438966
vt 0.624441 0.664365
vt 0.602970 0.705257
vt 0.463646 0.706274
vt 0.256538 0.615018
vt 0.015001 0.661783
vt 0.044638 0.703349
vt 0.979142 0.288817
vt 0.995869 0.262613
vt 0.649636 0.013346
vt 0.643268 0.027039
vt 0.663330 0.023933
vt 0.201314 0.028097
vt 0.019677 0.801686
vt 0.027451 0.563019
vt 0.708382 0.056728
vt 0.857642 0.017953
vt 0.880307 0.811446
vt 0.843371 0.013532
vt 0.200422 0.023573
vt 0.178677 0.001834
vt 0.193495 0.007122
vt 0.474712 0.705463
vt 0.741716 0.737936
vt 0.582760 0.871967
vt 0.297005 0.801322
vt 0.554834 0.042302
vt 0.597718 0.086593
vt 0.584098 0.074103
vt 0.605214 0.059053
vt 0.596003 0.050265
vt 0.473538 0.637839
vt 0.368137 0.154647
vt 0.388859 0.190540
vt 0.236117 0.804035
vt 0.523948 0.552978
vt 0.237151 0.834504
vt 0.268814 0.856740
vt 0.206927 0.819200
vt 0.004340 0.712492
vt 0.946285 0.069179
vt 0.515945 0.668865
vt 0.951472 0.042069
vt 0.486191 0.524772
vt 0.679857 0.281422
vt 0.800767 0.373026
vt 0.087324 0.752271
vt 0.983669 0.259433
vt 0.355371 0.943649
vt 0.876440 0.086645
vt 0.200815 0.001642
vt 0.220419 0.004525
vt 0.213525 0.016466
vt 0.727059 0.626560
vt 0.541323 0.408299
vt 0.501967 0.422128
vt 0.488024 0.370055
vt 0.243595 0.816557
vt 0.001506 0.109217
vt 0.226061 0.002890
vt 0.248135 0.041133
vt 0.215661 0.018937
vt 0.001871 0.066347
vt 0.966342 0.188683
vt 0.712079 0.739700
vt 0.002290 0.688055
vt 0.940584 0.386349
vt 0.588164 0.361275
vt 0.082589 0.769464
vt 0.529972 0.001520
vt 0.374990 0.001899
s 1
usemtl Toucan_Tris_Material
f 125/1/1 122/2/2 134/3/3
f 124/4/4 134/5/3 122/6/2
f 140/7/5 134/8/3 124/9/4
f 134/10/3 145/11/6 125/12/1
f 124/13/4 122/14/2 125/15/1
f 355/16/7 402/17/8 384/18/9
f 354/19/10 361/20/11 342/21/12
f 222/22/13 203/23/14 153/24/15
f 145/11/6 176/25/16 190/26/17
f 163/27/18 176/28/16 140/29/5
f 402/17/8 426/30/19 408/31/20
f 202/32/21 153/24/15 203/23/14
f 202/33/21 149/34/22 153/35/15
f 397/36/23 425/37/24 434/38/25
f 167/39/26 250/40/27 161/41/28
f 149/34/22 202/33/21 182/42/29
f 266/43/30 233/44/31 277/45/32
f 186/46/33 163/47/18 196/48/34
f 202/33/21 226/49/35 182/42/29
f 266/43/30 277/45/32 313/50/36
f 132/51/37 186/52/33 187/53/38
f 147/54/39 186/52/33 132/51/37
f 102/55/40 65/56/41 138/57/42
f 65/58/41 103/59/43 138/60/42
f 192/61/44 182/42/29 226/49/35
f 113/62/45 143/63/46 167/39/26
f 247/64/47 262/65/48 282/66/49
f 436/67/50 461/68/51 454/69/52
f 466/70/53 454/69/52 461/68/51
f 75/71/54 56/72/55 102/73/40
f 315/74/56 278/75/57 331/76/58
f 156/77/59 112/78/60 114/79/61
f 421/80/62 432/81/63 435/82/64
f 150/83/65 103/84/43 75/85/54
f 228/86/66 247/87/47 260/88/67
f 260/88/67 150/83/65 228/86/66
f 395/89/68 390/90/69 378/91/70
f 83/92/71 91/93/72 113/94/45
f 489/95/73 492/96/74 454/69/52
f 83/97/71 76/98/75 91/99/72
f 418/100/76 449/101/77 440/102/78
f 35/103/79 24/104/80 34/105/81
f 35/103/79 23/106/82 24/104/80
f 498/107/83 495/108/84 490/109/85
f 27/110/86 23/111/82 43/112/87
f 348/113/88 376/114/89 351/115/90
f 27/116/86 43/117/87 53/118/91
f 70/119/92 69/120/93 72/121/94
f 470/122/95 448/123/96 437/124/97
f 286/125/98 322/126/99 351/115/90
f 350/127/100 362/128/101 360/129/102
f 283/130/103 295/131/104 296/132/105
f 301/133/106 295/131/104 283/130/103
f 276/134/107 257/135/108 283/136/103
f 362/128/101 350/127/100 333/137/109
f 111/138/110 86/139/111 68/140/112
f 237/141/113 198/142/114 174/143/115
f 358/144/116 368/145/117 362/128/101
f 368/145/117 358/144/116 341/146/118
f 491/147/119 471/148/120 472/149/121
f 257/150/108 210/151/122 185/152/123
f 453/153/124 487/154/125 456/155/126
f 96/156/127 63/157/128 57/158/129
f 452/159/130 462/160/131 472/149/121
f 152/161/132 106/162/133 155/163/134
f 180/164/135 162/165/136 155/163/134
f 162/165/136 180/164/135 191/166/137
f 275/167/138 325/168/139 357/169/140
f 214/170/141 191/166/137 180/164/135
f 170/171/142 259/172/143 253/173/144
f 224/174/145 275/167/138 274/175/146
f 243/176/147 256/177/148 221/178/149
f 162/165/136 191/166/137 178/179/150
f 344/180/151 369/181/152 374/182/153
f 133/183/154 123/184/155 119/185/156
f 123/184/155 133/183/154 135/186/157
f 119/187/156 123/188/155 121/189/158
f 397/36/23 388/190/159 409/191/160
f 203/192/14 329/193/161 261/194/162
f 409/195/160 421/80/62 425/196/24
f 405/197/163 409/195/160 370/198/164
f 183/199/165 151/200/166 161/41/28
f 425/37/24 457/201/167 443/202/168
f 92/203/169 167/39/26 161/41/28
f 436/67/50 447/204/170 461/68/51
f 83/97/71 113/62/45 92/203/169
f 131/205/171 102/73/40 132/206/37
f 258/207/172 317/208/173 321/209/174
f 317/208/173 319/210/175 321/209/174
f 499/211/176 494/212/177 479/213/178
f 245/214/179 281/215/180 225/216/181
f 75/85/54 103/84/43 56/217/55
f 378/91/70 324/218/182 332/219/183
f 337/220/184 310/221/185 303/222/186
f 260/223/67 247/224/47 284/225/187
f 60/226/188 59/227/189 97/228/190
f 225/216/181 216/229/191 156/77/59
f 112/78/60 87/230/192 95/231/193
f 373/232/194 403/233/195 405/197/163
f 302/234/196 260/223/67 284/225/187
f 260/88/67 302/235/196 303/236/186
f 320/237/197 302/234/196 317/238/173
f 73/239/198 81/240/199 66/241/200
f 345/242/201 330/243/202 302/235/196
f 166/244/203 129/245/204 105/246/205
f 50/247/206 48/248/207 59/227/189
f 48/248/207 66/249/200 59/227/189
f 199/250/208 128/251/209 220/252/210
f 445/253/211 427/254/212 412/255/213
f 418/100/76 432/81/63 403/233/195
f 475/256/214 478/257/215 468/258/216
f 28/259/217 41/260/218 38/261/219
f 15/262/220 30/263/221 26/264/222
f 128/251/209 113/94/45 91/93/72
f 47/265/223 62/266/224 52/267/225
f 308/268/226 338/269/227 280/270/228
f 230/271/229 172/272/230 206/273/231
f 240/274/232 230/271/229 206/273/231
f 340/275/233 360/276/102 346/277/234
f 2/278/235 8/279/236 1/280/237
f 8/281/236 2/282/235 13/283/238
f 35/284/79 43/112/87 23/111/82
f 387/285/239 415/286/240 418/100/76
f 128/251/209 197/287/241 220/252/210
f 299/288/242 248/289/243 290/290/244
f 31/291/245 21/292/246 32/293/247
f 91/93/72 88/294/248 128/251/209
f 248/295/243 218/296/249 252/297/250
f 483/298/251 498/107/83 490/109/85
f 456/299/126 467/300/252 476/301/253
f 491/302/119 486/303/254 471/304/120
f 391/305/255 382/306/256 351/115/90
f 197/287/241 238/307/257 265/308/258
f 265/308/258 238/307/257 285/309/259
f 296/132/105 295/131/104 336/310/260
f 437/124/97 430/311/261 416/312/262
f 126/313/263 171/314/264 108/315/265
f 78/316/266 111/317/110 68/318/112
f 171/314/264 209/319/267 213/320/268
f 263/321/269 286/125/98 351/115/90
f 213/320/268 120/322/270 108/315/265
f 460/323/271 441/324/272 456/299/126
f 474/325/273 482/326/274 483/298/251
f 316/327/275 298/328/276 326/329/277
f 208/330/278 256/331/148 246/332/279
f 309/333/280 357/334/140 347/335/281
f 341/336/118 285/309/259 311/337/282
f 411/338/283 398/339/284 407/340/285
f 194/341/286 201/342/287 210/343/122
f 155/163/134 162/165/136 152/161/132
f 189/344/288 211/345/289 170/346/142
f 241/347/290 263/348/269 339/349/291
f 200/350/292 189/351/288 144/352/293
f 243/353/147 224/174/145 274/175/146
f 229/354/294 178/355/150 241/347/290
f 179/356/295 234/357/296 200/358/292
f 279/359/297 344/360/151 270/361/298
f 272/362/299 279/363/297 234/357/296
f 160/364/300 125/365/1 145/366/6
f 222/22/13 249/367/301 305/368/302
f 409/191/160 388/190/159 375/369/303
f 425/37/24 397/36/23 409/191/160
f 167/39/26 199/370/208 250/40/27
f 199/370/208 273/371/304 250/40/27
f 304/372/305 370/198/164 273/373/304
f 187/374/38 186/375/33 196/376/34
f 186/377/33 212/378/306 163/27/18
f 439/379/307 451/380/308 450/381/309
f 493/382/310 477/383/311 450/381/309
f 132/384/37 102/55/40 147/385/39
f 300/386/312 310/387/185 288/388/313
f 293/389/314 281/215/180 245/214/179
f 103/59/43 65/58/41 56/390/55
f 458/391/315 455/392/316 443/202/168
f 457/393/167 458/394/315 443/395/168
f 278/396/57 310/221/185 300/397/312
f 93/398/317 100/399/318 142/400/319
f 315/74/56 227/401/320 278/75/57
f 73/239/198 71/402/321 79/403/322
f 71/402/321 83/97/71 79/403/322
f 26/264/222 50/247/206 39/404/323
f 480/405/324 484/406/325 469/407/326
f 403/233/195 432/81/63 421/80/62
f 280/270/228 251/408/327 281/409/180
f 26/264/222 30/263/221 38/261/219
f 47/265/223 44/410/328 62/266/224
f 389/411/329 373/232/194 371/412/330
f 220/252/210 268/413/331 258/414/172
f 67/415/332 66/416/200 55/417/333
f 66/241/200 67/418/332 73/239/198
f 28/419/217 33/420/334 41/421/218
f 67/418/332 72/422/94 73/239/198
f 73/239/198 69/423/93 71/402/321
f 41/421/218 45/424/335 48/425/207
f 48/426/207 45/427/335 55/417/333
f 287/428/336 268/413/331 265/308/258
f 240/274/232 292/429/337 290/290/244
f 21/292/246 14/430/338 11/431/339
f 25/432/340 20/433/341 21/292/246
f 33/434/334 25/432/340 31/291/245
f 252/435/250 230/271/229 240/274/232
f 64/436/342 52/437/225 104/438/343
f 172/272/230 165/439/344 104/440/343
f 437/124/97 416/312/262 419/441/345
f 467/442/252 487/154/125 483/443/251
f 53/118/91 64/444/342 74/445/346
f 40/446/347 32/293/247 29/447/348
f 404/448/349 407/340/285 391/305/255
f 58/449/350 40/446/347 46/450/351
f 61/451/352 58/449/350 46/450/351
f 208/452/278 111/317/110 78/316/266
f 58/449/350 61/451/352 94/453/353
f 433/454/354 430/311/261 448/123/96
f 85/455/355 88/294/248 70/456/92
f 472/149/121 460/457/271 476/458/253
f 210/151/122 173/459/356 185/152/123
f 57/158/129 86/460/111 96/156/127
f 173/461/356 177/462/357 96/156/127
f 115/463/358 99/464/359 106/162/133
f 311/337/282 285/309/259 253/173/144
f 211/345/289 259/465/143 170/346/142
f 152/161/132 148/466/360 115/463/358
f 259/172/143 311/337/282 253/173/144
f 406/467/361 429/468/362 414/469/363
f 420/470/364 414/469/363 433/471/354
f 442/472/365 420/470/364 433/471/354
f 215/473/366 224/174/145 243/353/147
f 158/474/367 194/475/286 188/476/368
f 221/477/149 184/478/369 164/479/370
f 410/480/371 401/481/372 423/482/373
f 386/483/374 401/481/372 410/480/371
f 406/467/361 383/484/375 381/485/376
f 139/486/377 164/479/370 184/478/369
f 123/487/155 135/488/157 188/489/368
f 169/490/378 255/491/379 195/492/380
f 250/493/27 273/494/304 291/495/381
f 205/496/382 244/497/383 233/498/31
f 370/198/164 375/499/303 273/373/304
f 435/82/64 439/500/307 421/80/62
f 186/52/33 147/54/39 212/501/306
f 477/383/311 457/201/167 450/381/309
f 479/213/178 466/70/53 447/204/170
f 479/502/178 447/503/170 434/38/25
f 258/414/172 304/372/305 199/250/208
f 258/207/172 321/209/174 304/504/305
f 79/403/322 83/97/71 92/203/169
f 454/69/52 466/70/53 489/95/73
f 59/227/189 81/505/199 97/228/190
f 413/506/384 412/255/213 395/89/68
f 330/243/202 303/236/186 302/235/196
f 494/212/177 496/507/385 489/95/73
f 320/508/197 258/509/172 268/510/331
f 206/273/231 166/511/203 223/512/386
f 468/513/216 464/514/387 458/391/315
f 47/265/223 34/105/81 44/410/328
f 454/69/52 427/254/212 445/253/211
f 364/515/388 371/412/330 346/277/234
f 9/516/389 8/517/236 15/262/220
f 109/518/390 52/267/225 62/266/224
f 404/448/349 391/305/255 390/90/69
f 473/519/391 467/300/252 478/257/215
f 14/430/338 2/520/235 11/431/339
f 14/430/338 21/292/246 20/433/341
f 470/122/95 437/124/97 427/254/212
f 419/441/345 427/254/212 437/124/97
f 218/521/249 165/439/344 252/435/250
f 498/107/83 482/326/274 497/522/392
f 165/523/344 126/313/263 101/524/393
f 74/445/346 64/444/342 101/524/393
f 208/452/278 246/525/279 219/526/394
f 391/305/255 407/340/285 382/306/256
f 326/329/277 336/527/260 316/327/275
f 174/143/115 116/528/395 130/529/396
f 171/314/264 213/320/268 108/315/265
f 380/530/397 368/531/117 341/336/118
f 325/532/139 301/133/106 269/533/398
f 325/534/139 269/535/398 328/536/399
f 146/537/400 155/163/134 106/162/133
f 85/538/355 77/539/401 99/464/359
f 118/540/402 88/294/248 85/455/355
f 86/460/111 141/541/403 96/156/127
f 339/349/291 263/348/269 365/542/404
f 357/543/140 309/544/280 256/331/148
f 221/477/149 256/331/148 208/330/278
f 170/346/142 144/545/293 189/344/288
f 191/546/137 231/547/405 241/347/290
f 339/349/291 372/548/406 323/549/407
f 178/355/150 191/546/137 241/347/290
f 181/550/408 148/551/360 178/355/150
f 383/484/375 414/469/363 394/552/409
f 164/553/370 215/554/366 221/178/149
f 374/182/153 307/555/410 344/180/151
f 234/357/296 279/363/297 200/358/292
f 305/368/302 203/23/14 222/22/13
f 291/495/381 239/556/411 250/493/27
f 239/557/411 207/558/412 183/199/165
f 400/559/413 408/31/20 392/560/414
f 235/561/415 160/364/300 190/562/17
f 375/369/303 370/563/164 409/191/160
f 138/57/42 147/385/39 102/55/40
f 262/564/48 313/565/36 300/566/312
f 131/205/171 132/206/37 187/567/38
f 466/70/53 479/213/178 494/212/177
f 479/568/178 434/569/25 455/570/316
f 313/571/36 331/572/58 300/573/312
f 469/574/326 450/381/309 451/380/308
f 435/82/64 440/102/78 451/575/308
f 445/253/211 412/255/213 413/506/384
f 284/576/187 247/64/47 282/66/49
f 93/398/317 127/577/416 81/505/199
f 150/83/65 204/578/417 103/84/43
f 469/574/326 484/579/325 493/382/310
f 359/580/418 337/220/184 330/581/202
f 330/581/202 337/220/184 303/222/186
f 131/582/171 228/86/66 150/83/65
f 308/268/226 324/218/182 343/583/419
f 499/584/176 479/585/178 488/586/420
f 479/568/178 464/587/387 488/588/420
f 199/250/208 220/252/210 258/414/172
f 48/248/207 50/247/206 38/261/219
f 16/589/421 6/590/422 9/516/389
f 41/260/218 48/248/207 38/261/219
f 348/113/88 324/218/182 376/114/89
f 24/104/80 7/591/423 22/592/424
f 427/254/212 454/69/52 470/122/95
f 3/593/425 6/594/422 7/595/423
f 292/429/337 280/270/228 338/269/227
f 290/290/244 292/429/337 338/269/227
f 481/596/426 473/519/391 478/257/215
f 69/423/93 70/597/92 76/98/75
f 290/290/244 248/289/243 252/435/250
f 197/287/241 128/251/209 137/598/427
f 76/599/75 70/456/92 88/294/248
f 459/600/428 471/601/120 465/602/429
f 295/131/104 333/603/109 350/604/100
f 219/526/394 269/533/398 283/130/103
f 498/107/83 483/298/251 482/326/274
f 283/605/103 257/606/108 219/607/394
f 269/533/398 301/133/106 283/130/103
f 326/608/277 298/609/276 276/610/107
f 77/539/401 85/538/355 70/119/92
f 86/139/111 57/611/129 68/140/112
f 463/612/430 448/123/96 482/326/274
f 267/613/431 232/614/432 257/150/108
f 325/615/139 294/616/433 301/617/106
f 214/170/141 180/164/135 198/618/114
f 214/170/141 198/618/114 231/619/405
f 285/620/259 341/621/118 314/622/434
f 341/621/118 334/623/435 314/622/434
f 106/162/133 152/161/132 115/463/358
f 433/471/354 463/624/430 442/472/365
f 341/336/118 311/337/282 380/530/397
f 311/337/282 385/625/436 380/530/397
f 162/165/136 148/466/360 152/161/132
f 385/625/436 386/626/374 410/627/371
f 179/628/295 144/629/293 148/466/360
f 374/182/153 311/630/282 307/555/410
f 181/550/408 179/356/295 148/551/360
f 133/631/154 158/632/367 135/633/157
f 349/634/437 272/362/299 236/635/438
f 354/19/10 375/369/303 388/190/159
f 466/636/53 461/637/51 447/638/170
f 329/193/161 332/639/183 293/640/314
f 304/641/305 352/642/439 373/643/194
f 352/642/439 321/644/174 335/645/440
f 226/49/35 261/194/162 245/646/179
f 245/646/179 192/61/44 226/49/35
f 159/647/441 136/648/442 175/649/443
f 371/650/330 352/651/439 359/580/418
f 80/652/444 73/239/198 79/403/322
f 81/505/199 80/653/444 93/398/317
f 81/240/199 73/239/198 80/652/444
f 26/264/222 38/261/219 50/247/206
f 36/654/445 39/404/323 44/655/328
f 449/101/77 451/575/308 440/102/78
f 492/96/74 489/95/73 496/507/385
f 475/256/214 468/258/216 458/394/315
f 22/656/424 36/654/445 34/657/81
f 44/655/328 34/657/81 36/654/445
f 499/211/176 496/507/385 494/212/177
f 475/256/214 485/658/446 481/596/426
f 412/255/213 404/448/349 390/90/69
f 488/659/420 495/108/84 499/211/176
f 8/660/236 14/661/338 17/662/447
f 12/663/448 14/664/338 8/665/236
f 13/666/238 12/667/448 8/668/236
f 490/669/85 495/670/84 478/671/215
f 459/600/428 418/100/76 428/672/449
f 18/673/450 5/674/451 19/675/452
f 5/674/451 18/673/450 11/431/339
f 27/116/86 29/447/348 19/675/452
f 72/676/94 51/677/453 82/678/454
f 32/293/247 40/446/347 31/291/245
f 380/530/397 366/679/455 368/531/117
f 46/450/351 37/680/456 53/118/91
f 456/299/126 476/301/253 460/323/271
f 108/315/265 61/451/352 101/524/393
f 198/618/114 180/164/135 146/537/400
f 193/681/457 208/330/278 107/682/458
f 237/141/113 231/547/405 198/142/114
f 170/171/142 137/598/427 118/540/402
f 358/683/116 334/623/435 341/621/118
f 85/538/355 99/464/359 144/629/293
f 441/684/272 431/685/459 417/686/460
f 411/687/283 406/467/361 396/688/461
f 420/470/364 423/482/373 401/481/372
f 178/179/150 148/466/360 162/165/136
f 307/555/410 271/689/462 344/180/151
f 401/481/372 379/690/463 369/181/152
f 200/350/292 279/359/297 189/351/288
f 327/691/464 291/495/381 361/20/11
f 239/556/411 255/491/379 207/692/412
f 244/693/383 205/694/382 212/378/306
f 393/695/465 378/91/70 367/696/466
f 235/561/415 187/567/38 160/364/300
f 262/697/48 233/44/31 266/43/30
f 244/698/383 277/699/32 233/700/31
f 413/506/384 395/89/68 393/695/465
f 167/39/26 92/203/169 113/62/45
f 435/82/64 451/575/308 439/500/307
f 329/193/161 363/701/467 332/639/183
f 370/198/164 373/232/194 405/197/163
f 288/702/313 312/703/468 284/576/187
f 245/214/179 175/649/443 192/704/44
f 75/71/54 102/73/40 131/205/171
f 204/705/417 227/706/320 244/707/383
f 114/79/61 112/78/60 95/231/193
f 44/655/328 39/404/323 54/708/469
f 251/408/327 264/709/470 223/512/386
f 71/402/321 76/98/75 83/97/71
f 166/244/203 206/710/231 129/245/204
f 48/426/207 55/417/333 66/416/200
f 30/263/221 28/259/217 38/261/219
f 8/517/236 9/516/389 3/711/425
f 240/274/232 264/709/470 292/429/337
f 280/270/228 292/429/337 264/709/470
f 496/507/385 497/522/392 492/96/74
f 498/107/83 497/522/392 496/507/385
f 351/115/90 376/114/89 391/305/255
f 467/442/252 490/712/85 478/713/215
f 497/522/392 482/326/274 492/96/74
f 404/448/349 419/441/345 407/340/285
f 444/714/471 428/672/449 438/715/472
f 46/450/351 29/447/348 37/680/456
f 82/716/454 77/539/401 72/121/94
f 61/451/352 74/445/346 101/524/393
f 94/453/353 90/717/473 58/449/350
f 90/717/473 82/718/454 58/449/350
f 213/320/268 254/719/474 237/141/113
f 237/141/113 174/143/115 213/320/268
f 86/139/111 111/138/110 141/720/403
f 68/318/112 57/721/129 78/316/266
f 99/722/359 84/723/475 106/724/133
f 77/539/401 84/725/475 99/464/359
f 289/726/476 276/610/107 298/609/276
f 63/727/128 78/316/266 57/721/129
f 306/728/477 294/729/433 289/730/476
f 294/729/433 267/731/431 289/730/476
f 173/732/356 96/733/127 141/734/403
f 438/715/472 446/735/478 444/714/471
f 201/736/287 193/681/457 177/737/357
f 232/738/432 267/739/431 294/740/433
f 275/167/138 232/741/432 294/742/433
f 210/743/122 201/744/287 173/745/356
f 424/746/479 417/747/460 431/748/459
f 144/629/293 99/464/359 148/466/360
f 429/468/362 433/471/354 414/469/363
f 323/549/407 297/749/480 241/347/290
f 394/552/409 401/481/372 369/181/152
f 327/691/464 249/367/301 255/491/379
f 153/24/15 195/492/380 222/22/13
f 408/31/20 384/18/9 402/17/8
f 233/750/31 190/26/17 176/25/16
f 434/38/25 426/30/19 397/36/23
f 273/494/304 375/369/303 354/19/10
f 239/557/411 183/199/165 161/41/28
f 161/41/28 250/40/27 239/557/411
f 228/751/66 235/561/415 247/752/47
f 175/649/443 142/400/319 192/704/44
f 324/218/182 281/409/180 293/753/314
f 317/208/173 312/754/468 319/210/175
f 278/396/57 303/222/186 310/221/185
f 494/212/177 489/95/73 466/70/53
f 216/229/191 166/755/203 156/77/59
f 156/77/59 105/756/205 112/78/60
f 469/407/326 451/575/308 449/101/77
f 223/757/386 242/758/481 251/759/327
f 449/101/77 465/602/429 469/407/326
f 280/270/228 281/409/180 308/268/226
f 16/589/421 36/654/445 22/656/424
f 343/583/419 324/218/182 348/113/88
f 24/104/80 22/592/424 34/105/81
f 343/583/419 338/269/227 308/268/226
f 71/402/321 69/423/93 76/98/75
f 418/100/76 403/233/195 387/285/239
f 389/411/329 387/285/239 403/233/195
f 109/518/390 104/760/343 52/267/225
f 492/96/74 470/122/95 454/69/52
f 481/761/426 485/762/446 486/763/254
f 415/286/240 428/672/449 418/100/76
f 197/287/241 265/308/258 220/252/210
f 350/764/100 340/765/233 336/766/260
f 350/764/100 360/767/102 340/765/233
f 448/123/96 430/311/261 437/124/97
f 198/142/114 146/768/400 116/528/395
f 146/768/400 84/723/475 116/528/395
f 289/726/476 267/769/431 276/610/107
f 263/321/269 351/115/90 365/770/404
f 441/771/272 453/772/124 456/773/126
f 462/160/131 452/159/130 446/774/478
f 99/464/359 115/463/358 148/466/360
f 410/627/371 424/746/479 399/775/482
f 263/348/269 241/347/290 231/547/405
f 410/627/371 399/775/482 385/625/436
f 417/747/460 424/746/479 410/627/371
f 184/478/369 221/477/149 217/776/483
f 211/345/289 189/344/288 270/777/298
f 184/778/369 194/341/286 133/779/154
f 374/182/153 379/690/463 311/630/282
f 401/481/372 386/483/374 379/690/463
f 229/354/294 181/550/408 178/355/150
f 381/485/376 383/484/375 349/634/437
f 181/550/408 236/635/438 234/357/296
f 272/362/299 234/357/296 236/635/438
f 344/180/151 272/362/299 369/181/152
f 121/780/158 139/781/377 119/782/156
f 121/780/158 164/783/370 139/781/377
f 249/367/301 327/691/464 355/16/7
f 255/491/379 249/367/301 195/492/380
f 124/13/4 168/784/484 163/785/18
f 163/786/18 140/7/5 124/9/4
f 169/490/378 207/692/412 255/491/379
f 384/18/9 400/559/413 356/787/485
f 163/27/18 205/694/382 176/28/16
f 176/788/16 205/496/382 233/498/31
f 262/697/48 266/43/30 313/50/36
f 454/69/52 422/789/486 436/67/50
f 312/790/468 288/791/313 319/792/175
f 93/398/317 98/793/487 100/399/318
f 80/653/444 98/793/487 93/398/317
f 142/400/319 175/649/443 127/577/416
f 95/231/193 117/794/488 114/79/61
f 199/250/208 143/795/46 128/251/209
f 475/796/214 477/383/311 484/579/325
f 54/708/469 60/226/188 44/655/328
f 44/655/328 87/230/192 89/797/489
f 488/588/420 464/587/387 478/798/215
f 44/410/328 89/799/489 62/266/224
f 109/518/390 89/799/489 129/245/204
f 346/277/234 345/800/201 320/801/197
f 475/802/214 484/803/325 485/762/446
f 35/103/79 47/265/223 52/267/225
f 340/275/233 320/801/197 287/428/336
f 340/275/233 346/277/234 320/801/197
f 172/804/230 104/760/343 109/518/390
f 360/276/102 364/515/388 346/277/234
f 25/432/340 33/434/334 20/433/341
f 11/431/339 4/805/490 5/674/451
f 486/806/254 476/301/253 481/596/426
f 348/113/88 351/115/90 322/126/99
f 428/672/449 444/714/471 459/600/428
f 476/458/253 486/807/254 491/147/119
f 46/450/351 40/446/347 29/447/348
f 286/125/98 254/808/474 322/126/99
f 209/319/267 248/295/243 254/719/474
f 88/294/248 118/540/402 137/598/427
f 444/714/471 452/809/130 459/600/428
f 431/748/459 438/715/472 424/746/479
f 459/600/428 452/809/130 471/601/120
f 433/454/354 448/123/96 463/612/430
f 463/612/430 482/326/274 474/325/273
f 416/312/262 411/338/283 407/340/285
f 430/311/261 411/338/283 416/312/262
f 193/681/457 221/477/149 208/330/278
f 170/171/142 118/540/402 144/810/293
f 274/175/146 357/169/140 256/811/148
f 429/812/362 411/338/283 430/311/261
f 243/176/147 274/813/146 256/177/148
f 396/688/461 372/548/406 365/542/404
f 224/814/145 188/476/368 232/815/432
f 271/689/462 307/555/410 259/465/143
f 394/552/409 414/469/363 420/470/364
f 369/181/152 272/362/299 383/484/375
f 119/782/156 139/781/377 133/779/154
f 356/787/485 355/16/7 384/18/9
f 195/492/380 249/367/301 222/22/13
f 402/17/8 397/36/23 426/30/19
f 151/200/166 169/816/378 157/817/491
f 447/503/170 426/30/19 434/38/25
f 233/818/31 235/819/415 190/820/17
f 413/506/384 393/695/465 392/821/414
f 293/640/314 261/194/162 329/193/161
f 244/698/383 353/822/492 277/699/32
f 450/381/309 469/574/326 493/382/310
f 65/56/41 102/55/40 56/823/55
f 288/388/313 310/387/185 335/824/440
f 310/387/185 337/825/184 335/824/440
f 324/218/182 293/753/314 332/219/183
f 143/795/46 199/250/208 167/826/26
f 175/649/443 245/214/179 225/216/181
f 142/400/319 127/577/416 93/398/317
f 324/218/182 308/268/226 281/409/180
f 95/231/193 87/230/192 60/226/188
f 258/827/172 320/828/197 317/829/173
f 9/516/389 26/264/222 16/589/421
f 469/407/326 465/602/429 480/405/324
f 22/656/424 7/830/423 16/589/421
f 7/830/423 6/590/422 16/589/421
f 481/596/426 478/257/215 475/256/214
f 206/273/231 172/272/230 129/831/204
f 72/422/94 69/423/93 73/239/198
f 23/111/82 10/832/493 24/833/80
f 10/832/493 5/834/451 7/835/423
f 2/836/235 1/837/237 4/838/490
f 481/596/426 476/301/253 473/519/391
f 290/290/244 252/435/250 240/274/232
f 287/428/336 318/839/494 340/275/233
f 465/602/429 486/840/254 480/405/324
f 486/840/254 465/602/429 471/601/120
f 51/841/453 72/422/94 67/418/332
f 492/96/74 448/123/96 470/122/95
f 380/530/397 387/285/239 366/679/455
f 58/842/350 51/677/453 49/843/495
f 82/678/454 51/677/453 58/842/350
f 49/844/495 42/845/496 40/446/347
f 492/96/74 482/326/274 448/123/96
f 314/846/434 318/839/494 285/309/259
f 295/131/104 350/604/100 336/310/260
f 174/143/115 130/529/396 213/320/268
f 78/847/266 107/682/458 208/330/278
f 267/769/431 257/848/108 276/610/107
f 180/164/135 155/163/134 146/537/400
f 474/849/273 483/850/251 487/851/125
f 399/775/482 380/530/397 385/625/436
f 334/852/435 289/726/476 298/609/276
f 460/457/271 472/149/121 462/160/131
f 444/714/471 446/735/478 452/809/130
f 394/552/409 369/181/152 383/484/375
f 249/367/301 355/16/7 356/787/485
f 291/495/381 342/21/12 361/20/11
f 157/853/491 195/492/380 153/24/15
f 157/853/491 169/490/378 195/492/380
f 392/560/414 367/854/466 400/559/413
f 151/200/166 157/817/491 98/855/487
f 352/642/439 304/641/305 321/644/174
f 245/646/179 261/194/162 293/640/314
f 204/856/417 212/378/306 147/857/39
f 147/857/39 138/60/42 103/59/43
f 131/205/171 187/567/38 228/751/66
f 225/216/181 159/647/441 175/649/443
f 223/757/386 166/755/203 216/229/191
f 131/582/171 150/83/65 75/85/54
f 87/230/192 44/655/328 60/226/188
f 475/256/214 458/394/315 457/393/167
f 280/270/228 264/709/470 251/408/327
f 3/711/425 9/516/389 6/590/422
f 35/103/79 34/105/81 47/265/223
f 7/595/423 5/858/451 3/593/425
f 52/267/225 43/859/87 35/103/79
f 376/114/89 390/90/69 391/305/255
f 299/288/242 338/269/227 348/113/88
f 290/860/244 338/861/227 299/862/242
f 299/288/242 348/113/88 322/126/99
f 19/863/452 5/834/451 10/832/493
f 31/291/245 25/432/340 21/292/246
f 76/599/75 88/294/248 91/93/72
f 31/291/245 40/446/347 42/845/496
f 77/539/401 70/119/92 72/121/94
f 126/313/263 108/315/265 101/524/393
f 110/864/497 116/528/395 94/453/353
f 130/529/396 116/528/395 110/864/497
f 108/315/265 120/322/270 61/451/352
f 362/128/101 306/865/477 358/144/116
f 423/482/373 442/472/365 474/849/273
f 396/866/461 365/770/404 398/339/284
f 232/815/432 188/476/368 194/475/286
f 158/867/367 133/779/154 194/341/286
f 369/181/152 379/690/463 374/182/153
f 400/559/413 367/854/466 356/787/485
f 393/868/465 367/854/466 392/560/414
f 413/506/384 392/821/414 422/789/486
f 439/869/307 425/870/24 421/871/62
f 439/379/307 450/381/309 425/37/24
f 199/250/208 304/372/305 273/373/304
f 378/91/70 393/695/465 395/89/68
f 262/697/48 235/872/415 233/44/31
f 315/873/56 353/822/492 244/698/383
f 315/874/56 331/875/58 353/876/492
f 204/856/417 244/693/383 212/378/306
f 149/34/22 182/42/29 142/877/319
f 405/197/163 403/233/195 421/80/62
f 445/253/211 422/789/486 454/69/52
f 114/79/61 159/647/441 156/77/59
f 312/878/468 317/238/173 302/234/196
f 59/879/189 66/241/200 81/240/199
f 264/709/470 206/273/231 223/512/386
f 432/81/63 418/100/76 440/102/78
f 9/516/389 15/262/220 26/264/222
f 478/798/215 495/880/84 488/588/420
f 33/420/334 28/419/217 20/881/341
f 318/839/494 287/428/336 265/308/258
f 11/431/339 2/520/235 4/805/490
f 360/276/102 366/679/455 364/515/388
f 364/515/388 366/679/455 377/882/498
f 387/285/239 377/882/498 366/679/455
f 53/118/91 43/117/87 64/444/342
f 476/301/253 467/300/252 473/519/391
f 248/295/243 209/319/267 218/296/249
f 116/528/395 84/723/475 90/717/473
f 120/322/270 110/864/497 61/451/352
f 94/453/353 61/451/352 110/864/497
f 110/864/497 120/322/270 213/320/268
f 253/173/144 285/309/259 238/307/257
f 253/173/144 238/307/257 197/287/241
f 325/883/139 328/884/399 347/885/281
f 256/331/148 309/544/280 246/332/279
f 286/886/98 231/547/405 237/141/113
f 474/849/273 442/472/365 463/624/430
f 224/174/145 232/741/432 275/167/138
f 201/736/287 217/776/483 193/681/457
f 217/776/483 221/477/149 193/681/457
f 431/748/459 446/735/478 438/715/472
f 446/774/478 441/684/272 462/160/131
f 232/614/432 194/887/286 210/151/122
f 396/866/461 398/339/284 411/338/283
f 365/542/404 372/548/406 339/349/291
f 442/472/365 423/482/373 420/470/364
f 441/771/272 410/480/371 423/482/373
f 417/747/460 410/627/371 441/888/272
f 372/548/406 396/688/461 381/485/376
f 372/548/406 297/749/480 323/549/407
f 215/473/366 123/487/155 188/489/368
f 215/554/366 164/553/370 123/889/155
f 249/367/301 356/787/485 305/368/302
f 397/36/23 355/16/7 361/20/11
f 361/20/11 354/19/10 388/190/159
f 361/20/11 388/190/159 397/36/23
f 354/19/10 342/21/12 273/494/304
f 163/890/18 168/891/484 196/892/34
f 392/560/414 408/31/20 422/893/486
f 408/31/20 436/894/50 422/893/486
f 329/895/161 367/854/466 363/896/467
f 447/503/170 436/894/50 426/30/19
f 226/49/35 202/33/21 261/194/162
f 163/27/18 212/378/306 205/694/382
f 313/50/36 277/45/32 353/897/492
f 443/202/168 455/392/316 434/38/25
f 79/403/322 92/203/169 98/855/487
f 282/898/49 262/564/48 300/566/312
f 192/61/44 142/877/319 182/42/29
f 100/899/318 149/900/22 142/901/319
f 352/902/439 371/412/330 373/232/194
f 278/903/57 300/573/312 331/572/58
f 117/794/488 95/231/193 97/228/190
f 150/83/65 260/88/67 227/401/320
f 278/75/57 227/401/320 260/88/67
f 127/577/416 97/228/190 81/505/199
f 484/579/325 477/383/311 493/382/310
f 302/234/196 284/225/187 312/878/468
f 50/247/206 54/708/469 39/404/323
f 50/247/206 59/227/189 54/708/469
f 324/218/182 378/91/70 390/90/69
f 458/391/315 464/514/387 455/392/316
f 412/255/213 390/90/69 395/89/68
f 16/589/421 26/264/222 39/404/323
f 89/799/489 105/246/205 129/245/204
f 403/233/195 373/232/194 389/411/329
f 478/904/215 464/514/387 468/513/216
f 412/255/213 419/441/345 404/448/349
f 220/252/210 265/308/258 268/413/331
f 10/905/493 7/591/423 24/104/80
f 33/420/334 45/424/335 41/421/218
f 1/280/237 3/593/425 5/858/451
f 12/906/448 13/283/238 2/282/235
f 14/430/338 12/907/448 2/520/235
f 17/662/447 14/661/338 20/881/341
f 19/863/452 10/832/493 23/111/82
f 42/845/496 33/434/334 31/291/245
f 42/908/496 45/424/335 33/420/334
f 459/600/428 465/602/429 449/101/77
f 51/909/453 45/427/335 42/910/496
f 42/845/496 49/844/495 51/911/453
f 29/447/348 21/292/246 18/673/450
f 29/447/348 32/293/247 21/292/246
f 380/530/397 399/775/482 387/285/239
f 387/285/239 399/775/482 415/286/240
f 428/672/449 424/746/479 438/715/472
f 254/719/474 248/295/243 299/912/242
f 254/808/474 299/288/242 322/126/99
f 316/327/275 336/527/260 318/913/494
f 326/329/277 296/914/105 336/527/260
f 219/526/394 246/525/279 269/533/398
f 116/528/395 90/717/473 94/453/353
f 84/723/475 82/718/454 90/717/473
f 306/865/477 295/915/104 294/916/433
f 137/598/427 170/171/142 197/287/241
f 309/917/280 328/918/399 246/525/279
f 328/918/399 309/917/280 347/919/281
f 358/683/116 306/728/477 334/623/435
f 306/728/477 289/730/476 334/623/435
f 231/619/405 191/166/137 214/170/141
f 241/347/290 339/349/291 323/549/407
f 414/469/363 383/484/375 406/467/361
f 229/354/294 241/347/290 236/635/438
f 134/8/3 140/7/5 176/920/16
f 361/20/11 355/16/7 327/691/464
f 160/364/300 168/921/484 125/365/1
f 190/562/17 160/364/300 145/366/6
f 169/816/378 151/200/166 183/199/165
f 169/816/378 183/199/165 207/558/412
f 203/192/14 261/194/162 202/33/21
f 426/30/19 436/894/50 408/31/20
f 378/91/70 363/922/467 367/696/466
f 457/201/167 425/37/24 450/381/309
f 313/571/36 353/923/492 331/572/58
f 421/80/62 409/195/160 405/197/163
f 422/789/486 445/253/211 413/506/384
f 378/91/70 332/219/183 363/922/467
f 319/924/175 288/388/313 335/824/440
f 147/857/39 103/59/43 204/856/417
f 282/66/49 288/702/313 284/576/187
f 114/79/61 117/794/488 159/647/441
f 117/794/488 136/648/442 159/647/441
f 225/216/181 156/77/59 159/647/441
f 281/215/180 242/758/481 225/216/181
f 54/708/469 59/227/189 60/226/188
f 105/246/205 89/799/489 87/925/192
f 320/926/197 345/242/201 302/235/196
f 346/927/234 330/928/202 345/929/201
f 346/930/234 359/580/418 330/581/202
f 16/589/421 39/404/323 36/654/445
f 412/255/213 427/254/212 419/441/345
f 240/274/232 206/273/231 264/709/470
f 485/762/446 484/803/325 480/931/324
f 15/262/220 17/932/447 28/259/217
f 17/662/447 20/881/341 28/419/217
f 485/762/446 480/931/324 486/763/254
f 45/427/335 51/909/453 55/417/333
f 165/439/344 172/272/230 230/271/229
f 101/524/393 64/444/342 104/933/343
f 165/523/344 101/524/393 104/933/343
f 61/451/352 46/450/351 53/118/91
f 74/445/346 61/451/352 53/118/91
f 219/526/394 185/934/123 111/317/110
f 254/719/474 213/320/268 209/319/267
f 314/935/434 316/936/275 318/937/494
f 219/526/394 257/938/108 185/934/123
f 82/718/454 84/723/475 77/939/401
f 198/142/114 116/528/395 174/143/115
f 491/147/119 472/149/121 476/458/253
f 314/935/434 334/852/435 316/936/275
f 334/852/435 298/609/276 316/936/275
f 452/159/130 472/149/121 471/148/120
f 177/462/357 193/940/457 96/156/127
f 193/940/457 107/941/458 96/156/127
f 398/339/284 382/306/256 407/340/285
f 286/886/98 263/348/269 231/547/405
f 211/345/289 271/689/462 259/465/143
f 179/942/295 200/350/292 144/352/293
f 139/781/377 184/778/369 133/779/154
f 188/476/368 135/943/157 158/474/367
f 234/357/296 179/356/295 181/550/408
f 272/362/299 349/634/437 383/484/375
f 327/691/464 255/491/379 291/495/381
f 402/17/8 355/16/7 397/36/23
f 356/787/485 367/854/466 305/368/302
f 342/21/12 291/495/381 273/494/304
f 154/944/499 100/945/318 98/855/487 153/946/15
f 305/368/302 367/854/466 329/895/161
f 98/855/487 157/817/491 153/946/15
f 370/198/164 304/372/305 373/232/194
f 187/567/38 235/561/415 228/751/66
f 262/947/48 247/752/47 235/561/415
f 282/948/49 300/386/312 288/388/313
f 79/403/322 98/855/487 80/652/444
f 337/220/184 359/580/418 335/949/440
f 244/698/383 227/950/320 315/873/56
f 136/648/442 97/228/190 127/577/416
f 97/228/190 136/648/442 117/794/488
f 60/226/188 97/228/190 95/231/193
f 216/229/191 242/758/481 223/757/386
f 225/216/181 242/758/481 216/229/191
f 150/83/65 227/401/320 204/578/417
f 87/230/192 112/78/60 105/756/205
f 477/951/311 475/256/214 457/393/167
f 281/215/180 251/759/327 242/758/481
f 128/251/209 143/795/46 113/94/45
f 346/277/234 371/412/330 359/952/418
f 390/90/69 376/114/89 324/218/182
f 287/428/336 320/801/197 268/413/331
f 499/211/176 498/107/83 496/507/385
f 343/583/419 348/113/88 338/269/227
f 498/107/83 499/211/176 495/108/84
f 17/662/447 15/953/220 8/660/236
f 418/100/76 459/600/428 449/101/77
f 490/712/85 467/442/252 483/443/251
f 252/435/250 165/439/344 230/271/229
f 29/447/348 18/673/450 19/675/452
f 37/680/456 27/116/86 53/118/91
f 27/116/86 37/680/456 29/447/348
f 285/309/259 318/839/494 265/308/258
f 456/155/126 487/154/125 467/442/252
f 49/844/495 40/446/347 58/449/350
f 213/320/268 130/529/396 110/864/497
f 326/329/277 276/954/107 296/914/105
f 286/886/98 237/141/113 254/719/474
f 295/915/104 306/865/477 333/137/109
f 382/306/256 365/770/404 351/115/90
f 295/915/104 301/955/106 294/916/433
f 362/128/101 333/137/109 306/865/477
f 107/682/458 78/847/266 63/956/128
f 399/775/482 424/746/479 415/286/240
f 325/168/139 275/167/138 294/742/433
f 173/745/356 201/744/287 177/957/357
f 398/339/284 365/770/404 382/306/256
f 325/958/139 347/959/281 357/960/140
f 357/169/140 274/175/146 275/167/138
f 441/684/272 446/774/478 431/685/459
f 406/467/361 411/687/283 429/468/362
f 311/630/282 259/465/143 307/555/410
f 406/467/361 381/485/376 396/688/461
f 386/483/374 311/630/282 379/690/463
f 221/178/149 215/554/366 243/176/147
f 270/777/298 271/689/462 211/345/289
f 401/481/372 394/552/409 420/470/364
f 297/749/480 236/635/438 241/347/290
f 164/553/370 121/961/158 123/889/155
f 176/25/16 145/11/6 134/10/3
f 168/784/484 124/13/4 125/15/1
f 255/962/379 239/963/411 291/964/381
f 408/31/20 400/559/413 384/18/9
f 329/895/161 203/23/14 305/368/302
f 149/965/22 154/944/499 153/946/15
f 443/202/168 434/38/25 425/37/24
f 160/364/300 187/567/38 168/921/484
f 196/376/34 168/966/484 187/374/38
f 92/203/169 151/200/166 98/855/487
f 161/41/28 151/200/166 92/203/169
f 149/967/22 100/968/318 154/969/499
f 335/970/440 321/209/174 319/210/175
f 335/949/440 359/580/418 352/651/439
f 464/587/387 479/568/178 455/570/316
f 136/648/442 127/577/416 175/649/443
f 303/236/186 278/75/57 260/88/67
f 156/77/59 166/755/203 105/756/205
f 432/81/63 440/102/78 435/82/64
f 62/266/224 89/799/489 109/518/390
f 389/411/329 371/412/330 377/882/498
f 15/262/220 28/259/217 30/263/221
f 364/515/388 377/882/498 371/412/330
f 129/245/204 172/804/230 109/518/390
f 3/593/425 1/280/237 8/279/236
f 5/971/451 4/838/490 1/837/237
f 377/882/498 387/285/239 389/411/329
f 27/110/86 19/863/452 23/111/82
f 51/909/453 67/415/332 55/417/333
f 64/436/342 43/972/87 52/437/225
f 11/431/339 18/673/450 21/292/246
f 88/294/248 137/598/427 128/251/209
f 336/527/260 340/973/233 318/913/494
f 368/145/117 366/974/455 362/128/101
f 362/975/101 366/679/455 360/276/102
f 424/746/479 428/672/449 415/286/240
f 171/314/264 126/313/263 165/523/344
f 171/314/264 165/523/344 218/296/249
f 419/441/345 416/312/262 407/340/285
f 111/317/110 208/452/278 219/526/394
f 218/296/249 209/319/267 171/314/264
f 276/954/107 283/976/103 296/914/105
f 141/720/403 111/138/110 185/977/123
f 246/525/279 328/918/399 269/533/398
f 185/978/123 173/732/356 141/734/403
f 106/724/133 84/723/475 146/768/400
f 257/150/108 232/614/432 210/151/122
f 144/810/293 118/540/402 85/455/355
f 63/157/128 96/156/127 107/941/458
f 474/849/273 487/851/125 453/772/124
f 170/171/142 253/173/144 197/287/241
f 433/454/354 429/812/362 430/311/261
f 453/772/124 441/771/272 423/482/373
f 423/482/373 474/849/273 453/772/124
f 462/160/131 441/684/272 460/457/271
f 194/341/286 184/778/369 201/342/287
f 184/478/369 217/776/483 201/736/287
f 386/626/374 385/625/436 311/337/282
f 297/749/480 372/548/406 381/485/376
f 215/473/366 188/489/368 224/174/145
f 279/359/297 270/361/298 189/351/288
f 349/634/437 297/749/480 381/485/376
f 270/777/298 344/180/151 271/689/462
f 181/550/408 229/354/294 236/635/438
f 349/634/437 236/635/438 297/749/480
f 272/362/299 344/180/151 279/363/297
