1 86 10.0 -504 40.0 0 0 1 0 1 0 -1 0 0 3004.DAT
0 STEP
1 86 10.0 -528 40.0 0 0 1 0 1 0 -1 0 0 3004.DAT
0 STEP
1 86 40.0 -552 40.0 -1 0 0 0 1 0 0 0 -1 3001.DAT
0 STEP
1 86 40.0 -576 30.0 -1 0 0 0 1 0 0 0 -1 3010.DAT
0 STEP
1 86 40.0 -600 30.0 -1 0 0 0 1 0 0 0 -1 3010.DAT
0 STEP
1 86 10.0 -624 30.0 0 0 1 0 1 0 -1 0 0 3005.DAT
0 STEP
1 86 40.0 -480 50.0 -1 0 0 0 1 0 0 0 -1 3010.DAT
0 STEP
1 86 40.0 -576 60.0 -1 0 0 0 1 0 0 0 -1 3001.DAT
0 STEP
1 86 40.0 -600 60.0 -1 0 0 0 1 0 0 0 -1 3001.DAT
0 STEP
1 86 20.0 -624 60.0 0 0 1 0 1 0 -1 0 0 3003.DAT
0 STEP
1 86 20.0 -648 50.0 -1 0 0 0 1 0 0 0 -1 3004.DAT
0 STEP
1 86 10.0 -504 70.0 0 0 1 0 1 0 -1 0 0 3005.DAT
0 STEP
1 86 20.0 -528 70.0 -1 0 0 0 1 0 0 0 -1 3004.DAT
0 STEP
1 86 40.0 -552 70.0 -1 0 0 0 1 0 0 0 -1 3010.DAT
0 STEP
1 86 30.0 -480 30.0 0 0 1 0 1 0 -1 0 0 3005.DAT
0 STEP
1 86 30.0 -504 30.0 0 0 1 0 1 0 -1 0 0 3005.DAT
0 STEP
1 86 40.0 -528 40.0 0 0 1 0 1 0 -1 0 0 3003.DAT
0 STEP
1 86 40.0 -624 30.0 -1 0 0 0 1 0 0 0 -1 3004.DAT
0 STEP
1 86 30.0 -648 30.0 0 0 1 0 1 0 -1 0 0 3005.DAT
0 STEP
1 86 60.0 -672 40.0 -1 0 0 0 1 0 0 0 -1 3001.DAT
0 STEP
1 86 30.0 -456 50.0 0 0 1 0 1 0 -1 0 0 3005.DAT
0 STEP
1 86 30.0 -504 60.0 0 0 1 0 1 0 -1 0 0 3004.DAT
0 STEP
1 86 60.0 -480 70.0 -1 0 0 0 1 0 0 0 -1 3010.DAT
0 STEP
1 86 30.0 -648 70.0 0 0 1 0 1 0 -1 0 0 3005.DAT
0 STEP
1 86 60.0 -672 70.0 -1 0 0 0 1 0 0 0 -1 3010.DAT
0 STEP
1 86 60.0 -456 30.0 -1 0 0 0 1 0 0 0 -1 3004.DAT
0 STEP
1 86 120.0 -480 30.0 -1 0 0 0 1 0 0 0 -1 3008.DAT
0 STEP
1 86 60.0 -504 40.0 0 0 1 0 1 0 -1 0 0 3003.DAT
0 STEP
1 86 50.0 -648 40.0 0 0 1 0 1 0 -1 0 0 3004.DAT
0 STEP
1 86 60.0 -456 60.0 0 0 1 0 1 0 -1 0 0 3003.DAT
0 STEP
1 86 50.0 -624 60.0 0 0 1 0 1 0 -1 0 0 3004.DAT
0 STEP
1 86 50.0 -696 50.0 0 0 1 0 1 0 -1 0 0 3005.DAT
0 STEP
1 86 60.0 -504 70.0 -1 0 0 0 1 0 0 0 -1 3004.DAT
0 STEP
1 86 50.0 -528 70.0 0 0 1 0 1 0 -1 0 0 3005.DAT
0 STEP
1 86 60.0 -648 70.0 -1 0 0 0 1 0 0 0 -1 3004.DAT
0 STEP
1 86 60.0 -696 70.0 -1 0 0 0 1 0 0 0 -1 3004.DAT
0 STEP
1 86 80.0 -432 40.0 0 0 1 0 1 0 -1 0 0 3003.DAT
0 STEP
1 86 80.0 -528 30.0 -1 0 0 0 1 0 0 0 -1 3004.DAT
0 STEP
1 86 70.0 -624 40.0 0 0 1 0 1 0 -1 0 0 3004.DAT
0 STEP
1 86 80.0 -648 40.0 0 0 1 0 1 0 -1 0 0 3003.DAT
0 STEP
1 86 70.0 -696 40.0 0 0 1 0 1 0 -1 0 0 3004.DAT
0 STEP
1 86 80.0 -528 60.0 0 0 1 0 1 0 -1 0 0 3003.DAT
0 STEP
1 86 80.0 -432 70.0 -1 0 0 0 1 0 0 0 -1 3004.DAT
0 STEP
1 86 70.0 -624 70.0 0 0 1 0 1 0 -1 0 0 3005.DAT
0 STEP
1 86 100.0 -456 40.0 0 0 1 0 1 0 -1 0 0 3003.DAT
0 STEP
1 86 100.0 -504 30.0 -1 0 0 0 1 0 0 0 -1 3004.DAT
0 STEP
1 86 100.0 -696 30.0 -1 0 0 0 1 0 0 0 -1 3004.DAT
0 STEP
1 86 90.0 -48 50.0 0 0 1 0 1 0 -1 0 0 3005.DAT
0 STEP
1 86 100.0 -72 50.0 -1 0 0 0 1 0 0 0 -1 3004.DAT
0 STEP
1 86 90.0 -96 50.0 0 0 1 0 1 0 -1 0 0 3005.DAT
0 STEP
1 86 90.0 -360 50.0 0 0 1 0 1 0 -1 0 0 3005.DAT
0 STEP
1 86 90.0 -384 50.0 0 0 1 0 1 0 -1 0 0 3005.DAT
0 STEP
1 86 90.0 -408 50.0 0 0 1 0 1 0 -1 0 0 3005.DAT
0 STEP
1 86 90.0 -480 50.0 0 0 1 0 1 0 -1 0 0 3005.DAT
0 STEP
1 86 100.0 -504 60.0 0 0 1 0 1 0 -1 0 0 3003.DAT
0 STEP
1 86 90.0 -696 60.0 0 0 1 0 1 0 -1 0 0 3004.DAT
0 STEP
1 86 120.0 -720 50.0 -1 0 0 0 1 0 0 0 -1 3010.DAT
0 STEP
1 86 100.0 -456 70.0 -1 0 0 0 1 0 0 0 -1 3004.DAT
0 STEP
1 86 90.0 -648 70.0 0 0 1 0 1 0 -1 0 0 3005.DAT
0 STEP
1 86 110.0 -72 20.0 0 0 1 0 1 0 -1 0 0 3004.DAT
0 STEP
1 86 110.0 -384 20.0 0 0 1 0 1 0 -1 0 0 3004.DAT
0 STEP
1 86 110.0 -24 30.0 0 0 1 0 1 0 -1 0 0 3005.DAT
0 STEP
1 86 120.0 -48 40.0 0 0 1 0 1 0 -1 0 0 3003.DAT
0 STEP
1 86 110.0 -96 40.0 0 0 1 0 1 0 -1 0 0 3004.DAT
0 STEP
1 86 120.0 -120 30.0 -1 0 0 0 1 0 0 0 -1 3004.DAT
0 STEP
1 86 120.0 -144 30.0 -1 0 0 0 1 0 0 0 -1 3004.DAT
0 STEP
1 86 120.0 -168 30.0 -1 0 0 0 1 0 0 0 -1 3004.DAT
0 STEP
1 86 120.0 -192 40.0 0 0 1 0 1 0 -1 0 0 3003.DAT
0 STEP
1 86 110.0 -216 30.0 0 0 1 0 1 0 -1 0 0 3005.DAT
0 STEP
1 86 110.0 -240 30.0 0 0 1 0 1 0 -1 0 0 3005.DAT
0 STEP
1 86 110.0 -264 30.0 0 0 1 0 1 0 -1 0 0 3005.DAT
0 STEP
1 86 110.0 -288 30.0 0 0 1 0 1 0 -1 0 0 3005.DAT
0 STEP
1 86 110.0 -312 30.0 0 0 1 0 1 0 -1 0 0 3005.DAT
0 STEP
1 86 110.0 -336 30.0 0 0 1 0 1 0 -1 0 0 3005.DAT
0 STEP
1 86 140.0 -360 30.0 -1 0 0 0 1 0 0 0 -1 3010.DAT
0 STEP
1 86 140.0 -408 30.0 -1 0 0 0 1 0 0 0 -1 3010.DAT
0 STEP
1 86 110.0 -432 40.0 0 0 1 0 1 0 -1 0 0 3004.DAT
0 STEP
1 86 110.0 -672 40.0 0 0 1 0 1 0 -1 0 0 3004.DAT
0 STEP
1 86 110.0 0 50.0 0 0 1 0 1 0 -1 0 0 3005.DAT
0 STEP
1 86 120.0 -24 60.0 0 0 1 0 1 0 -1 0 0 3003.DAT
0 STEP
1 86 120.0 -120 60.0 0 0 1 0 1 0 -1 0 0 3003.DAT
0 STEP
1 86 120.0 -144 60.0 0 0 1 0 1 0 -1 0 0 3003.DAT
0 STEP
1 86 120.0 -168 60.0 0 0 1 0 1 0 -1 0 0 3003.DAT
0 STEP
1 86 110.0 -216 60.0 0 0 1 0 1 0 -1 0 0 3004.DAT
0 STEP
1 86 110.0 -240 60.0 0 0 1 0 1 0 -1 0 0 3004.DAT
0 STEP
1 86 110.0 -264 60.0 0 0 1 0 1 0 -1 0 0 3004.DAT
0 STEP
1 86 120.0 -288 60.0 0 0 1 0 1 0 -1 0 0 3003.DAT
0 STEP
1 86 110.0 -312 60.0 0 0 1 0 1 0 -1 0 0 3004.DAT
0 STEP
1 86 120.0 -336 60.0 0 0 1 0 1 0 -1 0 0 3003.DAT
0 STEP
1 86 140.0 -360 60.0 -1 0 0 0 1 0 0 0 -1 3001.DAT
0 STEP
1 86 140.0 -384 50.0 -1 0 0 0 1 0 0 0 -1 3010.DAT
0 STEP
1 86 140.0 -408 60.0 -1 0 0 0 1 0 0 0 -1 3001.DAT
0 STEP
1 86 140.0 -480 60.0 -1 0 0 0 1 0 0 0 -1 3001.DAT
0 STEP
1 86 120.0 -696 60.0 0 0 1 0 1 0 -1 0 0 3003.DAT
0 STEP
1 86 110.0 -48 70.0 0 0 1 0 1 0 -1 0 0 3005.DAT
0 STEP
1 86 120.0 -72 80.0 0 0 1 0 1 0 -1 0 0 3003.DAT
0 STEP
1 86 110.0 -96 70.0 0 0 1 0 1 0 -1 0 0 3005.DAT
0 STEP
1 86 120.0 -192 70.0 -1 0 0 0 1 0 0 0 -1 3004.DAT
0 STEP
1 86 110.0 -384 80.0 0 0 1 0 1 0 -1 0 0 3004.DAT
0 STEP
1 86 110.0 -432 70.0 0 0 1 0 1 0 -1 0 0 3005.DAT
0 STEP
1 86 110.0 -672 70.0 0 0 1 0 1 0 -1 0 0 3005.DAT
0 STEP
1 86 140.0 -72 10.0 -1 0 0 0 1 0 0 0 -1 3004.DAT
0 STEP
1 86 130.0 -96 20.0 0 0 1 0 1 0 -1 0 0 3004.DAT
0 STEP
1 86 130.0 -360 10.0 0 0 1 0 1 0 -1 0 0 3005.DAT
0 STEP
1 86 140.0 -384 20.0 0 0 1 0 1 0 -1 0 0 3003.DAT
0 STEP
1 86 130.0 0 30.0 0 0 1 0 1 0 -1 0 0 3005.DAT
0 STEP
1 86 140.0 -24 30.0 -1 0 0 0 1 0 0 0 -1 3004.DAT
0 STEP
1 86 130.0 -72 40.0 0 0 1 0 1 0 -1 0 0 3004.DAT
0 STEP
1 86 140.0 -216 30.0 -1 0 0 0 1 0 0 0 -1 3004.DAT
0 STEP
1 86 130.0 -240 40.0 0 0 1 0 1 0 -1 0 0 3004.DAT
0 STEP
1 86 140.0 -264 30.0 -1 0 0 0 1 0 0 0 -1 3004.DAT
0 STEP
1 86 140.0 -288 30.0 -1 0 0 0 1 0 0 0 -1 3004.DAT
0 STEP
1 86 140.0 -312 40.0 0 0 1 0 1 0 -1 0 0 3003.DAT
0 STEP
1 86 140.0 -336 30.0 -1 0 0 0 1 0 0 0 -1 3004.DAT
0 STEP
1 86 140.0 -432 30.0 -1 0 0 0 1 0 0 0 -1 3004.DAT
0 STEP
1 86 140.0 -456 30.0 -1 0 0 0 1 0 0 0 -1 3004.DAT
0 STEP
1 86 130.0 0 60.0 0 0 1 0 1 0 -1 0 0 3004.DAT
0 STEP
1 86 140.0 -96 60.0 0 0 1 0 1 0 -1 0 0 3003.DAT
0 STEP
1 86 140.0 -216 60.0 0 0 1 0 1 0 -1 0 0 3003.DAT
0 STEP
1 86 140.0 -264 60.0 0 0 1 0 1 0 -1 0 0 3003.DAT
0 STEP
1 86 130.0 -432 60.0 0 0 1 0 1 0 -1 0 0 3004.DAT
0 STEP
1 86 140.0 -456 60.0 0 0 1 0 1 0 -1 0 0 3003.DAT
0 STEP
1 86 140.0 -48 70.0 -1 0 0 0 1 0 0 0 -1 3004.DAT
0 STEP
1 86 130.0 -240 70.0 0 0 1 0 1 0 -1 0 0 3005.DAT
0 STEP
1 86 140.0 -312 70.0 -1 0 0 0 1 0 0 0 -1 3004.DAT
0 STEP
1 86 140.0 -384 80.0 0 0 1 0 1 0 -1 0 0 3003.DAT
0 STEP
1 86 150.0 -48 40.0 0 0 1 0 1 0 -1 0 0 3004.DAT
0 STEP
1 86 160.0 -72 40.0 0 0 1 0 1 0 -1 0 0 3003.DAT
0 STEP
1 86 160.0 -96 30.0 -1 0 0 0 1 0 0 0 -1 3004.DAT
0 STEP
1 86 150.0 -120 30.0 0 0 1 0 1 0 -1 0 0 3005.DAT
0 STEP
1 86 150.0 -144 40.0 0 0 1 0 1 0 -1 0 0 3004.DAT
0 STEP
1 86 150.0 -168 30.0 0 0 1 0 1 0 -1 0 0 3005.DAT
0 STEP
1 86 150.0 -192 40.0 0 0 1 0 1 0 -1 0 0 3004.DAT
0 STEP
1 86 150.0 -240 30.0 0 0 1 0 1 0 -1 0 0 3005.DAT
0 STEP
1 86 150.0 0 50.0 0 0 1 0 1 0 -1 0 0 3005.DAT
0 STEP
1 86 150.0 -24 60.0 0 0 1 0 1 0 -1 0 0 3004.DAT
0 STEP
1 86 160.0 -120 50.0 -1 0 0 0 1 0 0 0 -1 3004.DAT
0 STEP
1 86 150.0 -168 60.0 0 0 1 0 1 0 -1 0 0 3004.DAT
0 STEP
1 86 150.0 -240 60.0 0 0 1 0 1 0 -1 0 0 3004.DAT
0 STEP
1 86 150.0 -288 60.0 0 0 1 0 1 0 -1 0 0 3004.DAT
0 STEP
1 86 150.0 -336 60.0 0 0 1 0 1 0 -1 0 0 3004.DAT
0 STEP
1 86 150.0 -432 50.0 0 0 1 0 1 0 -1 0 0 3005.DAT
0 STEP
1 86 150.0 -696 60.0 0 0 1 0 1 0 -1 0 0 3004.DAT
0 STEP
1 86 150.0 -72 80.0 0 0 1 0 1 0 -1 0 0 3004.DAT
0 STEP
1 86 150.0 -120 70.0 0 0 1 0 1 0 -1 0 0 3005.DAT
0 STEP
1 86 150.0 -144 70.0 0 0 1 0 1 0 -1 0 0 3005.DAT
0 STEP
1 86 150.0 -192 70.0 0 0 1 0 1 0 -1 0 0 3005.DAT
0 STEP
1 86 160.0 -432 70.0 -1 0 0 0 1 0 0 0 -1 3004.DAT
0 STEP
1 86 170.0 -384 30.0 0 0 1 0 1 0 -1 0 0 3005.DAT
0 STEP
1 86 180.0 -456 40.0 0 0 1 0 1 0 -1 0 0 3003.DAT
0 STEP
1 86 170.0 -48 60.0 0 0 1 0 1 0 -1 0 0 3004.DAT
0 STEP
1 86 170.0 -96 60.0 0 0 1 0 1 0 -1 0 0 3004.DAT
0 STEP
1 86 180.0 -432 50.0 -1 0 0 0 1 0 0 0 -1 3004.DAT
0 STEP
1 86 170.0 -72 70.0 0 0 1 0 1 0 -1 0 0 3005.DAT
0 STEP
1 86 170.0 -384 70.0 0 0 1 0 1 0 -1 0 0 3005.DAT
0 STEP
1 86 180.0 -456 70.0 -1 0 0 0 1 0 0 0 -1 3004.DAT
0 STEP
1 86 190.0 -504 40.0 0 0 1 0 1 0 -1 0 0 3004.DAT
0 STEP
1 86 190.0 -480 60.0 0 0 1 0 1 0 -1 0 0 3004.DAT
0 STEP
1 86 200.0 -504 70.0 -1 0 0 0 1 0 0 0 -1 3004.DAT
0 STEP
1 86 210.0 -456 40.0 0 0 1 0 1 0 -1 0 0 3004.DAT
0 STEP
1 86 220.0 -480 30.0 -1 0 0 0 1 0 0 0 -1 3004.DAT
0 STEP
1 86 220.0 -504 40.0 0 0 1 0 1 0 -1 0 0 3003.DAT
0 STEP
1 86 220.0 -480 60.0 0 0 1 0 1 0 -1 0 0 3003.DAT
0 STEP
1 86 210.0 -456 70.0 0 0 1 0 1 0 -1 0 0 3005.DAT
0 STEP
1 86 240.0 -528 50.0 -1 0 0 0 1 0 0 0 -1 3004.DAT
0 STEP
1 86 240.0 -552 50.0 -1 0 0 0 1 0 0 0 -1 3004.DAT
0 STEP
1 86 240.0 -576 50.0 -1 0 0 0 1 0 0 0 -1 3004.DAT
0 STEP
1 86 230.0 -504 70.0 0 0 1 0 1 0 -1 0 0 3005.DAT
0 STEP
1 86 230.0 -528 70.0 0 0 1 0 1 0 -1 0 0 3005.DAT
0 STEP
1 86 250.0 -504 50.0 0 0 1 0 1 0 -1 0 0 3005.DAT
0 STEP
