1 86 20.0 0 10.0 -1 0 0 0 1 0 0 0 -1 3004.DAT
0 STEP
1 86 10.0 -24 10.0 0 0 1 0 1 0 -1 0 0 3005.DAT
0 STEP
1 86 20.0 -48 10.0 -1 0 0 0 1 0 0 0 -1 3004.DAT
0 STEP
1 86 20.0 -72 20.0 0 0 1 0 1 0 -1 0 0 3003.DAT
0 STEP
1 86 10.0 -96 10.0 0 0 1 0 1 0 -1 0 0 3005.DAT
0 STEP
1 86 40.0 -120 10.0 -1 0 0 0 1 0 0 0 -1 3010.DAT
0 STEP
1 86 60.0 -144 20.0 -1 0 0 0 1 0 0 0 -1 2456.DAT
0 STEP
1 86 10.0 -168 80.0 0 0 1 0 1 0 -1 0 0 3008.DAT
0 STEP
1 86 40.0 -192 10.0 -1 0 0 0 1 0 0 0 -1 3010.DAT
0 STEP
1 86 40.0 -48 40.0 -1 0 0 0 1 0 0 0 -1 3001.DAT
0 STEP
1 86 10.0 -96 60.0 0 0 1 0 1 0 -1 0 0 3010.DAT
0 STEP
1 86 10.0 -120 40.0 0 0 1 0 1 0 -1 0 0 3004.DAT
0 STEP
1 86 10.0 -192 30.0 0 0 1 0 1 0 -1 0 0 3005.DAT
0 STEP
1 86 40.0 -72 60.0 -1 0 0 0 1 0 0 0 -1 3001.DAT
0 STEP
1 86 20.0 -144 50.0 -1 0 0 0 1 0 0 0 -1 3004.DAT
0 STEP
1 86 10.0 -192 60.0 0 0 1 0 1 0 -1 0 0 3004.DAT
0 STEP
1 86 10.0 -48 70.0 0 0 1 0 1 0 -1 0 0 3005.DAT
0 STEP
1 86 20.0 -120 70.0 -1 0 0 0 1 0 0 0 -1 3004.DAT
0 STEP
1 86 20.0 -144 100.0 0 0 1 0 1 0 -1 0 0 3001.DAT
0 STEP
1 86 10.0 -48 140.0 0 0 1 0 1 0 -1 0 0 3009.DAT
0 STEP
1 86 20.0 -72 120.0 0 0 1 0 1 0 -1 0 0 3001.DAT
0 STEP
1 86 20.0 -120 100.0 0 0 1 0 1 0 -1 0 0 3003.DAT
0 STEP
1 86 40.0 -192 90.0 -1 0 0 0 1 0 0 0 -1 3010.DAT
0 STEP
1 86 10.0 -96 110.0 0 0 1 0 1 0 -1 0 0 3005.DAT
0 STEP
1 86 20.0 -192 120.0 0 0 1 0 1 0 -1 0 0 3003.DAT
0 STEP
1 86 10.0 -96 160.0 0 0 1 0 1 0 -1 0 0 3010.DAT
0 STEP
1 86 20.0 -120 130.0 -1 0 0 0 1 0 0 0 -1 3004.DAT
0 STEP
1 86 40.0 -120 160.0 -1 0 0 0 1 0 0 0 -1 3001.DAT
0 STEP
1 86 20.0 -144 150.0 -1 0 0 0 1 0 0 0 -1 3004.DAT
0 STEP
1 86 10.0 -192 200.0 0 0 1 0 1 0 -1 0 0 3009.DAT
0 STEP
1 86 20.0 -72 170.0 -1 0 0 0 1 0 0 0 -1 3004.DAT
0 STEP
1 86 10.0 -144 200.0 0 0 1 0 1 0 -1 0 0 3010.DAT
0 STEP
1 86 10.0 -168 170.0 0 0 1 0 1 0 -1 0 0 3005.DAT
0 STEP
1 86 10.0 -72 200.0 0 0 1 0 1 0 -1 0 0 3004.DAT
0 STEP
1 86 10.0 -120 190.0 0 0 1 0 1 0 -1 0 0 3005.DAT
0 STEP
1 86 40.0 -168 190.0 -1 0 0 0 1 0 0 0 -1 3010.DAT
0 STEP
1 86 10.0 -48 210.0 0 0 1 0 1 0 -1 0 0 3005.DAT
0 STEP
1 86 10.0 -96 210.0 0 0 1 0 1 0 -1 0 0 3005.DAT
0 STEP
1 86 60.0 -120 210.0 -1 0 0 0 1 0 0 0 -1 3009.DAT
0 STEP
1 86 40.0 -168 220.0 -1 0 0 0 1 0 0 0 -1 3001.DAT
0 STEP
1 86 20.0 -48 240.0 0 0 1 0 1 0 -1 0 0 3003.DAT
0 STEP
1 86 10.0 -72 230.0 0 0 1 0 1 0 -1 0 0 3005.DAT
0 STEP
1 86 10.0 -96 240.0 0 0 1 0 1 0 -1 0 0 3004.DAT
0 STEP
1 86 60.0 -120 240.0 -1 0 0 0 1 0 0 0 -1 2456.DAT
0 STEP
1 86 20.0 0 250.0 -1 0 0 0 1 0 0 0 -1 3004.DAT
0 STEP
1 86 10.0 -24 250.0 0 0 1 0 1 0 -1 0 0 3005.DAT
0 STEP
1 86 20.0 -72 250.0 -1 0 0 0 1 0 0 0 -1 3004.DAT
0 STEP
1 86 10.0 -144 250.0 0 0 1 0 1 0 -1 0 0 3005.DAT
0 STEP
1 86 40.0 -168 250.0 -1 0 0 0 1 0 0 0 -1 3010.DAT
0 STEP
1 86 40.0 -24 10.0 -1 0 0 0 1 0 0 0 -1 3004.DAT
0 STEP
1 86 40.0 -96 10.0 -1 0 0 0 1 0 0 0 -1 3004.DAT
0 STEP
1 86 100.0 -168 10.0 -1 0 0 0 1 0 0 0 -1 3008.DAT
0 STEP
1 86 40.0 -216 10.0 -1 0 0 0 1 0 0 0 -1 3004.DAT
0 STEP
1 86 30.0 -96 40.0 0 0 1 0 1 0 -1 0 0 3004.DAT
0 STEP
1 86 40.0 -120 40.0 0 0 1 0 1 0 -1 0 0 3003.DAT
0 STEP
1 86 30.0 -168 40.0 0 0 1 0 1 0 -1 0 0 3004.DAT
0 STEP
1 86 40.0 -192 30.0 -1 0 0 0 1 0 0 0 -1 3004.DAT
0 STEP
1 86 30.0 -216 60.0 0 0 1 0 1 0 -1 0 0 3010.DAT
0 STEP
1 86 40.0 -192 60.0 0 0 1 0 1 0 -1 0 0 3003.DAT
0 STEP
1 86 30.0 -48 80.0 0 0 1 0 1 0 -1 0 0 3004.DAT
0 STEP
1 86 40.0 -96 120.0 0 0 1 0 1 0 -1 0 0 2456.DAT
0 STEP
1 86 40.0 -168 120.0 0 0 1 0 1 0 -1 0 0 2456.DAT
0 STEP
1 86 40.0 -48 120.0 0 0 1 0 1 0 -1 0 0 3003.DAT
0 STEP
1 86 30.0 -216 110.0 0 0 1 0 1 0 -1 0 0 3005.DAT
0 STEP
1 86 40.0 -216 140.0 0 0 1 0 1 0 -1 0 0 3003.DAT
0 STEP
1 86 30.0 -48 160.0 0 0 1 0 1 0 -1 0 0 3004.DAT
0 STEP
1 86 40.0 -192 150.0 -1 0 0 0 1 0 0 0 -1 3004.DAT
0 STEP
1 86 40.0 -144 170.0 -1 0 0 0 1 0 0 0 -1 3004.DAT
0 STEP
1 86 40.0 -192 180.0 0 0 1 0 1 0 -1 0 0 3003.DAT
0 STEP
1 86 30.0 -216 200.0 0 0 1 0 1 0 -1 0 0 3010.DAT
0 STEP
1 86 30.0 -48 190.0 0 0 1 0 1 0 -1 0 0 3005.DAT
0 STEP
1 86 40.0 -72 190.0 -1 0 0 0 1 0 0 0 -1 3004.DAT
0 STEP
1 86 30.0 -96 200.0 0 0 1 0 1 0 -1 0 0 3004.DAT
0 STEP
1 86 40.0 -120 190.0 -1 0 0 0 1 0 0 0 -1 3004.DAT
0 STEP
1 86 40.0 -144 220.0 0 0 1 0 1 0 -1 0 0 3001.DAT
0 STEP
1 86 80.0 -48 210.0 -1 0 0 0 1 0 0 0 -1 3009.DAT
0 STEP
1 86 30.0 -72 220.0 0 0 1 0 1 0 -1 0 0 3004.DAT
0 STEP
1 86 40.0 -192 210.0 -1 0 0 0 1 0 0 0 -1 3004.DAT
0 STEP
1 86 30.0 -96 230.0 0 0 1 0 1 0 -1 0 0 3005.DAT
0 STEP
1 86 40.0 -192 240.0 0 0 1 0 1 0 -1 0 0 3003.DAT
0 STEP
1 86 40.0 -24 250.0 -1 0 0 0 1 0 0 0 -1 3004.DAT
0 STEP
1 86 40.0 -96 250.0 -1 0 0 0 1 0 0 0 -1 3004.DAT
0 STEP
1 86 30.0 -216 250.0 0 0 1 0 1 0 -1 0 0 3005.DAT
0 STEP
1 86 50.0 0 10.0 0 0 1 0 1 0 -1 0 0 3005.DAT
0 STEP
1 86 50.0 -48 10.0 0 0 1 0 1 0 -1 0 0 3005.DAT
0 STEP
1 86 50.0 -72 20.0 0 0 1 0 1 0 -1 0 0 3004.DAT
0 STEP
1 86 80.0 -96 30.0 -1 0 0 0 1 0 0 0 -1 3010.DAT
0 STEP
1 86 60.0 -168 40.0 0 0 1 0 1 0 -1 0 0 3003.DAT
0 STEP
1 86 60.0 -216 40.0 0 0 1 0 1 0 -1 0 0 3003.DAT
0 STEP
1 86 50.0 -96 50.0 0 0 1 0 1 0 -1 0 0 3005.DAT
0 STEP
1 86 50.0 -144 100.0 0 0 1 0 1 0 -1 0 0 3009.DAT
0 STEP
1 86 50.0 -48 70.0 0 0 1 0 1 0 -1 0 0 3005.DAT
0 STEP
1 86 50.0 -120 100.0 0 0 1 0 1 0 -1 0 0 3010.DAT
0 STEP
1 86 50.0 -216 70.0 0 0 1 0 1 0 -1 0 0 3005.DAT
0 STEP
1 86 60.0 -48 90.0 -1 0 0 0 1 0 0 0 -1 3004.DAT
0 STEP
1 86 50.0 -72 120.0 0 0 1 0 1 0 -1 0 0 3010.DAT
0 STEP
1 86 60.0 -216 100.0 0 0 1 0 1 0 -1 0 0 3003.DAT
0 STEP
1 86 50.0 -192 120.0 0 0 1 0 1 0 -1 0 0 3004.DAT
0 STEP
1 86 50.0 -48 150.0 0 0 1 0 1 0 -1 0 0 3005.DAT
0 STEP
1 86 60.0 -48 180.0 0 0 1 0 1 0 -1 0 0 3003.DAT
0 STEP
1 86 50.0 -72 170.0 0 0 1 0 1 0 -1 0 0 3005.DAT
0 STEP
1 86 60.0 -216 200.0 0 0 1 0 1 0 -1 0 0 3001.DAT
0 STEP
1 86 50.0 -96 190.0 0 0 1 0 1 0 -1 0 0 3005.DAT
0 STEP
1 86 50.0 -72 210.0 0 0 1 0 1 0 -1 0 0 3005.DAT
0 STEP
1 86 50.0 -96 220.0 0 0 1 0 1 0 -1 0 0 3004.DAT
0 STEP
1 86 50.0 -48 240.0 0 0 1 0 1 0 -1 0 0 3004.DAT
0 STEP
1 86 60.0 -72 240.0 0 0 1 0 1 0 -1 0 0 3003.DAT
0 STEP
1 86 50.0 0 250.0 0 0 1 0 1 0 -1 0 0 3005.DAT
0 STEP
1 86 60.0 -216 250.0 -1 0 0 0 1 0 0 0 -1 3004.DAT
0 STEP
1 86 100.0 -48 10.0 -1 0 0 0 1 0 0 0 -1 3010.DAT
0 STEP
1 86 80.0 -72 20.0 0 0 1 0 1 0 -1 0 0 3003.DAT
0 STEP
1 86 70.0 -96 10.0 0 0 1 0 1 0 -1 0 0 3005.DAT
0 STEP
1 86 70.0 -216 10.0 0 0 1 0 1 0 -1 0 0 3005.DAT
0 STEP
1 86 70.0 -120 40.0 0 0 1 0 1 0 -1 0 0 3004.DAT
0 STEP
1 86 80.0 -192 40.0 0 0 1 0 1 0 -1 0 0 3003.DAT
0 STEP
1 86 80.0 -240 30.0 -1 0 0 0 1 0 0 0 -1 3004.DAT
0 STEP
1 86 80.0 -96 80.0 0 0 1 0 1 0 -1 0 0 3001.DAT
0 STEP
1 86 120.0 -144 50.0 -1 0 0 0 1 0 0 0 -1 3009.DAT
0 STEP
1 86 70.0 -240 60.0 0 0 1 0 1 0 -1 0 0 3004.DAT
0 STEP
1 86 80.0 -48 70.0 -1 0 0 0 1 0 0 0 -1 3004.DAT
0 STEP
1 86 70.0 -192 70.0 0 0 1 0 1 0 -1 0 0 3005.DAT
0 STEP
1 86 80.0 -216 70.0 -1 0 0 0 1 0 0 0 -1 3004.DAT
0 STEP
1 86 70.0 -72 90.0 0 0 1 0 1 0 -1 0 0 3005.DAT
0 STEP
1 86 100.0 -168 90.0 -1 0 0 0 1 0 0 0 -1 3010.DAT
0 STEP
1 86 80.0 -48 110.0 -1 0 0 0 1 0 0 0 -1 3004.DAT
0 STEP
1 86 70.0 -72 160.0 0 0 1 0 1 0 -1 0 0 3009.DAT
0 STEP
1 86 70.0 -168 110.0 0 0 1 0 1 0 -1 0 0 3005.DAT
0 STEP
1 86 70.0 -192 180.0 0 0 1 0 1 0 -1 0 0 3008.DAT
0 STEP
1 86 70.0 -48 140.0 0 0 1 0 1 0 -1 0 0 3004.DAT
0 STEP
1 86 80.0 -96 130.0 -1 0 0 0 1 0 0 0 -1 3004.DAT
0 STEP
1 86 80.0 -144 130.0 -1 0 0 0 1 0 0 0 -1 3004.DAT
0 STEP
1 86 70.0 -168 140.0 0 0 1 0 1 0 -1 0 0 3004.DAT
0 STEP
1 86 70.0 -216 140.0 0 0 1 0 1 0 -1 0 0 3004.DAT
0 STEP
1 86 80.0 -96 160.0 0 0 1 0 1 0 -1 0 0 3003.DAT
0 STEP
1 86 70.0 -144 150.0 0 0 1 0 1 0 -1 0 0 3005.DAT
0 STEP
1 86 70.0 -144 220.0 0 0 1 0 1 0 -1 0 0 3009.DAT
0 STEP
1 86 70.0 -168 170.0 0 0 1 0 1 0 -1 0 0 3005.DAT
0 STEP
1 86 80.0 -96 190.0 -1 0 0 0 1 0 0 0 -1 3004.DAT
0 STEP
1 86 70.0 -120 190.0 0 0 1 0 1 0 -1 0 0 3005.DAT
0 STEP
1 86 70.0 -96 210.0 0 0 1 0 1 0 -1 0 0 3005.DAT
0 STEP
1 86 100.0 -48 230.0 -1 0 0 0 1 0 0 0 -1 3010.DAT
0 STEP
1 86 80.0 -96 230.0 -1 0 0 0 1 0 0 0 -1 3004.DAT
0 STEP
1 86 120.0 -48 260.0 -1 0 0 0 1 0 0 0 -1 2456.DAT
0 STEP
1 86 80.0 -96 260.0 0 0 1 0 1 0 -1 0 0 3003.DAT
0 STEP
1 86 100.0 -72 270.0 -1 0 0 0 1 0 0 0 -1 3010.DAT
0 STEP
1 86 70.0 -120 270.0 0 0 1 0 1 0 -1 0 0 3005.DAT
0 STEP
1 86 100.0 -96 10.0 -1 0 0 0 1 0 0 0 -1 3004.DAT
0 STEP
1 86 90.0 -120 10.0 0 0 1 0 1 0 -1 0 0 3005.DAT
0 STEP
1 86 90.0 -192 10.0 0 0 1 0 1 0 -1 0 0 3005.DAT
0 STEP
1 86 100.0 -216 10.0 -1 0 0 0 1 0 0 0 -1 3004.DAT
0 STEP
1 86 90.0 -48 30.0 0 0 1 0 1 0 -1 0 0 3005.DAT
0 STEP
1 86 120.0 -120 40.0 -1 0 0 0 1 0 0 0 -1 3001.DAT
0 STEP
1 86 90.0 -168 40.0 0 0 1 0 1 0 -1 0 0 3004.DAT
0 STEP
1 86 140.0 -216 40.0 -1 0 0 0 1 0 0 0 -1 2456.DAT
0 STEP
1 86 100.0 -48 50.0 -1 0 0 0 1 0 0 0 -1 3004.DAT
0 STEP
1 86 90.0 -72 60.0 0 0 1 0 1 0 -1 0 0 3004.DAT
0 STEP
1 86 100.0 -240 60.0 0 0 1 0 1 0 -1 0 0 3003.DAT
0 STEP
1 86 160.0 -168 70.0 -1 0 0 0 1 0 0 0 -1 3008.DAT
0 STEP
1 86 100.0 -192 80.0 0 0 1 0 1 0 -1 0 0 3003.DAT
0 STEP
1 86 90.0 -48 90.0 0 0 1 0 1 0 -1 0 0 3005.DAT
0 STEP
1 86 120.0 -72 90.0 -1 0 0 0 1 0 0 0 -1 3010.DAT
0 STEP
1 86 140.0 -144 100.0 -1 0 0 0 1 0 0 0 -1 2456.DAT
0 STEP
1 86 120.0 -72 120.0 -1 0 0 0 1 0 0 0 -1 3001.DAT
0 STEP
1 86 100.0 -168 120.0 0 0 1 0 1 0 -1 0 0 3003.DAT
0 STEP
1 86 90.0 -192 110.0 0 0 1 0 1 0 -1 0 0 3005.DAT
0 STEP
1 86 90.0 -48 130.0 0 0 1 0 1 0 -1 0 0 3005.DAT
0 STEP
1 86 90.0 -120 140.0 0 0 1 0 1 0 -1 0 0 3004.DAT
0 STEP
1 86 120.0 -48 150.0 -1 0 0 0 1 0 0 0 -1 3010.DAT
0 STEP
1 86 100.0 -72 150.0 -1 0 0 0 1 0 0 0 -1 3004.DAT
0 STEP
1 86 90.0 -144 180.0 0 0 1 0 1 0 -1 0 0 3010.DAT
0 STEP
1 86 90.0 -48 180.0 0 0 1 0 1 0 -1 0 0 3004.DAT
0 STEP
1 86 100.0 -72 180.0 0 0 1 0 1 0 -1 0 0 3003.DAT
0 STEP
1 86 90.0 -120 170.0 0 0 1 0 1 0 -1 0 0 3005.DAT
0 STEP
1 86 100.0 -120 190.0 -1 0 0 0 1 0 0 0 -1 3004.DAT
0 STEP
1 86 90.0 -72 210.0 0 0 1 0 1 0 -1 0 0 3005.DAT
0 STEP
1 86 100.0 -96 210.0 -1 0 0 0 1 0 0 0 -1 3004.DAT
0 STEP
1 86 90.0 -72 240.0 0 0 1 0 1 0 -1 0 0 3004.DAT
0 STEP
1 86 90.0 -144 230.0 0 0 1 0 1 0 -1 0 0 3005.DAT
0 STEP
1 86 90.0 -144 260.0 0 0 1 0 1 0 -1 0 0 3004.DAT
0 STEP
1 86 160.0 -120 270.0 -1 0 0 0 1 0 0 0 -1 3008.DAT
0 STEP
1 86 110.0 -72 10.0 0 0 1 0 1 0 -1 0 0 3005.DAT
0 STEP
1 86 140.0 -120 10.0 -1 0 0 0 1 0 0 0 -1 3010.DAT
0 STEP
1 86 110.0 -192 20.0 0 0 1 0 1 0 -1 0 0 3004.DAT
0 STEP
1 86 120.0 -48 30.0 -1 0 0 0 1 0 0 0 -1 3004.DAT
0 STEP
1 86 110.0 -72 40.0 0 0 1 0 1 0 -1 0 0 3004.DAT
0 STEP
1 86 120.0 -168 40.0 0 0 1 0 1 0 -1 0 0 3003.DAT
0 STEP
1 86 110.0 -240 30.0 0 0 1 0 1 0 -1 0 0 3005.DAT
0 STEP
1 86 120.0 -96 50.0 -1 0 0 0 1 0 0 0 -1 3004.DAT
0 STEP
1 86 110.0 -192 50.0 0 0 1 0 1 0 -1 0 0 3005.DAT
0 STEP
1 86 110.0 -48 100.0 0 0 1 0 1 0 -1 0 0 3010.DAT
0 STEP
1 86 120.0 -72 70.0 -1 0 0 0 1 0 0 0 -1 3004.DAT
0 STEP
1 86 120.0 -96 80.0 0 0 1 0 1 0 -1 0 0 3003.DAT
0 STEP
1 86 110.0 -216 70.0 0 0 1 0 1 0 -1 0 0 3005.DAT
0 STEP
1 86 120.0 -96 110.0 -1 0 0 0 1 0 0 0 -1 3004.DAT
0 STEP
1 86 140.0 -192 110.0 -1 0 0 0 1 0 0 0 -1 3010.DAT
0 STEP
1 86 120.0 -96 140.0 0 0 1 0 1 0 -1 0 0 3003.DAT
0 STEP
1 86 110.0 -120 130.0 0 0 1 0 1 0 -1 0 0 3005.DAT
0 STEP
1 86 120.0 -144 140.0 0 0 1 0 1 0 -1 0 0 3003.DAT
0 STEP
1 86 110.0 -120 160.0 0 0 1 0 1 0 -1 0 0 3004.DAT
0 STEP
1 86 120.0 -48 180.0 0 0 1 0 1 0 -1 0 0 3003.DAT
0 STEP
1 86 120.0 -96 170.0 -1 0 0 0 1 0 0 0 -1 3004.DAT
0 STEP
1 86 110.0 -144 180.0 0 0 1 0 1 0 -1 0 0 3004.DAT
0 STEP
1 86 110.0 -96 190.0 0 0 1 0 1 0 -1 0 0 3005.DAT
0 STEP
1 86 110.0 -72 220.0 0 0 1 0 1 0 -1 0 0 3004.DAT
0 STEP
1 86 110.0 -144 210.0 0 0 1 0 1 0 -1 0 0 3005.DAT
0 STEP
1 86 110.0 -96 240.0 0 0 1 0 1 0 -1 0 0 3004.DAT
0 STEP
1 86 140.0 -144 230.0 -1 0 0 0 1 0 0 0 -1 3010.DAT
0 STEP
1 86 110.0 -72 250.0 0 0 1 0 1 0 -1 0 0 3005.DAT
0 STEP
1 86 140.0 -144 260.0 -1 0 0 0 1 0 0 0 -1 3001.DAT
0 STEP
1 86 110.0 -96 270.0 0 0 1 0 1 0 -1 0 0 3005.DAT
0 STEP
1 86 140.0 -72 10.0 -1 0 0 0 1 0 0 0 -1 3004.DAT
0 STEP
1 86 130.0 -96 20.0 0 0 1 0 1 0 -1 0 0 3004.DAT
0 STEP
1 86 140.0 -144 20.0 0 0 1 0 1 0 -1 0 0 3003.DAT
0 STEP
1 86 130.0 -192 40.0 0 0 1 0 1 0 -1 0 0 3010.DAT
0 STEP
1 86 130.0 -216 10.0 0 0 1 0 1 0 -1 0 0 3005.DAT
0 STEP
1 86 130.0 -72 30.0 0 0 1 0 1 0 -1 0 0 3005.DAT
0 STEP
1 86 180.0 -240 30.0 -1 0 0 0 1 0 0 0 -1 3009.DAT
0 STEP
1 86 130.0 -48 80.0 0 0 1 0 1 0 -1 0 0 3010.DAT
0 STEP
1 86 140.0 -72 50.0 -1 0 0 0 1 0 0 0 -1 3004.DAT
0 STEP
1 86 130.0 -240 60.0 0 0 1 0 1 0 -1 0 0 3004.DAT
0 STEP
1 86 160.0 -216 70.0 -1 0 0 0 1 0 0 0 -1 3010.DAT
0 STEP
1 86 130.0 -192 90.0 0 0 1 0 1 0 -1 0 0 3005.DAT
0 STEP
1 86 130.0 -168 120.0 0 0 1 0 1 0 -1 0 0 3004.DAT
0 STEP
1 86 140.0 -48 130.0 -1 0 0 0 1 0 0 0 -1 3004.DAT
0 STEP
1 86 140.0 -120 130.0 -1 0 0 0 1 0 0 0 -1 3004.DAT
0 STEP
1 86 130.0 -72 200.0 0 0 1 0 1 0 -1 0 0 3009.DAT
0 STEP
1 86 130.0 -120 180.0 0 0 1 0 1 0 -1 0 0 3010.DAT
0 STEP
1 86 140.0 -144 180.0 0 0 1 0 1 0 -1 0 0 3003.DAT
0 STEP
1 86 140.0 -96 190.0 -1 0 0 0 1 0 0 0 -1 3004.DAT
0 STEP
1 86 140.0 -96 220.0 0 0 1 0 1 0 -1 0 0 3003.DAT
0 STEP
1 86 140.0 -144 210.0 -1 0 0 0 1 0 0 0 -1 3004.DAT
0 STEP
1 86 130.0 -120 230.0 0 0 1 0 1 0 -1 0 0 3005.DAT
0 STEP
1 86 130.0 -96 260.0 0 0 1 0 1 0 -1 0 0 3004.DAT
0 STEP
1 86 140.0 -120 250.0 -1 0 0 0 1 0 0 0 -1 3004.DAT
0 STEP
1 86 150.0 -48 20.0 0 0 1 0 1 0 -1 0 0 3004.DAT
0 STEP
1 86 180.0 -96 10.0 -1 0 0 0 1 0 0 0 -1 3010.DAT
0 STEP
1 86 150.0 -192 10.0 0 0 1 0 1 0 -1 0 0 3005.DAT
0 STEP
1 86 180.0 -216 10.0 -1 0 0 0 1 0 0 0 -1 3010.DAT
0 STEP
1 86 160.0 -72 30.0 -1 0 0 0 1 0 0 0 -1 3004.DAT
0 STEP
1 86 160.0 -96 30.0 -1 0 0 0 1 0 0 0 -1 3004.DAT
0 STEP
1 86 220.0 -168 30.0 -1 0 0 0 1 0 0 0 -1 3008.DAT
0 STEP
1 86 160.0 -192 60.0 0 0 1 0 1 0 -1 0 0 3001.DAT
0 STEP
1 86 150.0 -48 50.0 0 0 1 0 1 0 -1 0 0 3005.DAT
0 STEP
1 86 160.0 -96 80.0 0 0 1 0 1 0 -1 0 0 3001.DAT
0 STEP
1 86 220.0 -168 50.0 -1 0 0 0 1 0 0 0 -1 3008.DAT
0 STEP
1 86 180.0 -240 60.0 -1 0 0 0 1 0 0 0 -1 3001.DAT
0 STEP
1 86 150.0 -48 80.0 0 0 1 0 1 0 -1 0 0 3004.DAT
0 STEP
1 86 150.0 -72 70.0 0 0 1 0 1 0 -1 0 0 3005.DAT
0 STEP
1 86 200.0 -168 100.0 -1 0 0 0 1 0 0 0 -1 2456.DAT
0 STEP
1 86 200.0 -48 110.0 -1 0 0 0 1 0 0 0 -1 3009.DAT
0 STEP
1 86 150.0 -96 130.0 0 0 1 0 1 0 -1 0 0 3005.DAT
0 STEP
1 86 150.0 -144 140.0 0 0 1 0 1 0 -1 0 0 3004.DAT
0 STEP
1 86 200.0 -168 130.0 -1 0 0 0 1 0 0 0 -1 3009.DAT
0 STEP
1 86 160.0 -72 150.0 -1 0 0 0 1 0 0 0 -1 3004.DAT
0 STEP
1 86 150.0 -96 160.0 0 0 1 0 1 0 -1 0 0 3004.DAT
0 STEP
1 86 150.0 -120 150.0 0 0 1 0 1 0 -1 0 0 3005.DAT
0 STEP
1 86 160.0 -48 170.0 -1 0 0 0 1 0 0 0 -1 3004.DAT
0 STEP
1 86 150.0 -72 220.0 0 0 1 0 1 0 -1 0 0 3009.DAT
0 STEP
1 86 150.0 -120 180.0 0 0 1 0 1 0 -1 0 0 3004.DAT
0 STEP
1 86 180.0 -48 200.0 -1 0 0 0 1 0 0 0 -1 3001.DAT
0 STEP
1 86 150.0 -120 210.0 0 0 1 0 1 0 -1 0 0 3005.DAT
0 STEP
1 86 150.0 -48 230.0 0 0 1 0 1 0 -1 0 0 3005.DAT
0 STEP
1 86 180.0 -120 230.0 -1 0 0 0 1 0 0 0 -1 3010.DAT
0 STEP
1 86 150.0 -96 250.0 0 0 1 0 1 0 -1 0 0 3005.DAT
0 STEP
1 86 160.0 -96 270.0 -1 0 0 0 1 0 0 0 -1 3004.DAT
0 STEP
1 86 170.0 -48 40.0 0 0 1 0 1 0 -1 0 0 3010.DAT
0 STEP
1 86 170.0 -72 10.0 0 0 1 0 1 0 -1 0 0 3005.DAT
0 STEP
1 86 170.0 -144 20.0 0 0 1 0 1 0 -1 0 0 3004.DAT
0 STEP
1 86 180.0 -192 10.0 -1 0 0 0 1 0 0 0 -1 3004.DAT
0 STEP
1 86 170.0 -120 40.0 0 0 1 0 1 0 -1 0 0 3004.DAT
0 STEP
1 86 170.0 -72 50.0 0 0 1 0 1 0 -1 0 0 3005.DAT
0 STEP
1 86 180.0 -72 70.0 -1 0 0 0 1 0 0 0 -1 3004.DAT
0 STEP
1 86 180.0 -48 90.0 -1 0 0 0 1 0 0 0 -1 3004.DAT
0 STEP
1 86 180.0 -72 100.0 0 0 1 0 1 0 -1 0 0 3003.DAT
0 STEP
1 86 180.0 -48 140.0 0 0 1 0 1 0 -1 0 0 3003.DAT
0 STEP
1 86 180.0 -72 130.0 -1 0 0 0 1 0 0 0 -1 3004.DAT
0 STEP
1 86 170.0 -96 140.0 0 0 1 0 1 0 -1 0 0 3004.DAT
0 STEP
1 86 170.0 -120 130.0 0 0 1 0 1 0 -1 0 0 3005.DAT
0 STEP
1 86 180.0 -144 140.0 0 0 1 0 1 0 -1 0 0 3003.DAT
0 STEP
1 86 180.0 -120 150.0 -1 0 0 0 1 0 0 0 -1 3004.DAT
0 STEP
1 86 170.0 -72 180.0 0 0 1 0 1 0 -1 0 0 3004.DAT
0 STEP
1 86 170.0 -96 170.0 0 0 1 0 1 0 -1 0 0 3005.DAT
0 STEP
1 86 200.0 -120 170.0 -1 0 0 0 1 0 0 0 -1 3010.DAT
0 STEP
1 86 170.0 -144 170.0 0 0 1 0 1 0 -1 0 0 3005.DAT
0 STEP
1 86 170.0 -96 200.0 0 0 1 0 1 0 -1 0 0 3004.DAT
0 STEP
1 86 170.0 -120 190.0 0 0 1 0 1 0 -1 0 0 3005.DAT
0 STEP
1 86 170.0 -144 200.0 0 0 1 0 1 0 -1 0 0 3004.DAT
0 STEP
1 86 170.0 -72 210.0 0 0 1 0 1 0 -1 0 0 3005.DAT
0 STEP
1 86 180.0 -120 210.0 -1 0 0 0 1 0 0 0 -1 3004.DAT
0 STEP
1 86 180.0 -48 230.0 -1 0 0 0 1 0 0 0 -1 3004.DAT
0 STEP
1 86 170.0 -72 240.0 0 0 1 0 1 0 -1 0 0 3004.DAT
0 STEP
1 86 180.0 -96 240.0 0 0 1 0 1 0 -1 0 0 3003.DAT
0 STEP
1 86 170.0 -120 250.0 0 0 1 0 1 0 -1 0 0 3005.DAT
0 STEP
1 86 240.0 -72 270.0 -1 0 0 0 1 0 0 0 -1 3008.DAT
0 STEP
1 86 200.0 -48 10.0 -1 0 0 0 1 0 0 0 -1 3004.DAT
0 STEP
1 86 200.0 -72 20.0 0 0 1 0 1 0 -1 0 0 3003.DAT
0 STEP
1 86 200.0 -120 20.0 0 0 1 0 1 0 -1 0 0 3003.DAT
0 STEP
1 86 190.0 -144 10.0 0 0 1 0 1 0 -1 0 0 3005.DAT
0 STEP
1 86 260.0 -168 10.0 -1 0 0 0 1 0 0 0 -1 3008.DAT
0 STEP
1 86 190.0 -48 40.0 0 0 1 0 1 0 -1 0 0 3004.DAT
0 STEP
1 86 200.0 -96 40.0 0 0 1 0 1 0 -1 0 0 3003.DAT
0 STEP
1 86 190.0 -144 40.0 0 0 1 0 1 0 -1 0 0 3004.DAT
0 STEP
1 86 190.0 -192 60.0 0 0 1 0 1 0 -1 0 0 3010.DAT
0 STEP
1 86 200.0 -72 50.0 -1 0 0 0 1 0 0 0 -1 3004.DAT
0 STEP
1 86 200.0 -120 50.0 -1 0 0 0 1 0 0 0 -1 3004.DAT
0 STEP
1 86 190.0 -48 70.0 0 0 1 0 1 0 -1 0 0 3005.DAT
0 STEP
1 86 190.0 -96 140.0 0 0 1 0 1 0 -1 0 0 3008.DAT
0 STEP
1 86 190.0 -192 110.0 0 0 1 0 1 0 -1 0 0 3005.DAT
0 STEP
1 86 200.0 -120 130.0 -1 0 0 0 1 0 0 0 -1 3004.DAT
0 STEP
1 86 190.0 -72 150.0 0 0 1 0 1 0 -1 0 0 3005.DAT
0 STEP
1 86 190.0 -48 170.0 0 0 1 0 1 0 -1 0 0 3005.DAT
0 STEP
1 86 220.0 -72 180.0 -1 0 0 0 1 0 0 0 -1 3001.DAT
0 STEP
1 86 190.0 -144 180.0 0 0 1 0 1 0 -1 0 0 3004.DAT
0 STEP
1 86 220.0 -120 190.0 -1 0 0 0 1 0 0 0 -1 3010.DAT
0 STEP
1 86 220.0 -72 220.0 -1 0 0 0 1 0 0 0 -1 3001.DAT
0 STEP
1 86 190.0 -144 210.0 0 0 1 0 1 0 -1 0 0 3005.DAT
0 STEP
1 86 200.0 -144 240.0 0 0 1 0 1 0 -1 0 0 3003.DAT
0 STEP
1 86 190.0 -48 260.0 0 0 1 0 1 0 -1 0 0 3004.DAT
0 STEP
1 86 200.0 -72 250.0 -1 0 0 0 1 0 0 0 -1 3004.DAT
0 STEP
1 86 220.0 -120 250.0 -1 0 0 0 1 0 0 0 -1 3010.DAT
0 STEP
1 86 190.0 -96 270.0 0 0 1 0 1 0 -1 0 0 3005.DAT
0 STEP
1 86 200.0 -144 270.0 -1 0 0 0 1 0 0 0 -1 3004.DAT
0 STEP
1 86 220.0 -144 20.0 0 0 1 0 1 0 -1 0 0 3003.DAT
0 STEP
1 86 220.0 -192 20.0 0 0 1 0 1 0 -1 0 0 3003.DAT
0 STEP
1 86 210.0 -48 60.0 0 0 1 0 1 0 -1 0 0 3010.DAT
0 STEP
1 86 210.0 -216 40.0 0 0 1 0 1 0 -1 0 0 3004.DAT
0 STEP
1 86 220.0 -144 50.0 -1 0 0 0 1 0 0 0 -1 3004.DAT
0 STEP
1 86 220.0 -192 50.0 -1 0 0 0 1 0 0 0 -1 3004.DAT
0 STEP
1 86 220.0 -72 80.0 0 0 1 0 1 0 -1 0 0 3003.DAT
0 STEP
1 86 210.0 -96 70.0 0 0 1 0 1 0 -1 0 0 3005.DAT
0 STEP
1 86 220.0 -192 80.0 0 0 1 0 1 0 -1 0 0 3003.DAT
0 STEP
1 86 210.0 -216 70.0 0 0 1 0 1 0 -1 0 0 3005.DAT
0 STEP
1 86 210.0 -96 100.0 0 0 1 0 1 0 -1 0 0 3004.DAT
0 STEP
1 86 220.0 -144 100.0 0 0 1 0 1 0 -1 0 0 3003.DAT
0 STEP
1 86 220.0 -72 110.0 -1 0 0 0 1 0 0 0 -1 3004.DAT
0 STEP
1 86 260.0 -192 110.0 -1 0 0 0 1 0 0 0 -1 3009.DAT
0 STEP
1 86 210.0 -48 130.0 0 0 1 0 1 0 -1 0 0 3005.DAT
0 STEP
1 86 210.0 -72 140.0 0 0 1 0 1 0 -1 0 0 3004.DAT
0 STEP
1 86 220.0 -96 130.0 -1 0 0 0 1 0 0 0 -1 3004.DAT
0 STEP
1 86 220.0 -144 130.0 -1 0 0 0 1 0 0 0 -1 3004.DAT
0 STEP
1 86 210.0 -48 160.0 0 0 1 0 1 0 -1 0 0 3004.DAT
0 STEP
1 86 260.0 -96 150.0 -1 0 0 0 1 0 0 0 -1 3009.DAT
0 STEP
1 86 210.0 -120 150.0 0 0 1 0 1 0 -1 0 0 3005.DAT
0 STEP
1 86 210.0 -144 160.0 0 0 1 0 1 0 -1 0 0 3004.DAT
0 STEP
1 86 210.0 -96 170.0 0 0 1 0 1 0 -1 0 0 3005.DAT
0 STEP
1 86 220.0 -96 220.0 0 0 1 0 1 0 -1 0 0 3001.DAT
0 STEP
1 86 210.0 -144 190.0 0 0 1 0 1 0 -1 0 0 3005.DAT
0 STEP
1 86 210.0 -120 210.0 0 0 1 0 1 0 -1 0 0 3005.DAT
0 STEP
1 86 240.0 -144 210.0 -1 0 0 0 1 0 0 0 -1 3010.DAT
0 STEP
1 86 210.0 -48 230.0 0 0 1 0 1 0 -1 0 0 3005.DAT
0 STEP
1 86 220.0 -48 250.0 -1 0 0 0 1 0 0 0 -1 3004.DAT
0 STEP
1 86 210.0 -48 270.0 0 0 1 0 1 0 -1 0 0 3005.DAT
0 STEP
1 86 220.0 -96 270.0 -1 0 0 0 1 0 0 0 -1 3004.DAT
0 STEP
1 86 260.0 -48 20.0 -1 0 0 0 1 0 0 0 -1 3001.DAT
0 STEP
1 86 230.0 -72 10.0 0 0 1 0 1 0 -1 0 0 3005.DAT
0 STEP
1 86 230.0 -96 60.0 0 0 1 0 1 0 -1 0 0 3009.DAT
0 STEP
1 86 230.0 -120 10.0 0 0 1 0 1 0 -1 0 0 3005.DAT
0 STEP
1 86 230.0 -216 40.0 0 0 1 0 1 0 -1 0 0 3010.DAT
0 STEP
1 86 240.0 -72 40.0 0 0 1 0 1 0 -1 0 0 3003.DAT
0 STEP
1 86 240.0 -120 40.0 0 0 1 0 1 0 -1 0 0 3003.DAT
0 STEP
1 86 260.0 -48 60.0 -1 0 0 0 1 0 0 0 -1 3001.DAT
0 STEP
1 86 230.0 -240 60.0 0 0 1 0 1 0 -1 0 0 3004.DAT
0 STEP
1 86 260.0 -48 90.0 -1 0 0 0 1 0 0 0 -1 3010.DAT
0 STEP
1 86 230.0 -48 180.0 0 0 1 0 1 0 -1 0 0 3009.DAT
0 STEP
1 86 240.0 -72 140.0 0 0 1 0 1 0 -1 0 0 3003.DAT
0 STEP
1 86 230.0 -120 140.0 0 0 1 0 1 0 -1 0 0 3004.DAT
0 STEP
1 86 230.0 -144 150.0 0 0 1 0 1 0 -1 0 0 3005.DAT
0 STEP
1 86 260.0 -96 170.0 -1 0 0 0 1 0 0 0 -1 3010.DAT
0 STEP
1 86 240.0 -144 180.0 0 0 1 0 1 0 -1 0 0 3003.DAT
0 STEP
1 86 240.0 -120 220.0 0 0 1 0 1 0 -1 0 0 3003.DAT
0 STEP
1 86 230.0 -144 230.0 0 0 1 0 1 0 -1 0 0 3005.DAT
0 STEP
1 86 230.0 -72 250.0 0 0 1 0 1 0 -1 0 0 3005.DAT
0 STEP
1 86 230.0 -144 260.0 0 0 1 0 1 0 -1 0 0 3004.DAT
0 STEP
1 86 240.0 -48 270.0 -1 0 0 0 1 0 0 0 -1 3004.DAT
0 STEP
1 86 280.0 -72 10.0 -1 0 0 0 1 0 0 0 -1 3010.DAT
0 STEP
1 86 250.0 -96 20.0 0 0 1 0 1 0 -1 0 0 3004.DAT
0 STEP
1 86 280.0 -120 10.0 -1 0 0 0 1 0 0 0 -1 3010.DAT
0 STEP
1 86 260.0 -144 10.0 -1 0 0 0 1 0 0 0 -1 3004.DAT
0 STEP
1 86 250.0 -192 10.0 0 0 1 0 1 0 -1 0 0 3005.DAT
0 STEP
1 86 260.0 -216 20.0 0 0 1 0 1 0 -1 0 0 3003.DAT
0 STEP
1 86 260.0 -144 40.0 0 0 1 0 1 0 -1 0 0 3003.DAT
0 STEP
1 86 250.0 -192 60.0 0 0 1 0 1 0 -1 0 0 3010.DAT
0 STEP
1 86 250.0 -240 30.0 0 0 1 0 1 0 -1 0 0 3005.DAT
0 STEP
1 86 280.0 -96 50.0 -1 0 0 0 1 0 0 0 -1 3010.DAT
0 STEP
1 86 260.0 -216 50.0 -1 0 0 0 1 0 0 0 -1 3004.DAT
0 STEP
1 86 280.0 -240 60.0 -1 0 0 0 1 0 0 0 -1 3001.DAT
0 STEP
1 86 260.0 -72 70.0 -1 0 0 0 1 0 0 0 -1 3004.DAT
0 STEP
1 86 250.0 -96 100.0 0 0 1 0 1 0 -1 0 0 3010.DAT
0 STEP
1 86 300.0 -168 70.0 -1 0 0 0 1 0 0 0 -1 3009.DAT
0 STEP
1 86 280.0 -216 70.0 -1 0 0 0 1 0 0 0 -1 3010.DAT
0 STEP
1 86 260.0 -72 100.0 0 0 1 0 1 0 -1 0 0 3003.DAT
0 STEP
1 86 250.0 -144 90.0 0 0 1 0 1 0 -1 0 0 3005.DAT
0 STEP
1 86 280.0 -144 110.0 -1 0 0 0 1 0 0 0 -1 3010.DAT
0 STEP
1 86 250.0 -48 130.0 0 0 1 0 1 0 -1 0 0 3005.DAT
0 STEP
1 86 260.0 -120 130.0 -1 0 0 0 1 0 0 0 -1 3004.DAT
0 STEP
1 86 280.0 -144 140.0 -1 0 0 0 1 0 0 0 -1 3001.DAT
0 STEP
1 86 260.0 -48 150.0 -1 0 0 0 1 0 0 0 -1 3004.DAT
0 STEP
1 86 250.0 -120 160.0 0 0 1 0 1 0 -1 0 0 3004.DAT
0 STEP
1 86 250.0 -48 170.0 0 0 1 0 1 0 -1 0 0 3005.DAT
0 STEP
1 86 250.0 -48 200.0 0 0 1 0 1 0 -1 0 0 3004.DAT
0 STEP
1 86 260.0 -96 190.0 -1 0 0 0 1 0 0 0 -1 3004.DAT
0 STEP
1 86 250.0 -96 210.0 0 0 1 0 1 0 -1 0 0 3005.DAT
0 STEP
1 86 260.0 -48 230.0 -1 0 0 0 1 0 0 0 -1 3004.DAT
0 STEP
1 86 280.0 -96 230.0 -1 0 0 0 1 0 0 0 -1 3010.DAT
0 STEP
1 86 250.0 -144 240.0 0 0 1 0 1 0 -1 0 0 3004.DAT
0 STEP
1 86 250.0 -48 250.0 0 0 1 0 1 0 -1 0 0 3005.DAT
0 STEP
1 86 260.0 -72 250.0 -1 0 0 0 1 0 0 0 -1 3004.DAT
0 STEP
1 86 250.0 -96 260.0 0 0 1 0 1 0 -1 0 0 3004.DAT
0 STEP
1 86 260.0 -120 270.0 -1 0 0 0 1 0 0 0 -1 3004.DAT
0 STEP
1 86 250.0 -144 270.0 0 0 1 0 1 0 -1 0 0 3005.DAT
0 STEP
1 86 300.0 -96 20.0 -1 0 0 0 1 0 0 0 -1 3001.DAT
0 STEP
1 86 300.0 -192 20.0 -1 0 0 0 1 0 0 0 -1 3001.DAT
0 STEP
1 86 270.0 -72 40.0 0 0 1 0 1 0 -1 0 0 3004.DAT
0 STEP
1 86 270.0 -120 40.0 0 0 1 0 1 0 -1 0 0 3004.DAT
0 STEP
1 86 280.0 -240 30.0 -1 0 0 0 1 0 0 0 -1 3004.DAT
0 STEP
1 86 270.0 -192 60.0 0 0 1 0 1 0 -1 0 0 3004.DAT
0 STEP
1 86 280.0 -96 70.0 -1 0 0 0 1 0 0 0 -1 3004.DAT
0 STEP
1 86 270.0 -96 100.0 0 0 1 0 1 0 -1 0 0 3004.DAT
0 STEP
1 86 280.0 -144 90.0 -1 0 0 0 1 0 0 0 -1 3004.DAT
0 STEP
1 86 270.0 -168 90.0 0 0 1 0 1 0 -1 0 0 3005.DAT
0 STEP
1 86 280.0 -192 90.0 -1 0 0 0 1 0 0 0 -1 3004.DAT
0 STEP
1 86 270.0 -48 110.0 0 0 1 0 1 0 -1 0 0 3005.DAT
0 STEP
1 86 280.0 -168 120.0 0 0 1 0 1 0 -1 0 0 3003.DAT
0 STEP
1 86 300.0 -48 130.0 -1 0 0 0 1 0 0 0 -1 3010.DAT
0 STEP
1 86 270.0 -72 130.0 0 0 1 0 1 0 -1 0 0 3005.DAT
0 STEP
1 86 280.0 -96 130.0 -1 0 0 0 1 0 0 0 -1 3004.DAT
0 STEP
1 86 270.0 -72 160.0 0 0 1 0 1 0 -1 0 0 3004.DAT
0 STEP
1 86 270.0 -120 150.0 0 0 1 0 1 0 -1 0 0 3005.DAT
0 STEP
1 86 270.0 -48 180.0 0 0 1 0 1 0 -1 0 0 3004.DAT
0 STEP
1 86 270.0 -120 180.0 0 0 1 0 1 0 -1 0 0 3004.DAT
0 STEP
1 86 280.0 -144 170.0 -1 0 0 0 1 0 0 0 -1 3004.DAT
0 STEP
1 86 270.0 -72 190.0 0 0 1 0 1 0 -1 0 0 3005.DAT
0 STEP
1 86 270.0 -144 190.0 0 0 1 0 1 0 -1 0 0 3005.DAT
0 STEP
1 86 270.0 -48 210.0 0 0 1 0 1 0 -1 0 0 3005.DAT
0 STEP
1 86 270.0 -72 220.0 0 0 1 0 1 0 -1 0 0 3004.DAT
0 STEP
1 86 280.0 -96 210.0 -1 0 0 0 1 0 0 0 -1 3004.DAT
0 STEP
1 86 280.0 -120 210.0 -1 0 0 0 1 0 0 0 -1 3004.DAT
0 STEP
1 86 280.0 -120 240.0 0 0 1 0 1 0 -1 0 0 3003.DAT
0 STEP
1 86 270.0 -144 230.0 0 0 1 0 1 0 -1 0 0 3005.DAT
0 STEP
1 86 270.0 -48 260.0 0 0 1 0 1 0 -1 0 0 3004.DAT
0 STEP
1 86 280.0 -96 260.0 0 0 1 0 1 0 -1 0 0 3003.DAT
0 STEP
1 86 270.0 -144 260.0 0 0 1 0 1 0 -1 0 0 3004.DAT
0 STEP
1 86 300.0 -144 20.0 0 0 1 0 1 0 -1 0 0 3003.DAT
0 STEP
1 86 300.0 -216 10.0 -1 0 0 0 1 0 0 0 -1 3004.DAT
0 STEP
1 86 290.0 -72 60.0 0 0 1 0 1 0 -1 0 0 3010.DAT
0 STEP
1 86 300.0 -120 40.0 0 0 1 0 1 0 -1 0 0 3003.DAT
0 STEP
1 86 300.0 -216 40.0 0 0 1 0 1 0 -1 0 0 3003.DAT
0 STEP
1 86 300.0 -144 50.0 -1 0 0 0 1 0 0 0 -1 3004.DAT
0 STEP
1 86 300.0 -192 50.0 -1 0 0 0 1 0 0 0 -1 3004.DAT
0 STEP
1 86 290.0 -192 70.0 0 0 1 0 1 0 -1 0 0 3005.DAT
0 STEP
1 86 300.0 -96 100.0 0 0 1 0 1 0 -1 0 0 3003.DAT
0 STEP
1 86 320.0 -168 90.0 -1 0 0 0 1 0 0 0 -1 3010.DAT
0 STEP
1 86 300.0 -48 110.0 -1 0 0 0 1 0 0 0 -1 3004.DAT
0 STEP
1 86 290.0 -72 110.0 0 0 1 0 1 0 -1 0 0 3005.DAT
0 STEP
1 86 290.0 -72 180.0 0 0 1 0 1 0 -1 0 0 3009.DAT
0 STEP
1 86 290.0 -120 160.0 0 0 1 0 1 0 -1 0 0 3010.DAT
0 STEP
1 86 300.0 -48 160.0 0 0 1 0 1 0 -1 0 0 3003.DAT
0 STEP
1 86 290.0 -48 190.0 0 0 1 0 1 0 -1 0 0 3005.DAT
0 STEP
1 86 290.0 -96 190.0 0 0 1 0 1 0 -1 0 0 3005.DAT
0 STEP
1 86 290.0 -144 200.0 0 0 1 0 1 0 -1 0 0 3004.DAT
0 STEP
1 86 300.0 -48 210.0 -1 0 0 0 1 0 0 0 -1 3004.DAT
0 STEP
1 86 290.0 -48 240.0 0 0 1 0 1 0 -1 0 0 3004.DAT
0 STEP
1 86 300.0 -144 230.0 -1 0 0 0 1 0 0 0 -1 3004.DAT
0 STEP
1 86 290.0 -72 250.0 0 0 1 0 1 0 -1 0 0 3005.DAT
0 STEP
1 86 300.0 -144 260.0 0 0 1 0 1 0 -1 0 0 3003.DAT
0 STEP
1 86 290.0 -48 270.0 0 0 1 0 1 0 -1 0 0 3005.DAT
0 STEP
1 86 290.0 -120 270.0 0 0 1 0 1 0 -1 0 0 3005.DAT
0 STEP
1 86 340.0 -48 10.0 -1 0 0 0 1 0 0 0 -1 3010.DAT
0 STEP
1 86 310.0 -48 60.0 0 0 1 0 1 0 -1 0 0 3010.DAT
0 STEP
1 86 320.0 -72 30.0 -1 0 0 0 1 0 0 0 -1 3004.DAT
0 STEP
1 86 310.0 -168 40.0 0 0 1 0 1 0 -1 0 0 3004.DAT
0 STEP
1 86 310.0 -240 30.0 0 0 1 0 1 0 -1 0 0 3005.DAT
0 STEP
1 86 320.0 -72 60.0 0 0 1 0 1 0 -1 0 0 3003.DAT
0 STEP
1 86 310.0 -96 70.0 0 0 1 0 1 0 -1 0 0 3005.DAT
0 STEP
1 86 310.0 -192 80.0 0 0 1 0 1 0 -1 0 0 3004.DAT
0 STEP
1 86 310.0 -72 100.0 0 0 1 0 1 0 -1 0 0 3004.DAT
0 STEP
1 86 310.0 -144 90.0 0 0 1 0 1 0 -1 0 0 3005.DAT
0 STEP
1 86 310.0 -168 120.0 0 0 1 0 1 0 -1 0 0 3004.DAT
0 STEP
1 86 340.0 -72 140.0 -1 0 0 0 1 0 0 0 -1 3001.DAT
0 STEP
1 86 310.0 -96 130.0 0 0 1 0 1 0 -1 0 0 3005.DAT
0 STEP
1 86 320.0 -120 130.0 -1 0 0 0 1 0 0 0 -1 3004.DAT
0 STEP
1 86 320.0 -120 160.0 0 0 1 0 1 0 -1 0 0 3003.DAT
0 STEP
1 86 310.0 -72 180.0 0 0 1 0 1 0 -1 0 0 3004.DAT
0 STEP
1 86 310.0 -96 170.0 0 0 1 0 1 0 -1 0 0 3005.DAT
0 STEP
1 86 310.0 -144 180.0 0 0 1 0 1 0 -1 0 0 3004.DAT
0 STEP
1 86 320.0 -48 190.0 -1 0 0 0 1 0 0 0 -1 3004.DAT
0 STEP
1 86 320.0 -96 200.0 0 0 1 0 1 0 -1 0 0 3003.DAT
0 STEP
1 86 310.0 -120 190.0 0 0 1 0 1 0 -1 0 0 3005.DAT
0 STEP
1 86 320.0 -72 220.0 0 0 1 0 1 0 -1 0 0 3003.DAT
0 STEP
1 86 310.0 -120 220.0 0 0 1 0 1 0 -1 0 0 3004.DAT
0 STEP
1 86 310.0 -144 210.0 0 0 1 0 1 0 -1 0 0 3005.DAT
0 STEP
1 86 320.0 -48 230.0 -1 0 0 0 1 0 0 0 -1 3004.DAT
0 STEP
1 86 310.0 -48 260.0 0 0 1 0 1 0 -1 0 0 3004.DAT
0 STEP
1 86 320.0 -72 250.0 -1 0 0 0 1 0 0 0 -1 3004.DAT
0 STEP
1 86 310.0 -96 260.0 0 0 1 0 1 0 -1 0 0 3004.DAT
0 STEP
1 86 310.0 -120 250.0 0 0 1 0 1 0 -1 0 0 3005.DAT
0 STEP
1 86 340.0 -120 270.0 -1 0 0 0 1 0 0 0 -1 3010.DAT
0 STEP
1 86 330.0 -72 10.0 0 0 1 0 1 0 -1 0 0 3005.DAT
0 STEP
1 86 330.0 -120 20.0 0 0 1 0 1 0 -1 0 0 3004.DAT
0 STEP
1 86 380.0 -144 10.0 -1 0 0 0 1 0 0 0 -1 3009.DAT
0 STEP
1 86 380.0 -216 20.0 -1 0 0 0 1 0 0 0 -1 2456.DAT
0 STEP
1 86 330.0 -48 40.0 0 0 1 0 1 0 -1 0 0 3004.DAT
0 STEP
1 86 360.0 -144 40.0 -1 0 0 0 1 0 0 0 -1 3001.DAT
0 STEP
1 86 330.0 -168 30.0 0 0 1 0 1 0 -1 0 0 3005.DAT
0 STEP
1 86 330.0 -240 40.0 0 0 1 0 1 0 -1 0 0 3004.DAT
0 STEP
1 86 330.0 -96 50.0 0 0 1 0 1 0 -1 0 0 3005.DAT
0 STEP
1 86 380.0 -120 50.0 -1 0 0 0 1 0 0 0 -1 3009.DAT
0 STEP
1 86 380.0 -168 50.0 -1 0 0 0 1 0 0 0 -1 3009.DAT
0 STEP
1 86 330.0 -192 80.0 0 0 1 0 1 0 -1 0 0 3010.DAT
0 STEP
1 86 360.0 -216 60.0 -1 0 0 0 1 0 0 0 -1 3001.DAT
0 STEP
1 86 330.0 -48 70.0 0 0 1 0 1 0 -1 0 0 3005.DAT
0 STEP
1 86 340.0 -96 80.0 0 0 1 0 1 0 -1 0 0 3003.DAT
0 STEP
1 86 340.0 -240 70.0 -1 0 0 0 1 0 0 0 -1 3004.DAT
0 STEP
1 86 330.0 -48 100.0 0 0 1 0 1 0 -1 0 0 3004.DAT
0 STEP
1 86 330.0 -72 90.0 0 0 1 0 1 0 -1 0 0 3005.DAT
0 STEP
1 86 330.0 -144 100.0 0 0 1 0 1 0 -1 0 0 3004.DAT
0 STEP
1 86 340.0 -72 110.0 -1 0 0 0 1 0 0 0 -1 3004.DAT
0 STEP
1 86 330.0 -96 140.0 0 0 1 0 1 0 -1 0 0 3010.DAT
0 STEP
1 86 340.0 -168 120.0 0 0 1 0 1 0 -1 0 0 3003.DAT
0 STEP
1 86 330.0 -144 200.0 0 0 1 0 1 0 -1 0 0 3008.DAT
0 STEP
1 86 330.0 -48 160.0 0 0 1 0 1 0 -1 0 0 3004.DAT
0 STEP
1 86 340.0 -72 170.0 -1 0 0 0 1 0 0 0 -1 3004.DAT
0 STEP
1 86 330.0 -72 190.0 0 0 1 0 1 0 -1 0 0 3005.DAT
0 STEP
1 86 340.0 -120 200.0 0 0 1 0 1 0 -1 0 0 3003.DAT
0 STEP
1 86 330.0 -48 210.0 0 0 1 0 1 0 -1 0 0 3005.DAT
0 STEP
1 86 330.0 -96 230.0 0 0 1 0 1 0 -1 0 0 3005.DAT
0 STEP
1 86 330.0 -120 240.0 0 0 1 0 1 0 -1 0 0 3004.DAT
0 STEP
1 86 340.0 -48 260.0 0 0 1 0 1 0 -1 0 0 3003.DAT
0 STEP
1 86 340.0 -96 260.0 0 0 1 0 1 0 -1 0 0 3003.DAT
0 STEP
1 86 340.0 -72 270.0 -1 0 0 0 1 0 0 0 -1 3004.DAT
0 STEP
1 86 360.0 -72 20.0 0 0 1 0 1 0 -1 0 0 3003.DAT
0 STEP
1 86 350.0 -96 10.0 0 0 1 0 1 0 -1 0 0 3005.DAT
0 STEP
1 86 380.0 -120 20.0 -1 0 0 0 1 0 0 0 -1 3001.DAT
0 STEP
1 86 380.0 -168 20.0 -1 0 0 0 1 0 0 0 -1 3001.DAT
0 STEP
1 86 420.0 -192 10.0 -1 0 0 0 1 0 0 0 -1 3008.DAT
0 STEP
1 86 360.0 -48 40.0 0 0 1 0 1 0 -1 0 0 3003.DAT
0 STEP
1 86 350.0 -96 40.0 0 0 1 0 1 0 -1 0 0 3004.DAT
0 STEP
1 86 360.0 -192 40.0 0 0 1 0 1 0 -1 0 0 3003.DAT
0 STEP
1 86 360.0 -240 40.0 0 0 1 0 1 0 -1 0 0 3003.DAT
0 STEP
1 86 360.0 -72 50.0 -1 0 0 0 1 0 0 0 -1 3004.DAT
0 STEP
1 86 360.0 -48 70.0 -1 0 0 0 1 0 0 0 -1 3004.DAT
0 STEP
1 86 360.0 -72 80.0 0 0 1 0 1 0 -1 0 0 3003.DAT
0 STEP
1 86 360.0 -192 70.0 -1 0 0 0 1 0 0 0 -1 3004.DAT
0 STEP
1 86 350.0 -48 140.0 0 0 1 0 1 0 -1 0 0 3009.DAT
0 STEP
1 86 380.0 -144 90.0 -1 0 0 0 1 0 0 0 -1 3010.DAT
0 STEP
1 86 360.0 -192 100.0 0 0 1 0 1 0 -1 0 0 3003.DAT
0 STEP
1 86 350.0 -96 120.0 0 0 1 0 1 0 -1 0 0 3004.DAT
0 STEP
1 86 350.0 -144 140.0 0 0 1 0 1 0 -1 0 0 3010.DAT
0 STEP
1 86 350.0 -120 140.0 0 0 1 0 1 0 -1 0 0 3004.DAT
0 STEP
1 86 360.0 -96 180.0 0 0 1 0 1 0 -1 0 0 3001.DAT
0 STEP
1 86 350.0 -120 170.0 0 0 1 0 1 0 -1 0 0 3005.DAT
0 STEP
1 86 360.0 -72 190.0 -1 0 0 0 1 0 0 0 -1 3004.DAT
0 STEP
1 86 360.0 -144 190.0 -1 0 0 0 1 0 0 0 -1 3004.DAT
0 STEP
1 86 360.0 -48 210.0 -1 0 0 0 1 0 0 0 -1 3004.DAT
0 STEP
1 86 350.0 -72 220.0 0 0 1 0 1 0 -1 0 0 3004.DAT
0 STEP
1 86 360.0 -144 220.0 0 0 1 0 1 0 -1 0 0 3003.DAT
0 STEP
1 86 350.0 -48 230.0 0 0 1 0 1 0 -1 0 0 3005.DAT
0 STEP
1 86 360.0 -96 230.0 -1 0 0 0 1 0 0 0 -1 3004.DAT
0 STEP
1 86 360.0 -120 240.0 0 0 1 0 1 0 -1 0 0 3003.DAT
0 STEP
1 86 350.0 -72 250.0 0 0 1 0 1 0 -1 0 0 3005.DAT
0 STEP
1 86 350.0 -144 260.0 0 0 1 0 1 0 -1 0 0 3004.DAT
0 STEP
1 86 380.0 -96 10.0 -1 0 0 0 1 0 0 0 -1 3004.DAT
0 STEP
1 86 380.0 -96 40.0 0 0 1 0 1 0 -1 0 0 3003.DAT
0 STEP
1 86 380.0 -96 70.0 -1 0 0 0 1 0 0 0 -1 3004.DAT
0 STEP
1 86 370.0 -168 100.0 0 0 1 0 1 0 -1 0 0 3010.DAT
0 STEP
1 86 370.0 -240 70.0 0 0 1 0 1 0 -1 0 0 3005.DAT
0 STEP
1 86 380.0 -48 100.0 0 0 1 0 1 0 -1 0 0 3003.DAT
0 STEP
1 86 380.0 -96 100.0 0 0 1 0 1 0 -1 0 0 3003.DAT
0 STEP
1 86 370.0 -72 110.0 0 0 1 0 1 0 -1 0 0 3005.DAT
0 STEP
1 86 370.0 -144 110.0 0 0 1 0 1 0 -1 0 0 3005.DAT
0 STEP
1 86 370.0 -48 130.0 0 0 1 0 1 0 -1 0 0 3005.DAT
0 STEP
1 86 370.0 -96 130.0 0 0 1 0 1 0 -1 0 0 3005.DAT
0 STEP
1 86 380.0 -120 130.0 -1 0 0 0 1 0 0 0 -1 3004.DAT
0 STEP
1 86 370.0 -144 140.0 0 0 1 0 1 0 -1 0 0 3004.DAT
0 STEP
1 86 380.0 -48 160.0 0 0 1 0 1 0 -1 0 0 3003.DAT
0 STEP
1 86 380.0 -120 180.0 0 0 1 0 1 0 -1 0 0 3001.DAT
0 STEP
1 86 370.0 -72 170.0 0 0 1 0 1 0 -1 0 0 3005.DAT
0 STEP
1 86 370.0 -144 170.0 0 0 1 0 1 0 -1 0 0 3005.DAT
0 STEP
1 86 380.0 -48 190.0 -1 0 0 0 1 0 0 0 -1 3004.DAT
0 STEP
1 86 380.0 -72 210.0 -1 0 0 0 1 0 0 0 -1 3004.DAT
0 STEP
1 86 370.0 -48 240.0 0 0 1 0 1 0 -1 0 0 3004.DAT
0 STEP
1 86 370.0 -72 230.0 0 0 1 0 1 0 -1 0 0 3005.DAT
0 STEP
1 86 370.0 -72 260.0 0 0 1 0 1 0 -1 0 0 3004.DAT
0 STEP
1 86 370.0 -96 250.0 0 0 1 0 1 0 -1 0 0 3005.DAT
0 STEP
1 86 370.0 -144 250.0 0 0 1 0 1 0 -1 0 0 3005.DAT
0 STEP
1 86 370.0 -48 270.0 0 0 1 0 1 0 -1 0 0 3005.DAT
0 STEP
1 86 380.0 -96 270.0 -1 0 0 0 1 0 0 0 -1 3004.DAT
0 STEP
1 86 380.0 -144 270.0 -1 0 0 0 1 0 0 0 -1 3004.DAT
0 STEP
1 86 390.0 -48 10.0 0 0 1 0 1 0 -1 0 0 3005.DAT
0 STEP
1 86 420.0 -72 10.0 -1 0 0 0 1 0 0 0 -1 3010.DAT
0 STEP
1 86 390.0 -48 40.0 0 0 1 0 1 0 -1 0 0 3004.DAT
0 STEP
1 86 400.0 -72 30.0 -1 0 0 0 1 0 0 0 -1 3004.DAT
0 STEP
1 86 400.0 -192 60.0 0 0 1 0 1 0 -1 0 0 3001.DAT
0 STEP
1 86 390.0 -240 40.0 0 0 1 0 1 0 -1 0 0 3004.DAT
0 STEP
1 86 400.0 -72 60.0 0 0 1 0 1 0 -1 0 0 3003.DAT
0 STEP
1 86 390.0 -48 70.0 0 0 1 0 1 0 -1 0 0 3005.DAT
0 STEP
1 86 420.0 -168 70.0 -1 0 0 0 1 0 0 0 -1 3010.DAT
0 STEP
1 86 400.0 -240 70.0 -1 0 0 0 1 0 0 0 -1 3004.DAT
0 STEP
1 86 390.0 -72 90.0 0 0 1 0 1 0 -1 0 0 3005.DAT
0 STEP
1 86 390.0 -168 100.0 0 0 1 0 1 0 -1 0 0 3004.DAT
0 STEP
1 86 420.0 -72 110.0 -1 0 0 0 1 0 0 0 -1 3010.DAT
0 STEP
1 86 400.0 -144 120.0 0 0 1 0 1 0 -1 0 0 3003.DAT
0 STEP
1 86 400.0 -192 110.0 -1 0 0 0 1 0 0 0 -1 3004.DAT
0 STEP
1 86 400.0 -48 130.0 -1 0 0 0 1 0 0 0 -1 3004.DAT
0 STEP
1 86 390.0 -72 160.0 0 0 1 0 1 0 -1 0 0 3010.DAT
0 STEP
1 86 400.0 -96 130.0 -1 0 0 0 1 0 0 0 -1 3004.DAT
0 STEP
1 86 390.0 -168 130.0 0 0 1 0 1 0 -1 0 0 3005.DAT
0 STEP
1 86 440.0 -96 150.0 -1 0 0 0 1 0 0 0 -1 3009.DAT
0 STEP
1 86 390.0 -144 160.0 0 0 1 0 1 0 -1 0 0 3004.DAT
0 STEP
1 86 400.0 -96 180.0 0 0 1 0 1 0 -1 0 0 3003.DAT
0 STEP
1 86 420.0 -144 200.0 -1 0 0 0 1 0 0 0 -1 3001.DAT
0 STEP
1 86 390.0 -48 210.0 0 0 1 0 1 0 -1 0 0 3005.DAT
0 STEP
1 86 400.0 -96 210.0 -1 0 0 0 1 0 0 0 -1 3004.DAT
0 STEP
1 86 420.0 -48 230.0 -1 0 0 0 1 0 0 0 -1 3010.DAT
0 STEP
1 86 390.0 -72 240.0 0 0 1 0 1 0 -1 0 0 3004.DAT
0 STEP
1 86 400.0 -96 240.0 0 0 1 0 1 0 -1 0 0 3003.DAT
0 STEP
1 86 390.0 -120 230.0 0 0 1 0 1 0 -1 0 0 3005.DAT
0 STEP
1 86 390.0 -144 240.0 0 0 1 0 1 0 -1 0 0 3004.DAT
0 STEP
1 86 390.0 -48 260.0 0 0 1 0 1 0 -1 0 0 3004.DAT
0 STEP
1 86 390.0 -120 260.0 0 0 1 0 1 0 -1 0 0 3004.DAT
0 STEP
1 86 400.0 -72 270.0 -1 0 0 0 1 0 0 0 -1 3004.DAT
0 STEP
1 86 420.0 -48 20.0 0 0 1 0 1 0 -1 0 0 3003.DAT
0 STEP
1 86 420.0 -96 20.0 0 0 1 0 1 0 -1 0 0 3003.DAT
0 STEP
1 86 410.0 -144 40.0 0 0 1 0 1 0 -1 0 0 3004.DAT
0 STEP
1 86 410.0 -240 30.0 0 0 1 0 1 0 -1 0 0 3005.DAT
0 STEP
1 86 410.0 -48 50.0 0 0 1 0 1 0 -1 0 0 3005.DAT
0 STEP
1 86 410.0 -96 80.0 0 0 1 0 1 0 -1 0 0 3010.DAT
0 STEP
1 86 410.0 -216 60.0 0 0 1 0 1 0 -1 0 0 3004.DAT
0 STEP
1 86 420.0 -240 50.0 -1 0 0 0 1 0 0 0 -1 3004.DAT
0 STEP
1 86 410.0 -48 80.0 0 0 1 0 1 0 -1 0 0 3004.DAT
0 STEP
1 86 420.0 -72 90.0 -1 0 0 0 1 0 0 0 -1 3004.DAT
0 STEP
1 86 420.0 -168 90.0 -1 0 0 0 1 0 0 0 -1 3004.DAT
0 STEP
1 86 410.0 -48 110.0 0 0 1 0 1 0 -1 0 0 3005.DAT
0 STEP
1 86 440.0 -168 120.0 -1 0 0 0 1 0 0 0 -1 3001.DAT
0 STEP
1 86 420.0 -72 130.0 -1 0 0 0 1 0 0 0 -1 3004.DAT
0 STEP
1 86 410.0 -120 140.0 0 0 1 0 1 0 -1 0 0 3004.DAT
0 STEP
1 86 410.0 -48 150.0 0 0 1 0 1 0 -1 0 0 3005.DAT
0 STEP
1 86 420.0 -72 200.0 0 0 1 0 1 0 -1 0 0 2456.DAT
0 STEP
1 86 420.0 -144 160.0 0 0 1 0 1 0 -1 0 0 3003.DAT
0 STEP
1 86 410.0 -48 180.0 0 0 1 0 1 0 -1 0 0 3004.DAT
0 STEP
1 86 420.0 -120 170.0 -1 0 0 0 1 0 0 0 -1 3004.DAT
0 STEP
1 86 420.0 -120 220.0 0 0 1 0 1 0 -1 0 0 3001.DAT
0 STEP
1 86 420.0 -48 210.0 -1 0 0 0 1 0 0 0 -1 3004.DAT
0 STEP
1 86 410.0 -144 230.0 0 0 1 0 1 0 -1 0 0 3005.DAT
0 STEP
1 86 420.0 -48 260.0 0 0 1 0 1 0 -1 0 0 3003.DAT
0 STEP
1 86 460.0 -144 260.0 -1 0 0 0 1 0 0 0 -1 2456.DAT
0 STEP
1 86 410.0 -96 270.0 0 0 1 0 1 0 -1 0 0 3005.DAT
0 STEP
1 86 440.0 -120 270.0 -1 0 0 0 1 0 0 0 -1 3010.DAT
0 STEP
1 86 440.0 -120 10.0 -1 0 0 0 1 0 0 0 -1 3004.DAT
0 STEP
1 86 430.0 -168 20.0 0 0 1 0 1 0 -1 0 0 3004.DAT
0 STEP
1 86 430.0 -72 30.0 0 0 1 0 1 0 -1 0 0 3005.DAT
0 STEP
1 86 430.0 -120 30.0 0 0 1 0 1 0 -1 0 0 3005.DAT
0 STEP
1 86 460.0 -144 40.0 -1 0 0 0 1 0 0 0 -1 3001.DAT
0 STEP
1 86 430.0 -192 30.0 0 0 1 0 1 0 -1 0 0 3005.DAT
0 STEP
1 86 440.0 -240 30.0 -1 0 0 0 1 0 0 0 -1 3004.DAT
0 STEP
1 86 480.0 -48 50.0 -1 0 0 0 1 0 0 0 -1 3009.DAT
0 STEP
1 86 430.0 -72 60.0 0 0 1 0 1 0 -1 0 0 3004.DAT
0 STEP
1 86 440.0 -96 60.0 0 0 1 0 1 0 -1 0 0 3003.DAT
0 STEP
1 86 430.0 -192 80.0 0 0 1 0 1 0 -1 0 0 3010.DAT
0 STEP
1 86 440.0 -216 60.0 0 0 1 0 1 0 -1 0 0 3003.DAT
0 STEP
1 86 430.0 -48 100.0 0 0 1 0 1 0 -1 0 0 3010.DAT
0 STEP
1 86 430.0 -240 70.0 0 0 1 0 1 0 -1 0 0 3005.DAT
0 STEP
1 86 460.0 -96 90.0 -1 0 0 0 1 0 0 0 -1 3010.DAT
0 STEP
1 86 430.0 -144 100.0 0 0 1 0 1 0 -1 0 0 3004.DAT
0 STEP
1 86 430.0 -96 120.0 0 0 1 0 1 0 -1 0 0 3004.DAT
0 STEP
1 86 440.0 -120 140.0 0 0 1 0 1 0 -1 0 0 3003.DAT
0 STEP
1 86 430.0 -144 130.0 0 0 1 0 1 0 -1 0 0 3005.DAT
0 STEP
1 86 440.0 -48 150.0 -1 0 0 0 1 0 0 0 -1 3004.DAT
0 STEP
1 86 460.0 -48 170.0 -1 0 0 0 1 0 0 0 -1 3010.DAT
0 STEP
1 86 440.0 -96 170.0 -1 0 0 0 1 0 0 0 -1 3004.DAT
0 STEP
1 86 440.0 -48 190.0 -1 0 0 0 1 0 0 0 -1 3004.DAT
0 STEP
1 86 440.0 -96 200.0 0 0 1 0 1 0 -1 0 0 3003.DAT
0 STEP
1 86 440.0 -96 230.0 -1 0 0 0 1 0 0 0 -1 3004.DAT
0 STEP
1 86 440.0 -144 230.0 -1 0 0 0 1 0 0 0 -1 3004.DAT
0 STEP
1 86 440.0 -96 260.0 0 0 1 0 1 0 -1 0 0 3003.DAT
0 STEP
1 86 430.0 -72 270.0 0 0 1 0 1 0 -1 0 0 3005.DAT
0 STEP
1 86 450.0 -48 10.0 0 0 1 0 1 0 -1 0 0 3005.DAT
0 STEP
1 86 460.0 -96 10.0 -1 0 0 0 1 0 0 0 -1 3004.DAT
0 STEP
1 86 450.0 -144 10.0 0 0 1 0 1 0 -1 0 0 3005.DAT
0 STEP
1 86 500.0 -168 20.0 -1 0 0 0 1 0 0 0 -1 2456.DAT
0 STEP
1 86 500.0 -216 20.0 -1 0 0 0 1 0 0 0 -1 2456.DAT
0 STEP
1 86 460.0 -48 30.0 -1 0 0 0 1 0 0 0 -1 3004.DAT
0 STEP
1 86 460.0 -72 60.0 0 0 1 0 1 0 -1 0 0 3001.DAT
0 STEP
1 86 450.0 -96 30.0 0 0 1 0 1 0 -1 0 0 3005.DAT
0 STEP
1 86 460.0 -120 40.0 0 0 1 0 1 0 -1 0 0 3003.DAT
0 STEP
1 86 460.0 -192 40.0 0 0 1 0 1 0 -1 0 0 3003.DAT
0 STEP
1 86 450.0 -168 50.0 0 0 1 0 1 0 -1 0 0 3005.DAT
0 STEP
1 86 450.0 -240 60.0 0 0 1 0 1 0 -1 0 0 3004.DAT
0 STEP
1 86 450.0 -48 80.0 0 0 1 0 1 0 -1 0 0 3004.DAT
0 STEP
1 86 450.0 -192 80.0 0 0 1 0 1 0 -1 0 0 3004.DAT
0 STEP
1 86 460.0 -144 90.0 -1 0 0 0 1 0 0 0 -1 3004.DAT
0 STEP
1 86 450.0 -168 90.0 0 0 1 0 1 0 -1 0 0 3005.DAT
0 STEP
1 86 460.0 -48 110.0 -1 0 0 0 1 0 0 0 -1 3004.DAT
0 STEP
1 86 460.0 -96 120.0 0 0 1 0 1 0 -1 0 0 3003.DAT
0 STEP
1 86 450.0 -144 110.0 0 0 1 0 1 0 -1 0 0 3005.DAT
0 STEP
1 86 450.0 -192 110.0 0 0 1 0 1 0 -1 0 0 3005.DAT
0 STEP
1 86 450.0 -48 130.0 0 0 1 0 1 0 -1 0 0 3005.DAT
0 STEP
1 86 450.0 -72 130.0 0 0 1 0 1 0 -1 0 0 3005.DAT
0 STEP
1 86 460.0 -144 140.0 0 0 1 0 1 0 -1 0 0 3003.DAT
0 STEP
1 86 460.0 -72 150.0 -1 0 0 0 1 0 0 0 -1 3004.DAT
0 STEP
1 86 460.0 -72 220.0 0 0 1 0 1 0 -1 0 0 2456.DAT
0 STEP
1 86 450.0 -120 170.0 0 0 1 0 1 0 -1 0 0 3005.DAT
0 STEP
1 86 450.0 -144 170.0 0 0 1 0 1 0 -1 0 0 3005.DAT
0 STEP
1 86 460.0 -120 220.0 0 0 1 0 1 0 -1 0 0 3001.DAT
0 STEP
1 86 450.0 -48 210.0 0 0 1 0 1 0 -1 0 0 3005.DAT
0 STEP
1 86 450.0 -48 260.0 0 0 1 0 1 0 -1 0 0 3004.DAT
0 STEP
1 86 480.0 -48 10.0 -1 0 0 0 1 0 0 0 -1 3004.DAT
0 STEP
1 86 470.0 -72 10.0 0 0 1 0 1 0 -1 0 0 3005.DAT
0 STEP
1 86 470.0 -120 10.0 0 0 1 0 1 0 -1 0 0 3005.DAT
0 STEP
1 86 480.0 -144 10.0 -1 0 0 0 1 0 0 0 -1 3004.DAT
0 STEP
1 86 500.0 -96 30.0 -1 0 0 0 1 0 0 0 -1 3010.DAT
0 STEP
1 86 480.0 -240 40.0 0 0 1 0 1 0 -1 0 0 3003.DAT
0 STEP
1 86 480.0 -96 50.0 -1 0 0 0 1 0 0 0 -1 3004.DAT
0 STEP
1 86 470.0 -168 60.0 0 0 1 0 1 0 -1 0 0 3004.DAT
0 STEP
1 86 480.0 -216 50.0 -1 0 0 0 1 0 0 0 -1 3004.DAT
0 STEP
1 86 520.0 -48 70.0 -1 0 0 0 1 0 0 0 -1 3009.DAT
0 STEP
1 86 520.0 -96 70.0 -1 0 0 0 1 0 0 0 -1 3009.DAT
0 STEP
1 86 470.0 -192 70.0 0 0 1 0 1 0 -1 0 0 3005.DAT
0 STEP
1 86 470.0 -216 70.0 0 0 1 0 1 0 -1 0 0 3005.DAT
0 STEP
1 86 480.0 -240 70.0 -1 0 0 0 1 0 0 0 -1 3004.DAT
0 STEP
1 86 480.0 -48 90.0 -1 0 0 0 1 0 0 0 -1 3004.DAT
0 STEP
1 86 480.0 -168 90.0 -1 0 0 0 1 0 0 0 -1 3004.DAT
0 STEP
1 86 470.0 -192 100.0 0 0 1 0 1 0 -1 0 0 3004.DAT
0 STEP
1 86 480.0 -72 120.0 0 0 1 0 1 0 -1 0 0 3003.DAT
0 STEP
1 86 480.0 -144 110.0 -1 0 0 0 1 0 0 0 -1 3004.DAT
0 STEP
1 86 470.0 -48 140.0 0 0 1 0 1 0 -1 0 0 3004.DAT
0 STEP
1 86 480.0 -120 130.0 -1 0 0 0 1 0 0 0 -1 3004.DAT
0 STEP
1 86 470.0 -120 160.0 0 0 1 0 1 0 -1 0 0 3004.DAT
0 STEP
1 86 470.0 -96 170.0 0 0 1 0 1 0 -1 0 0 3005.DAT
0 STEP
1 86 480.0 -144 180.0 0 0 1 0 1 0 -1 0 0 3003.DAT
0 STEP
1 86 480.0 -48 220.0 0 0 1 0 1 0 -1 0 0 3001.DAT
0 STEP
1 86 470.0 -96 200.0 0 0 1 0 1 0 -1 0 0 3004.DAT
0 STEP
1 86 500.0 -144 210.0 -1 0 0 0 1 0 0 0 -1 3010.DAT
0 STEP
1 86 480.0 -96 240.0 0 0 1 0 1 0 -1 0 0 3003.DAT
0 STEP
1 86 470.0 -144 230.0 0 0 1 0 1 0 -1 0 0 3005.DAT
0 STEP
1 86 480.0 -48 270.0 -1 0 0 0 1 0 0 0 -1 3004.DAT
0 STEP
1 86 480.0 -96 270.0 -1 0 0 0 1 0 0 0 -1 3004.DAT
0 STEP
1 86 500.0 -72 40.0 0 0 1 0 1 0 -1 0 0 3001.DAT
0 STEP
1 86 490.0 -96 10.0 0 0 1 0 1 0 -1 0 0 3005.DAT
0 STEP
1 86 490.0 -120 20.0 0 0 1 0 1 0 -1 0 0 3004.DAT
0 STEP
1 86 490.0 -48 30.0 0 0 1 0 1 0 -1 0 0 3005.DAT
0 STEP
1 86 490.0 -192 60.0 0 0 1 0 1 0 -1 0 0 3010.DAT
0 STEP
1 86 490.0 -120 50.0 0 0 1 0 1 0 -1 0 0 3005.DAT
0 STEP
1 86 520.0 -168 50.0 -1 0 0 0 1 0 0 0 -1 3010.DAT
0 STEP
1 86 490.0 -168 70.0 0 0 1 0 1 0 -1 0 0 3005.DAT
0 STEP
1 86 500.0 -216 70.0 -1 0 0 0 1 0 0 0 -1 3004.DAT
0 STEP
1 86 500.0 -72 90.0 -1 0 0 0 1 0 0 0 -1 3004.DAT
0 STEP
1 86 490.0 -144 90.0 0 0 1 0 1 0 -1 0 0 3005.DAT
0 STEP
1 86 490.0 -48 110.0 0 0 1 0 1 0 -1 0 0 3005.DAT
0 STEP
1 86 490.0 -96 110.0 0 0 1 0 1 0 -1 0 0 3005.DAT
0 STEP
1 86 490.0 -168 120.0 0 0 1 0 1 0 -1 0 0 3004.DAT
0 STEP
1 86 500.0 -192 110.0 -1 0 0 0 1 0 0 0 -1 3004.DAT
0 STEP
1 86 500.0 -48 130.0 -1 0 0 0 1 0 0 0 -1 3004.DAT
0 STEP
1 86 500.0 -96 130.0 -1 0 0 0 1 0 0 0 -1 3004.DAT
0 STEP
1 86 490.0 -144 140.0 0 0 1 0 1 0 -1 0 0 3004.DAT
0 STEP
1 86 490.0 -48 150.0 0 0 1 0 1 0 -1 0 0 3005.DAT
0 STEP
1 86 490.0 -72 150.0 0 0 1 0 1 0 -1 0 0 3005.DAT
0 STEP
1 86 500.0 -120 160.0 0 0 1 0 1 0 -1 0 0 3003.DAT
0 STEP
1 86 500.0 -72 170.0 -1 0 0 0 1 0 0 0 -1 3004.DAT
0 STEP
1 86 490.0 -96 180.0 0 0 1 0 1 0 -1 0 0 3004.DAT
0 STEP
1 86 490.0 -72 190.0 0 0 1 0 1 0 -1 0 0 3005.DAT
0 STEP
1 86 500.0 -120 190.0 -1 0 0 0 1 0 0 0 -1 3004.DAT
0 STEP
1 86 490.0 -72 240.0 0 0 1 0 1 0 -1 0 0 3010.DAT
0 STEP
1 86 520.0 -96 210.0 -1 0 0 0 1 0 0 0 -1 3010.DAT
0 STEP
1 86 490.0 -120 240.0 0 0 1 0 1 0 -1 0 0 3010.DAT
0 STEP
1 86 500.0 -144 230.0 -1 0 0 0 1 0 0 0 -1 3004.DAT
0 STEP
1 86 520.0 -48 20.0 0 0 1 0 1 0 -1 0 0 3003.DAT
0 STEP
1 86 520.0 -96 10.0 -1 0 0 0 1 0 0 0 -1 3004.DAT
0 STEP
1 86 510.0 -120 10.0 0 0 1 0 1 0 -1 0 0 3005.DAT
0 STEP
1 86 520.0 -144 20.0 0 0 1 0 1 0 -1 0 0 3003.DAT
0 STEP
1 86 520.0 -192 10.0 -1 0 0 0 1 0 0 0 -1 3004.DAT
0 STEP
1 86 510.0 -120 40.0 0 0 1 0 1 0 -1 0 0 3004.DAT
0 STEP
1 86 520.0 -192 40.0 0 0 1 0 1 0 -1 0 0 3003.DAT
0 STEP
1 86 510.0 -240 30.0 0 0 1 0 1 0 -1 0 0 3005.DAT
0 STEP
1 86 510.0 -96 50.0 0 0 1 0 1 0 -1 0 0 3005.DAT
0 STEP
1 86 510.0 -144 50.0 0 0 1 0 1 0 -1 0 0 3005.DAT
0 STEP
1 86 510.0 -216 50.0 0 0 1 0 1 0 -1 0 0 3005.DAT
0 STEP
1 86 510.0 -240 60.0 0 0 1 0 1 0 -1 0 0 3004.DAT
0 STEP
1 86 510.0 -192 80.0 0 0 1 0 1 0 -1 0 0 3004.DAT
0 STEP
1 86 510.0 -48 100.0 0 0 1 0 1 0 -1 0 0 3004.DAT
0 STEP
1 86 510.0 -96 100.0 0 0 1 0 1 0 -1 0 0 3004.DAT
0 STEP
1 86 510.0 -168 120.0 0 0 1 0 1 0 -1 0 0 3010.DAT
0 STEP
1 86 520.0 -216 90.0 -1 0 0 0 1 0 0 0 -1 3004.DAT
0 STEP
1 86 520.0 -72 110.0 -1 0 0 0 1 0 0 0 -1 3004.DAT
0 STEP
1 86 510.0 -216 120.0 0 0 1 0 1 0 -1 0 0 3004.DAT
0 STEP
1 86 540.0 -72 140.0 -1 0 0 0 1 0 0 0 -1 3001.DAT
0 STEP
1 86 540.0 -144 130.0 -1 0 0 0 1 0 0 0 -1 3010.DAT
0 STEP
1 86 520.0 -192 130.0 -1 0 0 0 1 0 0 0 -1 3004.DAT
0 STEP
1 86 520.0 -48 150.0 -1 0 0 0 1 0 0 0 -1 3004.DAT
0 STEP
1 86 510.0 -96 150.0 0 0 1 0 1 0 -1 0 0 3005.DAT
0 STEP
1 86 520.0 -144 150.0 -1 0 0 0 1 0 0 0 -1 3004.DAT
0 STEP
1 86 540.0 -192 150.0 -1 0 0 0 1 0 0 0 -1 3010.DAT
0 STEP
1 86 520.0 -216 150.0 -1 0 0 0 1 0 0 0 -1 3004.DAT
0 STEP
1 86 510.0 -48 180.0 0 0 1 0 1 0 -1 0 0 3004.DAT
0 STEP
1 86 520.0 -96 170.0 -1 0 0 0 1 0 0 0 -1 3004.DAT
0 STEP
1 86 510.0 -144 180.0 0 0 1 0 1 0 -1 0 0 3004.DAT
0 STEP
1 86 520.0 -168 200.0 0 0 1 0 1 0 -1 0 0 3001.DAT
0 STEP
1 86 510.0 -192 170.0 0 0 1 0 1 0 -1 0 0 3005.DAT
0 STEP
1 86 520.0 -216 180.0 0 0 1 0 1 0 -1 0 0 3003.DAT
0 STEP
1 86 520.0 -72 220.0 0 0 1 0 1 0 -1 0 0 3001.DAT
0 STEP
1 86 510.0 -96 190.0 0 0 1 0 1 0 -1 0 0 3005.DAT
0 STEP
1 86 510.0 -192 200.0 0 0 1 0 1 0 -1 0 0 3004.DAT
0 STEP
1 86 520.0 -48 220.0 0 0 1 0 1 0 -1 0 0 3003.DAT
0 STEP
1 86 510.0 -120 210.0 0 0 1 0 1 0 -1 0 0 3005.DAT
0 STEP
1 86 520.0 -216 210.0 -1 0 0 0 1 0 0 0 -1 3004.DAT
0 STEP
1 86 510.0 -96 230.0 0 0 1 0 1 0 -1 0 0 3005.DAT
0 STEP
1 86 510.0 -120 240.0 0 0 1 0 1 0 -1 0 0 3004.DAT
0 STEP
1 86 540.0 -192 240.0 -1 0 0 0 1 0 0 0 -1 3001.DAT
0 STEP
1 86 510.0 -216 240.0 0 0 1 0 1 0 -1 0 0 3004.DAT
0 STEP
1 86 510.0 -48 260.0 0 0 1 0 1 0 -1 0 0 3004.DAT
0 STEP
1 86 510.0 -96 260.0 0 0 1 0 1 0 -1 0 0 3004.DAT
0 STEP
1 86 520.0 -168 250.0 -1 0 0 0 1 0 0 0 -1 3004.DAT
0 STEP
1 86 510.0 -72 270.0 0 0 1 0 1 0 -1 0 0 3005.DAT
0 STEP
1 86 510.0 -120 270.0 0 0 1 0 1 0 -1 0 0 3005.DAT
0 STEP
1 86 530.0 0 10.0 0 0 1 0 1 0 -1 0 0 3005.DAT
0 STEP
1 86 540.0 -24 10.0 -1 0 0 0 1 0 0 0 -1 3004.DAT
0 STEP
1 86 540.0 -72 10.0 -1 0 0 0 1 0 0 0 -1 3004.DAT
0 STEP
1 86 540.0 -120 20.0 0 0 1 0 1 0 -1 0 0 3003.DAT
0 STEP
1 86 530.0 -72 60.0 0 0 1 0 1 0 -1 0 0 3010.DAT
0 STEP
1 86 540.0 -96 50.0 -1 0 0 0 1 0 0 0 -1 3004.DAT
0 STEP
1 86 540.0 -120 50.0 -1 0 0 0 1 0 0 0 -1 3004.DAT
0 STEP
1 86 530.0 -144 60.0 0 0 1 0 1 0 -1 0 0 3004.DAT
0 STEP
1 86 530.0 -216 60.0 0 0 1 0 1 0 -1 0 0 3004.DAT
0 STEP
1 86 530.0 -120 120.0 0 0 1 0 1 0 -1 0 0 3009.DAT
0 STEP
1 86 530.0 -168 80.0 0 0 1 0 1 0 -1 0 0 3004.DAT
0 STEP
1 86 540.0 -192 70.0 -1 0 0 0 1 0 0 0 -1 3004.DAT
0 STEP
1 86 540.0 -48 90.0 -1 0 0 0 1 0 0 0 -1 3004.DAT
0 STEP
1 86 540.0 -96 100.0 0 0 1 0 1 0 -1 0 0 3003.DAT
0 STEP
1 86 540.0 -144 100.0 0 0 1 0 1 0 -1 0 0 3003.DAT
0 STEP
1 86 530.0 -192 100.0 0 0 1 0 1 0 -1 0 0 3004.DAT
0 STEP
1 86 530.0 -48 120.0 0 0 1 0 1 0 -1 0 0 3004.DAT
0 STEP
1 86 530.0 -168 110.0 0 0 1 0 1 0 -1 0 0 3005.DAT
0 STEP
1 86 540.0 -216 120.0 0 0 1 0 1 0 -1 0 0 3003.DAT
0 STEP
1 86 530.0 -96 140.0 0 0 1 0 1 0 -1 0 0 3004.DAT
0 STEP
1 86 540.0 -168 140.0 0 0 1 0 1 0 -1 0 0 3003.DAT
0 STEP
1 86 540.0 -48 180.0 0 0 1 0 1 0 -1 0 0 3003.DAT
0 STEP
1 86 530.0 -72 170.0 0 0 1 0 1 0 -1 0 0 3005.DAT
0 STEP
1 86 530.0 -144 170.0 0 0 1 0 1 0 -1 0 0 3005.DAT
0 STEP
1 86 540.0 -192 180.0 0 0 1 0 1 0 -1 0 0 3003.DAT
0 STEP
1 86 540.0 -96 190.0 -1 0 0 0 1 0 0 0 -1 3004.DAT
0 STEP
1 86 530.0 -120 190.0 0 0 1 0 1 0 -1 0 0 3005.DAT
0 STEP
1 86 540.0 -144 190.0 -1 0 0 0 1 0 0 0 -1 3004.DAT
0 STEP
1 86 530.0 -120 220.0 0 0 1 0 1 0 -1 0 0 3004.DAT
0 STEP
1 86 540.0 -192 210.0 -1 0 0 0 1 0 0 0 -1 3004.DAT
0 STEP
1 86 540.0 -96 240.0 0 0 1 0 1 0 -1 0 0 3003.DAT
0 STEP
1 86 530.0 -144 240.0 0 0 1 0 1 0 -1 0 0 3004.DAT
0 STEP
1 86 530.0 -216 230.0 0 0 1 0 1 0 -1 0 0 3005.DAT
0 STEP
1 86 540.0 0 250.0 -1 0 0 0 1 0 0 0 -1 3004.DAT
0 STEP
1 86 530.0 -24 250.0 0 0 1 0 1 0 -1 0 0 3005.DAT
0 STEP
1 86 540.0 -48 250.0 -1 0 0 0 1 0 0 0 -1 3004.DAT
0 STEP
1 86 530.0 -120 250.0 0 0 1 0 1 0 -1 0 0 3005.DAT
0 STEP
1 86 540.0 -216 250.0 -1 0 0 0 1 0 0 0 -1 3004.DAT
0 STEP
1 86 560.0 0 10.0 -1 0 0 0 1 0 0 0 -1 3004.DAT
0 STEP
1 86 560.0 -48 10.0 -1 0 0 0 1 0 0 0 -1 3004.DAT
0 STEP
1 86 560.0 -96 20.0 0 0 1 0 1 0 -1 0 0 3003.DAT
0 STEP
1 86 560.0 -144 40.0 0 0 1 0 1 0 -1 0 0 3001.DAT
0 STEP
1 86 560.0 -192 20.0 0 0 1 0 1 0 -1 0 0 3003.DAT
0 STEP
1 86 560.0 -48 40.0 0 0 1 0 1 0 -1 0 0 3003.DAT
0 STEP
1 86 550.0 -72 30.0 0 0 1 0 1 0 -1 0 0 3005.DAT
0 STEP
1 86 550.0 -72 80.0 0 0 1 0 1 0 -1 0 0 3010.DAT
0 STEP
1 86 550.0 -192 50.0 0 0 1 0 1 0 -1 0 0 3005.DAT
0 STEP
1 86 550.0 -216 50.0 0 0 1 0 1 0 -1 0 0 3005.DAT
0 STEP
1 86 560.0 -120 80.0 0 0 1 0 1 0 -1 0 0 3003.DAT
0 STEP
1 86 560.0 -168 80.0 0 0 1 0 1 0 -1 0 0 3003.DAT
0 STEP
1 86 550.0 -216 80.0 0 0 1 0 1 0 -1 0 0 3004.DAT
0 STEP
1 86 560.0 -192 90.0 -1 0 0 0 1 0 0 0 -1 3004.DAT
0 STEP
1 86 560.0 -48 110.0 -1 0 0 0 1 0 0 0 -1 3004.DAT
0 STEP
1 86 560.0 -120 110.0 -1 0 0 0 1 0 0 0 -1 3004.DAT
0 STEP
1 86 560.0 -168 110.0 -1 0 0 0 1 0 0 0 -1 3004.DAT
0 STEP
1 86 560.0 -192 120.0 0 0 1 0 1 0 -1 0 0 3003.DAT
0 STEP
1 86 550.0 -48 140.0 0 0 1 0 1 0 -1 0 0 3004.DAT
0 STEP
1 86 560.0 -96 130.0 -1 0 0 0 1 0 0 0 -1 3004.DAT
0 STEP
1 86 550.0 -120 140.0 0 0 1 0 1 0 -1 0 0 3004.DAT
0 STEP
1 86 560.0 -96 160.0 0 0 1 0 1 0 -1 0 0 3003.DAT
0 STEP
1 86 560.0 -144 160.0 0 0 1 0 1 0 -1 0 0 3003.DAT
0 STEP
1 86 550.0 -216 160.0 0 0 1 0 1 0 -1 0 0 3004.DAT
0 STEP
1 86 560.0 -72 200.0 0 0 1 0 1 0 -1 0 0 3001.DAT
0 STEP
1 86 550.0 -120 170.0 0 0 1 0 1 0 -1 0 0 3005.DAT
0 STEP
1 86 560.0 -168 170.0 -1 0 0 0 1 0 0 0 -1 3004.DAT
0 STEP
1 86 550.0 -120 200.0 0 0 1 0 1 0 -1 0 0 3004.DAT
0 STEP
1 86 560.0 -168 220.0 0 0 1 0 1 0 -1 0 0 3001.DAT
0 STEP
1 86 550.0 -216 190.0 0 0 1 0 1 0 -1 0 0 3005.DAT
0 STEP
1 86 550.0 -48 210.0 0 0 1 0 1 0 -1 0 0 3005.DAT
0 STEP
1 86 550.0 -144 220.0 0 0 1 0 1 0 -1 0 0 3004.DAT
0 STEP
1 86 550.0 -216 220.0 0 0 1 0 1 0 -1 0 0 3004.DAT
0 STEP
1 86 560.0 -48 230.0 -1 0 0 0 1 0 0 0 -1 3004.DAT
0 STEP
1 86 560.0 -120 240.0 0 0 1 0 1 0 -1 0 0 3003.DAT
0 STEP
1 86 560.0 -24 250.0 -1 0 0 0 1 0 0 0 -1 3004.DAT
0 STEP
1 86 560.0 -72 250.0 -1 0 0 0 1 0 0 0 -1 3004.DAT
0 STEP
1 86 560.0 -144 250.0 -1 0 0 0 1 0 0 0 -1 3004.DAT
0 STEP
1 86 570.0 -24 10.0 0 0 1 0 1 0 -1 0 0 3005.DAT
0 STEP
1 86 570.0 -72 20.0 0 0 1 0 1 0 -1 0 0 3004.DAT
0 STEP
1 86 570.0 -120 10.0 0 0 1 0 1 0 -1 0 0 3005.DAT
0 STEP
1 86 570.0 -168 20.0 0 0 1 0 1 0 -1 0 0 3004.DAT
0 STEP
1 86 570.0 -120 40.0 0 0 1 0 1 0 -1 0 0 3004.DAT
0 STEP
1 86 570.0 -72 50.0 0 0 1 0 1 0 -1 0 0 3005.DAT
0 STEP
1 86 570.0 -96 50.0 0 0 1 0 1 0 -1 0 0 3005.DAT
0 STEP
1 86 570.0 -168 50.0 0 0 1 0 1 0 -1 0 0 3005.DAT
0 STEP
1 86 570.0 -192 60.0 0 0 1 0 1 0 -1 0 0 3004.DAT
0 STEP
1 86 570.0 -72 80.0 0 0 1 0 1 0 -1 0 0 3004.DAT
0 STEP
1 86 570.0 -48 90.0 0 0 1 0 1 0 -1 0 0 3005.DAT
0 STEP
1 86 570.0 -96 100.0 0 0 1 0 1 0 -1 0 0 3004.DAT
0 STEP
1 86 570.0 -144 100.0 0 0 1 0 1 0 -1 0 0 3004.DAT
0 STEP
1 86 570.0 -72 110.0 0 0 1 0 1 0 -1 0 0 3005.DAT
0 STEP
1 86 570.0 -48 130.0 0 0 1 0 1 0 -1 0 0 3005.DAT
0 STEP
1 86 570.0 -120 160.0 0 0 1 0 1 0 -1 0 0 3010.DAT
0 STEP
1 86 570.0 -168 140.0 0 0 1 0 1 0 -1 0 0 3004.DAT
0 STEP
1 86 570.0 -48 180.0 0 0 1 0 1 0 -1 0 0 3010.DAT
0 STEP
1 86 570.0 -192 180.0 0 0 1 0 1 0 -1 0 0 3004.DAT
0 STEP
1 86 570.0 -96 220.0 0 0 1 0 1 0 -1 0 0 3010.DAT
0 STEP
1 86 570.0 -144 200.0 0 0 1 0 1 0 -1 0 0 3004.DAT
0 STEP
1 86 570.0 -120 210.0 0 0 1 0 1 0 -1 0 0 3005.DAT
0 STEP
1 86 570.0 -192 210.0 0 0 1 0 1 0 -1 0 0 3005.DAT
0 STEP
1 86 570.0 -144 230.0 0 0 1 0 1 0 -1 0 0 3005.DAT
0 STEP
1 86 570.0 0 250.0 0 0 1 0 1 0 -1 0 0 3005.DAT
0 STEP
1 86 570.0 -48 250.0 0 0 1 0 1 0 -1 0 0 3005.DAT
0 STEP
