1 86 10.0 0 190.0 0 0 1 0 1 0 -1 0 0 3005.DAT
0 STEP
1 86 20.0 0 210.0 -1 0 0 0 1 0 0 0 -1 3004.DAT
0 STEP
1 86 30.0 -24 220.0 0 0 1 0 1 0 -1 0 0 3004.DAT
0 STEP
1 86 40.0 0 230.0 -1 0 0 0 1 0 0 0 -1 3004.DAT
0 STEP
1 86 30.0 -288 240.0 0 0 1 0 1 0 -1 0 0 3004.DAT
0 STEP
1 86 30.0 -312 230.0 0 0 1 0 1 0 -1 0 0 3005.DAT
0 STEP
1 86 30.0 -336 280.0 0 0 1 0 1 0 -1 0 0 3009.DAT
0 STEP
1 86 60.0 -360 230.0 -1 0 0 0 1 0 0 0 -1 3010.DAT
0 STEP
1 86 30.0 0 250.0 0 0 1 0 1 0 -1 0 0 3005.DAT
0 STEP
1 86 30.0 -24 250.0 0 0 1 0 1 0 -1 0 0 3005.DAT
0 STEP
1 86 30.0 -264 280.0 0 0 1 0 1 0 -1 0 0 3010.DAT
0 STEP
1 86 30.0 -312 260.0 0 0 1 0 1 0 -1 0 0 3004.DAT
0 STEP
1 86 30.0 -360 260.0 0 0 1 0 1 0 -1 0 0 3004.DAT
0 STEP
1 86 30.0 -240 280.0 0 0 1 0 1 0 -1 0 0 3004.DAT
0 STEP
1 86 60.0 -288 270.0 -1 0 0 0 1 0 0 0 -1 3010.DAT
0 STEP
1 86 30.0 -216 300.0 0 0 1 0 1 0 -1 0 0 3004.DAT
0 STEP
1 86 30.0 -288 320.0 0 0 1 0 1 0 -1 0 0 3010.DAT
0 STEP
1 86 30.0 -312 290.0 0 0 1 0 1 0 -1 0 0 3005.DAT
0 STEP
1 86 40.0 -360 290.0 -1 0 0 0 1 0 0 0 -1 3004.DAT
0 STEP
1 86 40.0 -192 320.0 0 0 1 0 1 0 -1 0 0 3003.DAT
0 STEP
1 86 30.0 -240 310.0 0 0 1 0 1 0 -1 0 0 3005.DAT
0 STEP
1 86 40.0 -312 310.0 -1 0 0 0 1 0 0 0 -1 3004.DAT
0 STEP
1 86 40.0 -216 340.0 0 0 1 0 1 0 -1 0 0 3003.DAT
0 STEP
1 86 60.0 -240 330.0 -1 0 0 0 1 0 0 0 -1 3010.DAT
0 STEP
1 86 60.0 -264 340.0 -1 0 0 0 1 0 0 0 -1 3001.DAT
0 STEP
1 86 40.0 -312 340.0 0 0 1 0 1 0 -1 0 0 3003.DAT
0 STEP
1 86 40.0 -168 380.0 0 0 1 0 1 0 -1 0 0 3001.DAT
0 STEP
1 86 40.0 -192 350.0 -1 0 0 0 1 0 0 0 -1 3004.DAT
0 STEP
1 86 30.0 -240 360.0 0 0 1 0 1 0 -1 0 0 3004.DAT
0 STEP
1 86 40.0 -336 350.0 -1 0 0 0 1 0 0 0 -1 3004.DAT
0 STEP
1 86 30.0 -192 380.0 0 0 1 0 1 0 -1 0 0 3004.DAT
0 STEP
1 86 30.0 -216 380.0 0 0 1 0 1 0 -1 0 0 3004.DAT
0 STEP
1 86 40.0 -264 380.0 0 0 1 0 1 0 -1 0 0 3003.DAT
0 STEP
1 86 30.0 -288 370.0 0 0 1 0 1 0 -1 0 0 3005.DAT
0 STEP
1 86 40.0 -312 370.0 -1 0 0 0 1 0 0 0 -1 3004.DAT
0 STEP
1 86 30.0 -240 390.0 0 0 1 0 1 0 -1 0 0 3005.DAT
0 STEP
1 86 30.0 -192 410.0 0 0 1 0 1 0 -1 0 0 3005.DAT
0 STEP
1 86 30.0 -216 410.0 0 0 1 0 1 0 -1 0 0 3005.DAT
0 STEP
1 86 60.0 -288 210.0 -1 0 0 0 1 0 0 0 -1 3004.DAT
0 STEP
1 86 50.0 -312 210.0 0 0 1 0 1 0 -1 0 0 3005.DAT
0 STEP
1 86 50.0 -336 210.0 0 0 1 0 1 0 -1 0 0 3005.DAT
0 STEP
1 86 60.0 -24 240.0 0 0 1 0 1 0 -1 0 0 3003.DAT
0 STEP
1 86 50.0 -240 260.0 0 0 1 0 1 0 -1 0 0 3010.DAT
0 STEP
1 86 50.0 -264 260.0 0 0 1 0 1 0 -1 0 0 3010.DAT
0 STEP
1 86 60.0 -288 240.0 0 0 1 0 1 0 -1 0 0 3003.DAT
0 STEP
1 86 50.0 -312 260.0 0 0 1 0 1 0 -1 0 0 3010.DAT
0 STEP
1 86 80.0 -336 240.0 -1 0 0 0 1 0 0 0 -1 3001.DAT
0 STEP
1 86 60.0 -384 230.0 -1 0 0 0 1 0 0 0 -1 3004.DAT
0 STEP
1 86 50.0 0 260.0 0 0 1 0 1 0 -1 0 0 3004.DAT
0 STEP
1 86 60.0 -216 250.0 -1 0 0 0 1 0 0 0 -1 3004.DAT
0 STEP
1 86 60.0 -360 260.0 0 0 1 0 1 0 -1 0 0 3003.DAT
0 STEP
1 86 50.0 -384 260.0 0 0 1 0 1 0 -1 0 0 3004.DAT
0 STEP
1 86 60.0 -24 270.0 -1 0 0 0 1 0 0 0 -1 3004.DAT
0 STEP
1 86 60.0 -192 280.0 0 0 1 0 1 0 -1 0 0 3003.DAT
0 STEP
1 86 50.0 -216 270.0 0 0 1 0 1 0 -1 0 0 3005.DAT
0 STEP
1 86 50.0 -336 300.0 0 0 1 0 1 0 -1 0 0 3010.DAT
0 STEP
1 86 50.0 -168 300.0 0 0 1 0 1 0 -1 0 0 3004.DAT
0 STEP
1 86 100.0 -216 290.0 -1 0 0 0 1 0 0 0 -1 3009.DAT
0 STEP
1 86 60.0 -288 300.0 0 0 1 0 1 0 -1 0 0 3003.DAT
0 STEP
1 86 50.0 -384 290.0 0 0 1 0 1 0 -1 0 0 3005.DAT
0 STEP
1 86 50.0 -216 310.0 0 0 1 0 1 0 -1 0 0 3005.DAT
0 STEP
1 86 60.0 -240 310.0 -1 0 0 0 1 0 0 0 -1 3004.DAT
0 STEP
1 86 50.0 -264 310.0 0 0 1 0 1 0 -1 0 0 3005.DAT
0 STEP
1 86 50.0 -360 340.0 0 0 1 0 1 0 -1 0 0 3010.DAT
0 STEP
1 86 50.0 -384 320.0 0 0 1 0 1 0 -1 0 0 3004.DAT
0 STEP
1 86 50.0 -168 330.0 0 0 1 0 1 0 -1 0 0 3005.DAT
0 STEP
1 86 60.0 -288 330.0 -1 0 0 0 1 0 0 0 -1 3004.DAT
0 STEP
1 86 60.0 -144 360.0 0 0 1 0 1 0 -1 0 0 3003.DAT
0 STEP
1 86 50.0 -240 350.0 0 0 1 0 1 0 -1 0 0 3005.DAT
0 STEP
1 86 60.0 -288 360.0 0 0 1 0 1 0 -1 0 0 3003.DAT
0 STEP
1 86 80.0 -192 370.0 -1 0 0 0 1 0 0 0 -1 3010.DAT
0 STEP
1 86 50.0 -216 370.0 0 0 1 0 1 0 -1 0 0 3005.DAT
0 STEP
1 86 50.0 -240 400.0 0 0 1 0 1 0 -1 0 0 3010.DAT
0 STEP
1 86 80.0 -336 370.0 -1 0 0 0 1 0 0 0 -1 3010.DAT
0 STEP
1 86 60.0 -144 390.0 -1 0 0 0 1 0 0 0 -1 3004.DAT
0 STEP
1 86 50.0 -192 390.0 0 0 1 0 1 0 -1 0 0 3005.DAT
0 STEP
1 86 60.0 -216 420.0 0 0 1 0 1 0 -1 0 0 3001.DAT
0 STEP
1 86 50.0 -288 400.0 0 0 1 0 1 0 -1 0 0 3004.DAT
0 STEP
1 86 50.0 -312 400.0 0 0 1 0 1 0 -1 0 0 3004.DAT
0 STEP
1 86 50.0 -336 390.0 0 0 1 0 1 0 -1 0 0 3005.DAT
0 STEP
1 86 50.0 -144 410.0 0 0 1 0 1 0 -1 0 0 3005.DAT
0 STEP
1 86 50.0 -192 420.0 0 0 1 0 1 0 -1 0 0 3004.DAT
0 STEP
1 86 60.0 -264 420.0 0 0 1 0 1 0 -1 0 0 3003.DAT
0 STEP
1 86 50.0 -144 440.0 0 0 1 0 1 0 -1 0 0 3004.DAT
0 STEP
1 86 60.0 -168 440.0 0 0 1 0 1 0 -1 0 0 3003.DAT
0 STEP
1 86 60.0 -288 430.0 -1 0 0 0 1 0 0 0 -1 3004.DAT
0 STEP
1 86 50.0 -192 450.0 0 0 1 0 1 0 -1 0 0 3005.DAT
0 STEP
1 86 50.0 -240 450.0 0 0 1 0 1 0 -1 0 0 3005.DAT
0 STEP
1 86 50.0 -144 470.0 0 0 1 0 1 0 -1 0 0 3005.DAT
0 STEP
1 86 60.0 -168 470.0 -1 0 0 0 1 0 0 0 -1 3004.DAT
0 STEP
1 86 70.0 0 150.0 0 0 1 0 1 0 -1 0 0 3005.DAT
0 STEP
1 86 80.0 0 180.0 0 0 1 0 1 0 -1 0 0 3003.DAT
0 STEP
1 86 70.0 -288 190.0 0 0 1 0 1 0 -1 0 0 3005.DAT
0 STEP
1 86 70.0 -312 220.0 0 0 1 0 1 0 -1 0 0 3010.DAT
0 STEP
1 86 70.0 -336 200.0 0 0 1 0 1 0 -1 0 0 3004.DAT
0 STEP
1 86 80.0 -360 190.0 -1 0 0 0 1 0 0 0 -1 3004.DAT
0 STEP
1 86 80.0 -240 240.0 0 0 1 0 1 0 -1 0 0 3001.DAT
0 STEP
1 86 70.0 -264 260.0 0 0 1 0 1 0 -1 0 0 3009.DAT
0 STEP
1 86 100.0 -360 210.0 -1 0 0 0 1 0 0 0 -1 3010.DAT
0 STEP
1 86 80.0 0 260.0 0 0 1 0 1 0 -1 0 0 3001.DAT
0 STEP
1 86 70.0 -216 230.0 0 0 1 0 1 0 -1 0 0 3005.DAT
0 STEP
1 86 80.0 -192 250.0 -1 0 0 0 1 0 0 0 -1 3004.DAT
0 STEP
1 86 80.0 -384 250.0 -1 0 0 0 1 0 0 0 -1 3004.DAT
0 STEP
1 86 120.0 -408 250.0 -1 0 0 0 1 0 0 0 -1 3009.DAT
0 STEP
1 86 80.0 -48 280.0 0 0 1 0 1 0 -1 0 0 3003.DAT
0 STEP
1 86 70.0 -168 320.0 0 0 1 0 1 0 -1 0 0 3009.DAT
0 STEP
1 86 80.0 -216 270.0 -1 0 0 0 1 0 0 0 -1 3004.DAT
0 STEP
1 86 80.0 -312 270.0 -1 0 0 0 1 0 0 0 -1 3004.DAT
0 STEP
1 86 80.0 -336 270.0 -1 0 0 0 1 0 0 0 -1 3004.DAT
0 STEP
1 86 80.0 -384 280.0 0 0 1 0 1 0 -1 0 0 3003.DAT
0 STEP
1 86 70.0 -408 270.0 0 0 1 0 1 0 -1 0 0 3005.DAT
0 STEP
1 86 70.0 -432 270.0 0 0 1 0 1 0 -1 0 0 3005.DAT
0 STEP
1 86 70.0 -24 300.0 0 0 1 0 1 0 -1 0 0 3004.DAT
0 STEP
1 86 70.0 -72 290.0 0 0 1 0 1 0 -1 0 0 3005.DAT
0 STEP
1 86 80.0 -96 300.0 0 0 1 0 1 0 -1 0 0 3003.DAT
0 STEP
1 86 120.0 -120 300.0 -1 0 0 0 1 0 0 0 -1 2456.DAT
0 STEP
1 86 80.0 -144 290.0 -1 0 0 0 1 0 0 0 -1 3004.DAT
0 STEP
1 86 70.0 -240 290.0 0 0 1 0 1 0 -1 0 0 3005.DAT
0 STEP
1 86 80.0 -312 300.0 0 0 1 0 1 0 -1 0 0 3003.DAT
0 STEP
1 86 80.0 -336 320.0 0 0 1 0 1 0 -1 0 0 3001.DAT
0 STEP
1 86 70.0 -360 290.0 0 0 1 0 1 0 -1 0 0 3005.DAT
0 STEP
1 86 70.0 -408 300.0 0 0 1 0 1 0 -1 0 0 3004.DAT
0 STEP
1 86 70.0 0 310.0 0 0 1 0 1 0 -1 0 0 3005.DAT
0 STEP
1 86 70.0 -144 320.0 0 0 1 0 1 0 -1 0 0 3004.DAT
0 STEP
1 86 80.0 -192 310.0 -1 0 0 0 1 0 0 0 -1 3004.DAT
0 STEP
1 86 70.0 -216 320.0 0 0 1 0 1 0 -1 0 0 3004.DAT
0 STEP
1 86 100.0 -360 310.0 -1 0 0 0 1 0 0 0 -1 3010.DAT
0 STEP
1 86 70.0 -384 340.0 0 0 1 0 1 0 -1 0 0 3010.DAT
0 STEP
1 86 70.0 -192 340.0 0 0 1 0 1 0 -1 0 0 3004.DAT
0 STEP
1 86 80.0 -312 330.0 -1 0 0 0 1 0 0 0 -1 3004.DAT
0 STEP
1 86 80.0 -360 330.0 -1 0 0 0 1 0 0 0 -1 3004.DAT
0 STEP
1 86 100.0 -216 350.0 -1 0 0 0 1 0 0 0 -1 3010.DAT
0 STEP
1 86 80.0 -240 360.0 0 0 1 0 1 0 -1 0 0 3003.DAT
0 STEP
1 86 80.0 -312 360.0 0 0 1 0 1 0 -1 0 0 3003.DAT
0 STEP
1 86 80.0 -360 360.0 0 0 1 0 1 0 -1 0 0 3003.DAT
0 STEP
1 86 80.0 -216 370.0 -1 0 0 0 1 0 0 0 -1 3004.DAT
0 STEP
1 86 80.0 -264 370.0 -1 0 0 0 1 0 0 0 -1 3004.DAT
0 STEP
1 86 70.0 -120 400.0 0 0 1 0 1 0 -1 0 0 3004.DAT
0 STEP
1 86 80.0 -168 390.0 -1 0 0 0 1 0 0 0 -1 3004.DAT
0 STEP
1 86 80.0 -192 400.0 0 0 1 0 1 0 -1 0 0 3003.DAT
0 STEP
1 86 80.0 -240 390.0 -1 0 0 0 1 0 0 0 -1 3004.DAT
0 STEP
1 86 70.0 -264 390.0 0 0 1 0 1 0 -1 0 0 3005.DAT
0 STEP
1 86 80.0 -288 390.0 -1 0 0 0 1 0 0 0 -1 3004.DAT
0 STEP
1 86 120.0 -312 390.0 -1 0 0 0 1 0 0 0 -1 3009.DAT
0 STEP
1 86 80.0 -336 400.0 0 0 1 0 1 0 -1 0 0 3003.DAT
0 STEP
1 86 80.0 -360 390.0 -1 0 0 0 1 0 0 0 -1 3004.DAT
0 STEP
1 86 80.0 -144 420.0 0 0 1 0 1 0 -1 0 0 3003.DAT
0 STEP
1 86 100.0 -168 410.0 -1 0 0 0 1 0 0 0 -1 3010.DAT
0 STEP
1 86 70.0 -240 410.0 0 0 1 0 1 0 -1 0 0 3005.DAT
0 STEP
1 86 100.0 -288 410.0 -1 0 0 0 1 0 0 0 -1 3010.DAT
0 STEP
1 86 120.0 -312 420.0 -1 0 0 0 1 0 0 0 -1 2456.DAT
0 STEP
1 86 100.0 -120 430.0 -1 0 0 0 1 0 0 0 -1 3010.DAT
0 STEP
1 86 80.0 -192 430.0 -1 0 0 0 1 0 0 0 -1 3004.DAT
0 STEP
1 86 70.0 -240 440.0 0 0 1 0 1 0 -1 0 0 3004.DAT
0 STEP
1 86 80.0 -120 450.0 -1 0 0 0 1 0 0 0 -1 3004.DAT
0 STEP
1 86 70.0 -144 450.0 0 0 1 0 1 0 -1 0 0 3005.DAT
0 STEP
1 86 70.0 -192 460.0 0 0 1 0 1 0 -1 0 0 3004.DAT
0 STEP
1 86 70.0 -264 450.0 0 0 1 0 1 0 -1 0 0 3005.DAT
0 STEP
1 86 80.0 -96 500.0 0 0 1 0 1 0 -1 0 0 3001.DAT
0 STEP
1 86 70.0 -120 500.0 0 0 1 0 1 0 -1 0 0 3010.DAT
0 STEP
1 86 70.0 -144 500.0 0 0 1 0 1 0 -1 0 0 3010.DAT
0 STEP
1 86 70.0 -216 470.0 0 0 1 0 1 0 -1 0 0 3005.DAT
0 STEP
1 86 120.0 -72 500.0 -1 0 0 0 1 0 0 0 -1 2456.DAT
0 STEP
1 86 70.0 -168 490.0 0 0 1 0 1 0 -1 0 0 3005.DAT
0 STEP
1 86 80.0 -192 490.0 -1 0 0 0 1 0 0 0 -1 3004.DAT
0 STEP
1 86 80.0 -168 510.0 -1 0 0 0 1 0 0 0 -1 3004.DAT
0 STEP
1 86 100.0 -72 530.0 -1 0 0 0 1 0 0 0 -1 3010.DAT
0 STEP
1 86 80.0 -72 550.0 -1 0 0 0 1 0 0 0 -1 3004.DAT
0 STEP
1 86 100.0 -456 120.0 0 0 1 0 1 0 -1 0 0 3003.DAT
0 STEP
1 86 100.0 -432 160.0 0 0 1 0 1 0 -1 0 0 3001.DAT
0 STEP
1 86 90.0 -480 130.0 0 0 1 0 1 0 -1 0 0 3005.DAT
0 STEP
1 86 90.0 -456 220.0 0 0 1 0 1 0 -1 0 0 3008.DAT
0 STEP
1 86 100.0 -480 150.0 -1 0 0 0 1 0 0 0 -1 3004.DAT
0 STEP
1 86 100.0 -504 150.0 -1 0 0 0 1 0 0 0 -1 3004.DAT
0 STEP
1 86 90.0 -312 170.0 0 0 1 0 1 0 -1 0 0 3005.DAT
0 STEP
1 86 90.0 -336 180.0 0 0 1 0 1 0 -1 0 0 3004.DAT
0 STEP
1 86 90.0 -360 170.0 0 0 1 0 1 0 -1 0 0 3005.DAT
0 STEP
1 86 90.0 -384 200.0 0 0 1 0 1 0 -1 0 0 3010.DAT
0 STEP
1 86 90.0 -408 200.0 0 0 1 0 1 0 -1 0 0 3010.DAT
0 STEP
1 86 90.0 -480 170.0 0 0 1 0 1 0 -1 0 0 3005.DAT
0 STEP
1 86 90.0 -504 200.0 0 0 1 0 1 0 -1 0 0 3010.DAT
0 STEP
1 86 90.0 -264 190.0 0 0 1 0 1 0 -1 0 0 3005.DAT
0 STEP
1 86 90.0 -288 200.0 0 0 1 0 1 0 -1 0 0 3004.DAT
0 STEP
1 86 120.0 -312 190.0 -1 0 0 0 1 0 0 0 -1 3010.DAT
0 STEP
1 86 100.0 -480 190.0 -1 0 0 0 1 0 0 0 -1 3004.DAT
0 STEP
1 86 100.0 -528 220.0 0 0 1 0 1 0 -1 0 0 3001.DAT
0 STEP
1 86 90.0 0 210.0 0 0 1 0 1 0 -1 0 0 3005.DAT
0 STEP
1 86 90.0 -24 220.0 0 0 1 0 1 0 -1 0 0 3004.DAT
0 STEP
1 86 100.0 -264 210.0 -1 0 0 0 1 0 0 0 -1 3004.DAT
0 STEP
1 86 100.0 -312 220.0 0 0 1 0 1 0 -1 0 0 3003.DAT
0 STEP
1 86 100.0 -336 210.0 -1 0 0 0 1 0 0 0 -1 3004.DAT
0 STEP
1 86 90.0 -432 260.0 0 0 1 0 1 0 -1 0 0 3009.DAT
0 STEP
1 86 90.0 -480 220.0 0 0 1 0 1 0 -1 0 0 3004.DAT
0 STEP
1 86 100.0 -192 230.0 -1 0 0 0 1 0 0 0 -1 3004.DAT
0 STEP
1 86 90.0 -216 240.0 0 0 1 0 1 0 -1 0 0 3004.DAT
0 STEP
1 86 90.0 -264 260.0 0 0 1 0 1 0 -1 0 0 3010.DAT
0 STEP
1 86 120.0 -288 230.0 -1 0 0 0 1 0 0 0 -1 3010.DAT
0 STEP
1 86 90.0 -24 250.0 0 0 1 0 1 0 -1 0 0 3005.DAT
0 STEP
1 86 90.0 -288 250.0 0 0 1 0 1 0 -1 0 0 3005.DAT
0 STEP
1 86 100.0 -312 250.0 -1 0 0 0 1 0 0 0 -1 3004.DAT
0 STEP
1 86 90.0 -360 250.0 0 0 1 0 1 0 -1 0 0 3005.DAT
0 STEP
1 86 100.0 -480 250.0 -1 0 0 0 1 0 0 0 -1 3004.DAT
0 STEP
1 86 90.0 -504 250.0 0 0 1 0 1 0 -1 0 0 3005.DAT
0 STEP
1 86 90.0 -24 280.0 0 0 1 0 1 0 -1 0 0 3004.DAT
0 STEP
1 86 90.0 -168 270.0 0 0 1 0 1 0 -1 0 0 3005.DAT
0 STEP
1 86 90.0 -192 270.0 0 0 1 0 1 0 -1 0 0 3005.DAT
0 STEP
1 86 100.0 -360 280.0 0 0 1 0 1 0 -1 0 0 3003.DAT
0 STEP
1 86 120.0 -408 280.0 -1 0 0 0 1 0 0 0 -1 3001.DAT
0 STEP
1 86 90.0 -480 270.0 0 0 1 0 1 0 -1 0 0 3005.DAT
0 STEP
1 86 100.0 -504 270.0 -1 0 0 0 1 0 0 0 -1 3004.DAT
0 STEP
1 86 90.0 -72 300.0 0 0 1 0 1 0 -1 0 0 3004.DAT
0 STEP
1 86 100.0 -168 300.0 0 0 1 0 1 0 -1 0 0 3003.DAT
0 STEP
1 86 120.0 -192 290.0 -1 0 0 0 1 0 0 0 -1 3010.DAT
0 STEP
1 86 90.0 -240 300.0 0 0 1 0 1 0 -1 0 0 3004.DAT
0 STEP
1 86 90.0 -288 290.0 0 0 1 0 1 0 -1 0 0 3005.DAT
0 STEP
1 86 90.0 -24 310.0 0 0 1 0 1 0 -1 0 0 3005.DAT
0 STEP
1 86 100.0 -144 340.0 0 0 1 0 1 0 -1 0 0 3001.DAT
0 STEP
1 86 100.0 -216 320.0 0 0 1 0 1 0 -1 0 0 3003.DAT
0 STEP
1 86 90.0 -264 310.0 0 0 1 0 1 0 -1 0 0 3005.DAT
0 STEP
1 86 100.0 -288 320.0 0 0 1 0 1 0 -1 0 0 3003.DAT
0 STEP
1 86 90.0 -384 320.0 0 0 1 0 1 0 -1 0 0 3004.DAT
0 STEP
1 86 100.0 -408 320.0 0 0 1 0 1 0 -1 0 0 3003.DAT
0 STEP
1 86 90.0 -120 330.0 0 0 1 0 1 0 -1 0 0 3005.DAT
0 STEP
1 86 90.0 -168 340.0 0 0 1 0 1 0 -1 0 0 3004.DAT
0 STEP
1 86 90.0 -192 330.0 0 0 1 0 1 0 -1 0 0 3005.DAT
0 STEP
1 86 90.0 -120 380.0 0 0 1 0 1 0 -1 0 0 3010.DAT
0 STEP
1 86 100.0 -192 350.0 -1 0 0 0 1 0 0 0 -1 3004.DAT
0 STEP
1 86 90.0 -288 360.0 0 0 1 0 1 0 -1 0 0 3004.DAT
0 STEP
1 86 140.0 -384 360.0 -1 0 0 0 1 0 0 0 -1 2456.DAT
0 STEP
1 86 90.0 -168 370.0 0 0 1 0 1 0 -1 0 0 3005.DAT
0 STEP
1 86 90.0 -144 390.0 0 0 1 0 1 0 -1 0 0 3005.DAT
0 STEP
1 86 90.0 -216 390.0 0 0 1 0 1 0 -1 0 0 3005.DAT
0 STEP
1 86 120.0 -264 400.0 -1 0 0 0 1 0 0 0 -1 3001.DAT
0 STEP
1 86 90.0 -216 440.0 0 0 1 0 1 0 -1 0 0 3010.DAT
0 STEP
1 86 90.0 -240 440.0 0 0 1 0 1 0 -1 0 0 3010.DAT
0 STEP
1 86 100.0 -168 430.0 -1 0 0 0 1 0 0 0 -1 3004.DAT
0 STEP
1 86 90.0 -264 440.0 0 0 1 0 1 0 -1 0 0 3004.DAT
0 STEP
1 86 90.0 -288 440.0 0 0 1 0 1 0 -1 0 0 3004.DAT
0 STEP
1 86 100.0 -144 450.0 -1 0 0 0 1 0 0 0 -1 3004.DAT
0 STEP
1 86 90.0 -168 450.0 0 0 1 0 1 0 -1 0 0 3005.DAT
0 STEP
1 86 100.0 -192 460.0 0 0 1 0 1 0 -1 0 0 3003.DAT
0 STEP
1 86 90.0 -120 470.0 0 0 1 0 1 0 -1 0 0 3005.DAT
0 STEP
1 86 100.0 -144 480.0 0 0 1 0 1 0 -1 0 0 3003.DAT
0 STEP
1 86 90.0 -168 480.0 0 0 1 0 1 0 -1 0 0 3004.DAT
0 STEP
1 86 90.0 -120 520.0 0 0 1 0 1 0 -1 0 0 3010.DAT
0 STEP
1 86 100.0 -144 510.0 -1 0 0 0 1 0 0 0 -1 3004.DAT
0 STEP
1 86 100.0 -144 540.0 0 0 1 0 1 0 -1 0 0 3003.DAT
0 STEP
1 86 100.0 -48 560.0 0 0 1 0 1 0 -1 0 0 3003.DAT
0 STEP
1 86 90.0 -96 550.0 0 0 1 0 1 0 -1 0 0 3005.DAT
0 STEP
1 86 90.0 -72 570.0 0 0 1 0 1 0 -1 0 0 3005.DAT
0 STEP
1 86 90.0 -96 580.0 0 0 1 0 1 0 -1 0 0 3004.DAT
0 STEP
1 86 90.0 -120 570.0 0 0 1 0 1 0 -1 0 0 3005.DAT
0 STEP
1 86 120.0 -360 40.0 0 0 1 0 1 0 -1 0 0 3001.DAT
0 STEP
1 86 120.0 -384 20.0 0 0 1 0 1 0 -1 0 0 3003.DAT
0 STEP
1 86 110.0 -408 10.0 0 0 1 0 1 0 -1 0 0 3005.DAT
0 STEP
1 86 110.0 -408 40.0 0 0 1 0 1 0 -1 0 0 3004.DAT
0 STEP
1 86 110.0 -432 30.0 0 0 1 0 1 0 -1 0 0 3005.DAT
0 STEP
1 86 110.0 -456 40.0 0 0 1 0 1 0 -1 0 0 3004.DAT
0 STEP
1 86 110.0 -384 80.0 0 0 1 0 1 0 -1 0 0 3010.DAT
0 STEP
1 86 110.0 -432 60.0 0 0 1 0 1 0 -1 0 0 3004.DAT
0 STEP
1 86 120.0 -480 50.0 -1 0 0 0 1 0 0 0 -1 3004.DAT
0 STEP
1 86 120.0 -408 80.0 0 0 1 0 1 0 -1 0 0 3003.DAT
0 STEP
1 86 120.0 -456 80.0 0 0 1 0 1 0 -1 0 0 3003.DAT
0 STEP
1 86 110.0 -480 100.0 0 0 1 0 1 0 -1 0 0 3010.DAT
0 STEP
1 86 120.0 -432 100.0 0 0 1 0 1 0 -1 0 0 3003.DAT
0 STEP
1 86 110.0 -504 100.0 0 0 1 0 1 0 -1 0 0 3004.DAT
0 STEP
1 86 110.0 -408 110.0 0 0 1 0 1 0 -1 0 0 3005.DAT
0 STEP
1 86 120.0 -408 130.0 -1 0 0 0 1 0 0 0 -1 3004.DAT
0 STEP
1 86 110.0 -504 130.0 0 0 1 0 1 0 -1 0 0 3005.DAT
0 STEP
1 86 110.0 -528 140.0 0 0 1 0 1 0 -1 0 0 3004.DAT
0 STEP
1 86 120.0 -408 160.0 0 0 1 0 1 0 -1 0 0 3003.DAT
0 STEP
1 86 110.0 -456 180.0 0 0 1 0 1 0 -1 0 0 3010.DAT
0 STEP
1 86 120.0 -288 180.0 0 0 1 0 1 0 -1 0 0 3003.DAT
0 STEP
1 86 140.0 -312 170.0 -1 0 0 0 1 0 0 0 -1 3010.DAT
0 STEP
1 86 110.0 -336 170.0 0 0 1 0 1 0 -1 0 0 3005.DAT
0 STEP
1 86 120.0 -360 180.0 0 0 1 0 1 0 -1 0 0 3003.DAT
0 STEP
1 86 110.0 -384 240.0 0 0 1 0 1 0 -1 0 0 3008.DAT
0 STEP
1 86 120.0 -480 170.0 -1 0 0 0 1 0 0 0 -1 3004.DAT
0 STEP
1 86 120.0 -504 170.0 -1 0 0 0 1 0 0 0 -1 3004.DAT
0 STEP
1 86 110.0 -528 170.0 0 0 1 0 1 0 -1 0 0 3005.DAT
0 STEP
1 86 140.0 -264 190.0 -1 0 0 0 1 0 0 0 -1 3010.DAT
0 STEP
1 86 120.0 -336 190.0 -1 0 0 0 1 0 0 0 -1 3004.DAT
0 STEP
1 86 110.0 -408 200.0 0 0 1 0 1 0 -1 0 0 3004.DAT
0 STEP
1 86 110.0 -504 200.0 0 0 1 0 1 0 -1 0 0 3004.DAT
0 STEP
1 86 110.0 -216 240.0 0 0 1 0 1 0 -1 0 0 3010.DAT
0 STEP
1 86 140.0 -240 210.0 -1 0 0 0 1 0 0 0 -1 3010.DAT
0 STEP
1 86 110.0 -288 210.0 0 0 1 0 1 0 -1 0 0 3005.DAT
0 STEP
1 86 120.0 -432 210.0 -1 0 0 0 1 0 0 0 -1 3004.DAT
0 STEP
1 86 120.0 -480 220.0 0 0 1 0 1 0 -1 0 0 3003.DAT
0 STEP
1 86 120.0 -552 210.0 -1 0 0 0 1 0 0 0 -1 3004.DAT
0 STEP
1 86 110.0 -240 260.0 0 0 1 0 1 0 -1 0 0 3010.DAT
0 STEP
1 86 110.0 -264 230.0 0 0 1 0 1 0 -1 0 0 3005.DAT
0 STEP
1 86 110.0 -360 240.0 0 0 1 0 1 0 -1 0 0 3004.DAT
0 STEP
1 86 110.0 -408 230.0 0 0 1 0 1 0 -1 0 0 3005.DAT
0 STEP
1 86 120.0 -432 240.0 0 0 1 0 1 0 -1 0 0 3003.DAT
0 STEP
1 86 110.0 -456 230.0 0 0 1 0 1 0 -1 0 0 3005.DAT
0 STEP
1 86 120.0 -504 240.0 0 0 1 0 1 0 -1 0 0 3003.DAT
0 STEP
1 86 120.0 -552 240.0 0 0 1 0 1 0 -1 0 0 3003.DAT
0 STEP
1 86 110.0 -168 250.0 0 0 1 0 1 0 -1 0 0 3005.DAT
0 STEP
1 86 120.0 -192 260.0 0 0 1 0 1 0 -1 0 0 3003.DAT
0 STEP
1 86 120.0 -264 250.0 -1 0 0 0 1 0 0 0 -1 3004.DAT
0 STEP
1 86 140.0 -288 250.0 -1 0 0 0 1 0 0 0 -1 3010.DAT
0 STEP
1 86 110.0 -456 260.0 0 0 1 0 1 0 -1 0 0 3004.DAT
0 STEP
1 86 140.0 -168 270.0 -1 0 0 0 1 0 0 0 -1 3010.DAT
0 STEP
1 86 140.0 -264 270.0 -1 0 0 0 1 0 0 0 -1 3010.DAT
0 STEP
1 86 110.0 -288 280.0 0 0 1 0 1 0 -1 0 0 3004.DAT
0 STEP
1 86 110.0 -312 270.0 0 0 1 0 1 0 -1 0 0 3005.DAT
0 STEP
1 86 120.0 -336 280.0 0 0 1 0 1 0 -1 0 0 3003.DAT
0 STEP
1 86 120.0 -432 270.0 -1 0 0 0 1 0 0 0 -1 3004.DAT
0 STEP
1 86 110.0 -480 280.0 0 0 1 0 1 0 -1 0 0 3004.DAT
0 STEP
1 86 110.0 -528 270.0 0 0 1 0 1 0 -1 0 0 3005.DAT
0 STEP
1 86 110.0 -144 290.0 0 0 1 0 1 0 -1 0 0 3005.DAT
0 STEP
1 86 120.0 -264 290.0 -1 0 0 0 1 0 0 0 -1 3004.DAT
0 STEP
1 86 120.0 -312 290.0 -1 0 0 0 1 0 0 0 -1 3004.DAT
0 STEP
1 86 110.0 -432 290.0 0 0 1 0 1 0 -1 0 0 3005.DAT
0 STEP
1 86 110.0 -456 290.0 0 0 1 0 1 0 -1 0 0 3005.DAT
0 STEP
1 86 110.0 -504 290.0 0 0 1 0 1 0 -1 0 0 3005.DAT
0 STEP
1 86 110.0 -192 320.0 0 0 1 0 1 0 -1 0 0 3004.DAT
0 STEP
1 86 120.0 -240 320.0 0 0 1 0 1 0 -1 0 0 3003.DAT
0 STEP
1 86 110.0 -264 320.0 0 0 1 0 1 0 -1 0 0 3004.DAT
0 STEP
1 86 120.0 -312 320.0 0 0 1 0 1 0 -1 0 0 3003.DAT
0 STEP
1 86 110.0 -336 320.0 0 0 1 0 1 0 -1 0 0 3004.DAT
0 STEP
1 86 140.0 -432 310.0 -1 0 0 0 1 0 0 0 -1 3010.DAT
0 STEP
1 86 140.0 -120 330.0 -1 0 0 0 1 0 0 0 -1 3010.DAT
0 STEP
1 86 120.0 -168 360.0 0 0 1 0 1 0 -1 0 0 3001.DAT
0 STEP
1 86 110.0 -360 360.0 0 0 1 0 1 0 -1 0 0 3010.DAT
0 STEP
1 86 120.0 -384 330.0 -1 0 0 0 1 0 0 0 -1 3004.DAT
0 STEP
1 86 140.0 -120 360.0 -1 0 0 0 1 0 0 0 -1 3001.DAT
0 STEP
1 86 120.0 -240 350.0 -1 0 0 0 1 0 0 0 -1 3004.DAT
0 STEP
1 86 120.0 -264 360.0 0 0 1 0 1 0 -1 0 0 3003.DAT
0 STEP
1 86 110.0 -288 350.0 0 0 1 0 1 0 -1 0 0 3005.DAT
0 STEP
1 86 110.0 -312 360.0 0 0 1 0 1 0 -1 0 0 3004.DAT
0 STEP
1 86 110.0 -336 350.0 0 0 1 0 1 0 -1 0 0 3005.DAT
0 STEP
1 86 140.0 -216 380.0 -1 0 0 0 1 0 0 0 -1 3001.DAT
0 STEP
1 86 110.0 -240 370.0 0 0 1 0 1 0 -1 0 0 3005.DAT
0 STEP
1 86 110.0 -288 380.0 0 0 1 0 1 0 -1 0 0 3004.DAT
0 STEP
1 86 140.0 -120 400.0 -1 0 0 0 1 0 0 0 -1 3001.DAT
0 STEP
1 86 120.0 -144 390.0 -1 0 0 0 1 0 0 0 -1 3004.DAT
0 STEP
1 86 160.0 -192 390.0 -1 0 0 0 1 0 0 0 -1 3009.DAT
0 STEP
1 86 110.0 -240 420.0 0 0 1 0 1 0 -1 0 0 3010.DAT
0 STEP
1 86 110.0 -336 400.0 0 0 1 0 1 0 -1 0 0 3004.DAT
0 STEP
1 86 110.0 -144 420.0 0 0 1 0 1 0 -1 0 0 3004.DAT
0 STEP
1 86 110.0 -192 420.0 0 0 1 0 1 0 -1 0 0 3004.DAT
0 STEP
1 86 120.0 -216 410.0 -1 0 0 0 1 0 0 0 -1 3004.DAT
0 STEP
1 86 110.0 -360 410.0 0 0 1 0 1 0 -1 0 0 3005.DAT
0 STEP
1 86 120.0 -216 440.0 0 0 1 0 1 0 -1 0 0 3003.DAT
0 STEP
1 86 140.0 -264 430.0 -1 0 0 0 1 0 0 0 -1 3010.DAT
0 STEP
1 86 110.0 -288 430.0 0 0 1 0 1 0 -1 0 0 3005.DAT
0 STEP
1 86 110.0 -96 450.0 0 0 1 0 1 0 -1 0 0 3005.DAT
0 STEP
1 86 110.0 -120 460.0 0 0 1 0 1 0 -1 0 0 3004.DAT
0 STEP
1 86 110.0 -168 480.0 0 0 1 0 1 0 -1 0 0 3010.DAT
0 STEP
1 86 120.0 -264 450.0 -1 0 0 0 1 0 0 0 -1 3004.DAT
0 STEP
1 86 140.0 -288 450.0 -1 0 0 0 1 0 0 0 -1 3010.DAT
0 STEP
1 86 110.0 -96 480.0 0 0 1 0 1 0 -1 0 0 3004.DAT
0 STEP
1 86 110.0 -216 480.0 0 0 1 0 1 0 -1 0 0 3004.DAT
0 STEP
1 86 120.0 -240 470.0 -1 0 0 0 1 0 0 0 -1 3004.DAT
0 STEP
1 86 120.0 -120 490.0 -1 0 0 0 1 0 0 0 -1 3004.DAT
0 STEP
1 86 110.0 -192 490.0 0 0 1 0 1 0 -1 0 0 3005.DAT
0 STEP
1 86 120.0 -96 510.0 -1 0 0 0 1 0 0 0 -1 3004.DAT
0 STEP
1 86 120.0 -120 540.0 0 0 1 0 1 0 -1 0 0 3001.DAT
0 STEP
1 86 120.0 -48 530.0 -1 0 0 0 1 0 0 0 -1 3004.DAT
0 STEP
1 86 110.0 -96 540.0 0 0 1 0 1 0 -1 0 0 3004.DAT
0 STEP
1 86 110.0 -168 530.0 0 0 1 0 1 0 -1 0 0 3005.DAT
0 STEP
1 86 110.0 -72 550.0 0 0 1 0 1 0 -1 0 0 3005.DAT
0 STEP
1 86 110.0 -72 580.0 0 0 1 0 1 0 -1 0 0 3004.DAT
0 STEP
1 86 120.0 -96 570.0 -1 0 0 0 1 0 0 0 -1 3004.DAT
0 STEP
1 86 110.0 -48 590.0 0 0 1 0 1 0 -1 0 0 3005.DAT
0 STEP
1 86 120.0 -96 600.0 0 0 1 0 1 0 -1 0 0 3003.DAT
0 STEP
1 86 120.0 -120 590.0 -1 0 0 0 1 0 0 0 -1 3004.DAT
0 STEP
1 86 130.0 -312 20.0 0 0 1 0 1 0 -1 0 0 3004.DAT
0 STEP
1 86 130.0 -336 10.0 0 0 1 0 1 0 -1 0 0 3005.DAT
0 STEP
1 86 130.0 -408 20.0 0 0 1 0 1 0 -1 0 0 3004.DAT
0 STEP
1 86 130.0 -432 10.0 0 0 1 0 1 0 -1 0 0 3005.DAT
0 STEP
1 86 130.0 -336 40.0 0 0 1 0 1 0 -1 0 0 3004.DAT
0 STEP
1 86 130.0 -432 40.0 0 0 1 0 1 0 -1 0 0 3004.DAT
0 STEP
1 86 140.0 -456 40.0 0 0 1 0 1 0 -1 0 0 3003.DAT
0 STEP
1 86 140.0 -384 60.0 0 0 1 0 1 0 -1 0 0 3003.DAT
0 STEP
1 86 130.0 -408 50.0 0 0 1 0 1 0 -1 0 0 3005.DAT
0 STEP
1 86 130.0 -432 70.0 0 0 1 0 1 0 -1 0 0 3005.DAT
0 STEP
1 86 140.0 -480 80.0 0 0 1 0 1 0 -1 0 0 3003.DAT
0 STEP
1 86 130.0 -504 70.0 0 0 1 0 1 0 -1 0 0 3005.DAT
0 STEP
1 86 140.0 -384 90.0 -1 0 0 0 1 0 0 0 -1 3004.DAT
0 STEP
1 86 140.0 -504 120.0 0 0 1 0 1 0 -1 0 0 3001.DAT
0 STEP
1 86 130.0 -384 120.0 0 0 1 0 1 0 -1 0 0 3004.DAT
0 STEP
1 86 140.0 -408 110.0 -1 0 0 0 1 0 0 0 -1 3004.DAT
0 STEP
1 86 130.0 -456 140.0 0 0 1 0 1 0 -1 0 0 3010.DAT
0 STEP
1 86 140.0 -480 110.0 -1 0 0 0 1 0 0 0 -1 3004.DAT
0 STEP
1 86 130.0 -528 120.0 0 0 1 0 1 0 -1 0 0 3004.DAT
0 STEP
1 86 130.0 -432 160.0 0 0 1 0 1 0 -1 0 0 3010.DAT
0 STEP
1 86 130.0 -480 140.0 0 0 1 0 1 0 -1 0 0 3004.DAT
0 STEP
1 86 140.0 -528 180.0 0 0 1 0 1 0 -1 0 0 3001.DAT
0 STEP
1 86 140.0 -336 170.0 -1 0 0 0 1 0 0 0 -1 3004.DAT
0 STEP
1 86 130.0 -384 170.0 0 0 1 0 1 0 -1 0 0 3005.DAT
0 STEP
1 86 130.0 -384 200.0 0 0 1 0 1 0 -1 0 0 3004.DAT
0 STEP
1 86 140.0 -408 190.0 -1 0 0 0 1 0 0 0 -1 3004.DAT
0 STEP
1 86 140.0 -456 200.0 0 0 1 0 1 0 -1 0 0 3003.DAT
0 STEP
1 86 130.0 -480 190.0 0 0 1 0 1 0 -1 0 0 3005.DAT
0 STEP
1 86 140.0 -504 200.0 0 0 1 0 1 0 -1 0 0 3003.DAT
0 STEP
1 86 140.0 -552 190.0 -1 0 0 0 1 0 0 0 -1 3004.DAT
0 STEP
1 86 140.0 -216 210.0 -1 0 0 0 1 0 0 0 -1 3004.DAT
0 STEP
1 86 140.0 -264 220.0 0 0 1 0 1 0 -1 0 0 3003.DAT
0 STEP
1 86 140.0 -288 210.0 -1 0 0 0 1 0 0 0 -1 3004.DAT
0 STEP
1 86 130.0 -312 240.0 0 0 1 0 1 0 -1 0 0 3010.DAT
0 STEP
1 86 130.0 -336 210.0 0 0 1 0 1 0 -1 0 0 3005.DAT
0 STEP
1 86 130.0 -408 210.0 0 0 1 0 1 0 -1 0 0 3005.DAT
0 STEP
1 86 130.0 -192 230.0 0 0 1 0 1 0 -1 0 0 3005.DAT
0 STEP
1 86 140.0 -216 240.0 0 0 1 0 1 0 -1 0 0 3003.DAT
0 STEP
1 86 140.0 -240 230.0 -1 0 0 0 1 0 0 0 -1 3004.DAT
0 STEP
1 86 130.0 -336 240.0 0 0 1 0 1 0 -1 0 0 3004.DAT
0 STEP
1 86 130.0 -360 230.0 0 0 1 0 1 0 -1 0 0 3005.DAT
0 STEP
1 86 140.0 -384 260.0 0 0 1 0 1 0 -1 0 0 3001.DAT
0 STEP
1 86 140.0 -408 230.0 -1 0 0 0 1 0 0 0 -1 3004.DAT
0 STEP
1 86 130.0 -456 260.0 0 0 1 0 1 0 -1 0 0 3010.DAT
0 STEP
1 86 130.0 -528 230.0 0 0 1 0 1 0 -1 0 0 3005.DAT
0 STEP
1 86 140.0 -168 250.0 -1 0 0 0 1 0 0 0 -1 3004.DAT
0 STEP
1 86 160.0 -240 260.0 -1 0 0 0 1 0 0 0 -1 3001.DAT
0 STEP
1 86 140.0 -360 260.0 0 0 1 0 1 0 -1 0 0 3003.DAT
0 STEP
1 86 130.0 -480 260.0 0 0 1 0 1 0 -1 0 0 3004.DAT
0 STEP
1 86 130.0 -528 260.0 0 0 1 0 1 0 -1 0 0 3004.DAT
0 STEP
1 86 130.0 -144 270.0 0 0 1 0 1 0 -1 0 0 3005.DAT
0 STEP
1 86 140.0 -216 270.0 -1 0 0 0 1 0 0 0 -1 3004.DAT
0 STEP
1 86 140.0 -288 270.0 -1 0 0 0 1 0 0 0 -1 3004.DAT
0 STEP
1 86 130.0 -504 280.0 0 0 1 0 1 0 -1 0 0 3004.DAT
0 STEP
1 86 130.0 -144 300.0 0 0 1 0 1 0 -1 0 0 3004.DAT
0 STEP
1 86 130.0 -168 300.0 0 0 1 0 1 0 -1 0 0 3004.DAT
0 STEP
1 86 130.0 -240 290.0 0 0 1 0 1 0 -1 0 0 3005.DAT
0 STEP
1 86 140.0 -288 300.0 0 0 1 0 1 0 -1 0 0 3003.DAT
0 STEP
1 86 130.0 -360 290.0 0 0 1 0 1 0 -1 0 0 3005.DAT
0 STEP
1 86 140.0 -432 290.0 -1 0 0 0 1 0 0 0 -1 3004.DAT
0 STEP
1 86 130.0 -480 290.0 0 0 1 0 1 0 -1 0 0 3005.DAT
0 STEP
1 86 140.0 -192 310.0 -1 0 0 0 1 0 0 0 -1 3004.DAT
0 STEP
1 86 160.0 -216 310.0 -1 0 0 0 1 0 0 0 -1 3010.DAT
0 STEP
1 86 140.0 -264 310.0 -1 0 0 0 1 0 0 0 -1 3004.DAT
0 STEP
1 86 140.0 -336 310.0 -1 0 0 0 1 0 0 0 -1 3004.DAT
0 STEP
1 86 140.0 -384 310.0 -1 0 0 0 1 0 0 0 -1 3004.DAT
0 STEP
1 86 130.0 -408 320.0 0 0 1 0 1 0 -1 0 0 3004.DAT
0 STEP
1 86 130.0 -456 310.0 0 0 1 0 1 0 -1 0 0 3005.DAT
0 STEP
1 86 140.0 -144 340.0 0 0 1 0 1 0 -1 0 0 3003.DAT
0 STEP
1 86 130.0 -192 340.0 0 0 1 0 1 0 -1 0 0 3004.DAT
0 STEP
1 86 130.0 -216 330.0 0 0 1 0 1 0 -1 0 0 3005.DAT
0 STEP
1 86 130.0 -264 330.0 0 0 1 0 1 0 -1 0 0 3005.DAT
0 STEP
1 86 140.0 -288 330.0 -1 0 0 0 1 0 0 0 -1 3004.DAT
0 STEP
1 86 140.0 -336 360.0 0 0 1 0 1 0 -1 0 0 3001.DAT
0 STEP
1 86 160.0 -360 330.0 -1 0 0 0 1 0 0 0 -1 3010.DAT
0 STEP
1 86 130.0 -288 360.0 0 0 1 0 1 0 -1 0 0 3004.DAT
0 STEP
1 86 130.0 -312 350.0 0 0 1 0 1 0 -1 0 0 3005.DAT
0 STEP
1 86 140.0 -360 380.0 0 0 1 0 1 0 -1 0 0 3001.DAT
0 STEP
1 86 130.0 -144 370.0 0 0 1 0 1 0 -1 0 0 3005.DAT
0 STEP
1 86 130.0 -192 370.0 0 0 1 0 1 0 -1 0 0 3005.DAT
0 STEP
1 86 180.0 -240 380.0 -1 0 0 0 1 0 0 0 -1 2456.DAT
0 STEP
1 86 140.0 -312 370.0 -1 0 0 0 1 0 0 0 -1 3004.DAT
0 STEP
1 86 130.0 -288 390.0 0 0 1 0 1 0 -1 0 0 3005.DAT
0 STEP
1 86 130.0 -144 440.0 0 0 1 0 1 0 -1 0 0 3010.DAT
0 STEP
1 86 140.0 -192 410.0 -1 0 0 0 1 0 0 0 -1 3004.DAT
0 STEP
1 86 130.0 -240 410.0 0 0 1 0 1 0 -1 0 0 3005.DAT
0 STEP
1 86 140.0 -336 410.0 -1 0 0 0 1 0 0 0 -1 3004.DAT
0 STEP
1 86 130.0 -168 440.0 0 0 1 0 1 0 -1 0 0 3004.DAT
0 STEP
1 86 140.0 -192 440.0 0 0 1 0 1 0 -1 0 0 3003.DAT
0 STEP
1 86 140.0 -240 440.0 0 0 1 0 1 0 -1 0 0 3003.DAT
0 STEP
1 86 140.0 -288 430.0 -1 0 0 0 1 0 0 0 -1 3004.DAT
0 STEP
1 86 140.0 -96 450.0 -1 0 0 0 1 0 0 0 -1 3004.DAT
0 STEP
1 86 130.0 -120 450.0 0 0 1 0 1 0 -1 0 0 3005.DAT
0 STEP
1 86 160.0 -96 470.0 -1 0 0 0 1 0 0 0 -1 3010.DAT
0 STEP
1 86 140.0 -120 470.0 -1 0 0 0 1 0 0 0 -1 3004.DAT
0 STEP
1 86 160.0 -168 480.0 -1 0 0 0 1 0 0 0 -1 3001.DAT
0 STEP
1 86 130.0 -192 480.0 0 0 1 0 1 0 -1 0 0 3004.DAT
0 STEP
1 86 160.0 -216 470.0 -1 0 0 0 1 0 0 0 -1 3010.DAT
0 STEP
1 86 140.0 -96 490.0 -1 0 0 0 1 0 0 0 -1 3004.DAT
0 STEP
1 86 160.0 -144 500.0 -1 0 0 0 1 0 0 0 -1 3001.DAT
0 STEP
1 86 130.0 -216 490.0 0 0 1 0 1 0 -1 0 0 3005.DAT
0 STEP
1 86 160.0 -168 510.0 -1 0 0 0 1 0 0 0 -1 3010.DAT
0 STEP
1 86 130.0 -96 530.0 0 0 1 0 1 0 -1 0 0 3005.DAT
0 STEP
1 86 160.0 -144 530.0 -1 0 0 0 1 0 0 0 -1 3010.DAT
0 STEP
1 86 140.0 -168 530.0 -1 0 0 0 1 0 0 0 -1 3004.DAT
0 STEP
1 86 140.0 -48 550.0 -1 0 0 0 1 0 0 0 -1 3004.DAT
0 STEP
1 86 130.0 -72 560.0 0 0 1 0 1 0 -1 0 0 3004.DAT
0 STEP
1 86 140.0 -96 550.0 -1 0 0 0 1 0 0 0 -1 3004.DAT
0 STEP
1 86 140.0 -144 550.0 -1 0 0 0 1 0 0 0 -1 3004.DAT
0 STEP
1 86 140.0 -48 580.0 0 0 1 0 1 0 -1 0 0 3003.DAT
0 STEP
1 86 140.0 -72 590.0 -1 0 0 0 1 0 0 0 -1 3004.DAT
0 STEP
1 86 150.0 -384 20.0 0 0 1 0 1 0 -1 0 0 3004.DAT
0 STEP
1 86 150.0 -408 10.0 0 0 1 0 1 0 -1 0 0 3005.DAT
0 STEP
1 86 150.0 -360 40.0 0 0 1 0 1 0 -1 0 0 3004.DAT
0 STEP
1 86 150.0 -408 60.0 0 0 1 0 1 0 -1 0 0 3010.DAT
0 STEP
1 86 150.0 -432 30.0 0 0 1 0 1 0 -1 0 0 3005.DAT
0 STEP
1 86 150.0 -432 80.0 0 0 1 0 1 0 -1 0 0 3010.DAT
0 STEP
1 86 150.0 -480 50.0 0 0 1 0 1 0 -1 0 0 3005.DAT
0 STEP
1 86 150.0 -456 80.0 0 0 1 0 1 0 -1 0 0 3004.DAT
0 STEP
1 86 150.0 -384 110.0 0 0 1 0 1 0 -1 0 0 3005.DAT
0 STEP
1 86 160.0 -456 110.0 -1 0 0 0 1 0 0 0 -1 3004.DAT
0 STEP
1 86 150.0 -408 140.0 0 0 1 0 1 0 -1 0 0 3004.DAT
0 STEP
1 86 160.0 -432 130.0 -1 0 0 0 1 0 0 0 -1 3004.DAT
0 STEP
1 86 160.0 -456 140.0 0 0 1 0 1 0 -1 0 0 3003.DAT
0 STEP
1 86 160.0 -480 160.0 0 0 1 0 1 0 -1 0 0 3001.DAT
0 STEP
1 86 150.0 -528 130.0 0 0 1 0 1 0 -1 0 0 3005.DAT
0 STEP
1 86 160.0 -432 160.0 0 0 1 0 1 0 -1 0 0 3003.DAT
0 STEP
1 86 150.0 -288 180.0 0 0 1 0 1 0 -1 0 0 3004.DAT
0 STEP
1 86 160.0 -360 200.0 0 0 1 0 1 0 -1 0 0 3001.DAT
0 STEP
1 86 160.0 -384 180.0 0 0 1 0 1 0 -1 0 0 3003.DAT
0 STEP
1 86 160.0 -408 170.0 -1 0 0 0 1 0 0 0 -1 3004.DAT
0 STEP
1 86 160.0 -456 170.0 -1 0 0 0 1 0 0 0 -1 3004.DAT
0 STEP
1 86 150.0 -504 170.0 0 0 1 0 1 0 -1 0 0 3005.DAT
0 STEP
1 86 150.0 -336 200.0 0 0 1 0 1 0 -1 0 0 3004.DAT
0 STEP
1 86 160.0 -432 190.0 -1 0 0 0 1 0 0 0 -1 3004.DAT
0 STEP
1 86 150.0 -312 210.0 0 0 1 0 1 0 -1 0 0 3005.DAT
0 STEP
1 86 160.0 -384 210.0 -1 0 0 0 1 0 0 0 -1 3004.DAT
0 STEP
1 86 160.0 -408 210.0 -1 0 0 0 1 0 0 0 -1 3004.DAT
0 STEP
1 86 160.0 -432 220.0 0 0 1 0 1 0 -1 0 0 3003.DAT
0 STEP
1 86 160.0 -480 210.0 -1 0 0 0 1 0 0 0 -1 3004.DAT
0 STEP
1 86 150.0 -552 220.0 0 0 1 0 1 0 -1 0 0 3004.DAT
0 STEP
1 86 150.0 -192 240.0 0 0 1 0 1 0 -1 0 0 3004.DAT
0 STEP
1 86 160.0 -312 230.0 -1 0 0 0 1 0 0 0 -1 3004.DAT
0 STEP
1 86 160.0 -336 240.0 0 0 1 0 1 0 -1 0 0 3003.DAT
0 STEP
1 86 160.0 -456 230.0 -1 0 0 0 1 0 0 0 -1 3004.DAT
0 STEP
1 86 160.0 -480 260.0 0 0 1 0 1 0 -1 0 0 3001.DAT
0 STEP
1 86 160.0 -504 230.0 -1 0 0 0 1 0 0 0 -1 3004.DAT
0 STEP
1 86 160.0 -528 240.0 0 0 1 0 1 0 -1 0 0 3003.DAT
0 STEP
1 86 150.0 -264 250.0 0 0 1 0 1 0 -1 0 0 3005.DAT
0 STEP
1 86 150.0 -312 300.0 0 0 1 0 1 0 -1 0 0 3009.DAT
0 STEP
1 86 160.0 -432 250.0 -1 0 0 0 1 0 0 0 -1 3004.DAT
0 STEP
1 86 160.0 -456 260.0 0 0 1 0 1 0 -1 0 0 3003.DAT
0 STEP
1 86 160.0 -504 260.0 0 0 1 0 1 0 -1 0 0 3003.DAT
0 STEP
1 86 150.0 -552 250.0 0 0 1 0 1 0 -1 0 0 3005.DAT
0 STEP
1 86 160.0 -192 270.0 -1 0 0 0 1 0 0 0 -1 3004.DAT
0 STEP
1 86 150.0 -336 280.0 0 0 1 0 1 0 -1 0 0 3004.DAT
0 STEP
1 86 150.0 -432 270.0 0 0 1 0 1 0 -1 0 0 3005.DAT
0 STEP
1 86 150.0 -528 270.0 0 0 1 0 1 0 -1 0 0 3005.DAT
0 STEP
1 86 160.0 -144 300.0 0 0 1 0 1 0 -1 0 0 3003.DAT
0 STEP
1 86 160.0 -168 290.0 -1 0 0 0 1 0 0 0 -1 3004.DAT
0 STEP
1 86 150.0 -240 320.0 0 0 1 0 1 0 -1 0 0 3010.DAT
0 STEP
1 86 150.0 -264 290.0 0 0 1 0 1 0 -1 0 0 3005.DAT
0 STEP
1 86 150.0 -360 300.0 0 0 1 0 1 0 -1 0 0 3004.DAT
0 STEP
1 86 160.0 -456 290.0 -1 0 0 0 1 0 0 0 -1 3004.DAT
0 STEP
1 86 150.0 -504 290.0 0 0 1 0 1 0 -1 0 0 3005.DAT
0 STEP
1 86 180.0 -168 320.0 -1 0 0 0 1 0 0 0 -1 3001.DAT
0 STEP
1 86 160.0 -408 320.0 0 0 1 0 1 0 -1 0 0 3003.DAT
0 STEP
1 86 160.0 -192 330.0 -1 0 0 0 1 0 0 0 -1 3004.DAT
0 STEP
1 86 160.0 -216 330.0 -1 0 0 0 1 0 0 0 -1 3004.DAT
0 STEP
1 86 150.0 -264 340.0 0 0 1 0 1 0 -1 0 0 3004.DAT
0 STEP
1 86 150.0 -384 330.0 0 0 1 0 1 0 -1 0 0 3005.DAT
0 STEP
1 86 180.0 -168 360.0 -1 0 0 0 1 0 0 0 -1 3001.DAT
0 STEP
1 86 160.0 -192 360.0 0 0 1 0 1 0 -1 0 0 3003.DAT
0 STEP
1 86 150.0 -216 350.0 0 0 1 0 1 0 -1 0 0 3005.DAT
0 STEP
1 86 160.0 -288 350.0 -1 0 0 0 1 0 0 0 -1 3004.DAT
0 STEP
1 86 160.0 -144 370.0 -1 0 0 0 1 0 0 0 -1 3004.DAT
0 STEP
1 86 150.0 -264 370.0 0 0 1 0 1 0 -1 0 0 3005.DAT
0 STEP
1 86 150.0 -288 370.0 0 0 1 0 1 0 -1 0 0 3005.DAT
0 STEP
1 86 150.0 -144 420.0 0 0 1 0 1 0 -1 0 0 3010.DAT
0 STEP
1 86 180.0 -168 390.0 -1 0 0 0 1 0 0 0 -1 3010.DAT
0 STEP
1 86 150.0 -288 400.0 0 0 1 0 1 0 -1 0 0 3004.DAT
0 STEP
1 86 180.0 -168 420.0 -1 0 0 0 1 0 0 0 -1 3001.DAT
0 STEP
1 86 150.0 -216 420.0 0 0 1 0 1 0 -1 0 0 3004.DAT
0 STEP
1 86 180.0 -240 410.0 -1 0 0 0 1 0 0 0 -1 3010.DAT
0 STEP
1 86 150.0 -120 440.0 0 0 1 0 1 0 -1 0 0 3004.DAT
0 STEP
1 86 180.0 -168 450.0 -1 0 0 0 1 0 0 0 -1 3010.DAT
0 STEP
1 86 160.0 -216 450.0 -1 0 0 0 1 0 0 0 -1 3004.DAT
0 STEP
1 86 150.0 -264 450.0 0 0 1 0 1 0 -1 0 0 3005.DAT
0 STEP
1 86 180.0 -144 470.0 -1 0 0 0 1 0 0 0 -1 3010.DAT
0 STEP
1 86 150.0 -192 470.0 0 0 1 0 1 0 -1 0 0 3005.DAT
0 STEP
1 86 150.0 -240 470.0 0 0 1 0 1 0 -1 0 0 3005.DAT
0 STEP
1 86 150.0 -120 500.0 0 0 1 0 1 0 -1 0 0 3004.DAT
0 STEP
1 86 160.0 -192 490.0 -1 0 0 0 1 0 0 0 -1 3004.DAT
0 STEP
1 86 150.0 -96 520.0 0 0 1 0 1 0 -1 0 0 3004.DAT
0 STEP
1 86 150.0 -48 530.0 0 0 1 0 1 0 -1 0 0 3005.DAT
0 STEP
1 86 150.0 -72 540.0 0 0 1 0 1 0 -1 0 0 3004.DAT
0 STEP
1 86 160.0 -120 540.0 0 0 1 0 1 0 -1 0 0 3003.DAT
0 STEP
1 86 160.0 -72 570.0 -1 0 0 0 1 0 0 0 -1 3004.DAT
0 STEP
1 86 150.0 -96 570.0 0 0 1 0 1 0 -1 0 0 3005.DAT
0 STEP
1 86 150.0 -120 580.0 0 0 1 0 1 0 -1 0 0 3004.DAT
0 STEP
1 86 150.0 -96 600.0 0 0 1 0 1 0 -1 0 0 3004.DAT
0 STEP
1 86 170.0 -432 110.0 0 0 1 0 1 0 -1 0 0 3005.DAT
0 STEP
1 86 170.0 0 150.0 0 0 1 0 1 0 -1 0 0 3005.DAT
0 STEP
1 86 170.0 -504 180.0 0 0 1 0 1 0 -1 0 0 3010.DAT
0 STEP
1 86 180.0 0 220.0 0 0 1 0 1 0 -1 0 0 2456.DAT
0 STEP
1 86 170.0 -336 180.0 0 0 1 0 1 0 -1 0 0 3004.DAT
0 STEP
1 86 170.0 -288 190.0 0 0 1 0 1 0 -1 0 0 3005.DAT
0 STEP
1 86 180.0 -312 200.0 0 0 1 0 1 0 -1 0 0 3003.DAT
0 STEP
1 86 170.0 -408 190.0 0 0 1 0 1 0 -1 0 0 3005.DAT
0 STEP
1 86 170.0 -456 200.0 0 0 1 0 1 0 -1 0 0 3004.DAT
0 STEP
1 86 170.0 -528 200.0 0 0 1 0 1 0 -1 0 0 3004.DAT
0 STEP
1 86 180.0 -24 220.0 0 0 1 0 1 0 -1 0 0 3003.DAT
0 STEP
1 86 180.0 -264 210.0 -1 0 0 0 1 0 0 0 -1 3004.DAT
0 STEP
1 86 170.0 -288 220.0 0 0 1 0 1 0 -1 0 0 3004.DAT
0 STEP
1 86 180.0 -336 210.0 -1 0 0 0 1 0 0 0 -1 3004.DAT
0 STEP
1 86 180.0 -216 260.0 0 0 1 0 1 0 -1 0 0 3001.DAT
0 STEP
1 86 170.0 -240 230.0 0 0 1 0 1 0 -1 0 0 3005.DAT
0 STEP
1 86 170.0 -264 240.0 0 0 1 0 1 0 -1 0 0 3004.DAT
0 STEP
1 86 170.0 -384 230.0 0 0 1 0 1 0 -1 0 0 3005.DAT
0 STEP
1 86 170.0 -408 230.0 0 0 1 0 1 0 -1 0 0 3005.DAT
0 STEP
1 86 170.0 -24 250.0 0 0 1 0 1 0 -1 0 0 3005.DAT
0 STEP
1 86 180.0 -192 250.0 -1 0 0 0 1 0 0 0 -1 3004.DAT
0 STEP
1 86 180.0 -312 250.0 -1 0 0 0 1 0 0 0 -1 3004.DAT
0 STEP
1 86 170.0 -360 260.0 0 0 1 0 1 0 -1 0 0 3004.DAT
0 STEP
1 86 170.0 -384 280.0 0 0 1 0 1 0 -1 0 0 3010.DAT
0 STEP
1 86 180.0 -24 270.0 -1 0 0 0 1 0 0 0 -1 3004.DAT
0 STEP
1 86 180.0 -48 280.0 0 0 1 0 1 0 -1 0 0 3003.DAT
0 STEP
1 86 180.0 -288 300.0 0 0 1 0 1 0 -1 0 0 3001.DAT
0 STEP
1 86 170.0 -312 320.0 0 0 1 0 1 0 -1 0 0 3009.DAT
0 STEP
1 86 170.0 -336 270.0 0 0 1 0 1 0 -1 0 0 3005.DAT
0 STEP
1 86 180.0 -408 270.0 -1 0 0 0 1 0 0 0 -1 3004.DAT
0 STEP
1 86 170.0 -432 280.0 0 0 1 0 1 0 -1 0 0 3004.DAT
0 STEP
1 86 180.0 0 290.0 -1 0 0 0 1 0 0 0 -1 3004.DAT
0 STEP
1 86 180.0 -24 300.0 0 0 1 0 1 0 -1 0 0 3003.DAT
0 STEP
1 86 180.0 -72 300.0 0 0 1 0 1 0 -1 0 0 3003.DAT
0 STEP
1 86 180.0 -96 300.0 0 0 1 0 1 0 -1 0 0 3003.DAT
0 STEP
1 86 170.0 -192 300.0 0 0 1 0 1 0 -1 0 0 3004.DAT
0 STEP
1 86 180.0 -240 300.0 0 0 1 0 1 0 -1 0 0 3003.DAT
0 STEP
1 86 170.0 -264 300.0 0 0 1 0 1 0 -1 0 0 3004.DAT
0 STEP
1 86 170.0 -336 340.0 0 0 1 0 1 0 -1 0 0 3009.DAT
0 STEP
1 86 180.0 -360 300.0 0 0 1 0 1 0 -1 0 0 3003.DAT
0 STEP
1 86 170.0 -408 290.0 0 0 1 0 1 0 -1 0 0 3005.DAT
0 STEP
1 86 180.0 -144 330.0 -1 0 0 0 1 0 0 0 -1 3004.DAT
0 STEP
1 86 180.0 -240 330.0 -1 0 0 0 1 0 0 0 -1 3004.DAT
0 STEP
1 86 170.0 -264 330.0 0 0 1 0 1 0 -1 0 0 3005.DAT
0 STEP
1 86 180.0 -384 330.0 -1 0 0 0 1 0 0 0 -1 3004.DAT
0 STEP
1 86 170.0 -144 350.0 0 0 1 0 1 0 -1 0 0 3005.DAT
0 STEP
1 86 180.0 -216 350.0 -1 0 0 0 1 0 0 0 -1 3004.DAT
0 STEP
1 86 170.0 -240 350.0 0 0 1 0 1 0 -1 0 0 3005.DAT
0 STEP
1 86 170.0 -264 380.0 0 0 1 0 1 0 -1 0 0 3010.DAT
0 STEP
1 86 170.0 -360 360.0 0 0 1 0 1 0 -1 0 0 3004.DAT
0 STEP
1 86 180.0 -288 370.0 -1 0 0 0 1 0 0 0 -1 3004.DAT
0 STEP
1 86 180.0 -144 400.0 0 0 1 0 1 0 -1 0 0 3003.DAT
0 STEP
1 86 170.0 -288 390.0 0 0 1 0 1 0 -1 0 0 3005.DAT
0 STEP
1 86 180.0 -360 390.0 -1 0 0 0 1 0 0 0 -1 3004.DAT
0 STEP
1 86 180.0 -192 440.0 0 0 1 0 1 0 -1 0 0 3001.DAT
0 STEP
1 86 180.0 -216 410.0 -1 0 0 0 1 0 0 0 -1 3004.DAT
0 STEP
1 86 180.0 -288 420.0 0 0 1 0 1 0 -1 0 0 3003.DAT
0 STEP
1 86 170.0 -336 410.0 0 0 1 0 1 0 -1 0 0 3005.DAT
0 STEP
1 86 180.0 -120 430.0 -1 0 0 0 1 0 0 0 -1 3004.DAT
0 STEP
1 86 170.0 -144 440.0 0 0 1 0 1 0 -1 0 0 3004.DAT
0 STEP
1 86 170.0 -216 430.0 0 0 1 0 1 0 -1 0 0 3005.DAT
0 STEP
1 86 170.0 -240 430.0 0 0 1 0 1 0 -1 0 0 3005.DAT
0 STEP
1 86 180.0 -120 480.0 0 0 1 0 1 0 -1 0 0 3001.DAT
0 STEP
1 86 170.0 -240 460.0 0 0 1 0 1 0 -1 0 0 3004.DAT
0 STEP
1 86 180.0 -264 450.0 -1 0 0 0 1 0 0 0 -1 3004.DAT
0 STEP
1 86 180.0 -96 500.0 0 0 1 0 1 0 -1 0 0 3003.DAT
0 STEP
1 86 180.0 -72 540.0 0 0 1 0 1 0 -1 0 0 3003.DAT
0 STEP
1 86 180.0 -96 530.0 -1 0 0 0 1 0 0 0 -1 3004.DAT
0 STEP
1 86 170.0 -48 550.0 0 0 1 0 1 0 -1 0 0 3005.DAT
0 STEP
1 86 170.0 -96 550.0 0 0 1 0 1 0 -1 0 0 3005.DAT
0 STEP
1 86 170.0 -96 580.0 0 0 1 0 1 0 -1 0 0 3004.DAT
0 STEP
1 86 170.0 -120 570.0 0 0 1 0 1 0 -1 0 0 3005.DAT
0 STEP
1 86 190.0 -288 200.0 0 0 1 0 1 0 -1 0 0 3004.DAT
0 STEP
1 86 190.0 -336 190.0 0 0 1 0 1 0 -1 0 0 3005.DAT
0 STEP
1 86 190.0 -360 190.0 0 0 1 0 1 0 -1 0 0 3005.DAT
0 STEP
1 86 190.0 -240 210.0 0 0 1 0 1 0 -1 0 0 3005.DAT
0 STEP
1 86 200.0 -360 210.0 -1 0 0 0 1 0 0 0 -1 3004.DAT
0 STEP
1 86 200.0 -240 230.0 -1 0 0 0 1 0 0 0 -1 3004.DAT
0 STEP
1 86 200.0 -264 240.0 0 0 1 0 1 0 -1 0 0 3003.DAT
0 STEP
1 86 200.0 -288 230.0 -1 0 0 0 1 0 0 0 -1 3004.DAT
0 STEP
1 86 190.0 -312 230.0 0 0 1 0 1 0 -1 0 0 3005.DAT
0 STEP
1 86 190.0 -336 230.0 0 0 1 0 1 0 -1 0 0 3005.DAT
0 STEP
1 86 200.0 -360 240.0 0 0 1 0 1 0 -1 0 0 3003.DAT
0 STEP
1 86 200.0 -384 240.0 0 0 1 0 1 0 -1 0 0 3003.DAT
0 STEP
1 86 200.0 -24 250.0 -1 0 0 0 1 0 0 0 -1 3004.DAT
0 STEP
1 86 190.0 -288 250.0 0 0 1 0 1 0 -1 0 0 3005.DAT
0 STEP
1 86 190.0 -336 260.0 0 0 1 0 1 0 -1 0 0 3004.DAT
0 STEP
1 86 190.0 -408 250.0 0 0 1 0 1 0 -1 0 0 3005.DAT
0 STEP
1 86 190.0 -168 280.0 0 0 1 0 1 0 -1 0 0 3004.DAT
0 STEP
1 86 200.0 -192 280.0 0 0 1 0 1 0 -1 0 0 3003.DAT
0 STEP
1 86 190.0 -264 270.0 0 0 1 0 1 0 -1 0 0 3005.DAT
0 STEP
1 86 200.0 -312 280.0 0 0 1 0 1 0 -1 0 0 3003.DAT
0 STEP
1 86 200.0 -360 270.0 -1 0 0 0 1 0 0 0 -1 3004.DAT
0 STEP
1 86 200.0 -384 270.0 -1 0 0 0 1 0 0 0 -1 3004.DAT
0 STEP
1 86 190.0 -264 320.0 0 0 1 0 1 0 -1 0 0 3010.DAT
0 STEP
1 86 200.0 -336 300.0 0 0 1 0 1 0 -1 0 0 3003.DAT
0 STEP
1 86 190.0 -384 300.0 0 0 1 0 1 0 -1 0 0 3004.DAT
0 STEP
1 86 190.0 -408 300.0 0 0 1 0 1 0 -1 0 0 3004.DAT
0 STEP
1 86 190.0 -120 310.0 0 0 1 0 1 0 -1 0 0 3005.DAT
0 STEP
1 86 190.0 -144 310.0 0 0 1 0 1 0 -1 0 0 3005.DAT
0 STEP
1 86 200.0 -192 310.0 -1 0 0 0 1 0 0 0 -1 3004.DAT
0 STEP
1 86 190.0 -312 310.0 0 0 1 0 1 0 -1 0 0 3005.DAT
0 STEP
1 86 190.0 -192 340.0 0 0 1 0 1 0 -1 0 0 3004.DAT
0 STEP
1 86 190.0 -216 330.0 0 0 1 0 1 0 -1 0 0 3005.DAT
0 STEP
1 86 190.0 -312 340.0 0 0 1 0 1 0 -1 0 0 3004.DAT
0 STEP
1 86 190.0 -336 340.0 0 0 1 0 1 0 -1 0 0 3004.DAT
0 STEP
1 86 200.0 -144 350.0 -1 0 0 0 1 0 0 0 -1 3004.DAT
0 STEP
1 86 200.0 -240 350.0 -1 0 0 0 1 0 0 0 -1 3004.DAT
0 STEP
1 86 190.0 -288 350.0 0 0 1 0 1 0 -1 0 0 3005.DAT
0 STEP
1 86 200.0 -360 360.0 0 0 1 0 1 0 -1 0 0 3003.DAT
0 STEP
1 86 190.0 -144 370.0 0 0 1 0 1 0 -1 0 0 3005.DAT
0 STEP
1 86 190.0 -192 370.0 0 0 1 0 1 0 -1 0 0 3005.DAT
0 STEP
1 86 190.0 -216 380.0 0 0 1 0 1 0 -1 0 0 3004.DAT
0 STEP
1 86 200.0 -264 370.0 -1 0 0 0 1 0 0 0 -1 3004.DAT
0 STEP
1 86 200.0 -312 380.0 0 0 1 0 1 0 -1 0 0 3003.DAT
0 STEP
1 86 200.0 -336 370.0 -1 0 0 0 1 0 0 0 -1 3004.DAT
0 STEP
1 86 190.0 -120 400.0 0 0 1 0 1 0 -1 0 0 3004.DAT
0 STEP
1 86 190.0 -264 390.0 0 0 1 0 1 0 -1 0 0 3005.DAT
0 STEP
1 86 200.0 -288 390.0 -1 0 0 0 1 0 0 0 -1 3004.DAT
0 STEP
1 86 190.0 -336 400.0 0 0 1 0 1 0 -1 0 0 3004.DAT
0 STEP
1 86 190.0 -264 420.0 0 0 1 0 1 0 -1 0 0 3004.DAT
0 STEP
1 86 200.0 -312 410.0 -1 0 0 0 1 0 0 0 -1 3004.DAT
0 STEP
1 86 200.0 -144 440.0 0 0 1 0 1 0 -1 0 0 3003.DAT
0 STEP
1 86 190.0 -216 440.0 0 0 1 0 1 0 -1 0 0 3004.DAT
0 STEP
1 86 200.0 -240 440.0 0 0 1 0 1 0 -1 0 0 3003.DAT
0 STEP
1 86 190.0 -312 430.0 0 0 1 0 1 0 -1 0 0 3005.DAT
0 STEP
1 86 190.0 -72 500.0 0 0 1 0 1 0 -1 0 0 3004.DAT
0 STEP
1 86 190.0 -192 490.0 0 0 1 0 1 0 -1 0 0 3005.DAT
0 STEP
1 86 190.0 -120 540.0 0 0 1 0 1 0 -1 0 0 3004.DAT
0 STEP
1 86 210.0 -288 210.0 0 0 1 0 1 0 -1 0 0 3005.DAT
0 STEP
1 86 210.0 -312 210.0 0 0 1 0 1 0 -1 0 0 3005.DAT
0 STEP
1 86 210.0 -336 240.0 0 0 1 0 1 0 -1 0 0 3010.DAT
0 STEP
1 86 220.0 0 240.0 0 0 1 0 1 0 -1 0 0 3003.DAT
0 STEP
1 86 210.0 -24 230.0 0 0 1 0 1 0 -1 0 0 3005.DAT
0 STEP
1 86 220.0 -312 230.0 -1 0 0 0 1 0 0 0 -1 3004.DAT
0 STEP
1 86 210.0 -216 260.0 0 0 1 0 1 0 -1 0 0 3004.DAT
0 STEP
1 86 210.0 -240 280.0 0 0 1 0 1 0 -1 0 0 3010.DAT
0 STEP
1 86 210.0 -288 280.0 0 0 1 0 1 0 -1 0 0 3010.DAT
0 STEP
1 86 210.0 -312 250.0 0 0 1 0 1 0 -1 0 0 3005.DAT
0 STEP
1 86 210.0 0 270.0 0 0 1 0 1 0 -1 0 0 3005.DAT
0 STEP
1 86 210.0 -24 270.0 0 0 1 0 1 0 -1 0 0 3005.DAT
0 STEP
1 86 220.0 -264 280.0 0 0 1 0 1 0 -1 0 0 3003.DAT
0 STEP
1 86 220.0 -216 320.0 0 0 1 0 1 0 -1 0 0 3001.DAT
0 STEP
1 86 210.0 -360 300.0 0 0 1 0 1 0 -1 0 0 3004.DAT
0 STEP
1 86 210.0 -384 290.0 0 0 1 0 1 0 -1 0 0 3005.DAT
0 STEP
1 86 220.0 -264 310.0 -1 0 0 0 1 0 0 0 -1 3004.DAT
0 STEP
1 86 210.0 -312 320.0 0 0 1 0 1 0 -1 0 0 3004.DAT
0 STEP
1 86 210.0 -384 320.0 0 0 1 0 1 0 -1 0 0 3004.DAT
0 STEP
1 86 220.0 -192 330.0 -1 0 0 0 1 0 0 0 -1 3004.DAT
0 STEP
1 86 210.0 -240 330.0 0 0 1 0 1 0 -1 0 0 3005.DAT
0 STEP
1 86 220.0 -264 340.0 0 0 1 0 1 0 -1 0 0 3003.DAT
0 STEP
1 86 210.0 -288 330.0 0 0 1 0 1 0 -1 0 0 3005.DAT
0 STEP
1 86 220.0 -336 340.0 0 0 1 0 1 0 -1 0 0 3003.DAT
0 STEP
1 86 210.0 -360 330.0 0 0 1 0 1 0 -1 0 0 3005.DAT
0 STEP
1 86 220.0 -192 360.0 0 0 1 0 1 0 -1 0 0 3003.DAT
0 STEP
1 86 220.0 -288 350.0 -1 0 0 0 1 0 0 0 -1 3004.DAT
0 STEP
1 86 220.0 -312 350.0 -1 0 0 0 1 0 0 0 -1 3004.DAT
0 STEP
1 86 210.0 -144 380.0 0 0 1 0 1 0 -1 0 0 3004.DAT
0 STEP
1 86 220.0 -216 370.0 -1 0 0 0 1 0 0 0 -1 3004.DAT
0 STEP
1 86 210.0 -288 370.0 0 0 1 0 1 0 -1 0 0 3005.DAT
0 STEP
1 86 210.0 -216 390.0 0 0 1 0 1 0 -1 0 0 3005.DAT
0 STEP
1 86 210.0 -264 400.0 0 0 1 0 1 0 -1 0 0 3004.DAT
0 STEP
1 86 210.0 -336 390.0 0 0 1 0 1 0 -1 0 0 3005.DAT
0 STEP
1 86 210.0 -144 410.0 0 0 1 0 1 0 -1 0 0 3005.DAT
0 STEP
1 86 210.0 -192 410.0 0 0 1 0 1 0 -1 0 0 3005.DAT
0 STEP
1 86 210.0 -216 420.0 0 0 1 0 1 0 -1 0 0 3004.DAT
0 STEP
1 86 210.0 -288 420.0 0 0 1 0 1 0 -1 0 0 3004.DAT
0 STEP
1 86 210.0 -192 440.0 0 0 1 0 1 0 -1 0 0 3004.DAT
0 STEP
1 86 210.0 -264 430.0 0 0 1 0 1 0 -1 0 0 3005.DAT
0 STEP
1 86 210.0 -216 450.0 0 0 1 0 1 0 -1 0 0 3005.DAT
0 STEP
1 86 210.0 -168 470.0 0 0 1 0 1 0 -1 0 0 3005.DAT
0 STEP
1 86 240.0 0 210.0 -1 0 0 0 1 0 0 0 -1 3004.DAT
0 STEP
1 86 230.0 -24 220.0 0 0 1 0 1 0 -1 0 0 3004.DAT
0 STEP
1 86 230.0 -288 280.0 0 0 1 0 1 0 -1 0 0 3009.DAT
0 STEP
1 86 230.0 -336 260.0 0 0 1 0 1 0 -1 0 0 3010.DAT
0 STEP
1 86 230.0 -24 250.0 0 0 1 0 1 0 -1 0 0 3005.DAT
0 STEP
1 86 230.0 -264 250.0 0 0 1 0 1 0 -1 0 0 3005.DAT
0 STEP
1 86 230.0 -312 280.0 0 0 1 0 1 0 -1 0 0 3010.DAT
0 STEP
1 86 230.0 -360 250.0 0 0 1 0 1 0 -1 0 0 3005.DAT
0 STEP
1 86 230.0 -240 280.0 0 0 1 0 1 0 -1 0 0 3004.DAT
0 STEP
1 86 230.0 -360 280.0 0 0 1 0 1 0 -1 0 0 3004.DAT
0 STEP
1 86 230.0 -192 310.0 0 0 1 0 1 0 -1 0 0 3005.DAT
0 STEP
1 86 230.0 -240 310.0 0 0 1 0 1 0 -1 0 0 3005.DAT
0 STEP
1 86 230.0 -336 310.0 0 0 1 0 1 0 -1 0 0 3005.DAT
0 STEP
1 86 230.0 -240 340.0 0 0 1 0 1 0 -1 0 0 3004.DAT
0 STEP
1 86 230.0 -312 330.0 0 0 1 0 1 0 -1 0 0 3005.DAT
0 STEP
1 86 230.0 -168 380.0 0 0 1 0 1 0 -1 0 0 3010.DAT
0 STEP
1 86 230.0 -264 380.0 0 0 1 0 1 0 -1 0 0 3004.DAT
0 STEP
1 86 230.0 -288 380.0 0 0 1 0 1 0 -1 0 0 3004.DAT
0 STEP
1 86 230.0 -312 370.0 0 0 1 0 1 0 -1 0 0 3005.DAT
0 STEP
1 86 230.0 -192 400.0 0 0 1 0 1 0 -1 0 0 3004.DAT
0 STEP
1 86 230.0 -216 400.0 0 0 1 0 1 0 -1 0 0 3004.DAT
0 STEP
1 86 250.0 0 190.0 0 0 1 0 1 0 -1 0 0 3005.DAT
0 STEP
