1 86 20.0 -1128 70.0 -1 0 0 0 1 0 0 0 -1 3004.DAT
0 STEP
1 86 20.0 -1152 80.0 0 0 1 0 1 0 -1 0 0 3003.DAT
0 STEP
1 86 10.0 -1176 80.0 0 0 1 0 1 0 -1 0 0 3004.DAT
0 STEP
1 86 10.0 -1080 90.0 0 0 1 0 1 0 -1 0 0 3005.DAT
0 STEP
1 86 10.0 -1104 90.0 0 0 1 0 1 0 -1 0 0 3005.DAT
0 STEP
1 86 10.0 -1128 90.0 0 0 1 0 1 0 -1 0 0 3005.DAT
0 STEP
1 86 10.0 -1200 90.0 0 0 1 0 1 0 -1 0 0 3005.DAT
0 STEP
1 86 20.0 -1128 110.0 -1 0 0 0 1 0 0 0 -1 3004.DAT
0 STEP
1 86 20.0 -1152 110.0 -1 0 0 0 1 0 0 0 -1 3004.DAT
0 STEP
1 86 10.0 -1176 110.0 0 0 1 0 1 0 -1 0 0 3005.DAT
0 STEP
1 86 30.0 -1128 50.0 0 0 1 0 1 0 -1 0 0 3005.DAT
0 STEP
1 86 60.0 -1152 50.0 -1 0 0 0 1 0 0 0 -1 3010.DAT
0 STEP
1 86 30.0 -1176 60.0 0 0 1 0 1 0 -1 0 0 3004.DAT
0 STEP
1 86 30.0 -1032 70.0 0 0 1 0 1 0 -1 0 0 3005.DAT
0 STEP
1 86 40.0 -1056 70.0 -1 0 0 0 1 0 0 0 -1 3004.DAT
0 STEP
1 86 30.0 -1080 100.0 0 0 1 0 1 0 -1 0 0 3010.DAT
0 STEP
1 86 80.0 -1104 80.0 -1 0 0 0 1 0 0 0 -1 2456.DAT
0 STEP
1 86 40.0 -1200 70.0 -1 0 0 0 1 0 0 0 -1 3004.DAT
0 STEP
1 86 80.0 -1224 70.0 -1 0 0 0 1 0 0 0 -1 3009.DAT
0 STEP
1 86 30.0 -1248 70.0 0 0 1 0 1 0 -1 0 0 3005.DAT
0 STEP
1 86 40.0 -1008 90.0 -1 0 0 0 1 0 0 0 -1 3004.DAT
0 STEP
1 86 40.0 -1032 90.0 -1 0 0 0 1 0 0 0 -1 3004.DAT
0 STEP
1 86 30.0 -1056 100.0 0 0 1 0 1 0 -1 0 0 3004.DAT
0 STEP
1 86 60.0 -1128 90.0 -1 0 0 0 1 0 0 0 -1 3010.DAT
0 STEP
1 86 40.0 -1176 90.0 -1 0 0 0 1 0 0 0 -1 3004.DAT
0 STEP
1 86 60.0 -1200 90.0 -1 0 0 0 1 0 0 0 -1 3010.DAT
0 STEP
1 86 30.0 -1224 100.0 0 0 1 0 1 0 -1 0 0 3004.DAT
0 STEP
1 86 30.0 -1248 100.0 0 0 1 0 1 0 -1 0 0 3004.DAT
0 STEP
1 86 30.0 -1272 90.0 0 0 1 0 1 0 -1 0 0 3005.DAT
0 STEP
1 86 30.0 -1032 110.0 0 0 1 0 1 0 -1 0 0 3005.DAT
0 STEP
1 86 30.0 -1104 120.0 0 0 1 0 1 0 -1 0 0 3004.DAT
0 STEP
1 86 30.0 -1176 120.0 0 0 1 0 1 0 -1 0 0 3004.DAT
0 STEP
1 86 30.0 -1200 120.0 0 0 1 0 1 0 -1 0 0 3004.DAT
0 STEP
1 86 40.0 -1128 130.0 -1 0 0 0 1 0 0 0 -1 3004.DAT
0 STEP
1 86 60.0 -1152 130.0 -1 0 0 0 1 0 0 0 -1 3010.DAT
0 STEP
1 86 50.0 -1032 60.0 0 0 1 0 1 0 -1 0 0 3004.DAT
0 STEP
1 86 60.0 -1056 50.0 -1 0 0 0 1 0 0 0 -1 3004.DAT
0 STEP
1 86 50.0 -1080 60.0 0 0 1 0 1 0 -1 0 0 3004.DAT
0 STEP
1 86 100.0 -1104 50.0 -1 0 0 0 1 0 0 0 -1 3009.DAT
0 STEP
1 86 80.0 -1128 60.0 -1 0 0 0 1 0 0 0 -1 3001.DAT
0 STEP
1 86 60.0 -1176 50.0 -1 0 0 0 1 0 0 0 -1 3004.DAT
0 STEP
1 86 50.0 -1200 50.0 0 0 1 0 1 0 -1 0 0 3005.DAT
0 STEP
1 86 80.0 -1224 50.0 -1 0 0 0 1 0 0 0 -1 3010.DAT
0 STEP
1 86 50.0 -1248 80.0 0 0 1 0 1 0 -1 0 0 3010.DAT
0 STEP
1 86 60.0 -960 70.0 -1 0 0 0 1 0 0 0 -1 3004.DAT
0 STEP
1 86 60.0 -984 80.0 0 0 1 0 1 0 -1 0 0 3003.DAT
0 STEP
1 86 60.0 -1008 70.0 -1 0 0 0 1 0 0 0 -1 3004.DAT
0 STEP
1 86 50.0 -1152 80.0 0 0 1 0 1 0 -1 0 0 3004.DAT
0 STEP
1 86 80.0 -1176 70.0 -1 0 0 0 1 0 0 0 -1 3010.DAT
0 STEP
1 86 60.0 -1272 80.0 0 0 1 0 1 0 -1 0 0 3003.DAT
0 STEP
1 86 60.0 -1296 70.0 -1 0 0 0 1 0 0 0 -1 3004.DAT
0 STEP
1 86 60.0 -960 100.0 0 0 1 0 1 0 -1 0 0 3003.DAT
0 STEP
1 86 60.0 -1056 100.0 0 0 1 0 1 0 -1 0 0 3003.DAT
0 STEP
1 86 50.0 -1080 90.0 0 0 1 0 1 0 -1 0 0 3005.DAT
0 STEP
1 86 50.0 -1224 90.0 0 0 1 0 1 0 -1 0 0 3005.DAT
0 STEP
1 86 60.0 -1296 100.0 0 0 1 0 1 0 -1 0 0 3003.DAT
0 STEP
1 86 50.0 -1320 90.0 0 0 1 0 1 0 -1 0 0 3005.DAT
0 STEP
1 86 60.0 -984 110.0 -1 0 0 0 1 0 0 0 -1 3004.DAT
0 STEP
1 86 50.0 -1008 110.0 0 0 1 0 1 0 -1 0 0 3005.DAT
0 STEP
1 86 60.0 -1032 120.0 0 0 1 0 1 0 -1 0 0 3003.DAT
0 STEP
1 86 50.0 -1080 120.0 0 0 1 0 1 0 -1 0 0 3004.DAT
0 STEP
1 86 50.0 -1104 110.0 0 0 1 0 1 0 -1 0 0 3005.DAT
0 STEP
1 86 50.0 -1128 110.0 0 0 1 0 1 0 -1 0 0 3005.DAT
0 STEP
1 86 50.0 -1152 110.0 0 0 1 0 1 0 -1 0 0 3005.DAT
0 STEP
1 86 50.0 -1176 110.0 0 0 1 0 1 0 -1 0 0 3005.DAT
0 STEP
1 86 60.0 -1200 120.0 0 0 1 0 1 0 -1 0 0 3003.DAT
0 STEP
1 86 60.0 -1224 110.0 -1 0 0 0 1 0 0 0 -1 3004.DAT
0 STEP
1 86 50.0 -1272 120.0 0 0 1 0 1 0 -1 0 0 3004.DAT
0 STEP
1 86 60.0 -1008 130.0 -1 0 0 0 1 0 0 0 -1 3004.DAT
0 STEP
1 86 60.0 -1056 130.0 -1 0 0 0 1 0 0 0 -1 3004.DAT
0 STEP
1 86 80.0 -1104 130.0 -1 0 0 0 1 0 0 0 -1 3010.DAT
0 STEP
1 86 60.0 -1176 130.0 -1 0 0 0 1 0 0 0 -1 3004.DAT
0 STEP
1 86 50.0 -1224 130.0 0 0 1 0 1 0 -1 0 0 3005.DAT
0 STEP
1 86 50.0 -1248 130.0 0 0 1 0 1 0 -1 0 0 3005.DAT
0 STEP
1 86 100.0 -984 50.0 -1 0 0 0 1 0 0 0 -1 3010.DAT
0 STEP
1 86 70.0 -1008 50.0 0 0 1 0 1 0 -1 0 0 3005.DAT
0 STEP
1 86 100.0 -1032 50.0 -1 0 0 0 1 0 0 0 -1 3010.DAT
0 STEP
1 86 70.0 -1080 80.0 0 0 1 0 1 0 -1 0 0 3010.DAT
0 STEP
1 86 100.0 -1200 50.0 -1 0 0 0 1 0 0 0 -1 3010.DAT
0 STEP
1 86 80.0 -1248 50.0 -1 0 0 0 1 0 0 0 -1 3004.DAT
0 STEP
1 86 80.0 -1272 50.0 -1 0 0 0 1 0 0 0 -1 3004.DAT
0 STEP
1 86 70.0 -936 70.0 0 0 1 0 1 0 -1 0 0 3005.DAT
0 STEP
1 86 70.0 -1032 80.0 0 0 1 0 1 0 -1 0 0 3004.DAT
0 STEP
1 86 70.0 -1056 70.0 0 0 1 0 1 0 -1 0 0 3005.DAT
0 STEP
1 86 70.0 -1152 70.0 0 0 1 0 1 0 -1 0 0 3005.DAT
0 STEP
1 86 70.0 -1200 70.0 0 0 1 0 1 0 -1 0 0 3005.DAT
0 STEP
1 86 70.0 -1248 100.0 0 0 1 0 1 0 -1 0 0 3010.DAT
0 STEP
1 86 70.0 -1320 80.0 0 0 1 0 1 0 -1 0 0 3004.DAT
0 STEP
1 86 80.0 -936 90.0 -1 0 0 0 1 0 0 0 -1 3004.DAT
0 STEP
1 86 80.0 -1008 100.0 0 0 1 0 1 0 -1 0 0 3003.DAT
0 STEP
1 86 80.0 -1152 100.0 0 0 1 0 1 0 -1 0 0 3003.DAT
0 STEP
1 86 70.0 -1176 100.0 0 0 1 0 1 0 -1 0 0 3004.DAT
0 STEP
1 86 100.0 -1224 90.0 -1 0 0 0 1 0 0 0 -1 3010.DAT
0 STEP
1 86 70.0 -1344 90.0 0 0 1 0 1 0 -1 0 0 3005.DAT
0 STEP
1 86 70.0 -936 110.0 0 0 1 0 1 0 -1 0 0 3005.DAT
0 STEP
1 86 100.0 -1104 110.0 -1 0 0 0 1 0 0 0 -1 3010.DAT
0 STEP
1 86 80.0 -1128 120.0 0 0 1 0 1 0 -1 0 0 3003.DAT
0 STEP
1 86 80.0 -1272 120.0 0 0 1 0 1 0 -1 0 0 3003.DAT
0 STEP
1 86 70.0 -1320 110.0 0 0 1 0 1 0 -1 0 0 3005.DAT
0 STEP
1 86 80.0 -1344 110.0 -1 0 0 0 1 0 0 0 -1 3004.DAT
0 STEP
1 86 70.0 -960 130.0 0 0 1 0 1 0 -1 0 0 3005.DAT
0 STEP
1 86 80.0 -984 130.0 -1 0 0 0 1 0 0 0 -1 3004.DAT
0 STEP
1 86 80.0 -1080 130.0 -1 0 0 0 1 0 0 0 -1 3004.DAT
0 STEP
1 86 80.0 -1224 130.0 -1 0 0 0 1 0 0 0 -1 3004.DAT
0 STEP
1 86 80.0 -1296 130.0 -1 0 0 0 1 0 0 0 -1 3004.DAT
0 STEP
1 86 90.0 -960 60.0 0 0 1 0 1 0 -1 0 0 3004.DAT
0 STEP
1 86 120.0 -1008 60.0 -1 0 0 0 1 0 0 0 -1 3001.DAT
0 STEP
1 86 100.0 -1056 60.0 0 0 1 0 1 0 -1 0 0 3003.DAT
0 STEP
1 86 120.0 -1080 50.0 -1 0 0 0 1 0 0 0 -1 3010.DAT
0 STEP
1 86 90.0 -1176 50.0 0 0 1 0 1 0 -1 0 0 3005.DAT
0 STEP
1 86 120.0 -1296 50.0 -1 0 0 0 1 0 0 0 -1 3010.DAT
0 STEP
1 86 90.0 -1320 80.0 0 0 1 0 1 0 -1 0 0 3010.DAT
0 STEP
1 86 100.0 -936 70.0 -1 0 0 0 1 0 0 0 -1 3004.DAT
0 STEP
1 86 100.0 -984 70.0 -1 0 0 0 1 0 0 0 -1 3004.DAT
0 STEP
1 86 120.0 -1032 70.0 -1 0 0 0 1 0 0 0 -1 3010.DAT
0 STEP
1 86 90.0 -1080 80.0 0 0 1 0 1 0 -1 0 0 3004.DAT
0 STEP
1 86 100.0 -1152 70.0 -1 0 0 0 1 0 0 0 -1 3004.DAT
0 STEP
1 86 120.0 -1200 70.0 -1 0 0 0 1 0 0 0 -1 3010.DAT
0 STEP
1 86 90.0 -1248 70.0 0 0 1 0 1 0 -1 0 0 3005.DAT
0 STEP
1 86 90.0 -1272 80.0 0 0 1 0 1 0 -1 0 0 3004.DAT
0 STEP
1 86 90.0 -1296 80.0 0 0 1 0 1 0 -1 0 0 3004.DAT
0 STEP
1 86 90.0 -1344 80.0 0 0 1 0 1 0 -1 0 0 3004.DAT
0 STEP
1 86 90.0 -1368 80.0 0 0 1 0 1 0 -1 0 0 3004.DAT
0 STEP
1 86 90.0 -960 90.0 0 0 1 0 1 0 -1 0 0 3005.DAT
0 STEP
1 86 90.0 -984 100.0 0 0 1 0 1 0 -1 0 0 3004.DAT
0 STEP
1 86 100.0 -1032 100.0 0 0 1 0 1 0 -1 0 0 3003.DAT
0 STEP
1 86 90.0 -1056 100.0 0 0 1 0 1 0 -1 0 0 3004.DAT
0 STEP
1 86 100.0 -1176 90.0 -1 0 0 0 1 0 0 0 -1 3004.DAT
0 STEP
1 86 100.0 -1248 90.0 -1 0 0 0 1 0 0 0 -1 3004.DAT
0 STEP
1 86 90.0 -936 120.0 0 0 1 0 1 0 -1 0 0 3004.DAT
0 STEP
1 86 100.0 -960 120.0 0 0 1 0 1 0 -1 0 0 3003.DAT
0 STEP
1 86 90.0 -1080 110.0 0 0 1 0 1 0 -1 0 0 3005.DAT
0 STEP
1 86 100.0 -1176 120.0 0 0 1 0 1 0 -1 0 0 3003.DAT
0 STEP
1 86 90.0 -1200 120.0 0 0 1 0 1 0 -1 0 0 3004.DAT
0 STEP
1 86 90.0 -1224 110.0 0 0 1 0 1 0 -1 0 0 3005.DAT
0 STEP
1 86 90.0 -1248 110.0 0 0 1 0 1 0 -1 0 0 3005.DAT
0 STEP
1 86 90.0 -1296 110.0 0 0 1 0 1 0 -1 0 0 3005.DAT
0 STEP
1 86 160.0 -1368 110.0 -1 0 0 0 1 0 0 0 -1 3008.DAT
0 STEP
1 86 90.0 -1008 130.0 0 0 1 0 1 0 -1 0 0 3005.DAT
0 STEP
1 86 100.0 -1032 130.0 -1 0 0 0 1 0 0 0 -1 3004.DAT
0 STEP
1 86 90.0 -1056 130.0 0 0 1 0 1 0 -1 0 0 3005.DAT
0 STEP
1 86 120.0 -1248 130.0 -1 0 0 0 1 0 0 0 -1 3010.DAT
0 STEP
1 86 100.0 -1320 130.0 -1 0 0 0 1 0 0 0 -1 3004.DAT
0 STEP
1 86 100.0 -1344 130.0 -1 0 0 0 1 0 0 0 -1 3004.DAT
0 STEP
1 86 110.0 -936 50.0 0 0 1 0 1 0 -1 0 0 3005.DAT
0 STEP
1 86 180.0 -960 50.0 -1 0 0 0 1 0 0 0 -1 3008.DAT
0 STEP
1 86 110.0 -1152 50.0 0 0 1 0 1 0 -1 0 0 3005.DAT
0 STEP
1 86 120.0 -1176 50.0 -1 0 0 0 1 0 0 0 -1 3004.DAT
0 STEP
1 86 110.0 -1248 60.0 0 0 1 0 1 0 -1 0 0 3004.DAT
0 STEP
1 86 110.0 -1272 50.0 0 0 1 0 1 0 -1 0 0 3005.DAT
0 STEP
1 86 140.0 -1320 50.0 -1 0 0 0 1 0 0 0 -1 3010.DAT
0 STEP
1 86 110.0 -1344 60.0 0 0 1 0 1 0 -1 0 0 3004.DAT
0 STEP
1 86 110.0 -912 80.0 0 0 1 0 1 0 -1 0 0 3004.DAT
0 STEP
1 86 140.0 -960 80.0 -1 0 0 0 1 0 0 0 -1 3001.DAT
0 STEP
1 86 110.0 -1080 70.0 0 0 1 0 1 0 -1 0 0 3005.DAT
0 STEP
1 86 120.0 -1272 80.0 0 0 1 0 1 0 -1 0 0 3003.DAT
0 STEP
1 86 110.0 -1296 100.0 0 0 1 0 1 0 -1 0 0 3010.DAT
0 STEP
1 86 140.0 -1320 80.0 -1 0 0 0 1 0 0 0 -1 3001.DAT
0 STEP
1 86 160.0 -1368 80.0 -1 0 0 0 1 0 0 0 -1 2456.DAT
0 STEP
1 86 110.0 -936 100.0 0 0 1 0 1 0 -1 0 0 3004.DAT
0 STEP
1 86 110.0 -984 90.0 0 0 1 0 1 0 -1 0 0 3005.DAT
0 STEP
1 86 120.0 -1008 90.0 -1 0 0 0 1 0 0 0 -1 3004.DAT
0 STEP
1 86 110.0 -1056 90.0 0 0 1 0 1 0 -1 0 0 3005.DAT
0 STEP
1 86 120.0 -1080 90.0 -1 0 0 0 1 0 0 0 -1 3004.DAT
0 STEP
1 86 120.0 -1128 100.0 0 0 1 0 1 0 -1 0 0 3003.DAT
0 STEP
1 86 110.0 -1152 90.0 0 0 1 0 1 0 -1 0 0 3005.DAT
0 STEP
1 86 110.0 -1200 100.0 0 0 1 0 1 0 -1 0 0 3004.DAT
0 STEP
1 86 140.0 -1344 90.0 -1 0 0 0 1 0 0 0 -1 3010.DAT
0 STEP
1 86 120.0 -912 120.0 0 0 1 0 1 0 -1 0 0 3003.DAT
0 STEP
1 86 110.0 -984 120.0 0 0 1 0 1 0 -1 0 0 3004.DAT
0 STEP
1 86 120.0 -1008 120.0 0 0 1 0 1 0 -1 0 0 3003.DAT
0 STEP
1 86 110.0 -1056 120.0 0 0 1 0 1 0 -1 0 0 3004.DAT
0 STEP
1 86 110.0 -1080 120.0 0 0 1 0 1 0 -1 0 0 3004.DAT
0 STEP
1 86 110.0 -1152 120.0 0 0 1 0 1 0 -1 0 0 3004.DAT
0 STEP
1 86 120.0 -1224 120.0 0 0 1 0 1 0 -1 0 0 3003.DAT
0 STEP
1 86 120.0 -1248 110.0 -1 0 0 0 1 0 0 0 -1 3004.DAT
0 STEP
1 86 110.0 -1272 120.0 0 0 1 0 1 0 -1 0 0 3004.DAT
0 STEP
1 86 110.0 -1320 110.0 0 0 1 0 1 0 -1 0 0 3005.DAT
0 STEP
1 86 110.0 -1344 110.0 0 0 1 0 1 0 -1 0 0 3005.DAT
0 STEP
1 86 110.0 -936 130.0 0 0 1 0 1 0 -1 0 0 3005.DAT
0 STEP
1 86 120.0 -1128 130.0 -1 0 0 0 1 0 0 0 -1 3004.DAT
0 STEP
1 86 120.0 -1200 130.0 -1 0 0 0 1 0 0 0 -1 3004.DAT
0 STEP
1 86 160.0 -912 60.0 -1 0 0 0 1 0 0 0 -1 3001.DAT
0 STEP
1 86 160.0 -936 50.0 -1 0 0 0 1 0 0 0 -1 3010.DAT
0 STEP
1 86 130.0 -1056 60.0 0 0 1 0 1 0 -1 0 0 3004.DAT
0 STEP
1 86 130.0 -1128 50.0 0 0 1 0 1 0 -1 0 0 3005.DAT
0 STEP
1 86 130.0 -1152 80.0 0 0 1 0 1 0 -1 0 0 3010.DAT
0 STEP
1 86 130.0 -1224 50.0 0 0 1 0 1 0 -1 0 0 3005.DAT
0 STEP
1 86 140.0 -1248 50.0 -1 0 0 0 1 0 0 0 -1 3004.DAT
0 STEP
1 86 140.0 -1272 50.0 -1 0 0 0 1 0 0 0 -1 3004.DAT
0 STEP
1 86 160.0 -1344 60.0 -1 0 0 0 1 0 0 0 -1 3001.DAT
0 STEP
1 86 160.0 -888 80.0 -1 0 0 0 1 0 0 0 -1 3001.DAT
0 STEP
1 86 130.0 -936 100.0 0 0 1 0 1 0 -1 0 0 3010.DAT
0 STEP
1 86 130.0 -984 70.0 0 0 1 0 1 0 -1 0 0 3005.DAT
0 STEP
1 86 140.0 -1080 70.0 -1 0 0 0 1 0 0 0 -1 3004.DAT
0 STEP
1 86 140.0 -1128 70.0 -1 0 0 0 1 0 0 0 -1 3004.DAT
0 STEP
1 86 130.0 -1176 100.0 0 0 1 0 1 0 -1 0 0 3010.DAT
0 STEP
1 86 140.0 -1248 80.0 0 0 1 0 1 0 -1 0 0 3003.DAT
0 STEP
1 86 130.0 -1296 80.0 0 0 1 0 1 0 -1 0 0 3004.DAT
0 STEP
1 86 130.0 -1392 80.0 0 0 1 0 1 0 -1 0 0 3004.DAT
0 STEP
1 86 140.0 -912 90.0 -1 0 0 0 1 0 0 0 -1 3004.DAT
0 STEP
1 86 160.0 -984 100.0 -1 0 0 0 1 0 0 0 -1 3001.DAT
0 STEP
1 86 130.0 -1032 90.0 0 0 1 0 1 0 -1 0 0 3005.DAT
0 STEP
1 86 140.0 -1056 100.0 0 0 1 0 1 0 -1 0 0 3003.DAT
0 STEP
1 86 140.0 -1200 100.0 0 0 1 0 1 0 -1 0 0 3003.DAT
0 STEP
1 86 140.0 -888 110.0 -1 0 0 0 1 0 0 0 -1 3004.DAT
0 STEP
1 86 140.0 -960 110.0 -1 0 0 0 1 0 0 0 -1 3004.DAT
0 STEP
1 86 140.0 -1032 120.0 0 0 1 0 1 0 -1 0 0 3003.DAT
0 STEP
1 86 140.0 -1080 120.0 0 0 1 0 1 0 -1 0 0 3003.DAT
0 STEP
1 86 140.0 -1272 120.0 0 0 1 0 1 0 -1 0 0 3003.DAT
0 STEP
1 86 140.0 -1296 120.0 0 0 1 0 1 0 -1 0 0 3003.DAT
0 STEP
1 86 140.0 -1320 120.0 0 0 1 0 1 0 -1 0 0 3003.DAT
0 STEP
1 86 130.0 -1344 120.0 0 0 1 0 1 0 -1 0 0 3004.DAT
0 STEP
1 86 130.0 -1392 110.0 0 0 1 0 1 0 -1 0 0 3005.DAT
0 STEP
1 86 130.0 -960 130.0 0 0 1 0 1 0 -1 0 0 3005.DAT
0 STEP
1 86 160.0 -984 130.0 -1 0 0 0 1 0 0 0 -1 3010.DAT
0 STEP
1 86 140.0 -1056 130.0 -1 0 0 0 1 0 0 0 -1 3004.DAT
0 STEP
1 86 130.0 -1104 130.0 0 0 1 0 1 0 -1 0 0 3005.DAT
0 STEP
1 86 130.0 -1152 130.0 0 0 1 0 1 0 -1 0 0 3005.DAT
0 STEP
1 86 180.0 -1368 130.0 -1 0 0 0 1 0 0 0 -1 3009.DAT
0 STEP
1 86 160.0 -888 50.0 -1 0 0 0 1 0 0 0 -1 3004.DAT
0 STEP
1 86 150.0 -984 60.0 0 0 1 0 1 0 -1 0 0 3004.DAT
0 STEP
1 86 150.0 -1032 50.0 0 0 1 0 1 0 -1 0 0 3005.DAT
0 STEP
1 86 160.0 -1056 60.0 0 0 1 0 1 0 -1 0 0 3003.DAT
0 STEP
1 86 150.0 -1200 50.0 0 0 1 0 1 0 -1 0 0 3005.DAT
0 STEP
1 86 150.0 -1224 80.0 0 0 1 0 1 0 -1 0 0 3010.DAT
0 STEP
1 86 150.0 -864 70.0 0 0 1 0 1 0 -1 0 0 3005.DAT
0 STEP
1 86 150.0 -936 70.0 0 0 1 0 1 0 -1 0 0 3005.DAT
0 STEP
1 86 150.0 -1104 100.0 0 0 1 0 1 0 -1 0 0 3010.DAT
0 STEP
1 86 150.0 -1152 80.0 0 0 1 0 1 0 -1 0 0 3004.DAT
0 STEP
1 86 150.0 -1176 80.0 0 0 1 0 1 0 -1 0 0 3004.DAT
0 STEP
1 86 150.0 -1272 80.0 0 0 1 0 1 0 -1 0 0 3004.DAT
0 STEP
1 86 160.0 -1296 80.0 0 0 1 0 1 0 -1 0 0 3003.DAT
0 STEP
1 86 180.0 -1392 70.0 -1 0 0 0 1 0 0 0 -1 3010.DAT
0 STEP
1 86 150.0 -864 100.0 0 0 1 0 1 0 -1 0 0 3004.DAT
0 STEP
1 86 150.0 -936 100.0 0 0 1 0 1 0 -1 0 0 3004.DAT
0 STEP
1 86 150.0 -1008 90.0 0 0 1 0 1 0 -1 0 0 3005.DAT
0 STEP
1 86 160.0 -1032 90.0 -1 0 0 0 1 0 0 0 -1 3004.DAT
0 STEP
1 86 150.0 -1080 90.0 0 0 1 0 1 0 -1 0 0 3005.DAT
0 STEP
1 86 150.0 -1128 100.0 0 0 1 0 1 0 -1 0 0 3004.DAT
0 STEP
1 86 180.0 -1392 100.0 -1 0 0 0 1 0 0 0 -1 3001.DAT
0 STEP
1 86 160.0 -912 110.0 -1 0 0 0 1 0 0 0 -1 3004.DAT
0 STEP
1 86 160.0 -1008 110.0 -1 0 0 0 1 0 0 0 -1 3004.DAT
0 STEP
1 86 150.0 -1152 110.0 0 0 1 0 1 0 -1 0 0 3005.DAT
0 STEP
1 86 150.0 -1176 110.0 0 0 1 0 1 0 -1 0 0 3005.DAT
0 STEP
1 86 150.0 -1248 110.0 0 0 1 0 1 0 -1 0 0 3005.DAT
0 STEP
1 86 160.0 -1344 120.0 0 0 1 0 1 0 -1 0 0 3003.DAT
0 STEP
1 86 160.0 -888 130.0 -1 0 0 0 1 0 0 0 -1 3004.DAT
0 STEP
1 86 150.0 -912 130.0 0 0 1 0 1 0 -1 0 0 3005.DAT
0 STEP
1 86 160.0 -936 130.0 -1 0 0 0 1 0 0 0 -1 3004.DAT
0 STEP
1 86 160.0 -960 130.0 -1 0 0 0 1 0 0 0 -1 3004.DAT
0 STEP
1 86 150.0 -1008 130.0 0 0 1 0 1 0 -1 0 0 3005.DAT
0 STEP
1 86 150.0 -1200 130.0 0 0 1 0 1 0 -1 0 0 3005.DAT
0 STEP
1 86 150.0 -1224 130.0 0 0 1 0 1 0 -1 0 0 3005.DAT
0 STEP
1 86 170.0 -984 50.0 0 0 1 0 1 0 -1 0 0 3005.DAT
0 STEP
1 86 170.0 -1008 50.0 0 0 1 0 1 0 -1 0 0 3005.DAT
0 STEP
1 86 170.0 -1032 60.0 0 0 1 0 1 0 -1 0 0 3004.DAT
0 STEP
1 86 170.0 -864 100.0 0 0 1 0 1 0 -1 0 0 3010.DAT
0 STEP
1 86 170.0 -936 80.0 0 0 1 0 1 0 -1 0 0 3004.DAT
0 STEP
1 86 180.0 -984 70.0 -1 0 0 0 1 0 0 0 -1 3004.DAT
0 STEP
1 86 170.0 -1008 80.0 0 0 1 0 1 0 -1 0 0 3004.DAT
0 STEP
1 86 170.0 -912 90.0 0 0 1 0 1 0 -1 0 0 3005.DAT
0 STEP
1 86 170.0 -1056 90.0 0 0 1 0 1 0 -1 0 0 3005.DAT
0 STEP
1 86 170.0 -1416 90.0 0 0 1 0 1 0 -1 0 0 3005.DAT
0 STEP
1 86 170.0 -888 110.0 0 0 1 0 1 0 -1 0 0 3005.DAT
0 STEP
1 86 180.0 -936 110.0 -1 0 0 0 1 0 0 0 -1 3004.DAT
0 STEP
1 86 170.0 -960 110.0 0 0 1 0 1 0 -1 0 0 3005.DAT
0 STEP
1 86 170.0 -1032 120.0 0 0 1 0 1 0 -1 0 0 3004.DAT
0 STEP
1 86 170.0 -1056 120.0 0 0 1 0 1 0 -1 0 0 3004.DAT
0 STEP
1 86 170.0 -1296 120.0 0 0 1 0 1 0 -1 0 0 3004.DAT
0 STEP
1 86 170.0 -1320 120.0 0 0 1 0 1 0 -1 0 0 3004.DAT
0 STEP
1 86 180.0 -912 130.0 -1 0 0 0 1 0 0 0 -1 3004.DAT
0 STEP
1 86 180.0 -1008 130.0 -1 0 0 0 1 0 0 0 -1 3004.DAT
0 STEP
1 86 190.0 -864 80.0 0 0 1 0 1 0 -1 0 0 3010.DAT
0 STEP
1 86 190.0 -888 50.0 0 0 1 0 1 0 -1 0 0 3005.DAT
0 STEP
1 86 200.0 -984 50.0 -1 0 0 0 1 0 0 0 -1 3004.DAT
0 STEP
1 86 200.0 -1008 80.0 0 0 1 0 1 0 -1 0 0 3001.DAT
0 STEP
1 86 190.0 -1032 50.0 0 0 1 0 1 0 -1 0 0 3005.DAT
0 STEP
1 86 190.0 -1320 80.0 0 0 1 0 1 0 -1 0 0 3010.DAT
0 STEP
1 86 200.0 -936 70.0 -1 0 0 0 1 0 0 0 -1 3004.DAT
0 STEP
1 86 200.0 -960 100.0 0 0 1 0 1 0 -1 0 0 3001.DAT
0 STEP
1 86 190.0 -1032 100.0 0 0 1 0 1 0 -1 0 0 3010.DAT
0 STEP
1 86 220.0 -912 90.0 -1 0 0 0 1 0 0 0 -1 3010.DAT
0 STEP
1 86 190.0 -936 90.0 0 0 1 0 1 0 -1 0 0 3005.DAT
0 STEP
1 86 200.0 -1344 100.0 0 0 1 0 1 0 -1 0 0 3003.DAT
0 STEP
1 86 200.0 -1416 90.0 -1 0 0 0 1 0 0 0 -1 3004.DAT
0 STEP
1 86 190.0 -888 120.0 0 0 1 0 1 0 -1 0 0 3004.DAT
0 STEP
1 86 190.0 -912 110.0 0 0 1 0 1 0 -1 0 0 3005.DAT
0 STEP
1 86 190.0 -1416 110.0 0 0 1 0 1 0 -1 0 0 3005.DAT
0 STEP
1 86 200.0 -864 130.0 -1 0 0 0 1 0 0 0 -1 3004.DAT
0 STEP
1 86 190.0 -936 130.0 0 0 1 0 1 0 -1 0 0 3005.DAT
0 STEP
1 86 190.0 -1320 130.0 0 0 1 0 1 0 -1 0 0 3005.DAT
0 STEP
1 86 190.0 -1344 130.0 0 0 1 0 1 0 -1 0 0 3005.DAT
0 STEP
1 86 200.0 -1392 130.0 -1 0 0 0 1 0 0 0 -1 3004.DAT
0 STEP
1 86 220.0 -144 60.0 0 0 1 0 1 0 -1 0 0 3003.DAT
0 STEP
1 86 210.0 -168 60.0 0 0 1 0 1 0 -1 0 0 3004.DAT
0 STEP
1 86 210.0 -744 60.0 0 0 1 0 1 0 -1 0 0 3004.DAT
0 STEP
1 86 220.0 -768 50.0 -1 0 0 0 1 0 0 0 -1 3004.DAT
0 STEP
1 86 220.0 -792 50.0 -1 0 0 0 1 0 0 0 -1 3004.DAT
0 STEP
1 86 210.0 -816 60.0 0 0 1 0 1 0 -1 0 0 3004.DAT
0 STEP
1 86 220.0 -864 50.0 -1 0 0 0 1 0 0 0 -1 3004.DAT
0 STEP
1 86 220.0 -888 60.0 0 0 1 0 1 0 -1 0 0 3003.DAT
0 STEP
1 86 240.0 -912 50.0 -1 0 0 0 1 0 0 0 -1 3010.DAT
0 STEP
1 86 210.0 -936 50.0 0 0 1 0 1 0 -1 0 0 3005.DAT
0 STEP
1 86 210.0 -72 70.0 0 0 1 0 1 0 -1 0 0 3005.DAT
0 STEP
1 86 210.0 -96 70.0 0 0 1 0 1 0 -1 0 0 3005.DAT
0 STEP
1 86 260.0 -120 70.0 -1 0 0 0 1 0 0 0 -1 3009.DAT
0 STEP
1 86 210.0 -192 70.0 0 0 1 0 1 0 -1 0 0 3005.DAT
0 STEP
1 86 220.0 -216 70.0 -1 0 0 0 1 0 0 0 -1 3004.DAT
0 STEP
1 86 210.0 -696 80.0 0 0 1 0 1 0 -1 0 0 3004.DAT
0 STEP
1 86 220.0 -720 70.0 -1 0 0 0 1 0 0 0 -1 3004.DAT
0 STEP
1 86 220.0 -768 100.0 0 0 1 0 1 0 -1 0 0 3001.DAT
0 STEP
1 86 210.0 -792 100.0 0 0 1 0 1 0 -1 0 0 3010.DAT
0 STEP
1 86 220.0 -840 80.0 0 0 1 0 1 0 -1 0 0 3003.DAT
0 STEP
1 86 210.0 -864 70.0 0 0 1 0 1 0 -1 0 0 3005.DAT
0 STEP
1 86 210.0 -912 70.0 0 0 1 0 1 0 -1 0 0 3005.DAT
0 STEP
1 86 220.0 -984 80.0 0 0 1 0 1 0 -1 0 0 3003.DAT
0 STEP
1 86 210.0 -1344 70.0 0 0 1 0 1 0 -1 0 0 3005.DAT
0 STEP
1 86 210.0 -1416 70.0 0 0 1 0 1 0 -1 0 0 3005.DAT
0 STEP
1 86 210.0 -72 100.0 0 0 1 0 1 0 -1 0 0 3004.DAT
0 STEP
1 86 220.0 -96 90.0 -1 0 0 0 1 0 0 0 -1 3004.DAT
0 STEP
1 86 210.0 -120 100.0 0 0 1 0 1 0 -1 0 0 3004.DAT
0 STEP
1 86 210.0 -144 100.0 0 0 1 0 1 0 -1 0 0 3004.DAT
0 STEP
1 86 210.0 -168 90.0 0 0 1 0 1 0 -1 0 0 3005.DAT
0 STEP
1 86 260.0 -192 90.0 -1 0 0 0 1 0 0 0 -1 3009.DAT
0 STEP
1 86 240.0 -216 90.0 -1 0 0 0 1 0 0 0 -1 3010.DAT
0 STEP
1 86 210.0 -240 100.0 0 0 1 0 1 0 -1 0 0 3004.DAT
0 STEP
1 86 210.0 -264 90.0 0 0 1 0 1 0 -1 0 0 3005.DAT
0 STEP
1 86 240.0 -720 100.0 -1 0 0 0 1 0 0 0 -1 3001.DAT
0 STEP
1 86 210.0 -744 90.0 0 0 1 0 1 0 -1 0 0 3005.DAT
0 STEP
1 86 210.0 -816 90.0 0 0 1 0 1 0 -1 0 0 3005.DAT
0 STEP
1 86 220.0 -864 100.0 0 0 1 0 1 0 -1 0 0 3003.DAT
0 STEP
1 86 210.0 -888 100.0 0 0 1 0 1 0 -1 0 0 3004.DAT
0 STEP
1 86 220.0 -936 90.0 -1 0 0 0 1 0 0 0 -1 3004.DAT
0 STEP
1 86 210.0 -96 110.0 0 0 1 0 1 0 -1 0 0 3005.DAT
0 STEP
1 86 210.0 -168 120.0 0 0 1 0 1 0 -1 0 0 3004.DAT
0 STEP
1 86 210.0 -192 110.0 0 0 1 0 1 0 -1 0 0 3005.DAT
0 STEP
1 86 210.0 -216 110.0 0 0 1 0 1 0 -1 0 0 3005.DAT
0 STEP
1 86 220.0 -744 110.0 -1 0 0 0 1 0 0 0 -1 3004.DAT
0 STEP
1 86 210.0 -816 120.0 0 0 1 0 1 0 -1 0 0 3004.DAT
0 STEP
1 86 220.0 -840 110.0 -1 0 0 0 1 0 0 0 -1 3004.DAT
0 STEP
1 86 220.0 -912 110.0 -1 0 0 0 1 0 0 0 -1 3004.DAT
0 STEP
1 86 210.0 -936 120.0 0 0 1 0 1 0 -1 0 0 3004.DAT
0 STEP
1 86 210.0 -984 120.0 0 0 1 0 1 0 -1 0 0 3004.DAT
0 STEP
1 86 260.0 -1416 110.0 -1 0 0 0 1 0 0 0 -1 3009.DAT
0 STEP
1 86 220.0 -120 130.0 -1 0 0 0 1 0 0 0 -1 3004.DAT
0 STEP
1 86 210.0 -144 130.0 0 0 1 0 1 0 -1 0 0 3005.DAT
0 STEP
1 86 210.0 -744 130.0 0 0 1 0 1 0 -1 0 0 3005.DAT
0 STEP
1 86 220.0 -888 130.0 -1 0 0 0 1 0 0 0 -1 3004.DAT
0 STEP
1 86 210.0 -912 130.0 0 0 1 0 1 0 -1 0 0 3005.DAT
0 STEP
1 86 210.0 -1008 130.0 0 0 1 0 1 0 -1 0 0 3005.DAT
0 STEP
1 86 230.0 -144 30.0 0 0 1 0 1 0 -1 0 0 3005.DAT
0 STEP
1 86 240.0 -168 40.0 0 0 1 0 1 0 -1 0 0 3003.DAT
0 STEP
1 86 240.0 -744 30.0 -1 0 0 0 1 0 0 0 -1 3004.DAT
0 STEP
1 86 240.0 -768 30.0 -1 0 0 0 1 0 0 0 -1 3004.DAT
0 STEP
1 86 230.0 -48 50.0 0 0 1 0 1 0 -1 0 0 3005.DAT
0 STEP
1 86 240.0 -72 50.0 -1 0 0 0 1 0 0 0 -1 3004.DAT
0 STEP
1 86 240.0 -96 60.0 0 0 1 0 1 0 -1 0 0 3003.DAT
0 STEP
1 86 280.0 -120 50.0 -1 0 0 0 1 0 0 0 -1 3009.DAT
0 STEP
1 86 240.0 -192 60.0 0 0 1 0 1 0 -1 0 0 3003.DAT
0 STEP
1 86 230.0 -216 50.0 0 0 1 0 1 0 -1 0 0 3005.DAT
0 STEP
1 86 230.0 -240 60.0 0 0 1 0 1 0 -1 0 0 3004.DAT
0 STEP
1 86 240.0 -264 50.0 -1 0 0 0 1 0 0 0 -1 3004.DAT
0 STEP
1 86 260.0 -288 50.0 -1 0 0 0 1 0 0 0 -1 3010.DAT
0 STEP
1 86 230.0 -672 60.0 0 0 1 0 1 0 -1 0 0 3004.DAT
0 STEP
1 86 240.0 -696 80.0 0 0 1 0 1 0 -1 0 0 3001.DAT
0 STEP
1 86 240.0 -720 50.0 -1 0 0 0 1 0 0 0 -1 3004.DAT
0 STEP
1 86 230.0 -744 50.0 0 0 1 0 1 0 -1 0 0 3005.DAT
0 STEP
1 86 230.0 -816 50.0 0 0 1 0 1 0 -1 0 0 3005.DAT
0 STEP
1 86 230.0 -840 50.0 0 0 1 0 1 0 -1 0 0 3005.DAT
0 STEP
1 86 230.0 -936 60.0 0 0 1 0 1 0 -1 0 0 3004.DAT
0 STEP
1 86 230.0 -984 50.0 0 0 1 0 1 0 -1 0 0 3005.DAT
0 STEP
1 86 230.0 -24 70.0 0 0 1 0 1 0 -1 0 0 3005.DAT
0 STEP
1 86 230.0 -48 80.0 0 0 1 0 1 0 -1 0 0 3004.DAT
0 STEP
1 86 230.0 -72 100.0 0 0 1 0 1 0 -1 0 0 3010.DAT
0 STEP
1 86 230.0 -168 70.0 0 0 1 0 1 0 -1 0 0 3005.DAT
0 STEP
1 86 230.0 -264 80.0 0 0 1 0 1 0 -1 0 0 3004.DAT
0 STEP
1 86 230.0 -288 80.0 0 0 1 0 1 0 -1 0 0 3004.DAT
0 STEP
1 86 230.0 -312 70.0 0 0 1 0 1 0 -1 0 0 3005.DAT
0 STEP
1 86 240.0 -336 80.0 0 0 1 0 1 0 -1 0 0 3003.DAT
0 STEP
1 86 230.0 -360 80.0 0 0 1 0 1 0 -1 0 0 3004.DAT
0 STEP
1 86 240.0 -384 70.0 -1 0 0 0 1 0 0 0 -1 3004.DAT
0 STEP
1 86 240.0 -408 80.0 0 0 1 0 1 0 -1 0 0 3003.DAT
0 STEP
1 86 240.0 -432 70.0 -1 0 0 0 1 0 0 0 -1 3004.DAT
0 STEP
1 86 260.0 -456 70.0 -1 0 0 0 1 0 0 0 -1 3010.DAT
0 STEP
1 86 230.0 -480 70.0 0 0 1 0 1 0 -1 0 0 3005.DAT
0 STEP
1 86 230.0 -504 70.0 0 0 1 0 1 0 -1 0 0 3005.DAT
0 STEP
1 86 230.0 -528 80.0 0 0 1 0 1 0 -1 0 0 3004.DAT
0 STEP
1 86 230.0 -552 70.0 0 0 1 0 1 0 -1 0 0 3005.DAT
0 STEP
1 86 260.0 -576 80.0 -1 0 0 0 1 0 0 0 -1 3001.DAT
0 STEP
1 86 240.0 -600 70.0 -1 0 0 0 1 0 0 0 -1 3004.DAT
0 STEP
1 86 240.0 -624 70.0 -1 0 0 0 1 0 0 0 -1 3004.DAT
0 STEP
1 86 240.0 -648 100.0 0 0 1 0 1 0 -1 0 0 3001.DAT
0 STEP
1 86 230.0 -744 80.0 0 0 1 0 1 0 -1 0 0 3004.DAT
0 STEP
1 86 230.0 -792 70.0 0 0 1 0 1 0 -1 0 0 3005.DAT
0 STEP
1 86 230.0 -816 100.0 0 0 1 0 1 0 -1 0 0 3010.DAT
0 STEP
1 86 240.0 -864 70.0 -1 0 0 0 1 0 0 0 -1 3004.DAT
0 STEP
1 86 240.0 -912 70.0 -1 0 0 0 1 0 0 0 -1 3004.DAT
0 STEP
1 86 260.0 -960 70.0 -1 0 0 0 1 0 0 0 -1 3010.DAT
0 STEP
1 86 230.0 -1368 80.0 0 0 1 0 1 0 -1 0 0 3004.DAT
0 STEP
1 86 230.0 -1392 80.0 0 0 1 0 1 0 -1 0 0 3004.DAT
0 STEP
1 86 240.0 -1416 80.0 0 0 1 0 1 0 -1 0 0 3003.DAT
0 STEP
1 86 240.0 -24 100.0 0 0 1 0 1 0 -1 0 0 3003.DAT
0 STEP
1 86 240.0 -120 90.0 -1 0 0 0 1 0 0 0 -1 3004.DAT
0 STEP
1 86 240.0 -144 100.0 0 0 1 0 1 0 -1 0 0 3003.DAT
0 STEP
1 86 240.0 -168 120.0 0 0 1 0 1 0 -1 0 0 3001.DAT
0 STEP
1 86 260.0 -240 90.0 -1 0 0 0 1 0 0 0 -1 3010.DAT
0 STEP
1 86 240.0 -312 100.0 0 0 1 0 1 0 -1 0 0 3003.DAT
0 STEP
1 86 240.0 -384 100.0 0 0 1 0 1 0 -1 0 0 3003.DAT
0 STEP
1 86 230.0 -432 100.0 0 0 1 0 1 0 -1 0 0 3004.DAT
0 STEP
1 86 230.0 -456 100.0 0 0 1 0 1 0 -1 0 0 3004.DAT
0 STEP
1 86 260.0 -480 90.0 -1 0 0 0 1 0 0 0 -1 3010.DAT
0 STEP
1 86 240.0 -504 100.0 0 0 1 0 1 0 -1 0 0 3003.DAT
0 STEP
1 86 240.0 -552 90.0 -1 0 0 0 1 0 0 0 -1 3004.DAT
0 STEP
1 86 240.0 -600 100.0 0 0 1 0 1 0 -1 0 0 3003.DAT
0 STEP
1 86 240.0 -624 100.0 0 0 1 0 1 0 -1 0 0 3003.DAT
0 STEP
1 86 240.0 -672 100.0 0 0 1 0 1 0 -1 0 0 3003.DAT
0 STEP
1 86 240.0 -792 100.0 0 0 1 0 1 0 -1 0 0 3003.DAT
0 STEP
1 86 240.0 -888 90.0 -1 0 0 0 1 0 0 0 -1 3004.DAT
0 STEP
1 86 230.0 -960 90.0 0 0 1 0 1 0 -1 0 0 3005.DAT
0 STEP
1 86 230.0 -48 110.0 0 0 1 0 1 0 -1 0 0 3005.DAT
0 STEP
1 86 260.0 -96 110.0 -1 0 0 0 1 0 0 0 -1 3010.DAT
0 STEP
1 86 230.0 -120 110.0 0 0 1 0 1 0 -1 0 0 3005.DAT
0 STEP
1 86 240.0 -192 120.0 0 0 1 0 1 0 -1 0 0 3003.DAT
0 STEP
1 86 230.0 -216 120.0 0 0 1 0 1 0 -1 0 0 3004.DAT
0 STEP
1 86 240.0 -240 120.0 0 0 1 0 1 0 -1 0 0 3003.DAT
0 STEP
1 86 260.0 -264 110.0 -1 0 0 0 1 0 0 0 -1 3010.DAT
0 STEP
1 86 230.0 -288 110.0 0 0 1 0 1 0 -1 0 0 3005.DAT
0 STEP
1 86 240.0 -336 110.0 -1 0 0 0 1 0 0 0 -1 3004.DAT
0 STEP
1 86 240.0 -360 110.0 -1 0 0 0 1 0 0 0 -1 3004.DAT
0 STEP
1 86 240.0 -408 110.0 -1 0 0 0 1 0 0 0 -1 3004.DAT
0 STEP
1 86 240.0 -480 110.0 -1 0 0 0 1 0 0 0 -1 3004.DAT
0 STEP
1 86 230.0 -528 110.0 0 0 1 0 1 0 -1 0 0 3005.DAT
0 STEP
1 86 230.0 -552 110.0 0 0 1 0 1 0 -1 0 0 3005.DAT
0 STEP
1 86 240.0 -576 110.0 -1 0 0 0 1 0 0 0 -1 3004.DAT
0 STEP
1 86 230.0 -888 110.0 0 0 1 0 1 0 -1 0 0 3005.DAT
0 STEP
1 86 240.0 -936 110.0 -1 0 0 0 1 0 0 0 -1 3004.DAT
0 STEP
1 86 230.0 -960 120.0 0 0 1 0 1 0 -1 0 0 3004.DAT
0 STEP
1 86 240.0 -984 120.0 0 0 1 0 1 0 -1 0 0 3003.DAT
0 STEP
1 86 230.0 -1392 110.0 0 0 1 0 1 0 -1 0 0 3005.DAT
0 STEP
1 86 230.0 -96 130.0 0 0 1 0 1 0 -1 0 0 3005.DAT
0 STEP
1 86 230.0 -144 140.0 0 0 1 0 1 0 -1 0 0 3004.DAT
0 STEP
1 86 230.0 -264 130.0 0 0 1 0 1 0 -1 0 0 3005.DAT
0 STEP
1 86 240.0 -672 130.0 -1 0 0 0 1 0 0 0 -1 3004.DAT
0 STEP
1 86 240.0 -696 130.0 -1 0 0 0 1 0 0 0 -1 3004.DAT
0 STEP
1 86 240.0 -720 130.0 -1 0 0 0 1 0 0 0 -1 3004.DAT
0 STEP
1 86 260.0 -744 140.0 -1 0 0 0 1 0 0 0 -1 3001.DAT
0 STEP
1 86 230.0 -792 140.0 0 0 1 0 1 0 -1 0 0 3004.DAT
0 STEP
1 86 260.0 -840 130.0 -1 0 0 0 1 0 0 0 -1 3010.DAT
0 STEP
1 86 230.0 -864 130.0 0 0 1 0 1 0 -1 0 0 3005.DAT
0 STEP
1 86 260.0 -912 130.0 -1 0 0 0 1 0 0 0 -1 3010.DAT
0 STEP
1 86 230.0 -936 130.0 0 0 1 0 1 0 -1 0 0 3005.DAT
0 STEP
1 86 260.0 -768 150.0 -1 0 0 0 1 0 0 0 -1 3010.DAT
0 STEP
1 86 260.0 -72 30.0 -1 0 0 0 1 0 0 0 -1 3004.DAT
0 STEP
1 86 250.0 -96 30.0 0 0 1 0 1 0 -1 0 0 3005.DAT
0 STEP
1 86 260.0 -120 30.0 -1 0 0 0 1 0 0 0 -1 3004.DAT
0 STEP
1 86 250.0 -144 40.0 0 0 1 0 1 0 -1 0 0 3004.DAT
0 STEP
1 86 250.0 -192 30.0 0 0 1 0 1 0 -1 0 0 3005.DAT
0 STEP
1 86 250.0 -216 40.0 0 0 1 0 1 0 -1 0 0 3004.DAT
0 STEP
1 86 250.0 -240 30.0 0 0 1 0 1 0 -1 0 0 3005.DAT
0 STEP
1 86 260.0 -696 30.0 -1 0 0 0 1 0 0 0 -1 3004.DAT
0 STEP
1 86 260.0 -720 30.0 -1 0 0 0 1 0 0 0 -1 3004.DAT
0 STEP
1 86 260.0 -792 30.0 -1 0 0 0 1 0 0 0 -1 3004.DAT
0 STEP
1 86 250.0 -816 30.0 0 0 1 0 1 0 -1 0 0 3005.DAT
0 STEP
1 86 260.0 -840 40.0 0 0 1 0 1 0 -1 0 0 3003.DAT
0 STEP
1 86 260.0 -24 60.0 0 0 1 0 1 0 -1 0 0 3003.DAT
0 STEP
1 86 250.0 -48 80.0 0 0 1 0 1 0 -1 0 0 3010.DAT
0 STEP
1 86 260.0 -240 60.0 0 0 1 0 1 0 -1 0 0 3003.DAT
0 STEP
1 86 250.0 -312 60.0 0 0 1 0 1 0 -1 0 0 3004.DAT
0 STEP
1 86 250.0 -336 50.0 0 0 1 0 1 0 -1 0 0 3005.DAT
0 STEP
1 86 250.0 -360 60.0 0 0 1 0 1 0 -1 0 0 3004.DAT
0 STEP
1 86 250.0 -384 50.0 0 0 1 0 1 0 -1 0 0 3005.DAT
0 STEP
1 86 280.0 -408 50.0 -1 0 0 0 1 0 0 0 -1 3010.DAT
0 STEP
1 86 280.0 -432 50.0 -1 0 0 0 1 0 0 0 -1 3010.DAT
0 STEP
1 86 260.0 -456 50.0 -1 0 0 0 1 0 0 0 -1 3004.DAT
0 STEP
1 86 280.0 -480 60.0 -1 0 0 0 1 0 0 0 -1 3001.DAT
0 STEP
1 86 260.0 -504 60.0 0 0 1 0 1 0 -1 0 0 3003.DAT
0 STEP
1 86 250.0 -528 80.0 0 0 1 0 1 0 -1 0 0 3010.DAT
0 STEP
1 86 250.0 -552 60.0 0 0 1 0 1 0 -1 0 0 3004.DAT
0 STEP
1 86 280.0 -576 50.0 -1 0 0 0 1 0 0 0 -1 3010.DAT
0 STEP
1 86 250.0 -600 50.0 0 0 1 0 1 0 -1 0 0 3005.DAT
0 STEP
1 86 250.0 -624 50.0 0 0 1 0 1 0 -1 0 0 3005.DAT
0 STEP
1 86 260.0 -648 50.0 -1 0 0 0 1 0 0 0 -1 3004.DAT
0 STEP
1 86 280.0 -672 50.0 -1 0 0 0 1 0 0 0 -1 3010.DAT
0 STEP
1 86 250.0 -744 60.0 0 0 1 0 1 0 -1 0 0 3004.DAT
0 STEP
1 86 250.0 -768 60.0 0 0 1 0 1 0 -1 0 0 3004.DAT
0 STEP
1 86 260.0 -792 60.0 0 0 1 0 1 0 -1 0 0 3003.DAT
0 STEP
1 86 280.0 -816 60.0 -1 0 0 0 1 0 0 0 -1 3001.DAT
0 STEP
1 86 250.0 -864 50.0 0 0 1 0 1 0 -1 0 0 3005.DAT
0 STEP
1 86 250.0 -888 60.0 0 0 1 0 1 0 -1 0 0 3004.DAT
0 STEP
1 86 280.0 -936 50.0 -1 0 0 0 1 0 0 0 -1 3010.DAT
0 STEP
1 86 250.0 -984 60.0 0 0 1 0 1 0 -1 0 0 3004.DAT
0 STEP
1 86 260.0 0 70.0 -1 0 0 0 1 0 0 0 -1 3004.DAT
0 STEP
1 86 250.0 -72 70.0 0 0 1 0 1 0 -1 0 0 3005.DAT
0 STEP
1 86 260.0 -144 70.0 -1 0 0 0 1 0 0 0 -1 3004.DAT
0 STEP
1 86 260.0 -168 70.0 -1 0 0 0 1 0 0 0 -1 3004.DAT
0 STEP
1 86 250.0 -216 70.0 0 0 1 0 1 0 -1 0 0 3005.DAT
0 STEP
1 86 250.0 -264 70.0 0 0 1 0 1 0 -1 0 0 3005.DAT
0 STEP
1 86 250.0 -288 70.0 0 0 1 0 1 0 -1 0 0 3005.DAT
0 STEP
1 86 250.0 -672 70.0 0 0 1 0 1 0 -1 0 0 3005.DAT
0 STEP
1 86 250.0 -720 70.0 0 0 1 0 1 0 -1 0 0 3005.DAT
0 STEP
1 86 260.0 -840 70.0 -1 0 0 0 1 0 0 0 -1 3004.DAT
0 STEP
1 86 250.0 -936 80.0 0 0 1 0 1 0 -1 0 0 3004.DAT
0 STEP
1 86 260.0 -1368 80.0 0 0 1 0 1 0 -1 0 0 3003.DAT
0 STEP
1 86 280.0 -1392 70.0 -1 0 0 0 1 0 0 0 -1 3010.DAT
0 STEP
1 86 250.0 0 90.0 0 0 1 0 1 0 -1 0 0 3005.DAT
0 STEP
1 86 250.0 -72 100.0 0 0 1 0 1 0 -1 0 0 3004.DAT
0 STEP
1 86 250.0 -96 90.0 0 0 1 0 1 0 -1 0 0 3005.DAT
0 STEP
1 86 260.0 -264 90.0 -1 0 0 0 1 0 0 0 -1 3004.DAT
0 STEP
1 86 280.0 -288 90.0 -1 0 0 0 1 0 0 0 -1 3010.DAT
0 STEP
1 86 250.0 -360 90.0 0 0 1 0 1 0 -1 0 0 3005.DAT
0 STEP
1 86 260.0 -432 90.0 -1 0 0 0 1 0 0 0 -1 3004.DAT
0 STEP
1 86 280.0 -456 100.0 -1 0 0 0 1 0 0 0 -1 3001.DAT
0 STEP
1 86 260.0 -744 100.0 0 0 1 0 1 0 -1 0 0 3003.DAT
0 STEP
1 86 250.0 -768 90.0 0 0 1 0 1 0 -1 0 0 3005.DAT
0 STEP
1 86 250.0 -816 120.0 0 0 1 0 1 0 -1 0 0 3010.DAT
0 STEP
1 86 260.0 -840 100.0 0 0 1 0 1 0 -1 0 0 3003.DAT
0 STEP
1 86 260.0 -864 90.0 -1 0 0 0 1 0 0 0 -1 3004.DAT
0 STEP
1 86 250.0 -960 100.0 0 0 1 0 1 0 -1 0 0 3004.DAT
0 STEP
1 86 250.0 -984 90.0 0 0 1 0 1 0 -1 0 0 3005.DAT
0 STEP
1 86 250.0 -1392 100.0 0 0 1 0 1 0 -1 0 0 3004.DAT
0 STEP
1 86 260.0 0 110.0 -1 0 0 0 1 0 0 0 -1 3004.DAT
0 STEP
1 86 250.0 -120 120.0 0 0 1 0 1 0 -1 0 0 3004.DAT
0 STEP
1 86 280.0 -216 110.0 -1 0 0 0 1 0 0 0 -1 3010.DAT
0 STEP
1 86 280.0 -288 120.0 -1 0 0 0 1 0 0 0 -1 3001.DAT
0 STEP
1 86 260.0 -432 120.0 0 0 1 0 1 0 -1 0 0 3003.DAT
0 STEP
1 86 260.0 -552 120.0 0 0 1 0 1 0 -1 0 0 3003.DAT
0 STEP
1 86 260.0 -768 120.0 0 0 1 0 1 0 -1 0 0 3003.DAT
0 STEP
1 86 250.0 -864 120.0 0 0 1 0 1 0 -1 0 0 3004.DAT
0 STEP
1 86 260.0 -888 120.0 0 0 1 0 1 0 -1 0 0 3003.DAT
0 STEP
1 86 250.0 -912 110.0 0 0 1 0 1 0 -1 0 0 3005.DAT
0 STEP
1 86 250.0 -1368 110.0 0 0 1 0 1 0 -1 0 0 3005.DAT
0 STEP
1 86 250.0 -24 130.0 0 0 1 0 1 0 -1 0 0 3005.DAT
0 STEP
1 86 260.0 -48 130.0 -1 0 0 0 1 0 0 0 -1 3004.DAT
0 STEP
1 86 250.0 -72 130.0 0 0 1 0 1 0 -1 0 0 3005.DAT
0 STEP
1 86 260.0 -96 140.0 0 0 1 0 1 0 -1 0 0 3003.DAT
0 STEP
1 86 260.0 -144 140.0 0 0 1 0 1 0 -1 0 0 3003.DAT
0 STEP
1 86 260.0 -216 130.0 -1 0 0 0 1 0 0 0 -1 3004.DAT
0 STEP
1 86 260.0 -264 130.0 -1 0 0 0 1 0 0 0 -1 3004.DAT
0 STEP
1 86 260.0 -312 130.0 -1 0 0 0 1 0 0 0 -1 3004.DAT
0 STEP