1 86 20.0 -1128 70.0 -1 0 0 0 1 0 0 0 -1 3004.DAT
0 STEP
1 86 20.0 -1152 80.0 0 0 1 0 1 0 -1 0 0 3003.DAT
0 STEP
1 86 10.0 -1176 80.0 0 0 1 0 1 0 -1 0 0 3004.DAT
0 STEP
1 86 10.0 -1080 90.0 0 0 1 0 1 0 -1 0 0 3005.DAT
0 STEP
1 86 10.0 -1104 90.0 0 0 1 0 1 0 -1 0 0 3005.DAT
0 STEP
1 86 10.0 -1128 90.0 0 0 1 0 1 0 -1 0 0 3005.DAT
0 STEP
1 86 10.0 -1200 90.0 0 0 1 0 1 0 -1 0 0 3005.DAT
0 STEP
1 86 20.0 -1128 110.0 -1 0 0 0 1 0 0 0 -1 3004.DAT
0 STEP
1 86 20.0 -1152 110.0 -1 0 0 0 1 0 0 0 -1 3004.DAT
0 STEP
1 86 10.0 -1176 110.0 0 0 1 0 1 0 -1 0 0 3005.DAT
0 STEP
1 86 30.0 -1128 50.0 0 0 1 0 1 0 -1 0 0 3005.DAT
0 STEP
1 86 60.0 -1152 50.0 -1 0 0 0 1 0 0 0 -1 3010.DAT
0 STEP
1 86 30.0 -1176 60.0 0 0 1 0 1 0 -1 0 0 3004.DAT
0 STEP
1 86 30.0 -1032 70.0 0 0 1 0 1 0 -1 0 0 3005.DAT
0 STEP
1 86 40.0 -1056 70.0 -1 0 0 0 1 0 0 0 -1 3004.DAT
0 STEP
1 86 30.0 -1080 100.0 0 0 1 0 1 0 -1 0 0 3010.DAT
0 STEP
1 86 80.0 -1104 80.0 -1 0 0 0 1 0 0 0 -1 2456.DAT
0 STEP
1 86 40.0 -1200 70.0 -1 0 0 0 1 0 0 0 -1 3004.DAT
0 STEP
1 86 80.0 -1224 70.0 -1 0 0 0 1 0 0 0 -1 3009.DAT
0 STEP