1 86 80.0 -1128 70.0 -1 0 0 0 1 0 0 0 -1 3008.DAT
0 STEP
1 86 10.0 -1152 90.0 0 0 1 0 1 0 -1 0 0 3622.DAT
0 STEP
1 86 10.0 -1176 80.0 0 0 1 0 1 0 -1 0 0 3004.DAT
0 STEP
1 86 40.0 -1080 90.0 -1 0 0 0 1 0 0 0 -1 3010.DAT
0 STEP
1 86 10.0 -1104 90.0 0 0 1 0 1 0 -1 0 0 3005.DAT
0 STEP
1 86 80.0 -1128 100.0 -1 0 0 0 1 0 0 0 -1 3007.DAT
0 STEP
1 86 10.0 -1200 90.0 0 0 1 0 1 0 -1 0 0 3005.DAT
0 STEP
1 86 80.0 -1176 110.0 -1 0 0 0 1 0 0 0 -1 3008.DAT
0 STEP
1 86 80.0 -1128 50.0 -1 0 0 0 1 0 0 0 -1 3009.DAT
0 STEP
1 86 30.0 -1152 50.0 0 0 1 0 1 0 -1 0 0 3005.DAT
0 STEP
1 86 30.0 -1176 70.0 0 0 1 0 1 0 -1 0 0 3622.DAT
0 STEP
1 86 30.0 -1032 90.0 0 0 1 0 1 0 -1 0 0 3622.DAT
0 STEP
1 86 30.0 -1056 90.0 0 0 1 0 1 0 -1 0 0 3622.DAT
0 STEP
1 86 50.0 -1080 70.0 -1 0 0 0 1 0 0 0 -1 3622.DAT
0 STEP
1 86 30.0 -1104 100.0 0 0 1 0 1 0 -1 0 0 3010.DAT
0 STEP
1 86 30.0 -1152 100.0 0 0 1 0 1 0 -1 0 0 3010.DAT
0 STEP
1 86 40.0 -1200 100.0 0 0 1 0 1 0 -1 0 0 3001.DAT
0 STEP
1 86 80.0 -1224 80.0 -1 0 0 0 1 0 0 0 -1 2456.DAT
0 STEP
1 86 30.0 -1248 90.0 0 0 1 0 1 0 -1 0 0 3622.DAT
0 STEP
1 86 40.0 -1008 90.0 -1 0 0 0 1 0 0 0 -1 3004.DAT
0 STEP
1 86 50.0 -1272 90.0 -1 0 0 0 1 0 0 0 -1 3622.DAT
0 STEP
1 86 50.0 -1080 120.0 -1 0 0 0 1 0 0 0 -1 3002.DAT
0 STEP
1 86 80.0 -1224 110.0 -1 0 0 0 1 0 0 0 -1 3009.DAT
0 STEP
1 86 80.0 -1128 130.0 -1 0 0 0 1 0 0 0 -1 3009.DAT
0 STEP
1 86 80.0 -1176 130.0 -1 0 0 0 1 0 0 0 -1 3009.DAT
0 STEP
1 86 60.0 -1032 60.0 0 0 1 0 1 0 -1 0 0 3003.DAT
0 STEP
1 86 50.0 -1056 80.0 0 0 1 0 1 0 -1 0 0 3010.DAT
0 STEP
1 86 80.0 -1080 50.0 -1 0 0 0 1 0 0 0 -1 3010.DAT
0 STEP
1 86 60.0 -1104 70.0 0 0 1 0 1 0 -1 0 0 3002.DAT
0 STEP
1 86 60.0 -1152 80.0 0 0 1 0 1 0 -1 0 0 3001.DAT
0 STEP
1 86 50.0 -1176 50.0 0 0 1 0 1 0 -1 0 0 3005.DAT
0 STEP
1 86 50.0 -1200 50.0 0 0 1 0 1 0 -1 0 0 3005.DAT
0 STEP
1 86 80.0 -1224 50.0 -1 0 0 0 1 0 0 0 -1 3010.DAT
0 STEP
1 86 60.0 -1248 50.0 -1 0 0 0 1 0 0 0 -1 3004.DAT
0 STEP
1 86 60.0 -960 90.0 0 0 1 0 1 0 -1 0 0 3002.DAT
0 STEP
1 86 80.0 -984 80.0 -1 0 0 0 1 0 0 0 -1 3001.DAT
0 STEP
1 86 50.0 -1008 70.0 0 0 1 0 1 0 -1 0 0 3005.DAT
0 STEP
1 86 100.0 -1176 80.0 -1 0 0 0 1 0 0 0 -1 2456.DAT
0 STEP
1 86 60.0 -1248 100.0 0 0 1 0 1 0 -1 0 0 3001.DAT
0 STEP
1 86 60.0 -1272 70.0 -1 0 0 0 1 0 0 0 -1 3004.DAT
0 STEP
1 86 80.0 -1296 70.0 -1 0 0 0 1 0 0 0 -1 3010.DAT
0 STEP
1 86 60.0 -1032 110.0 0 0 1 0 1 0 -1 0 0 3002.DAT
0 STEP
1 86 80.0 -1296 100.0 -1 0 0 0 1 0 0 0 -1 3001.DAT
0 STEP
1 86 50.0 -1320 90.0 0 0 1 0 1 0 -1 0 0 3005.DAT
0 STEP
1 86 50.0 -984 110.0 0 0 1 0 1 0 -1 0 0 3005.DAT
0 STEP
1 86 50.0 -1008 110.0 0 0 1 0 1 0 -1 0 0 3005.DAT
0 STEP
1 86 80.0 -1104 120.0 -1 0 0 0 1 0 0 0 -1 3001.DAT
0 STEP
1 86 50.0 -1272 120.0 0 0 1 0 1 0 -1 0 0 3004.DAT
0 STEP
1 86 70.0 -1008 130.0 -1 0 0 0 1 0 0 0 -1 3622.DAT
0 STEP
1 86 80.0 -1056 130.0 -1 0 0 0 1 0 0 0 -1 3010.DAT
0 STEP
1 86 80.0 -1152 130.0 -1 0 0 0 1 0 0 0 -1 3010.DAT
0 STEP
1 86 100.0 -1224 130.0 -1 0 0 0 1 0 0 0 -1 3009.DAT
0 STEP
1 86 100.0 -984 50.0 -1 0 0 0 1 0 0 0 -1 3010.DAT
0 STEP
1 86 80.0 -1008 80.0 0 0 1 0 1 0 -1 0 0 3001.DAT
0 STEP
1 86 120.0 -1056 60.0 -1 0 0 0 1 0 0 0 -1 2456.DAT
0 STEP
1 86 100.0 -1176 50.0 -1 0 0 0 1 0 0 0 -1 3010.DAT
0 STEP
1 86 80.0 -1200 80.0 0 0 1 0 1 0 -1 0 0 3001.DAT
0 STEP
1 86 100.0 -1272 50.0 -1 0 0 0 1 0 0 0 -1 3010.DAT
0 STEP
1 86 90.0 -936 70.0 -1 0 0 0 1 0 0 0 -1 3622.DAT
0 STEP
1 86 70.0 -1320 90.0 0 0 1 0 1 0 -1 0 0 3622.DAT
0 STEP
1 86 90.0 -936 100.0 -1 0 0 0 1 0 0 0 -1 3002.DAT
0 STEP
1 86 120.0 -1056 90.0 -1 0 0 0 1 0 0 0 -1 3009.DAT
0 STEP
1 86 100.0 -1344 100.0 -1 0 0 0 1 0 0 0 -1 3001.DAT
0 STEP
1 86 100.0 -984 120.0 -1 0 0 0 1 0 0 0 -1 3001.DAT
0 STEP
1 86 90.0 -1056 110.0 -1 0 0 0 1 0 0 0 -1 3622.DAT
0 STEP
1 86 100.0 -1272 120.0 -1 0 0 0 1 0 0 0 -1 3001.DAT
0 STEP
1 86 140.0 -960 130.0 -1 0 0 0 1 0 0 0 -1 3008.DAT
0 STEP
1 86 80.0 -1200 130.0 -1 0 0 0 1 0 0 0 -1 3004.DAT
0 STEP
1 86 100.0 -1296 130.0 -1 0 0 0 1 0 0 0 -1 3010.DAT
0 STEP
1 86 90.0 -960 80.0 0 0 1 0 1 0 -1 0 0 3010.DAT
0 STEP
1 86 140.0 -1032 50.0 -1 0 0 0 1 0 0 0 -1 3009.DAT
0 STEP
1 86 100.0 -1104 70.0 0 0 1 0 1 0 -1 0 0 3002.DAT
0 STEP
1 86 100.0 -1152 80.0 0 0 1 0 1 0 -1 0 0 3001.DAT
0 STEP
1 86 90.0 -1248 80.0 0 0 1 0 1 0 -1 0 0 3010.DAT
0 STEP
1 86 100.0 -1296 50.0 -1 0 0 0 1 0 0 0 -1 3004.DAT
0 STEP
1 86 120.0 -1320 50.0 -1 0 0 0 1 0 0 0 -1 3010.DAT
0 STEP
1 86 120.0 -1032 70.0 -1 0 0 0 1 0 0 0 -1 3010.DAT
0 STEP
1 86 100.0 -1080 100.0 0 0 1 0 1 0 -1 0 0 3001.DAT
0 STEP
1 86 120.0 -1272 80.0 -1 0 0 0 1 0 0 0 -1 3001.DAT
0 STEP
1 86 100.0 -1320 100.0 0 0 1 0 1 0 -1 0 0 3001.DAT
0 STEP
1 86 110.0 -1344 70.0 -1 0 0 0 1 0 0 0 -1 3622.DAT
0 STEP
1 86 100.0 -1368 90.0 0 0 1 0 1 0 -1 0 0 3002.DAT
0 STEP
1 86 120.0 -1032 100.0 -1 0 0 0 1 0 0 0 -1 3001.DAT
0 STEP
1 86 100.0 -936 130.0 -1 0 0 0 1 0 0 0 -1 3004.DAT
0 STEP
1 86 120.0 -1032 130.0 -1 0 0 0 1 0 0 0 -1 3010.DAT
0 STEP
1 86 90.0 -1248 130.0 0 0 1 0 1 0 -1 0 0 3005.DAT
0 STEP
1 86 120.0 -1344 130.0 -1 0 0 0 1 0 0 0 -1 3010.DAT
0 STEP
1 86 120.0 -936 50.0 -1 0 0 0 1 0 0 0 -1 3004.DAT
0 STEP
1 86 110.0 -960 50.0 0 0 1 0 1 0 -1 0 0 3005.DAT
0 STEP
1 86 120.0 -1008 80.0 0 0 1 0 1 0 -1 0 0 3001.DAT
0 STEP
1 86 110.0 -1200 50.0 0 0 1 0 1 0 -1 0 0 3005.DAT
0 STEP
1 86 130.0 -1248 50.0 -1 0 0 0 1 0 0 0 -1 3622.DAT
0 STEP
1 86 120.0 -1344 50.0 -1 0 0 0 1 0 0 0 -1 3004.DAT
0 STEP
1 86 120.0 -912 90.0 0 0 1 0 1 0 -1 0 0 3002.DAT
0 STEP
1 86 130.0 -960 70.0 -1 0 0 0 1 0 0 0 -1 3622.DAT
0 STEP
1 86 110.0 -1200 100.0 0 0 1 0 1 0 -1 0 0 3010.DAT
0 STEP
1 86 120.0 -1248 100.0 0 0 1 0 1 0 -1 0 0 3001.DAT
0 STEP
1 86 140.0 -960 100.0 -1 0 0 0 1 0 0 0 -1 3001.DAT
0 STEP
1 86 180.0 -912 130.0 -1 0 0 0 1 0 0 0 -1 3008.DAT
0 STEP
1 86 160.0 -1008 130.0 -1 0 0 0 1 0 0 0 -1 3009.DAT
0 STEP
1 86 200.0 -912 50.0 -1 0 0 0 1 0 0 0 -1 3008.DAT
0 STEP
1 86 200.0 -960 50.0 -1 0 0 0 1 0 0 0 -1 3008.DAT
0 STEP
1 86 140.0 -1080 80.0 0 0 1 0 1 0 -1 0 0 3001.DAT
0 STEP
1 86 140.0 -1104 50.0 -1 0 0 0 1 0 0 0 -1 3004.DAT
0 STEP
1 86 130.0 -1152 50.0 0 0 1 0 1 0 -1 0 0 3005.DAT
0 STEP
1 86 140.0 -1200 60.0 0 0 1 0 1 0 -1 0 0 3003.DAT
0 STEP
1 86 130.0 -1224 50.0 0 0 1 0 1 0 -1 0 0 3005.DAT
0 STEP
1 86 130.0 -1296 80.0 0 0 1 0 1 0 -1 0 0 3010.DAT
0 STEP
1 86 130.0 -888 70.0 0 0 1 0 1 0 -1 0 0 3005.DAT
0 STEP
1 86 130.0 -936 100.0 0 0 1 0 1 0 -1 0 0 3010.DAT
0 STEP
1 86 130.0 -984 80.0 0 0 1 0 1 0 -1 0 0 3004.DAT
0 STEP
1 86 140.0 -1104 100.0 0 0 1 0 1 0 -1 0 0 3001.DAT
0 STEP
1 86 130.0 -1152 100.0 0 0 1 0 1 0 -1 0 0 3010.DAT
0 STEP
1 86 140.0 -1320 80.0 0 0 1 0 1 0 -1 0 0 3003.DAT
0 STEP
1 86 200.0 -1368 80.0 -1 0 0 0 1 0 0 0 -1 3007.DAT
0 STEP
1 86 140.0 -1392 90.0 0 0 1 0 1 0 -1 0 0 3002.DAT
0 STEP
1 86 140.0 -888 90.0 -1 0 0 0 1 0 0 0 -1 3004.DAT
0 STEP
1 86 140.0 -1200 110.0 0 0 1 0 1 0 -1 0 0 3002.DAT
0 STEP
1 86 130.0 -888 110.0 0 0 1 0 1 0 -1 0 0 3005.DAT
0 STEP
1 86 150.0 -1056 120.0 -1 0 0 0 1 0 0 0 -1 3002.DAT
0 STEP
1 86 160.0 -1320 120.0 -1 0 0 0 1 0 0 0 -1 3001.DAT
0 STEP
1 86 200.0 -1368 110.0 -1 0 0 0 1 0 0 0 -1 3008.DAT
0 STEP
1 86 140.0 -1080 130.0 -1 0 0 0 1 0 0 0 -1 3004.DAT
0 STEP
1 86 180.0 -1368 130.0 -1 0 0 0 1 0 0 0 -1 3009.DAT
0 STEP
1 86 150.0 -888 60.0 0 0 1 0 1 0 -1 0 0 3004.DAT
0 STEP
1 86 160.0 -936 80.0 0 0 1 0 1 0 -1 0 0 3001.DAT
0 STEP
1 86 150.0 -984 80.0 0 0 1 0 1 0 -1 0 0 3010.DAT
0 STEP
1 86 180.0 -1008 50.0 -1 0 0 0 1 0 0 0 -1 3010.DAT
0 STEP
1 86 150.0 -1224 80.0 0 0 1 0 1 0 -1 0 0 3010.DAT
0 STEP
1 86 150.0 -1272 50.0 0 0 1 0 1 0 -1 0 0 3005.DAT
0 STEP
1 86 150.0 -1296 50.0 0 0 1 0 1 0 -1 0 0 3005.DAT
0 STEP
1 86 150.0 -1344 80.0 0 0 1 0 1 0 -1 0 0 3010.DAT
0 STEP
1 86 170.0 -864 70.0 -1 0 0 0 1 0 0 0 -1 3622.DAT
0 STEP
1 86 200.0 -912 70.0 -1 0 0 0 1 0 0 0 -1 3009.DAT
0 STEP
1 86 180.0 -1008 80.0 -1 0 0 0 1 0 0 0 -1 3001.DAT
0 STEP
1 86 150.0 -1152 90.0 0 0 1 0 1 0 -1 0 0 3622.DAT
0 STEP
1 86 150.0 -1248 100.0 0 0 1 0 1 0 -1 0 0 3010.DAT
0 STEP
1 86 160.0 -1296 100.0 0 0 1 0 1 0 -1 0 0 3001.DAT
0 STEP
1 86 220.0 -864 90.0 -1 0 0 0 1 0 0 0 -1 3008.DAT
0 STEP
1 86 200.0 -912 100.0 -1 0 0 0 1 0 0 0 -1 2456.DAT
0 STEP
1 86 180.0 -864 110.0 -1 0 0 0 1 0 0 0 -1 3010.DAT
0 STEP
1 86 150.0 -888 120.0 0 0 1 0 1 0 -1 0 0 3004.DAT
0 STEP
1 86 180.0 -1008 110.0 -1 0 0 0 1 0 0 0 -1 3010.DAT
0 STEP
1 86 150.0 -1272 120.0 0 0 1 0 1 0 -1 0 0 3004.DAT
0 STEP
1 86 160.0 -936 130.0 -1 0 0 0 1 0 0 0 -1 3004.DAT
0 STEP
1 86 150.0 -984 130.0 0 0 1 0 1 0 -1 0 0 3005.DAT
0 STEP
1 86 240.0 -888 50.0 -1 0 0 0 1 0 0 0 -1 3008.DAT
0 STEP
1 86 180.0 -984 70.0 0 0 1 0 1 0 -1 0 0 3002.DAT
0 STEP
1 86 180.0 -1320 70.0 0 0 1 0 1 0 -1 0 0 3002.DAT
0 STEP
1 86 180.0 -1344 50.0 -1 0 0 0 1 0 0 0 -1 3004.DAT
0 STEP
1 86 180.0 -888 100.0 0 0 1 0 1 0 -1 0 0 3001.DAT
0 STEP
1 86 240.0 -960 70.0 -1 0 0 0 1 0 0 0 -1 3008.DAT
0 STEP
1 86 180.0 -1032 100.0 0 0 1 0 1 0 -1 0 0 3001.DAT
0 STEP
1 86 170.0 -1344 100.0 0 0 1 0 1 0 -1 0 0 3010.DAT
0 STEP
1 86 170.0 -1392 90.0 0 0 1 0 1 0 -1 0 0 3622.DAT
0 STEP
1 86 180.0 -1416 90.0 -1 0 0 0 1 0 0 0 -1 3004.DAT
0 STEP
1 86 200.0 -984 120.0 -1 0 0 0 1 0 0 0 -1 3001.DAT
0 STEP
1 86 220.0 -864 130.0 -1 0 0 0 1 0 0 0 -1 3009.DAT
0 STEP
1 86 190.0 -864 50.0 0 0 1 0 1 0 -1 0 0 3005.DAT
0 STEP
1 86 190.0 -936 50.0 0 0 1 0 1 0 -1 0 0 3005.DAT
0 STEP
1 86 190.0 -936 100.0 0 0 1 0 1 0 -1 0 0 3010.DAT
0 STEP
1 86 200.0 -1344 90.0 0 0 1 0 1 0 -1 0 0 3002.DAT
0 STEP
1 86 200.0 -1392 100.0 0 0 1 0 1 0 -1 0 0 3001.DAT
0 STEP
1 86 240.0 -960 90.0 -1 0 0 0 1 0 0 0 -1 3009.DAT
0 STEP
1 86 190.0 -960 110.0 0 0 1 0 1 0 -1 0 0 3005.DAT
0 STEP
1 86 220.0 -1416 110.0 -1 0 0 0 1 0 0 0 -1 3010.DAT
0 STEP
1 86 190.0 -1344 130.0 0 0 1 0 1 0 -1 0 0 3005.DAT
0 STEP
1 86 210.0 -144 80.0 0 0 1 0 1 0 -1 0 0 3010.DAT
0 STEP
1 86 240.0 -168 50.0 -1 0 0 0 1 0 0 0 -1 3010.DAT
0 STEP
1 86 210.0 -744 60.0 0 0 1 0 1 0 -1 0 0 3004.DAT
0 STEP
1 86 240.0 -768 60.0 -1 0 0 0 1 0 0 0 -1 3001.DAT
0 STEP
1 86 220.0 -792 60.0 0 0 1 0 1 0 -1 0 0 3003.DAT
0 STEP
1 86 210.0 -816 50.0 0 0 1 0 1 0 -1 0 0 3005.DAT
0 STEP
1 86 210.0 -864 60.0 0 0 1 0 1 0 -1 0 0 3004.DAT
0 STEP
1 86 210.0 -936 80.0 0 0 1 0 1 0 -1 0 0 3010.DAT
0 STEP
1 86 220.0 -984 70.0 0 0 1 0 1 0 -1 0 0 3002.DAT
0 STEP
1 86 220.0 -72 90.0 0 0 1 0 1 0 -1 0 0 3002.DAT
0 STEP
1 86 210.0 -96 90.0 0 0 1 0 1 0 -1 0 0 3622.DAT
0 STEP
1 86 240.0 -120 70.0 -1 0 0 0 1 0 0 0 -1 3010.DAT
0 STEP
1 86 220.0 -168 100.0 0 0 1 0 1 0 -1 0 0 3001.DAT
0 STEP
1 86 240.0 -192 70.0 -1 0 0 0 1 0 0 0 -1 3010.DAT
0 STEP
1 86 210.0 -216 90.0 0 0 1 0 1 0 -1 0 0 3622.DAT
0 STEP
1 86 260.0 -696 70.0 -1 0 0 0 1 0 0 0 -1 3009.DAT
0 STEP
1 86 210.0 -720 90.0 0 0 1 0 1 0 -1 0 0 3622.DAT
0 STEP
1 86 210.0 -816 100.0 0 0 1 0 1 0 -1 0 0 3010.DAT
0 STEP
1 86 220.0 -840 90.0 0 0 1 0 1 0 -1 0 0 3002.DAT
0 STEP
1 86 220.0 -888 100.0 0 0 1 0 1 0 -1 0 0 3001.DAT
0 STEP
1 86 230.0 -1416 80.0 -1 0 0 0 1 0 0 0 -1 3002.DAT
0 STEP
1 86 230.0 -120 90.0 -1 0 0 0 1 0 0 0 -1 3622.DAT
0 STEP
1 86 230.0 -192 90.0 -1 0 0 0 1 0 0 0 -1 3622.DAT
0 STEP
1 86 210.0 -240 100.0 0 0 1 0 1 0 -1 0 0 3004.DAT
0 STEP
1 86 210.0 -264 90.0 0 0 1 0 1 0 -1 0 0 3005.DAT
0 STEP
1 86 230.0 -696 90.0 -1 0 0 0 1 0 0 0 -1 3622.DAT
0 STEP
1 86 230.0 -744 90.0 -1 0 0 0 1 0 0 0 -1 3622.DAT
0 STEP
1 86 210.0 -768 110.0 0 0 1 0 1 0 -1 0 0 3622.DAT
0 STEP
1 86 230.0 -792 90.0 -1 0 0 0 1 0 0 0 -1 3622.DAT
0 STEP
1 86 240.0 -120 120.0 -1 0 0 0 1 0 0 0 -1 3001.DAT
0 STEP
1 86 210.0 -192 110.0 0 0 1 0 1 0 -1 0 0 3005.DAT
0 STEP
1 86 210.0 -744 120.0 0 0 1 0 1 0 -1 0 0 3004.DAT
0 STEP
1 86 210.0 -792 110.0 0 0 1 0 1 0 -1 0 0 3005.DAT
0 STEP
1 86 260.0 -960 110.0 -1 0 0 0 1 0 0 0 -1 3009.DAT
0 STEP
1 86 210.0 -144 130.0 0 0 1 0 1 0 -1 0 0 3005.DAT
0 STEP
1 86 240.0 -792 130.0 -1 0 0 0 1 0 0 0 -1 3010.DAT
0 STEP
1 86 240.0 -936 130.0 -1 0 0 0 1 0 0 0 -1 3010.DAT
0 STEP
1 86 240.0 -144 60.0 0 0 1 0 1 0 -1 0 0 3001.DAT
0 STEP
1 86 250.0 -168 30.0 -1 0 0 0 1 0 0 0 -1 3622.DAT
0 STEP
1 86 260.0 -744 40.0 -1 0 0 0 1 0 0 0 -1 3001.DAT
0 STEP
1 86 230.0 -768 30.0 0 0 1 0 1 0 -1 0 0 3005.DAT
0 STEP
1 86 250.0 -48 50.0 -1 0 0 0 1 0 0 0 -1 3622.DAT
0 STEP
1 86 230.0 -72 50.0 0 0 1 0 1 0 -1 0 0 3005.DAT
0 STEP
1 86 230.0 -96 80.0 0 0 1 0 1 0 -1 0 0 3010.DAT
0 STEP
1 86 240.0 -120 50.0 -1 0 0 0 1 0 0 0 -1 3004.DAT
0 STEP
1 86 230.0 -192 50.0 0 0 1 0 1 0 -1 0 0 3005.DAT
0 STEP
1 86 230.0 -216 80.0 0 0 1 0 1 0 -1 0 0 3010.DAT
0 STEP
1 86 240.0 -240 60.0 0 0 1 0 1 0 -1 0 0 3003.DAT
0 STEP
1 86 240.0 -264 80.0 0 0 1 0 1 0 -1 0 0 3001.DAT
0 STEP
1 86 260.0 -288 50.0 -1 0 0 0 1 0 0 0 -1 3010.DAT
0 STEP
1 86 230.0 -672 70.0 0 0 1 0 1 0 -1 0 0 3622.DAT
0 STEP
1 86 230.0 -696 50.0 0 0 1 0 1 0 -1 0 0 3005.DAT
0 STEP
1 86 230.0 -720 50.0 0 0 1 0 1 0 -1 0 0 3005.DAT
0 STEP
1 86 260.0 -816 60.0 -1 0 0 0 1 0 0 0 -1 3001.DAT
0 STEP
1 86 230.0 -840 50.0 0 0 1 0 1 0 -1 0 0 3005.DAT
0 STEP
1 86 260.0 -864 60.0 -1 0 0 0 1 0 0 0 -1 3001.DAT
0 STEP
1 86 240.0 -936 80.0 0 0 1 0 1 0 -1 0 0 3001.DAT
0 STEP
1 86 240.0 -24 80.0 0 0 1 0 1 0 -1 0 0 3003.DAT
0 STEP
1 86 240.0 -48 90.0 0 0 1 0 1 0 -1 0 0 3002.DAT
0 STEP
1 86 230.0 -288 90.0 0 0 1 0 1 0 -1 0 0 3622.DAT
0 STEP
1 86 250.0 -312 70.0 -1 0 0 0 1 0 0 0 -1 3622.DAT
0 STEP
1 86 230.0 -336 90.0 0 0 1 0 1 0 -1 0 0 3622.DAT
0 STEP
1 86 230.0 -360 90.0 0 0 1 0 1 0 -1 0 0 3622.DAT
0 STEP
1 86 230.0 -384 90.0 0 0 1 0 1 0 -1 0 0 3622.DAT
0 STEP
1 86 260.0 -408 70.0 -1 0 0 0 1 0 0 0 -1 3010.DAT
0 STEP
1 86 230.0 -432 90.0 0 0 1 0 1 0 -1 0 0 3622.DAT
0 STEP
1 86 230.0 -456 90.0 0 0 1 0 1 0 -1 0 0 3622.DAT
0 STEP
1 86 230.0 -480 90.0 0 0 1 0 1 0 -1 0 0 3622.DAT
0 STEP
1 86 240.0 -504 90.0 0 0 1 0 1 0 -1 0 0 3002.DAT
0 STEP
1 86 230.0 -528 90.0 0 0 1 0 1 0 -1 0 0 3622.DAT
0 STEP
1 86 230.0 -552 70.0 0 0 1 0 1 0 -1 0 0 3005.DAT
0 STEP
1 86 230.0 -576 90.0 0 0 1 0 1 0 -1 0 0 3622.DAT
0 STEP
1 86 230.0 -600 90.0 0 0 1 0 1 0 -1 0 0 3622.DAT
0 STEP
1 86 230.0 -624 70.0 0 0 1 0 1 0 -1 0 0 3005.DAT
0 STEP
1 86 230.0 -648 100.0 0 0 1 0 1 0 -1 0 0 3010.DAT
0 STEP
1 86 230.0 -720 100.0 0 0 1 0 1 0 -1 0 0 3010.DAT
0 STEP
1 86 260.0 -744 70.0 -1 0 0 0 1 0 0 0 -1 3010.DAT
0 STEP
1 86 230.0 -1392 70.0 0 0 1 0 1 0 -1 0 0 3005.DAT
0 STEP
1 86 230.0 -240 110.0 0 0 1 0 1 0 -1 0 0 3622.DAT
0 STEP
1 86 250.0 -312 100.0 -1 0 0 0 1 0 0 0 -1 3002.DAT
0 STEP
1 86 230.0 -408 100.0 0 0 1 0 1 0 -1 0 0 3004.DAT
0 STEP
1 86 240.0 -552 90.0 -1 0 0 0 1 0 0 0 -1 3004.DAT
0 STEP
1 86 250.0 -624 100.0 -1 0 0 0 1 0 0 0 -1 3002.DAT
0 STEP
1 86 240.0 -768 120.0 0 0 1 0 1 0 -1 0 0 3001.DAT
0 STEP
1 86 240.0 -816 110.0 0 0 1 0 1 0 -1 0 0 3002.DAT
0 STEP
1 86 280.0 -1392 100.0 -1 0 0 0 1 0 0 0 -1 2456.DAT
0 STEP
1 86 230.0 -24 110.0 0 0 1 0 1 0 -1 0 0 3005.DAT
0 STEP
1 86 230.0 -144 130.0 0 0 1 0 1 0 -1 0 0 3622.DAT
0 STEP
1 86 280.0 -192 120.0 -1 0 0 0 1 0 0 0 -1 2456.DAT
0 STEP
1 86 250.0 -552 110.0 -1 0 0 0 1 0 0 0 -1 3622.DAT
0 STEP
1 86 260.0 -672 120.0 -1 0 0 0 1 0 0 0 -1 3001.DAT
0 STEP
1 86 250.0 -696 110.0 -1 0 0 0 1 0 0 0 -1 3622.DAT
0 STEP
1 86 260.0 -744 110.0 -1 0 0 0 1 0 0 0 -1 3010.DAT
0 STEP
1 86 260.0 -792 110.0 -1 0 0 0 1 0 0 0 -1 3010.DAT
0 STEP
1 86 250.0 -864 110.0 -1 0 0 0 1 0 0 0 -1 3622.DAT
0 STEP
1 86 230.0 -72 130.0 0 0 1 0 1 0 -1 0 0 3005.DAT
0 STEP
1 86 260.0 -96 130.0 -1 0 0 0 1 0 0 0 -1 3010.DAT
0 STEP
1 86 230.0 -216 130.0 0 0 1 0 1 0 -1 0 0 3005.DAT
0 STEP
1 86 230.0 -264 130.0 0 0 1 0 1 0 -1 0 0 3005.DAT
0 STEP
1 86 230.0 -696 130.0 0 0 1 0 1 0 -1 0 0 3005.DAT
0 STEP
1 86 250.0 -744 140.0 -1 0 0 0 1 0 0 0 -1 3002.DAT
0 STEP
1 86 230.0 -840 130.0 0 0 1 0 1 0 -1 0 0 3005.DAT
0 STEP
1 86 230.0 -960 130.0 0 0 1 0 1 0 -1 0 0 3005.DAT
0 STEP
1 86 230.0 -168 150.0 0 0 1 0 1 0 -1 0 0 3005.DAT
0 STEP
1 86 230.0 -792 150.0 0 0 1 0 1 0 -1 0 0 3005.DAT
0 STEP
1 86 270.0 -72 40.0 -1 0 0 0 1 0 0 0 -1 3002.DAT
0 STEP
1 86 250.0 -96 60.0 0 0 1 0 1 0 -1 0 0 3010.DAT
0 STEP
1 86 250.0 -120 30.0 0 0 1 0 1 0 -1 0 0 3005.DAT
0 STEP
1 86 260.0 -192 40.0 0 0 1 0 1 0 -1 0 0 3003.DAT
0 STEP
1 86 270.0 -216 30.0 -1 0 0 0 1 0 0 0 -1 3622.DAT
0 STEP
1 86 250.0 -240 30.0 0 0 1 0 1 0 -1 0 0 3005.DAT
0 STEP
1 86 270.0 -696 40.0 -1 0 0 0 1 0 0 0 -1 3002.DAT
0 STEP
1 86 250.0 -720 60.0 0 0 1 0 1 0 -1 0 0 3010.DAT
0 STEP
1 86 280.0 -768 30.0 -1 0 0 0 1 0 0 0 -1 3010.DAT
0 STEP
1 86 250.0 -792 50.0 0 0 1 0 1 0 -1 0 0 3622.DAT
0 STEP
1 86 270.0 -816 30.0 -1 0 0 0 1 0 0 0 -1 3622.DAT
0 STEP
1 86 250.0 -840 80.0 0 0 1 0 1 0 -1 0 0 3009.DAT
0 STEP
1 86 250.0 -24 50.0 0 0 1 0 1 0 -1 0 0 3005.DAT
0 STEP
1 86 250.0 -216 100.0 0 0 1 0 1 0 -1 0 0 3009.DAT
0 STEP
1 86 260.0 -312 50.0 -1 0 0 0 1 0 0 0 -1 3004.DAT
0 STEP
1 86 260.0 -336 80.0 0 0 1 0 1 0 -1 0 0 3001.DAT
0 STEP
1 86 280.0 -360 60.0 -1 0 0 0 1 0 0 0 -1 3001.DAT
0 STEP
1 86 250.0 -384 80.0 0 0 1 0 1 0 -1 0 0 3010.DAT
0 STEP
1 86 280.0 -408 50.0 -1 0 0 0 1 0 0 0 -1 3010.DAT
0 STEP
1 86 250.0 -432 80.0 0 0 1 0 1 0 -1 0 0 3010.DAT
0 STEP
1 86 280.0 -456 50.0 -1 0 0 0 1 0 0 0 -1 3010.DAT
0 STEP
1 86 280.0 -480 60.0 -1 0 0 0 1 0 0 0 -1 3001.DAT
0 STEP
1 86 270.0 -504 50.0 -1 0 0 0 1 0 0 0 -1 3622.DAT
0 STEP
1 86 280.0 -528 50.0 -1 0 0 0 1 0 0 0 -1 3010.DAT
0 STEP
1 86 250.0 -552 60.0 0 0 1 0 1 0 -1 0 0 3004.DAT
0 STEP
1 86 280.0 -576 50.0 -1 0 0 0 1 0 0 0 -1 3010.DAT
0 STEP
1 86 260.0 -600 80.0 0 0 1 0 1 0 -1 0 0 3001.DAT
0 STEP
1 86 280.0 -624 60.0 -1 0 0 0 1 0 0 0 -1 3001.DAT
0 STEP
1 86 280.0 -648 60.0 -1 0 0 0 1 0 0 0 -1 3001.DAT
0 STEP
1 86 260.0 -672 70.0 0 0 1 0 1 0 -1 0 0 3002.DAT
0 STEP
1 86 250.0 -984 50.0 0 0 1 0 1 0 -1 0 0 3005.DAT
0 STEP
1 86 270.0 0 80.0 -1 0 0 0 1 0 0 0 -1 3002.DAT
0 STEP
1 86 270.0 -72 70.0 -1 0 0 0 1 0 0 0 -1 3622.DAT
0 STEP
1 86 250.0 -168 70.0 0 0 1 0 1 0 -1 0 0 3005.DAT
0 STEP
1 86 260.0 -288 100.0 0 0 1 0 1 0 -1 0 0 3001.DAT
0 STEP
1 86 260.0 -456 100.0 0 0 1 0 1 0 -1 0 0 3001.DAT
0 STEP
1 86 280.0 -528 80.0 -1 0 0 0 1 0 0 0 -1 3001.DAT
0 STEP
1 86 280.0 -576 80.0 -1 0 0 0 1 0 0 0 -1 3001.DAT
0 STEP
1 86 280.0 -888 80.0 -1 0 0 0 1 0 0 0 -1 3001.DAT
0 STEP
1 86 250.0 -984 100.0 0 0 1 0 1 0 -1 0 0 3010.DAT
0 STEP
1 86 280.0 -1392 70.0 -1 0 0 0 1 0 0 0 -1 3010.DAT
0 STEP
1 86 250.0 -72 120.0 0 0 1 0 1 0 -1 0 0 3010.DAT
0 STEP
1 86 250.0 -168 120.0 0 0 1 0 1 0 -1 0 0 3010.DAT
0 STEP
1 86 250.0 -240 90.0 0 0 1 0 1 0 -1 0 0 3005.DAT
0 STEP
1 86 250.0 -360 110.0 0 0 1 0 1 0 -1 0 0 3622.DAT
0 STEP
1 86 250.0 -408 110.0 0 0 1 0 1 0 -1 0 0 3622.DAT
0 STEP
1 86 280.0 -480 100.0 -1 0 0 0 1 0 0 0 -1 3001.DAT
0 STEP
1 86 280.0 -648 100.0 -1 0 0 0 1 0 0 0 -1 3001.DAT
0 STEP
1 86 270.0 0 110.0 -1 0 0 0 1 0 0 0 -1 3622.DAT
0 STEP
1 86 250.0 -24 120.0 0 0 1 0 1 0 -1 0 0 3004.DAT
0 STEP
1 86 280.0 -96 110.0 -1 0 0 0 1 0 0 0 -1 3010.DAT
0 STEP
1 86 280.0 -144 120.0 -1 0 0 0 1 0 0 0 -1 3001.DAT
0 STEP
1 86 260.0 -240 120.0 0 0 1 0 1 0 -1 0 0 3003.DAT
0 STEP
1 86 270.0 -528 120.0 -1 0 0 0 1 0 0 0 -1 3002.DAT
0 STEP
1 86 280.0 -576 120.0 -1 0 0 0 1 0 0 0 -1 3001.DAT
0 STEP
1 86 280.0 -720 120.0 -1 0 0 0 1 0 0 0 -1 3001.DAT
0 STEP
1 86 280.0 -888 120.0 -1 0 0 0 1 0 0 0 -1 3001.DAT
0 STEP
1 86 280.0 -48 130.0 -1 0 0 0 1 0 0 0 -1 3010.DAT
0 STEP
1 86 280.0 -264 130.0 -1 0 0 0 1 0 0 0 -1 3010.DAT
0 STEP
1 86 280.0 -312 130.0 -1 0 0 0 1 0 0 0 -1 3010.DAT
0 STEP
1 86 260.0 -336 130.0 -1 0 0 0 1 0 0 0 -1 3004.DAT
0 STEP
1 86 250.0 -384 130.0 0 0 1 0 1 0 -1 0 0 3005.DAT
0 STEP
1 86 250.0 -432 130.0 0 0 1 0 1 0 -1 0 0 3005.DAT
0 STEP
1 86 270.0 -480 130.0 -1 0 0 0 1 0 0 0 -1 3622.DAT
0 STEP
1 86 250.0 -504 130.0 0 0 1 0 1 0 -1 0 0 3005.DAT
0 STEP
1 86 270.0 -552 130.0 -1 0 0 0 1 0 0 0 -1 3622.DAT
0 STEP
1 86 280.0 -600 130.0 -1 0 0 0 1 0 0 0 -1 3010.DAT
0 STEP
1 86 260.0 -624 130.0 -1 0 0 0 1 0 0 0 -1 3004.DAT
0 STEP
1 86 280.0 -648 130.0 -1 0 0 0 1 0 0 0 -1 3010.DAT
0 STEP
1 86 260.0 -696 140.0 0 0 1 0 1 0 -1 0 0 3003.DAT
0 STEP
1 86 300.0 -960 130.0 -1 0 0 0 1 0 0 0 -1 3009.DAT
0 STEP
1 86 270.0 -96 150.0 -1 0 0 0 1 0 0 0 -1 3622.DAT
0 STEP
1 86 280.0 -120 150.0 -1 0 0 0 1 0 0 0 -1 3010.DAT
0 STEP
1 86 280.0 -144 150.0 -1 0 0 0 1 0 0 0 -1 3010.DAT
0 STEP
1 86 280.0 -192 150.0 -1 0 0 0 1 0 0 0 -1 3010.DAT
0 STEP
1 86 270.0 -720 150.0 -1 0 0 0 1 0 0 0 -1 3622.DAT
0 STEP
1 86 280.0 -792 150.0 -1 0 0 0 1 0 0 0 -1 3010.DAT
0 STEP
1 86 250.0 -816 150.0 0 0 1 0 1 0 -1 0 0 3005.DAT
0 STEP
1 86 270.0 -144 20.0 0 0 1 0 1 0 -1 0 0 3004.DAT
0 STEP
1 86 270.0 -168 10.0 0 0 1 0 1 0 -1 0 0 3005.DAT
0 STEP
1 86 280.0 -96 30.0 -1 0 0 0 1 0 0 0 -1 3004.DAT
0 STEP
1 86 280.0 -120 40.0 0 0 1 0 1 0 -1 0 0 3003.DAT
0 STEP
1 86 270.0 -240 50.0 0 0 1 0 1 0 -1 0 0 3622.DAT
0 STEP
1 86 280.0 -720 30.0 -1 0 0 0 1 0 0 0 -1 3004.DAT
0 STEP
1 86 280.0 -792 50.0 0 0 1 0 1 0 -1 0 0 3002.DAT
0 STEP
1 86 270.0 -840 30.0 0 0 1 0 1 0 -1 0 0 3005.DAT
0 STEP
1 86 280.0 -24 60.0 0 0 1 0 1 0 -1 0 0 3003.DAT
0 STEP
1 86 300.0 -96 50.0 -1 0 0 0 1 0 0 0 -1 3010.DAT
0 STEP
1 86 300.0 -144 50.0 -1 0 0 0 1 0 0 0 -1 3010.DAT
0 STEP
1 86 280.0 -216 60.0 0 0 1 0 1 0 -1 0 0 3003.DAT
0 STEP
1 86 280.0 -264 80.0 0 0 1 0 1 0 -1 0 0 3001.DAT
0 STEP
1 86 280.0 -384 50.0 -1 0 0 0 1 0 0 0 -1 3004.DAT
0 STEP
1 86 270.0 -432 50.0 0 0 1 0 1 0 -1 0 0 3005.DAT
0 STEP
1 86 270.0 -552 70.0 0 0 1 0 1 0 -1 0 0 3622.DAT
0 STEP
1 86 300.0 -720 60.0 -1 0 0 0 1 0 0 0 -1 3001.DAT
0 STEP
1 86 290.0 -840 50.0 -1 0 0 0 1 0 0 0 -1 3622.DAT
0 STEP
1 86 300.0 -936 50.0 -1 0 0 0 1 0 0 0 -1 3010.DAT
0 STEP
1 86 270.0 -48 70.0 0 0 1 0 1 0 -1 0 0 3005.DAT
0 STEP
1 86 270.0 -96 70.0 0 0 1 0 1 0 -1 0 0 3005.DAT
0 STEP
1 86 280.0 -384 100.0 0 0 1 0 1 0 -1 0 0 3001.DAT
0 STEP
1 86 270.0 -432 100.0 0 0 1 0 1 0 -1 0 0 3010.DAT
0 STEP
1 86 280.0 -504 100.0 0 0 1 0 1 0 -1 0 0 3001.DAT
0 STEP
1 86 300.0 -840 70.0 -1 0 0 0 1 0 0 0 -1 3010.DAT
0 STEP
1 86 270.0 -912 100.0 0 0 1 0 1 0 -1 0 0 3010.DAT
0 STEP
1 86 270.0 -936 90.0 0 0 1 0 1 0 -1 0 0 3622.DAT
0 STEP
1 86 270.0 -24 110.0 0 0 1 0 1 0 -1 0 0 3622.DAT
0 STEP
1 86 300.0 -48 90.0 -1 0 0 0 1 0 0 0 -1 3010.DAT
0 STEP
1 86 290.0 -360 100.0 -1 0 0 0 1 0 0 0 -1 3002.DAT
0 STEP
1 86 290.0 -408 100.0 -1 0 0 0 1 0 0 0 -1 3002.DAT
0 STEP
1 86 300.0 -840 100.0 -1 0 0 0 1 0 0 0 -1 3001.DAT
0 STEP
1 86 270.0 -1416 100.0 0 0 1 0 1 0 -1 0 0 3004.DAT
0 STEP
1 86 290.0 -48 110.0 -1 0 0 0 1 0 0 0 -1 3622.DAT
0 STEP
1 86 270.0 -72 130.0 0 0 1 0 1 0 -1 0 0 3622.DAT
0 STEP
1 86 280.0 -168 130.0 0 0 1 0 1 0 -1 0 0 3002.DAT
0 STEP
1 86 270.0 -216 130.0 0 0 1 0 1 0 -1 0 0 3622.DAT
0 STEP
1 86 280.0 -768 130.0 0 0 1 0 1 0 -1 0 0 3002.DAT
0 STEP
1 86 280.0 -816 130.0 0 0 1 0 1 0 -1 0 0 3002.DAT
0 STEP
1 86 280.0 -360 130.0 -1 0 0 0 1 0 0 0 -1 3004.DAT
0 STEP
1 86 280.0 -408 130.0 -1 0 0 0 1 0 0 0 -1 3004.DAT
0 STEP
1 86 290.0 -840 130.0 -1 0 0 0 1 0 0 0 -1 3622.DAT
0 STEP
1 86 280.0 -240 150.0 -1 0 0 0 1 0 0 0 -1 3004.DAT
0 STEP
1 86 290.0 -144 10.0 0 0 1 0 1 0 -1 0 0 3005.DAT
0 STEP
1 86 290.0 -168 40.0 0 0 1 0 1 0 -1 0 0 3010.DAT
0 STEP
1 86 300.0 -144 30.0 -1 0 0 0 1 0 0 0 -1 3004.DAT
0 STEP
1 86 290.0 -192 30.0 0 0 1 0 1 0 -1 0 0 3005.DAT
0 STEP
1 86 290.0 -240 30.0 0 0 1 0 1 0 -1 0 0 3005.DAT
0 STEP
1 86 300.0 -48 60.0 0 0 1 0 1 0 -1 0 0 3003.DAT
0 STEP
1 86 310.0 -192 50.0 -1 0 0 0 1 0 0 0 -1 3622.DAT
0 STEP
1 86 300.0 -240 50.0 -1 0 0 0 1 0 0 0 -1 3004.DAT
0 STEP
1 86 300.0 -312 80.0 0 0 1 0 1 0 -1 0 0 3001.DAT
0 STEP
1 86 290.0 -336 50.0 0 0 1 0 1 0 -1 0 0 3005.DAT
0 STEP
1 86 300.0 -432 80.0 0 0 1 0 1 0 -1 0 0 3001.DAT
0 STEP
1 86 300.0 -552 80.0 0 0 1 0 1 0 -1 0 0 3001.DAT
0 STEP
1 86 300.0 -600 80.0 0 0 1 0 1 0 -1 0 0 3001.DAT
0 STEP
1 86 290.0 -672 70.0 0 0 1 0 1 0 -1 0 0 3622.DAT
0 STEP
1 86 310.0 -768 50.0 -1 0 0 0 1 0 0 0 -1 3622.DAT
0 STEP
1 86 290.0 -912 80.0 0 0 1 0 1 0 -1 0 0 3010.DAT
0 STEP
1 86 300.0 -960 50.0 -1 0 0 0 1 0 0 0 -1 3004.DAT
0 STEP
1 86 310.0 -96 80.0 -1 0 0 0 1 0 0 0 -1 3002.DAT
0 STEP
1 86 300.0 -120 100.0 0 0 1 0 1 0 -1 0 0 3001.DAT
0 STEP
1 86 310.0 -144 80.0 -1 0 0 0 1 0 0 0 -1 3002.DAT
0 STEP
1 86 310.0 -192 80.0 -1 0 0 0 1 0 0 0 -1 3002.DAT
0 STEP
1 86 300.0 -240 100.0 0 0 1 0 1 0 -1 0 0 3001.DAT
0 STEP
1 86 300.0 -288 70.0 -1 0 0 0 1 0 0 0 -1 3004.DAT
0 STEP
1 86 290.0 -336 100.0 0 0 1 0 1 0 -1 0 0 3010.DAT
0 STEP
1 86 290.0 -456 100.0 0 0 1 0 1 0 -1 0 0 3010.DAT
0 STEP
1 86 300.0 -768 70.0 -1 0 0 0 1 0 0 0 -1 3004.DAT
0 STEP
1 86 290.0 -936 100.0 0 0 1 0 1 0 -1 0 0 3010.DAT
0 STEP
1 86 290.0 -1368 80.0 0 0 1 0 1 0 -1 0 0 3004.DAT
0 STEP
1 86 300.0 -24 100.0 0 0 1 0 1 0 -1 0 0 3003.DAT
0 STEP
1 86 290.0 -72 120.0 0 0 1 0 1 0 -1 0 0 3010.DAT
0 STEP
1 86 290.0 -168 90.0 0 0 1 0 1 0 -1 0 0 3005.DAT
0 STEP
1 86 290.0 -216 120.0 0 0 1 0 1 0 -1 0 0 3010.DAT
0 STEP
1 86 310.0 -288 90.0 -1 0 0 0 1 0 0 0 -1 3622.DAT
0 STEP
1 86 300.0 -624 110.0 0 0 1 0 1 0 -1 0 0 3002.DAT
0 STEP
1 86 290.0 -696 120.0 0 0 1 0 1 0 -1 0 0 3010.DAT
0 STEP
1 86 310.0 -1416 90.0 -1 0 0 0 1 0 0 0 -1 3622.DAT
0 STEP
1 86 300.0 -288 120.0 0 0 1 0 1 0 -1 0 0 3003.DAT
0 STEP
1 86 290.0 -864 120.0 0 0 1 0 1 0 -1 0 0 3004.DAT
0 STEP
1 86 300.0 -1368 110.0 -1 0 0 0 1 0 0 0 -1 3004.DAT
0 STEP
1 86 300.0 -1416 110.0 -1 0 0 0 1 0 0 0 -1 3004.DAT
0 STEP
1 86 290.0 -24 130.0 0 0 1 0 1 0 -1 0 0 3005.DAT
0 STEP
1 86 290.0 -432 130.0 0 0 1 0 1 0 -1 0 0 3005.DAT
0 STEP
1 86 290.0 -744 130.0 0 0 1 0 1 0 -1 0 0 3005.DAT
0 STEP
1 86 310.0 -792 130.0 -1 0 0 0 1 0 0 0 -1 3622.DAT
0 STEP
1 86 320.0 -912 130.0 -1 0 0 0 1 0 0 0 -1 3010.DAT
0 STEP
1 86 300.0 -744 150.0 -1 0 0 0 1 0 0 0 -1 3004.DAT
0 STEP
1 86 310.0 -168 60.0 0 0 1 0 1 0 -1 0 0 3010.DAT
0 STEP
1 86 310.0 -744 80.0 0 0 1 0 1 0 -1 0 0 3009.DAT
0 STEP
1 86 310.0 -72 50.0 0 0 1 0 1 0 -1 0 0 3005.DAT
0 STEP
1 86 310.0 -120 50.0 0 0 1 0 1 0 -1 0 0 3005.DAT
0 STEP
1 86 310.0 -216 80.0 0 0 1 0 1 0 -1 0 0 3010.DAT
0 STEP
1 86 310.0 -264 80.0 0 0 1 0 1 0 -1 0 0 3010.DAT
0 STEP
1 86 310.0 -288 50.0 0 0 1 0 1 0 -1 0 0 3005.DAT
0 STEP
1 86 310.0 -336 80.0 0 0 1 0 1 0 -1 0 0 3010.DAT
0 STEP
1 86 310.0 -384 80.0 0 0 1 0 1 0 -1 0 0 3010.DAT
0 STEP
1 86 310.0 -504 80.0 0 0 1 0 1 0 -1 0 0 3010.DAT
0 STEP
1 86 310.0 -672 50.0 0 0 1 0 1 0 -1 0 0 3005.DAT
0 STEP
1 86 310.0 -696 50.0 0 0 1 0 1 0 -1 0 0 3005.DAT
0 STEP
1 86 310.0 -792 80.0 0 0 1 0 1 0 -1 0 0 3010.DAT
0 STEP
1 86 310.0 -816 100.0 0 0 1 0 1 0 -1 0 0 3009.DAT
0 STEP
1 86 310.0 -864 80.0 0 0 1 0 1 0 -1 0 0 3010.DAT
0 STEP
1 86 330.0 -912 60.0 -1 0 0 0 1 0 0 0 -1 3002.DAT
0 STEP
1 86 310.0 -24 70.0 0 0 1 0 1 0 -1 0 0 3005.DAT
0 STEP
1 86 320.0 -72 100.0 0 0 1 0 1 0 -1 0 0 3001.DAT
0 STEP
1 86 310.0 -408 70.0 0 0 1 0 1 0 -1 0 0 3005.DAT
0 STEP
1 86 310.0 -456 90.0 0 0 1 0 1 0 -1 0 0 3622.DAT
0 STEP
1 86 320.0 -672 90.0 0 0 1 0 1 0 -1 0 0 3002.DAT
0 STEP
1 86 330.0 -936 80.0 -1 0 0 0 1 0 0 0 -1 3002.DAT
0 STEP
1 86 310.0 -696 110.0 0 0 1 0 1 0 -1 0 0 3622.DAT
0 STEP
1 86 330.0 -720 90.0 -1 0 0 0 1 0 0 0 -1 3622.DAT
0 STEP
1 86 310.0 -768 120.0 0 0 1 0 1 0 -1 0 0 3010.DAT
0 STEP
1 86 310.0 -912 100.0 0 0 1 0 1 0 -1 0 0 3004.DAT
0 STEP
1 86 310.0 -960 90.0 0 0 1 0 1 0 -1 0 0 3005.DAT
0 STEP
1 86 310.0 -1368 90.0 0 0 1 0 1 0 -1 0 0 3005.DAT
0 STEP
1 86 310.0 -168 110.0 0 0 1 0 1 0 -1 0 0 3005.DAT
0 STEP
1 86 310.0 -528 110.0 0 0 1 0 1 0 -1 0 0 3005.DAT
0 STEP
1 86 330.0 -936 120.0 -1 0 0 0 1 0 0 0 -1 3002.DAT
0 STEP
1 86 310.0 -96 140.0 0 0 1 0 1 0 -1 0 0 3004.DAT
0 STEP
1 86 320.0 -168 130.0 -1 0 0 0 1 0 0 0 -1 3004.DAT
0 STEP
1 86 310.0 -216 130.0 0 0 1 0 1 0 -1 0 0 3005.DAT
0 STEP
1 86 310.0 -672 130.0 0 0 1 0 1 0 -1 0 0 3005.DAT
0 STEP
1 86 310.0 -864 130.0 0 0 1 0 1 0 -1 0 0 3005.DAT
0 STEP
1 86 310.0 -168 150.0 0 0 1 0 1 0 -1 0 0 3005.DAT
0 STEP
1 86 330.0 -120 80.0 0 0 1 0 1 0 -1 0 0 3010.DAT
0 STEP
1 86 330.0 -168 80.0 0 0 1 0 1 0 -1 0 0 3010.DAT
0 STEP
1 86 330.0 -216 50.0 0 0 1 0 1 0 -1 0 0 3005.DAT
0 STEP
1 86 330.0 -744 50.0 0 0 1 0 1 0 -1 0 0 3005.DAT
0 STEP
1 86 330.0 -792 50.0 0 0 1 0 1 0 -1 0 0 3005.DAT
0 STEP
1 86 330.0 -816 80.0 0 0 1 0 1 0 -1 0 0 3010.DAT
0 STEP
1 86 330.0 -960 80.0 0 0 1 0 1 0 -1 0 0 3010.DAT
0 STEP
1 86 330.0 -216 100.0 0 0 1 0 1 0 -1 0 0 3010.DAT
0 STEP
1 86 330.0 -240 90.0 0 0 1 0 1 0 -1 0 0 3622.DAT
0 STEP
1 86 330.0 -264 90.0 0 0 1 0 1 0 -1 0 0 3622.DAT
0 STEP
1 86 330.0 -696 90.0 0 0 1 0 1 0 -1 0 0 3622.DAT
0 STEP
1 86 340.0 -744 90.0 0 0 1 0 1 0 -1 0 0 3002.DAT
0 STEP
1 86 330.0 -768 100.0 0 0 1 0 1 0 -1 0 0 3010.DAT
0 STEP
1 86 340.0 -792 90.0 0 0 1 0 1 0 -1 0 0 3002.DAT
0 STEP
1 86 340.0 -864 70.0 -1 0 0 0 1 0 0 0 -1 3004.DAT
0 STEP
1 86 340.0 -888 100.0 0 0 1 0 1 0 -1 0 0 3001.DAT
0 STEP
1 86 330.0 -312 90.0 0 0 1 0 1 0 -1 0 0 3005.DAT
0 STEP
1 86 350.0 -864 90.0 -1 0 0 0 1 0 0 0 -1 3622.DAT
0 STEP
1 86 380.0 -912 90.0 -1 0 0 0 1 0 0 0 -1 3009.DAT
0 STEP
1 86 330.0 -96 120.0 0 0 1 0 1 0 -1 0 0 3004.DAT
0 STEP
1 86 330.0 -144 120.0 0 0 1 0 1 0 -1 0 0 3004.DAT
0 STEP
1 86 330.0 -720 120.0 0 0 1 0 1 0 -1 0 0 3004.DAT
0 STEP
1 86 340.0 -864 110.0 -1 0 0 0 1 0 0 0 -1 3004.DAT
0 STEP
1 86 340.0 -912 110.0 -1 0 0 0 1 0 0 0 -1 3004.DAT
0 STEP
1 86 330.0 -120 130.0 0 0 1 0 1 0 -1 0 0 3005.DAT
0 STEP
1 86 330.0 -744 130.0 0 0 1 0 1 0 -1 0 0 3005.DAT
0 STEP
1 86 330.0 -816 130.0 0 0 1 0 1 0 -1 0 0 3005.DAT
0 STEP
1 86 350.0 -936 50.0 0 0 1 0 1 0 -1 0 0 3005.DAT
0 STEP
1 86 360.0 -960 60.0 0 0 1 0 1 0 -1 0 0 3003.DAT
0 STEP
1 86 350.0 -768 90.0 0 0 1 0 1 0 -1 0 0 3622.DAT
0 STEP
1 86 350.0 -816 90.0 0 0 1 0 1 0 -1 0 0 3005.DAT
0 STEP
1 86 380.0 -960 90.0 -1 0 0 0 1 0 0 0 -1 3010.DAT
0 STEP
1 86 350.0 -960 110.0 0 0 1 0 1 0 -1 0 0 3005.DAT
0 STEP
1 86 380.0 -936 80.0 0 0 1 0 1 0 -1 0 0 3001.DAT
0 STEP
1 86 400.0 -984 60.0 -1 0 0 0 1 0 0 0 -1 3001.DAT
0 STEP
1 86 370.0 -888 90.0 0 0 1 0 1 0 -1 0 0 3622.DAT
0 STEP
1 86 400.0 -912 70.0 -1 0 0 0 1 0 0 0 -1 3010.DAT
0 STEP
1 86 370.0 -984 90.0 0 0 1 0 1 0 -1 0 0 3005.DAT
0 STEP
1 86 390.0 -912 120.0 -1 0 0 0 1 0 0 0 -1 3002.DAT
0 STEP
1 86 370.0 -960 120.0 0 0 1 0 1 0 -1 0 0 3004.DAT
0 STEP
1 86 400.0 -984 120.0 -1 0 0 0 1 0 0 0 -1 3001.DAT
0 STEP
1 86 380.0 -936 130.0 -1 0 0 0 1 0 0 0 -1 3004.DAT
0 STEP
1 86 410.0 -960 60.0 -1 0 0 0 1 0 0 0 -1 3002.DAT
0 STEP
1 86 390.0 -888 70.0 0 0 1 0 1 0 -1 0 0 3005.DAT
0 STEP
1 86 400.0 -888 90.0 -1 0 0 0 1 0 0 0 -1 3004.DAT
0 STEP
1 86 420.0 -984 90.0 -1 0 0 0 1 0 0 0 -1 3010.DAT
0 STEP
1 86 390.0 -888 110.0 0 0 1 0 1 0 -1 0 0 3005.DAT
0 STEP
1 86 390.0 -960 110.0 0 0 1 0 1 0 -1 0 0 3005.DAT
0 STEP
1 86 420.0 -960 130.0 -1 0 0 0 1 0 0 0 -1 3010.DAT
0 STEP
1 86 410.0 -936 100.0 0 0 1 0 1 0 -1 0 0 3010.DAT
0 STEP
1 86 410.0 -1008 80.0 0 0 1 0 1 0 -1 0 0 3004.DAT
0 STEP
1 86 440.0 -960 110.0 -1 0 0 0 1 0 0 0 -1 3010.DAT
0 STEP
1 86 440.0 -1008 110.0 -1 0 0 0 1 0 0 0 -1 3010.DAT
0 STEP
1 86 440.0 -936 70.0 -1 0 0 0 1 0 0 0 -1 3004.DAT
0 STEP
1 86 460.0 -1008 80.0 -1 0 0 0 1 0 0 0 -1 3001.DAT
0 STEP
1 86 450.0 -936 90.0 -1 0 0 0 1 0 0 0 -1 3622.DAT
0 STEP
1 86 430.0 -960 90.0 0 0 1 0 1 0 -1 0 0 3005.DAT
0 STEP
1 86 430.0 -912 110.0 0 0 1 0 1 0 -1 0 0 3005.DAT
0 STEP
1 86 430.0 -936 120.0 0 0 1 0 1 0 -1 0 0 3004.DAT
0 STEP
1 86 430.0 -1008 130.0 0 0 1 0 1 0 -1 0 0 3005.DAT
0 STEP
1 86 460.0 -960 80.0 0 0 1 0 1 0 -1 0 0 3003.DAT
0 STEP
1 86 450.0 -984 70.0 0 0 1 0 1 0 -1 0 0 3005.DAT
0 STEP
1 86 450.0 -1032 90.0 0 0 1 0 1 0 -1 0 0 3622.DAT
0 STEP
1 86 470.0 -1056 100.0 -1 0 0 0 1 0 0 0 -1 3002.DAT
0 STEP
1 86 450.0 -936 110.0 0 0 1 0 1 0 -1 0 0 3005.DAT
0 STEP
1 86 450.0 -984 120.0 0 0 1 0 1 0 -1 0 0 3004.DAT
0 STEP
1 86 480.0 -984 90.0 0 0 1 0 1 0 -1 0 0 3002.DAT
0 STEP
1 86 480.0 -1032 90.0 0 0 1 0 1 0 -1 0 0 3002.DAT
0 STEP
1 86 480.0 -1056 70.0 -1 0 0 0 1 0 0 0 -1 3004.DAT
0 STEP
1 86 470.0 -1080 90.0 0 0 1 0 1 0 -1 0 0 3622.DAT
0 STEP
1 86 490.0 -1104 90.0 -1 0 0 0 1 0 0 0 -1 3622.DAT
0 STEP
1 86 480.0 -1104 110.0 -1 0 0 0 1 0 0 0 -1 3004.DAT
0 STEP
1 86 490.0 -1080 70.0 0 0 1 0 1 0 -1 0 0 3005.DAT
0 STEP
1 86 500.0 -1080 90.0 -1 0 0 0 1 0 0 0 -1 3004.DAT
0 STEP
1 86 490.0 -1128 100.0 0 0 1 0 1 0 -1 0 0 3004.DAT
0 STEP
1 86 490.0 -1008 110.0 0 0 1 0 1 0 -1 0 0 3005.DAT
0 STEP
1 86 490.0 -1080 110.0 0 0 1 0 1 0 -1 0 0 3005.DAT
0 STEP
1 86 510.0 -1128 90.0 0 0 1 0 1 0 -1 0 0 3005.DAT
0 STEP
