1 86 20.0 -144 180.0 0 0 1 0 1 0 -1 0 0 3001.DAT
0 STEP
1 86 20.0 -168 210.0 -1 0 0 0 1 0 0 0 -1 3004.DAT
0 STEP
1 86 20.0 -168 240.0 0 0 1 0 1 0 -1 0 0 3003.DAT
0 STEP
1 86 30.0 -168 20.0 0 0 1 0 1 0 -1 0 0 3004.DAT
0 STEP
1 86 30.0 -72 80.0 0 0 1 0 1 0 -1 0 0 3009.DAT
0 STEP
1 86 30.0 -144 40.0 0 0 1 0 1 0 -1 0 0 3004.DAT
0 STEP
1 86 30.0 -192 40.0 0 0 1 0 1 0 -1 0 0 3004.DAT
0 STEP
1 86 30.0 -264 80.0 0 0 1 0 1 0 -1 0 0 3009.DAT
0 STEP
1 86 30.0 -96 50.0 0 0 1 0 1 0 -1 0 0 3005.DAT
0 STEP
1 86 30.0 -120 80.0 0 0 1 0 1 0 -1 0 0 3010.DAT
0 STEP
1 86 30.0 -168 120.0 0 0 1 0 1 0 -1 0 0 3008.DAT
0 STEP
1 86 30.0 -216 80.0 0 0 1 0 1 0 -1 0 0 3010.DAT
0 STEP
1 86 30.0 -240 80.0 0 0 1 0 1 0 -1 0 0 3010.DAT
0 STEP
1 86 30.0 -96 100.0 0 0 1 0 1 0 -1 0 0 3010.DAT
0 STEP
1 86 30.0 -144 70.0 0 0 1 0 1 0 -1 0 0 3005.DAT
0 STEP
1 86 30.0 -192 70.0 0 0 1 0 1 0 -1 0 0 3005.DAT
0 STEP
1 86 30.0 -48 100.0 0 0 1 0 1 0 -1 0 0 3004.DAT
0 STEP
1 86 30.0 -144 100.0 0 0 1 0 1 0 -1 0 0 3004.DAT
0 STEP
1 86 30.0 -192 120.0 0 0 1 0 1 0 -1 0 0 3010.DAT
0 STEP
1 86 30.0 -360 100.0 0 0 1 0 1 0 -1 0 0 3004.DAT
0 STEP
1 86 30.0 -384 90.0 0 0 1 0 1 0 -1 0 0 3005.DAT
0 STEP
1 86 30.0 -408 100.0 0 0 1 0 1 0 -1 0 0 3004.DAT
0 STEP
1 86 30.0 -432 90.0 0 0 1 0 1 0 -1 0 0 3005.DAT
0 STEP
1 86 30.0 -456 100.0 0 0 1 0 1 0 -1 0 0 3004.DAT
0 STEP
1 86 30.0 -480 90.0 0 0 1 0 1 0 -1 0 0 3005.DAT
0 STEP
1 86 30.0 -504 100.0 0 0 1 0 1 0 -1 0 0 3004.DAT
0 STEP
1 86 30.0 -528 90.0 0 0 1 0 1 0 -1 0 0 3005.DAT
0 STEP
1 86 30.0 -552 100.0 0 0 1 0 1 0 -1 0 0 3004.DAT
0 STEP
1 86 30.0 -576 90.0 0 0 1 0 1 0 -1 0 0 3005.DAT
0 STEP
1 86 30.0 -600 100.0 0 0 1 0 1 0 -1 0 0 3004.DAT
0 STEP
1 86 30.0 0 120.0 0 0 1 0 1 0 -1 0 0 3004.DAT
0 STEP
1 86 30.0 -24 120.0 0 0 1 0 1 0 -1 0 0 3004.DAT
0 STEP
1 86 30.0 -288 120.0 0 0 1 0 1 0 -1 0 0 3004.DAT
0 STEP
1 86 30.0 -312 120.0 0 0 1 0 1 0 -1 0 0 3004.DAT
0 STEP
1 86 30.0 -336 120.0 0 0 1 0 1 0 -1 0 0 3004.DAT
0 STEP
1 86 30.0 -384 120.0 0 0 1 0 1 0 -1 0 0 3004.DAT
0 STEP
1 86 30.0 -432 120.0 0 0 1 0 1 0 -1 0 0 3004.DAT
0 STEP
1 86 30.0 -480 120.0 0 0 1 0 1 0 -1 0 0 3004.DAT
0 STEP
1 86 30.0 -528 120.0 0 0 1 0 1 0 -1 0 0 3004.DAT
0 STEP
1 86 30.0 -576 120.0 0 0 1 0 1 0 -1 0 0 3004.DAT
0 STEP
1 86 30.0 -624 120.0 0 0 1 0 1 0 -1 0 0 3004.DAT
0 STEP
1 86 30.0 -648 110.0 0 0 1 0 1 0 -1 0 0 3005.DAT
0 STEP
1 86 30.0 -672 110.0 0 0 1 0 1 0 -1 0 0 3005.DAT
0 STEP
1 86 30.0 -696 110.0 0 0 1 0 1 0 -1 0 0 3005.DAT
0 STEP
1 86 30.0 -720 110.0 0 0 1 0 1 0 -1 0 0 3005.DAT
0 STEP
1 86 30.0 -48 130.0 0 0 1 0 1 0 -1 0 0 3005.DAT
0 STEP
1 86 30.0 -144 130.0 0 0 1 0 1 0 -1 0 0 3005.DAT
0 STEP
1 86 30.0 -240 130.0 0 0 1 0 1 0 -1 0 0 3005.DAT
0 STEP
1 86 30.0 -360 130.0 0 0 1 0 1 0 -1 0 0 3005.DAT
0 STEP
1 86 30.0 -408 130.0 0 0 1 0 1 0 -1 0 0 3005.DAT
0 STEP
1 86 30.0 -456 130.0 0 0 1 0 1 0 -1 0 0 3005.DAT
0 STEP
1 86 30.0 -504 130.0 0 0 1 0 1 0 -1 0 0 3005.DAT
0 STEP
1 86 30.0 -552 130.0 0 0 1 0 1 0 -1 0 0 3005.DAT
0 STEP
1 86 30.0 -600 130.0 0 0 1 0 1 0 -1 0 0 3005.DAT
0 STEP
