1 86 10.0 0 320.0 0 0 1 0 1 0 -1 0 0 3004.DAT
0 STEP
1 86 30.0 -24 330.0 -1 0 0 0 1 0 0 0 -1 3622.DAT
0 STEP
1 86 30.0 0 330.0 0 0 1 0 1 0 -1 0 0 3622.DAT
0 STEP
1 86 50.0 -24 350.0 -1 0 0 0 1 0 0 0 -1 3622.DAT
0 STEP
1 86 40.0 -432 460.0 0 0 1 0 1 0 -1 0 0 3003.DAT
0 STEP
1 86 50.0 -456 480.0 -1 0 0 0 1 0 0 0 -1 3002.DAT
0 STEP
1 86 50.0 -408 500.0 -1 0 0 0 1 0 0 0 -1 3002.DAT
0 STEP
1 86 30.0 -432 500.0 0 0 1 0 1 0 -1 0 0 3004.DAT
0 STEP
1 86 50.0 0 350.0 0 0 1 0 1 0 -1 0 0 3005.DAT
0 STEP
1 86 50.0 -48 360.0 0 0 1 0 1 0 -1 0 0 3004.DAT
0 STEP
1 86 60.0 0 370.0 -1 0 0 0 1 0 0 0 -1 3004.DAT
0 STEP
1 86 50.0 -24 380.0 0 0 1 0 1 0 -1 0 0 3004.DAT
0 STEP
1 86 80.0 -456 370.0 -1 0 0 0 1 0 0 0 -1 3010.DAT
0 STEP
1 86 50.0 -480 370.0 0 0 1 0 1 0 -1 0 0 3005.DAT
0 STEP
1 86 70.0 -504 370.0 -1 0 0 0 1 0 0 0 -1 3622.DAT
0 STEP
1 86 50.0 -528 390.0 0 0 1 0 1 0 -1 0 0 3622.DAT
0 STEP
1 86 70.0 -552 380.0 -1 0 0 0 1 0 0 0 -1 3002.DAT
0 STEP
1 86 70.0 -432 390.0 -1 0 0 0 1 0 0 0 -1 3622.DAT
0 STEP
1 86 60.0 -456 410.0 0 0 1 0 1 0 -1 0 0 3002.DAT
0 STEP
1 86 70.0 -480 390.0 -1 0 0 0 1 0 0 0 -1 3622.DAT
0 STEP
1 86 50.0 -504 420.0 0 0 1 0 1 0 -1 0 0 3010.DAT
0 STEP
1 86 50.0 -408 430.0 0 0 1 0 1 0 -1 0 0 3622.DAT
0 STEP
1 86 70.0 -432 420.0 -1 0 0 0 1 0 0 0 -1 3002.DAT
0 STEP
1 86 70.0 -480 420.0 -1 0 0 0 1 0 0 0 -1 3002.DAT
0 STEP
1 86 70.0 -552 420.0 -1 0 0 0 1 0 0 0 -1 3002.DAT
0 STEP
1 86 60.0 -384 460.0 0 0 1 0 1 0 -1 0 0 3001.DAT
0 STEP
1 86 70.0 -528 430.0 -1 0 0 0 1 0 0 0 -1 3622.DAT
0 STEP
1 86 70.0 -456 450.0 -1 0 0 0 1 0 0 0 -1 3622.DAT
0 STEP
1 86 50.0 -480 470.0 0 0 1 0 1 0 -1 0 0 3622.DAT
0 STEP
1 86 50.0 -528 480.0 0 0 1 0 1 0 -1 0 0 3010.DAT
0 STEP
1 86 70.0 -552 460.0 -1 0 0 0 1 0 0 0 -1 3002.DAT
0 STEP
1 86 70.0 -360 480.0 -1 0 0 0 1 0 0 0 -1 3002.DAT
0 STEP
1 86 70.0 -408 470.0 -1 0 0 0 1 0 0 0 -1 3622.DAT
0 STEP
1 86 50.0 -504 470.0 0 0 1 0 1 0 -1 0 0 3005.DAT
0 STEP
1 86 60.0 -336 520.0 0 0 1 0 1 0 -1 0 0 3001.DAT
0 STEP
1 86 50.0 -432 490.0 0 0 1 0 1 0 -1 0 0 3005.DAT
0 STEP
1 86 70.0 -504 490.0 -1 0 0 0 1 0 0 0 -1 3622.DAT
0 STEP
1 86 50.0 -360 540.0 0 0 1 0 1 0 -1 0 0 3010.DAT
0 STEP
1 86 70.0 -384 520.0 -1 0 0 0 1 0 0 0 -1 3002.DAT
0 STEP
1 86 50.0 -432 540.0 0 0 1 0 1 0 -1 0 0 3010.DAT
0 STEP
1 86 70.0 -456 520.0 -1 0 0 0 1 0 0 0 -1 3002.DAT
0 STEP
1 86 50.0 -480 540.0 0 0 1 0 1 0 -1 0 0 3010.DAT
0 STEP
1 86 70.0 -504 520.0 -1 0 0 0 1 0 0 0 -1 3002.DAT
0 STEP
1 86 60.0 -312 560.0 0 0 1 0 1 0 -1 0 0 3001.DAT
0 STEP
1 86 50.0 -408 530.0 0 0 1 0 1 0 -1 0 0 3005.DAT
0 STEP
1 86 50.0 -528 530.0 0 0 1 0 1 0 -1 0 0 3005.DAT
0 STEP
1 86 70.0 -384 560.0 -1 0 0 0 1 0 0 0 -1 3002.DAT
0 STEP
1 86 50.0 -408 580.0 0 0 1 0 1 0 -1 0 0 3010.DAT
0 STEP
1 86 70.0 -456 550.0 -1 0 0 0 1 0 0 0 -1 3622.DAT
0 STEP
1 86 70.0 -504 560.0 -1 0 0 0 1 0 0 0 -1 3002.DAT
0 STEP
1 86 50.0 -336 600.0 0 0 1 0 1 0 -1 0 0 3010.DAT
0 STEP
1 86 70.0 -456 580.0 -1 0 0 0 1 0 0 0 -1 3002.DAT
0 STEP
1 86 50.0 -360 590.0 0 0 1 0 1 0 -1 0 0 3005.DAT
0 STEP
1 86 70.0 -384 590.0 -1 0 0 0 1 0 0 0 -1 3622.DAT
0 STEP
1 86 50.0 -432 590.0 0 0 1 0 1 0 -1 0 0 3005.DAT
0 STEP
1 86 70.0 -312 620.0 -1 0 0 0 1 0 0 0 -1 3002.DAT
0 STEP
1 86 70.0 -360 610.0 -1 0 0 0 1 0 0 0 -1 3622.DAT
0 STEP
1 86 50.0 -384 610.0 0 0 1 0 1 0 -1 0 0 3005.DAT
0 STEP
1 86 70.0 -432 610.0 -1 0 0 0 1 0 0 0 -1 3622.DAT
0 STEP
1 86 50.0 -360 630.0 0 0 1 0 1 0 -1 0 0 3005.DAT
0 STEP
1 86 80.0 -528 330.0 -1 0 0 0 1 0 0 0 -1 3004.DAT
0 STEP
1 86 70.0 -48 370.0 0 0 1 0 1 0 -1 0 0 3622.DAT
0 STEP
1 86 70.0 -456 350.0 0 0 1 0 1 0 -1 0 0 3005.DAT
0 STEP
1 86 70.0 -480 360.0 0 0 1 0 1 0 -1 0 0 3004.DAT
0 STEP
1 86 90.0 -504 350.0 -1 0 0 0 1 0 0 0 -1 3622.DAT
0 STEP
1 86 80.0 -528 380.0 0 0 1 0 1 0 -1 0 0 3001.DAT
0 STEP
1 86 90.0 -552 350.0 -1 0 0 0 1 0 0 0 -1 3622.DAT
0 STEP
1 86 70.0 -576 400.0 0 0 1 0 1 0 -1 0 0 3009.DAT
0 STEP
1 86 100.0 -24 370.0 -1 0 0 0 1 0 0 0 -1 3010.DAT
0 STEP
1 86 70.0 -432 370.0 0 0 1 0 1 0 -1 0 0 3005.DAT
0 STEP
1 86 80.0 -600 420.0 0 0 1 0 1 0 -1 0 0 2456.DAT
0 STEP
1 86 70.0 0 390.0 0 0 1 0 1 0 -1 0 0 3005.DAT
0 STEP
1 86 70.0 -24 400.0 0 0 1 0 1 0 -1 0 0 3004.DAT
0 STEP
1 86 70.0 -408 420.0 0 0 1 0 1 0 -1 0 0 3010.DAT
0 STEP
1 86 80.0 -504 390.0 -1 0 0 0 1 0 0 0 -1 3004.DAT
0 STEP
1 86 90.0 -384 410.0 -1 0 0 0 1 0 0 0 -1 3622.DAT
0 STEP
1 86 80.0 -504 440.0 0 0 1 0 1 0 -1 0 0 3001.DAT
0 STEP
1 86 80.0 -360 440.0 0 0 1 0 1 0 -1 0 0 3003.DAT
0 STEP
1 86 90.0 -336 460.0 -1 0 0 0 1 0 0 0 -1 3002.DAT
0 STEP
1 86 70.0 -432 450.0 0 0 1 0 1 0 -1 0 0 3005.DAT
0 STEP
1 86 70.0 -480 520.0 0 0 1 0 1 0 -1 0 0 3008.DAT
0 STEP
1 86 70.0 -528 520.0 0 0 1 0 1 0 -1 0 0 3008.DAT
0 STEP
1 86 80.0 -312 480.0 0 0 1 0 1 0 -1 0 0 3003.DAT
0 STEP
1 86 70.0 -432 500.0 0 0 1 0 1 0 -1 0 0 3010.DAT
0 STEP
1 86 70.0 -576 470.0 0 0 1 0 1 0 -1 0 0 3005.DAT
0 STEP
1 86 70.0 -552 510.0 0 0 1 0 1 0 -1 0 0 3622.DAT
0 STEP
1 86 70.0 -576 520.0 0 0 1 0 1 0 -1 0 0 3010.DAT
0 STEP
1 86 90.0 -600 490.0 -1 0 0 0 1 0 0 0 -1 3622.DAT
0 STEP
1 86 70.0 -288 540.0 0 0 1 0 1 0 -1 0 0 3010.DAT
0 STEP
1 86 70.0 -312 510.0 0 0 1 0 1 0 -1 0 0 3005.DAT
0 STEP
1 86 80.0 -360 510.0 -1 0 0 0 1 0 0 0 -1 3004.DAT
0 STEP
1 86 70.0 -600 510.0 0 0 1 0 1 0 -1 0 0 3005.DAT
0 STEP
1 86 80.0 -360 560.0 0 0 1 0 1 0 -1 0 0 3001.DAT
0 STEP
1 86 80.0 -408 550.0 0 0 1 0 1 0 -1 0 0 3002.DAT
0 STEP
1 86 70.0 -264 550.0 0 0 1 0 1 0 -1 0 0 3005.DAT
0 STEP
1 86 70.0 -432 570.0 0 0 1 0 1 0 -1 0 0 3622.DAT
0 STEP
1 86 90.0 -552 560.0 -1 0 0 0 1 0 0 0 -1 3002.DAT
0 STEP
1 86 100.0 -264 580.0 -1 0 0 0 1 0 0 0 -1 3001.DAT
0 STEP
1 86 80.0 -336 600.0 0 0 1 0 1 0 -1 0 0 3001.DAT
0 STEP
1 86 70.0 -288 640.0 0 0 1 0 1 0 -1 0 0 3009.DAT
0 STEP
1 86 70.0 -408 590.0 0 0 1 0 1 0 -1 0 0 3005.DAT
0 STEP
1 86 90.0 -504 600.0 -1 0 0 0 1 0 0 0 -1 3002.DAT
0 STEP
1 86 90.0 -552 590.0 -1 0 0 0 1 0 0 0 -1 3622.DAT
0 STEP
1 86 80.0 -264 640.0 0 0 1 0 1 0 -1 0 0 3001.DAT
0 STEP
1 86 70.0 -384 630.0 0 0 1 0 1 0 -1 0 0 3622.DAT
0 STEP
1 86 70.0 -408 640.0 0 0 1 0 1 0 -1 0 0 3010.DAT
0 STEP
1 86 90.0 -456 620.0 -1 0 0 0 1 0 0 0 -1 3002.DAT
0 STEP
1 86 70.0 -480 620.0 0 0 1 0 1 0 -1 0 0 3004.DAT
0 STEP
1 86 70.0 -528 610.0 0 0 1 0 1 0 -1 0 0 3005.DAT
0 STEP
1 86 80.0 -360 650.0 0 0 1 0 1 0 -1 0 0 3002.DAT
0 STEP
1 86 80.0 -432 640.0 0 0 1 0 1 0 -1 0 0 3003.DAT
0 STEP
1 86 70.0 -312 670.0 0 0 1 0 1 0 -1 0 0 3622.DAT
0 STEP
1 86 90.0 -336 650.0 -1 0 0 0 1 0 0 0 -1 3622.DAT
0 STEP
1 86 70.0 -456 650.0 0 0 1 0 1 0 -1 0 0 3005.DAT
0 STEP
1 86 90.0 -336 680.0 -1 0 0 0 1 0 0 0 -1 3002.DAT
0 STEP
1 86 90.0 -384 670.0 -1 0 0 0 1 0 0 0 -1 3622.DAT
0 STEP
1 86 100.0 -264 690.0 -1 0 0 0 1 0 0 0 -1 3010.DAT
0 STEP
1 86 100.0 -456 340.0 0 0 1 0 1 0 -1 0 0 3003.DAT
0 STEP
1 86 90.0 -480 350.0 0 0 1 0 1 0 -1 0 0 3622.DAT
0 STEP
1 86 120.0 -504 330.0 -1 0 0 0 1 0 0 0 -1 3010.DAT
0 STEP
1 86 110.0 -552 330.0 -1 0 0 0 1 0 0 0 -1 3622.DAT
0 STEP
1 86 90.0 -432 360.0 0 0 1 0 1 0 -1 0 0 3004.DAT
0 STEP
1 86 90.0 -576 360.0 0 0 1 0 1 0 -1 0 0 3004.DAT
0 STEP
1 86 90.0 -600 350.0 0 0 1 0 1 0 -1 0 0 3005.DAT
0 STEP
1 86 90.0 -48 400.0 0 0 1 0 1 0 -1 0 0 3010.DAT
0 STEP
1 86 140.0 -384 370.0 -1 0 0 0 1 0 0 0 -1 3009.DAT
0 STEP
1 86 90.0 -408 400.0 0 0 1 0 1 0 -1 0 0 3010.DAT
0 STEP
1 86 110.0 -624 380.0 -1 0 0 0 1 0 0 0 -1 3002.DAT
0 STEP
1 86 100.0 -24 390.0 -1 0 0 0 1 0 0 0 -1 3004.DAT
0 STEP
1 86 100.0 -360 390.0 -1 0 0 0 1 0 0 0 -1 3004.DAT
0 STEP
1 86 110.0 -384 390.0 -1 0 0 0 1 0 0 0 -1 3622.DAT
0 STEP
1 86 90.0 -456 410.0 0 0 1 0 1 0 -1 0 0 3622.DAT
0 STEP
1 86 100.0 -576 440.0 0 0 1 0 1 0 -1 0 0 2456.DAT
0 STEP
1 86 90.0 -24 420.0 0 0 1 0 1 0 -1 0 0 3004.DAT
0 STEP
1 86 160.0 -336 410.0 -1 0 0 0 1 0 0 0 -1 3008.DAT
0 STEP
1 86 90.0 -360 410.0 0 0 1 0 1 0 -1 0 0 3005.DAT
0 STEP
1 86 90.0 -624 460.0 0 0 1 0 1 0 -1 0 0 3009.DAT
0 STEP
1 86 90.0 -312 430.0 0 0 1 0 1 0 -1 0 0 3005.DAT
0 STEP
1 86 110.0 -336 430.0 -1 0 0 0 1 0 0 0 -1 3622.DAT
0 STEP
1 86 90.0 -384 460.0 0 0 1 0 1 0 -1 0 0 3010.DAT
0 STEP
1 86 100.0 -312 450.0 -1 0 0 0 1 0 0 0 -1 3004.DAT
0 STEP
1 86 90.0 -408 450.0 0 0 1 0 1 0 -1 0 0 3005.DAT
0 STEP
1 86 90.0 -480 450.0 0 0 1 0 1 0 -1 0 0 3005.DAT
0 STEP
1 86 90.0 -528 480.0 0 0 1 0 1 0 -1 0 0 3010.DAT
0 STEP
1 86 110.0 -288 480.0 -1 0 0 0 1 0 0 0 -1 3002.DAT
0 STEP
1 86 90.0 -480 540.0 0 0 1 0 1 0 -1 0 0 3008.DAT
0 STEP
1 86 90.0 -336 520.0 0 0 1 0 1 0 -1 0 0 3010.DAT
0 STEP
1 86 100.0 -552 510.0 0 0 1 0 1 0 -1 0 0 3002.DAT
0 STEP
1 86 90.0 -264 530.0 0 0 1 0 1 0 -1 0 0 3622.DAT
0 STEP
1 86 100.0 -288 530.0 0 0 1 0 1 0 -1 0 0 3002.DAT
0 STEP
1 86 90.0 -312 540.0 0 0 1 0 1 0 -1 0 0 3010.DAT
0 STEP
1 86 100.0 -576 510.0 -1 0 0 0 1 0 0 0 -1 3004.DAT
0 STEP
1 86 90.0 -600 540.0 0 0 1 0 1 0 -1 0 0 3010.DAT
0 STEP
1 86 90.0 -432 560.0 0 0 1 0 1 0 -1 0 0 3010.DAT
0 STEP
1 86 90.0 -528 530.0 0 0 1 0 1 0 -1 0 0 3005.DAT
0 STEP
1 86 90.0 -576 560.0 0 0 1 0 1 0 -1 0 0 3010.DAT
0 STEP
1 86 110.0 -624 530.0 -1 0 0 0 1 0 0 0 -1 3622.DAT
0 STEP
1 86 110.0 -240 550.0 -1 0 0 0 1 0 0 0 -1 3622.DAT
0 STEP
1 86 100.0 -528 600.0 0 0 1 0 1 0 -1 0 0 2456.DAT
0 STEP
1 86 90.0 -240 590.0 0 0 1 0 1 0 -1 0 0 3622.DAT
0 STEP
1 86 90.0 -288 600.0 0 0 1 0 1 0 -1 0 0 3010.DAT
0 STEP
1 86 90.0 -312 590.0 0 0 1 0 1 0 -1 0 0 3005.DAT
0 STEP
1 86 90.0 -408 640.0 0 0 1 0 1 0 -1 0 0 3009.DAT
0 STEP
1 86 90.0 -384 610.0 0 0 1 0 1 0 -1 0 0 3005.DAT
0 STEP
1 86 100.0 -552 620.0 0 0 1 0 1 0 -1 0 0 3003.DAT
0 STEP
1 86 120.0 -240 630.0 -1 0 0 0 1 0 0 0 -1 3010.DAT
0 STEP
1 86 100.0 -384 640.0 0 0 1 0 1 0 -1 0 0 3003.DAT
0 STEP
1 86 90.0 -480 650.0 0 0 1 0 1 0 -1 0 0 3622.DAT
0 STEP
1 86 110.0 -504 640.0 -1 0 0 0 1 0 0 0 -1 3002.DAT
0 STEP
1 86 120.0 -240 660.0 -1 0 0 0 1 0 0 0 -1 3001.DAT
0 STEP
1 86 90.0 -288 650.0 0 0 1 0 1 0 -1 0 0 3005.DAT
0 STEP
1 86 90.0 -312 680.0 0 0 1 0 1 0 -1 0 0 3010.DAT
0 STEP
1 86 110.0 -456 660.0 -1 0 0 0 1 0 0 0 -1 3002.DAT
0 STEP
1 86 90.0 -288 700.0 0 0 1 0 1 0 -1 0 0 3010.DAT
0 STEP
1 86 90.0 -432 680.0 0 0 1 0 1 0 -1 0 0 3004.DAT
0 STEP
1 86 90.0 -240 720.0 0 0 1 0 1 0 -1 0 0 3010.DAT
0 STEP
1 86 90.0 -360 700.0 0 0 1 0 1 0 -1 0 0 3004.DAT
0 STEP
1 86 120.0 -384 690.0 -1 0 0 0 1 0 0 0 -1 3010.DAT
0 STEP
1 86 90.0 -264 730.0 0 0 1 0 1 0 -1 0 0 3622.DAT
0 STEP
1 86 110.0 -336 720.0 -1 0 0 0 1 0 0 0 -1 3002.DAT
0 STEP
1 86 90.0 -384 710.0 0 0 1 0 1 0 -1 0 0 3005.DAT
0 STEP
1 86 100.0 -216 730.0 -1 0 0 0 1 0 0 0 -1 3004.DAT
0 STEP
1 86 90.0 -312 730.0 0 0 1 0 1 0 -1 0 0 3005.DAT
0 STEP
1 86 110.0 -288 750.0 -1 0 0 0 1 0 0 0 -1 3622.DAT
0 STEP
1 86 110.0 -480 330.0 0 0 1 0 1 0 -1 0 0 3622.DAT
0 STEP
1 86 110.0 -504 310.0 0 0 1 0 1 0 -1 0 0 3005.DAT
0 STEP
1 86 110.0 -528 330.0 0 0 1 0 1 0 -1 0 0 3622.DAT
0 STEP
1 86 140.0 -552 310.0 -1 0 0 0 1 0 0 0 -1 3010.DAT
0 STEP
1 86 140.0 -432 340.0 -1 0 0 0 1 0 0 0 -1 3001.DAT
0 STEP
1 86 110.0 -576 350.0 0 0 1 0 1 0 -1 0 0 3622.DAT
0 STEP
1 86 120.0 -384 350.0 -1 0 0 0 1 0 0 0 -1 3004.DAT
0 STEP
1 86 110.0 -408 370.0 0 0 1 0 1 0 -1 0 0 3622.DAT
0 STEP
1 86 110.0 -600 380.0 0 0 1 0 1 0 -1 0 0 3010.DAT
0 STEP
1 86 110.0 -48 440.0 0 0 1 0 1 0 -1 0 0 3008.DAT
0 STEP
1 86 120.0 -360 370.0 -1 0 0 0 1 0 0 0 -1 3004.DAT
0 STEP
1 86 110.0 -432 370.0 0 0 1 0 1 0 -1 0 0 3005.DAT
0 STEP
1 86 110.0 -648 370.0 0 0 1 0 1 0 -1 0 0 3005.DAT
0 STEP
1 86 130.0 0 390.0 -1 0 0 0 1 0 0 0 -1 3622.DAT
0 STEP
1 86 120.0 -336 390.0 -1 0 0 0 1 0 0 0 -1 3004.DAT
0 STEP
1 86 110.0 -648 440.0 0 0 1 0 1 0 -1 0 0 3009.DAT
0 STEP
1 86 110.0 -24 440.0 0 0 1 0 1 0 -1 0 0 3010.DAT
0 STEP
1 86 110.0 -312 420.0 0 0 1 0 1 0 -1 0 0 3004.DAT
0 STEP
1 86 110.0 -360 430.0 0 0 1 0 1 0 -1 0 0 3622.DAT
0 STEP
1 86 120.0 -624 440.0 0 0 1 0 1 0 -1 0 0 3001.DAT
0 STEP
1 86 130.0 -672 420.0 -1 0 0 0 1 0 0 0 -1 3002.DAT
0 STEP
1 86 110.0 -72 450.0 0 0 1 0 1 0 -1 0 0 3622.DAT
0 STEP
1 86 120.0 -288 430.0 -1 0 0 0 1 0 0 0 -1 3004.DAT
0 STEP
1 86 110.0 -600 450.0 0 0 1 0 1 0 -1 0 0 3622.DAT
0 STEP
1 86 180.0 -288 450.0 -1 0 0 0 1 0 0 0 -1 3008.DAT
0 STEP
1 86 110.0 -264 490.0 0 0 1 0 1 0 -1 0 0 3622.DAT
0 STEP
1 86 110.0 -312 490.0 0 0 1 0 1 0 -1 0 0 3622.DAT
0 STEP
1 86 110.0 -24 490.0 0 0 1 0 1 0 -1 0 0 3005.DAT
0 STEP
1 86 120.0 -240 510.0 0 0 1 0 1 0 -1 0 0 3002.DAT
0 STEP
1 86 130.0 -624 490.0 -1 0 0 0 1 0 0 0 -1 3622.DAT
0 STEP
1 86 120.0 -600 510.0 -1 0 0 0 1 0 0 0 -1 3004.DAT
0 STEP
1 86 140.0 -624 510.0 -1 0 0 0 1 0 0 0 -1 3010.DAT
0 STEP
1 86 140.0 -264 530.0 -1 0 0 0 1 0 0 0 -1 3010.DAT
0 STEP
1 86 120.0 -576 530.0 -1 0 0 0 1 0 0 0 -1 3004.DAT
0 STEP
1 86 110.0 -600 560.0 0 0 1 0 1 0 -1 0 0 3010.DAT
0 STEP
1 86 110.0 -264 550.0 0 0 1 0 1 0 -1 0 0 3005.DAT
0 STEP
1 86 130.0 -576 550.0 -1 0 0 0 1 0 0 0 -1 3622.DAT
0 STEP
1 86 120.0 -624 560.0 0 0 1 0 1 0 -1 0 0 3003.DAT
0 STEP
1 86 120.0 -240 590.0 0 0 1 0 1 0 -1 0 0 3002.DAT
0 STEP
1 86 110.0 -288 640.0 0 0 1 0 1 0 -1 0 0 3008.DAT
0 STEP
1 86 140.0 -576 570.0 -1 0 0 0 1 0 0 0 -1 3010.DAT
0 STEP
1 86 110.0 -480 610.0 0 0 1 0 1 0 -1 0 0 3622.DAT
0 STEP
1 86 110.0 -576 590.0 0 0 1 0 1 0 -1 0 0 3005.DAT
0 STEP
1 86 110.0 -216 610.0 0 0 1 0 1 0 -1 0 0 3005.DAT
0 STEP
1 86 110.0 -264 610.0 0 0 1 0 1 0 -1 0 0 3005.DAT
0 STEP
1 86 140.0 -576 610.0 -1 0 0 0 1 0 0 0 -1 3010.DAT
0 STEP
1 86 110.0 -216 660.0 0 0 1 0 1 0 -1 0 0 3010.DAT
0 STEP
1 86 140.0 -264 630.0 -1 0 0 0 1 0 0 0 -1 3010.DAT
0 STEP
1 86 110.0 -408 630.0 0 0 1 0 1 0 -1 0 0 3005.DAT
0 STEP
1 86 110.0 -432 660.0 0 0 1 0 1 0 -1 0 0 3010.DAT
0 STEP
1 86 130.0 -264 650.0 -1 0 0 0 1 0 0 0 -1 3622.DAT
0 STEP
1 86 110.0 -312 700.0 0 0 1 0 1 0 -1 0 0 3009.DAT
0 STEP
1 86 110.0 -360 660.0 0 0 1 0 1 0 -1 0 0 3004.DAT
0 STEP
1 86 110.0 -408 680.0 0 0 1 0 1 0 -1 0 0 3010.DAT
0 STEP
1 86 120.0 -480 670.0 0 0 1 0 1 0 -1 0 0 3002.DAT
0 STEP
1 86 120.0 -264 670.0 -1 0 0 0 1 0 0 0 -1 3004.DAT
0 STEP
1 86 120.0 -504 670.0 -1 0 0 0 1 0 0 0 -1 3004.DAT
0 STEP
1 86 140.0 -240 700.0 -1 0 0 0 1 0 0 0 -1 3001.DAT
0 STEP
1 86 120.0 -360 690.0 -1 0 0 0 1 0 0 0 -1 3004.DAT
0 STEP
1 86 140.0 -456 690.0 -1 0 0 0 1 0 0 0 -1 3010.DAT
0 STEP
1 86 110.0 -216 710.0 0 0 1 0 1 0 -1 0 0 3005.DAT
0 STEP
1 86 120.0 -264 740.0 0 0 1 0 1 0 -1 0 0 3001.DAT
0 STEP
1 86 110.0 -360 720.0 0 0 1 0 1 0 -1 0 0 3004.DAT
0 STEP
1 86 160.0 -384 710.0 -1 0 0 0 1 0 0 0 -1 3009.DAT
0 STEP
1 86 140.0 -432 710.0 -1 0 0 0 1 0 0 0 -1 3010.DAT
0 STEP
1 86 130.0 -192 730.0 -1 0 0 0 1 0 0 0 -1 3622.DAT
0 STEP
1 86 120.0 -240 730.0 -1 0 0 0 1 0 0 0 -1 3004.DAT
0 STEP
1 86 120.0 -288 730.0 -1 0 0 0 1 0 0 0 -1 3004.DAT
0 STEP
1 86 120.0 -168 760.0 0 0 1 0 1 0 -1 0 0 3003.DAT
0 STEP
1 86 110.0 -192 780.0 0 0 1 0 1 0 -1 0 0 3010.DAT
0 STEP
1 86 110.0 -216 750.0 0 0 1 0 1 0 -1 0 0 3005.DAT
0 STEP
1 86 120.0 -240 780.0 0 0 1 0 1 0 -1 0 0 3001.DAT
0 STEP
1 86 120.0 -336 750.0 -1 0 0 0 1 0 0 0 -1 3004.DAT
0 STEP
1 86 130.0 -216 780.0 -1 0 0 0 1 0 0 0 -1 3002.DAT
0 STEP
1 86 110.0 -288 770.0 0 0 1 0 1 0 -1 0 0 3005.DAT
0 STEP
1 86 120.0 -144 810.0 0 0 1 0 1 0 -1 0 0 3002.DAT
0 STEP
1 86 110.0 -168 800.0 0 0 1 0 1 0 -1 0 0 3004.DAT
0 STEP
1 86 120.0 -264 790.0 -1 0 0 0 1 0 0 0 -1 3004.DAT
0 STEP
1 86 130.0 -168 830.0 -1 0 0 0 1 0 0 0 -1 3622.DAT
0 STEP
1 86 130.0 0 270.0 0 0 1 0 1 0 -1 0 0 3622.DAT
0 STEP
1 86 140.0 -24 310.0 0 0 1 0 1 0 -1 0 0 3002.DAT
0 STEP
1 86 130.0 -480 300.0 0 0 1 0 1 0 -1 0 0 3004.DAT
0 STEP
1 86 140.0 -504 300.0 0 0 1 0 1 0 -1 0 0 3003.DAT
0 STEP
1 86 130.0 -528 310.0 0 0 1 0 1 0 -1 0 0 3622.DAT
0 STEP
1 86 150.0 -552 290.0 -1 0 0 0 1 0 0 0 -1 3622.DAT
0 STEP
1 86 130.0 -576 300.0 0 0 1 0 1 0 -1 0 0 3004.DAT
0 STEP
1 86 140.0 0 340.0 0 0 1 0 1 0 -1 0 0 3001.DAT
0 STEP
1 86 160.0 -432 310.0 -1 0 0 0 1 0 0 0 -1 3010.DAT
0 STEP
1 86 130.0 -456 330.0 0 0 1 0 1 0 -1 0 0 3622.DAT
0 STEP
1 86 130.0 -600 340.0 0 0 1 0 1 0 -1 0 0 3010.DAT
0 STEP
1 86 150.0 -768 310.0 -1 0 0 0 1 0 0 0 -1 3622.DAT
0 STEP
1 86 130.0 -408 350.0 0 0 1 0 1 0 -1 0 0 3622.DAT
0 STEP
1 86 150.0 -480 330.0 -1 0 0 0 1 0 0 0 -1 3622.DAT
0 STEP
1 86 140.0 -576 330.0 -1 0 0 0 1 0 0 0 -1 3004.DAT
0 STEP
1 86 140.0 -624 330.0 -1 0 0 0 1 0 0 0 -1 3004.DAT
0 STEP
1 86 130.0 -648 380.0 0 0 1 0 1 0 -1 0 0 3009.DAT
0 STEP
1 86 150.0 -768 340.0 -1 0 0 0 1 0 0 0 -1 3002.DAT
0 STEP
1 86 130.0 -792 340.0 0 0 1 0 1 0 -1 0 0 3004.DAT
0 STEP
1 86 150.0 -816 340.0 -1 0 0 0 1 0 0 0 -1 3002.DAT
0 STEP
1 86 130.0 -24 350.0 0 0 1 0 1 0 -1 0 0 3005.DAT
0 STEP
1 86 140.0 -48 400.0 0 0 1 0 1 0 -1 0 0 2456.DAT
0 STEP
1 86 130.0 -360 350.0 0 0 1 0 1 0 -1 0 0 3005.DAT
0 STEP
1 86 130.0 -576 350.0 0 0 1 0 1 0 -1 0 0 3005.DAT
0 STEP
1 86 130.0 -624 350.0 0 0 1 0 1 0 -1 0 0 3005.DAT
0 STEP
1 86 150.0 -672 350.0 -1 0 0 0 1 0 0 0 -1 3622.DAT
0 STEP
1 86 130.0 -336 370.0 0 0 1 0 1 0 -1 0 0 3005.DAT
0 STEP
1 86 150.0 -672 380.0 -1 0 0 0 1 0 0 0 -1 3002.DAT
0 STEP
1 86 130.0 -696 370.0 0 0 1 0 1 0 -1 0 0 3005.DAT
0 STEP
1 86 130.0 -720 390.0 0 0 1 0 1 0 -1 0 0 3622.DAT
0 STEP
1 86 130.0 -24 440.0 0 0 1 0 1 0 -1 0 0 3009.DAT
0 STEP
1 86 140.0 -312 400.0 0 0 1 0 1 0 -1 0 0 3003.DAT
0 STEP
1 86 130.0 -360 400.0 0 0 1 0 1 0 -1 0 0 3004.DAT
0 STEP
1 86 130.0 -696 420.0 0 0 1 0 1 0 -1 0 0 3010.DAT
0 STEP
1 86 130.0 -744 390.0 0 0 1 0 1 0 -1 0 0 3005.DAT
0 STEP
1 86 140.0 -72 440.0 0 0 1 0 1 0 -1 0 0 3001.DAT
0 STEP
1 86 130.0 -96 450.0 0 0 1 0 1 0 -1 0 0 3622.DAT
0 STEP
1 86 130.0 -312 440.0 0 0 1 0 1 0 -1 0 0 3004.DAT
0 STEP
1 86 140.0 -120 460.0 0 0 1 0 1 0 -1 0 0 3003.DAT
0 STEP
1 86 140.0 -144 470.0 0 0 1 0 1 0 -1 0 0 3002.DAT
0 STEP
1 86 140.0 -264 450.0 -1 0 0 0 1 0 0 0 -1 3004.DAT
0 STEP
1 86 130.0 -648 480.0 0 0 1 0 1 0 -1 0 0 3010.DAT
0 STEP
1 86 150.0 -672 450.0 -1 0 0 0 1 0 0 0 -1 3622.DAT
0 STEP
1 86 140.0 -48 470.0 -1 0 0 0 1 0 0 0 -1 3004.DAT
0 STEP
1 86 140.0 -168 480.0 0 0 1 0 1 0 -1 0 0 3003.DAT
0 STEP
1 86 140.0 -192 470.0 -1 0 0 0 1 0 0 0 -1 3004.DAT
0 STEP
1 86 130.0 -216 480.0 0 0 1 0 1 0 -1 0 0 3004.DAT
0 STEP
1 86 130.0 -240 470.0 0 0 1 0 1 0 -1 0 0 3005.DAT
0 STEP
1 86 160.0 -264 470.0 -1 0 0 0 1 0 0 0 -1 3010.DAT
0 STEP
1 86 130.0 -672 470.0 0 0 1 0 1 0 -1 0 0 3005.DAT
0 STEP
1 86 130.0 -48 500.0 0 0 1 0 1 0 -1 0 0 3004.DAT
0 STEP
1 86 130.0 -192 490.0 0 0 1 0 1 0 -1 0 0 3005.DAT
0 STEP
1 86 140.0 -264 490.0 -1 0 0 0 1 0 0 0 -1 3004.DAT
0 STEP
1 86 160.0 -672 490.0 -1 0 0 0 1 0 0 0 -1 3010.DAT
0 STEP
1 86 140.0 -216 540.0 0 0 1 0 1 0 -1 0 0 3001.DAT
0 STEP
1 86 130.0 -264 510.0 0 0 1 0 1 0 -1 0 0 3005.DAT
0 STEP
1 86 160.0 -600 530.0 -1 0 0 0 1 0 0 0 -1 3010.DAT
0 STEP
1 86 180.0 -264 550.0 -1 0 0 0 1 0 0 0 -1 3009.DAT
0 STEP
1 86 130.0 -600 580.0 0 0 1 0 1 0 -1 0 0 3010.DAT
0 STEP
1 86 150.0 -216 590.0 -1 0 0 0 1 0 0 0 -1 3622.DAT
0 STEP
1 86 130.0 -552 610.0 0 0 1 0 1 0 -1 0 0 3622.DAT
0 STEP
1 86 160.0 -576 590.0 -1 0 0 0 1 0 0 0 -1 3010.DAT
0 STEP
1 86 160.0 -216 620.0 -1 0 0 0 1 0 0 0 -1 3001.DAT
0 STEP
1 86 180.0 -264 610.0 -1 0 0 0 1 0 0 0 -1 3009.DAT
0 STEP
1 86 130.0 -528 640.0 0 0 1 0 1 0 -1 0 0 3004.DAT
0 STEP
1 86 160.0 -576 630.0 -1 0 0 0 1 0 0 0 -1 3010.DAT
0 STEP
1 86 130.0 -216 700.0 0 0 1 0 1 0 -1 0 0 3009.DAT
0 STEP
1 86 150.0 -552 650.0 -1 0 0 0 1 0 0 0 -1 3622.DAT
0 STEP
1 86 160.0 -432 680.0 -1 0 0 0 1 0 0 0 -1 3001.DAT
0 STEP
1 86 160.0 -528 670.0 -1 0 0 0 1 0 0 0 -1 3010.DAT
0 STEP
1 86 130.0 -408 710.0 0 0 1 0 1 0 -1 0 0 3622.DAT
0 STEP
1 86 130.0 -192 710.0 0 0 1 0 1 0 -1 0 0 3005.DAT
0 STEP
1 86 130.0 -288 710.0 0 0 1 0 1 0 -1 0 0 3005.DAT
0 STEP
1 86 130.0 -312 740.0 0 0 1 0 1 0 -1 0 0 3010.DAT
0 STEP
1 86 140.0 -360 730.0 0 0 1 0 1 0 -1 0 0 3002.DAT
0 STEP
1 86 160.0 -384 730.0 -1 0 0 0 1 0 0 0 -1 3010.DAT
0 STEP
1 86 160.0 -192 750.0 -1 0 0 0 1 0 0 0 -1 3010.DAT
0 STEP
1 86 130.0 -144 770.0 0 0 1 0 1 0 -1 0 0 3005.DAT
0 STEP
1 86 130.0 -192 790.0 0 0 1 0 1 0 -1 0 0 3622.DAT
0 STEP
1 86 180.0 -288 780.0 -1 0 0 0 1 0 0 0 -1 2456.DAT
0 STEP
1 86 150.0 -120 790.0 -1 0 0 0 1 0 0 0 -1 3622.DAT
0 STEP
1 86 180.0 -168 800.0 -1 0 0 0 1 0 0 0 -1 2456.DAT
0 STEP
1 86 150.0 -120 820.0 -1 0 0 0 1 0 0 0 -1 3002.DAT
0 STEP
1 86 150.0 -216 820.0 -1 0 0 0 1 0 0 0 -1 3002.DAT
0 STEP
1 86 140.0 -264 810.0 -1 0 0 0 1 0 0 0 -1 3004.DAT
0 STEP
1 86 130.0 -192 860.0 0 0 1 0 1 0 -1 0 0 3010.DAT
0 STEP
1 86 130.0 -240 830.0 0 0 1 0 1 0 -1 0 0 3005.DAT
0 STEP
1 86 140.0 -120 870.0 0 0 1 0 1 0 -1 0 0 3002.DAT
0 STEP
1 86 130.0 -144 870.0 0 0 1 0 1 0 -1 0 0 3622.DAT
0 STEP
1 86 150.0 -168 850.0 -1 0 0 0 1 0 0 0 -1 3622.DAT
0 STEP
1 86 150.0 -216 850.0 -1 0 0 0 1 0 0 0 -1 3622.DAT
0 STEP
1 86 160.0 -216 870.0 -1 0 0 0 1 0 0 0 -1 3010.DAT
0 STEP
1 86 150.0 -720 200.0 0 0 1 0 1 0 -1 0 0 3004.DAT
0 STEP
1 86 170.0 -744 200.0 -1 0 0 0 1 0 0 0 -1 3002.DAT
0 STEP
1 86 150.0 -768 220.0 0 0 1 0 1 0 -1 0 0 3010.DAT
0 STEP
1 86 160.0 -696 230.0 0 0 1 0 1 0 -1 0 0 3002.DAT
0 STEP
1 86 170.0 -720 230.0 -1 0 0 0 1 0 0 0 -1 3622.DAT
0 STEP
1 86 150.0 -744 300.0 0 0 1 0 1 0 -1 0 0 3008.DAT
0 STEP
1 86 170.0 -792 240.0 -1 0 0 0 1 0 0 0 -1 3002.DAT
0 STEP
1 86 150.0 -672 280.0 0 0 1 0 1 0 -1 0 0 3010.DAT
0 STEP
1 86 170.0 -720 260.0 -1 0 0 0 1 0 0 0 -1 3002.DAT
0 STEP
1 86 150.0 -816 260.0 0 0 1 0 1 0 -1 0 0 3004.DAT
0 STEP
1 86 170.0 -528 280.0 -1 0 0 0 1 0 0 0 -1 3002.DAT
0 STEP
1 86 160.0 -552 270.0 -1 0 0 0 1 0 0 0 -1 3004.DAT
0 STEP
1 86 150.0 -576 290.0 0 0 1 0 1 0 -1 0 0 3622.DAT
0 STEP
1 86 150.0 -600 270.0 0 0 1 0 1 0 -1 0 0 3005.DAT
0 STEP
1 86 150.0 -624 280.0 0 0 1 0 1 0 -1 0 0 3004.DAT
0 STEP
1 86 150.0 -648 270.0 0 0 1 0 1 0 -1 0 0 3005.DAT
0 STEP
1 86 150.0 -696 320.0 0 0 1 0 1 0 -1 0 0 3009.DAT
0 STEP
1 86 160.0 -768 270.0 -1 0 0 0 1 0 0 0 -1 3004.DAT
0 STEP
1 86 150.0 -792 340.0 0 0 1 0 1 0 -1 0 0 3008.DAT
0 STEP
1 86 150.0 -456 310.0 0 0 1 0 1 0 -1 0 0 3622.DAT
0 STEP
1 86 160.0 -480 290.0 -1 0 0 0 1 0 0 0 -1 3004.DAT
0 STEP
1 86 150.0 -600 320.0 0 0 1 0 1 0 -1 0 0 3010.DAT
0 STEP
1 86 150.0 -648 320.0 0 0 1 0 1 0 -1 0 0 3010.DAT
0 STEP
1 86 170.0 -720 300.0 -1 0 0 0 1 0 0 0 -1 3002.DAT
0 STEP
1 86 170.0 -768 290.0 -1 0 0 0 1 0 0 0 -1 3622.DAT
0 STEP
1 86 170.0 -816 300.0 -1 0 0 0 1 0 0 0 -1 3002.DAT
0 STEP
1 86 150.0 -840 340.0 0 0 1 0 1 0 -1 0 0 3009.DAT
0 STEP
1 86 150.0 -408 330.0 0 0 1 0 1 0 -1 0 0 3622.DAT
0 STEP
1 86 200.0 -480 310.0 -1 0 0 0 1 0 0 0 -1 3009.DAT
0 STEP
1 86 200.0 -528 310.0 -1 0 0 0 1 0 0 0 -1 3009.DAT
0 STEP
1 86 170.0 -624 310.0 -1 0 0 0 1 0 0 0 -1 3622.DAT
0 STEP
1 86 200.0 -384 340.0 -1 0 0 0 1 0 0 0 -1 2456.DAT
0 STEP
1 86 160.0 -672 330.0 -1 0 0 0 1 0 0 0 -1 3004.DAT
0 STEP
1 86 170.0 -720 340.0 -1 0 0 0 1 0 0 0 -1 3002.DAT
0 STEP
1 86 150.0 -864 360.0 0 0 1 0 1 0 -1 0 0 3010.DAT
0 STEP
1 86 150.0 -24 400.0 0 0 1 0 1 0 -1 0 0 3009.DAT
0 STEP
1 86 150.0 -360 370.0 0 0 1 0 1 0 -1 0 0 3622.DAT
0 STEP
1 86 150.0 -624 360.0 0 0 1 0 1 0 -1 0 0 3004.DAT
0 STEP
1 86 170.0 -336 380.0 -1 0 0 0 1 0 0 0 -1 3002.DAT
0 STEP
1 86 150.0 -648 390.0 0 0 1 0 1 0 -1 0 0 3622.DAT
0 STEP
1 86 160.0 -720 400.0 0 0 1 0 1 0 -1 0 0 3001.DAT
0 STEP
1 86 170.0 -768 380.0 -1 0 0 0 1 0 0 0 -1 3002.DAT
0 STEP
1 86 170.0 -816 370.0 -1 0 0 0 1 0 0 0 -1 3622.DAT
0 STEP
1 86 150.0 -696 390.0 0 0 1 0 1 0 -1 0 0 3005.DAT
0 STEP
1 86 150.0 -744 420.0 0 0 1 0 1 0 -1 0 0 3010.DAT
0 STEP
1 86 170.0 -816 400.0 -1 0 0 0 1 0 0 0 -1 3002.DAT
0 STEP
1 86 220.0 -288 420.0 -1 0 0 0 1 0 0 0 -1 3007.DAT
0 STEP
1 86 160.0 -696 420.0 0 0 1 0 1 0 -1 0 0 3003.DAT
0 STEP
1 86 160.0 -768 430.0 0 0 1 0 1 0 -1 0 0 3002.DAT
0 STEP
1 86 150.0 -840 410.0 0 0 1 0 1 0 -1 0 0 3005.DAT
0 STEP
1 86 150.0 -264 430.0 0 0 1 0 1 0 -1 0 0 3005.DAT
0 STEP
1 86 150.0 -312 430.0 0 0 1 0 1 0 -1 0 0 3005.DAT
0 STEP
1 86 150.0 -648 460.0 0 0 1 0 1 0 -1 0 0 3010.DAT
0 STEP
1 86 160.0 -792 430.0 -1 0 0 0 1 0 0 0 -1 3004.DAT
0 STEP
1 86 150.0 -816 430.0 0 0 1 0 1 0 -1 0 0 3005.DAT
0 STEP
1 86 150.0 -96 460.0 0 0 1 0 1 0 -1 0 0 3004.DAT
0 STEP
1 86 150.0 -240 480.0 0 0 1 0 1 0 -1 0 0 3010.DAT
0 STEP
1 86 150.0 -696 460.0 0 0 1 0 1 0 -1 0 0 3004.DAT
0 STEP
1 86 160.0 -720 450.0 -1 0 0 0 1 0 0 0 -1 3004.DAT
0 STEP
1 86 200.0 -216 480.0 -1 0 0 0 1 0 0 0 -1 2456.DAT
0 STEP
1 86 220.0 -672 470.0 -1 0 0 0 1 0 0 0 -1 3008.DAT
0 STEP
1 86 180.0 -192 500.0 -1 0 0 0 1 0 0 0 -1 3001.DAT
0 STEP
1 86 150.0 -648 510.0 0 0 1 0 1 0 -1 0 0 3005.DAT
0 STEP
1 86 170.0 -672 510.0 -1 0 0 0 1 0 0 0 -1 3622.DAT
0 STEP
1 86 180.0 -240 530.0 -1 0 0 0 1 0 0 0 -1 3010.DAT
0 STEP
1 86 160.0 -624 560.0 0 0 1 0 1 0 -1 0 0 3001.DAT
0 STEP
1 86 220.0 -648 530.0 -1 0 0 0 1 0 0 0 -1 3008.DAT
0 STEP
1 86 150.0 -240 580.0 0 0 1 0 1 0 -1 0 0 3010.DAT
0 STEP
1 86 180.0 -600 550.0 -1 0 0 0 1 0 0 0 -1 3010.DAT
0 STEP
1 86 180.0 -264 570.0 -1 0 0 0 1 0 0 0 -1 3010.DAT
0 STEP
1 86 150.0 -600 590.0 0 0 1 0 1 0 -1 0 0 3622.DAT
0 STEP
1 86 150.0 -264 590.0 0 0 1 0 1 0 -1 0 0 3005.DAT
0 STEP
1 86 150.0 -552 620.0 0 0 1 0 1 0 -1 0 0 3004.DAT
0 STEP
1 86 180.0 -528 640.0 -1 0 0 0 1 0 0 0 -1 3001.DAT
0 STEP
1 86 180.0 -216 660.0 -1 0 0 0 1 0 0 0 -1 3001.DAT
0 STEP
1 86 180.0 -480 660.0 -1 0 0 0 1 0 0 0 -1 3001.DAT
0 STEP
1 86 150.0 -504 670.0 0 0 1 0 1 0 -1 0 0 3622.DAT
0 STEP
1 86 150.0 -192 690.0 0 0 1 0 1 0 -1 0 0 3622.DAT
0 STEP
1 86 160.0 -456 670.0 -1 0 0 0 1 0 0 0 -1 3004.DAT
0 STEP
1 86 170.0 -216 690.0 -1 0 0 0 1 0 0 0 -1 3622.DAT
0 STEP
1 86 160.0 -408 710.0 0 0 1 0 1 0 -1 0 0 3002.DAT
0 STEP
1 86 180.0 -480 690.0 -1 0 0 0 1 0 0 0 -1 3010.DAT
0 STEP
1 86 170.0 -216 720.0 -1 0 0 0 1 0 0 0 -1 3002.DAT
0 STEP
1 86 160.0 -456 710.0 -1 0 0 0 1 0 0 0 -1 3004.DAT
0 STEP
1 86 160.0 -168 750.0 0 0 1 0 1 0 -1 0 0 3002.DAT
0 STEP
1 86 180.0 -336 740.0 -1 0 0 0 1 0 0 0 -1 3001.DAT
0 STEP
1 86 160.0 -216 750.0 -1 0 0 0 1 0 0 0 -1 3004.DAT
0 STEP
1 86 220.0 -312 760.0 -1 0 0 0 1 0 0 0 -1 3007.DAT
0 STEP
1 86 160.0 -144 840.0 0 0 1 0 1 0 -1 0 0 3007.DAT
0 STEP
1 86 150.0 -192 820.0 0 0 1 0 1 0 -1 0 0 3009.DAT
0 STEP
1 86 150.0 -240 770.0 0 0 1 0 1 0 -1 0 0 3005.DAT
0 STEP
1 86 150.0 -264 780.0 0 0 1 0 1 0 -1 0 0 3004.DAT
0 STEP
1 86 180.0 -336 770.0 -1 0 0 0 1 0 0 0 -1 3010.DAT
0 STEP
1 86 150.0 -240 820.0 0 0 1 0 1 0 -1 0 0 3010.DAT
0 STEP
1 86 150.0 -312 790.0 0 0 1 0 1 0 -1 0 0 3005.DAT
0 STEP
1 86 180.0 -288 810.0 -1 0 0 0 1 0 0 0 -1 3010.DAT
0 STEP
1 86 150.0 -264 830.0 0 0 1 0 1 0 -1 0 0 3005.DAT
0 STEP
1 86 180.0 -96 850.0 -1 0 0 0 1 0 0 0 -1 3010.DAT
0 STEP
1 86 160.0 -96 890.0 0 0 1 0 1 0 -1 0 0 3002.DAT
0 STEP
1 86 150.0 -168 900.0 0 0 1 0 1 0 -1 0 0 3010.DAT
0 STEP
1 86 150.0 -192 890.0 0 0 1 0 1 0 -1 0 0 3005.DAT
0 STEP
1 86 160.0 -216 890.0 -1 0 0 0 1 0 0 0 -1 3004.DAT
0 STEP
1 86 150.0 -120 910.0 0 0 1 0 1 0 -1 0 0 3005.DAT
0 STEP
1 86 170.0 -192 910.0 -1 0 0 0 1 0 0 0 -1 3622.DAT
0 STEP
1 86 180.0 -672 60.0 0 0 1 0 1 0 -1 0 0 3003.DAT
0 STEP
1 86 200.0 -696 60.0 -1 0 0 0 1 0 0 0 -1 3001.DAT
0 STEP
1 86 190.0 -648 80.0 -1 0 0 0 1 0 0 0 -1 3002.DAT
0 STEP
1 86 170.0 -720 100.0 0 0 1 0 1 0 -1 0 0 3010.DAT
0 STEP
1 86 170.0 -744 70.0 0 0 1 0 1 0 -1 0 0 3005.DAT
0 STEP
1 86 200.0 -672 90.0 -1 0 0 0 1 0 0 0 -1 3010.DAT
0 STEP
1 86 200.0 -696 90.0 -1 0 0 0 1 0 0 0 -1 3010.DAT
0 STEP
1 86 180.0 -744 120.0 0 0 1 0 1 0 -1 0 0 3001.DAT
0 STEP
1 86 170.0 -768 110.0 0 0 1 0 1 0 -1 0 0 3622.DAT
0 STEP
1 86 190.0 -648 120.0 -1 0 0 0 1 0 0 0 -1 3002.DAT
0 STEP
1 86 170.0 -672 160.0 0 0 1 0 1 0 -1 0 0 3009.DAT
0 STEP
1 86 200.0 -696 120.0 -1 0 0 0 1 0 0 0 -1 3001.DAT
0 STEP
1 86 200.0 -792 140.0 -1 0 0 0 1 0 0 0 -1 3001.DAT
0 STEP
1 86 190.0 -648 150.0 -1 0 0 0 1 0 0 0 -1 3622.DAT
0 STEP
1 86 200.0 -696 150.0 -1 0 0 0 1 0 0 0 -1 3010.DAT
0 STEP
1 86 180.0 -720 180.0 0 0 1 0 1 0 -1 0 0 3001.DAT
0 STEP
1 86 170.0 -768 200.0 0 0 1 0 1 0 -1 0 0 3009.DAT
0 STEP
1 86 170.0 -696 170.0 0 0 1 0 1 0 -1 0 0 3005.DAT
0 STEP
1 86 200.0 -744 170.0 -1 0 0 0 1 0 0 0 -1 3010.DAT
0 STEP
1 86 200.0 -792 180.0 -1 0 0 0 1 0 0 0 -1 3001.DAT
0 STEP
1 86 170.0 -816 220.0 0 0 1 0 1 0 -1 0 0 3009.DAT
0 STEP
1 86 200.0 -696 190.0 -1 0 0 0 1 0 0 0 -1 3010.DAT
0 STEP
1 86 200.0 -792 210.0 -1 0 0 0 1 0 0 0 -1 3010.DAT
0 STEP
1 86 180.0 -840 220.0 0 0 1 0 1 0 -1 0 0 3003.DAT
0 STEP
1 86 180.0 -672 260.0 0 0 1 0 1 0 -1 0 0 3001.DAT
0 STEP
1 86 180.0 -744 300.0 0 0 1 0 1 0 -1 0 0 3007.DAT
0 STEP
1 86 170.0 -624 260.0 0 0 1 0 1 0 -1 0 0 3004.DAT
0 STEP
1 86 190.0 -648 250.0 -1 0 0 0 1 0 0 0 -1 3622.DAT
0 STEP
1 86 200.0 -840 250.0 -1 0 0 0 1 0 0 0 -1 3010.DAT
0 STEP
1 86 180.0 -504 290.0 0 0 1 0 1 0 -1 0 0 3002.DAT
0 STEP
1 86 170.0 -576 270.0 0 0 1 0 1 0 -1 0 0 3005.DAT
0 STEP
1 86 170.0 -600 300.0 0 0 1 0 1 0 -1 0 0 3010.DAT
0 STEP
1 86 170.0 -648 300.0 0 0 1 0 1 0 -1 0 0 3010.DAT
0 STEP
1 86 180.0 -696 300.0 0 0 1 0 1 0 -1 0 0 3001.DAT
0 STEP
1 86 180.0 -792 290.0 0 0 1 0 1 0 -1 0 0 3002.DAT
0 STEP
1 86 170.0 -840 300.0 0 0 1 0 1 0 -1 0 0 3010.DAT
0 STEP
1 86 170.0 -864 320.0 0 0 1 0 1 0 -1 0 0 3009.DAT
0 STEP
1 86 180.0 -456 310.0 0 0 1 0 1 0 -1 0 0 3002.DAT
0 STEP
1 86 200.0 -576 290.0 -1 0 0 0 1 0 0 0 -1 3010.DAT
0 STEP
1 86 220.0 -624 290.0 -1 0 0 0 1 0 0 0 -1 3009.DAT
0 STEP
1 86 220.0 -408 320.0 -1 0 0 0 1 0 0 0 -1 2456.DAT
0 STEP
1 86 170.0 -576 310.0 0 0 1 0 1 0 -1 0 0 3005.DAT
0 STEP
1 86 170.0 -672 310.0 0 0 1 0 1 0 -1 0 0 3005.DAT
0 STEP
1 86 190.0 -888 320.0 -1 0 0 0 1 0 0 0 -1 3002.DAT
0 STEP
1 86 170.0 -624 340.0 0 0 1 0 1 0 -1 0 0 3004.DAT
0 STEP
1 86 170.0 -792 360.0 0 0 1 0 1 0 -1 0 0 3010.DAT
0 STEP
1 86 220.0 -360 360.0 -1 0 0 0 1 0 0 0 -1 2456.DAT
0 STEP
1 86 220.0 -408 350.0 -1 0 0 0 1 0 0 0 -1 3009.DAT
0 STEP
1 86 170.0 -648 350.0 0 0 1 0 1 0 -1 0 0 3005.DAT
0 STEP
1 86 180.0 -696 350.0 -1 0 0 0 1 0 0 0 -1 3004.DAT
0 STEP
1 86 170.0 -840 350.0 0 0 1 0 1 0 -1 0 0 3005.DAT
0 STEP
1 86 170.0 -888 360.0 0 0 1 0 1 0 -1 0 0 3004.DAT
0 STEP
1 86 170.0 -696 380.0 0 0 1 0 1 0 -1 0 0 3004.DAT
0 STEP
1 86 170.0 -840 400.0 0 0 1 0 1 0 -1 0 0 3010.DAT
0 STEP
1 86 180.0 -312 410.0 0 0 1 0 1 0 -1 0 0 3002.DAT
0 STEP
1 86 200.0 -360 390.0 -1 0 0 0 1 0 0 0 -1 3010.DAT
0 STEP
1 86 170.0 -744 390.0 0 0 1 0 1 0 -1 0 0 3005.DAT
0 STEP
1 86 220.0 -864 390.0 -1 0 0 0 1 0 0 0 -1 3009.DAT
0 STEP
1 86 180.0 -744 410.0 -1 0 0 0 1 0 0 0 -1 3004.DAT
0 STEP
1 86 170.0 -792 410.0 0 0 1 0 1 0 -1 0 0 3005.DAT
0 STEP
1 86 200.0 -864 410.0 -1 0 0 0 1 0 0 0 -1 3010.DAT
0 STEP
1 86 200.0 -264 440.0 -1 0 0 0 1 0 0 0 -1 3001.DAT
0 STEP
1 86 170.0 -744 450.0 0 0 1 0 1 0 -1 0 0 3622.DAT
0 STEP
1 86 200.0 -816 440.0 -1 0 0 0 1 0 0 0 -1 3001.DAT
0 STEP
1 86 200.0 -240 460.0 -1 0 0 0 1 0 0 0 -1 3001.DAT
0 STEP
1 86 180.0 -696 470.0 0 0 1 0 1 0 -1 0 0 3002.DAT
0 STEP
1 86 200.0 -792 450.0 -1 0 0 0 1 0 0 0 -1 3010.DAT
0 STEP
1 86 170.0 -720 470.0 0 0 1 0 1 0 -1 0 0 3005.DAT
0 STEP
1 86 240.0 -240 500.0 -1 0 0 0 1 0 0 0 -1 3007.DAT
0 STEP
1 86 200.0 -648 500.0 -1 0 0 0 1 0 0 0 -1 3001.DAT
0 STEP
1 86 170.0 -216 540.0 0 0 1 0 1 0 -1 0 0 3010.DAT
0 STEP
1 86 170.0 -240 600.0 0 0 1 0 1 0 -1 0 0 3009.DAT
0 STEP
1 86 220.0 -648 550.0 -1 0 0 0 1 0 0 0 -1 3009.DAT
0 STEP
1 86 180.0 -600 590.0 0 0 1 0 1 0 -1 0 0 3002.DAT
0 STEP
1 86 200.0 -264 590.0 -1 0 0 0 1 0 0 0 -1 3010.DAT
0 STEP
1 86 220.0 -552 620.0 -1 0 0 0 1 0 0 0 -1 2456.DAT
0 STEP
1 86 170.0 -192 650.0 0 0 1 0 1 0 -1 0 0 3005.DAT
0 STEP
1 86 240.0 -504 650.0 -1 0 0 0 1 0 0 0 -1 3008.DAT
0 STEP
1 86 170.0 -192 700.0 0 0 1 0 1 0 -1 0 0 3010.DAT
0 STEP
1 86 170.0 -240 670.0 0 0 1 0 1 0 -1 0 0 3005.DAT
0 STEP
1 86 190.0 -504 680.0 -1 0 0 0 1 0 0 0 -1 3002.DAT
0 STEP
1 86 240.0 -360 720.0 -1 0 0 0 1 0 0 0 -1 3007.DAT
0 STEP
1 86 170.0 -360 750.0 0 0 1 0 1 0 -1 0 0 3005.DAT
0 STEP
1 86 190.0 -384 750.0 -1 0 0 0 1 0 0 0 -1 3622.DAT
0 STEP
1 86 190.0 -192 770.0 -1 0 0 0 1 0 0 0 -1 3622.DAT
0 STEP
1 86 170.0 -264 810.0 0 0 1 0 1 0 -1 0 0 3622.DAT
0 STEP
1 86 220.0 -312 790.0 -1 0 0 0 1 0 0 0 -1 3009.DAT
0 STEP
1 86 200.0 -240 810.0 -1 0 0 0 1 0 0 0 -1 3010.DAT
0 STEP
1 86 200.0 -96 830.0 -1 0 0 0 1 0 0 0 -1 3010.DAT
0 STEP
1 86 170.0 -192 860.0 0 0 1 0 1 0 -1 0 0 3010.DAT
0 STEP
1 86 180.0 -240 850.0 0 0 1 0 1 0 -1 0 0 3002.DAT
0 STEP
1 86 170.0 -120 850.0 0 0 1 0 1 0 -1 0 0 3005.DAT
0 STEP
1 86 200.0 -120 870.0 -1 0 0 0 1 0 0 0 -1 3010.DAT
0 STEP
1 86 170.0 -168 870.0 0 0 1 0 1 0 -1 0 0 3005.DAT
0 STEP
1 86 190.0 -120 890.0 -1 0 0 0 1 0 0 0 -1 3622.DAT
0 STEP
1 86 170.0 -168 920.0 0 0 1 0 1 0 -1 0 0 3010.DAT
0 STEP
1 86 200.0 -120 910.0 -1 0 0 0 1 0 0 0 -1 3010.DAT
0 STEP
1 86 170.0 -96 930.0 0 0 1 0 1 0 -1 0 0 3005.DAT
0 STEP
1 86 170.0 -120 930.0 0 0 1 0 1 0 -1 0 0 3005.DAT
0 STEP
1 86 170.0 -144 930.0 0 0 1 0 1 0 -1 0 0 3005.DAT
0 STEP
1 86 200.0 -192 930.0 -1 0 0 0 1 0 0 0 -1 3010.DAT
0 STEP
1 86 210.0 -576 20.0 -1 0 0 0 1 0 0 0 -1 3002.DAT
0 STEP
1 86 200.0 -600 40.0 0 0 1 0 1 0 -1 0 0 3001.DAT
0 STEP
1 86 210.0 -624 20.0 -1 0 0 0 1 0 0 0 -1 3002.DAT
0 STEP
1 86 200.0 -648 30.0 0 0 1 0 1 0 -1 0 0 3002.DAT
0 STEP
1 86 190.0 -672 20.0 0 0 1 0 1 0 -1 0 0 3004.DAT
0 STEP
1 86 210.0 -552 40.0 -1 0 0 0 1 0 0 0 -1 3002.DAT
0 STEP
1 86 210.0 -696 30.0 -1 0 0 0 1 0 0 0 -1 3622.DAT
0 STEP
1 86 210.0 -720 40.0 -1 0 0 0 1 0 0 0 -1 3002.DAT
0 STEP
1 86 210.0 -576 60.0 -1 0 0 0 1 0 0 0 -1 3002.DAT
0 STEP
1 86 190.0 -624 50.0 0 0 1 0 1 0 -1 0 0 3005.DAT
0 STEP
1 86 200.0 -744 60.0 0 0 1 0 1 0 -1 0 0 3003.DAT
0 STEP
1 86 190.0 -624 120.0 0 0 1 0 1 0 -1 0 0 3009.DAT
0 STEP
1 86 220.0 -720 70.0 -1 0 0 0 1 0 0 0 -1 3010.DAT
0 STEP
1 86 210.0 -768 70.0 -1 0 0 0 1 0 0 0 -1 3622.DAT
0 STEP
1 86 210.0 -600 100.0 -1 0 0 0 1 0 0 0 -1 3002.DAT
0 STEP
1 86 190.0 -720 110.0 0 0 1 0 1 0 -1 0 0 3622.DAT
0 STEP
1 86 220.0 -768 90.0 -1 0 0 0 1 0 0 0 -1 3010.DAT
0 STEP
1 86 210.0 -792 100.0 -1 0 0 0 1 0 0 0 -1 3002.DAT
0 STEP
1 86 200.0 -672 140.0 0 0 1 0 1 0 -1 0 0 3001.DAT
0 STEP
1 86 190.0 -768 140.0 0 0 1 0 1 0 -1 0 0 3010.DAT
0 STEP
1 86 200.0 -600 130.0 -1 0 0 0 1 0 0 0 -1 3004.DAT
0 STEP
1 86 190.0 -816 180.0 0 0 1 0 1 0 -1 0 0 3009.DAT
0 STEP
1 86 200.0 -648 200.0 0 0 1 0 1 0 -1 0 0 3001.DAT
0 STEP
1 86 220.0 -696 170.0 -1 0 0 0 1 0 0 0 -1 3010.DAT
0 STEP
1 86 190.0 -840 180.0 0 0 1 0 1 0 -1 0 0 3004.DAT
0 STEP
1 86 220.0 -672 200.0 -1 0 0 0 1 0 0 0 -1 3001.DAT
0 STEP
1 86 220.0 -768 190.0 -1 0 0 0 1 0 0 0 -1 3010.DAT
0 STEP
1 86 200.0 -696 220.0 0 0 1 0 1 0 -1 0 0 3003.DAT
0 STEP
1 86 190.0 -768 240.0 0 0 1 0 1 0 -1 0 0 3010.DAT
0 STEP
1 86 200.0 -864 280.0 0 0 1 0 1 0 -1 0 0 2456.DAT
0 STEP
1 86 220.0 -624 260.0 -1 0 0 0 1 0 0 0 -1 3001.DAT
0 STEP
1 86 190.0 -696 250.0 0 0 1 0 1 0 -1 0 0 3005.DAT
0 STEP
1 86 200.0 -816 260.0 0 0 1 0 1 0 -1 0 0 3003.DAT
0 STEP
1 86 220.0 -480 280.0 -1 0 0 0 1 0 0 0 -1 3001.DAT
0 STEP
1 86 200.0 -552 290.0 0 0 1 0 1 0 -1 0 0 3002.DAT
0 STEP
1 86 220.0 -576 270.0 -1 0 0 0 1 0 0 0 -1 3010.DAT
0 STEP
1 86 200.0 -600 290.0 0 0 1 0 1 0 -1 0 0 3002.DAT
0 STEP
1 86 190.0 -648 290.0 0 0 1 0 1 0 -1 0 0 3622.DAT
0 STEP
1 86 220.0 -840 270.0 -1 0 0 0 1 0 0 0 -1 3010.DAT
0 STEP
1 86 190.0 -840 320.0 0 0 1 0 1 0 -1 0 0 3010.DAT
0 STEP
1 86 220.0 -576 310.0 -1 0 0 0 1 0 0 0 -1 3010.DAT
0 STEP
1 86 190.0 -672 320.0 0 0 1 0 1 0 -1 0 0 3004.DAT
0 STEP
1 86 190.0 -432 340.0 0 0 1 0 1 0 -1 0 0 3004.DAT
0 STEP
1 86 220.0 -864 350.0 -1 0 0 0 1 0 0 0 -1 3010.DAT
0 STEP
1 86 200.0 -888 380.0 0 0 1 0 1 0 -1 0 0 3001.DAT
0 STEP
1 86 190.0 -792 400.0 0 0 1 0 1 0 -1 0 0 3010.DAT
0 STEP
1 86 220.0 -840 380.0 -1 0 0 0 1 0 0 0 -1 3001.DAT
0 STEP
1 86 190.0 -864 370.0 0 0 1 0 1 0 -1 0 0 3005.DAT
0 STEP
1 86 190.0 -768 410.0 0 0 1 0 1 0 -1 0 0 3005.DAT
0 STEP
1 86 220.0 -840 420.0 -1 0 0 0 1 0 0 0 -1 3001.DAT
0 STEP
1 86 190.0 -720 440.0 0 0 1 0 1 0 -1 0 0 3004.DAT
0 STEP
1 86 200.0 -744 450.0 0 0 1 0 1 0 -1 0 0 3002.DAT
0 STEP
1 86 210.0 -768 430.0 -1 0 0 0 1 0 0 0 -1 3622.DAT
0 STEP
1 86 210.0 -864 430.0 -1 0 0 0 1 0 0 0 -1 3622.DAT
0 STEP
1 86 210.0 -768 460.0 -1 0 0 0 1 0 0 0 -1 3002.DAT
0 STEP
1 86 210.0 -840 450.0 -1 0 0 0 1 0 0 0 -1 3622.DAT
0 STEP
1 86 220.0 -720 470.0 -1 0 0 0 1 0 0 0 -1 3010.DAT
0 STEP
1 86 210.0 -792 470.0 -1 0 0 0 1 0 0 0 -1 3622.DAT
0 STEP
1 86 190.0 -216 510.0 0 0 1 0 1 0 -1 0 0 3005.DAT
0 STEP
1 86 220.0 -624 520.0 -1 0 0 0 1 0 0 0 -1 3001.DAT
0 STEP
1 86 200.0 -192 530.0 -1 0 0 0 1 0 0 0 -1 3004.DAT
0 STEP
1 86 190.0 -216 560.0 0 0 1 0 1 0 -1 0 0 3010.DAT
0 STEP
1 86 200.0 -240 570.0 0 0 1 0 1 0 -1 0 0 3002.DAT
0 STEP
1 86 220.0 -624 550.0 -1 0 0 0 1 0 0 0 -1 3010.DAT
0 STEP
1 86 190.0 -576 570.0 0 0 1 0 1 0 -1 0 0 3005.DAT
0 STEP
1 86 220.0 -624 580.0 -1 0 0 0 1 0 0 0 -1 3001.DAT
0 STEP
1 86 220.0 -240 610.0 -1 0 0 0 1 0 0 0 -1 3010.DAT
0 STEP
1 86 190.0 -576 610.0 0 0 1 0 1 0 -1 0 0 3005.DAT
0 STEP
1 86 190.0 -192 630.0 0 0 1 0 1 0 -1 0 0 3005.DAT
0 STEP
1 86 200.0 -240 660.0 0 0 1 0 1 0 -1 0 0 3001.DAT
0 STEP
1 86 190.0 -192 680.0 0 0 1 0 1 0 -1 0 0 3010.DAT
0 STEP
1 86 220.0 -552 650.0 -1 0 0 0 1 0 0 0 -1 3010.DAT
0 STEP
1 86 190.0 -576 650.0 0 0 1 0 1 0 -1 0 0 3005.DAT
0 STEP
1 86 260.0 -456 670.0 -1 0 0 0 1 0 0 0 -1 3008.DAT
0 STEP
1 86 200.0 -408 710.0 0 0 1 0 1 0 -1 0 0 3002.DAT
0 STEP
1 86 240.0 -456 700.0 -1 0 0 0 1 0 0 0 -1 2456.DAT
0 STEP
1 86 200.0 -168 740.0 0 0 1 0 1 0 -1 0 0 3001.DAT
0 STEP
1 86 210.0 -432 710.0 -1 0 0 0 1 0 0 0 -1 3622.DAT
0 STEP
1 86 190.0 -192 730.0 0 0 1 0 1 0 -1 0 0 3005.DAT
0 STEP
1 86 190.0 -144 770.0 0 0 1 0 1 0 -1 0 0 3622.DAT
0 STEP
1 86 220.0 -360 750.0 -1 0 0 0 1 0 0 0 -1 3010.DAT
0 STEP
1 86 200.0 -120 820.0 0 0 1 0 1 0 -1 0 0 3001.DAT
0 STEP
1 86 200.0 -264 810.0 0 0 1 0 1 0 -1 0 0 3002.DAT
0 STEP
1 86 220.0 -144 810.0 -1 0 0 0 1 0 0 0 -1 3010.DAT
0 STEP
1 86 200.0 -144 850.0 0 0 1 0 1 0 -1 0 0 3002.DAT
0 STEP
1 86 220.0 -216 840.0 -1 0 0 0 1 0 0 0 -1 3001.DAT
0 STEP
1 86 190.0 -192 860.0 0 0 1 0 1 0 -1 0 0 3004.DAT
0 STEP
1 86 190.0 -96 900.0 0 0 1 0 1 0 -1 0 0 3010.DAT
0 STEP
1 86 190.0 -168 900.0 0 0 1 0 1 0 -1 0 0 3010.DAT
0 STEP
1 86 220.0 -144 890.0 -1 0 0 0 1 0 0 0 -1 3010.DAT
0 STEP
1 86 240.0 -192 890.0 -1 0 0 0 1 0 0 0 -1 3009.DAT
0 STEP
1 86 190.0 -216 900.0 0 0 1 0 1 0 -1 0 0 3004.DAT
0 STEP
1 86 190.0 -144 930.0 0 0 1 0 1 0 -1 0 0 3622.DAT
0 STEP
1 86 210.0 -120 940.0 -1 0 0 0 1 0 0 0 -1 3002.DAT
0 STEP
1 86 210.0 -96 950.0 -1 0 0 0 1 0 0 0 -1 3622.DAT
0 STEP
1 86 190.0 -168 950.0 0 0 1 0 1 0 -1 0 0 3005.DAT
0 STEP
1 86 210.0 -504 20.0 0 0 1 0 1 0 -1 0 0 3004.DAT
0 STEP
1 86 210.0 -528 30.0 0 0 1 0 1 0 -1 0 0 3622.DAT
0 STEP
1 86 210.0 -552 10.0 0 0 1 0 1 0 -1 0 0 3005.DAT
0 STEP
1 86 210.0 -672 40.0 0 0 1 0 1 0 -1 0 0 3010.DAT
0 STEP
1 86 220.0 -624 100.0 0 0 1 0 1 0 -1 0 0 2456.DAT
0 STEP
1 86 210.0 -552 70.0 0 0 1 0 1 0 -1 0 0 3005.DAT
0 STEP
1 86 210.0 -576 90.0 0 0 1 0 1 0 -1 0 0 3005.DAT
0 STEP
1 86 210.0 -720 90.0 0 0 1 0 1 0 -1 0 0 3005.DAT
0 STEP
1 86 210.0 -744 110.0 0 0 1 0 1 0 -1 0 0 3622.DAT
0 STEP
1 86 210.0 -720 140.0 0 0 1 0 1 0 -1 0 0 3010.DAT
0 STEP
1 86 230.0 -768 120.0 -1 0 0 0 1 0 0 0 -1 3002.DAT
0 STEP
1 86 220.0 -816 130.0 -1 0 0 0 1 0 0 0 -1 3004.DAT
0 STEP
1 86 220.0 -744 150.0 -1 0 0 0 1 0 0 0 -1 3004.DAT
0 STEP
1 86 230.0 -768 160.0 -1 0 0 0 1 0 0 0 -1 3002.DAT
0 STEP
1 86 220.0 -816 180.0 0 0 1 0 1 0 -1 0 0 3001.DAT
0 STEP
1 86 210.0 -840 150.0 0 0 1 0 1 0 -1 0 0 3005.DAT
0 STEP
1 86 220.0 -624 170.0 -1 0 0 0 1 0 0 0 -1 3004.DAT
0 STEP
1 86 210.0 -840 200.0 0 0 1 0 1 0 -1 0 0 3010.DAT
0 STEP
1 86 230.0 -672 230.0 -1 0 0 0 1 0 0 0 -1 3622.DAT
0 STEP
1 86 220.0 -816 230.0 -1 0 0 0 1 0 0 0 -1 3004.DAT
0 STEP
1 86 240.0 -672 250.0 -1 0 0 0 1 0 0 0 -1 3010.DAT
0 STEP
1 86 210.0 -504 290.0 0 0 1 0 1 0 -1 0 0 3622.DAT
0 STEP
1 86 240.0 -528 280.0 -1 0 0 0 1 0 0 0 -1 3001.DAT
0 STEP
1 86 210.0 -648 270.0 0 0 1 0 1 0 -1 0 0 3005.DAT
0 STEP
1 86 220.0 -432 310.0 0 0 1 0 1 0 -1 0 0 3002.DAT
0 STEP
1 86 240.0 -456 300.0 -1 0 0 0 1 0 0 0 -1 3001.DAT
0 STEP
1 86 240.0 -840 300.0 -1 0 0 0 1 0 0 0 -1 3001.DAT
0 STEP
1 86 220.0 -888 290.0 -1 0 0 0 1 0 0 0 -1 3004.DAT
0 STEP
1 86 210.0 -456 330.0 0 0 1 0 1 0 -1 0 0 3005.DAT
0 STEP
1 86 240.0 -840 340.0 -1 0 0 0 1 0 0 0 -1 3001.DAT
0 STEP
1 86 210.0 -336 370.0 0 0 1 0 1 0 -1 0 0 3622.DAT
0 STEP
1 86 210.0 -312 400.0 0 0 1 0 1 0 -1 0 0 3010.DAT
0 STEP
1 86 230.0 -384 370.0 -1 0 0 0 1 0 0 0 -1 3622.DAT
0 STEP
1 86 240.0 -864 370.0 -1 0 0 0 1 0 0 0 -1 3010.DAT
0 STEP
1 86 220.0 -816 410.0 -1 0 0 0 1 0 0 0 -1 3004.DAT
0 STEP
1 86 210.0 -792 430.0 0 0 1 0 1 0 -1 0 0 3005.DAT
0 STEP
1 86 210.0 -696 470.0 0 0 1 0 1 0 -1 0 0 3622.DAT
0 STEP
1 86 230.0 -720 450.0 -1 0 0 0 1 0 0 0 -1 3622.DAT
0 STEP
1 86 230.0 -264 470.0 -1 0 0 0 1 0 0 0 -1 3622.DAT
0 STEP
1 86 240.0 -672 500.0 -1 0 0 0 1 0 0 0 -1 3001.DAT
0 STEP
1 86 220.0 -720 490.0 -1 0 0 0 1 0 0 0 -1 3004.DAT
0 STEP
1 86 210.0 -216 530.0 0 0 1 0 1 0 -1 0 0 3622.DAT
0 STEP
1 86 210.0 -600 530.0 0 0 1 0 1 0 -1 0 0 3005.DAT
0 STEP
1 86 210.0 -216 600.0 0 0 1 0 1 0 -1 0 0 3010.DAT
0 STEP
1 86 210.0 -576 590.0 0 0 1 0 1 0 -1 0 0 3622.DAT
0 STEP
1 86 210.0 -600 580.0 0 0 1 0 1 0 -1 0 0 3004.DAT
0 STEP
1 86 220.0 -600 610.0 -1 0 0 0 1 0 0 0 -1 3004.DAT
0 STEP
1 86 220.0 -192 660.0 0 0 1 0 1 0 -1 0 0 3001.DAT
0 STEP
1 86 210.0 -576 640.0 0 0 1 0 1 0 -1 0 0 3004.DAT
0 STEP
1 86 210.0 -528 670.0 0 0 1 0 1 0 -1 0 0 3005.DAT
0 STEP
1 86 220.0 -216 710.0 0 0 1 0 1 0 -1 0 0 3002.DAT
0 STEP
1 86 220.0 -432 690.0 -1 0 0 0 1 0 0 0 -1 3004.DAT
0 STEP
1 86 240.0 -192 710.0 -1 0 0 0 1 0 0 0 -1 3010.DAT
0 STEP
1 86 210.0 -192 740.0 0 0 1 0 1 0 -1 0 0 3004.DAT
0 STEP
1 86 210.0 -384 730.0 0 0 1 0 1 0 -1 0 0 3005.DAT
0 STEP
1 86 220.0 -432 730.0 -1 0 0 0 1 0 0 0 -1 3004.DAT
0 STEP
1 86 220.0 -144 770.0 0 0 1 0 1 0 -1 0 0 3002.DAT
0 STEP
1 86 220.0 -240 850.0 0 0 1 0 1 0 -1 0 0 3002.DAT
0 STEP
1 86 220.0 -192 850.0 -1 0 0 0 1 0 0 0 -1 3004.DAT
0 STEP
1 86 220.0 -96 890.0 0 0 1 0 1 0 -1 0 0 3002.DAT
0 STEP
1 86 240.0 -192 870.0 -1 0 0 0 1 0 0 0 -1 3010.DAT
0 STEP
1 86 210.0 -216 890.0 0 0 1 0 1 0 -1 0 0 3622.DAT
0 STEP
1 86 220.0 -168 920.0 0 0 1 0 1 0 -1 0 0 3001.DAT
0 STEP
1 86 230.0 -144 910.0 -1 0 0 0 1 0 0 0 -1 3622.DAT
0 STEP
1 86 240.0 -192 910.0 -1 0 0 0 1 0 0 0 -1 3010.DAT
0 STEP
1 86 230.0 -96 930.0 -1 0 0 0 1 0 0 0 -1 3622.DAT
0 STEP
1 86 210.0 -144 950.0 0 0 1 0 1 0 -1 0 0 3622.DAT
0 STEP
1 86 230.0 -600 40.0 0 0 1 0 1 0 -1 0 0 3010.DAT
0 STEP
1 86 230.0 -648 30.0 0 0 1 0 1 0 -1 0 0 3622.DAT
0 STEP
1 86 230.0 -672 30.0 0 0 1 0 1 0 -1 0 0 3005.DAT
0 STEP
1 86 240.0 -672 60.0 0 0 1 0 1 0 -1 0 0 3003.DAT
0 STEP
1 86 230.0 -744 80.0 0 0 1 0 1 0 -1 0 0 3010.DAT
0 STEP
1 86 240.0 -648 120.0 0 0 1 0 1 0 -1 0 0 2456.DAT
0 STEP
1 86 240.0 -720 120.0 0 0 1 0 1 0 -1 0 0 3001.DAT
0 STEP
1 86 240.0 -672 140.0 0 0 1 0 1 0 -1 0 0 3001.DAT
0 STEP
1 86 230.0 -744 130.0 0 0 1 0 1 0 -1 0 0 3005.DAT
0 STEP
1 86 250.0 -720 180.0 -1 0 0 0 1 0 0 0 -1 3002.DAT
0 STEP
1 86 230.0 -840 190.0 0 0 1 0 1 0 -1 0 0 3622.DAT
0 STEP
1 86 230.0 -648 220.0 0 0 1 0 1 0 -1 0 0 3010.DAT
0 STEP
1 86 230.0 -744 260.0 0 0 1 0 1 0 -1 0 0 3008.DAT
0 STEP
1 86 230.0 -696 280.0 0 0 1 0 1 0 -1 0 0 3008.DAT
0 STEP
1 86 250.0 -720 220.0 -1 0 0 0 1 0 0 0 -1 3002.DAT
0 STEP
1 86 250.0 -768 210.0 -1 0 0 0 1 0 0 0 -1 3622.DAT
0 STEP
1 86 240.0 -768 230.0 -1 0 0 0 1 0 0 0 -1 3004.DAT
0 STEP
1 86 250.0 -792 240.0 -1 0 0 0 1 0 0 0 -1 3002.DAT
0 STEP
1 86 240.0 -840 230.0 -1 0 0 0 1 0 0 0 -1 3004.DAT
0 STEP
1 86 250.0 -720 250.0 -1 0 0 0 1 0 0 0 -1 3622.DAT
0 STEP
1 86 240.0 -768 280.0 0 0 1 0 1 0 -1 0 0 3001.DAT
0 STEP
1 86 230.0 -816 300.0 0 0 1 0 1 0 -1 0 0 3009.DAT
0 STEP
1 86 230.0 -864 280.0 0 0 1 0 1 0 -1 0 0 3010.DAT
0 STEP
1 86 240.0 -504 290.0 0 0 1 0 1 0 -1 0 0 3002.DAT
0 STEP
1 86 250.0 -552 270.0 -1 0 0 0 1 0 0 0 -1 3622.DAT
0 STEP
1 86 240.0 -600 290.0 0 0 1 0 1 0 -1 0 0 3002.DAT
0 STEP
1 86 240.0 -648 290.0 0 0 1 0 1 0 -1 0 0 3002.DAT
0 STEP
1 86 250.0 -672 280.0 -1 0 0 0 1 0 0 0 -1 3002.DAT
0 STEP
1 86 250.0 -720 280.0 -1 0 0 0 1 0 0 0 -1 3002.DAT
0 STEP
1 86 250.0 -792 280.0 -1 0 0 0 1 0 0 0 -1 3002.DAT
0 STEP
1 86 260.0 -552 290.0 -1 0 0 0 1 0 0 0 -1 3010.DAT
0 STEP
1 86 230.0 -552 310.0 0 0 1 0 1 0 -1 0 0 3005.DAT
0 STEP
1 86 230.0 -624 310.0 0 0 1 0 1 0 -1 0 0 3005.DAT
0 STEP
1 86 250.0 -672 320.0 -1 0 0 0 1 0 0 0 -1 3002.DAT
0 STEP
1 86 250.0 -720 320.0 -1 0 0 0 1 0 0 0 -1 3002.DAT
0 STEP
1 86 230.0 -792 310.0 0 0 1 0 1 0 -1 0 0 3005.DAT
0 STEP
1 86 230.0 -888 340.0 0 0 1 0 1 0 -1 0 0 3010.DAT
0 STEP
1 86 280.0 -456 330.0 -1 0 0 0 1 0 0 0 -1 3009.DAT
0 STEP
1 86 230.0 -864 330.0 0 0 1 0 1 0 -1 0 0 3005.DAT
0 STEP
1 86 230.0 -720 360.0 0 0 1 0 1 0 -1 0 0 3004.DAT
0 STEP
1 86 230.0 -744 380.0 0 0 1 0 1 0 -1 0 0 3010.DAT
0 STEP
1 86 250.0 -768 360.0 -1 0 0 0 1 0 0 0 -1 3002.DAT
0 STEP
1 86 230.0 -792 360.0 0 0 1 0 1 0 -1 0 0 3004.DAT
0 STEP
1 86 260.0 -336 380.0 -1 0 0 0 1 0 0 0 -1 3001.DAT
0 STEP
1 86 240.0 -816 370.0 -1 0 0 0 1 0 0 0 -1 3004.DAT
0 STEP
1 86 260.0 -312 400.0 -1 0 0 0 1 0 0 0 -1 3001.DAT
0 STEP
1 86 240.0 -768 390.0 -1 0 0 0 1 0 0 0 -1 3004.DAT
0 STEP
1 86 250.0 -792 390.0 -1 0 0 0 1 0 0 0 -1 3622.DAT
0 STEP
1 86 230.0 -816 390.0 0 0 1 0 1 0 -1 0 0 3005.DAT
0 STEP
1 86 230.0 -888 390.0 0 0 1 0 1 0 -1 0 0 3005.DAT
0 STEP
1 86 230.0 -768 410.0 0 0 1 0 1 0 -1 0 0 3005.DAT
0 STEP
1 86 250.0 -792 420.0 -1 0 0 0 1 0 0 0 -1 3002.DAT
0 STEP
1 86 260.0 -312 430.0 -1 0 0 0 1 0 0 0 -1 3010.DAT
0 STEP
1 86 240.0 -720 430.0 -1 0 0 0 1 0 0 0 -1 3004.DAT
0 STEP
1 86 230.0 -744 430.0 0 0 1 0 1 0 -1 0 0 3005.DAT
0 STEP
1 86 260.0 -696 450.0 -1 0 0 0 1 0 0 0 -1 3010.DAT
0 STEP
1 86 250.0 -744 450.0 -1 0 0 0 1 0 0 0 -1 3622.DAT
0 STEP
1 86 250.0 -696 480.0 -1 0 0 0 1 0 0 0 -1 3002.DAT
0 STEP
1 86 240.0 -744 470.0 -1 0 0 0 1 0 0 0 -1 3004.DAT
0 STEP
1 86 230.0 -192 510.0 0 0 1 0 1 0 -1 0 0 3622.DAT
0 STEP
1 86 240.0 -216 510.0 -1 0 0 0 1 0 0 0 -1 3004.DAT
0 STEP
1 86 250.0 -216 540.0 -1 0 0 0 1 0 0 0 -1 3002.DAT
0 STEP
1 86 230.0 -240 530.0 0 0 1 0 1 0 -1 0 0 3005.DAT
0 STEP
1 86 230.0 -600 560.0 0 0 1 0 1 0 -1 0 0 3010.DAT
0 STEP
1 86 260.0 -240 560.0 -1 0 0 0 1 0 0 0 -1 3001.DAT
0 STEP
1 86 250.0 -216 580.0 -1 0 0 0 1 0 0 0 -1 3002.DAT
0 STEP
1 86 230.0 -264 570.0 0 0 1 0 1 0 -1 0 0 3005.DAT
0 STEP
1 86 230.0 -576 570.0 0 0 1 0 1 0 -1 0 0 3005.DAT
0 STEP
1 86 240.0 -240 590.0 -1 0 0 0 1 0 0 0 -1 3004.DAT
0 STEP
1 86 260.0 -576 590.0 -1 0 0 0 1 0 0 0 -1 3010.DAT
0 STEP
1 86 260.0 -216 620.0 -1 0 0 0 1 0 0 0 -1 3001.DAT
0 STEP
1 86 260.0 -576 620.0 -1 0 0 0 1 0 0 0 -1 3001.DAT
0 STEP
1 86 230.0 -240 660.0 0 0 1 0 1 0 -1 0 0 3010.DAT
0 STEP
1 86 230.0 -528 650.0 0 0 1 0 1 0 -1 0 0 3622.DAT
0 STEP
1 86 230.0 -216 660.0 0 0 1 0 1 0 -1 0 0 3004.DAT
0 STEP
1 86 240.0 -480 670.0 0 0 1 0 1 0 -1 0 0 3002.DAT
0 STEP
1 86 230.0 -504 670.0 0 0 1 0 1 0 -1 0 0 3005.DAT
0 STEP
1 86 260.0 -408 690.0 -1 0 0 0 1 0 0 0 -1 3010.DAT
0 STEP
1 86 250.0 -504 690.0 -1 0 0 0 1 0 0 0 -1 3622.DAT
0 STEP
1 86 230.0 -240 710.0 0 0 1 0 1 0 -1 0 0 3005.DAT
0 STEP
1 86 240.0 -384 730.0 0 0 1 0 1 0 -1 0 0 3002.DAT
0 STEP
1 86 260.0 -408 720.0 -1 0 0 0 1 0 0 0 -1 3001.DAT
0 STEP
1 86 250.0 -168 730.0 -1 0 0 0 1 0 0 0 -1 3622.DAT
0 STEP
1 86 240.0 -192 750.0 0 0 1 0 1 0 -1 0 0 3002.DAT
0 STEP
1 86 260.0 -336 730.0 -1 0 0 0 1 0 0 0 -1 3010.DAT
0 STEP
1 86 260.0 -168 750.0 -1 0 0 0 1 0 0 0 -1 3010.DAT
0 STEP
1 86 230.0 -336 750.0 0 0 1 0 1 0 -1 0 0 3005.DAT
0 STEP
1 86 230.0 -168 770.0 0 0 1 0 1 0 -1 0 0 3005.DAT
0 STEP
1 86 250.0 -336 770.0 -1 0 0 0 1 0 0 0 -1 3622.DAT
0 STEP
1 86 230.0 -120 820.0 0 0 1 0 1 0 -1 0 0 3010.DAT
0 STEP
1 86 260.0 -264 800.0 -1 0 0 0 1 0 0 0 -1 3001.DAT
0 STEP
1 86 230.0 -288 810.0 0 0 1 0 1 0 -1 0 0 3005.DAT
0 STEP
1 86 250.0 -144 830.0 -1 0 0 0 1 0 0 0 -1 3622.DAT
0 STEP
1 86 260.0 -264 830.0 -1 0 0 0 1 0 0 0 -1 3010.DAT
0 STEP
1 86 230.0 -96 850.0 0 0 1 0 1 0 -1 0 0 3005.DAT
0 STEP
1 86 260.0 -144 850.0 -1 0 0 0 1 0 0 0 -1 3010.DAT
0 STEP
1 86 240.0 -144 870.0 -1 0 0 0 1 0 0 0 -1 3004.DAT
0 STEP
1 86 260.0 -216 870.0 -1 0 0 0 1 0 0 0 -1 3010.DAT
0 STEP
1 86 260.0 -120 890.0 -1 0 0 0 1 0 0 0 -1 3010.DAT
0 STEP
1 86 250.0 -216 890.0 -1 0 0 0 1 0 0 0 -1 3622.DAT
0 STEP
1 86 240.0 -144 940.0 0 0 1 0 1 0 -1 0 0 3003.DAT
0 STEP
1 86 250.0 -696 100.0 0 0 1 0 1 0 -1 0 0 3010.DAT
0 STEP
1 86 250.0 -672 90.0 0 0 1 0 1 0 -1 0 0 3005.DAT
0 STEP
1 86 250.0 -744 90.0 0 0 1 0 1 0 -1 0 0 3005.DAT
0 STEP
1 86 250.0 -744 180.0 0 0 1 0 1 0 -1 0 0 3008.DAT
0 STEP
1 86 250.0 -792 160.0 0 0 1 0 1 0 -1 0 0 3010.DAT
0 STEP
1 86 250.0 -696 150.0 0 0 1 0 1 0 -1 0 0 3005.DAT
0 STEP
1 86 250.0 -816 180.0 0 0 1 0 1 0 -1 0 0 3004.DAT
0 STEP
1 86 250.0 -696 190.0 0 0 1 0 1 0 -1 0 0 3005.DAT
0 STEP
1 86 260.0 -696 240.0 0 0 1 0 1 0 -1 0 0 3001.DAT
0 STEP
1 86 250.0 -792 210.0 0 0 1 0 1 0 -1 0 0 3005.DAT
0 STEP
1 86 250.0 -816 280.0 0 0 1 0 1 0 -1 0 0 3008.DAT
0 STEP
1 86 250.0 -648 250.0 0 0 1 0 1 0 -1 0 0 3005.DAT
0 STEP
1 86 250.0 -840 250.0 0 0 1 0 1 0 -1 0 0 3005.DAT
0 STEP
1 86 260.0 -744 270.0 -1 0 0 0 1 0 0 0 -1 3004.DAT
0 STEP
1 86 250.0 -864 300.0 0 0 1 0 1 0 -1 0 0 3010.DAT
0 STEP
1 86 250.0 -576 290.0 0 0 1 0 1 0 -1 0 0 3005.DAT
0 STEP
1 86 250.0 -696 290.0 0 0 1 0 1 0 -1 0 0 3005.DAT
0 STEP
1 86 260.0 -744 360.0 0 0 1 0 1 0 -1 0 0 3007.DAT
0 STEP
1 86 250.0 -432 330.0 0 0 1 0 1 0 -1 0 0 3622.DAT
0 STEP
1 86 280.0 -552 310.0 -1 0 0 0 1 0 0 0 -1 3010.DAT
0 STEP
1 86 250.0 -624 320.0 0 0 1 0 1 0 -1 0 0 3004.DAT
0 STEP
1 86 250.0 -696 340.0 0 0 1 0 1 0 -1 0 0 3010.DAT
0 STEP
1 86 260.0 -792 340.0 0 0 1 0 1 0 -1 0 0 3001.DAT
0 STEP
1 86 270.0 -600 330.0 -1 0 0 0 1 0 0 0 -1 3622.DAT
0 STEP
1 86 250.0 -648 350.0 0 0 1 0 1 0 -1 0 0 3622.DAT
0 STEP
1 86 270.0 -768 330.0 -1 0 0 0 1 0 0 0 -1 3622.DAT
0 STEP
1 86 250.0 -888 360.0 0 0 1 0 1 0 -1 0 0 3010.DAT
0 STEP
1 86 270.0 -672 350.0 -1 0 0 0 1 0 0 0 -1 3622.DAT
0 STEP
1 86 260.0 -720 350.0 -1 0 0 0 1 0 0 0 -1 3004.DAT
0 STEP
1 86 270.0 -672 380.0 -1 0 0 0 1 0 0 0 -1 3002.DAT
0 STEP
1 86 250.0 -720 390.0 0 0 1 0 1 0 -1 0 0 3622.DAT
0 STEP
1 86 250.0 -360 390.0 0 0 1 0 1 0 -1 0 0 3005.DAT
0 STEP
1 86 260.0 -696 410.0 0 0 1 0 1 0 -1 0 0 3002.DAT
0 STEP
1 86 250.0 -816 420.0 0 0 1 0 1 0 -1 0 0 3010.DAT
0 STEP
1 86 250.0 -336 410.0 0 0 1 0 1 0 -1 0 0 3005.DAT
0 STEP
1 86 250.0 -768 440.0 0 0 1 0 1 0 -1 0 0 3010.DAT
0 STEP
1 86 250.0 -864 410.0 0 0 1 0 1 0 -1 0 0 3005.DAT
0 STEP
1 86 250.0 -264 430.0 0 0 1 0 1 0 -1 0 0 3005.DAT
0 STEP
1 86 250.0 -240 460.0 0 0 1 0 1 0 -1 0 0 3004.DAT
0 STEP
1 86 270.0 -264 450.0 -1 0 0 0 1 0 0 0 -1 3622.DAT
0 STEP
1 86 250.0 -672 450.0 0 0 1 0 1 0 -1 0 0 3005.DAT
0 STEP
1 86 250.0 -792 450.0 0 0 1 0 1 0 -1 0 0 3005.DAT
0 STEP
1 86 270.0 -192 470.0 -1 0 0 0 1 0 0 0 -1 3622.DAT
0 STEP
1 86 260.0 -192 500.0 0 0 1 0 1 0 -1 0 0 3003.DAT
0 STEP
1 86 250.0 -648 500.0 0 0 1 0 1 0 -1 0 0 3004.DAT
0 STEP
1 86 280.0 -240 530.0 -1 0 0 0 1 0 0 0 -1 3010.DAT
0 STEP
1 86 260.0 -264 580.0 0 0 1 0 1 0 -1 0 0 2456.DAT
0 STEP
1 86 280.0 -600 530.0 -1 0 0 0 1 0 0 0 -1 3010.DAT
0 STEP
1 86 260.0 -600 580.0 0 0 1 0 1 0 -1 0 0 3001.DAT
0 STEP
1 86 280.0 -576 570.0 -1 0 0 0 1 0 0 0 -1 3010.DAT
0 STEP
1 86 250.0 -240 630.0 0 0 1 0 1 0 -1 0 0 3005.DAT
0 STEP
1 86 260.0 -528 650.0 0 0 1 0 1 0 -1 0 0 3002.DAT
0 STEP
1 86 250.0 -192 670.0 0 0 1 0 1 0 -1 0 0 3622.DAT
0 STEP
1 86 280.0 -216 650.0 -1 0 0 0 1 0 0 0 -1 3010.DAT
0 STEP
1 86 260.0 -240 680.0 0 0 1 0 1 0 -1 0 0 3001.DAT
0 STEP
1 86 280.0 -216 680.0 -1 0 0 0 1 0 0 0 -1 3001.DAT
0 STEP
1 86 260.0 -432 690.0 0 0 1 0 1 0 -1 0 0 3002.DAT
0 STEP
1 86 280.0 -504 670.0 -1 0 0 0 1 0 0 0 -1 3010.DAT
0 STEP
1 86 250.0 -216 720.0 0 0 1 0 1 0 -1 0 0 3004.DAT
0 STEP
1 86 280.0 -216 750.0 -1 0 0 0 1 0 0 0 -1 3010.DAT
0 STEP
1 86 280.0 -336 750.0 -1 0 0 0 1 0 0 0 -1 3010.DAT
0 STEP
1 86 260.0 -144 780.0 0 0 1 0 1 0 -1 0 0 3003.DAT
0 STEP
1 86 280.0 -168 780.0 -1 0 0 0 1 0 0 0 -1 3001.DAT
0 STEP
1 86 250.0 -288 790.0 0 0 1 0 1 0 -1 0 0 3622.DAT
0 STEP
1 86 260.0 -120 800.0 0 0 1 0 1 0 -1 0 0 3003.DAT
0 STEP
1 86 250.0 -168 810.0 0 0 1 0 1 0 -1 0 0 3005.DAT
0 STEP
1 86 260.0 -240 830.0 0 0 1 0 1 0 -1 0 0 3002.DAT
0 STEP
1 86 250.0 -96 830.0 0 0 1 0 1 0 -1 0 0 3005.DAT
0 STEP
1 86 270.0 -120 830.0 -1 0 0 0 1 0 0 0 -1 3622.DAT
0 STEP
1 86 270.0 -192 840.0 -1 0 0 0 1 0 0 0 -1 3002.DAT
0 STEP
1 86 260.0 -96 880.0 0 0 1 0 1 0 -1 0 0 3001.DAT
0 STEP
1 86 270.0 -120 860.0 -1 0 0 0 1 0 0 0 -1 3002.DAT
0 STEP
1 86 250.0 -168 880.0 0 0 1 0 1 0 -1 0 0 3010.DAT
0 STEP
1 86 250.0 -120 920.0 0 0 1 0 1 0 -1 0 0 3004.DAT
0 STEP
1 86 260.0 -168 930.0 -1 0 0 0 1 0 0 0 -1 3004.DAT
0 STEP
1 86 250.0 -192 930.0 0 0 1 0 1 0 -1 0 0 3005.DAT
0 STEP
1 86 250.0 -168 950.0 0 0 1 0 1 0 -1 0 0 3005.DAT
0 STEP
1 86 270.0 -744 220.0 0 0 1 0 1 0 -1 0 0 3010.DAT
0 STEP
1 86 270.0 -768 260.0 0 0 1 0 1 0 -1 0 0 3010.DAT
0 STEP
1 86 270.0 -816 280.0 0 0 1 0 1 0 -1 0 0 3010.DAT
0 STEP
1 86 270.0 -504 280.0 0 0 1 0 1 0 -1 0 0 3004.DAT
0 STEP
1 86 270.0 -576 290.0 0 0 1 0 1 0 -1 0 0 3622.DAT
0 STEP
1 86 270.0 -600 280.0 0 0 1 0 1 0 -1 0 0 3004.DAT
0 STEP
1 86 270.0 -624 270.0 0 0 1 0 1 0 -1 0 0 3005.DAT
0 STEP
1 86 270.0 -648 300.0 0 0 1 0 1 0 -1 0 0 3010.DAT
0 STEP
1 86 280.0 -24 310.0 0 0 1 0 1 0 -1 0 0 3002.DAT
0 STEP
1 86 280.0 -480 310.0 0 0 1 0 1 0 -1 0 0 3002.DAT
0 STEP
1 86 270.0 -696 320.0 0 0 1 0 1 0 -1 0 0 3010.DAT
0 STEP
1 86 280.0 -432 330.0 0 0 1 0 1 0 -1 0 0 3002.DAT
0 STEP
1 86 290.0 -504 310.0 -1 0 0 0 1 0 0 0 -1 3622.DAT
0 STEP
1 86 270.0 -528 310.0 0 0 1 0 1 0 -1 0 0 3005.DAT
0 STEP
1 86 280.0 -600 310.0 -1 0 0 0 1 0 0 0 -1 3004.DAT
0 STEP
1 86 270.0 -624 340.0 0 0 1 0 1 0 -1 0 0 3010.DAT
0 STEP
1 86 270.0 -768 310.0 0 0 1 0 1 0 -1 0 0 3005.DAT
0 STEP
1 86 270.0 -864 330.0 0 0 1 0 1 0 -1 0 0 3622.DAT
0 STEP
1 86 270.0 0 350.0 0 0 1 0 1 0 -1 0 0 3622.DAT
0 STEP
1 86 270.0 -48 330.0 0 0 1 0 1 0 -1 0 0 3005.DAT
0 STEP
1 86 270.0 -384 350.0 0 0 1 0 1 0 -1 0 0 3622.DAT
0 STEP
1 86 290.0 -576 330.0 -1 0 0 0 1 0 0 0 -1 3622.DAT
0 STEP
1 86 270.0 -816 330.0 0 0 1 0 1 0 -1 0 0 3005.DAT
0 STEP
1 86 290.0 -24 350.0 -1 0 0 0 1 0 0 0 -1 3622.DAT
0 STEP
1 86 280.0 -48 350.0 -1 0 0 0 1 0 0 0 -1 3004.DAT
0 STEP
1 86 300.0 -600 350.0 -1 0 0 0 1 0 0 0 -1 3010.DAT
0 STEP
1 86 280.0 -648 380.0 0 0 1 0 1 0 -1 0 0 3001.DAT
0 STEP
1 86 270.0 -816 380.0 0 0 1 0 1 0 -1 0 0 3010.DAT
0 STEP
1 86 270.0 -24 400.0 0 0 1 0 1 0 -1 0 0 3010.DAT
0 STEP
1 86 300.0 -48 380.0 -1 0 0 0 1 0 0 0 -1 3001.DAT
0 STEP
1 86 270.0 -696 370.0 0 0 1 0 1 0 -1 0 0 3005.DAT
0 STEP
1 86 270.0 -720 420.0 0 0 1 0 1 0 -1 0 0 3009.DAT
0 STEP
1 86 270.0 -840 390.0 0 0 1 0 1 0 -1 0 0 3622.DAT
0 STEP
1 86 300.0 -360 390.0 -1 0 0 0 1 0 0 0 -1 3010.DAT
0 STEP
1 86 270.0 -768 420.0 0 0 1 0 1 0 -1 0 0 3010.DAT
0 STEP
1 86 300.0 -48 420.0 -1 0 0 0 1 0 0 0 -1 3001.DAT
0 STEP
1 86 270.0 -72 430.0 0 0 1 0 1 0 -1 0 0 3622.DAT
0 STEP
1 86 300.0 -336 420.0 -1 0 0 0 1 0 0 0 -1 3001.DAT
0 STEP
1 86 290.0 -672 410.0 -1 0 0 0 1 0 0 0 -1 3622.DAT
0 STEP
1 86 280.0 -672 440.0 0 0 1 0 1 0 -1 0 0 3003.DAT
0 STEP
1 86 270.0 -816 430.0 0 0 1 0 1 0 -1 0 0 3005.DAT
0 STEP
1 86 290.0 -48 450.0 -1 0 0 0 1 0 0 0 -1 3622.DAT
0 STEP
1 86 280.0 -96 460.0 0 0 1 0 1 0 -1 0 0 3003.DAT
0 STEP
1 86 280.0 -120 460.0 0 0 1 0 1 0 -1 0 0 3003.DAT
0 STEP
1 86 280.0 -144 470.0 0 0 1 0 1 0 -1 0 0 3002.DAT
0 STEP
1 86 270.0 -288 460.0 0 0 1 0 1 0 -1 0 0 3004.DAT
0 STEP
1 86 280.0 -312 450.0 -1 0 0 0 1 0 0 0 -1 3004.DAT
0 STEP
1 86 270.0 -648 480.0 0 0 1 0 1 0 -1 0 0 3010.DAT
0 STEP
1 86 280.0 -168 480.0 0 0 1 0 1 0 -1 0 0 3003.DAT
0 STEP
1 86 270.0 -216 490.0 0 0 1 0 1 0 -1 0 0 3622.DAT
0 STEP
1 86 280.0 -240 470.0 -1 0 0 0 1 0 0 0 -1 3004.DAT
0 STEP
1 86 270.0 -264 480.0 0 0 1 0 1 0 -1 0 0 3004.DAT
0 STEP
1 86 270.0 -624 540.0 0 0 1 0 1 0 -1 0 0 3009.DAT
0 STEP
1 86 280.0 -240 600.0 0 0 1 0 1 0 -1 0 0 3003.DAT
0 STEP
1 86 300.0 -240 630.0 -1 0 0 0 1 0 0 0 -1 3010.DAT
0 STEP
1 86 290.0 -264 660.0 -1 0 0 0 1 0 0 0 -1 3002.DAT
0 STEP
1 86 280.0 -480 670.0 0 0 1 0 1 0 -1 0 0 3002.DAT
0 STEP
1 86 290.0 -552 650.0 -1 0 0 0 1 0 0 0 -1 3622.DAT
0 STEP
1 86 270.0 -192 690.0 0 0 1 0 1 0 -1 0 0 3005.DAT
0 STEP
1 86 290.0 -384 700.0 -1 0 0 0 1 0 0 0 -1 3002.DAT
0 STEP
1 86 300.0 -216 720.0 -1 0 0 0 1 0 0 0 -1 3001.DAT
0 STEP
1 86 280.0 -192 730.0 -1 0 0 0 1 0 0 0 -1 3004.DAT
0 STEP
1 86 280.0 -384 730.0 -1 0 0 0 1 0 0 0 -1 3004.DAT
0 STEP
1 86 280.0 -192 780.0 0 0 1 0 1 0 -1 0 0 3001.DAT
0 STEP
1 86 270.0 -288 780.0 0 0 1 0 1 0 -1 0 0 3010.DAT
0 STEP
1 86 270.0 -360 750.0 0 0 1 0 1 0 -1 0 0 3005.DAT
0 STEP
1 86 280.0 -216 770.0 -1 0 0 0 1 0 0 0 -1 3004.DAT
0 STEP
1 86 270.0 -240 780.0 0 0 1 0 1 0 -1 0 0 3004.DAT
0 STEP
1 86 290.0 -264 770.0 -1 0 0 0 1 0 0 0 -1 3622.DAT
0 STEP
1 86 280.0 -216 820.0 0 0 1 0 1 0 -1 0 0 3001.DAT
0 STEP
1 86 270.0 -144 810.0 0 0 1 0 1 0 -1 0 0 3005.DAT
0 STEP
1 86 290.0 -168 820.0 -1 0 0 0 1 0 0 0 -1 3002.DAT
0 STEP
1 86 280.0 -168 860.0 0 0 1 0 1 0 -1 0 0 3003.DAT
0 STEP
1 86 270.0 -144 890.0 0 0 1 0 1 0 -1 0 0 3622.DAT
0 STEP
1 86 270.0 -168 900.0 0 0 1 0 1 0 -1 0 0 3004.DAT
0 STEP
1 86 270.0 -120 910.0 0 0 1 0 1 0 -1 0 0 3005.DAT
0 STEP
1 86 290.0 0 320.0 0 0 1 0 1 0 -1 0 0 3008.DAT
0 STEP
1 86 290.0 -504 290.0 0 0 1 0 1 0 -1 0 0 3005.DAT
0 STEP
1 86 290.0 -528 310.0 0 0 1 0 1 0 -1 0 0 3622.DAT
0 STEP
1 86 290.0 -576 300.0 0 0 1 0 1 0 -1 0 0 3004.DAT
0 STEP
1 86 290.0 -456 310.0 0 0 1 0 1 0 -1 0 0 3005.DAT
0 STEP
1 86 300.0 -408 350.0 0 0 1 0 1 0 -1 0 0 3002.DAT
0 STEP
1 86 310.0 -504 330.0 -1 0 0 0 1 0 0 0 -1 3622.DAT
0 STEP
1 86 310.0 -552 330.0 -1 0 0 0 1 0 0 0 -1 3622.DAT
0 STEP
1 86 290.0 -624 350.0 0 0 1 0 1 0 -1 0 0 3622.DAT
0 STEP
1 86 290.0 -648 330.0 0 0 1 0 1 0 -1 0 0 3005.DAT
0 STEP
1 86 290.0 -792 330.0 0 0 1 0 1 0 -1 0 0 3005.DAT
0 STEP
1 86 290.0 -384 370.0 0 0 1 0 1 0 -1 0 0 3622.DAT
0 STEP
1 86 320.0 -456 350.0 -1 0 0 0 1 0 0 0 -1 3010.DAT
0 STEP
1 86 320.0 -576 350.0 -1 0 0 0 1 0 0 0 -1 3010.DAT
0 STEP
1 86 290.0 -24 370.0 0 0 1 0 1 0 -1 0 0 3005.DAT
0 STEP
1 86 300.0 -360 370.0 -1 0 0 0 1 0 0 0 -1 3004.DAT
0 STEP
1 86 320.0 -600 370.0 -1 0 0 0 1 0 0 0 -1 3010.DAT
0 STEP
1 86 290.0 -696 400.0 0 0 1 0 1 0 -1 0 0 3010.DAT
0 STEP
1 86 300.0 -24 440.0 0 0 1 0 1 0 -1 0 0 2456.DAT
0 STEP
1 86 300.0 -624 440.0 0 0 1 0 1 0 -1 0 0 2456.DAT
0 STEP
1 86 290.0 -720 400.0 0 0 1 0 1 0 -1 0 0 3004.DAT
0 STEP
1 86 300.0 -72 440.0 0 0 1 0 1 0 -1 0 0 3001.DAT
0 STEP
1 86 290.0 -360 410.0 0 0 1 0 1 0 -1 0 0 3005.DAT
0 STEP
1 86 290.0 -96 430.0 0 0 1 0 1 0 -1 0 0 3005.DAT
0 STEP
1 86 310.0 -648 430.0 -1 0 0 0 1 0 0 0 -1 3622.DAT
0 STEP
1 86 300.0 -288 450.0 -1 0 0 0 1 0 0 0 -1 3004.DAT
0 STEP
1 86 300.0 -648 480.0 0 0 1 0 1 0 -1 0 0 3001.DAT
0 STEP
1 86 300.0 -48 490.0 0 0 1 0 1 0 -1 0 0 3002.DAT
0 STEP
1 86 290.0 -216 470.0 0 0 1 0 1 0 -1 0 0 3005.DAT
0 STEP
1 86 300.0 -264 470.0 -1 0 0 0 1 0 0 0 -1 3004.DAT
0 STEP
1 86 310.0 -288 480.0 -1 0 0 0 1 0 0 0 -1 3002.DAT
0 STEP
1 86 290.0 -696 470.0 0 0 1 0 1 0 -1 0 0 3005.DAT
0 STEP
1 86 290.0 -192 490.0 0 0 1 0 1 0 -1 0 0 3005.DAT
0 STEP
1 86 290.0 -216 540.0 0 0 1 0 1 0 -1 0 0 3009.DAT
0 STEP
1 86 290.0 -264 520.0 0 0 1 0 1 0 -1 0 0 3010.DAT
0 STEP
1 86 320.0 -600 490.0 -1 0 0 0 1 0 0 0 -1 3010.DAT
0 STEP
1 86 300.0 -600 510.0 -1 0 0 0 1 0 0 0 -1 3004.DAT
0 STEP
1 86 310.0 -624 520.0 -1 0 0 0 1 0 0 0 -1 3002.DAT
0 STEP
1 86 320.0 -576 550.0 -1 0 0 0 1 0 0 0 -1 3010.DAT
0 STEP
1 86 290.0 -600 580.0 0 0 1 0 1 0 -1 0 0 3010.DAT
0 STEP
1 86 300.0 -624 560.0 0 0 1 0 1 0 -1 0 0 3003.DAT
0 STEP
1 86 320.0 -264 570.0 -1 0 0 0 1 0 0 0 -1 3010.DAT
0 STEP
1 86 300.0 -264 610.0 0 0 1 0 1 0 -1 0 0 3002.DAT
0 STEP
1 86 290.0 -552 610.0 0 0 1 0 1 0 -1 0 0 3622.DAT
0 STEP
1 86 320.0 -504 630.0 -1 0 0 0 1 0 0 0 -1 3010.DAT
0 STEP
1 86 290.0 -528 650.0 0 0 1 0 1 0 -1 0 0 3622.DAT
0 STEP
1 86 290.0 -240 720.0 0 0 1 0 1 0 -1 0 0 3008.DAT
0 STEP
1 86 290.0 -432 690.0 0 0 1 0 1 0 -1 0 0 3622.DAT
0 STEP
1 86 320.0 -264 690.0 -1 0 0 0 1 0 0 0 -1 3010.DAT
0 STEP
1 86 320.0 -360 690.0 -1 0 0 0 1 0 0 0 -1 3010.DAT
0 STEP
1 86 290.0 -192 710.0 0 0 1 0 1 0 -1 0 0 3005.DAT
0 STEP
1 86 310.0 -264 710.0 -1 0 0 0 1 0 0 0 -1 3622.DAT
0 STEP
1 86 290.0 -288 710.0 0 0 1 0 1 0 -1 0 0 3005.DAT
0 STEP
1 86 310.0 -312 720.0 -1 0 0 0 1 0 0 0 -1 3002.DAT
0 STEP
1 86 290.0 -336 710.0 0 0 1 0 1 0 -1 0 0 3005.DAT
0 STEP
1 86 310.0 -264 740.0 -1 0 0 0 1 0 0 0 -1 3002.DAT
0 STEP
1 86 290.0 -288 760.0 0 0 1 0 1 0 -1 0 0 3010.DAT
0 STEP
1 86 290.0 -144 790.0 0 0 1 0 1 0 -1 0 0 3622.DAT
0 STEP
1 86 290.0 -120 810.0 0 0 1 0 1 0 -1 0 0 3005.DAT
0 STEP
1 86 300.0 -240 810.0 -1 0 0 0 1 0 0 0 -1 3004.DAT
0 STEP
1 86 300.0 -144 830.0 -1 0 0 0 1 0 0 0 -1 3004.DAT
0 STEP
1 86 290.0 -240 840.0 0 0 1 0 1 0 -1 0 0 3004.DAT
0 STEP
1 86 290.0 -144 870.0 0 0 1 0 1 0 -1 0 0 3005.DAT
0 STEP
1 86 290.0 -192 870.0 0 0 1 0 1 0 -1 0 0 3005.DAT
0 STEP
1 86 310.0 -480 330.0 0 0 1 0 1 0 -1 0 0 3622.DAT
0 STEP
1 86 310.0 -528 330.0 0 0 1 0 1 0 -1 0 0 3622.DAT
0 STEP
1 86 310.0 -432 330.0 0 0 1 0 1 0 -1 0 0 3005.DAT
0 STEP
1 86 310.0 -384 350.0 0 0 1 0 1 0 -1 0 0 3005.DAT
0 STEP
1 86 320.0 -432 350.0 -1 0 0 0 1 0 0 0 -1 3004.DAT
0 STEP
1 86 330.0 -504 350.0 -1 0 0 0 1 0 0 0 -1 3622.DAT
0 STEP
1 86 330.0 -552 360.0 -1 0 0 0 1 0 0 0 -1 3002.DAT
0 STEP
1 86 310.0 -624 360.0 0 0 1 0 1 0 -1 0 0 3004.DAT
0 STEP
1 86 310.0 0 380.0 0 0 1 0 1 0 -1 0 0 3004.DAT
0 STEP
1 86 340.0 -24 370.0 -1 0 0 0 1 0 0 0 -1 3010.DAT
0 STEP
1 86 320.0 -384 370.0 -1 0 0 0 1 0 0 0 -1 3004.DAT
0 STEP
1 86 330.0 -432 370.0 -1 0 0 0 1 0 0 0 -1 3622.DAT
0 STEP
1 86 310.0 -456 370.0 0 0 1 0 1 0 -1 0 0 3005.DAT
0 STEP
1 86 320.0 -576 440.0 0 0 1 0 1 0 -1 0 0 3007.DAT
0 STEP
1 86 310.0 -336 390.0 0 0 1 0 1 0 -1 0 0 3005.DAT
0 STEP
1 86 310.0 -384 410.0 0 0 1 0 1 0 -1 0 0 3622.DAT
0 STEP
1 86 310.0 -408 390.0 0 0 1 0 1 0 -1 0 0 3005.DAT
0 STEP
1 86 330.0 -600 390.0 -1 0 0 0 1 0 0 0 -1 3622.DAT
0 STEP
1 86 310.0 -648 400.0 0 0 1 0 1 0 -1 0 0 3004.DAT
0 STEP
1 86 310.0 -312 460.0 0 0 1 0 1 0 -1 0 0 3009.DAT
0 STEP
1 86 310.0 -360 430.0 0 0 1 0 1 0 -1 0 0 3622.DAT
0 STEP
1 86 330.0 -600 420.0 -1 0 0 0 1 0 0 0 -1 3002.DAT
0 STEP
1 86 310.0 -672 430.0 0 0 1 0 1 0 -1 0 0 3005.DAT
0 STEP
1 86 330.0 -336 460.0 -1 0 0 0 1 0 0 0 -1 3002.DAT
0 STEP
1 86 330.0 -600 460.0 -1 0 0 0 1 0 0 0 -1 3002.DAT
0 STEP
1 86 320.0 -264 520.0 0 0 1 0 1 0 -1 0 0 3001.DAT
0 STEP
1 86 330.0 -336 490.0 -1 0 0 0 1 0 0 0 -1 3622.DAT
0 STEP
1 86 320.0 -288 510.0 -1 0 0 0 1 0 0 0 -1 3004.DAT
0 STEP
1 86 310.0 -552 530.0 0 0 1 0 1 0 -1 0 0 3622.DAT
0 STEP
1 86 320.0 -288 560.0 0 0 1 0 1 0 -1 0 0 3001.DAT
0 STEP
1 86 330.0 -576 530.0 -1 0 0 0 1 0 0 0 -1 3622.DAT
0 STEP
1 86 320.0 -240 580.0 0 0 1 0 1 0 -1 0 0 3001.DAT
0 STEP
1 86 320.0 -528 600.0 0 0 1 0 1 0 -1 0 0 2456.DAT
0 STEP
1 86 310.0 -600 570.0 0 0 1 0 1 0 -1 0 0 3622.DAT
0 STEP
1 86 330.0 -504 570.0 -1 0 0 0 1 0 0 0 -1 3622.DAT
0 STEP
1 86 330.0 -552 580.0 -1 0 0 0 1 0 0 0 -1 3002.DAT
0 STEP
1 86 310.0 -480 640.0 0 0 1 0 1 0 -1 0 0 3009.DAT
0 STEP
1 86 330.0 -504 600.0 -1 0 0 0 1 0 0 0 -1 3002.DAT
0 STEP
1 86 310.0 -576 610.0 0 0 1 0 1 0 -1 0 0 3622.DAT
0 STEP
1 86 310.0 -216 620.0 0 0 1 0 1 0 -1 0 0 3004.DAT
0 STEP
1 86 330.0 -288 610.0 -1 0 0 0 1 0 0 0 -1 3622.DAT
0 STEP
1 86 330.0 -456 620.0 -1 0 0 0 1 0 0 0 -1 3002.DAT
0 STEP
1 86 320.0 -552 620.0 0 0 1 0 1 0 -1 0 0 3003.DAT
0 STEP
1 86 330.0 -288 640.0 -1 0 0 0 1 0 0 0 -1 3002.DAT
0 STEP
1 86 330.0 -408 630.0 -1 0 0 0 1 0 0 0 -1 3622.DAT
0 STEP
1 86 310.0 -432 660.0 0 0 1 0 1 0 -1 0 0 3010.DAT
0 STEP
1 86 320.0 -240 700.0 0 0 1 0 1 0 -1 0 0 2456.DAT
0 STEP
1 86 310.0 -312 650.0 0 0 1 0 1 0 -1 0 0 3005.DAT
0 STEP
1 86 320.0 -336 680.0 0 0 1 0 1 0 -1 0 0 3001.DAT
0 STEP
1 86 310.0 -360 650.0 0 0 1 0 1 0 -1 0 0 3005.DAT
0 STEP
1 86 310.0 -384 660.0 0 0 1 0 1 0 -1 0 0 3004.DAT
0 STEP
1 86 310.0 -408 680.0 0 0 1 0 1 0 -1 0 0 3010.DAT
0 STEP
1 86 330.0 -456 650.0 -1 0 0 0 1 0 0 0 -1 3622.DAT
0 STEP
1 86 310.0 -288 720.0 0 0 1 0 1 0 -1 0 0 3009.DAT
0 STEP
1 86 330.0 -312 680.0 -1 0 0 0 1 0 0 0 -1 3002.DAT
0 STEP
1 86 330.0 -360 670.0 -1 0 0 0 1 0 0 0 -1 3622.DAT
0 STEP
1 86 310.0 -456 690.0 0 0 1 0 1 0 -1 0 0 3005.DAT
0 STEP
1 86 310.0 -432 710.0 0 0 1 0 1 0 -1 0 0 3005.DAT
0 STEP
1 86 310.0 -192 760.0 0 0 1 0 1 0 -1 0 0 3010.DAT
0 STEP
1 86 310.0 -336 730.0 0 0 1 0 1 0 -1 0 0 3005.DAT
0 STEP
1 86 310.0 -168 750.0 0 0 1 0 1 0 -1 0 0 3005.DAT
0 STEP
1 86 310.0 -312 750.0 0 0 1 0 1 0 -1 0 0 3005.DAT
0 STEP
1 86 310.0 -216 800.0 0 0 1 0 1 0 -1 0 0 3010.DAT
0 STEP
1 86 310.0 -240 780.0 0 0 1 0 1 0 -1 0 0 3004.DAT
0 STEP
1 86 310.0 -144 800.0 0 0 1 0 1 0 -1 0 0 3004.DAT
0 STEP
1 86 310.0 -264 790.0 0 0 1 0 1 0 -1 0 0 3005.DAT
0 STEP
1 86 310.0 -192 810.0 0 0 1 0 1 0 -1 0 0 3005.DAT
0 STEP
1 86 330.0 -480 350.0 0 0 1 0 1 0 -1 0 0 3622.DAT
0 STEP
1 86 330.0 -528 360.0 0 0 1 0 1 0 -1 0 0 3010.DAT
0 STEP
1 86 330.0 -408 400.0 0 0 1 0 1 0 -1 0 0 3010.DAT
0 STEP
1 86 340.0 -456 380.0 0 0 1 0 1 0 -1 0 0 3003.DAT
0 STEP
1 86 350.0 -504 380.0 -1 0 0 0 1 0 0 0 -1 3002.DAT
0 STEP
1 86 330.0 -624 390.0 0 0 1 0 1 0 -1 0 0 3622.DAT
0 STEP
1 86 330.0 0 390.0 0 0 1 0 1 0 -1 0 0 3005.DAT
0 STEP
1 86 330.0 -24 410.0 0 0 1 0 1 0 -1 0 0 3622.DAT
0 STEP
1 86 330.0 -384 420.0 0 0 1 0 1 0 -1 0 0 3010.DAT
0 STEP
1 86 350.0 -432 390.0 -1 0 0 0 1 0 0 0 -1 3622.DAT
0 STEP
1 86 330.0 -480 420.0 0 0 1 0 1 0 -1 0 0 3010.DAT
0 STEP
1 86 350.0 -552 400.0 -1 0 0 0 1 0 0 0 -1 3002.DAT
0 STEP
1 86 330.0 -360 410.0 0 0 1 0 1 0 -1 0 0 3005.DAT
0 STEP
1 86 330.0 -432 440.0 0 0 1 0 1 0 -1 0 0 3010.DAT
0 STEP
1 86 350.0 -456 410.0 -1 0 0 0 1 0 0 0 -1 3622.DAT
0 STEP
1 86 350.0 -504 420.0 -1 0 0 0 1 0 0 0 -1 3002.DAT
0 STEP
1 86 330.0 -528 410.0 0 0 1 0 1 0 -1 0 0 3005.DAT
0 STEP
1 86 330.0 -312 440.0 0 0 1 0 1 0 -1 0 0 3004.DAT
0 STEP
1 86 340.0 -360 430.0 -1 0 0 0 1 0 0 0 -1 3004.DAT
0 STEP
1 86 350.0 -456 440.0 -1 0 0 0 1 0 0 0 -1 3002.DAT
0 STEP
1 86 340.0 -528 460.0 0 0 1 0 1 0 -1 0 0 3001.DAT
0 STEP
1 86 350.0 -552 430.0 -1 0 0 0 1 0 0 0 -1 3622.DAT
0 STEP
1 86 330.0 -624 460.0 0 0 1 0 1 0 -1 0 0 3010.DAT
0 STEP
1 86 330.0 -360 480.0 0 0 1 0 1 0 -1 0 0 3010.DAT
0 STEP
1 86 340.0 -408 450.0 -1 0 0 0 1 0 0 0 -1 3004.DAT
0 STEP
1 86 350.0 -504 460.0 -1 0 0 0 1 0 0 0 -1 3002.DAT
0 STEP
1 86 350.0 -552 460.0 -1 0 0 0 1 0 0 0 -1 3002.DAT
0 STEP
1 86 340.0 -312 490.0 0 0 1 0 1 0 -1 0 0 3002.DAT
0 STEP
1 86 330.0 -384 470.0 0 0 1 0 1 0 -1 0 0 3005.DAT
0 STEP
1 86 350.0 -408 470.0 -1 0 0 0 1 0 0 0 -1 3622.DAT
0 STEP
1 86 330.0 -480 520.0 0 0 1 0 1 0 -1 0 0 3010.DAT
0 STEP
1 86 350.0 -504 500.0 -1 0 0 0 1 0 0 0 -1 3002.DAT
0 STEP
1 86 340.0 -552 520.0 0 0 1 0 1 0 -1 0 0 3001.DAT
0 STEP
1 86 340.0 -336 540.0 0 0 1 0 1 0 -1 0 0 3001.DAT
0 STEP
1 86 330.0 -384 510.0 0 0 1 0 1 0 -1 0 0 3005.DAT
0 STEP
1 86 350.0 -408 520.0 -1 0 0 0 1 0 0 0 -1 3002.DAT
0 STEP
1 86 330.0 -432 540.0 0 0 1 0 1 0 -1 0 0 3010.DAT
0 STEP
1 86 350.0 -456 510.0 -1 0 0 0 1 0 0 0 -1 3622.DAT
0 STEP
1 86 330.0 -528 520.0 0 0 1 0 1 0 -1 0 0 3004.DAT
0 STEP
1 86 330.0 -600 540.0 0 0 1 0 1 0 -1 0 0 3010.DAT
0 STEP
1 86 350.0 -312 540.0 -1 0 0 0 1 0 0 0 -1 3002.DAT
0 STEP
1 86 350.0 -360 540.0 -1 0 0 0 1 0 0 0 -1 3002.DAT
0 STEP
1 86 330.0 -384 560.0 0 0 1 0 1 0 -1 0 0 3010.DAT
0 STEP
1 86 350.0 -456 540.0 -1 0 0 0 1 0 0 0 -1 3002.DAT
0 STEP
1 86 350.0 -504 540.0 -1 0 0 0 1 0 0 0 -1 3002.DAT
0 STEP
1 86 330.0 -408 580.0 0 0 1 0 1 0 -1 0 0 3010.DAT
0 STEP
1 86 330.0 -312 570.0 0 0 1 0 1 0 -1 0 0 3005.DAT
0 STEP
1 86 330.0 -360 570.0 0 0 1 0 1 0 -1 0 0 3005.DAT
0 STEP
1 86 350.0 -456 580.0 -1 0 0 0 1 0 0 0 -1 3002.DAT
0 STEP
1 86 330.0 -480 620.0 0 0 1 0 1 0 -1 0 0 3009.DAT
0 STEP
1 86 330.0 -576 590.0 0 0 1 0 1 0 -1 0 0 3622.DAT
0 STEP
1 86 340.0 -264 590.0 -1 0 0 0 1 0 0 0 -1 3004.DAT
0 STEP
1 86 330.0 -312 620.0 0 0 1 0 1 0 -1 0 0 3010.DAT
0 STEP
1 86 350.0 -336 600.0 -1 0 0 0 1 0 0 0 -1 3002.DAT
0 STEP
1 86 330.0 -360 620.0 0 0 1 0 1 0 -1 0 0 3010.DAT
0 STEP
1 86 330.0 -432 590.0 0 0 1 0 1 0 -1 0 0 3005.DAT
0 STEP
1 86 340.0 -264 640.0 0 0 1 0 1 0 -1 0 0 3001.DAT
0 STEP
1 86 350.0 -384 620.0 -1 0 0 0 1 0 0 0 -1 3002.DAT
0 STEP
1 86 330.0 -432 640.0 0 0 1 0 1 0 -1 0 0 3010.DAT
0 STEP
1 86 330.0 -336 630.0 0 0 1 0 1 0 -1 0 0 3005.DAT
0 STEP
1 86 330.0 -384 680.0 0 0 1 0 1 0 -1 0 0 3010.DAT
0 STEP
1 86 340.0 -408 660.0 0 0 1 0 1 0 -1 0 0 3003.DAT
0 STEP
1 86 330.0 -504 650.0 0 0 1 0 1 0 -1 0 0 3005.DAT
0 STEP
1 86 330.0 -288 700.0 0 0 1 0 1 0 -1 0 0 3010.DAT
0 STEP
1 86 330.0 -408 690.0 0 0 1 0 1 0 -1 0 0 3005.DAT
0 STEP
1 86 330.0 -432 690.0 0 0 1 0 1 0 -1 0 0 3005.DAT
0 STEP
1 86 330.0 -360 710.0 0 0 1 0 1 0 -1 0 0 3005.DAT
0 STEP
1 86 370.0 0 350.0 -1 0 0 0 1 0 0 0 -1 3622.DAT
0 STEP
1 86 350.0 -24 350.0 0 0 1 0 1 0 -1 0 0 3005.DAT
0 STEP
1 86 350.0 -48 370.0 0 0 1 0 1 0 -1 0 0 3622.DAT
0 STEP
1 86 350.0 -480 380.0 0 0 1 0 1 0 -1 0 0 3010.DAT
0 STEP
1 86 350.0 -528 380.0 0 0 1 0 1 0 -1 0 0 3010.DAT
0 STEP
1 86 350.0 0 380.0 0 0 1 0 1 0 -1 0 0 3004.DAT
0 STEP
1 86 350.0 -576 440.0 0 0 1 0 1 0 -1 0 0 3008.DAT
0 STEP
1 86 350.0 -24 390.0 0 0 1 0 1 0 -1 0 0 3005.DAT
0 STEP
1 86 350.0 -408 410.0 0 0 1 0 1 0 -1 0 0 3622.DAT
0 STEP
1 86 350.0 -384 480.0 0 0 1 0 1 0 -1 0 0 3008.DAT
0 STEP
1 86 360.0 -432 420.0 0 0 1 0 1 0 -1 0 0 3003.DAT
0 STEP
1 86 350.0 -480 430.0 0 0 1 0 1 0 -1 0 0 3005.DAT
0 STEP
1 86 350.0 -360 450.0 0 0 1 0 1 0 -1 0 0 3005.DAT
0 STEP
1 86 350.0 -432 520.0 0 0 1 0 1 0 -1 0 0 3008.DAT
0 STEP
1 86 360.0 -480 500.0 0 0 1 0 1 0 -1 0 0 2456.DAT
0 STEP
1 86 360.0 -360 490.0 0 0 1 0 1 0 -1 0 0 3002.DAT
0 STEP
1 86 370.0 -456 480.0 -1 0 0 0 1 0 0 0 -1 3002.DAT
0 STEP
1 86 370.0 -408 490.0 -1 0 0 0 1 0 0 0 -1 3622.DAT
0 STEP
1 86 350.0 -288 540.0 0 0 1 0 1 0 -1 0 0 3010.DAT
0 STEP
1 86 350.0 -528 510.0 0 0 1 0 1 0 -1 0 0 3005.DAT
0 STEP
1 86 350.0 -528 560.0 0 0 1 0 1 0 -1 0 0 3010.DAT
0 STEP
1 86 350.0 -264 550.0 0 0 1 0 1 0 -1 0 0 3005.DAT
0 STEP
1 86 360.0 -408 580.0 0 0 1 0 1 0 -1 0 0 3001.DAT
0 STEP
1 86 360.0 -312 600.0 0 0 1 0 1 0 -1 0 0 3001.DAT
0 STEP
1 86 360.0 -360 600.0 0 0 1 0 1 0 -1 0 0 3001.DAT
0 STEP
1 86 350.0 -384 580.0 0 0 1 0 1 0 -1 0 0 3004.DAT
0 STEP
1 86 350.0 -480 600.0 0 0 1 0 1 0 -1 0 0 3010.DAT
0 STEP
1 86 350.0 -576 570.0 0 0 1 0 1 0 -1 0 0 3005.DAT
0 STEP
1 86 350.0 -288 590.0 0 0 1 0 1 0 -1 0 0 3005.DAT
0 STEP
1 86 350.0 -432 630.0 0 0 1 0 1 0 -1 0 0 3622.DAT
0 STEP
1 86 350.0 -528 610.0 0 0 1 0 1 0 -1 0 0 3005.DAT
0 STEP
1 86 350.0 -336 660.0 0 0 1 0 1 0 -1 0 0 3010.DAT
0 STEP
1 86 350.0 -312 650.0 0 0 1 0 1 0 -1 0 0 3005.DAT
0 STEP
1 86 350.0 -360 650.0 0 0 1 0 1 0 -1 0 0 3005.DAT
0 STEP
1 86 350.0 -384 660.0 0 0 1 0 1 0 -1 0 0 3004.DAT
0 STEP
1 86 350.0 -288 680.0 0 0 1 0 1 0 -1 0 0 3004.DAT
0 STEP
1 86 390.0 0 330.0 -1 0 0 0 1 0 0 0 -1 3622.DAT
0 STEP
1 86 370.0 -24 340.0 0 0 1 0 1 0 -1 0 0 3004.DAT
0 STEP
1 86 370.0 -48 360.0 0 0 1 0 1 0 -1 0 0 3004.DAT
0 STEP
1 86 370.0 0 370.0 0 0 1 0 1 0 -1 0 0 3005.DAT
0 STEP
1 86 370.0 -480 400.0 0 0 1 0 1 0 -1 0 0 3010.DAT
0 STEP
1 86 370.0 -528 370.0 0 0 1 0 1 0 -1 0 0 3005.DAT
0 STEP
1 86 370.0 -456 390.0 0 0 1 0 1 0 -1 0 0 3005.DAT
0 STEP
1 86 370.0 -528 460.0 0 0 1 0 1 0 -1 0 0 3008.DAT
0 STEP
1 86 370.0 -408 430.0 0 0 1 0 1 0 -1 0 0 3622.DAT
0 STEP
1 86 370.0 -384 460.0 0 0 1 0 1 0 -1 0 0 3004.DAT
0 STEP
1 86 370.0 -432 500.0 0 0 1 0 1 0 -1 0 0 3009.DAT
0 STEP
1 86 380.0 -384 490.0 -1 0 0 0 1 0 0 0 -1 3004.DAT
0 STEP
1 86 370.0 -552 490.0 0 0 1 0 1 0 -1 0 0 3005.DAT
0 STEP
1 86 370.0 -336 540.0 0 0 1 0 1 0 -1 0 0 3010.DAT
0 STEP
1 86 370.0 -384 540.0 0 0 1 0 1 0 -1 0 0 3010.DAT
0 STEP
1 86 370.0 -432 590.0 0 0 1 0 1 0 -1 0 0 3622.DAT
0 STEP
1 86 370.0 -480 570.0 0 0 1 0 1 0 -1 0 0 3005.DAT
0 STEP
1 86 370.0 -384 590.0 0 0 1 0 1 0 -1 0 0 3005.DAT
0 STEP
1 86 370.0 -336 630.0 0 0 1 0 1 0 -1 0 0 3005.DAT
0 STEP
1 86 400.0 0 310.0 -1 0 0 0 1 0 0 0 -1 3004.DAT
0 STEP
1 86 390.0 -24 330.0 0 0 1 0 1 0 -1 0 0 3622.DAT
0 STEP
1 86 390.0 -480 470.0 0 0 1 0 1 0 -1 0 0 3005.DAT
0 STEP
1 86 390.0 -432 490.0 0 0 1 0 1 0 -1 0 0 3005.DAT
0 STEP
