1 86 10.0 0 110.0 0 0 1 0 1 0 -1 0 0 3005.DAT
0 STEP
1 86 10.0 -24 120.0 0 0 1 0 1 0 -1 0 0 3004.DAT
0 STEP
1 86 20.0 0 130.0 -1 0 0 0 1 0 0 0 -1 3004.DAT
0 STEP
1 86 20.0 -168 160.0 0 0 1 0 1 0 -1 0 0 3001.DAT
0 STEP
1 86 10.0 -144 160.0 0 0 1 0 1 0 -1 0 0 3004.DAT
0 STEP
1 86 10.0 -120 180.0 0 0 1 0 1 0 -1 0 0 3004.DAT
0 STEP
1 86 10.0 -144 190.0 0 0 1 0 1 0 -1 0 0 3005.DAT
0 STEP
1 86 40.0 -168 110.0 -1 0 0 0 1 0 0 0 -1 3004.DAT
0 STEP
1 86 40.0 -24 140.0 0 0 1 0 1 0 -1 0 0 3003.DAT
0 STEP
1 86 30.0 -120 130.0 0 0 1 0 1 0 -1 0 0 3005.DAT
0 STEP
1 86 60.0 -144 130.0 -1 0 0 0 1 0 0 0 -1 3010.DAT
0 STEP
1 86 40.0 -192 140.0 0 0 1 0 1 0 -1 0 0 3003.DAT
0 STEP
1 86 30.0 -216 140.0 0 0 1 0 1 0 -1 0 0 3004.DAT
0 STEP
1 86 40.0 -96 150.0 -1 0 0 0 1 0 0 0 -1 3004.DAT
0 STEP
1 86 30.0 -120 160.0 0 0 1 0 1 0 -1 0 0 3004.DAT
0 STEP
1 86 40.0 -144 150.0 -1 0 0 0 1 0 0 0 -1 3004.DAT
0 STEP
1 86 40.0 -24 170.0 -1 0 0 0 1 0 0 0 -1 3004.DAT
0 STEP
1 86 30.0 -96 170.0 0 0 1 0 1 0 -1 0 0 3005.DAT
0 STEP
1 86 30.0 -144 170.0 0 0 1 0 1 0 -1 0 0 3005.DAT
0 STEP
1 86 30.0 -192 180.0 0 0 1 0 1 0 -1 0 0 3004.DAT
0 STEP
1 86 30.0 -216 170.0 0 0 1 0 1 0 -1 0 0 3005.DAT
0 STEP
1 86 40.0 -72 200.0 0 0 1 0 1 0 -1 0 0 3003.DAT
0 STEP
1 86 30.0 -96 200.0 0 0 1 0 1 0 -1 0 0 3004.DAT
0 STEP
1 86 40.0 -120 190.0 -1 0 0 0 1 0 0 0 -1 3004.DAT
0 STEP
1 86 30.0 -144 200.0 0 0 1 0 1 0 -1 0 0 3004.DAT
0 STEP
1 86 30.0 -120 210.0 0 0 1 0 1 0 -1 0 0 3005.DAT
0 STEP
1 86 30.0 -168 210.0 0 0 1 0 1 0 -1 0 0 3005.DAT
0 STEP
1 86 30.0 -192 210.0 0 0 1 0 1 0 -1 0 0 3005.DAT
0 STEP
1 86 30.0 -72 240.0 0 0 1 0 1 0 -1 0 0 3004.DAT
0 STEP
1 86 30.0 -96 230.0 0 0 1 0 1 0 -1 0 0 3005.DAT
0 STEP
1 86 30.0 -120 240.0 0 0 1 0 1 0 -1 0 0 3004.DAT
0 STEP
1 86 30.0 -144 230.0 0 0 1 0 1 0 -1 0 0 3005.DAT
0 STEP
1 86 40.0 -168 230.0 -1 0 0 0 1 0 0 0 -1 3004.DAT
0 STEP
1 86 30.0 -96 260.0 0 0 1 0 1 0 -1 0 0 3004.DAT
0 STEP
1 86 30.0 -48 270.0 0 0 1 0 1 0 -1 0 0 3005.DAT
0 STEP
1 86 60.0 -72 270.0 -1 0 0 0 1 0 0 0 -1 3010.DAT
0 STEP
1 86 50.0 -216 80.0 0 0 1 0 1 0 -1 0 0 3010.DAT
0 STEP
1 86 60.0 -240 50.0 -1 0 0 0 1 0 0 0 -1 3004.DAT
0 STEP
1 86 50.0 -240 80.0 0 0 1 0 1 0 -1 0 0 3004.DAT
0 STEP
1 86 50.0 -264 70.0 0 0 1 0 1 0 -1 0 0 3005.DAT
0 STEP
1 86 50.0 0 90.0 0 0 1 0 1 0 -1 0 0 3005.DAT
0 STEP
1 86 50.0 -192 100.0 0 0 1 0 1 0 -1 0 0 3004.DAT
0 STEP
1 86 50.0 -264 120.0 0 0 1 0 1 0 -1 0 0 3010.DAT
0 STEP
1 86 50.0 0 120.0 0 0 1 0 1 0 -1 0 0 3004.DAT
0 STEP
1 86 50.0 -24 110.0 0 0 1 0 1 0 -1 0 0 3005.DAT
0 STEP
1 86 50.0 -144 110.0 0 0 1 0 1 0 -1 0 0 3005.DAT
0 STEP
1 86 60.0 -240 110.0 -1 0 0 0 1 0 0 0 -1 3004.DAT
0 STEP
1 86 60.0 -288 110.0 -1 0 0 0 1 0 0 0 -1 3004.DAT
0 STEP
1 86 80.0 -120 140.0 -1 0 0 0 1 0 0 0 -1 3001.DAT
0 STEP
1 86 60.0 -168 130.0 -1 0 0 0 1 0 0 0 -1 3004.DAT
0 STEP
1 86 60.0 -216 140.0 0 0 1 0 1 0 -1 0 0 3003.DAT
0 STEP
1 86 50.0 -240 140.0 0 0 1 0 1 0 -1 0 0 3004.DAT
0 STEP
1 86 50.0 -288 140.0 0 0 1 0 1 0 -1 0 0 3004.DAT
0 STEP
1 86 50.0 -48 160.0 0 0 1 0 1 0 -1 0 0 3004.DAT
0 STEP
1 86 50.0 -168 150.0 0 0 1 0 1 0 -1 0 0 3005.DAT
0 STEP
1 86 60.0 -72 170.0 -1 0 0 0 1 0 0 0 -1 3004.DAT
0 STEP
1 86 50.0 -96 180.0 0 0 1 0 1 0 -1 0 0 3004.DAT
0 STEP
1 86 80.0 -120 170.0 -1 0 0 0 1 0 0 0 -1 3010.DAT
0 STEP
1 86 50.0 -144 180.0 0 0 1 0 1 0 -1 0 0 3004.DAT
0 STEP
1 86 50.0 -168 180.0 0 0 1 0 1 0 -1 0 0 3004.DAT
0 STEP
1 86 50.0 -192 170.0 0 0 1 0 1 0 -1 0 0 3005.DAT
0 STEP
1 86 80.0 -216 170.0 -1 0 0 0 1 0 0 0 -1 3010.DAT
0 STEP
1 86 50.0 -240 170.0 0 0 1 0 1 0 -1 0 0 3005.DAT
0 STEP
1 86 50.0 -192 200.0 0 0 1 0 1 0 -1 0 0 3004.DAT
0 STEP
1 86 50.0 -216 190.0 0 0 1 0 1 0 -1 0 0 3005.DAT
0 STEP
1 86 50.0 -96 210.0 0 0 1 0 1 0 -1 0 0 3005.DAT
0 STEP
1 86 50.0 -120 220.0 0 0 1 0 1 0 -1 0 0 3004.DAT
0 STEP
1 86 80.0 -144 220.0 -1 0 0 0 1 0 0 0 -1 3001.DAT
0 STEP
1 86 80.0 -168 210.0 -1 0 0 0 1 0 0 0 -1 3010.DAT
0 STEP
1 86 50.0 -72 230.0 0 0 1 0 1 0 -1 0 0 3005.DAT
0 STEP
1 86 80.0 -96 240.0 -1 0 0 0 1 0 0 0 -1 3001.DAT
0 STEP
1 86 50.0 -48 250.0 0 0 1 0 1 0 -1 0 0 3005.DAT
0 STEP
1 86 60.0 -72 250.0 -1 0 0 0 1 0 0 0 -1 3004.DAT
0 STEP
1 86 50.0 -120 250.0 0 0 1 0 1 0 -1 0 0 3005.DAT
0 STEP
1 86 50.0 -144 250.0 0 0 1 0 1 0 -1 0 0 3005.DAT
0 STEP
1 86 60.0 -48 280.0 0 0 1 0 1 0 -1 0 0 3003.DAT
0 STEP
1 86 80.0 -96 270.0 -1 0 0 0 1 0 0 0 -1 3010.DAT
0 STEP
1 86 50.0 -72 300.0 0 0 1 0 1 0 -1 0 0 3004.DAT
0 STEP
1 86 60.0 -96 290.0 -1 0 0 0 1 0 0 0 -1 3004.DAT
0 STEP
1 86 60.0 -48 310.0 -1 0 0 0 1 0 0 0 -1 3004.DAT
0 STEP
1 86 70.0 -192 40.0 0 0 1 0 1 0 -1 0 0 3010.DAT
0 STEP
1 86 70.0 -216 20.0 0 0 1 0 1 0 -1 0 0 3004.DAT
0 STEP
1 86 70.0 -168 30.0 0 0 1 0 1 0 -1 0 0 3005.DAT
0 STEP
1 86 70.0 -240 30.0 0 0 1 0 1 0 -1 0 0 3005.DAT
0 STEP
1 86 80.0 -216 50.0 -1 0 0 0 1 0 0 0 -1 3004.DAT
0 STEP
1 86 70.0 -264 50.0 0 0 1 0 1 0 -1 0 0 3005.DAT
0 STEP
1 86 70.0 -216 80.0 0 0 1 0 1 0 -1 0 0 3004.DAT
0 STEP
1 86 80.0 -240 80.0 0 0 1 0 1 0 -1 0 0 3003.DAT
0 STEP
1 86 70.0 -264 80.0 0 0 1 0 1 0 -1 0 0 3004.DAT
0 STEP
1 86 70.0 -168 100.0 0 0 1 0 1 0 -1 0 0 3004.DAT
0 STEP
1 86 80.0 -192 100.0 0 0 1 0 1 0 -1 0 0 3003.DAT
0 STEP
1 86 70.0 -288 90.0 0 0 1 0 1 0 -1 0 0 3005.DAT
0 STEP
1 86 80.0 -144 110.0 -1 0 0 0 1 0 0 0 -1 3004.DAT
0 STEP
1 86 70.0 -216 110.0 0 0 1 0 1 0 -1 0 0 3005.DAT
0 STEP
1 86 80.0 -264 120.0 0 0 1 0 1 0 -1 0 0 3003.DAT
0 STEP
1 86 70.0 -96 130.0 0 0 1 0 1 0 -1 0 0 3005.DAT
0 STEP
1 86 70.0 -192 160.0 0 0 1 0 1 0 -1 0 0 3010.DAT
0 STEP
1 86 70.0 -240 130.0 0 0 1 0 1 0 -1 0 0 3005.DAT
0 STEP
1 86 80.0 -288 140.0 0 0 1 0 1 0 -1 0 0 3003.DAT
0 STEP
1 86 70.0 -96 180.0 0 0 1 0 1 0 -1 0 0 3010.DAT
0 STEP
1 86 70.0 -144 160.0 0 0 1 0 1 0 -1 0 0 3004.DAT
0 STEP
1 86 70.0 -168 160.0 0 0 1 0 1 0 -1 0 0 3004.DAT
0 STEP
1 86 80.0 -240 160.0 0 0 1 0 1 0 -1 0 0 3003.DAT
0 STEP
1 86 80.0 -264 150.0 -1 0 0 0 1 0 0 0 -1 3004.DAT
0 STEP
1 86 70.0 -264 170.0 0 0 1 0 1 0 -1 0 0 3005.DAT
0 STEP
1 86 70.0 -72 190.0 0 0 1 0 1 0 -1 0 0 3005.DAT
0 STEP
1 86 80.0 -120 220.0 0 0 1 0 1 0 -1 0 0 3001.DAT
0 STEP
1 86 70.0 -144 190.0 0 0 1 0 1 0 -1 0 0 3005.DAT
0 STEP
1 86 70.0 -168 190.0 0 0 1 0 1 0 -1 0 0 3005.DAT
0 STEP
1 86 80.0 -216 190.0 -1 0 0 0 1 0 0 0 -1 3004.DAT
0 STEP
1 86 70.0 -72 220.0 0 0 1 0 1 0 -1 0 0 3004.DAT
0 STEP
1 86 70.0 -192 210.0 0 0 1 0 1 0 -1 0 0 3005.DAT
0 STEP
1 86 70.0 -168 230.0 0 0 1 0 1 0 -1 0 0 3005.DAT
0 STEP
1 86 80.0 -48 250.0 -1 0 0 0 1 0 0 0 -1 3004.DAT
0 STEP
1 86 80.0 -144 250.0 -1 0 0 0 1 0 0 0 -1 3004.DAT
0 STEP
1 86 80.0 -72 300.0 0 0 1 0 1 0 -1 0 0 3003.DAT
0 STEP
1 86 90.0 -216 30.0 0 0 1 0 1 0 -1 0 0 3005.DAT
0 STEP
1 86 90.0 -240 40.0 0 0 1 0 1 0 -1 0 0 3004.DAT
0 STEP
1 86 90.0 -264 60.0 0 0 1 0 1 0 -1 0 0 3004.DAT
0 STEP
1 86 90.0 -216 100.0 0 0 1 0 1 0 -1 0 0 3010.DAT
0 STEP
1 86 90.0 0 100.0 0 0 1 0 1 0 -1 0 0 3004.DAT
0 STEP
1 86 90.0 -264 90.0 0 0 1 0 1 0 -1 0 0 3005.DAT
0 STEP
1 86 90.0 -24 110.0 0 0 1 0 1 0 -1 0 0 3005.DAT
0 STEP
1 86 100.0 -168 120.0 0 0 1 0 1 0 -1 0 0 3003.DAT
0 STEP
1 86 90.0 -240 120.0 0 0 1 0 1 0 -1 0 0 3004.DAT
0 STEP
1 86 90.0 -288 110.0 0 0 1 0 1 0 -1 0 0 3005.DAT
0 STEP
1 86 90.0 0 130.0 0 0 1 0 1 0 -1 0 0 3005.DAT
0 STEP
1 86 100.0 -24 140.0 0 0 1 0 1 0 -1 0 0 3003.DAT
0 STEP
1 86 100.0 -192 130.0 -1 0 0 0 1 0 0 0 -1 3004.DAT
0 STEP
1 86 90.0 -48 160.0 0 0 1 0 1 0 -1 0 0 3004.DAT
0 STEP
1 86 100.0 -96 150.0 -1 0 0 0 1 0 0 0 -1 3004.DAT
0 STEP
1 86 90.0 -144 150.0 0 0 1 0 1 0 -1 0 0 3005.DAT
0 STEP
1 86 100.0 -168 150.0 -1 0 0 0 1 0 0 0 -1 3004.DAT
0 STEP
1 86 90.0 -192 160.0 0 0 1 0 1 0 -1 0 0 3004.DAT
0 STEP
1 86 90.0 -216 150.0 0 0 1 0 1 0 -1 0 0 3005.DAT
0 STEP
1 86 100.0 -24 170.0 -1 0 0 0 1 0 0 0 -1 3004.DAT
0 STEP
1 86 90.0 -72 180.0 0 0 1 0 1 0 -1 0 0 3004.DAT
0 STEP
1 86 100.0 -96 180.0 0 0 1 0 1 0 -1 0 0 3003.DAT
0 STEP
1 86 90.0 -144 180.0 0 0 1 0 1 0 -1 0 0 3004.DAT
0 STEP
1 86 100.0 -168 180.0 0 0 1 0 1 0 -1 0 0 3003.DAT
0 STEP
1 86 90.0 -192 190.0 0 0 1 0 1 0 -1 0 0 3005.DAT
0 STEP
1 86 90.0 -72 210.0 0 0 1 0 1 0 -1 0 0 3005.DAT
0 STEP
1 86 100.0 -96 210.0 -1 0 0 0 1 0 0 0 -1 3004.DAT
0 STEP
1 86 100.0 -192 210.0 -1 0 0 0 1 0 0 0 -1 3004.DAT
0 STEP
1 86 90.0 -72 240.0 0 0 1 0 1 0 -1 0 0 3004.DAT
0 STEP
1 86 100.0 -168 230.0 -1 0 0 0 1 0 0 0 -1 3004.DAT
0 STEP
1 86 100.0 -48 270.0 -1 0 0 0 1 0 0 0 -1 3004.DAT
0 STEP
1 86 90.0 -48 300.0 0 0 1 0 1 0 -1 0 0 3004.DAT
0 STEP
1 86 90.0 -96 290.0 0 0 1 0 1 0 -1 0 0 3005.DAT
0 STEP
1 86 110.0 -144 120.0 0 0 1 0 1 0 -1 0 0 3004.DAT
0 STEP
1 86 120.0 0 130.0 -1 0 0 0 1 0 0 0 -1 3004.DAT
0 STEP
1 86 110.0 -216 140.0 0 0 1 0 1 0 -1 0 0 3004.DAT
0 STEP
1 86 120.0 -144 160.0 0 0 1 0 1 0 -1 0 0 3003.DAT
0 STEP
1 86 110.0 -192 150.0 0 0 1 0 1 0 -1 0 0 3005.DAT
0 STEP
1 86 110.0 -192 180.0 0 0 1 0 1 0 -1 0 0 3004.DAT
0 STEP
1 86 110.0 -72 190.0 0 0 1 0 1 0 -1 0 0 3005.DAT
0 STEP
1 86 120.0 -120 190.0 -1 0 0 0 1 0 0 0 -1 3004.DAT
0 STEP
1 86 120.0 -144 190.0 -1 0 0 0 1 0 0 0 -1 3004.DAT
0 STEP
1 86 110.0 -72 240.0 0 0 1 0 1 0 -1 0 0 3010.DAT
0 STEP
1 86 110.0 -120 220.0 0 0 1 0 1 0 -1 0 0 3004.DAT
0 STEP
1 86 110.0 -120 250.0 0 0 1 0 1 0 -1 0 0 3005.DAT
0 STEP
1 86 130.0 0 110.0 0 0 1 0 1 0 -1 0 0 3005.DAT
0 STEP
1 86 130.0 -24 120.0 0 0 1 0 1 0 -1 0 0 3004.DAT
0 STEP
1 86 130.0 -168 150.0 0 0 1 0 1 0 -1 0 0 3005.DAT
0 STEP
1 86 130.0 -120 170.0 0 0 1 0 1 0 -1 0 0 3005.DAT
0 STEP
1 86 130.0 -168 180.0 0 0 1 0 1 0 -1 0 0 3004.DAT
0 STEP
1 86 130.0 -120 210.0 0 0 1 0 1 0 -1 0 0 3005.DAT
0 STEP
