1 86 10.0 -96 210.0 0 0 1 0 1 0 -1 0 0 3005.DAT
0 STEP
1 86 40.0 -120 210.0 -1 0 0 0 1 0 0 0 -1 3010.DAT
0 STEP
1 86 40.0 -96 230.0 -1 0 0 0 1 0 0 0 -1 3010.DAT
0 STEP
1 86 10.0 -120 230.0 0 0 1 0 1 0 -1 0 0 3005.DAT
0 STEP
1 86 40.0 -240 230.0 -1 0 0 0 1 0 0 0 -1 3010.DAT
0 STEP
1 86 40.0 -96 260.0 -1 0 0 0 1 0 0 0 -1 3001.DAT
0 STEP
1 86 10.0 -120 280.0 0 0 1 0 1 0 -1 0 0 3010.DAT
0 STEP
1 86 20.0 -240 300.0 0 0 1 0 1 0 -1 0 0 2456.DAT
0 STEP
1 86 80.0 -96 290.0 -1 0 0 0 1 0 0 0 -1 3008.DAT
0 STEP
1 86 10.0 -96 310.0 0 0 1 0 1 0 -1 0 0 3005.DAT
0 STEP
1 86 60.0 -96 210.0 -1 0 0 0 1 0 0 0 -1 3010.DAT
0 STEP
1 86 30.0 -120 280.0 0 0 1 0 1 0 -1 0 0 3009.DAT
0 STEP
1 86 30.0 -264 250.0 0 0 1 0 1 0 -1 0 0 3005.DAT
0 STEP
1 86 80.0 -264 270.0 -1 0 0 0 1 0 0 0 -1 3009.DAT
0 STEP
1 86 80.0 -264 300.0 -1 0 0 0 1 0 0 0 -1 2456.DAT
0 STEP
1 86 100.0 -96 320.0 -1 0 0 0 1 0 0 0 -1 3007.DAT
0 STEP
1 86 30.0 -264 330.0 0 0 1 0 1 0 -1 0 0 3005.DAT
0 STEP
1 86 50.0 -120 230.0 0 0 1 0 1 0 -1 0 0 3005.DAT
0 STEP
1 86 80.0 -264 240.0 -1 0 0 0 1 0 0 0 -1 3001.DAT
0 STEP
1 86 50.0 -120 280.0 0 0 1 0 1 0 -1 0 0 3010.DAT
0 STEP
1 86 60.0 -240 300.0 0 0 1 0 1 0 -1 0 0 2456.DAT
0 STEP
1 86 50.0 -120 330.0 0 0 1 0 1 0 -1 0 0 3005.DAT
0 STEP
1 86 80.0 -264 330.0 -1 0 0 0 1 0 0 0 -1 3010.DAT
0 STEP
1 86 80.0 -120 280.0 0 0 1 0 1 0 -1 0 0 2456.DAT
0 STEP
1 86 80.0 -264 350.0 -1 0 0 0 1 0 0 0 -1 3004.DAT
0 STEP
1 86 140.0 -120 210.0 -1 0 0 0 1 0 0 0 -1 3009.DAT
0 STEP
1 86 90.0 -96 250.0 0 0 1 0 1 0 -1 0 0 3622.DAT
0 STEP
1 86 90.0 -240 260.0 0 0 1 0 1 0 -1 0 0 3010.DAT
0 STEP
1 86 90.0 -144 250.0 0 0 1 0 1 0 -1 0 0 3005.DAT
0 STEP
1 86 90.0 -168 250.0 0 0 1 0 1 0 -1 0 0 3005.DAT
0 STEP
1 86 90.0 -192 250.0 0 0 1 0 1 0 -1 0 0 3005.DAT
0 STEP
1 86 90.0 -216 250.0 0 0 1 0 1 0 -1 0 0 3005.DAT
0 STEP
1 86 90.0 -144 310.0 0 0 1 0 1 0 -1 0 0 3005.DAT
0 STEP
1 86 90.0 -168 310.0 0 0 1 0 1 0 -1 0 0 3005.DAT
0 STEP
1 86 90.0 -192 310.0 0 0 1 0 1 0 -1 0 0 3005.DAT
0 STEP
1 86 90.0 -216 310.0 0 0 1 0 1 0 -1 0 0 3005.DAT
0 STEP
1 86 90.0 -240 330.0 0 0 1 0 1 0 -1 0 0 3622.DAT
0 STEP
1 86 110.0 -96 230.0 0 0 1 0 1 0 -1 0 0 3622.DAT
0 STEP
1 86 160.0 -120 230.0 -1 0 0 0 1 0 0 0 -1 3009.DAT
0 STEP
1 86 130.0 -240 240.0 -1 0 0 0 1 0 0 0 -1 3002.DAT
0 STEP
1 86 120.0 -120 280.0 0 0 1 0 1 0 -1 0 0 3001.DAT
0 STEP
1 86 180.0 -96 270.0 -1 0 0 0 1 0 0 0 -1 3008.DAT
0 STEP
1 86 110.0 -240 290.0 0 0 1 0 1 0 -1 0 0 3622.DAT
0 STEP
1 86 140.0 -120 330.0 -1 0 0 0 1 0 0 0 -1 3010.DAT
0 STEP
1 86 130.0 -240 340.0 -1 0 0 0 1 0 0 0 -1 3002.DAT
0 STEP
1 86 140.0 -96 230.0 0 0 1 0 1 0 -1 0 0 3002.DAT
0 STEP
1 86 130.0 -264 250.0 0 0 1 0 1 0 -1 0 0 3005.DAT
0 STEP
1 86 140.0 -240 290.0 0 0 1 0 1 0 -1 0 0 3002.DAT
0 STEP
1 86 130.0 -264 330.0 0 0 1 0 1 0 -1 0 0 3005.DAT
0 STEP
1 86 160.0 -120 280.0 0 0 1 0 1 0 -1 0 0 3001.DAT
0 STEP
1 86 190.0 -144 40.0 -1 0 0 0 1 0 0 0 -1 3002.DAT
0 STEP
1 86 170.0 -96 230.0 0 0 1 0 1 0 -1 0 0 3622.DAT
0 STEP
1 86 170.0 -240 250.0 0 0 1 0 1 0 -1 0 0 3622.DAT
0 STEP
1 86 170.0 -48 270.0 0 0 1 0 1 0 -1 0 0 3622.DAT
0 STEP
1 86 180.0 -72 260.0 0 0 1 0 1 0 -1 0 0 3003.DAT
0 STEP
1 86 170.0 0 270.0 0 0 1 0 1 0 -1 0 0 3005.DAT
0 STEP
1 86 180.0 -24 280.0 0 0 1 0 1 0 -1 0 0 3003.DAT
0 STEP
1 86 180.0 -216 270.0 -1 0 0 0 1 0 0 0 -1 3004.DAT
0 STEP
1 86 170.0 -96 290.0 0 0 1 0 1 0 -1 0 0 3005.DAT
0 STEP
1 86 170.0 -240 320.0 0 0 1 0 1 0 -1 0 0 3010.DAT
0 STEP
1 86 180.0 -216 310.0 -1 0 0 0 1 0 0 0 -1 3004.DAT
0 STEP
1 18 170.0 -144 410.0 0 0 1 0 1 0 -1 0 0 3005.DAT
0 STEP
1 86 210.0 -144 70.0 -1 0 0 0 1 0 0 0 -1 3622.DAT
0 STEP
1 86 190.0 -144 200.0 0 0 1 0 1 0 -1 0 0 3010.DAT
0 STEP
1 86 190.0 -168 190.0 0 0 1 0 1 0 -1 0 0 3005.DAT
0 STEP
1 86 190.0 -96 220.0 0 0 1 0 1 0 -1 0 0 3004.DAT
0 STEP
1 86 210.0 -168 210.0 -1 0 0 0 1 0 0 0 -1 3622.DAT
0 STEP
1 86 190.0 0 260.0 0 0 1 0 1 0 -1 0 0 3010.DAT
0 STEP
1 86 190.0 -24 230.0 0 0 1 0 1 0 -1 0 0 3005.DAT
0 STEP
1 86 190.0 -48 260.0 0 0 1 0 1 0 -1 0 0 3010.DAT
0 STEP
1 86 190.0 -72 230.0 0 0 1 0 1 0 -1 0 0 3005.DAT
0 STEP
1 86 200.0 -168 260.0 0 0 1 0 1 0 -1 0 0 3001.DAT
0 STEP
1 86 200.0 -240 260.0 0 0 1 0 1 0 -1 0 0 3001.DAT
0 STEP
1 86 240.0 -24 250.0 -1 0 0 0 1 0 0 0 -1 3009.DAT
0 STEP
1 86 220.0 -96 250.0 -1 0 0 0 1 0 0 0 -1 3010.DAT
0 STEP
1 86 200.0 -120 270.0 0 0 1 0 1 0 -1 0 0 3002.DAT
0 STEP
1 86 210.0 -144 250.0 -1 0 0 0 1 0 0 0 -1 3622.DAT
0 STEP
1 86 190.0 -144 300.0 0 0 1 0 1 0 -1 0 0 3010.DAT
0 STEP
1 86 190.0 -192 300.0 0 0 1 0 1 0 -1 0 0 3010.DAT
0 STEP
1 86 190.0 -72 290.0 0 0 1 0 1 0 -1 0 0 3005.DAT
0 STEP
1 86 190.0 -96 310.0 0 0 1 0 1 0 -1 0 0 3622.DAT
0 STEP
1 86 220.0 -120 310.0 -1 0 0 0 1 0 0 0 -1 3010.DAT
0 STEP
1 86 190.0 -168 310.0 0 0 1 0 1 0 -1 0 0 3005.DAT
0 STEP
1 86 220.0 -240 310.0 -1 0 0 0 1 0 0 0 -1 3010.DAT
0 STEP
1 86 190.0 -120 360.0 0 0 1 0 1 0 -1 0 0 3010.DAT
0 STEP
1 86 200.0 -168 360.0 0 0 1 0 1 0 -1 0 0 3001.DAT
0 STEP
1 19 210.0 -240 340.0 -1 0 0 0 1 0 0 0 -1 3002.DAT
0 STEP
1 86 220.0 -144 360.0 -1 0 0 0 1 0 0 0 -1 3001.DAT
0 STEP
1 86 190.0 -192 350.0 0 0 1 0 1 0 -1 0 0 3005.DAT
0 STEP
1 86 220.0 -192 370.0 -1 0 0 0 1 0 0 0 -1 3010.DAT
0 STEP
1 86 210.0 -96 390.0 -1 0 0 0 1 0 0 0 -1 3622.DAT
0 STEP
1 86 220.0 -144 400.0 -1 0 0 0 1 0 0 0 -1 3001.DAT
0 STEP
1 86 190.0 -192 390.0 0 0 1 0 1 0 -1 0 0 3005.DAT
0 STEP
1 86 210.0 -168 60.0 0 0 1 0 1 0 -1 0 0 3010.DAT
0 STEP
1 86 210.0 -120 80.0 0 0 1 0 1 0 -1 0 0 3010.DAT
0 STEP
1 86 220.0 -144 120.0 0 0 1 0 1 0 -1 0 0 3001.DAT
0 STEP
1 86 230.0 -168 110.0 -1 0 0 0 1 0 0 0 -1 3622.DAT
0 STEP
1 86 230.0 -120 130.0 -1 0 0 0 1 0 0 0 -1 3622.DAT
0 STEP
1 86 220.0 -168 160.0 0 0 1 0 1 0 -1 0 0 3001.DAT
0 STEP
1 86 210.0 -120 180.0 0 0 1 0 1 0 -1 0 0 3010.DAT
0 STEP
1 86 230.0 -144 180.0 -1 0 0 0 1 0 0 0 -1 3002.DAT
0 STEP
1 86 230.0 -192 180.0 -1 0 0 0 1 0 0 0 -1 3002.DAT
0 STEP
1 86 240.0 -96 210.0 -1 0 0 0 1 0 0 0 -1 3010.DAT
0 STEP
1 86 230.0 -144 210.0 -1 0 0 0 1 0 0 0 -1 3622.DAT
0 STEP
1 86 230.0 -192 220.0 -1 0 0 0 1 0 0 0 -1 3002.DAT
0 STEP
1 86 280.0 -96 230.0 -1 0 0 0 1 0 0 0 -1 3008.DAT
0 STEP
1 86 240.0 -144 230.0 -1 0 0 0 1 0 0 0 -1 3010.DAT
0 STEP
1 86 220.0 -216 230.0 -1 0 0 0 1 0 0 0 -1 3004.DAT
0 STEP
1 86 210.0 -48 250.0 0 0 1 0 1 0 -1 0 0 3005.DAT
0 STEP
1 86 210.0 -192 250.0 0 0 1 0 1 0 -1 0 0 3005.DAT
0 STEP
1 86 240.0 -24 270.0 -1 0 0 0 1 0 0 0 -1 3010.DAT
0 STEP
1 86 220.0 -144 300.0 0 0 1 0 1 0 -1 0 0 3001.DAT
0 STEP
1 86 230.0 -192 270.0 -1 0 0 0 1 0 0 0 -1 3622.DAT
0 STEP
1 86 280.0 -96 290.0 -1 0 0 0 1 0 0 0 -1 3008.DAT
0 STEP
1 86 210.0 -192 320.0 0 0 1 0 1 0 -1 0 0 3010.DAT
0 STEP
1 86 220.0 -96 340.0 0 0 1 0 1 0 -1 0 0 3001.DAT
0 STEP
1 86 240.0 -168 310.0 -1 0 0 0 1 0 0 0 -1 3010.DAT
0 STEP
1 86 230.0 -120 340.0 -1 0 0 0 1 0 0 0 -1 3002.DAT
0 STEP
1 86 240.0 -120 380.0 -1 0 0 0 1 0 0 0 -1 3001.DAT
0 STEP
1 86 240.0 -192 390.0 -1 0 0 0 1 0 0 0 -1 3010.DAT
0 STEP
1 86 220.0 -216 390.0 -1 0 0 0 1 0 0 0 -1 3004.DAT
0 STEP
1 86 230.0 -96 30.0 0 0 1 0 1 0 -1 0 0 3005.DAT
0 STEP
1 86 230.0 -120 60.0 0 0 1 0 1 0 -1 0 0 3010.DAT
0 STEP
1 86 240.0 -144 30.0 -1 0 0 0 1 0 0 0 -1 3004.DAT
0 STEP
1 86 230.0 -168 30.0 0 0 1 0 1 0 -1 0 0 3005.DAT
0 STEP
1 86 230.0 -192 50.0 0 0 1 0 1 0 -1 0 0 3622.DAT
0 STEP
1 86 230.0 -216 40.0 0 0 1 0 1 0 -1 0 0 3004.DAT
0 STEP
1 86 230.0 -144 50.0 0 0 1 0 1 0 -1 0 0 3005.DAT
0 STEP
1 86 260.0 -168 60.0 -1 0 0 0 1 0 0 0 -1 3001.DAT
0 STEP
1 86 240.0 -168 90.0 -1 0 0 0 1 0 0 0 -1 3004.DAT
0 STEP
1 86 230.0 -120 110.0 0 0 1 0 1 0 -1 0 0 3005.DAT
0 STEP
1 86 240.0 -120 220.0 0 0 1 0 1 0 -1 0 0 3007.DAT
0 STEP
1 86 230.0 -192 150.0 0 0 1 0 1 0 -1 0 0 3005.DAT
0 STEP
1 86 230.0 -168 260.0 0 0 1 0 1 0 -1 0 0 3010.DAT
0 STEP
1 86 250.0 -240 240.0 -1 0 0 0 1 0 0 0 -1 3002.DAT
0 STEP
1 86 240.0 -48 260.0 0 0 1 0 1 0 -1 0 0 3003.DAT
0 STEP
1 86 260.0 -192 250.0 -1 0 0 0 1 0 0 0 -1 3010.DAT
0 STEP
1 14 250.0 -240 270.0 -1 0 0 0 1 0 0 0 -1 3622.DAT
0 STEP
1 86 260.0 -192 290.0 -1 0 0 0 1 0 0 0 -1 3010.DAT
0 STEP
1 86 260.0 -240 290.0 -1 0 0 0 1 0 0 0 -1 3010.DAT
0 STEP
1 86 240.0 -192 320.0 0 0 1 0 1 0 -1 0 0 3003.DAT
0 STEP
1 86 240.0 -168 360.0 0 0 1 0 1 0 -1 0 0 3001.DAT
0 STEP
1 86 250.0 -192 350.0 -1 0 0 0 1 0 0 0 -1 3622.DAT
0 STEP
1 86 280.0 -168 30.0 -1 0 0 0 1 0 0 0 -1 3010.DAT
0 STEP
1 86 250.0 -144 100.0 0 0 1 0 1 0 -1 0 0 3009.DAT
0 STEP
1 86 250.0 -120 100.0 0 0 1 0 1 0 -1 0 0 3004.DAT
0 STEP
1 86 250.0 -168 130.0 0 0 1 0 1 0 -1 0 0 3005.DAT
0 STEP
1 86 250.0 -168 220.0 0 0 1 0 1 0 -1 0 0 3008.DAT
0 STEP
1 86 260.0 -144 260.0 0 0 1 0 1 0 -1 0 0 3003.DAT
0 STEP
1 86 260.0 -144 310.0 0 0 1 0 1 0 -1 0 0 3002.DAT
0 STEP
1 86 320.0 -96 310.0 -1 0 0 0 1 0 0 0 -1 3008.DAT
0 STEP
1 86 250.0 -96 360.0 0 0 1 0 1 0 -1 0 0 3010.DAT
0 STEP
1 13 250.0 -240 330.0 0 0 1 0 1 0 -1 0 0 3005.DAT
0 STEP
1 86 320.0 -240 350.0 -1 0 0 0 1 0 0 0 -1 3008.DAT
0 STEP
1 86 270.0 -120 280.0 0 0 1 0 1 0 -1 0 0 3008.DAT
0 STEP
1 86 280.0 -48 270.0 0 0 1 0 1 0 -1 0 0 3002.DAT
0 STEP
1 86 270.0 -72 270.0 0 0 1 0 1 0 -1 0 0 3622.DAT
0 STEP
1 86 270.0 -96 260.0 0 0 1 0 1 0 -1 0 0 3004.DAT
0 STEP
1 86 270.0 -168 270.0 0 0 1 0 1 0 -1 0 0 3622.DAT
0 STEP
1 86 270.0 0 280.0 0 0 1 0 1 0 -1 0 0 3004.DAT
0 STEP
1 86 280.0 -24 290.0 -1 0 0 0 1 0 0 0 -1 3004.DAT
0 STEP
1 20 280.0 -240 320.0 0 0 1 0 1 0 -1 0 0 3003.DAT
0 STEP
1 86 270.0 -96 330.0 0 0 1 0 1 0 -1 0 0 3005.DAT
0 STEP
1 86 270.0 -168 360.0 0 0 1 0 1 0 -1 0 0 3010.DAT
0 STEP
1 86 270.0 -144 380.0 0 0 1 0 1 0 -1 0 0 3010.DAT
0 STEP
1 86 270.0 -192 370.0 0 0 1 0 1 0 -1 0 0 3005.DAT
0 STEP
1 86 280.0 -168 410.0 -1 0 0 0 1 0 0 0 -1 3004.DAT
0 STEP
1 23 300.0 -168 10.0 -1 0 0 0 1 0 0 0 -1 3004.DAT
0 STEP
1 26 290.0 -96 210.0 0 0 1 0 1 0 -1 0 0 3005.DAT
0 STEP
1 26 290.0 -120 210.0 0 0 1 0 1 0 -1 0 0 3005.DAT
0 STEP
1 86 290.0 0 260.0 0 0 1 0 1 0 -1 0 0 3010.DAT
0 STEP
1 86 290.0 -24 230.0 0 0 1 0 1 0 -1 0 0 3005.DAT
0 STEP
1 86 290.0 -48 230.0 0 0 1 0 1 0 -1 0 0 3005.DAT
0 STEP
1 86 290.0 -72 260.0 0 0 1 0 1 0 -1 0 0 3010.DAT
0 STEP
1 86 290.0 -120 280.0 0 0 1 0 1 0 -1 0 0 3009.DAT
0 STEP
1 86 290.0 -240 250.0 0 0 1 0 1 0 -1 0 0 3622.DAT
0 STEP
1 86 320.0 -96 260.0 -1 0 0 0 1 0 0 0 -1 3001.DAT
0 STEP
1 86 290.0 -216 250.0 0 0 1 0 1 0 -1 0 0 3005.DAT
0 STEP
1 86 290.0 -24 270.0 0 0 1 0 1 0 -1 0 0 3005.DAT
0 STEP
1 86 300.0 -216 290.0 -1 0 0 0 1 0 0 0 -1 3004.DAT
0 STEP
1 86 340.0 -96 330.0 -1 0 0 0 1 0 0 0 -1 3009.DAT
0 STEP
1 86 290.0 -144 410.0 0 0 1 0 1 0 -1 0 0 3005.DAT
0 STEP
1 86 360.0 -96 210.0 -1 0 0 0 1 0 0 0 -1 3009.DAT
0 STEP
1 86 320.0 -120 240.0 0 0 1 0 1 0 -1 0 0 3001.DAT
0 STEP
1 86 310.0 -240 280.0 0 0 1 0 1 0 -1 0 0 3009.DAT
0 STEP
1 86 330.0 -264 270.0 -1 0 0 0 1 0 0 0 -1 3622.DAT
0 STEP
1 86 320.0 -120 310.0 0 0 1 0 1 0 -1 0 0 3002.DAT
0 STEP
1 86 320.0 -264 300.0 0 0 1 0 1 0 -1 0 0 3003.DAT
0 STEP
1 86 330.0 -240 240.0 0 0 1 0 1 0 -1 0 0 3004.DAT
0 STEP
1 86 340.0 -264 250.0 -1 0 0 0 1 0 0 0 -1 3004.DAT
0 STEP
1 86 380.0 -240 280.0 -1 0 0 0 1 0 0 0 -1 2456.DAT
0 STEP
1 86 360.0 -240 320.0 -1 0 0 0 1 0 0 0 -1 3001.DAT
0 STEP
1 86 330.0 -264 330.0 0 0 1 0 1 0 -1 0 0 3005.DAT
0 STEP
1 86 370.0 -120 220.0 -1 0 0 0 1 0 0 0 -1 3002.DAT
0 STEP
1 86 400.0 -240 240.0 -1 0 0 0 1 0 0 0 -1 2456.DAT
0 STEP
1 86 360.0 -264 230.0 -1 0 0 0 1 0 0 0 -1 3004.DAT
0 STEP
1 86 400.0 -120 250.0 -1 0 0 0 1 0 0 0 -1 3009.DAT
0 STEP
1 86 350.0 -120 300.0 0 0 1 0 1 0 -1 0 0 3010.DAT
0 STEP
1 86 350.0 -264 320.0 0 0 1 0 1 0 -1 0 0 3010.DAT
0 STEP
1 86 380.0 -96 260.0 0 0 1 0 1 0 -1 0 0 3001.DAT
0 STEP
1 86 370.0 -264 300.0 0 0 1 0 1 0 -1 0 0 3009.DAT
0 STEP
1 86 370.0 -120 290.0 0 0 1 0 1 0 -1 0 0 3622.DAT
0 STEP
1 86 400.0 -120 330.0 -1 0 0 0 1 0 0 0 -1 3010.DAT
0 STEP
1 86 390.0 -264 260.0 0 0 1 0 1 0 -1 0 0 3010.DAT
0 STEP
1 86 420.0 -120 270.0 -1 0 0 0 1 0 0 0 -1 3010.DAT
0 STEP
1 86 390.0 -144 270.0 0 0 1 0 1 0 -1 0 0 3005.DAT
0 STEP
1 86 390.0 -168 270.0 0 0 1 0 1 0 -1 0 0 3005.DAT
0 STEP
1 86 390.0 -192 270.0 0 0 1 0 1 0 -1 0 0 3005.DAT
0 STEP
1 86 390.0 -216 270.0 0 0 1 0 1 0 -1 0 0 3005.DAT
0 STEP
1 86 420.0 -120 300.0 -1 0 0 0 1 0 0 0 -1 3001.DAT
0 STEP
1 86 390.0 -144 310.0 0 0 1 0 1 0 -1 0 0 3005.DAT
0 STEP
1 86 390.0 -168 310.0 0 0 1 0 1 0 -1 0 0 3005.DAT
0 STEP
1 86 390.0 -192 310.0 0 0 1 0 1 0 -1 0 0 3005.DAT
0 STEP
1 86 390.0 -216 310.0 0 0 1 0 1 0 -1 0 0 3005.DAT
0 STEP
1 86 390.0 -264 310.0 0 0 1 0 1 0 -1 0 0 3005.DAT
0 STEP
1 86 400.0 -264 330.0 -1 0 0 0 1 0 0 0 -1 3004.DAT
0 STEP
1 86 390.0 -264 350.0 0 0 1 0 1 0 -1 0 0 3005.DAT
0 STEP
1 86 440.0 -120 220.0 -1 0 0 0 1 0 0 0 -1 3001.DAT
0 STEP
1 86 410.0 -96 280.0 0 0 1 0 1 0 -1 0 0 3009.DAT
0 STEP
1 86 410.0 -264 280.0 0 0 1 0 1 0 -1 0 0 3010.DAT
0 STEP
1 86 420.0 -240 330.0 0 0 1 0 1 0 -1 0 0 3002.DAT
0 STEP
1 86 430.0 -96 240.0 0 0 1 0 1 0 -1 0 0 3010.DAT
0 STEP
1 86 430.0 -264 290.0 0 0 1 0 1 0 -1 0 0 3622.DAT
0 STEP
1 86 430.0 -96 310.0 0 0 1 0 1 0 -1 0 0 3622.DAT
0 STEP
1 86 450.0 -96 260.0 0 0 1 0 1 0 -1 0 0 3009.DAT
0 STEP
1 27 450.0 -240 300.0 0 0 1 0 1 0 -1 0 0 3010.DAT
0 STEP
1 86 470.0 -96 230.0 0 0 1 0 1 0 -1 0 0 3622.DAT
0 STEP
1 86 470.0 -120 250.0 0 0 1 0 1 0 -1 0 0 3005.DAT
0 STEP
