1 86 10.0 0 10.0 0 0 1 0 1 0 -1 0 0 3005.DAT
0 STEP
1 86 370.0 0 10.0 0 0 1 0 1 0 -1 0 0 3005.DAT
0 STEP
1 86 30.0 -24 50.0 0 0 1 0 1 0 -1 0 0 3005.DAT
0 STEP
1 86 90.0 -24 70.0 0 0 1 0 1 0 -1 0 0 3005.DAT
0 STEP
1 86 70.0 -24 110.0 0 0 1 0 1 0 -1 0 0 3005.DAT
0 STEP
1 86 130.0 -24 130.0 0 0 1 0 1 0 -1 0 0 3005.DAT
0 STEP
1 86 10.0 -48 10.0 0 0 1 0 1 0 -1 0 0 3005.DAT
0 STEP
1 86 70.0 -48 10.0 0 0 1 0 1 0 -1 0 0 3005.DAT
0 STEP
1 86 130.0 -48 70.0 0 0 1 0 1 0 -1 0 0 3005.DAT
0 STEP
1 86 110.0 -48 90.0 0 0 1 0 1 0 -1 0 0 3005.DAT
0 STEP
1 86 90.0 -48 110.0 0 0 1 0 1 0 -1 0 0 3005.DAT
0 STEP
1 86 130.0 -48 130.0 0 0 1 0 1 0 -1 0 0 3005.DAT
0 STEP
1 86 110.0 -48 150.0 0 0 1 0 1 0 -1 0 0 3005.DAT
0 STEP
1 86 10.0 -48 170.0 0 0 1 0 1 0 -1 0 0 3005.DAT
0 STEP
1 86 30.0 -72 50.0 0 0 1 0 1 0 -1 0 0 3005.DAT
0 STEP
1 86 150.0 -72 170.0 0 0 1 0 1 0 -1 0 0 3005.DAT
0 STEP
1 86 30.0 -72 190.0 0 0 1 0 1 0 -1 0 0 3005.DAT
0 STEP
1 86 90.0 -72 210.0 0 0 1 0 1 0 -1 0 0 3005.DAT
0 STEP
1 86 110.0 -96 30.0 0 0 1 0 1 0 -1 0 0 3005.DAT
0 STEP
1 86 70.0 -96 50.0 0 0 1 0 1 0 -1 0 0 3005.DAT
0 STEP
1 86 110.0 -96 70.0 0 0 1 0 1 0 -1 0 0 3005.DAT
0 STEP
1 86 70.0 -96 90.0 0 0 1 0 1 0 -1 0 0 3005.DAT
0 STEP
1 86 30.0 -96 150.0 0 0 1 0 1 0 -1 0 0 3005.DAT
0 STEP
1 86 90.0 -96 150.0 0 0 1 0 1 0 -1 0 0 3005.DAT
0 STEP
1 86 70.0 -96 170.0 0 0 1 0 1 0 -1 0 0 3005.DAT
0 STEP
1 86 130.0 -96 170.0 0 0 1 0 1 0 -1 0 0 3005.DAT
0 STEP
1 86 50.0 -96 210.0 0 0 1 0 1 0 -1 0 0 3005.DAT
0 STEP
1 86 150.0 -96 230.0 0 0 1 0 1 0 -1 0 0 3005.DAT
0 STEP
1 86 50.0 -120 30.0 0 0 1 0 1 0 -1 0 0 3005.DAT
0 STEP
1 86 90.0 -120 50.0 0 0 1 0 1 0 -1 0 0 3005.DAT
0 STEP
1 86 30.0 -120 70.0 0 0 1 0 1 0 -1 0 0 3005.DAT
0 STEP
1 86 70.0 -120 90.0 0 0 1 0 1 0 -1 0 0 3005.DAT
0 STEP
1 86 50.0 -120 130.0 0 0 1 0 1 0 -1 0 0 3005.DAT
0 STEP
1 86 90.0 -120 150.0 0 0 1 0 1 0 -1 0 0 3005.DAT
0 STEP
1 86 150.0 -120 170.0 0 0 1 0 1 0 -1 0 0 3005.DAT
0 STEP
1 86 110.0 -120 190.0 0 0 1 0 1 0 -1 0 0 3005.DAT
0 STEP
1 86 230.0 -120 210.0 0 0 1 0 1 0 -1 0 0 3005.DAT
0 STEP
1 86 150.0 -120 230.0 0 0 1 0 1 0 -1 0 0 3005.DAT
0 STEP
1 86 210.0 -120 250.0 0 0 1 0 1 0 -1 0 0 3005.DAT
0 STEP
1 86 90.0 -144 10.0 0 0 1 0 1 0 -1 0 0 3005.DAT
0 STEP
1 86 70.0 -144 30.0 0 0 1 0 1 0 -1 0 0 3005.DAT
0 STEP
1 86 30.0 -144 50.0 0 0 1 0 1 0 -1 0 0 3005.DAT
0 STEP
1 86 70.0 -144 110.0 0 0 1 0 1 0 -1 0 0 3005.DAT
0 STEP
1 86 50.0 -144 130.0 0 0 1 0 1 0 -1 0 0 3005.DAT
0 STEP
1 86 70.0 -144 170.0 0 0 1 0 1 0 -1 0 0 3005.DAT
0 STEP
1 86 90.0 -144 190.0 0 0 1 0 1 0 -1 0 0 3005.DAT
0 STEP
1 86 50.0 -144 210.0 0 0 1 0 1 0 -1 0 0 3005.DAT
0 STEP
1 86 90.0 -144 230.0 0 0 1 0 1 0 -1 0 0 3005.DAT
0 STEP
1 86 210.0 -144 250.0 0 0 1 0 1 0 -1 0 0 3005.DAT
0 STEP
1 86 30.0 -168 10.0 0 0 1 0 1 0 -1 0 0 3005.DAT
0 STEP
1 86 110.0 -168 30.0 0 0 1 0 1 0 -1 0 0 3005.DAT
0 STEP
1 86 110.0 -168 110.0 0 0 1 0 1 0 -1 0 0 3005.DAT
0 STEP
1 86 30.0 -168 170.0 0 0 1 0 1 0 -1 0 0 3005.DAT
0 STEP
1 86 90.0 -168 170.0 0 0 1 0 1 0 -1 0 0 3005.DAT
0 STEP
1 86 150.0 -168 170.0 0 0 1 0 1 0 -1 0 0 3005.DAT
0 STEP
1 86 70.0 -168 190.0 0 0 1 0 1 0 -1 0 0 3005.DAT
0 STEP
1 86 110.0 -192 30.0 0 0 1 0 1 0 -1 0 0 3005.DAT
0 STEP
1 86 50.0 -192 90.0 0 0 1 0 1 0 -1 0 0 3005.DAT
0 STEP
1 86 110.0 -192 90.0 0 0 1 0 1 0 -1 0 0 3005.DAT
0 STEP
1 86 70.0 -192 170.0 0 0 1 0 1 0 -1 0 0 3005.DAT
0 STEP
1 86 110.0 -192 190.0 0 0 1 0 1 0 -1 0 0 3005.DAT
0 STEP
1 86 210.0 -192 190.0 0 0 1 0 1 0 -1 0 0 3005.DAT
0 STEP
1 86 90.0 -192 210.0 0 0 1 0 1 0 -1 0 0 3005.DAT
0 STEP
1 86 150.0 -192 230.0 0 0 1 0 1 0 -1 0 0 3005.DAT
0 STEP
1 86 230.0 -192 230.0 0 0 1 0 1 0 -1 0 0 3005.DAT
0 STEP
1 86 190.0 -192 250.0 0 0 1 0 1 0 -1 0 0 3005.DAT
0 STEP
1 86 130.0 -216 110.0 0 0 1 0 1 0 -1 0 0 3005.DAT
0 STEP
1 86 90.0 -216 170.0 0 0 1 0 1 0 -1 0 0 3005.DAT
0 STEP
1 86 190.0 -216 170.0 0 0 1 0 1 0 -1 0 0 3005.DAT
0 STEP
1 86 190.0 -216 210.0 0 0 1 0 1 0 -1 0 0 3005.DAT
0 STEP
1 86 150.0 -216 230.0 0 0 1 0 1 0 -1 0 0 3005.DAT
0 STEP
1 86 210.0 -216 250.0 0 0 1 0 1 0 -1 0 0 3005.DAT
0 STEP
1 86 150.0 -240 150.0 0 0 1 0 1 0 -1 0 0 3005.DAT
0 STEP
1 86 70.0 -240 190.0 0 0 1 0 1 0 -1 0 0 3005.DAT
0 STEP
1 86 130.0 -240 190.0 0 0 1 0 1 0 -1 0 0 3005.DAT
0 STEP
1 86 170.0 -240 210.0 0 0 1 0 1 0 -1 0 0 3005.DAT
0 STEP
1 86 130.0 -264 70.0 0 0 1 0 1 0 -1 0 0 3005.DAT
0 STEP
1 86 90.0 -264 130.0 0 0 1 0 1 0 -1 0 0 3005.DAT
0 STEP
1 86 130.0 -264 130.0 0 0 1 0 1 0 -1 0 0 3005.DAT
0 STEP
1 86 110.0 -264 170.0 0 0 1 0 1 0 -1 0 0 3005.DAT
0 STEP
1 86 120.0 0 110.0 -1 0 0 0 1 0 0 0 -1 3004.DAT
0 STEP
1 86 130.0 -240 220.0 0 0 1 0 1 0 -1 0 0 3004.DAT
0 STEP
1 86 60.0 -144 150.0 -1 0 0 0 1 0 0 0 -1 3004.DAT
0 STEP
1 86 140.0 -72 190.0 -1 0 0 0 1 0 0 0 -1 3004.DAT
0 STEP
1 86 60.0 -96 150.0 -1 0 0 0 1 0 0 0 -1 3004.DAT
0 STEP
1 86 90.0 -216 200.0 0 0 1 0 1 0 -1 0 0 3004.DAT
0 STEP
1 86 100.0 -120 170.0 -1 0 0 0 1 0 0 0 -1 3004.DAT
0 STEP
1 86 170.0 -192 240.0 0 0 1 0 1 0 -1 0 0 3004.DAT
0 STEP
1 86 100.0 -96 170.0 -1 0 0 0 1 0 0 0 -1 3004.DAT
0 STEP
1 86 90.0 -48 140.0 0 0 1 0 1 0 -1 0 0 3004.DAT
0 STEP
1 86 60.0 -24 50.0 -1 0 0 0 1 0 0 0 -1 3004.DAT
0 STEP
1 86 130.0 -144 200.0 0 0 1 0 1 0 -1 0 0 3004.DAT
0 STEP
1 86 180.0 -168 250.0 -1 0 0 0 1 0 0 0 -1 3004.DAT
0 STEP
1 86 100.0 -192 170.0 -1 0 0 0 1 0 0 0 -1 3004.DAT
0 STEP
1 86 80.0 -240 210.0 -1 0 0 0 1 0 0 0 -1 3004.DAT
0 STEP
1 86 50.0 -48 40.0 0 0 1 0 1 0 -1 0 0 3004.DAT
0 STEP
1 86 40.0 -144 70.0 -1 0 0 0 1 0 0 0 -1 3004.DAT
0 STEP
1 86 40.0 -192 170.0 -1 0 0 0 1 0 0 0 -1 3004.DAT
0 STEP
1 86 60.0 -168 170.0 -1 0 0 0 1 0 0 0 -1 3004.DAT
0 STEP
1 86 130.0 -24 160.0 0 0 1 0 1 0 -1 0 0 3004.DAT
0 STEP
1 86 100.0 -240 230.0 -1 0 0 0 1 0 0 0 -1 3004.DAT
0 STEP
1 86 50.0 -144 180.0 0 0 1 0 1 0 -1 0 0 3004.DAT
0 STEP
1 86 10.0 -72 180.0 0 0 1 0 1 0 -1 0 0 3004.DAT
0 STEP
1 86 110.0 -144 180.0 0 0 1 0 1 0 -1 0 0 3004.DAT
0 STEP
1 86 110.0 -120 40.0 0 0 1 0 1 0 -1 0 0 3004.DAT
0 STEP
1 86 60.0 -192 210.0 -1 0 0 0 1 0 0 0 -1 3004.DAT
0 STEP
1 86 110.0 -48 120.0 0 0 1 0 1 0 -1 0 0 3004.DAT
0 STEP
1 86 30.0 -72 160.0 0 0 1 0 1 0 -1 0 0 3004.DAT
0 STEP
1 86 100.0 -96 90.0 -1 0 0 0 1 0 0 0 -1 3004.DAT
0 STEP
1 86 90.0 -264 160.0 0 0 1 0 1 0 -1 0 0 3004.DAT
0 STEP
1 86 160.0 -72 150.0 -1 0 0 0 1 0 0 0 -1 3004.DAT
0 STEP
1 86 110.0 -240 200.0 0 0 1 0 1 0 -1 0 0 3004.DAT
0 STEP
1 86 180.0 -144 250.0 -1 0 0 0 1 0 0 0 -1 3004.DAT
0 STEP
1 86 90.0 -24 40.0 0 0 1 0 1 0 -1 0 0 3004.DAT
0 STEP
1 86 110.0 -216 60.0 0 0 1 0 1 0 -1 0 0 3004.DAT
0 STEP
1 86 100.0 -96 50.0 -1 0 0 0 1 0 0 0 -1 3004.DAT
0 STEP
1 86 70.0 -24 80.0 0 0 1 0 1 0 -1 0 0 3004.DAT
0 STEP
1 86 40.0 -168 70.0 -1 0 0 0 1 0 0 0 -1 3004.DAT
0 STEP
1 86 40.0 -48 10.0 -1 0 0 0 1 0 0 0 -1 3004.DAT
0 STEP
1 86 140.0 -144 170.0 -1 0 0 0 1 0 0 0 -1 3004.DAT
0 STEP
1 86 80.0 -48 90.0 -1 0 0 0 1 0 0 0 -1 3004.DAT
0 STEP
1 86 220.0 -192 210.0 -1 0 0 0 1 0 0 0 -1 3004.DAT
0 STEP
1 86 150.0 -192 180.0 0 0 1 0 1 0 -1 0 0 3004.DAT
0 STEP
1 86 40.0 -144 30.0 -1 0 0 0 1 0 0 0 -1 3004.DAT
0 STEP
1 86 30.0 -240 140.0 0 0 1 0 1 0 -1 0 0 3004.DAT
0 STEP
1 86 60.0 -240 130.0 -1 0 0 0 1 0 0 0 -1 3004.DAT
0 STEP
1 86 90.0 -168 140.0 0 0 1 0 1 0 -1 0 0 3004.DAT
0 STEP
1 86 210.0 -192 240.0 0 0 1 0 1 0 -1 0 0 3004.DAT
0 STEP
1 86 100.0 -120 230.0 -1 0 0 0 1 0 0 0 -1 3004.DAT
0 STEP
1 86 40.0 -240 110.0 -1 0 0 0 1 0 0 0 -1 3004.DAT
0 STEP
1 86 210.0 -240 180.0 0 0 1 0 1 0 -1 0 0 3004.DAT
0 STEP
1 86 120.0 -48 170.0 -1 0 0 0 1 0 0 0 -1 3010.DAT
0 STEP
1 86 200.0 -216 190.0 -1 0 0 0 1 0 0 0 -1 3004.DAT
0 STEP
1 86 40.0 -24 70.0 -1 0 0 0 1 0 0 0 -1 3004.DAT
0 STEP
1 86 80.0 -120 210.0 -1 0 0 0 1 0 0 0 -1 3010.DAT
0 STEP
1 86 150.0 -96 180.0 0 0 1 0 1 0 -1 0 0 3004.DAT
0 STEP
1 86 170.0 -240 240.0 0 0 1 0 1 0 -1 0 0 3004.DAT
0 STEP
1 86 180.0 -240 190.0 -1 0 0 0 1 0 0 0 -1 3004.DAT
0 STEP
1 86 30.0 -120 120.0 0 0 1 0 1 0 -1 0 0 3004.DAT
0 STEP
1 86 40.0 -168 190.0 -1 0 0 0 1 0 0 0 -1 3004.DAT
0 STEP
1 86 50.0 -144 100.0 0 0 1 0 1 0 -1 0 0 3004.DAT
0 STEP
1 86 130.0 -264 100.0 0 0 1 0 1 0 -1 0 0 3004.DAT
0 STEP
1 86 140.0 -48 190.0 -1 0 0 0 1 0 0 0 -1 3004.DAT
0 STEP
1 86 90.0 -144 160.0 0 0 1 0 1 0 -1 0 0 3004.DAT
0 STEP
1 86 110.0 -192 220.0 0 0 1 0 1 0 -1 0 0 3004.DAT
0 STEP
1 86 60.0 -72 50.0 -1 0 0 0 1 0 0 0 -1 3004.DAT
0 STEP
1 86 120.0 -288 50.0 -1 0 0 0 1 0 0 0 -1 3004.DAT
0 STEP
1 86 50.0 -168 20.0 0 0 1 0 1 0 -1 0 0 3004.DAT
0 STEP
1 86 90.0 -168 200.0 0 0 1 0 1 0 -1 0 0 3004.DAT
0 STEP
1 86 60.0 -144 50.0 -1 0 0 0 1 0 0 0 -1 3004.DAT
0 STEP
1 86 160.0 -192 210.0 -1 0 0 0 1 0 0 0 -1 3004.DAT
0 STEP
1 86 70.0 -48 140.0 0 0 1 0 1 0 -1 0 0 3010.DAT
0 STEP
1 86 80.0 -144 130.0 -1 0 0 0 1 0 0 0 -1 3004.DAT
0 STEP
1 86 220.0 -120 230.0 -1 0 0 0 1 0 0 0 -1 3004.DAT
0 STEP
1 86 50.0 -240 200.0 0 0 1 0 1 0 -1 0 0 3004.DAT
0 STEP
1 86 70.0 -144 80.0 0 0 1 0 1 0 -1 0 0 3004.DAT
0 STEP
1 86 80.0 -120 130.0 -1 0 0 0 1 0 0 0 -1 3004.DAT
0 STEP
1 86 80.0 -168 50.0 -1 0 0 0 1 0 0 0 -1 3010.DAT
0 STEP
1 86 160.0 -216 210.0 -1 0 0 0 1 0 0 0 -1 3004.DAT
0 STEP
1 86 120.0 -96 190.0 -1 0 0 0 1 0 0 0 -1 3004.DAT
0 STEP
1 86 80.0 -192 90.0 -1 0 0 0 1 0 0 0 -1 3004.DAT
0 STEP
1 86 160.0 -96 210.0 -1 0 0 0 1 0 0 0 -1 3004.DAT
0 STEP
1 86 70.0 -168 80.0 0 0 1 0 1 0 -1 0 0 3004.DAT
0 STEP
1 86 30.0 -72 80.0 0 0 1 0 1 0 -1 0 0 3004.DAT
0 STEP
1 86 190.0 -192 220.0 0 0 1 0 1 0 -1 0 0 3004.DAT
0 STEP
1 86 220.0 -216 220.0 0 0 1 0 1 0 -1 0 0 3003.DAT
0 STEP
1 86 130.0 -48 100.0 0 0 1 0 1 0 -1 0 0 3004.DAT
0 STEP
1 86 70.0 -144 200.0 0 0 1 0 1 0 -1 0 0 3004.DAT
0 STEP
1 86 20.0 -48 30.0 -1 0 0 0 1 0 0 0 -1 3004.DAT
0 STEP
1 86 130.0 -192 200.0 0 0 1 0 1 0 -1 0 0 3010.DAT
0 STEP
1 86 30.0 -120 40.0 0 0 1 0 1 0 -1 0 0 3004.DAT
0 STEP
1 86 50.0 -48 100.0 0 0 1 0 1 0 -1 0 0 3004.DAT
0 STEP
1 86 80.0 -48 70.0 -1 0 0 0 1 0 0 0 -1 3010.DAT
0 STEP
1 86 170.0 -96 240.0 0 0 1 0 1 0 -1 0 0 3004.DAT
0 STEP
1 86 80.0 -168 110.0 -1 0 0 0 1 0 0 0 -1 3004.DAT
0 STEP
1 86 120.0 0 80.0 0 0 1 0 1 0 -1 0 0 3003.DAT
0 STEP
1 86 80.0 -96 70.0 -1 0 0 0 1 0 0 0 -1 3004.DAT
0 STEP
1 86 70.0 -120 160.0 0 0 1 0 1 0 -1 0 0 3004.DAT
0 STEP
1 86 190.0 -264 200.0 0 0 1 0 1 0 -1 0 0 3004.DAT
0 STEP
1 86 110.0 -264 140.0 0 0 1 0 1 0 -1 0 0 3004.DAT
0 STEP
1 86 40.0 -120 10.0 -1 0 0 0 1 0 0 0 -1 3004.DAT
0 STEP
1 86 100.0 -120 80.0 0 0 1 0 1 0 -1 0 0 3003.DAT
0 STEP
1 86 150.0 -240 200.0 0 0 1 0 1 0 -1 0 0 3010.DAT
0 STEP
1 86 40.0 -120 90.0 -1 0 0 0 1 0 0 0 -1 3004.DAT
0 STEP
1 86 80.0 -96 110.0 -1 0 0 0 1 0 0 0 -1 3004.DAT
0 STEP
1 86 60.0 -120 190.0 -1 0 0 0 1 0 0 0 -1 3010.DAT
0 STEP
1 86 30.0 -48 80.0 0 0 1 0 1 0 -1 0 0 3010.DAT
0 STEP
1 86 100.0 -144 210.0 -1 0 0 0 1 0 0 0 -1 3004.DAT
0 STEP
1 86 210.0 -168 240.0 0 0 1 0 1 0 -1 0 0 3004.DAT
0 STEP
1 86 80.0 -96 200.0 0 0 1 0 1 0 -1 0 0 3003.DAT
0 STEP
1 86 30.0 -168 40.0 0 0 1 0 1 0 -1 0 0 3004.DAT
0 STEP
1 86 120.0 -168 210.0 -1 0 0 0 1 0 0 0 -1 3004.DAT
0 STEP
1 86 180.0 -192 190.0 -1 0 0 0 1 0 0 0 -1 3004.DAT
0 STEP
1 86 60.0 -168 210.0 -1 0 0 0 1 0 0 0 -1 3004.DAT
0 STEP
1 86 60.0 -216 210.0 -1 0 0 0 1 0 0 0 -1 3004.DAT
0 STEP
1 86 120.0 -96 220.0 0 0 1 0 1 0 -1 0 0 3003.DAT
0 STEP
1 86 100.0 -72 160.0 0 0 1 0 1 0 -1 0 0 3001.DAT
0 STEP
1 86 70.0 -72 120.0 0 0 1 0 1 0 -1 0 0 3004.DAT
0 STEP
1 86 110.0 -72 220.0 0 0 1 0 1 0 -1 0 0 3004.DAT
0 STEP
1 86 130.0 -24 100.0 0 0 1 0 1 0 -1 0 0 3004.DAT
0 STEP
1 86 120.0 -24 60.0 0 0 1 0 1 0 -1 0 0 3003.DAT
0 STEP
1 86 60.0 -96 130.0 -1 0 0 0 1 0 0 0 -1 3010.DAT
0 STEP
1 86 100.0 -264 80.0 0 0 1 0 1 0 -1 0 0 3003.DAT
0 STEP
1 86 40.0 -72 120.0 0 0 1 0 1 0 -1 0 0 3003.DAT
0 STEP
1 86 100.0 -144 30.0 -1 0 0 0 1 0 0 0 -1 3004.DAT
0 STEP
1 86 40.0 -168 100.0 0 0 1 0 1 0 -1 0 0 3003.DAT
0 STEP
1 86 40.0 -120 160.0 0 0 1 0 1 0 -1 0 0 3003.DAT
0 STEP
1 86 130.0 -216 180.0 0 0 1 0 1 0 -1 0 0 3009.DAT
0 STEP
1 86 30.0 -168 140.0 0 0 1 0 1 0 -1 0 0 3004.DAT
0 STEP
1 86 40.0 -144 10.0 -1 0 0 0 1 0 0 0 -1 3010.DAT
0 STEP
1 86 20.0 -240 180.0 0 0 1 0 1 0 -1 0 0 3003.DAT
0 STEP
1 86 20.0 -48 190.0 -1 0 0 0 1 0 0 0 -1 3004.DAT
0 STEP
1 86 140.0 -168 230.0 -1 0 0 0 1 0 0 0 -1 3009.DAT
0 STEP
1 86 40.0 -48 130.0 -1 0 0 0 1 0 0 0 -1 3004.DAT
0 STEP
1 86 100.0 -168 80.0 0 0 1 0 1 0 -1 0 0 3003.DAT
0 STEP
1 86 120.0 -288 110.0 -1 0 0 0 1 0 0 0 -1 3004.DAT
0 STEP
1 86 60.0 -168 140.0 0 0 1 0 1 0 -1 0 0 3003.DAT
0 STEP
1 86 40.0 -96 180.0 0 0 1 0 1 0 -1 0 0 3003.DAT
0 STEP
1 86 80.0 -120 20.0 0 0 1 0 1 0 -1 0 0 3003.DAT
0 STEP
1 86 40.0 -96 80.0 0 0 1 0 1 0 -1 0 0 3001.DAT
0 STEP
1 86 130.0 -72 140.0 0 0 1 0 1 0 -1 0 0 3010.DAT
0 STEP
1 86 120.0 0 50.0 -1 0 0 0 1 0 0 0 -1 3004.DAT
0 STEP
1 86 120.0 -288 80.0 0 0 1 0 1 0 -1 0 0 3003.DAT
0 STEP
1 86 160.0 -216 180.0 0 0 1 0 1 0 -1 0 0 3003.DAT
0 STEP
1 86 180.0 -120 200.0 -1 0 0 0 1 0 0 0 -1 3001.DAT
0 STEP
1 86 130.0 -120 200.0 0 0 1 0 1 0 -1 0 0 3010.DAT
0 STEP
1 86 180.0 -240 160.0 0 0 1 0 1 0 -1 0 0 3003.DAT
0 STEP
1 86 230.0 -144 220.0 0 0 1 0 1 0 -1 0 0 3004.DAT
0 STEP
1 86 70.0 -216 120.0 0 0 1 0 1 0 -1 0 0 3010.DAT
0 STEP
1 86 120.0 -168 180.0 0 0 1 0 1 0 -1 0 0 3003.DAT
0 STEP
1 86 180.0 -216 240.0 0 0 1 0 1 0 -1 0 0 3003.DAT
0 STEP
1 86 180.0 -120 240.0 0 0 1 0 1 0 -1 0 0 3003.DAT
0 STEP
1 86 80.0 -168 20.0 0 0 1 0 1 0 -1 0 0 3003.DAT
0 STEP
1 86 80.0 -264 110.0 -1 0 0 0 1 0 0 0 -1 3010.DAT
0 STEP
1 86 60.0 -240 160.0 0 0 1 0 1 0 -1 0 0 3003.DAT
0 STEP
1 86 80.0 -192 60.0 -1 0 0 0 1 0 0 0 -1 3001.DAT
0 STEP
1 86 200.0 -240 250.0 -1 0 0 0 1 0 0 0 -1 3004.DAT
0 STEP
1 86 80.0 -240 100.0 0 0 1 0 1 0 -1 0 0 3003.DAT
0 STEP
1 86 230.0 -168 220.0 0 0 1 0 1 0 -1 0 0 3004.DAT
0 STEP
1 86 60.0 -72 180.0 0 0 1 0 1 0 -1 0 0 3001.DAT
0 STEP
1 86 160.0 -24 160.0 0 0 1 0 1 0 -1 0 0 3003.DAT
0 STEP
1 86 90.0 -240 160.0 0 0 1 0 1 0 -1 0 0 3010.DAT
0 STEP
1 86 40.0 -48 160.0 0 0 1 0 1 0 -1 0 0 3003.DAT
0 STEP
1 86 180.0 -144 200.0 -1 0 0 0 1 0 0 0 -1 3001.DAT
0 STEP
1 86 180.0 -168 200.0 -1 0 0 0 1 0 0 0 -1 3001.DAT
0 STEP
1 86 80.0 -120 110.0 -1 0 0 0 1 0 0 0 -1 3010.DAT
0 STEP
1 86 60.0 -192 150.0 -1 0 0 0 1 0 0 0 -1 3010.DAT
0 STEP
1 86 160.0 -216 150.0 -1 0 0 0 1 0 0 0 -1 3004.DAT
0 STEP
1 86 30.0 -144 140.0 0 0 1 0 1 0 -1 0 0 3009.DAT
0 STEP
1 86 160.0 -264 160.0 -1 0 0 0 1 0 0 0 -1 3001.DAT
0 STEP
1 86 100.0 -24 170.0 -1 0 0 0 1 0 0 0 -1 3004.DAT
0 STEP
1 86 60.0 -192 120.0 -1 0 0 0 1 0 0 0 -1 3001.DAT
0 STEP
1 86 200.0 -240 220.0 0 0 1 0 1 0 -1 0 0 3003.DAT
0 STEP
1 86 110.0 -216 200.0 0 0 1 0 1 0 -1 0 0 3010.DAT
0 STEP
1 86 230.0 -96 220.0 0 0 1 0 1 0 -1 0 0 3004.DAT
0 STEP
1 86 40.0 -24 20.0 -1 0 0 0 1 0 0 0 -1 3001.DAT
0 STEP
1 86 40.0 -24 100.0 0 0 1 0 1 0 -1 0 0 3003.DAT
0 STEP
1 86 160.0 -144 230.0 -1 0 0 0 1 0 0 0 -1 3009.DAT
0 STEP
1 86 100.0 -24 120.0 0 0 1 0 1 0 -1 0 0 3001.DAT
0 STEP
1 86 60.0 -120 60.0 0 0 1 0 1 0 -1 0 0 3003.DAT
0 STEP
1 86 60.0 -192 190.0 -1 0 0 0 1 0 0 0 -1 3010.DAT
0 STEP
1 86 60.0 -96 20.0 -1 0 0 0 1 0 0 0 -1 3001.DAT
0 STEP
1 86 100.0 -72 80.0 0 0 1 0 1 0 -1 0 0 3001.DAT
0 STEP
1 86 100.0 -216 120.0 0 0 1 0 1 0 -1 0 0 3001.DAT
0 STEP
1 86 100.0 -48 40.0 -1 0 0 0 1 0 0 0 -1 3001.DAT
0 STEP
1 86 40.0 -216 180.0 -1 0 0 0 1 0 0 0 -1 3001.DAT
0 STEP
1 86 140.0 -72 220.0 0 0 1 0 1 0 -1 0 0 3003.DAT
0 STEP
1 86 60.0 -72 80.0 0 0 1 0 1 0 -1 0 0 3003.DAT
0 STEP
1 86 60.0 -72 20.0 -1 0 0 0 1 0 0 0 -1 3001.DAT
0 STEP
1 86 100.0 -144 80.0 0 0 1 0 1 0 -1 0 0 3001.DAT
0 STEP
1 86 30.0 -192 50.0 0 0 1 0 1 0 -1 0 0 3005.DAT
0 STEP
1 86 70.0 -240 10.0 0 0 1 0 1 0 -1 0 0 3005.DAT
0 STEP
1 86 70.0 -264 10.0 0 0 1 0 1 0 -1 0 0 3005.DAT
0 STEP
1 86 70.0 -264 70.0 0 0 1 0 1 0 -1 0 0 3005.DAT
0 STEP
1 86 50.0 -240 90.0 0 0 1 0 1 0 -1 0 0 3005.DAT
0 STEP
1 86 90.0 -240 30.0 0 0 1 0 1 0 -1 0 0 3005.DAT
0 STEP
1 86 90.0 -264 30.0 0 0 1 0 1 0 -1 0 0 3005.DAT
0 STEP
1 86 10.0 -264 10.0 0 0 1 0 1 0 -1 0 0 3005.DAT
0 STEP
1 86 40.0 -216 30.0 -1 0 0 0 1 0 0 0 -1 3004.DAT
0 STEP
1 86 60.0 -240 70.0 -1 0 0 0 1 0 0 0 -1 3004.DAT
0 STEP
1 86 60.0 -264 90.0 -1 0 0 0 1 0 0 0 -1 3004.DAT
0 STEP
1 86 40.0 -264 70.0 -1 0 0 0 1 0 0 0 -1 3004.DAT
0 STEP
1 86 70.0 -240 40.0 0 0 1 0 1 0 -1 0 0 3004.DAT
0 STEP
1 86 30.0 -240 80.0 0 0 1 0 1 0 -1 0 0 3004.DAT
0 STEP
1 86 40.0 -264 30.0 -1 0 0 0 1 0 0 0 -1 3010.DAT
0 STEP
1 86 40.0 -240 20.0 0 0 1 0 1 0 -1 0 0 3003.DAT
0 STEP
1 86 30.0 -264 100.0 0 0 1 0 1 0 -1 0 0 3004.DAT
0 STEP
1 86 40.0 -264 10.0 -1 0 0 0 1 0 0 0 -1 3004.DAT
0 STEP
1 86 30.0 -192 80.0 0 0 1 0 1 0 -1 0 0 3004.DAT
0 STEP
1 86 80.0 -216 40.0 0 0 1 0 1 0 -1 0 0 3003.DAT
0 STEP
1 86 90.0 -240 60.0 0 0 1 0 1 0 -1 0 0 3004.DAT
0 STEP
1 86 60.0 -216 10.0 -1 0 0 0 1 0 0 0 -1 3010.DAT
0 STEP
1 86 10.0 -240 20.0 0 0 1 0 1 0 -1 0 0 3004.DAT
0 STEP
1 86 40.0 -240 50.0 -1 0 0 0 1 0 0 0 -1 3004.DAT
0 STEP
1 86 80.0 -216 70.0 -1 0 0 0 1 0 0 0 -1 3004.DAT
0 STEP
1 86 80.0 -264 50.0 -1 0 0 0 1 0 0 0 -1 3009.DAT
0 STEP
1 86 60.0 -192 20.0 -1 0 0 0 1 0 0 0 -1 3001.DAT
0 STEP
1 86 120.0 -240 140.0 0 0 1 0 1 0 -1 0 0 3001.DAT
0 STEP
1 86 120.0 -240 60.0 0 0 1 0 1 0 -1 0 0 3001.DAT
0 STEP
1 86 40.0 -216 100.0 0 0 1 0 1 0 -1 0 0 2456.DAT
0 STEP
1 86 170.0 -72 210.0 0 0 1 0 1 0 -1 0 0 3005.DAT
0 STEP
1 86 170.0 -48 250.0 0 0 1 0 1 0 -1 0 0 3005.DAT
0 STEP
1 86 210.0 -48 190.0 0 0 1 0 1 0 -1 0 0 3005.DAT
0 STEP
1 86 210.0 -48 250.0 0 0 1 0 1 0 -1 0 0 3005.DAT
0 STEP
1 86 170.0 -48 170.0 0 0 1 0 1 0 -1 0 0 3005.DAT
0 STEP
1 86 190.0 -96 210.0 0 0 1 0 1 0 -1 0 0 3005.DAT
0 STEP
1 86 210.0 -72 190.0 0 0 1 0 1 0 -1 0 0 3005.DAT
0 STEP
1 86 150.0 -48 210.0 0 0 1 0 1 0 -1 0 0 3005.DAT
0 STEP
1 86 200.0 -48 170.0 -1 0 0 0 1 0 0 0 -1 3004.DAT
0 STEP
1 86 130.0 -48 220.0 0 0 1 0 1 0 -1 0 0 3004.DAT
0 STEP
1 86 200.0 -72 250.0 -1 0 0 0 1 0 0 0 -1 3004.DAT
0 STEP
1 86 180.0 -96 190.0 -1 0 0 0 1 0 0 0 -1 3004.DAT
0 STEP
1 86 100.0 -48 230.0 -1 0 0 0 1 0 0 0 -1 3004.DAT
0 STEP
1 86 210.0 -48 220.0 0 0 1 0 1 0 -1 0 0 3004.DAT
0 STEP
1 86 210.0 -96 200.0 0 0 1 0 1 0 -1 0 0 3004.DAT
0 STEP
1 86 190.0 -48 240.0 0 0 1 0 1 0 -1 0 0 3004.DAT
0 STEP
1 86 160.0 -48 230.0 -1 0 0 0 1 0 0 0 -1 3004.DAT
0 STEP
1 86 170.0 -72 240.0 0 0 1 0 1 0 -1 0 0 3004.DAT
0 STEP
1 86 190.0 -72 220.0 0 0 1 0 1 0 -1 0 0 3004.DAT
0 STEP
1 86 200.0 -96 240.0 0 0 1 0 1 0 -1 0 0 3003.DAT
0 STEP
1 86 180.0 -48 200.0 0 0 1 0 1 0 -1 0 0 3003.DAT
0 STEP
1 86 180.0 -72 180.0 0 0 1 0 1 0 -1 0 0 3003.DAT
0 STEP
1 86 160.0 -48 150.0 -1 0 0 0 1 0 0 0 -1 3010.DAT
0 STEP
1 86 80.0 -48 200.0 -1 0 0 0 1 0 0 0 -1 3001.DAT
0 STEP
1 86 220.0 -72 220.0 0 0 1 0 1 0 -1 0 0 3003.DAT
0 STEP
1 86 190.0 -24 180.0 0 0 1 0 1 0 -1 0 0 3010.DAT
0 STEP
