1 86 10.0 -48 100.0 0 0 1 0 1 0 -1 0 0 3008.DAT
0 STEP
1 86 30.0 -72 30.0 -1 0 0 0 1 0 0 0 -1 3622.DAT
0 STEP
1 86 10.0 -96 80.0 0 0 1 0 1 0 -1 0 0 3009.DAT
0 STEP
1 86 10.0 0 80.0 0 0 1 0 1 0 -1 0 0 3010.DAT
0 STEP
1 86 20.0 -24 60.0 0 0 1 0 1 0 -1 0 0 3003.DAT
0 STEP
1 86 20.0 -72 50.0 -1 0 0 0 1 0 0 0 -1 3004.DAT
0 STEP
1 86 10.0 -72 90.0 0 0 1 0 1 0 -1 0 0 3622.DAT
0 STEP
1 86 40.0 -24 90.0 -1 0 0 0 1 0 0 0 -1 3010.DAT
0 STEP
1 86 60.0 -24 110.0 -1 0 0 0 1 0 0 0 -1 3009.DAT
0 STEP
1 86 10.0 0 150.0 0 0 1 0 1 0 -1 0 0 3622.DAT
0 STEP
1 86 40.0 -24 140.0 -1 0 0 0 1 0 0 0 -1 3001.DAT
0 STEP
1 86 10.0 -72 180.0 0 0 1 0 1 0 -1 0 0 3009.DAT
0 STEP
1 86 10.0 -96 180.0 0 0 1 0 1 0 -1 0 0 3010.DAT
0 STEP
1 86 20.0 -24 200.0 0 0 1 0 1 0 -1 0 0 3001.DAT
0 STEP
1 86 40.0 0 190.0 -1 0 0 0 1 0 0 0 -1 3010.DAT
0 STEP
1 86 40.0 -48 190.0 -1 0 0 0 1 0 0 0 -1 3010.DAT
0 STEP
1 86 10.0 -120 220.0 0 0 1 0 1 0 -1 0 0 3010.DAT
0 STEP
1 86 20.0 -144 210.0 0 0 1 0 1 0 -1 0 0 3002.DAT
0 STEP
1 86 10.0 -168 190.0 0 0 1 0 1 0 -1 0 0 3005.DAT
0 STEP
1 86 20.0 -192 220.0 0 0 1 0 1 0 -1 0 0 3001.DAT
0 STEP
1 86 20.0 0 240.0 0 0 1 0 1 0 -1 0 0 3001.DAT
0 STEP
1 86 20.0 -48 240.0 0 0 1 0 1 0 -1 0 0 3001.DAT
0 STEP
1 86 20.0 -168 240.0 0 0 1 0 1 0 -1 0 0 3001.DAT
0 STEP
1 86 20.0 -96 280.0 0 0 1 0 1 0 -1 0 0 2456.DAT
0 STEP
1 86 80.0 -24 250.0 -1 0 0 0 1 0 0 0 -1 3008.DAT
0 STEP
1 86 10.0 -72 250.0 0 0 1 0 1 0 -1 0 0 3005.DAT
0 STEP
1 86 20.0 -144 300.0 0 0 1 0 1 0 -1 0 0 2456.DAT
0 STEP
1 86 10.0 -24 300.0 0 0 1 0 1 0 -1 0 0 3010.DAT
0 STEP
1 86 10.0 -72 320.0 0 0 1 0 1 0 -1 0 0 3009.DAT
0 STEP
1 86 10.0 -120 270.0 0 0 1 0 1 0 -1 0 0 3005.DAT
0 STEP
1 86 10.0 -192 340.0 0 0 1 0 1 0 -1 0 0 3008.DAT
0 STEP
1 86 40.0 0 300.0 -1 0 0 0 1 0 0 0 -1 3001.DAT
0 STEP
1 86 40.0 -48 300.0 -1 0 0 0 1 0 0 0 -1 3001.DAT
0 STEP
1 86 10.0 -120 360.0 0 0 1 0 1 0 -1 0 0 3008.DAT
0 STEP
1 86 20.0 -168 360.0 0 0 1 0 1 0 -1 0 0 3007.DAT
0 STEP
1 86 10.0 0 380.0 0 0 1 0 1 0 -1 0 0 3009.DAT
0 STEP
1 86 40.0 -48 340.0 -1 0 0 0 1 0 0 0 -1 3001.DAT
0 STEP
1 86 10.0 -24 350.0 0 0 1 0 1 0 -1 0 0 3005.DAT
0 STEP
1 86 20.0 -96 350.0 -1 0 0 0 1 0 0 0 -1 3004.DAT
0 STEP
1 86 20.0 -24 390.0 0 0 1 0 1 0 -1 0 0 3002.DAT
0 STEP
1 86 10.0 -48 380.0 0 0 1 0 1 0 -1 0 0 3004.DAT
0 STEP
1 86 20.0 -96 460.0 0 0 1 0 1 0 -1 0 0 3006.DAT
0 STEP
1 86 10.0 -144 440.0 0 0 1 0 1 0 -1 0 0 3008.DAT
0 STEP
1 86 10.0 -72 420.0 0 0 1 0 1 0 -1 0 0 3010.DAT
0 STEP
1 86 60.0 -48 410.0 -1 0 0 0 1 0 0 0 -1 3009.DAT
0 STEP
1 86 10.0 -24 460.0 0 0 1 0 1 0 -1 0 0 3010.DAT
0 STEP
1 86 80.0 -48 430.0 -1 0 0 0 1 0 0 0 -1 3008.DAT
0 STEP
1 86 10.0 -192 500.0 0 0 1 0 1 0 -1 0 0 3008.DAT
0 STEP
1 86 40.0 0 450.0 -1 0 0 0 1 0 0 0 -1 3010.DAT
0 STEP
1 86 10.0 -48 460.0 0 0 1 0 1 0 -1 0 0 3004.DAT
0 STEP
1 86 20.0 -120 450.0 -1 0 0 0 1 0 0 0 -1 3004.DAT
0 STEP
1 86 20.0 -168 450.0 -1 0 0 0 1 0 0 0 -1 3004.DAT
0 STEP
1 86 10.0 0 470.0 0 0 1 0 1 0 -1 0 0 3005.DAT
0 STEP
1 86 10.0 -72 470.0 0 0 1 0 1 0 -1 0 0 3005.DAT
0 STEP
1 86 20.0 -120 500.0 0 0 1 0 1 0 -1 0 0 3001.DAT
0 STEP
1 86 20.0 -168 500.0 0 0 1 0 1 0 -1 0 0 3001.DAT
0 STEP
1 86 40.0 0 490.0 -1 0 0 0 1 0 0 0 -1 3010.DAT
0 STEP
1 86 40.0 -48 490.0 -1 0 0 0 1 0 0 0 -1 3010.DAT
0 STEP
1 86 10.0 -72 560.0 0 0 1 0 1 0 -1 0 0 3008.DAT
0 STEP
1 86 10.0 0 520.0 0 0 1 0 1 0 -1 0 0 3004.DAT
0 STEP
1 86 10.0 -24 510.0 0 0 1 0 1 0 -1 0 0 3005.DAT
0 STEP
1 86 10.0 -48 520.0 0 0 1 0 1 0 -1 0 0 3004.DAT
0 STEP
1 86 40.0 -24 530.0 -1 0 0 0 1 0 0 0 -1 3010.DAT
0 STEP
1 86 10.0 -144 560.0 0 0 1 0 1 0 -1 0 0 3010.DAT
0 STEP
1 86 60.0 0 560.0 -1 0 0 0 1 0 0 0 -1 2456.DAT
0 STEP
1 86 10.0 -24 550.0 0 0 1 0 1 0 -1 0 0 3005.DAT
0 STEP
1 86 60.0 -48 550.0 -1 0 0 0 1 0 0 0 -1 3009.DAT
0 STEP
1 86 20.0 -120 620.0 0 0 1 0 1 0 -1 0 0 3007.DAT
0 STEP
1 86 20.0 -168 620.0 0 0 1 0 1 0 -1 0 0 3007.DAT
0 STEP
1 86 10.0 -24 600.0 0 0 1 0 1 0 -1 0 0 3010.DAT
0 STEP
1 86 20.0 -48 570.0 -1 0 0 0 1 0 0 0 -1 3004.DAT
0 STEP
1 86 20.0 -96 570.0 -1 0 0 0 1 0 0 0 -1 3004.DAT
0 STEP
1 86 20.0 0 600.0 0 0 1 0 1 0 -1 0 0 3003.DAT
0 STEP
1 86 20.0 -48 640.0 0 0 1 0 1 0 -1 0 0 2456.DAT
0 STEP
1 86 20.0 -96 680.0 0 0 1 0 1 0 -1 0 0 3006.DAT
0 STEP
1 86 10.0 -192 590.0 0 0 1 0 1 0 -1 0 0 3005.DAT
0 STEP
1 86 10.0 -144 610.0 0 0 1 0 1 0 -1 0 0 3005.DAT
0 STEP
1 86 80.0 -192 610.0 -1 0 0 0 1 0 0 0 -1 3008.DAT
0 STEP
1 86 10.0 0 680.0 0 0 1 0 1 0 -1 0 0 3009.DAT
0 STEP
1 86 20.0 -144 630.0 -1 0 0 0 1 0 0 0 -1 3004.DAT
0 STEP
1 86 10.0 -192 680.0 0 0 1 0 1 0 -1 0 0 3009.DAT
0 STEP
1 86 10.0 -24 650.0 0 0 1 0 1 0 -1 0 0 3005.DAT
0 STEP
1 86 10.0 -72 680.0 0 0 1 0 1 0 -1 0 0 3010.DAT
0 STEP
1 86 40.0 -24 670.0 -1 0 0 0 1 0 0 0 -1 3010.DAT
0 STEP
1 86 20.0 -144 670.0 -1 0 0 0 1 0 0 0 -1 3004.DAT
0 STEP
1 86 10.0 -24 690.0 0 0 1 0 1 0 -1 0 0 3005.DAT
0 STEP
1 86 20.0 -144 720.0 0 0 1 0 1 0 -1 0 0 3001.DAT
0 STEP
1 86 20.0 -24 760.0 0 0 1 0 1 0 -1 0 0 2456.DAT
0 STEP
1 86 10.0 -48 730.0 0 0 1 0 1 0 -1 0 0 3622.DAT
0 STEP
1 86 20.0 -120 710.0 -1 0 0 0 1 0 0 0 -1 3004.DAT
0 STEP
1 86 20.0 -168 710.0 -1 0 0 0 1 0 0 0 -1 3004.DAT
0 STEP
1 86 10.0 -72 730.0 0 0 1 0 1 0 -1 0 0 3005.DAT
0 STEP
1 86 20.0 -120 780.0 0 0 1 0 1 0 -1 0 0 2456.DAT
0 STEP
1 86 20.0 -168 820.0 0 0 1 0 1 0 -1 0 0 3006.DAT
0 STEP
1 86 20.0 0 750.0 -1 0 0 0 1 0 0 0 -1 3004.DAT
0 STEP
1 86 10.0 -72 820.0 0 0 1 0 1 0 -1 0 0 3008.DAT
0 STEP
1 86 10.0 -192 770.0 0 0 1 0 1 0 -1 0 0 3622.DAT
0 STEP
1 86 30.0 0 780.0 -1 0 0 0 1 0 0 0 -1 3002.DAT
0 STEP
1 86 30.0 -48 780.0 -1 0 0 0 1 0 0 0 -1 3002.DAT
0 STEP
1 86 20.0 -144 790.0 0 0 1 0 1 0 -1 0 0 3002.DAT
0 STEP
1 86 20.0 -96 820.0 0 0 1 0 1 0 -1 0 0 3001.DAT
0 STEP
1 86 30.0 0 810.0 -1 0 0 0 1 0 0 0 -1 3622.DAT
0 STEP
1 86 30.0 -48 810.0 -1 0 0 0 1 0 0 0 -1 3622.DAT
0 STEP
1 86 80.0 -192 810.0 -1 0 0 0 1 0 0 0 -1 3008.DAT
0 STEP
1 86 10.0 0 860.0 0 0 1 0 1 0 -1 0 0 3010.DAT
0 STEP
1 86 40.0 -24 840.0 -1 0 0 0 1 0 0 0 -1 3001.DAT
0 STEP
1 86 10.0 -48 830.0 0 0 1 0 1 0 -1 0 0 3005.DAT
0 STEP
1 86 10.0 -192 860.0 0 0 1 0 1 0 -1 0 0 3010.DAT
0 STEP
1 86 10.0 -48 880.0 0 0 1 0 1 0 -1 0 0 3010.DAT
0 STEP
1 86 20.0 -120 900.0 0 0 1 0 1 0 -1 0 0 2456.DAT
0 STEP
1 86 20.0 -144 850.0 -1 0 0 0 1 0 0 0 -1 3004.DAT
0 STEP
1 86 20.0 -24 900.0 0 0 1 0 1 0 -1 0 0 3001.DAT
0 STEP
1 86 20.0 -96 870.0 -1 0 0 0 1 0 0 0 -1 3004.DAT
0 STEP
1 86 20.0 -144 920.0 0 0 1 0 1 0 -1 0 0 2456.DAT
0 STEP
1 86 20.0 -96 940.0 0 0 1 0 1 0 -1 0 0 2456.DAT
0 STEP
1 86 10.0 0 910.0 0 0 1 0 1 0 -1 0 0 3005.DAT
0 STEP
1 86 10.0 -72 980.0 0 0 1 0 1 0 -1 0 0 3008.DAT
0 STEP
1 86 10.0 -192 960.0 0 0 1 0 1 0 -1 0 0 3009.DAT
0 STEP
1 86 10.0 0 1000.0 0 0 1 0 1 0 -1 0 0 3008.DAT
0 STEP
1 86 40.0 -48 930.0 -1 0 0 0 1 0 0 0 -1 3010.DAT
0 STEP
1 86 20.0 -168 950.0 0 0 1 0 1 0 -1 0 0 3002.DAT
0 STEP
1 86 40.0 -24 950.0 -1 0 0 0 1 0 0 0 -1 3010.DAT
0 STEP
1 86 10.0 -48 950.0 0 0 1 0 1 0 -1 0 0 3005.DAT
0 STEP
1 86 60.0 -24 980.0 -1 0 0 0 1 0 0 0 -1 2456.DAT
0 STEP
1 86 10.0 -48 1040.0 0 0 1 0 1 0 -1 0 0 3008.DAT
0 STEP
1 86 20.0 -120 970.0 -1 0 0 0 1 0 0 0 -1 3004.DAT
0 STEP
1 86 20.0 -120 1040.0 0 0 1 0 1 0 -1 0 0 2456.DAT
0 STEP
1 86 20.0 -168 1040.0 0 0 1 0 1 0 -1 0 0 2456.DAT
0 STEP
1 86 80.0 -24 1010.0 -1 0 0 0 1 0 0 0 -1 3008.DAT
0 STEP
1 86 20.0 -96 1010.0 -1 0 0 0 1 0 0 0 -1 3004.DAT
0 STEP
1 86 20.0 -144 1040.0 0 0 1 0 1 0 -1 0 0 3001.DAT
0 STEP
1 86 40.0 -24 1040.0 -1 0 0 0 1 0 0 0 -1 3001.DAT
0 STEP
1 86 10.0 -96 1030.0 0 0 1 0 1 0 -1 0 0 3005.DAT
0 STEP
1 86 10.0 -192 1060.0 0 0 1 0 1 0 -1 0 0 3010.DAT
0 STEP
1 86 10.0 -96 1120.0 0 0 1 0 1 0 -1 0 0 3008.DAT
0 STEP
1 86 80.0 -24 1080.0 -1 0 0 0 1 0 0 0 -1 3007.DAT
0 STEP
1 86 10.0 -72 1070.0 0 0 1 0 1 0 -1 0 0 3005.DAT
0 STEP
1 86 20.0 0 1090.0 -1 0 0 0 1 0 0 0 -1 3004.DAT
0 STEP
1 86 10.0 -72 1120.0 0 0 1 0 1 0 -1 0 0 3010.DAT
0 STEP
1 86 80.0 -144 1090.0 -1 0 0 0 1 0 0 0 -1 3008.DAT
0 STEP
1 86 40.0 0 1120.0 -1 0 0 0 1 0 0 0 -1 3001.DAT
0 STEP
1 86 40.0 -24 1110.0 -1 0 0 0 1 0 0 0 -1 3010.DAT
0 STEP
1 86 40.0 -24 1140.0 -1 0 0 0 1 0 0 0 -1 3001.DAT
0 STEP
1 86 10.0 -48 1160.0 0 0 1 0 1 0 -1 0 0 3010.DAT
0 STEP
1 86 10.0 0 1160.0 0 0 1 0 1 0 -1 0 0 3004.DAT
0 STEP
1 86 20.0 -72 1180.0 0 0 1 0 1 0 -1 0 0 3003.DAT
0 STEP
1 86 30.0 -48 40.0 0 0 1 0 1 0 -1 0 0 3010.DAT
0 STEP
1 86 80.0 -72 10.0 -1 0 0 0 1 0 0 0 -1 3009.DAT
0 STEP
1 86 30.0 -96 30.0 0 0 1 0 1 0 -1 0 0 3622.DAT
0 STEP
1 86 30.0 0 30.0 0 0 1 0 1 0 -1 0 0 3005.DAT
0 STEP
1 86 30.0 -24 30.0 0 0 1 0 1 0 -1 0 0 3005.DAT
0 STEP
1 86 40.0 0 60.0 0 0 1 0 1 0 -1 0 0 3003.DAT
0 STEP
1 86 30.0 0 120.0 0 0 1 0 1 0 -1 0 0 3010.DAT
0 STEP
1 86 30.0 -48 90.0 0 0 1 0 1 0 -1 0 0 3005.DAT
0 STEP
1 86 30.0 -48 140.0 0 0 1 0 1 0 -1 0 0 3010.DAT
0 STEP
1 86 60.0 0 170.0 -1 0 0 0 1 0 0 0 -1 3010.DAT
0 STEP
1 86 100.0 -72 190.0 -1 0 0 0 1 0 0 0 -1 3008.DAT
0 STEP
1 86 30.0 -96 200.0 0 0 1 0 1 0 -1 0 0 3004.DAT
0 STEP
1 86 80.0 -120 190.0 -1 0 0 0 1 0 0 0 -1 3009.DAT
0 STEP
1 86 80.0 -168 190.0 -1 0 0 0 1 0 0 0 -1 3009.DAT
0 STEP
1 86 30.0 -120 240.0 0 0 1 0 1 0 -1 0 0 3010.DAT
0 STEP
1 86 100.0 -24 270.0 -1 0 0 0 1 0 0 0 -1 3008.DAT
0 STEP
1 86 60.0 -192 280.0 -1 0 0 0 1 0 0 0 -1 3001.DAT
0 STEP
1 86 30.0 -24 320.0 0 0 1 0 1 0 -1 0 0 3010.DAT
0 STEP
1 86 30.0 -120 290.0 0 0 1 0 1 0 -1 0 0 3005.DAT
0 STEP
1 86 30.0 -120 340.0 0 0 1 0 1 0 -1 0 0 3010.DAT
0 STEP
1 86 50.0 -192 310.0 -1 0 0 0 1 0 0 0 -1 3622.DAT
0 STEP
1 86 80.0 0 330.0 -1 0 0 0 1 0 0 0 -1 3009.DAT
0 STEP
1 86 100.0 -192 330.0 -1 0 0 0 1 0 0 0 -1 3008.DAT
0 STEP
1 86 30.0 0 380.0 0 0 1 0 1 0 -1 0 0 3010.DAT
0 STEP
1 86 50.0 -192 360.0 -1 0 0 0 1 0 0 0 -1 3002.DAT
0 STEP
1 86 60.0 -48 380.0 -1 0 0 0 1 0 0 0 -1 3001.DAT
0 STEP
1 86 30.0 -144 390.0 0 0 1 0 1 0 -1 0 0 3622.DAT
0 STEP
1 86 30.0 -120 410.0 0 0 1 0 1 0 -1 0 0 3622.DAT
0 STEP
1 86 60.0 -192 400.0 -1 0 0 0 1 0 0 0 -1 3001.DAT
0 STEP
1 86 50.0 0 430.0 -1 0 0 0 1 0 0 0 -1 3622.DAT
0 STEP
1 86 30.0 -24 430.0 0 0 1 0 1 0 -1 0 0 3005.DAT
0 STEP
1 86 30.0 -144 500.0 0 0 1 0 1 0 -1 0 0 3008.DAT
0 STEP
1 86 50.0 -192 430.0 -1 0 0 0 1 0 0 0 -1 3622.DAT
0 STEP
1 86 30.0 -24 480.0 0 0 1 0 1 0 -1 0 0 3010.DAT
0 STEP
1 86 100.0 -48 460.0 -1 0 0 0 1 0 0 0 -1 3007.DAT
0 STEP
1 86 100.0 -192 450.0 -1 0 0 0 1 0 0 0 -1 3008.DAT
0 STEP
1 86 60.0 0 470.0 -1 0 0 0 1 0 0 0 -1 3010.DAT
0 STEP
1 86 50.0 -192 480.0 -1 0 0 0 1 0 0 0 -1 3002.DAT
0 STEP
1 86 50.0 0 510.0 -1 0 0 0 1 0 0 0 -1 3622.DAT
0 STEP
1 86 100.0 -48 520.0 -1 0 0 0 1 0 0 0 -1 3007.DAT
0 STEP
1 86 50.0 -192 520.0 -1 0 0 0 1 0 0 0 -1 3002.DAT
0 STEP
1 86 30.0 0 530.0 0 0 1 0 1 0 -1 0 0 3005.DAT
0 STEP
1 86 40.0 -24 570.0 0 0 1 0 1 0 -1 0 0 3002.DAT
0 STEP
1 86 60.0 -192 560.0 -1 0 0 0 1 0 0 0 -1 3001.DAT
0 STEP
1 86 30.0 -144 600.0 0 0 1 0 1 0 -1 0 0 3004.DAT
0 STEP
1 86 100.0 -192 590.0 -1 0 0 0 1 0 0 0 -1 3008.DAT
0 STEP
1 86 60.0 -24 620.0 -1 0 0 0 1 0 0 0 -1 3001.DAT
0 STEP
1 86 30.0 0 660.0 0 0 1 0 1 0 -1 0 0 3010.DAT
0 STEP
1 86 60.0 -192 640.0 -1 0 0 0 1 0 0 0 -1 3001.DAT
0 STEP
1 86 60.0 -24 650.0 -1 0 0 0 1 0 0 0 -1 3010.DAT
0 STEP
1 86 50.0 -192 680.0 -1 0 0 0 1 0 0 0 -1 3002.DAT
0 STEP
1 86 60.0 -24 690.0 -1 0 0 0 1 0 0 0 -1 3010.DAT
0 STEP
1 86 40.0 0 710.0 -1 0 0 0 1 0 0 0 -1 3004.DAT
0 STEP
1 86 30.0 -48 710.0 0 0 1 0 1 0 -1 0 0 3005.DAT
0 STEP
1 86 50.0 -192 720.0 -1 0 0 0 1 0 0 0 -1 3002.DAT
0 STEP
1 86 30.0 0 730.0 0 0 1 0 1 0 -1 0 0 3005.DAT
0 STEP
1 86 60.0 -48 740.0 -1 0 0 0 1 0 0 0 -1 3001.DAT
0 STEP
1 86 50.0 -192 760.0 -1 0 0 0 1 0 0 0 -1 3002.DAT
0 STEP
1 86 100.0 -192 790.0 -1 0 0 0 1 0 0 0 -1 3008.DAT
0 STEP
1 86 40.0 0 850.0 0 0 1 0 1 0 -1 0 0 3002.DAT
0 STEP
1 86 30.0 -48 860.0 0 0 1 0 1 0 -1 0 0 3010.DAT
0 STEP
1 86 100.0 -192 840.0 -1 0 0 0 1 0 0 0 -1 3007.DAT
0 STEP
1 86 50.0 -192 880.0 -1 0 0 0 1 0 0 0 -1 3002.DAT
0 STEP
1 86 60.0 0 890.0 -1 0 0 0 1 0 0 0 -1 3010.DAT
0 STEP
1 86 40.0 0 940.0 0 0 1 0 1 0 -1 0 0 3001.DAT
0 STEP
1 86 30.0 -48 910.0 0 0 1 0 1 0 -1 0 0 3005.DAT
0 STEP
1 86 100.0 -192 910.0 -1 0 0 0 1 0 0 0 -1 3008.DAT
0 STEP
1 86 50.0 -192 930.0 -1 0 0 0 1 0 0 0 -1 3622.DAT
0 STEP
1 86 30.0 -48 1020.0 0 0 1 0 1 0 -1 0 0 3008.DAT
0 STEP
1 86 100.0 -192 950.0 -1 0 0 0 1 0 0 0 -1 3008.DAT
0 STEP
1 86 50.0 -192 970.0 -1 0 0 0 1 0 0 0 -1 3622.DAT
0 STEP
1 86 60.0 0 990.0 -1 0 0 0 1 0 0 0 -1 3010.DAT
0 STEP
1 86 60.0 -192 1000.0 -1 0 0 0 1 0 0 0 -1 3001.DAT
0 STEP
1 86 30.0 0 1040.0 0 0 1 0 1 0 -1 0 0 3010.DAT
0 STEP
1 86 30.0 -96 1060.0 0 0 1 0 1 0 -1 0 0 3010.DAT
0 STEP
1 86 40.0 -192 1060.0 0 0 1 0 1 0 -1 0 0 3001.DAT
0 STEP
1 86 50.0 -72 1090.0 -1 0 0 0 1 0 0 0 -1 3622.DAT
0 STEP
1 86 30.0 -48 1120.0 0 0 1 0 1 0 -1 0 0 3004.DAT
0 STEP
1 86 100.0 0 1160.0 -1 0 0 0 1 0 0 0 -1 3007.DAT
0 STEP
1 86 100.0 -48 1160.0 -1 0 0 0 1 0 0 0 -1 3007.DAT
0 STEP
1 86 30.0 -24 1190.0 0 0 1 0 1 0 -1 0 0 3622.DAT
0 STEP
1 86 30.0 -96 1200.0 0 0 1 0 1 0 -1 0 0 3010.DAT
0 STEP
1 86 80.0 0 1190.0 -1 0 0 0 1 0 0 0 -1 3009.DAT
0 STEP
1 86 30.0 -48 1210.0 0 0 1 0 1 0 -1 0 0 3622.DAT
0 STEP
1 86 30.0 0 1210.0 0 0 1 0 1 0 -1 0 0 3005.DAT
0 STEP
1 86 40.0 -72 1210.0 -1 0 0 0 1 0 0 0 -1 3004.DAT
0 STEP
1 86 50.0 -72 1230.0 -1 0 0 0 1 0 0 0 -1 3622.DAT
0 STEP
1 86 80.0 0 20.0 -1 0 0 0 1 0 0 0 -1 3001.DAT
0 STEP
1 86 60.0 -24 40.0 0 0 1 0 1 0 -1 0 0 3001.DAT
0 STEP
1 86 70.0 -48 10.0 -1 0 0 0 1 0 0 0 -1 3622.DAT
0 STEP
1 86 50.0 -96 20.0 0 0 1 0 1 0 -1 0 0 3004.DAT
0 STEP
1 86 60.0 -48 100.0 0 0 1 0 1 0 -1 0 0 3007.DAT
0 STEP
1 86 50.0 0 110.0 0 0 1 0 1 0 -1 0 0 3622.DAT
0 STEP
1 86 80.0 0 150.0 -1 0 0 0 1 0 0 0 -1 3010.DAT
0 STEP
1 86 50.0 -24 200.0 0 0 1 0 1 0 -1 0 0 3010.DAT
0 STEP
1 86 80.0 -96 190.0 -1 0 0 0 1 0 0 0 -1 3010.DAT
0 STEP
1 86 50.0 -144 190.0 0 0 1 0 1 0 -1 0 0 3005.DAT
0 STEP
1 86 60.0 -192 220.0 0 0 1 0 1 0 -1 0 0 3001.DAT
0 STEP
1 86 60.0 0 240.0 0 0 1 0 1 0 -1 0 0 3001.DAT
0 STEP
1 86 60.0 -48 240.0 0 0 1 0 1 0 -1 0 0 3001.DAT
0 STEP
1 86 50.0 -24 290.0 0 0 1 0 1 0 -1 0 0 3005.DAT
0 STEP
1 86 80.0 -24 310.0 -1 0 0 0 1 0 0 0 -1 3010.DAT
0 STEP
1 86 50.0 -24 400.0 0 0 1 0 1 0 -1 0 0 3008.DAT
0 STEP
1 86 80.0 0 360.0 -1 0 0 0 1 0 0 0 -1 3001.DAT
0 STEP
1 86 70.0 0 400.0 -1 0 0 0 1 0 0 0 -1 3002.DAT
0 STEP
1 86 50.0 -24 500.0 0 0 1 0 1 0 -1 0 0 3004.DAT
0 STEP
1 86 80.0 0 530.0 -1 0 0 0 1 0 0 0 -1 3010.DAT
0 STEP
1 86 80.0 -48 580.0 -1 0 0 0 1 0 0 0 -1 3001.DAT
0 STEP
1 86 50.0 0 640.0 0 0 1 0 1 0 -1 0 0 3009.DAT
0 STEP
1 86 80.0 -48 610.0 -1 0 0 0 1 0 0 0 -1 3010.DAT
0 STEP
1 86 60.0 -48 630.0 -1 0 0 0 1 0 0 0 -1 3004.DAT
0 STEP
1 86 60.0 -48 680.0 0 0 1 0 1 0 -1 0 0 3001.DAT
0 STEP
1 86 50.0 -24 760.0 0 0 1 0 1 0 -1 0 0 3009.DAT
0 STEP
1 86 50.0 0 740.0 0 0 1 0 1 0 -1 0 0 3004.DAT
0 STEP
1 86 50.0 -48 830.0 0 0 1 0 1 0 -1 0 0 3005.DAT
0 STEP
1 86 50.0 -48 880.0 0 0 1 0 1 0 -1 0 0 3010.DAT
0 STEP
1 86 60.0 -24 900.0 0 0 1 0 1 0 -1 0 0 3001.DAT
0 STEP
1 86 80.0 -48 950.0 -1 0 0 0 1 0 0 0 -1 3010.DAT
0 STEP
1 86 50.0 -48 1040.0 0 0 1 0 1 0 -1 0 0 3008.DAT
0 STEP
1 86 70.0 0 1010.0 -1 0 0 0 1 0 0 0 -1 3622.DAT
0 STEP
1 86 50.0 0 1060.0 0 0 1 0 1 0 -1 0 0 3010.DAT
0 STEP
1 86 60.0 -96 1090.0 -1 0 0 0 1 0 0 0 -1 3004.DAT
0 STEP
1 86 60.0 -120 1090.0 -1 0 0 0 1 0 0 0 -1 3004.DAT
0 STEP
1 86 80.0 -168 1090.0 -1 0 0 0 1 0 0 0 -1 3010.DAT
0 STEP
1 86 50.0 -48 1130.0 0 0 1 0 1 0 -1 0 0 3005.DAT
0 STEP
1 86 50.0 -24 1200.0 0 0 1 0 1 0 -1 0 0 3010.DAT
0 STEP
1 86 80.0 -48 1200.0 -1 0 0 0 1 0 0 0 -1 3001.DAT
0 STEP
1 86 100.0 0 1210.0 -1 0 0 0 1 0 0 0 -1 3009.DAT
0 STEP
1 86 50.0 -96 1230.0 0 0 1 0 1 0 -1 0 0 3622.DAT
0 STEP
1 86 80.0 0 1230.0 -1 0 0 0 1 0 0 0 -1 3010.DAT
0 STEP
1 86 80.0 -48 1240.0 -1 0 0 0 1 0 0 0 -1 3001.DAT
0 STEP
1 86 50.0 -72 1250.0 0 0 1 0 1 0 -1 0 0 3005.DAT
0 STEP
1 86 70.0 -96 10.0 0 0 1 0 1 0 -1 0 0 3005.DAT
0 STEP
1 86 90.0 0 50.0 -1 0 0 0 1 0 0 0 -1 3622.DAT
0 STEP
1 86 70.0 0 100.0 0 0 1 0 1 0 -1 0 0 3010.DAT
0 STEP
1 86 80.0 -24 190.0 0 0 1 0 1 0 -1 0 0 3002.DAT
0 STEP
1 86 120.0 -144 190.0 -1 0 0 0 1 0 0 0 -1 3009.DAT
0 STEP
1 86 100.0 -24 230.0 -1 0 0 0 1 0 0 0 -1 3010.DAT
0 STEP
1 86 120.0 -24 290.0 -1 0 0 0 1 0 0 0 -1 3009.DAT
0 STEP
1 86 80.0 -24 340.0 0 0 1 0 1 0 -1 0 0 3003.DAT
0 STEP
1 86 70.0 -24 440.0 0 0 1 0 1 0 -1 0 0 3008.DAT
0 STEP
1 86 70.0 -24 570.0 0 0 1 0 1 0 -1 0 0 3622.DAT
0 STEP
1 86 70.0 0 660.0 0 0 1 0 1 0 -1 0 0 3008.DAT
0 STEP
1 86 100.0 -24 710.0 -1 0 0 0 1 0 0 0 -1 3010.DAT
0 STEP
1 86 90.0 -24 740.0 -1 0 0 0 1 0 0 0 -1 3002.DAT
0 STEP
1 86 70.0 0 750.0 0 0 1 0 1 0 -1 0 0 3005.DAT
0 STEP
1 86 120.0 0 780.0 -1 0 0 0 1 0 0 0 -1 2456.DAT
0 STEP
1 86 70.0 -24 790.0 0 0 1 0 1 0 -1 0 0 3622.DAT
0 STEP
1 86 100.0 -48 780.0 -1 0 0 0 1 0 0 0 -1 3001.DAT
0 STEP
1 86 70.0 0 840.0 0 0 1 0 1 0 -1 0 0 3010.DAT
0 STEP
1 86 100.0 -48 820.0 -1 0 0 0 1 0 0 0 -1 3001.DAT
0 STEP
1 86 90.0 -48 850.0 -1 0 0 0 1 0 0 0 -1 3622.DAT
0 STEP
1 86 70.0 -48 890.0 0 0 1 0 1 0 -1 0 0 3622.DAT
0 STEP
1 86 80.0 0 940.0 0 0 1 0 1 0 -1 0 0 3001.DAT
0 STEP
1 86 70.0 -48 1000.0 0 0 1 0 1 0 -1 0 0 3010.DAT
0 STEP
1 86 120.0 0 1030.0 -1 0 0 0 1 0 0 0 -1 3009.DAT
0 STEP
1 86 80.0 -192 1060.0 0 0 1 0 1 0 -1 0 0 3001.DAT
0 STEP
1 86 120.0 0 1060.0 -1 0 0 0 1 0 0 0 -1 2456.DAT
0 STEP
1 86 120.0 -48 1050.0 -1 0 0 0 1 0 0 0 -1 3009.DAT
0 STEP
1 86 70.0 -48 1100.0 0 0 1 0 1 0 -1 0 0 3010.DAT
0 STEP
1 86 120.0 0 1090.0 -1 0 0 0 1 0 0 0 -1 3009.DAT
0 STEP
1 86 70.0 -24 1170.0 0 0 1 0 1 0 -1 0 0 3005.DAT
0 STEP
1 86 80.0 -24 1220.0 0 0 1 0 1 0 -1 0 0 3001.DAT
0 STEP
1 86 70.0 -96 1240.0 0 0 1 0 1 0 -1 0 0 3004.DAT
0 STEP
1 86 90.0 0 1250.0 -1 0 0 0 1 0 0 0 -1 3622.DAT
0 STEP
1 86 100.0 -72 1250.0 -1 0 0 0 1 0 0 0 -1 3010.DAT
0 STEP
1 86 110.0 -24 10.0 -1 0 0 0 1 0 0 0 -1 3622.DAT
0 STEP
1 86 120.0 -96 10.0 -1 0 0 0 1 0 0 0 -1 3010.DAT
0 STEP
1 86 120.0 -24 30.0 -1 0 0 0 1 0 0 0 -1 3010.DAT
0 STEP
1 86 90.0 -48 60.0 0 0 1 0 1 0 -1 0 0 3010.DAT
0 STEP
1 86 100.0 -24 70.0 0 0 1 0 1 0 -1 0 0 3002.DAT
0 STEP
1 86 120.0 0 70.0 -1 0 0 0 1 0 0 0 -1 3010.DAT
0 STEP
1 86 90.0 0 110.0 0 0 1 0 1 0 -1 0 0 3622.DAT
0 STEP
1 86 90.0 -48 110.0 0 0 1 0 1 0 -1 0 0 3005.DAT
0 STEP
1 86 90.0 -24 140.0 0 0 1 0 1 0 -1 0 0 3004.DAT
0 STEP
1 86 120.0 -48 140.0 -1 0 0 0 1 0 0 0 -1 3001.DAT
0 STEP
1 86 120.0 -48 170.0 -1 0 0 0 1 0 0 0 -1 3010.DAT
0 STEP
1 86 90.0 0 190.0 0 0 1 0 1 0 -1 0 0 3005.DAT
0 STEP
1 86 120.0 -48 200.0 -1 0 0 0 1 0 0 0 -1 3001.DAT
0 STEP
1 86 90.0 -192 220.0 0 0 1 0 1 0 -1 0 0 3010.DAT
0 STEP
1 86 90.0 0 260.0 0 0 1 0 1 0 -1 0 0 3009.DAT
0 STEP
1 86 100.0 -48 260.0 0 0 1 0 1 0 -1 0 0 3001.DAT
0 STEP
1 86 90.0 -48 330.0 0 0 1 0 1 0 -1 0 0 3622.DAT
0 STEP
1 86 120.0 -192 310.0 -1 0 0 0 1 0 0 0 -1 3010.DAT
0 STEP
1 86 120.0 -192 360.0 -1 0 0 0 1 0 0 0 -1 3001.DAT
0 STEP
1 86 120.0 -24 380.0 -1 0 0 0 1 0 0 0 -1 3001.DAT
0 STEP
1 86 90.0 -24 410.0 0 0 1 0 1 0 -1 0 0 3005.DAT
0 STEP
1 86 120.0 0 430.0 -1 0 0 0 1 0 0 0 -1 3010.DAT
0 STEP
1 86 90.0 -24 500.0 0 0 1 0 1 0 -1 0 0 3008.DAT
0 STEP
1 86 120.0 -192 430.0 -1 0 0 0 1 0 0 0 -1 3010.DAT
0 STEP
1 86 90.0 0 450.0 0 0 1 0 1 0 -1 0 0 3005.DAT
0 STEP
1 86 120.0 -192 470.0 -1 0 0 0 1 0 0 0 -1 3010.DAT
0 STEP
1 86 90.0 0 500.0 0 0 1 0 1 0 -1 0 0 3004.DAT
0 STEP
1 86 90.0 -48 490.0 0 0 1 0 1 0 -1 0 0 3005.DAT
0 STEP
1 86 120.0 -192 500.0 -1 0 0 0 1 0 0 0 -1 3001.DAT
0 STEP
1 86 120.0 -192 530.0 -1 0 0 0 1 0 0 0 -1 3010.DAT
0 STEP
1 86 100.0 0 620.0 0 0 1 0 1 0 -1 0 0 3001.DAT
0 STEP
1 86 90.0 -24 590.0 0 0 1 0 1 0 -1 0 0 3005.DAT
0 STEP
1 86 90.0 -48 660.0 0 0 1 0 1 0 -1 0 0 3010.DAT
0 STEP
1 86 120.0 0 670.0 -1 0 0 0 1 0 0 0 -1 3010.DAT
0 STEP
1 86 90.0 -24 670.0 0 0 1 0 1 0 -1 0 0 3005.DAT
0 STEP
1 86 120.0 -192 680.0 -1 0 0 0 1 0 0 0 -1 3001.DAT
0 STEP
1 86 90.0 0 720.0 0 0 1 0 1 0 -1 0 0 3010.DAT
0 STEP
1 86 90.0 -48 710.0 0 0 1 0 1 0 -1 0 0 3005.DAT
0 STEP
1 86 120.0 -192 710.0 -1 0 0 0 1 0 0 0 -1 3010.DAT
0 STEP
1 86 120.0 -192 740.0 -1 0 0 0 1 0 0 0 -1 3001.DAT
0 STEP
1 86 90.0 -24 840.0 0 0 1 0 1 0 -1 0 0 3008.DAT
0 STEP
1 86 120.0 -192 770.0 -1 0 0 0 1 0 0 0 -1 3010.DAT
0 STEP
1 86 100.0 0 840.0 0 0 1 0 1 0 -1 0 0 3001.DAT
0 STEP
1 86 100.0 -48 900.0 0 0 1 0 1 0 -1 0 0 3001.DAT
0 STEP
1 86 120.0 -192 880.0 -1 0 0 0 1 0 0 0 -1 3001.DAT
0 STEP
1 86 90.0 -24 940.0 0 0 1 0 1 0 -1 0 0 3004.DAT
0 STEP
1 86 120.0 -192 930.0 -1 0 0 0 1 0 0 0 -1 3010.DAT
0 STEP
1 86 120.0 -48 980.0 -1 0 0 0 1 0 0 0 -1 3001.DAT
0 STEP
1 86 120.0 -192 970.0 -1 0 0 0 1 0 0 0 -1 3010.DAT
0 STEP
1 86 120.0 -48 1020.0 -1 0 0 0 1 0 0 0 -1 3001.DAT
0 STEP
1 86 120.0 -24 1030.0 -1 0 0 0 1 0 0 0 -1 3010.DAT
0 STEP
1 86 90.0 -24 1050.0 0 0 1 0 1 0 -1 0 0 3005.DAT
0 STEP
1 86 120.0 -48 1070.0 -1 0 0 0 1 0 0 0 -1 3010.DAT
0 STEP
1 86 90.0 -48 1100.0 0 0 1 0 1 0 -1 0 0 3004.DAT
0 STEP
1 86 90.0 0 1120.0 0 0 1 0 1 0 -1 0 0 3004.DAT
0 STEP
1 86 90.0 -24 1130.0 0 0 1 0 1 0 -1 0 0 3622.DAT
0 STEP
1 86 120.0 -48 1130.0 -1 0 0 0 1 0 0 0 -1 3010.DAT
0 STEP
1 86 120.0 -24 1170.0 -1 0 0 0 1 0 0 0 -1 3010.DAT
0 STEP
1 86 90.0 -96 1250.0 0 0 1 0 1 0 -1 0 0 3005.DAT
0 STEP
1 86 110.0 -48 40.0 0 0 1 0 1 0 -1 0 0 3010.DAT
0 STEP
1 86 140.0 0 90.0 -1 0 0 0 1 0 0 0 -1 3010.DAT
0 STEP
1 86 110.0 -48 90.0 0 0 1 0 1 0 -1 0 0 3005.DAT
0 STEP
1 86 110.0 0 120.0 0 0 1 0 1 0 -1 0 0 3004.DAT
0 STEP
1 86 140.0 -48 110.0 -1 0 0 0 1 0 0 0 -1 3010.DAT
0 STEP
1 86 110.0 -24 160.0 0 0 1 0 1 0 -1 0 0 3010.DAT
0 STEP
1 86 110.0 0 170.0 0 0 1 0 1 0 -1 0 0 3005.DAT
0 STEP
1 86 110.0 0 240.0 0 0 1 0 1 0 -1 0 0 3009.DAT
0 STEP
1 86 140.0 -192 190.0 -1 0 0 0 1 0 0 0 -1 3010.DAT
0 STEP
1 86 110.0 -24 210.0 0 0 1 0 1 0 -1 0 0 3005.DAT
0 STEP
1 86 130.0 -192 290.0 -1 0 0 0 1 0 0 0 -1 3622.DAT
0 STEP
1 86 120.0 0 310.0 -1 0 0 0 1 0 0 0 -1 3004.DAT
0 STEP
1 86 110.0 -48 340.0 0 0 1 0 1 0 -1 0 0 3010.DAT
0 STEP
1 86 110.0 -24 330.0 0 0 1 0 1 0 -1 0 0 3005.DAT
0 STEP
1 86 140.0 -24 350.0 -1 0 0 0 1 0 0 0 -1 3010.DAT
0 STEP
1 86 120.0 0 390.0 -1 0 0 0 1 0 0 0 -1 3004.DAT
0 STEP
1 86 110.0 -48 390.0 0 0 1 0 1 0 -1 0 0 3005.DAT
0 STEP
1 86 130.0 -192 400.0 -1 0 0 0 1 0 0 0 -1 3002.DAT
0 STEP
1 86 140.0 0 410.0 -1 0 0 0 1 0 0 0 -1 3010.DAT
0 STEP
1 86 110.0 -24 480.0 0 0 1 0 1 0 -1 0 0 3008.DAT
0 STEP
1 86 140.0 0 450.0 -1 0 0 0 1 0 0 0 -1 3010.DAT
0 STEP
1 86 140.0 0 480.0 -1 0 0 0 1 0 0 0 -1 3001.DAT
0 STEP
1 86 140.0 -48 490.0 -1 0 0 0 1 0 0 0 -1 3010.DAT
0 STEP
1 86 110.0 0 510.0 0 0 1 0 1 0 -1 0 0 3005.DAT
0 STEP
1 86 130.0 -192 560.0 -1 0 0 0 1 0 0 0 -1 3002.DAT
0 STEP
1 86 140.0 -24 580.0 -1 0 0 0 1 0 0 0 -1 3001.DAT
0 STEP
1 86 140.0 -24 610.0 -1 0 0 0 1 0 0 0 -1 3010.DAT
0 STEP
1 86 120.0 -24 660.0 0 0 1 0 1 0 -1 0 0 3001.DAT
0 STEP
1 86 140.0 -48 640.0 -1 0 0 0 1 0 0 0 -1 3001.DAT
0 STEP
1 86 130.0 -192 640.0 -1 0 0 0 1 0 0 0 -1 3002.DAT
0 STEP
1 86 140.0 -48 670.0 -1 0 0 0 1 0 0 0 -1 3010.DAT
0 STEP
1 86 130.0 0 700.0 -1 0 0 0 1 0 0 0 -1 3002.DAT
0 STEP
1 86 120.0 -48 720.0 0 0 1 0 1 0 -1 0 0 3001.DAT
0 STEP
1 86 130.0 0 740.0 -1 0 0 0 1 0 0 0 -1 3002.DAT
0 STEP
1 86 110.0 -24 770.0 0 0 1 0 1 0 -1 0 0 3005.DAT
0 STEP
1 86 110.0 -24 840.0 0 0 1 0 1 0 -1 0 0 3009.DAT
0 STEP
1 86 110.0 0 910.0 0 0 1 0 1 0 -1 0 0 3622.DAT
0 STEP
1 86 140.0 -24 910.0 -1 0 0 0 1 0 0 0 -1 3010.DAT
0 STEP
1 86 140.0 -24 940.0 -1 0 0 0 1 0 0 0 -1 3001.DAT
0 STEP
1 86 110.0 0 980.0 0 0 1 0 1 0 -1 0 0 3010.DAT
0 STEP
1 86 130.0 -192 1000.0 -1 0 0 0 1 0 0 0 -1 3002.DAT
0 STEP
1 86 120.0 -192 1060.0 0 0 1 0 1 0 -1 0 0 3001.DAT
0 STEP
1 86 140.0 -24 1050.0 -1 0 0 0 1 0 0 0 -1 3010.DAT
0 STEP
1 86 140.0 -48 1100.0 -1 0 0 0 1 0 0 0 -1 3001.DAT
0 STEP
1 86 140.0 -72 1090.0 -1 0 0 0 1 0 0 0 -1 3010.DAT
0 STEP
1 86 130.0 -96 1090.0 -1 0 0 0 1 0 0 0 -1 3622.DAT
0 STEP
1 86 120.0 -120 1090.0 -1 0 0 0 1 0 0 0 -1 3004.DAT
0 STEP
1 86 140.0 0 1120.0 -1 0 0 0 1 0 0 0 -1 3001.DAT
0 STEP
1 86 140.0 -24 1120.0 -1 0 0 0 1 0 0 0 -1 3001.DAT
0 STEP
1 86 140.0 -24 1150.0 -1 0 0 0 1 0 0 0 -1 3010.DAT
0 STEP
1 86 130.0 -24 1200.0 -1 0 0 0 1 0 0 0 -1 3002.DAT
0 STEP
1 86 120.0 -24 1230.0 -1 0 0 0 1 0 0 0 -1 3004.DAT
0 STEP
1 86 120.0 -72 1230.0 -1 0 0 0 1 0 0 0 -1 3004.DAT
0 STEP
1 86 120.0 -96 1240.0 0 0 1 0 1 0 -1 0 0 3003.DAT
0 STEP
1 86 110.0 -24 1250.0 0 0 1 0 1 0 -1 0 0 3005.DAT
0 STEP
1 86 130.0 0 30.0 0 0 1 0 1 0 -1 0 0 3622.DAT
0 STEP
1 86 140.0 -48 10.0 -1 0 0 0 1 0 0 0 -1 3004.DAT
0 STEP
1 86 130.0 -48 60.0 0 0 1 0 1 0 -1 0 0 3010.DAT
0 STEP
1 86 150.0 -72 30.0 -1 0 0 0 1 0 0 0 -1 3622.DAT
0 STEP
1 86 150.0 -96 30.0 -1 0 0 0 1 0 0 0 -1 3622.DAT
0 STEP
1 86 140.0 -24 80.0 0 0 1 0 1 0 -1 0 0 3001.DAT
0 STEP
1 86 130.0 0 110.0 0 0 1 0 1 0 -1 0 0 3005.DAT
0 STEP
1 86 130.0 0 160.0 0 0 1 0 1 0 -1 0 0 3010.DAT
0 STEP
1 86 140.0 -24 130.0 -1 0 0 0 1 0 0 0 -1 3004.DAT
0 STEP
1 86 130.0 -24 180.0 0 0 1 0 1 0 -1 0 0 3010.DAT
0 STEP
1 86 130.0 -96 190.0 0 0 1 0 1 0 -1 0 0 3005.DAT
0 STEP
1 86 150.0 0 220.0 -1 0 0 0 1 0 0 0 -1 3002.DAT
0 STEP
1 86 130.0 -48 230.0 0 0 1 0 1 0 -1 0 0 3005.DAT
0 STEP
1 86 130.0 0 270.0 0 0 1 0 1 0 -1 0 0 3622.DAT
0 STEP
1 86 130.0 -48 320.0 0 0 1 0 1 0 -1 0 0 3008.DAT
0 STEP
1 86 150.0 -24 320.0 -1 0 0 0 1 0 0 0 -1 3002.DAT
0 STEP
1 86 130.0 0 360.0 0 0 1 0 1 0 -1 0 0 3004.DAT
0 STEP
1 86 140.0 -24 480.0 0 0 1 0 1 0 -1 0 0 3007.DAT
0 STEP
1 86 150.0 -48 410.0 -1 0 0 0 1 0 0 0 -1 3622.DAT
0 STEP
1 86 140.0 0 580.0 0 0 1 0 1 0 -1 0 0 3007.DAT
0 STEP
1 86 130.0 -48 580.0 0 0 1 0 1 0 -1 0 0 3010.DAT
0 STEP
1 86 130.0 -24 730.0 0 0 1 0 1 0 -1 0 0 3005.DAT
0 STEP
1 86 130.0 -24 780.0 0 0 1 0 1 0 -1 0 0 3010.DAT
0 STEP
1 86 130.0 0 880.0 0 0 1 0 1 0 -1 0 0 3008.DAT
0 STEP
1 86 130.0 -24 830.0 0 0 1 0 1 0 -1 0 0 3005.DAT
0 STEP
1 86 140.0 -24 850.0 -1 0 0 0 1 0 0 0 -1 3004.DAT
0 STEP
1 86 130.0 -48 900.0 0 0 1 0 1 0 -1 0 0 3009.DAT
0 STEP
1 86 150.0 -24 880.0 -1 0 0 0 1 0 0 0 -1 3002.DAT
0 STEP
1 86 140.0 0 980.0 0 0 1 0 1 0 -1 0 0 3003.DAT
0 STEP
1 86 150.0 -24 980.0 -1 0 0 0 1 0 0 0 -1 3002.DAT
0 STEP
1 86 150.0 0 1010.0 -1 0 0 0 1 0 0 0 -1 3622.DAT
0 STEP
1 86 130.0 -168 1090.0 0 0 1 0 1 0 -1 0 0 3005.DAT
0 STEP
1 86 150.0 -48 1190.0 -1 0 0 0 1 0 0 0 -1 3622.DAT
0 STEP
1 86 130.0 -48 1230.0 0 0 1 0 1 0 -1 0 0 3622.DAT
0 STEP
1 86 130.0 -72 1210.0 0 0 1 0 1 0 -1 0 0 3005.DAT
0 STEP
1 86 140.0 -96 1210.0 -1 0 0 0 1 0 0 0 -1 3004.DAT
0 STEP
1 86 130.0 0 1230.0 0 0 1 0 1 0 -1 0 0 3005.DAT
0 STEP
1 86 150.0 -72 10.0 0 0 1 0 1 0 -1 0 0 3005.DAT
0 STEP
1 86 150.0 0 40.0 0 0 1 0 1 0 -1 0 0 3004.DAT
0 STEP
1 86 160.0 -48 60.0 0 0 1 0 1 0 -1 0 0 3001.DAT
0 STEP
1 86 150.0 -72 50.0 0 0 1 0 1 0 -1 0 0 3005.DAT
0 STEP
1 86 160.0 -96 50.0 -1 0 0 0 1 0 0 0 -1 3004.DAT
0 STEP
1 86 160.0 0 140.0 0 0 1 0 1 0 -1 0 0 3001.DAT
0 STEP
1 86 160.0 -24 150.0 -1 0 0 0 1 0 0 0 -1 3004.DAT
0 STEP
1 86 160.0 -24 200.0 0 0 1 0 1 0 -1 0 0 3001.DAT
0 STEP
1 86 160.0 0 190.0 -1 0 0 0 1 0 0 0 -1 3004.DAT
0 STEP
1 86 150.0 -96 200.0 0 0 1 0 1 0 -1 0 0 3004.DAT
0 STEP
1 86 160.0 -120 220.0 0 0 1 0 1 0 -1 0 0 3001.DAT
0 STEP
1 86 160.0 -168 220.0 0 0 1 0 1 0 -1 0 0 3001.DAT
0 STEP
1 86 160.0 -144 210.0 -1 0 0 0 1 0 0 0 -1 3004.DAT
0 STEP
1 86 150.0 -192 240.0 0 0 1 0 1 0 -1 0 0 3010.DAT
0 STEP
1 86 160.0 -48 260.0 0 0 1 0 1 0 -1 0 0 3001.DAT
0 STEP
1 86 160.0 -96 260.0 0 0 1 0 1 0 -1 0 0 3001.DAT
0 STEP
1 86 150.0 -144 230.0 0 0 1 0 1 0 -1 0 0 3005.DAT
0 STEP
1 86 150.0 0 320.0 0 0 1 0 1 0 -1 0 0 3008.DAT
0 STEP
1 86 150.0 -144 320.0 0 0 1 0 1 0 -1 0 0 3008.DAT
0 STEP
1 86 150.0 -120 300.0 0 0 1 0 1 0 -1 0 0 3010.DAT
0 STEP
1 86 160.0 -168 290.0 0 0 1 0 1 0 -1 0 0 3002.DAT
0 STEP
1 86 160.0 -48 310.0 -1 0 0 0 1 0 0 0 -1 3004.DAT
0 STEP
1 86 160.0 -96 310.0 -1 0 0 0 1 0 0 0 -1 3004.DAT
0 STEP
1 86 160.0 -48 360.0 0 0 1 0 1 0 -1 0 0 3001.DAT
0 STEP
1 86 160.0 -96 380.0 0 0 1 0 1 0 -1 0 0 2456.DAT
0 STEP
1 86 160.0 -168 380.0 0 0 1 0 1 0 -1 0 0 2456.DAT
0 STEP
1 86 150.0 -120 370.0 0 0 1 0 1 0 -1 0 0 3622.DAT
0 STEP
1 86 160.0 -120 440.0 0 0 1 0 1 0 -1 0 0 3001.DAT
0 STEP
1 86 150.0 -144 440.0 0 0 1 0 1 0 -1 0 0 3010.DAT
0 STEP
1 86 160.0 -96 450.0 -1 0 0 0 1 0 0 0 -1 3004.DAT
0 STEP
1 86 150.0 -168 450.0 0 0 1 0 1 0 -1 0 0 3005.DAT
0 STEP
1 86 160.0 -96 560.0 0 0 1 0 1 0 -1 0 0 3006.DAT
0 STEP
1 86 150.0 -168 500.0 0 0 1 0 1 0 -1 0 0 3010.DAT
0 STEP
1 86 150.0 -120 490.0 0 0 1 0 1 0 -1 0 0 3005.DAT
0 STEP
1 86 160.0 -144 560.0 0 0 1 0 1 0 -1 0 0 3007.DAT
0 STEP
1 86 150.0 -120 540.0 0 0 1 0 1 0 -1 0 0 3010.DAT
0 STEP
1 86 160.0 -48 580.0 0 0 1 0 1 0 -1 0 0 3001.DAT
0 STEP
1 86 160.0 -168 550.0 -1 0 0 0 1 0 0 0 -1 3004.DAT
0 STEP
1 86 150.0 -168 600.0 0 0 1 0 1 0 -1 0 0 3010.DAT
0 STEP
1 86 160.0 -120 590.0 -1 0 0 0 1 0 0 0 -1 3004.DAT
0 STEP
1 86 150.0 -120 660.0 0 0 1 0 1 0 -1 0 0 3009.DAT
0 STEP
1 86 150.0 -24 680.0 0 0 1 0 1 0 -1 0 0 3009.DAT
0 STEP
1 86 150.0 -168 720.0 0 0 1 0 1 0 -1 0 0 3008.DAT
0 STEP
1 86 160.0 -96 670.0 -1 0 0 0 1 0 0 0 -1 3004.DAT
0 STEP
1 86 160.0 -144 670.0 -1 0 0 0 1 0 0 0 -1 3004.DAT
0 STEP
1 86 160.0 -48 690.0 -1 0 0 0 1 0 0 0 -1 3004.DAT
0 STEP
1 86 160.0 -96 760.0 0 0 1 0 1 0 -1 0 0 3007.DAT
0 STEP
1 86 160.0 -144 720.0 0 0 1 0 1 0 -1 0 0 3001.DAT
0 STEP
1 86 160.0 -48 760.0 0 0 1 0 1 0 -1 0 0 2456.DAT
0 STEP
1 86 150.0 -120 730.0 0 0 1 0 1 0 -1 0 0 3005.DAT
0 STEP
1 86 160.0 -24 750.0 -1 0 0 0 1 0 0 0 -1 3004.DAT
0 STEP
1 86 150.0 -120 820.0 0 0 1 0 1 0 -1 0 0 3008.DAT
0 STEP
1 86 150.0 -24 800.0 0 0 1 0 1 0 -1 0 0 3010.DAT
0 STEP
1 86 160.0 -144 790.0 0 0 1 0 1 0 -1 0 0 3002.DAT
0 STEP
1 86 160.0 0 810.0 -1 0 0 0 1 0 0 0 -1 3004.DAT
0 STEP
1 86 150.0 -168 840.0 0 0 1 0 1 0 -1 0 0 3010.DAT
0 STEP
1 86 160.0 0 860.0 0 0 1 0 1 0 -1 0 0 3001.DAT
0 STEP
1 86 150.0 -48 880.0 0 0 1 0 1 0 -1 0 0 3009.DAT
0 STEP
1 86 160.0 -96 850.0 -1 0 0 0 1 0 0 0 -1 3004.DAT
0 STEP
1 86 160.0 -144 900.0 0 0 1 0 1 0 -1 0 0 2456.DAT
0 STEP
1 86 160.0 -96 940.0 0 0 1 0 1 0 -1 0 0 3007.DAT
0 STEP
1 86 150.0 -168 940.0 0 0 1 0 1 0 -1 0 0 3009.DAT
0 STEP
1 86 160.0 0 910.0 -1 0 0 0 1 0 0 0 -1 3004.DAT
0 STEP
1 86 150.0 -120 960.0 0 0 1 0 1 0 -1 0 0 3009.DAT
0 STEP
1 86 150.0 0 940.0 0 0 1 0 1 0 -1 0 0 3004.DAT
0 STEP
1 86 150.0 -48 950.0 0 0 1 0 1 0 -1 0 0 3005.DAT
0 STEP
1 86 160.0 -144 970.0 -1 0 0 0 1 0 0 0 -1 3004.DAT
0 STEP
1 86 160.0 -144 1040.0 0 0 1 0 1 0 -1 0 0 3001.DAT
0 STEP
1 86 150.0 -168 1010.0 0 0 1 0 1 0 -1 0 0 3005.DAT
0 STEP
1 86 160.0 -96 1050.0 0 0 1 0 1 0 -1 0 0 3002.DAT
0 STEP
1 86 160.0 -120 1060.0 0 0 1 0 1 0 -1 0 0 3001.DAT
0 STEP
1 86 160.0 -168 1060.0 0 0 1 0 1 0 -1 0 0 3001.DAT
0 STEP
1 86 150.0 -192 1040.0 0 0 1 0 1 0 -1 0 0 3004.DAT
0 STEP
1 86 160.0 -192 1080.0 0 0 1 0 1 0 -1 0 0 3003.DAT
0 STEP
1 86 150.0 -72 1200.0 0 0 1 0 1 0 -1 0 0 3010.DAT
0 STEP
1 86 160.0 -96 1180.0 0 0 1 0 1 0 -1 0 0 3003.DAT
0 STEP
1 86 150.0 0 1190.0 0 0 1 0 1 0 -1 0 0 3005.DAT
0 STEP
1 86 150.0 -48 1220.0 0 0 1 0 1 0 -1 0 0 3004.DAT
0 STEP
1 86 150.0 -96 1230.0 0 0 1 0 1 0 -1 0 0 3005.DAT
0 STEP
1 86 170.0 0 60.0 0 0 1 0 1 0 -1 0 0 3004.DAT
0 STEP
1 86 170.0 -24 50.0 0 0 1 0 1 0 -1 0 0 3005.DAT
0 STEP
1 86 170.0 -72 100.0 0 0 1 0 1 0 -1 0 0 3009.DAT
0 STEP
1 86 170.0 -24 100.0 0 0 1 0 1 0 -1 0 0 3010.DAT
0 STEP
1 86 170.0 -96 140.0 0 0 1 0 1 0 -1 0 0 3008.DAT
0 STEP
1 86 170.0 -48 160.0 0 0 1 0 1 0 -1 0 0 3010.DAT
0 STEP
1 86 170.0 -72 170.0 0 0 1 0 1 0 -1 0 0 3005.DAT
0 STEP
1 86 170.0 -48 210.0 0 0 1 0 1 0 -1 0 0 3005.DAT
0 STEP
1 86 170.0 -72 280.0 0 0 1 0 1 0 -1 0 0 3008.DAT
0 STEP
1 86 170.0 -192 260.0 0 0 1 0 1 0 -1 0 0 3009.DAT
0 STEP
1 86 170.0 -144 280.0 0 0 1 0 1 0 -1 0 0 3009.DAT
0 STEP
1 86 170.0 0 250.0 0 0 1 0 1 0 -1 0 0 3005.DAT
0 STEP
1 86 170.0 -24 250.0 0 0 1 0 1 0 -1 0 0 3005.DAT
0 STEP
1 86 170.0 0 320.0 0 0 1 0 1 0 -1 0 0 3009.DAT
0 STEP
1 86 170.0 -120 270.0 0 0 1 0 1 0 -1 0 0 3005.DAT
0 STEP
1 86 170.0 -120 340.0 0 0 1 0 1 0 -1 0 0 3009.DAT
0 STEP
1 86 170.0 -144 380.0 0 0 1 0 1 0 -1 0 0 3010.DAT
0 STEP
1 86 170.0 -192 350.0 0 0 1 0 1 0 -1 0 0 3005.DAT
0 STEP
1 86 170.0 -24 440.0 0 0 1 0 1 0 -1 0 0 3008.DAT
0 STEP
1 86 170.0 -72 370.0 0 0 1 0 1 0 -1 0 0 3005.DAT
0 STEP
1 86 170.0 -192 400.0 0 0 1 0 1 0 -1 0 0 3010.DAT
0 STEP
1 86 170.0 0 390.0 0 0 1 0 1 0 -1 0 0 3005.DAT
0 STEP
1 86 170.0 -72 440.0 0 0 1 0 1 0 -1 0 0 3009.DAT
0 STEP
1 86 170.0 0 430.0 0 0 1 0 1 0 -1 0 0 3005.DAT
0 STEP
1 86 170.0 -48 430.0 0 0 1 0 1 0 -1 0 0 3005.DAT
0 STEP
1 86 170.0 -144 450.0 0 0 1 0 1 0 -1 0 0 3622.DAT
0 STEP
1 86 170.0 -168 480.0 0 0 1 0 1 0 -1 0 0 3010.DAT
0 STEP
1 86 170.0 -192 520.0 0 0 1 0 1 0 -1 0 0 3009.DAT
0 STEP
1 86 170.0 -120 520.0 0 0 1 0 1 0 -1 0 0 3010.DAT
0 STEP
1 86 170.0 0 580.0 0 0 1 0 1 0 -1 0 0 3008.DAT
0 STEP
1 86 170.0 -72 540.0 0 0 1 0 1 0 -1 0 0 3010.DAT
0 STEP
1 86 170.0 -24 540.0 0 0 1 0 1 0 -1 0 0 3004.DAT
0 STEP
1 86 170.0 -168 530.0 0 0 1 0 1 0 -1 0 0 3005.DAT
0 STEP
1 86 170.0 -120 570.0 0 0 1 0 1 0 -1 0 0 3005.DAT
0 STEP
1 86 170.0 -168 590.0 0 0 1 0 1 0 -1 0 0 3622.DAT
0 STEP
1 86 170.0 -72 590.0 0 0 1 0 1 0 -1 0 0 3005.DAT
0 STEP
1 86 170.0 -72 660.0 0 0 1 0 1 0 -1 0 0 3009.DAT
0 STEP
1 86 170.0 -120 610.0 0 0 1 0 1 0 -1 0 0 3005.DAT
0 STEP
1 86 170.0 -192 660.0 0 0 1 0 1 0 -1 0 0 3009.DAT
0 STEP
1 86 170.0 -24 630.0 0 0 1 0 1 0 -1 0 0 3005.DAT
0 STEP
1 86 170.0 -120 700.0 0 0 1 0 1 0 -1 0 0 3008.DAT
0 STEP
1 86 170.0 -168 660.0 0 0 1 0 1 0 -1 0 0 3010.DAT
0 STEP
1 86 170.0 -24 680.0 0 0 1 0 1 0 -1 0 0 3010.DAT
0 STEP
1 86 170.0 0 670.0 0 0 1 0 1 0 -1 0 0 3005.DAT
0 STEP
1 86 170.0 0 720.0 0 0 1 0 1 0 -1 0 0 3010.DAT
0 STEP
1 86 170.0 -168 780.0 0 0 1 0 1 0 -1 0 0 3008.DAT
0 STEP
1 86 170.0 -24 730.0 0 0 1 0 1 0 -1 0 0 3005.DAT
0 STEP
1 86 170.0 -72 760.0 0 0 1 0 1 0 -1 0 0 3010.DAT
0 STEP
1 86 170.0 -192 750.0 0 0 1 0 1 0 -1 0 0 3622.DAT
0 STEP
1 86 170.0 -24 770.0 0 0 1 0 1 0 -1 0 0 3005.DAT
0 STEP
1 86 170.0 -24 820.0 0 0 1 0 1 0 -1 0 0 3010.DAT
0 STEP
1 86 170.0 -120 790.0 0 0 1 0 1 0 -1 0 0 3005.DAT
0 STEP
1 86 170.0 -72 880.0 0 0 1 0 1 0 -1 0 0 3008.DAT
0 STEP
1 86 170.0 -120 880.0 0 0 1 0 1 0 -1 0 0 3008.DAT
0 STEP
1 86 170.0 -192 810.0 0 0 1 0 1 0 -1 0 0 3005.DAT
0 STEP
1 86 170.0 -48 860.0 0 0 1 0 1 0 -1 0 0 3010.DAT
0 STEP
1 86 170.0 -168 940.0 0 0 1 0 1 0 -1 0 0 3008.DAT
0 STEP
1 86 170.0 -192 880.0 0 0 1 0 1 0 -1 0 0 3004.DAT
0 STEP
1 86 170.0 -48 960.0 0 0 1 0 1 0 -1 0 0 3009.DAT
0 STEP
1 86 170.0 0 960.0 0 0 1 0 1 0 -1 0 0 3010.DAT
0 STEP
1 86 170.0 -192 930.0 0 0 1 0 1 0 -1 0 0 3005.DAT
0 STEP
1 86 170.0 -72 970.0 0 0 1 0 1 0 -1 0 0 3005.DAT
0 STEP
1 86 170.0 -120 990.0 0 0 1 0 1 0 -1 0 0 3622.DAT
0 STEP
1 86 170.0 -192 970.0 0 0 1 0 1 0 -1 0 0 3005.DAT
0 STEP
1 86 170.0 -72 1020.0 0 0 1 0 1 0 -1 0 0 3010.DAT
0 STEP
1 86 170.0 -192 1020.0 0 0 1 0 1 0 -1 0 0 3010.DAT
0 STEP
1 86 170.0 -24 1020.0 0 0 1 0 1 0 -1 0 0 3004.DAT
0 STEP
1 86 170.0 -48 1030.0 0 0 1 0 1 0 -1 0 0 3005.DAT
0 STEP
1 86 170.0 -24 1080.0 0 0 1 0 1 0 -1 0 0 3004.DAT
0 STEP
1 86 170.0 -48 1070.0 0 0 1 0 1 0 -1 0 0 3005.DAT
0 STEP
1 86 170.0 -72 1070.0 0 0 1 0 1 0 -1 0 0 3005.DAT
0 STEP
1 86 170.0 -96 1120.0 0 0 1 0 1 0 -1 0 0 3010.DAT
0 STEP
1 86 170.0 -144 1090.0 0 0 1 0 1 0 -1 0 0 3005.DAT
0 STEP
1 86 170.0 -72 1110.0 0 0 1 0 1 0 -1 0 0 3005.DAT
0 STEP
1 86 170.0 -48 1130.0 0 0 1 0 1 0 -1 0 0 3005.DAT
0 STEP
1 86 170.0 -72 1160.0 0 0 1 0 1 0 -1 0 0 3010.DAT
0 STEP
