1 86 10.0 0 10.0 0 0 1 0 1 0 -1 0 0 3005.DAT
0 STEP
1 86 50.0 0 310.0 0 0 1 0 1 0 -1 0 0 3005.DAT
0 STEP
1 86 10.0 0 330.0 0 0 1 0 1 0 -1 0 0 3005.DAT
0 STEP
1 86 10.0 -120 310.0 0 0 1 0 1 0 -1 0 0 3005.DAT
0 STEP
1 86 30.0 -192 290.0 0 0 1 0 1 0 -1 0 0 3005.DAT
0 STEP
1 86 50.0 -240 350.0 0 0 1 0 1 0 -1 0 0 3005.DAT
0 STEP
1 86 10.0 -288 370.0 0 0 1 0 1 0 -1 0 0 3005.DAT
0 STEP
1 86 30.0 -312 350.0 0 0 1 0 1 0 -1 0 0 3005.DAT
0 STEP
1 86 10.0 -312 390.0 0 0 1 0 1 0 -1 0 0 3005.DAT
0 STEP
1 86 50.0 -336 350.0 0 0 1 0 1 0 -1 0 0 3005.DAT
0 STEP
1 86 30.0 -336 390.0 0 0 1 0 1 0 -1 0 0 3005.DAT
0 STEP
1 86 20.0 -240 350.0 -1 0 0 0 1 0 0 0 -1 3004.DAT
0 STEP
1 86 10.0 -168 320.0 0 0 1 0 1 0 -1 0 0 3004.DAT
0 STEP
1 86 50.0 -96 320.0 0 0 1 0 1 0 -1 0 0 3004.DAT
0 STEP
1 86 40.0 -288 370.0 -1 0 0 0 1 0 0 0 -1 3004.DAT
0 STEP
1 86 10.0 -336 380.0 0 0 1 0 1 0 -1 0 0 3004.DAT
0 STEP
1 86 40.0 0 330.0 -1 0 0 0 1 0 0 0 -1 3004.DAT
0 STEP
1 86 10.0 -312 360.0 0 0 1 0 1 0 -1 0 0 3004.DAT
0 STEP
1 86 40.0 -120 310.0 -1 0 0 0 1 0 0 0 -1 3004.DAT
0 STEP
1 86 30.0 -312 260.0 0 0 1 0 1 0 -1 0 0 3004.DAT
0 STEP
1 86 50.0 -144 320.0 0 0 1 0 1 0 -1 0 0 3004.DAT
0 STEP
1 86 20.0 -120 330.0 -1 0 0 0 1 0 0 0 -1 3004.DAT
0 STEP
1 86 30.0 -312 380.0 0 0 1 0 1 0 -1 0 0 3004.DAT
0 STEP
1 86 20.0 -288 390.0 -1 0 0 0 1 0 0 0 -1 3004.DAT
0 STEP
1 86 50.0 -192 320.0 0 0 1 0 1 0 -1 0 0 3004.DAT
0 STEP
1 86 40.0 -336 370.0 -1 0 0 0 1 0 0 0 -1 3004.DAT
0 STEP
1 86 20.0 -192 320.0 0 0 1 0 1 0 -1 0 0 3003.DAT
0 STEP
1 86 10.0 -216 320.0 0 0 1 0 1 0 -1 0 0 3004.DAT
0 STEP
1 86 40.0 -264 370.0 -1 0 0 0 1 0 0 0 -1 3004.DAT
0 STEP
1 86 10.0 -264 360.0 0 0 1 0 1 0 -1 0 0 3004.DAT
0 STEP
1 86 20.0 -216 290.0 -1 0 0 0 1 0 0 0 -1 3004.DAT
0 STEP
1 86 20.0 -336 350.0 -1 0 0 0 1 0 0 0 -1 3004.DAT
0 STEP
1 86 50.0 -312 360.0 0 0 1 0 1 0 -1 0 0 3004.DAT
0 STEP
1 86 20.0 -288 340.0 0 0 1 0 1 0 -1 0 0 3003.DAT
0 STEP
1 86 50.0 -288 340.0 0 0 1 0 1 0 -1 0 0 3004.DAT
0 STEP
1 86 40.0 -216 320.0 0 0 1 0 1 0 -1 0 0 3003.DAT
0 STEP
1 86 40.0 -168 320.0 0 0 1 0 1 0 -1 0 0 3003.DAT
0 STEP
1 86 50.0 -360 360.0 0 0 1 0 1 0 -1 0 0 3004.DAT
0 STEP
1 86 20.0 -144 320.0 0 0 1 0 1 0 -1 0 0 3003.DAT
0 STEP
1 86 30.0 -264 250.0 0 0 1 0 1 0 -1 0 0 3005.DAT
0 STEP
1 86 30.0 -288 250.0 0 0 1 0 1 0 -1 0 0 3005.DAT
0 STEP
1 86 10.0 -264 330.0 0 0 1 0 1 0 -1 0 0 3005.DAT
0 STEP
1 86 20.0 -264 270.0 -1 0 0 0 1 0 0 0 -1 3004.DAT
0 STEP
1 86 10.0 -240 320.0 0 0 1 0 1 0 -1 0 0 3004.DAT
0 STEP
1 86 30.0 -288 280.0 0 0 1 0 1 0 -1 0 0 3004.DAT
0 STEP
1 86 40.0 -240 320.0 0 0 1 0 1 0 -1 0 0 3003.DAT
0 STEP
1 86 30.0 -240 280.0 0 0 1 0 1 0 -1 0 0 3004.DAT
0 STEP
1 86 10.0 -264 300.0 0 0 1 0 1 0 -1 0 0 3004.DAT
0 STEP
1 86 40.0 -264 320.0 0 0 1 0 1 0 -1 0 0 3001.DAT
0 STEP
1 86 10.0 -384 350.0 0 0 1 0 1 0 -1 0 0 3005.DAT
0 STEP
1 86 10.0 -360 370.0 0 0 1 0 1 0 -1 0 0 3005.DAT
0 STEP
1 86 30.0 -408 350.0 0 0 1 0 1 0 -1 0 0 3005.DAT
0 STEP
1 86 30.0 -384 310.0 0 0 1 0 1 0 -1 0 0 3005.DAT
0 STEP
1 86 30.0 -408 320.0 0 0 1 0 1 0 -1 0 0 3004.DAT
0 STEP
1 86 30.0 -384 340.0 0 0 1 0 1 0 -1 0 0 3004.DAT
0 STEP
1 86 20.0 -360 350.0 -1 0 0 0 1 0 0 0 -1 3004.DAT
0 STEP
1 86 30.0 -360 380.0 0 0 1 0 1 0 -1 0 0 3004.DAT
0 STEP
1 86 20.0 -384 370.0 -1 0 0 0 1 0 0 0 -1 3004.DAT
0 STEP
1 86 50.0 -72 310.0 0 0 1 0 1 0 -1 0 0 3005.DAT
0 STEP
1 86 10.0 -48 330.0 0 0 1 0 1 0 -1 0 0 3005.DAT
0 STEP
1 86 50.0 -24 310.0 0 0 1 0 1 0 -1 0 0 3005.DAT
0 STEP
1 86 10.0 -24 330.0 0 0 1 0 1 0 -1 0 0 3005.DAT
0 STEP
1 86 40.0 -72 330.0 -1 0 0 0 1 0 0 0 -1 3004.DAT
0 STEP
1 86 50.0 -48 300.0 0 0 1 0 1 0 -1 0 0 3004.DAT
0 STEP
1 86 40.0 -48 330.0 -1 0 0 0 1 0 0 0 -1 3004.DAT
0 STEP
1 86 30.0 -72 300.0 0 0 1 0 1 0 -1 0 0 3004.DAT
0 STEP
1 86 40.0 -24 330.0 -1 0 0 0 1 0 0 0 -1 3004.DAT
0 STEP
1 86 20.0 0 310.0 -1 0 0 0 1 0 0 0 -1 3004.DAT
0 STEP
1 86 20.0 -24 300.0 0 0 1 0 1 0 -1 0 0 3003.DAT
0 STEP
1 86 20.0 -96 320.0 0 0 1 0 1 0 -1 0 0 3003.DAT
0 STEP
1 86 20.0 -48 300.0 0 0 1 0 1 0 -1 0 0 3003.DAT
0 STEP
1 86 10.0 -72 320.0 0 0 1 0 1 0 -1 0 0 3004.DAT
0 STEP
