1 86 10.0 0 70.0 0 0 1 0 1 0 -1 0 0 3005.DAT
0 STEP
1 86 10.0 -24 70.0 0 0 1 0 1 0 -1 0 0 3005.DAT
0 STEP
1 86 10.0 -288 50.0 0 0 1 0 1 0 -1 0 0 3005.DAT
0 STEP
1 86 10.0 -312 90.0 0 0 1 0 1 0 -1 0 0 3005.DAT
0 STEP
1 86 10.0 -432 70.0 0 0 1 0 1 0 -1 0 0 3005.DAT
0 STEP
1 86 10.0 -456 70.0 0 0 1 0 1 0 -1 0 0 3005.DAT
0 STEP
1 86 10.0 -192 80.0 0 0 1 0 1 0 -1 0 0 3004.DAT
0 STEP
1 86 10.0 -288 80.0 0 0 1 0 1 0 -1 0 0 3004.DAT
0 STEP
1 86 10.0 -336 80.0 0 0 1 0 1 0 -1 0 0 3004.DAT
0 STEP
1 86 10.0 -216 80.0 0 0 1 0 1 0 -1 0 0 3004.DAT
0 STEP
1 86 10.0 -264 80.0 0 0 1 0 1 0 -1 0 0 3004.DAT
0 STEP
1 86 10.0 -240 80.0 0 0 1 0 1 0 -1 0 0 3004.DAT
0 STEP
1 86 10.0 -48 60.0 0 0 1 0 1 0 -1 0 0 3010.DAT
0 STEP
1 86 10.0 -312 60.0 0 0 1 0 1 0 -1 0 0 3004.DAT
0 STEP
1 86 10.0 -384 90.0 0 0 1 0 1 0 -1 0 0 3005.DAT
0 STEP
1 86 10.0 -408 70.0 0 0 1 0 1 0 -1 0 0 3005.DAT
0 STEP
1 86 10.0 -384 60.0 0 0 1 0 1 0 -1 0 0 3004.DAT
0 STEP
1 86 10.0 -360 80.0 0 0 1 0 1 0 -1 0 0 3004.DAT
0 STEP
1 86 10.0 -144 30.0 0 0 1 0 1 0 -1 0 0 3005.DAT
0 STEP
1 86 10.0 -168 30.0 0 0 1 0 1 0 -1 0 0 3005.DAT
0 STEP
1 86 10.0 -168 90.0 0 0 1 0 1 0 -1 0 0 3005.DAT
0 STEP
1 86 10.0 -168 60.0 0 0 1 0 1 0 -1 0 0 3004.DAT
0 STEP
1 86 10.0 -144 60.0 0 0 1 0 1 0 -1 0 0 3004.DAT
0 STEP
1 86 10.0 -120 80.0 0 0 1 0 1 0 -1 0 0 3008.DAT
0 STEP
1 86 10.0 -72 60.0 0 0 1 0 1 0 -1 0 0 3010.DAT
0 STEP
1 86 10.0 -96 80.0 0 0 1 0 1 0 -1 0 0 3009.DAT
0 STEP
