# File produced by Open Asset Import Library (http://www.assimp.sf.net)
# (assimp v3.2.202087883)

mtllib model_normalized.mtl

# 288 vertex positions
v -0.208977 0.072004 -0.241565
v -0.195990 -0.343593 -0.241565
v -0.208977 -0.343593 -0.241565
v -0.184177 -0.032689 -0.241565
v -0.208977 -0.343593 -0.225980
v -0.183761 -0.028603 -0.241565
v -0.184177 -0.032689 -0.225980
v -0.195990 -0.343593 -0.225980
v -0.208977 0.072004 -0.225980
v -0.182826 -0.024604 -0.241565
v -0.183761 -0.028603 -0.225980
v -0.183002 0.072004 -0.225980
v -0.181387 -0.020756 -0.241565
v -0.182826 -0.024604 -0.225980
v -0.183002 0.072004 -0.241565
v -0.182119 0.067852 -0.225980
v -0.179475 -0.017123 -0.241565
v -0.181387 -0.020756 -0.225980
v -0.182119 0.067852 -0.241565
v -0.180982 0.063760 -0.225980
v -0.177111 -0.013763 -0.241565
v -0.179475 -0.017123 -0.225980
v -0.208977 0.072004 0.225980
v -0.208977 -0.343593 0.241565
v -0.208977 0.072004 0.241565
v -0.183002 0.072004 0.241565
v -0.180982 0.063760 -0.241565
v -0.179595 0.059747 -0.225980
v -0.182119 0.067852 0.225980
v -0.183002 0.072004 0.225980
v -0.174342 -0.010731 -0.241565
v -0.177111 -0.013763 -0.225980
v -0.182119 0.067852 0.241565
v -0.208977 -0.343593 0.225980
v -0.184177 -0.032689 0.241565
v -0.179595 0.059747 -0.241565
v -0.177969 0.055826 -0.225980
v -0.180982 0.063760 0.225980
v -0.171205 -0.008078 -0.241565
v -0.174342 -0.010731 -0.225980
v -0.180982 0.063760 0.241565
v -0.195990 -0.343593 0.225980
v -0.195990 -0.343593 0.241565
v -0.183761 -0.028603 0.241565
v 0.211815 0.072004 -0.241565
v 0.183419 0.067789 -0.241565
v 0.184162 0.072004 -0.241565
v 0.211815 0.072004 -0.225980
v -0.177969 0.055826 -0.241565
v -0.176104 0.052011 -0.225980
v -0.179595 0.059747 0.225980
v -0.167760 -0.005845 -0.241565
v 0.184162 0.072004 0.225980
v 0.183419 0.067789 0.241565
v 0.184162 0.072004 0.241565
v 0.211815 0.072004 0.241565
v -0.179595 0.059747 0.241565
v -0.184177 -0.032689 0.225980
v -0.182826 -0.024604 0.241565
v 0.182391 0.063634 -0.241565
v 0.183419 0.067789 -0.225980
v 0.184162 0.072004 -0.225980
v 0.211815 -0.343593 -0.241565
v -0.176104 0.052011 -0.241565
v -0.174010 0.048318 -0.225980
v -0.177969 0.055826 0.225980
v -0.164056 -0.004069 -0.241565
v -0.171205 -0.008078 -0.225980
v 0.183419 0.067789 0.225980
v 0.211815 0.072004 0.225980
v -0.177969 0.055826 0.241565
v -0.183761 -0.028603 0.225980
v -0.181387 -0.020756 0.241565
v 0.181082 0.059559 -0.241565
v 0.182391 0.063634 -0.225980
v 0.211815 -0.343593 -0.225980
v 0.185601 -0.037401 -0.241565
v 0.211815 -0.343593 0.225980
v -0.174010 0.048318 -0.241565
v -0.171693 0.044759 -0.225980
v -0.176104 0.052011 0.225980
v -0.160155 -0.002780 -0.241565
v -0.167760 -0.005845 -0.225980
v 0.182391 0.063634 0.241565
v -0.176104 0.052011 0.241565
v -0.182826 -0.024604 0.225980
v -0.179475 -0.017123 0.241565
v 0.179497 0.055584 -0.241565
v 0.181082 0.059559 -0.225980
v 0.197986 -0.343593 -0.225980
v 0.197986 -0.343593 -0.241565
v 0.185113 -0.032689 -0.241565
v 0.211815 -0.343593 0.241565
v 0.185601 -0.037401 0.225980
v -0.171693 0.044759 -0.241565
v -0.169163 0.041349 -0.225980
v -0.174010 0.048318 0.225980
v -0.156124 -0.001997 -0.241565
v -0.164056 -0.004069 -0.225980
v 0.181082 0.059559 0.241565
v 0.182391 0.063634 0.225980
v -0.174010 0.048318 0.241565
v -0.181387 -0.020756 0.225980
v -0.177111 -0.013763 0.241565
v 0.177643 0.051725 -0.241565
v 0.179497 0.055584 -0.225980
v 0.185601 -0.037401 -0.225980
v 0.184022 -0.028079 -0.241565
v 0.197986 -0.343593 0.241565
v 0.197986 -0.343593 0.225980
v 0.185113 -0.032689 0.225980
v -0.169163 0.041349 -0.241565
v -0.166431 0.038099 -0.225980
v -0.171693 0.044759 0.225980
v -0.152025 -0.001735 -0.241565
v -0.160155 -0.002780 -0.225980
v 0.179497 0.055584 0.241565
v 0.181082 0.059559 0.225980
v -0.171693 0.044759 0.241565
v -0.179475 -0.017123 0.225980
v -0.174342 -0.010731 0.241565
v 0.175533 0.048003 -0.241565
v 0.177643 0.051725 -0.225980
v 0.185113 -0.032689 -0.225980
v 0.182360 -0.023645 -0.241565
v 0.185601 -0.037401 0.241565
v 0.184022 -0.028079 0.225980
v -0.166431 0.038099 -0.241565
v -0.163506 0.035023 -0.225980
v -0.169163 0.041349 0.225980
v -0.157121 0.029435 -0.241565
v -0.156124 -0.001997 -0.225980
v 0.177643 0.051725 0.241565
v 0.179497 0.055584 0.225980
v -0.169163 0.041349 0.241565
v -0.177111 -0.013763 0.225980
v -0.171205 -0.008078 0.241565
v 0.173170 0.044433 -0.241565
v 0.175533 0.048003 -0.225980
v 0.184022 -0.028079 -0.225980
v 0.180141 -0.019458 -0.241565
v 0.185113 -0.032689 0.241565
v 0.182360 -0.023645 0.225980
v -0.163506 0.035023 -0.241565
v -0.160399 0.032131 -0.225980
v -0.166431 0.038099 0.225980
v -0.160399 0.032131 -0.241565
v 0.148468 -0.001735 -0.241565
v -0.152025 -0.001735 -0.225980
v 0.175533 0.048003 0.241565
v 0.177643 0.051725 0.225980
v -0.166431 0.038099 0.241565
v -0.174342 -0.010731 0.225980
v -0.171205 -0.008078 0.225980
v -0.167760 -0.005845 0.241565
v 0.170572 0.041033 -0.241565
v 0.173170 0.044433 -0.225980
v 0.182360 -0.023645 -0.225980
v 0.177414 -0.015587 -0.241565
v 0.184022 -0.028079 0.241565
v 0.180141 -0.019458 0.225980
v -0.157121 0.029435 -0.225980
v -0.163506 0.035023 0.225980
v 0.158047 0.029435 -0.241565
v 0.173170 0.044433 0.241565
v 0.175533 0.048003 0.225980
v -0.163506 0.035023 0.241565
v -0.167760 -0.005845 0.225980
v -0.164056 -0.004069 0.241565
v 0.167746 0.037819 -0.241565
v 0.170572 0.041033 -0.225980
v 0.180141 -0.019458 -0.225980
v 0.174209 -0.012095 -0.241565
v 0.182360 -0.023645 0.241565
v 0.177414 -0.015587 0.225980
v -0.160399 0.032131 0.225980
v 0.158047 0.029435 -0.225980
v 0.161465 0.032006 -0.241565
v 0.148468 -0.001735 -0.225980
v -0.003797 0.006323 -0.225980
v 0.170572 0.041033 0.241565
v 0.173170 0.044433 0.225980
v -0.160399 0.032131 0.241565
v -0.164056 -0.004069 0.225980
v -0.160155 -0.002780 0.241565
v 0.164707 0.034805 -0.241565
v 0.167746 0.037819 -0.225980
v 0.177414 -0.015587 -0.225980
v 0.170593 -0.009039 -0.241565
v 0.180141 -0.019458 0.241565
v 0.174209 -0.012095 0.225980
v -0.157121 0.029435 0.225980
v -0.001781 0.021642 -0.225980
v 0.161465 0.032006 -0.225980
v 0.153195 -0.002037 -0.241565
v -0.001781 0.006057 -0.225980
v -0.005677 0.007101 -0.225980
v 0.167746 0.037819 0.241565
v 0.170572 0.041033 0.225980
v -0.157121 0.029435 0.241565
v -0.160155 -0.002780 0.225980
v -0.156124 -0.001997 0.241565
v 0.174209 -0.012095 -0.225980
v 0.170593 -0.009039 -0.225980
v 0.166614 -0.006467 -0.241565
v 0.177414 -0.015587 0.241565
v 0.170593 -0.009039 0.225980
v -0.152025 -0.001735 0.225980
v -0.003797 0.021376 -0.225980
v 0.000240 0.021376 -0.225980
v 0.164707 0.034805 -0.225980
v 0.153195 -0.002037 -0.225980
v 0.000240 0.006323 -0.225980
v -0.007288 0.008340 -0.225980
v 0.164707 0.034805 0.241565
v 0.167746 0.037819 0.225980
v -0.152025 -0.001735 0.241565
v -0.156124 -0.001997 0.225980
v 0.166614 -0.006467 -0.225980
v 0.162343 -0.004422 -0.241565
v 0.174209 -0.012095 0.241565
v 0.170593 -0.009039 0.241565
v 0.166614 -0.006467 0.225980
v -0.003797 0.006323 0.225980
v 0.158047 0.029435 0.241565
v -0.005677 0.020598 -0.225980
v 0.002115 0.020598 -0.225980
v 0.157845 -0.002938 -0.241565
v -0.008529 0.009954 -0.225980
v 0.161465 0.032006 0.241565
v 0.164707 0.034805 0.225980
v 0.162343 -0.004422 -0.225980
v 0.166614 -0.006467 0.241565
v 0.162343 -0.004422 0.225980
v -0.005677 0.007101 0.225980
v -0.001781 0.006057 0.225980
v 0.158047 0.029435 0.225980
v -0.007288 0.019360 -0.225980
v 0.003731 0.019360 -0.225980
v 0.002115 0.007101 -0.225980
v 0.157845 -0.002938 -0.225980
v -0.007288 0.008340 0.225980
v -0.009309 0.011833 -0.225980
v 0.148468 -0.001735 0.241565
v 0.161465 0.032006 0.225980
v 0.148468 -0.001735 0.225980
v 0.162343 -0.004422 0.241565
v 0.157845 -0.002938 0.225980
v -0.001781 0.021642 0.225980
v -0.008529 0.017746 -0.225980
v -0.003797 0.021376 0.225980
v 0.000240 0.021376 0.225980
v 0.004967 0.017746 -0.225980
v 0.002115 0.020598 0.225980
v 0.003731 0.008340 -0.225980
v 0.000240 0.006323 0.225980
v -0.008529 0.009954 0.225980
v -0.009574 0.013850 -0.225980
v 0.153195 -0.002037 0.241565
v 0.157845 -0.002938 0.241565
v 0.153195 -0.002037 0.225980
v -0.009309 0.015867 -0.225980
v -0.005677 0.020598 0.225980
v 0.005746 0.015867 -0.225980
v 0.003731 0.019360 0.225980
v 0.004967 0.009954 -0.225980
v -0.009309 0.011833 0.225980
v -0.007288 0.019360 0.225980
v 0.006011 0.013850 -0.225980
v 0.004967 0.017746 0.225980
v 0.005746 0.011833 -0.225980
v 0.002115 0.007101 0.225980
v -0.009574 0.013850 0.225980
v -0.008529 0.017746 0.225980
v -0.009309 0.015867 0.225980
v 0.005746 0.015867 0.225980
v 0.003731 0.008340 0.225980
v 0.006011 0.013850 0.225980
v 0.004967 0.009954 0.225980
v 0.005746 0.011833 0.225980
v -0.302487 0.072004 0.335075
v -0.302487 0.072004 -0.335075
v -0.302487 0.082394 -0.335075
v -0.302487 0.082394 0.335075
v 0.305325 0.072004 -0.335075
v 0.305325 0.082394 0.335075
v 0.305325 0.082394 -0.335075
v 0.305325 0.072004 0.335075

# 0 UV coordinates

# 134 vertex normals
vn 0 0 -1
vn 0 -1 0
vn -1 0 0
vn 0.999279 -0.037963 0
vn 0.986302 -0.16495 0
vn 0.994819 -0.101664 0
vn 0 0 1
vn 0 1 0
vn 0.957254 -0.28925 0
vn 0.912608 -0.408836 0
vn 0.97805 0.208371 0
vn 0.971222 0.238177 0
vn 0.853092 -0.521761 0
vn 0.954848 0.297095 0
vn 0.779675 -0.626184 0
vn 0.934904 0.354901 0
vn 0.693555 -0.720404 0
vn 0.911464 0.41138 0
vn 0.596133 -0.802885 0
vn -0.984866 0.173319 0
vn -0.978366 0.20688 0
vn 1 0 0
vn 0.884615 0.466321 0
vn 0.488999 -0.872285 0
vn -0.961946 0.273238 0
vn 0.854459 0.519519 0
vn 0.373896 -0.927471 0
vn -0.941031 0.33832 0
vn 0.821108 0.570773 0
vn 0.252701 -0.967544 0
vn -0.915719 0.40182 0
vn -0.999183 -0.040415 0
vn -0.994577 -0.104003 0
vn -0.985928 -0.167168 0
vn 0.784686 0.619893 0
vn 0.127388 -0.991853 0
vn -0.886127 0.463443 0
vn -0.95666 -0.291207 0
vn 0.74533 0.666696 0
vn 0.063824 -0.997961 0
vn -0.852394 0.5229 0
vn -0.911854 -0.410515 0
vn 0.703187 0.711005 0
vn -0.814678 0.579913 0
vn -0.852237 -0.523156 0
vn 0.658415 0.752655 0
vn 0.635094 0.772435 0
vn -0.773155 0.634217 0
vn -0.778778 -0.627299 0
vn -0.728019 0.685557 0
vn -0.692671 -0.721254 0
vn -0.600796 0.799402 0
vn -0.627768 0.7784 0
vn -0.127185 -0.991879 0
vn -0.063722 -0.997968 0
vn -0.679481 0.733693 0
vn -0.595312 -0.803494 0
vn -0.488285 -0.872684 0
vn -0.252305 -0.967648 0
vn -0.373327 -0.9277 0
vn -0.999279 0.037963 0
vn -0.986302 0.16495 0
vn -0.994819 0.101664 0
vn -0.957254 0.28925 0
vn -0.912608 0.408836 0
vn -0.97805 -0.208371 0
vn -0.971222 -0.238177 0
vn -0.853092 0.521761 0
vn -0.954848 -0.297095 0
vn -0.779675 0.626184 0
vn -0.934904 -0.354901 0
vn -0.693555 0.720404 0
vn -0.911464 -0.41138 0
vn -0.596133 0.802885 0
vn 0.984866 -0.173319 -0
vn 0.978366 -0.20688 -0
vn -0.884615 -0.466321 0
vn -0.488999 0.872285 0
vn 0.961946 -0.273238 -0
vn -0.854459 -0.519519 0
vn -0.373896 0.927471 0
vn 0.941031 -0.33832 -0
vn -0.821108 -0.570773 0
vn -0.252701 0.967544 0
vn 0.915719 -0.40182 -0
vn 0.999183 0.040415 0
vn 0.994577 0.104003 0
vn 0.985928 0.167168 0
vn -0.784686 -0.619893 0
vn -0.127388 0.991853 0
vn 0.886127 -0.463443 -0
vn 0.95666 0.291207 0
vn -0.74533 -0.666696 0
vn -0.063824 0.997961 0
vn 0.852394 -0.5229 -0
vn 0.911854 0.410515 0
vn -0.703187 -0.711005 0
vn 0.814678 -0.579913 -0
vn 0.852237 0.523156 0
vn -0.658415 -0.752655 0
vn -0.635094 -0.772435 0
vn 0.773155 -0.634217 -0
vn 0.778778 0.627299 0
vn 0.728019 -0.685557 -0
vn 0.692671 0.721254 0
vn 0.627768 -0.7784 -0
vn 0.600796 -0.799402 -0
vn 0.063722 0.997968 0
vn 0.127185 0.991879 0
vn 0.679481 -0.733693 -0
vn 0.595312 0.803494 0
vn 0.258819 0.965926 0
vn 0.5 0.866025 0
vn 0.488285 0.872684 0
vn 0.258819 -0.965926 -0
vn -0.258819 -0.965926 0
vn 0.252305 0.967648 0
vn -0.258819 0.965926 0
vn 0.707107 0.707107 0
vn 0.373327 0.9277 0
vn 0.5 -0.866025 -0
vn -0.5 -0.866025 0
vn 0.866025 0.5 0
vn 0.707107 -0.707107 -0
vn -0.707107 -0.707107 0
vn -0.5 0.866025 0
vn 0.965926 0.258819 0
vn 0.866025 -0.5 -0
vn -0.866025 -0.5 0
vn -0.707107 0.707107 0
vn 0.965926 -0.258819 -0
vn -0.965926 -0.258819 0
vn -0.866025 0.5 0
vn -0.965926 0.258819 0

# Mesh 'mesh1_mesh1-geometry' with 508 faces
g mesh1_mesh1-geometry
usemtl material_0_24
f  1//1 2//1 3//1
f  2//1 1//1 4//1
f  2//2 5//2 3//2
f  5//3 1//3 3//3
f  4//1 1//1 6//1
f  7//4 2//4 4//4
f  5//2 2//2 8//2
f  1//3 5//3 9//3
f  6//1 1//1 10//1
f  11//5 4//6 6//5
f  2//4 7//4 8//4
f  4//6 11//5 7//6
f  7//7 5//7 8//7
f  5//7 7//7 9//7
f  12//8 1//8 9//8
f  10//1 1//1 13//1
f  14//9 6//5 10//9
f  6//5 14//9 11//5
f  9//7 7//7 11//7
f  1//8 12//8 15//8
f  9//7 16//7 12//7
f  13//1 1//1 17//1
f  18//10 10//9 13//10
f  10//9 18//10 14//9
f  9//7 11//7 14//7
f  12//11 19//12 15//11
f  19//1 1//1 15//1
f  9//7 20//7 16//7
f  19//12 12//11 16//12
f  17//1 1//1 21//1
f  22//13 13//10 17//13
f  13//10 22//13 18//10
f  9//7 14//7 18//7
f  23//3 24//3 25//3
f  26//8 23//8 25//8
f  27//1 1//1 19//1
f  9//7 28//7 20//7
f  27//14 16//12 20//14
f  16//12 27//14 19//12
f  29//1 23//1 30//1
f  23//8 26//8 30//8
f  21//1 1//1 31//1
f  32//15 17//13 21//15
f  17//13 32//15 22//13
f  9//7 18//7 22//7
f  25//7 33//7 26//7
f  24//3 23//3 34//3
f  24//7 35//7 25//7
f  26//11 29//12 30//11
f  36//1 1//1 27//1
f  9//7 37//7 28//7
f  36//16 20//14 28//16
f  20//14 36//16 27//14
f  38//1 23//1 29//1
f  31//1 1//1 39//1
f  40//17 21//15 31//17
f  21//15 40//17 32//15
f  9//7 22//7 32//7
f  25//7 41//7 33//7
f  29//12 26//11 33//12
f  23//1 42//1 34//1
f  42//2 24//2 34//2
f  35//7 24//7 43//7
f  25//7 35//7 44//7
f  45//1 46//1 47//1
f  47//8 48//8 45//8
f  49//1 1//1 36//1
f  9//7 50//7 37//7
f  49//18 28//16 37//18
f  28//16 49//18 36//16
f  51//1 23//1 38//1
f  33//12 38//14 29//12
f  39//1 1//1 52//1
f  39//19 40//17 31//17
f  9//7 32//7 40//7
f  53//20 54//21 55//20
f  56//8 53//8 55//8
f  25//7 57//7 41//7
f  38//14 33//12 41//14
f  42//1 23//1 58//1
f  24//2 42//2 43//2
f  42//4 35//4 43//4
f  58//6 44//5 35//6
f  25//7 44//7 59//7
f  45//1 60//1 46//1
f  61//21 47//20 46//21
f  48//8 47//8 62//8
f  48//22 63//22 45//22
f  47//20 61//21 62//20
f  64//1 1//1 49//1
f  9//7 65//7 50//7
f  64//23 37//18 50//23
f  37//18 64//23 49//18
f  66//1 23//1 51//1
f  41//14 51//16 38//14
f  52//1 1//1 67//1
f  52//24 68//19 39//19
f  40//17 39//19 68//19
f  9//7 40//7 68//7
f  54//7 56//7 55//7
f  54//21 53//20 69//21
f  53//8 56//8 70//8
f  61//7 48//7 62//7
f  25//7 71//7 57//7
f  51//16 41//14 57//16
f  58//1 23//1 72//1
f  35//4 42//4 58//4
f  44//5 58//6 72//5
f  72//5 59//9 44//5
f  25//7 59//7 73//7
f  45//1 74//1 60//1
f  75//25 46//21 60//25
f  46//21 75//25 61//21
f  63//22 48//22 76//22
f  63//1 77//1 45//1
f  56//22 78//22 70//22
f  79//1 1//1 64//1
f  9//7 80//7 65//7
f  79//26 50//23 65//26
f  50//23 79//26 64//23
f  81//1 23//1 66//1
f  57//16 66//18 51//16
f  67//1 1//1 82//1
f  67//27 83//24 52//24
f  68//19 52//24 83//24
f  9//7 68//7 83//7
f  84//7 56//7 54//7
f  70//1 69//1 53//1
f  69//21 84//25 54//21
f  75//7 48//7 61//7
f  25//7 85//7 71//7
f  66//18 57//16 71//18
f  72//1 23//1 86//1
f  59//9 72//5 86//9
f  86//9 73//10 59//9
f  25//7 73//7 87//7
f  45//1 88//1 74//1
f  89//28 60//25 74//28
f  60//25 89//28 75//25
f  48//7 90//7 76//7
f  90//2 63//2 76//2
f  77//1 63//1 91//1
f  45//1 77//1 92//1
f  78//22 56//22 93//22
f  78//1 94//1 70//1
f  95//1 1//1 79//1
f  9//7 96//7 80//7
f  95//29 65//26 80//29
f  65//26 95//29 79//26
f  97//1 23//1 81//1
f  71//18 81//23 66//18
f  82//1 1//1 98//1
f  82//30 99//27 67//27
f  83//24 67//27 99//27
f  9//7 83//7 99//7
f  100//7 56//7 84//7
f  70//1 101//1 69//1
f  84//25 69//21 101//25
f  89//7 48//7 75//7
f  25//7 102//7 85//7
f  81//23 71//18 85//23
f  86//1 23//1 103//1
f  73//10 86//9 103//10
f  103//10 87//13 73//10
f  25//7 87//7 104//7
f  45//1 105//1 88//1
f  106//31 74//28 88//31
f  74//28 106//31 89//28
f  90//7 48//7 107//7
f  63//2 90//2 91//2
f  90//32 77//32 91//32
f  107//33 92//34 77//33
f  45//1 92//1 108//1
f  56//7 109//7 93//7
f  109//2 78//2 93//2
f  94//1 78//1 110//1
f  70//1 94//1 111//1
f  112//1 1//1 95//1
f  9//7 113//7 96//7
f  112//35 80//29 96//35
f  80//29 112//35 95//29
f  114//1 23//1 97//1
f  85//23 97//26 81//23
f  98//1 1//1 115//1
f  98//36 116//30 82//30
f  99//27 82//30 116//30
f  9//7 99//7 116//7
f  117//7 56//7 100//7
f  101//25 100//28 84//25
f  70//1 118//1 101//1
f  106//7 48//7 89//7
f  25//7 119//7 102//7
f  97//26 85//23 102//26
f  103//1 23//1 120//1
f  87//13 103//10 120//13
f  120//13 104//15 87//13
f  25//7 104//7 121//7
f  45//1 122//1 105//1
f  123//37 88//31 105//37
f  88//31 123//37 106//31
f  107//7 48//7 124//7
f  77//32 90//32 107//32
f  92//34 107//33 124//34
f  124//34 108//38 92//34
f  45//1 108//1 125//1
f  109//7 56//7 126//7
f  78//2 109//2 110//2
f  109//32 94//32 110//32
f  126//33 111//34 94//33
f  70//1 111//1 127//1
f  128//1 1//1 112//1
f  9//7 129//7 113//7
f  128//39 96//35 113//39
f  96//35 128//39 112//35
f  130//1 23//1 114//1
f  102//26 114//29 97//26
f  115//1 1//1 131//1
f  115//40 132//36 98//36
f  116//30 98//36 132//36
f  9//7 116//7 132//7
f  133//7 56//7 117//7
f  118//28 117//31 100//28
f  100//28 101//25 118//28
f  70//1 134//1 118//1
f  123//7 48//7 106//7
f  25//7 135//7 119//7
f  114//29 102//26 119//29
f  120//1 23//1 136//1
f  104//15 120//13 136//15
f  136//15 121//17 104//15
f  25//7 121//7 137//7
f  45//1 138//1 122//1
f  139//41 105//37 122//41
f  105//37 139//41 123//37
f  124//7 48//7 140//7
f  108//38 124//34 140//38
f  140//38 125//42 108//38
f  45//1 125//1 141//1
f  126//7 56//7 142//7
f  94//32 109//32 126//32
f  111//34 126//33 142//34
f  142//34 127//38 111//34
f  70//1 127//1 143//1
f  144//1 1//1 128//1
f  9//7 145//7 129//7
f  144//43 113//39 129//43
f  113//39 144//43 128//39
f  146//1 23//1 130//1
f  119//29 130//35 114//29
f  131//1 1//1 147//1
f  115//1 131//1 148//1
f  132//36 115//40 149//40
f  9//7 132//7 149//7
f  150//7 56//7 133//7
f  134//31 133//37 117//31
f  117//31 118//28 134//31
f  70//1 151//1 134//1
f  139//7 48//7 123//7
f  25//7 152//7 135//7
f  130//35 119//29 135//35
f  136//1 23//1 153//1
f  121//17 136//15 153//17
f  121//17 154//19 137//19
f  25//7 137//7 155//7
f  45//1 156//1 138//1
f  157//44 122//41 138//44
f  122//41 157//44 139//41
f  140//7 48//7 158//7
f  125//42 140//38 158//42
f  158//42 141//45 125//42
f  45//1 141//1 159//1
f  142//7 56//7 160//7
f  127//38 142//34 160//38
f  160//38 143//42 127//38
f  70//1 143//1 161//1
f  147//1 1//1 144//1
f  9//7 162//7 145//7
f  145//46 144//43 129//43
f  163//1 23//1 146//1
f  135//35 146//39 130//35
f  147//46 162//47 131//47
f  164//1 148//1 131//1
f  148//2 149//2 115//2
f  9//7 149//7 162//7
f  165//7 56//7 150//7
f  151//37 150//41 133//37
f  133//37 134//31 151//37
f  70//1 166//1 151//1
f  157//7 48//7 139//7
f  25//7 167//7 152//7
f  146//39 135//35 152//39
f  153//1 23//1 154//1
f  154//19 121//17 153//17
f  168//24 137//19 154//19
f  137//19 168//24 155//24
f  25//7 155//7 169//7
f  45//1 170//1 156//1
f  171//48 138//44 156//48
f  138//44 171//48 157//44
f  158//7 48//7 172//7
f  141//45 158//42 172//45
f  172//45 159//49 141//45
f  45//1 159//1 173//1
f  160//7 56//7 174//7
f  143//42 160//38 174//42
f  174//42 161//45 143//42
f  70//1 161//1 175//1
f  144//43 145//46 147//46
f  162//47 147//46 145//46
f  176//1 23//1 163//1
f  152//39 163//43 146//39
f  177//8 131//8 162//8
f  178//1 148//1 164//1
f  131//8 177//8 164//8
f  149//2 148//2 179//2
f  162//7 149//7 180//7
f  181//7 56//7 165//7
f  166//41 165//44 150//41
f  150//41 151//37 166//41
f  70//1 182//1 166//1
f  171//7 48//7 157//7
f  25//7 183//7 167//7
f  163//43 152//39 167//43
f  154//1 23//1 168//1
f  184//27 155//24 168//24
f  155//24 184//27 169//27
f  25//7 169//7 185//7
f  45//1 186//1 170//1
f  187//50 156//48 170//50
f  156//48 187//50 171//48
f  172//7 48//7 188//7
f  159//49 172//45 188//49
f  188//49 173//51 159//49
f  45//1 173//1 189//1
f  174//7 56//7 190//7
f  161//45 174//42 190//45
f  190//45 175//49 161//45
f  70//1 175//1 191//1
f  192//1 23//1 176//1
f  163//43 183//46 176//46
f  162//7 193//7 177//7
f  45//1 148//1 178//1
f  164//52 194//53 178//53
f  194//53 164//52 177//52
f  195//54 179//55 148//55
f  179//7 196//7 149//7
f  180//7 149//7 196//7
f  162//7 180//7 197//7
f  198//7 56//7 181//7
f  182//44 181//48 165//44
f  165//44 166//41 182//44
f  70//1 199//1 182//1
f  187//7 48//7 171//7
f  25//7 200//7 183//7
f  183//46 163//43 167//43
f  168//1 23//1 184//1
f  201//30 169//27 184//27
f  169//27 201//30 185//30
f  25//7 185//7 202//7
f  45//1 178//1 186//1
f  186//56 187//50 170//50
f  188//7 48//7 203//7
f  173//51 188//49 203//51
f  173//51 204//57 189//57
f  45//1 189//1 205//1
f  190//7 56//7 206//7
f  175//49 190//45 206//49
f  206//49 191//51 175//49
f  70//1 191//1 207//1
f  208//1 23//1 192//1
f  176//46 200//47 192//47
f  200//47 176//46 183//46
f  162//7 209//7 193//7
f  210//7 177//7 193//7
f  45//1 195//1 148//1
f  211//56 178//53 194//53
f  179//7 194//7 177//7
f  179//55 195//54 212//54
f  179//7 213//7 196//7
f  162//7 197//7 214//7
f  215//7 56//7 198//7
f  199//48 198//50 181//48
f  181//48 182//44 199//48
f  70//1 216//1 199//1
f  211//7 48//7 187//7
f  25//7 217//7 200//7
f  184//1 23//1 201//1
f  218//36 185//30 201//30
f  185//30 218//36 202//36
f  25//7 202//7 217//7
f  178//53 211//56 186//56
f  187//50 186//56 211//56
f  203//7 48//7 204//7
f  204//57 173//51 203//51
f  219//58 189//57 204//57
f  189//57 219//58 205//58
f  45//1 205//1 220//1
f  206//7 56//7 221//7
f  191//51 206//49 221//51
f  191//51 222//57 207//57
f  70//1 207//1 223//1
f  218//1 23//1 208//1
f  208//1 192//1 224//1
f  225//8 192//8 200//8
f  162//7 226//7 209//7
f  227//7 177//7 210//7
f  45//1 228//1 195//1
f  194//7 48//7 211//7
f  179//7 48//7 194//7
f  179//7 177//7 213//7
f  228//59 212//54 195//54
f  212//7 48//7 179//7
f  162//7 214//7 229//7
f  230//7 56//7 215//7
f  198//50 231//56 215//56
f  198//50 199//48 216//50
f  70//1 231//1 216//1
f  200//7 217//7 225//7
f  201//1 23//1 218//1
f  208//40 202//36 218//36
f  202//36 208//40 217//40
f  204//7 48//7 219//7
f  232//60 205//58 219//58
f  205//58 232//60 220//60
f  45//1 220//1 228//1
f  221//7 56//7 222//7
f  222//57 191//51 221//51
f  233//58 207//57 222//57
f  207//57 233//58 223//58
f  70//1 223//1 234//1
f  224//1 192//1 235//1
f  208//1 224//1 236//1
f  192//8 225//8 237//8
f  162//7 238//7 226//7
f  239//7 177//7 227//7
f  213//7 177//7 240//7
f  212//54 228//59 241//59
f  241//7 48//7 212//7
f  235//1 192//1 242//1
f  162//7 229//7 243//7
f  244//7 56//7 230//7
f  215//56 245//53 230//53
f  231//56 198//50 216//50
f  245//53 215//56 231//56
f  70//1 245//1 231//1
f  244//7 225//7 217//7
f  246//2 217//2 208//2
f  219//7 48//7 232//7
f  241//59 220//60 232//60
f  220//60 241//59 228//59
f  222//7 56//7 233//7
f  247//60 223//58 233//58
f  223//58 247//60 234//60
f  70//1 234//1 248//1
f  208//1 236//1 246//1
f  230//53 237//52 225//52
f  237//1 249//1 192//1
f  162//7 250//7 238//7
f  251//1 192//1 249//1
f  237//1 252//1 249//1
f  253//7 177//7 239//7
f  237//1 254//1 252//1
f  240//7 177//7 255//7
f  232//7 48//7 241//7
f  256//1 246//1 236//1
f  242//1 192//1 257//1
f  162//7 243//7 258//7
f  259//7 56//7 244//7
f  244//7 230//7 225//7
f  237//52 230//53 245//53
f  70//1 246//1 245//1
f  217//2 246//2 244//2
f  233//7 56//7 247//7
f  260//59 234//60 247//60
f  234//60 260//59 248//59
f  70//1 248//1 261//1
f  162//7 262//7 250//7
f  263//1 192//1 251//1
f  264//7 177//7 253//7
f  237//1 265//1 254//1
f  255//7 177//7 266//7
f  237//1 246//1 256//1
f  257//1 192//1 267//1
f  162//7 258//7 262//7
f  260//7 56//7 259//7
f  244//55 261//54 259//54
f  245//1 246//1 237//1
f  70//1 261//1 246//1
f  261//54 244//55 246//55
f  247//7 56//7 260//7
f  259//54 248//59 260//59
f  248//59 259//54 261//54
f  268//1 192//1 263//1
f  269//7 177//7 264//7
f  237//1 270//1 265//1
f  266//7 177//7 271//7
f  237//1 256//1 272//1
f  267//1 192//1 273//1
f  274//1 192//1 268//1
f  275//1 192//1 274//1
f  271//7 177//7 269//7
f  237//1 276//1 270//1
f  237//1 272//1 277//1
f  273//1 192//1 275//1
f  237//1 278//1 276//1
f  237//1 277//1 279//1
f  237//1 279//1 280//1
f  237//1 280//1 278//1

# Mesh 'mesh1_mesh1-geometry' with 556 faces
g mesh1_mesh1-geometry
usemtl material_1_24
f  3//7 2//7 1//7
f  4//7 1//7 2//7
f  3//8 5//8 2//8
f  3//22 1//22 5//22
f  6//7 1//7 4//7
f  4//61 2//61 7//61
f  8//8 2//8 5//8
f  9//22 5//22 1//22
f  10//7 1//7 6//7
f  6//62 4//63 11//62
f  8//61 7//61 2//61
f  7//63 11//62 4//63
f  8//1 5//1 7//1
f  9//1 7//1 5//1
f  9//2 1//2 12//2
f  13//7 1//7 10//7
f  10//64 6//62 14//64
f  11//62 14//64 6//62
f  11//1 7//1 9//1
f  15//2 12//2 1//2
f  12//1 16//1 9//1
f  17//7 1//7 13//7
f  13//65 10//64 18//65
f  14//64 18//65 10//64
f  14//1 11//1 9//1
f  15//66 19//67 12//66
f  15//7 1//7 19//7
f  16//1 20//1 9//1
f  16//67 12//66 19//67
f  21//7 1//7 17//7
f  17//68 13//65 22//68
f  18//65 22//68 13//65
f  18//1 14//1 9//1
f  25//22 24//22 23//22
f  25//2 23//2 26//2
f  19//7 1//7 27//7
f  20//1 28//1 9//1
f  20//69 16//67 27//69
f  19//67 27//69 16//67
f  30//7 23//7 29//7
f  30//2 26//2 23//2
f  31//7 1//7 21//7
f  21//70 17//68 32//70
f  22//68 32//70 17//68
f  22//1 18//1 9//1
f  26//1 33//1 25//1
f  34//22 23//22 24//22
f  25//1 35//1 24//1
f  30//66 29//67 26//66
f  27//7 1//7 36//7
f  28//1 37//1 9//1
f  28//71 20//69 36//71
f  27//69 36//71 20//69
f  29//7 23//7 38//7
f  39//7 1//7 31//7
f  31//72 21//70 40//72
f  32//70 40//72 21//70
f  32//1 22//1 9//1
f  33//1 41//1 25//1
f  33//67 26//66 29//67
f  34//7 42//7 23//7
f  34//8 24//8 42//8
f  43//1 24//1 35//1
f  44//1 35//1 25//1
f  47//7 46//7 45//7
f  45//2 48//2 47//2
f  36//7 1//7 49//7
f  37//1 50//1 9//1
f  37//73 28//71 49//73
f  36//71 49//73 28//71
f  38//7 23//7 51//7
f  29//67 38//69 33//67
f  52//7 1//7 39//7
f  31//72 40//72 39//74
f  40//1 32//1 9//1
f  55//75 54//76 53//75
f  55//2 53//2 56//2
f  41//1 57//1 25//1
f  41//69 33//67 38//69
f  58//7 23//7 42//7
f  43//8 42//8 24//8
f  43//61 35//61 42//61
f  35//63 44//62 58//63
f  59//1 44//1 25//1
f  46//7 60//7 45//7
f  46//76 47//75 61//76
f  62//2 47//2 48//2
f  45//3 63//3 48//3
f  62//75 61//76 47//75
f  49//7 1//7 64//7
f  50//1 65//1 9//1
f  50//77 37//73 64//77
f  49//73 64//77 37//73
f  51//7 23//7 66//7
f  38//69 51//71 41//69
f  67//7 1//7 52//7
f  39//74 68//74 52//78
f  68//74 39//74 40//72
f  68//1 40//1 9//1
f  55//1 56//1 54//1
f  69//76 53//75 54//76
f  70//2 56//2 53//2
f  62//1 48//1 61//1
f  57//1 71//1 25//1
f  57//71 41//69 51//71
f  72//7 23//7 58//7
f  58//61 42//61 35//61
f  72//62 58//63 44//62
f  44//62 59//64 72//62
f  73//1 59//1 25//1
f  60//7 74//7 45//7
f  60//79 46//76 75//79
f  61//76 75//79 46//76
f  76//3 48//3 63//3
f  45//7 77//7 63//7
f  70//3 78//3 56//3
f  64//7 1//7 79//7
f  65//1 80//1 9//1
f  65//80 50//77 79//80
f  64//77 79//80 50//77
f  66//7 23//7 81//7
f  51//71 66//73 57//71
f  82//7 1//7 67//7
f  52//78 83//78 67//81
f  83//78 52//78 68//74
f  83//1 68//1 9//1
f  54//1 56//1 84//1
f  53//7 69//7 70//7
f  54//76 84//79 69//76
f  61//1 48//1 75//1
f  71//1 85//1 25//1
f  71//73 57//71 66//73
f  86//7 23//7 72//7
f  86//64 72//62 59//64
f  59//64 73//65 86//64
f  87//1 73//1 25//1
f  74//7 88//7 45//7
f  74//82 60//79 89//82
f  75//79 89//82 60//79
f  76//1 90//1 48//1
f  76//8 63//8 90//8
f  91//7 63//7 77//7
f  92//7 77//7 45//7
f  93//3 56//3 78//3
f  70//7 94//7 78//7
f  79//7 1//7 95//7
f  80//1 96//1 9//1
f  80//83 65//80 95//83
f  79//80 95//83 65//80
f  81//7 23//7 97//7
f  66//73 81//77 71//73
f  98//7 1//7 82//7
f  67//81 99//81 82//84
f  99//81 67//81 83//78
f  99//1 83//1 9//1
f  84//1 56//1 100//1
f  69//7 101//7 70//7
f  101//79 69//76 84//79
f  75//1 48//1 89//1
f  85//1 102//1 25//1
f  85//77 71//73 81//77
f  103//7 23//7 86//7
f  103//65 86//64 73//65
f  73//65 87//68 103//65
f  104//1 87//1 25//1
f  88//7 105//7 45//7
f  88//85 74//82 106//85
f  89//82 106//85 74//82
f  107//1 48//1 90//1
f  91//8 90//8 63//8
f  91//86 77//86 90//86
f  77//87 92//88 107//87
f  108//7 92//7 45//7
f  93//1 109//1 56//1
f  93//8 78//8 109//8
f  110//7 78//7 94//7
f  111//7 94//7 70//7
f  95//7 1//7 112//7
f  96//1 113//1 9//1
f  96//89 80//83 112//89
f  95//83 112//89 80//83
f  97//7 23//7 114//7
f  81//77 97//80 85//77
f  115//7 1//7 98//7
f  82//84 116//84 98//90
f  116//84 82//84 99//81
f  116//1 99//1 9//1
f  100//1 56//1 117//1
f  84//79 100//82 101//79
f  101//7 118//7 70//7
f  89//1 48//1 106//1
f  102//1 119//1 25//1
f  102//80 85//77 97//80
f  120//7 23//7 103//7
f  120//68 103//65 87//68
f  87//68 104//70 120//68
f  121//1 104//1 25//1
f  105//7 122//7 45//7
f  105//91 88//85 123//91
f  106//85 123//91 88//85
f  124//1 48//1 107//1
f  107//86 90//86 77//86
f  124//88 107//87 92//88
f  92//88 108//92 124//88
f  125//7 108//7 45//7
f  126//1 56//1 109//1
f  110//8 109//8 78//8
f  110//86 94//86 109//86
f  94//87 111//88 126//87
f  127//7 111//7 70//7
f  112//7 1//7 128//7
f  113//1 129//1 9//1
f  113//93 96//89 128//93
f  112//89 128//93 96//89
f  114//7 23//7 130//7
f  97//80 114//83 102//80
f  131//7 1//7 115//7
f  98//90 132//90 115//94
f  132//90 98//90 116//84
f  132//1 116//1 9//1
f  117//1 56//1 133//1
f  100//82 117//85 118//82
f  118//82 101//79 100//82
f  118//7 134//7 70//7
f  106//1 48//1 123//1
f  119//1 135//1 25//1
f  119//83 102//80 114//83
f  136//7 23//7 120//7
f  136//70 120//68 104//70
f  104//70 121//72 136//70
f  137//1 121//1 25//1
f  122//7 138//7 45//7
f  122//95 105//91 139//95
f  123//91 139//95 105//91
f  140//1 48//1 124//1
f  140//92 124//88 108//92
f  108//92 125//96 140//92
f  141//7 125//7 45//7
f  142//1 56//1 126//1
f  126//86 109//86 94//86
f  142//88 126//87 111//88
f  111//88 127//92 142//88
f  143//7 127//7 70//7
f  128//7 1//7 144//7
f  129//1 145//1 9//1
f  129//97 113//93 144//97
f  128//93 144//97 113//93
f  130//7 23//7 146//7
f  114//83 130//89 119//83
f  147//7 1//7 131//7
f  148//7 131//7 115//7
f  149//94 115//94 132//90
f  149//1 132//1 9//1
f  133//1 56//1 150//1
f  117//85 133//91 134//85
f  134//85 118//82 117//85
f  134//7 151//7 70//7
f  123//1 48//1 139//1
f  135//1 152//1 25//1
f  135//89 119//83 130//89
f  153//7 23//7 136//7
f  153//72 136//70 121//72
f  137//74 154//74 121//72
f  155//1 137//1 25//1
f  138//7 156//7 45//7
f  138//98 122//95 157//98
f  139//95 157//98 122//95
f  158//1 48//1 140//1
f  158//96 140//92 125//96
f  125//96 141//99 158//96
f  159//7 141//7 45//7
f  160//1 56//1 142//1
f  160//92 142//88 127//92
f  127//92 143//96 160//92
f  161//7 143//7 70//7
f  144//7 1//7 147//7
f  145//1 162//1 9//1
f  129//97 144//97 145//100
f  146//7 23//7 163//7
f  130//89 146//93 135//89
f  131//101 162//101 147//100
f  131//7 148//7 164//7
f  115//8 149//8 148//8
f  162//1 149//1 9//1
f  150//1 56//1 165//1
f  133//91 150//95 151//91
f  151//91 134//85 133//91
f  151//7 166//7 70//7
f  139//1 48//1 157//1
f  152//1 167//1 25//1
f  152//93 135//89 146//93
f  154//7 23//7 153//7
f  153//72 121//72 154//74
f  154//74 137//74 168//78
f  155//78 168//78 137//74
f  169//1 155//1 25//1
f  156//7 170//7 45//7
f  156//102 138//98 171//102
f  157//98 171//102 138//98
f  172//1 48//1 158//1
f  172//99 158//96 141//99
f  141//99 159//103 172//99
f  173//7 159//7 45//7
f  174//1 56//1 160//1
f  174//96 160//92 143//96
f  143//96 161//99 174//96
f  175//7 161//7 70//7
f  147//100 145//100 144//97
f  145//100 147//100 162//101
f  163//7 23//7 176//7
f  146//93 163//97 152//93
f  162//2 131//2 177//2
f  164//7 148//7 178//7
f  164//2 177//2 131//2
f  179//8 148//8 149//8
f  180//1 149//1 162//1
f  165//1 56//1 181//1
f  150//95 165//98 166//95
f  166//95 151//91 150//95
f  166//7 182//7 70//7
f  157//1 48//1 171//1
f  167//1 183//1 25//1
f  167//97 152//93 163//97
f  168//7 23//7 154//7
f  168//78 155//78 184//81
f  169//81 184//81 155//78
f  185//1 169//1 25//1
f  170//7 186//7 45//7
f  170//104 156//102 187//104
f  171//102 187//104 156//102
f  188//1 48//1 172//1
f  188//103 172//99 159//103
f  159//103 173//105 188//103
f  189//7 173//7 45//7
f  190//1 56//1 174//1
f  190//99 174//96 161//99
f  161//99 175//103 190//99
f  191//7 175//7 70//7
f  176//7 23//7 192//7
f  176//100 183//100 163//97
f  177//1 193//1 162//1
f  178//7 148//7 45//7
f  178//106 194//106 164//107
f  177//107 164//107 194//106
f  148//108 179//108 195//109
f  149//1 196//1 179//1
f  196//1 149//1 180//1
f  197//1 180//1 162//1
f  181//1 56//1 198//1
f  165//98 181//102 182//98
f  182//98 166//95 165//98
f  182//7 199//7 70//7
f  171//1 48//1 187//1
f  183//1 200//1 25//1
f  167//97 163//97 183//100
f  184//7 23//7 168//7
f  184//81 169//81 201//84
f  185//84 201//84 169//81
f  202//1 185//1 25//1
f  186//7 178//7 45//7
f  170//104 187//104 186//110
f  203//1 48//1 188//1
f  203//105 188//103 173//105
f  189//111 204//111 173//105
f  205//7 189//7 45//7
f  206//1 56//1 190//1
f  206//103 190//99 175//103
f  175//103 191//105 206//103
f  207//7 191//7 70//7
f  192//7 23//7 208//7
f  192//101 200//101 176//100
f  183//100 176//100 200//101
f  193//1 209//1 162//1
f  193//1 177//1 210//1
f  148//7 195//7 45//7
f  194//106 178//106 211//110
f  177//1 194//1 179//1
f  212//109 195//109 179//108
f  196//1 213//1 179//1
f  180//112 224//112 196//8
f  197//113 235//113 180//112
f  214//1 197//1 162//1
f  198//1 56//1 215//1
f  181//102 198//104 199//102
f  199//102 182//98 181//102
f  199//7 216//7 70//7
f  187//1 48//1 211//1
f  200//1 217//1 25//1
f  201//7 23//7 184//7
f  201//84 185//84 218//90
f  202//90 218//90 185//84
f  217//1 202//1 25//1
f  186//110 211//110 178//106
f  211//110 186//110 187//104
f  204//1 48//1 203//1
f  203//105 173//105 204//111
f  204//111 189//111 219//114
f  205//114 219//114 189//111
f  220//7 205//7 45//7
f  221//1 56//1 206//1
f  221//105 206//103 191//105
f  207//111 222//111 191//105
f  223//7 207//7 70//7
f  208//7 23//7 218//7
f  224//7 192//7 208//7
f  200//2 192//2 225//2
f  209//1 226//1 162//1
f  193//2 249//2 209//115
f  210//1 177//1 227//1
f  210//116 252//116 193//2
f  195//7 228//7 45//7
f  211//1 48//1 194//1
f  194//1 48//1 179//1
f  213//1 177//1 179//1
f  195//109 212//109 228//117
f  179//1 48//1 212//1
f  196//8 236//8 213//118
f  236//8 196//8 224//112
f  224//112 180//112 235//113
f  235//113 197//113 242//119
f  214//119 242//119 197//113
f  229//1 214//1 162//1
f  215//1 56//1 230//1
f  215//110 231//110 198//104
f  216//104 199//102 198//104
f  216//7 231//7 70//7
f  225//1 217//1 200//1
f  218//7 23//7 201//7
f  218//90 202//90 208//94
f  217//94 208//94 202//90
f  219//1 48//1 204//1
f  219//114 205//114 232//120
f  220//120 232//120 205//114
f  228//7 220//7 45//7
f  222//1 56//1 221//1
f  221//105 191//105 222//111
f  222//111 207//111 233//114
f  223//114 233//114 207//111
f  234//7 223//7 70//7
f  235//7 192//7 224//7
f  236//7 224//7 208//7
f  237//2 225//2 192//2
f  226//1 238//1 162//1
f  209//115 251//115 226//121
f  251//115 209//115 249//2
f  249//2 193//2 252//116
f  227//1 177//1 239//1
f  227//122 254//122 210//116
f  252//116 210//116 254//122
f  240//1 177//1 213//1
f  241//117 228//117 212//109
f  212//1 48//1 241//1
f  256//118 213//118 236//8
f  242//7 192//7 235//7
f  214//119 229//123 242//119
f  243//1 229//1 162//1
f  230//1 56//1 244//1
f  230//106 245//106 215//110
f  216//104 198//104 231//110
f  231//110 215//110 245//106
f  231//7 245//7 70//7
f  217//1 225//1 244//1
f  208//8 217//8 246//8
f  232//1 48//1 219//1
f  232//120 220//120 241//117
f  228//117 241//117 220//120
f  233//1 56//1 222//1
f  233//114 223//114 247//120
f  234//120 247//120 223//114
f  248//7 234//7 70//7
f  246//7 236//7 208//7
f  225//107 237//107 230//106
f  192//7 249//7 237//7
f  238//1 250//1 162//1
f  226//121 263//121 238//124
f  263//121 226//121 251//115
f  249//7 192//7 251//7
f  249//7 252//7 237//7
f  239//1 177//1 253//1
f  239//125 265//125 227//122
f  254//122 227//122 265//125
f  252//7 254//7 237//7
f  255//1 177//1 240//1
f  213//118 256//118 240//126
f  241//1 48//1 232//1
f  236//7 246//7 256//7
f  257//7 192//7 242//7
f  257//123 242//119 229//123
f  229//123 243//127 257//123
f  258//1 243//1 162//1
f  244//1 56//1 259//1
f  225//1 230//1 244//1
f  245//106 230//106 237//107
f  245//7 246//7 70//7
f  244//8 246//8 217//8
f  247//1 56//1 233//1
f  247//120 234//120 260//117
f  248//117 260//117 234//120
f  261//7 248//7 70//7
f  250//1 262//1 162//1
f  250//128 238//124 274//128
f  268//124 238//124 263//121
f  251//7 192//7 263//7
f  253//1 177//1 264//1
f  239//125 253//129 265//125
f  254//7 265//7 237//7
f  266//1 177//1 255//1
f  240//126 272//126 255//130
f  272//126 240//126 256//118
f  256//7 246//7 237//7
f  267//7 192//7 257//7
f  267//127 257//123 243//127
f  243//127 258//22 267//127
f  262//1 258//1 162//1
f  259//1 56//1 260//1
f  259//109 261//109 244//108
f  237//7 246//7 245//7
f  246//7 261//7 70//7
f  246//108 244//108 261//109
f  260//1 56//1 247//1
f  260//117 248//117 259//109
f  261//109 259//109 248//117
f  262//131 250//128 275//131
f  268//124 274//128 238//124
f  274//128 275//131 250//128
f  263//7 192//7 268//7
f  264//1 177//1 269//1
f  253//129 264//132 270//129
f  270//129 265//125 253//129
f  265//7 270//7 237//7
f  271//1 177//1 266//1
f  266//133 255//130 279//133
f  277//130 255//130 272//126
f  272//7 256//7 237//7
f  273//7 192//7 267//7
f  273//22 267//127 258//22
f  258//22 262//131 273//22
f  275//131 273//22 262//131
f  268//7 192//7 274//7
f  274//7 192//7 275//7
f  269//1 177//1 271//1
f  264//132 269//3 276//132
f  276//132 270//129 264//132
f  270//7 276//7 237//7
f  271//134 266//133 280//134
f  277//130 279//133 255//130
f  279//133 280//134 266//133
f  277//7 272//7 237//7
f  275//7 192//7 273//7
f  269//3 271//134 278//3
f  278//3 276//132 269//3
f  276//7 278//7 237//7
f  280//134 278//3 271//134
f  279//7 277//7 237//7
f  280//7 279//7 237//7
f  278//7 280//7 237//7

# Mesh 'mesh1_mesh1-geometry' with 72 faces
g mesh1_mesh1-geometry
usemtl material_3_24
f  9//2 281//2 1//2
f  1//8 281//8 9//8
f  23//2 281//2 9//2
f  9//8 281//8 23//8
f  282//2 1//2 281//2
f  281//8 1//8 282//8
f  12//2 23//2 9//2
f  9//8 23//8 12//8
f  25//2 281//2 23//2
f  23//8 281//8 25//8
f  282//2 15//2 1//2
f  1//8 15//8 282//8
f  281//3 283//3 282//3
f  282//22 283//22 281//22
f  15//2 30//2 12//2
f  12//8 30//8 15//8
f  23//2 12//2 30//2
f  30//8 12//8 23//8
f  26//2 281//2 25//2
f  25//8 281//8 26//8
f  282//2 47//2 15//2
f  15//8 47//8 282//8
f  283//3 281//3 284//3
f  284//22 281//22 283//22
f  283//1 285//1 282//1
f  282//7 285//7 283//7
f  15//2 26//2 30//2
f  30//8 26//8 15//8
f  53//2 281//2 26//2
f  26//8 281//8 53//8
f  282//2 45//2 47//2
f  47//8 45//8 282//8
f  15//2 47//2 26//2
f  26//8 47//8 15//8
f  281//7 286//7 284//7
f  284//1 286//1 281//1
f  286//8 283//8 284//8
f  284//2 283//2 286//2
f  285//1 283//1 287//1
f  287//7 283//7 285//7
f  285//2 45//2 282//2
f  282//8 45//8 285//8
f  55//2 281//2 53//2
f  53//8 281//8 55//8
f  53//2 26//2 62//2
f  62//8 26//8 53//8
f  62//2 26//2 47//2
f  47//8 26//8 62//8
f  286//7 281//7 288//7
f  288//1 281//1 286//1
f  283//8 286//8 287//8
f  287//2 286//2 283//2
f  286//22 285//22 287//22
f  287//3 285//3 286//3
f  45//2 285//2 56//2
f  56//8 285//8 45//8
f  56//2 281//2 55//2
f  55//8 281//8 56//8
f  48//2 53//2 62//2
f  62//8 53//8 48//8
f  45//2 70//2 48//2
f  48//8 70//8 45//8
f  56//2 288//2 281//2
f  281//8 288//8 56//8
f  285//22 286//22 288//22
f  288//3 286//3 285//3
f  288//2 56//2 285//2
f  285//8 56//8 288//8
f  45//2 56//2 70//2
f  70//8 56//8 45//8
f  53//2 48//2 70//2
f  70//8 48//8 53//8

# Mesh 'mesh1_mesh1-geometry' with 48 faces
g mesh1_mesh1-geometry
usemtl material_2_24
f  196//2 224//116 180//116
f  180//116 235//122 197//122
f  209//118 249//8 193//8
f  193//8 252//112 210//112
f  213//115 236//2 196//2
f  224//116 196//2 236//2
f  235//122 180//116 224//116
f  242//125 197//122 235//122
f  197//122 242//125 214//125
f  226//126 251//118 209//118
f  249//8 209//118 251//118
f  252//112 193//8 249//8
f  210//112 254//113 227//113
f  254//113 210//112 252//112
f  236//2 213//115 256//115
f  242//125 229//129 214//125
f  238//130 263//126 226//126
f  251//118 226//126 263//126
f  227//113 265//119 239//119
f  265//119 227//113 254//113
f  240//121 256//115 213//115
f  229//129 242//125 257//129
f  257//129 243//132 229//129
f  274//133 238//130 250//133
f  263//126 238//130 268//130
f  265//119 253//123 239//119
f  255//124 272//121 240//121
f  256//115 240//121 272//121
f  243//132 257//129 267//132
f  267//132 258//3 243//132
f  275//134 250//133 262//134
f  238//130 274//133 268//130
f  250//133 275//134 274//133
f  270//123 264//127 253//123
f  253//123 265//119 270//123
f  279//128 255//124 266//128
f  272//121 255//124 277//124
f  258//3 267//132 273//3
f  273//3 262//134 258//3
f  262//134 273//3 275//134
f  276//127 269//22 264//127
f  264//127 270//123 276//127
f  280//131 266//128 271//131
f  255//124 279//128 277//124
f  266//128 280//131 279//128
f  278//22 271//131 269//22
f  269//22 276//127 278//22
f  271//131 278//22 280//131

