# Blender v2.72 (sub 0) OBJ File: 'lettere.blend'
# www.blender.org
mtllib c.mtl
o Text
v 0.393000 0.427000 -0.000000
v 0.382402 0.431601 -0.000000
v 0.372051 0.435894 -0.000000
v 0.361859 0.439859 -0.000000
v 0.351741 0.443482 -0.000000
v 0.341608 0.446743 -0.000000
v 0.331375 0.449625 -0.000000
v 0.320954 0.452112 -0.000000
v 0.310259 0.454185 -0.000000
v 0.299203 0.455828 -0.000000
v 0.287699 0.457023 -0.000000
v 0.275660 0.457753 -0.000000
v 0.263000 0.458000 -0.000000
v 0.230063 0.456065 -0.000000
v 0.199333 0.450352 -0.000000
v 0.170938 0.441000 -0.000000
v 0.145000 0.428148 -0.000000
v 0.121646 0.411935 -0.000000
v 0.101000 0.392500 -0.000000
v 0.083188 0.369981 -0.000000
v 0.068333 0.344519 -0.000000
v 0.056562 0.316250 -0.000000
v 0.048000 0.285315 -0.000000
v 0.042771 0.251852 -0.000000
v 0.041000 0.216000 -0.000000
v 0.042927 0.183844 -0.000000
v 0.048583 0.153500 -0.000000
v 0.057781 0.125156 -0.000000
v 0.070333 0.099000 -0.000000
v 0.086052 0.075219 -0.000000
v 0.104750 0.054000 -0.000000
v 0.126240 0.035531 -0.000000
v 0.150333 0.020000 -0.000000
v 0.176844 0.007594 -0.000000
v 0.205583 -0.001500 0.000000
v 0.236365 -0.007094 0.000000
v 0.269000 -0.009000 0.000000
v 0.280937 -0.008756 0.000000
v 0.293162 -0.008046 0.000000
v 0.305547 -0.006906 0.000000
v 0.317963 -0.005370 0.000000
v 0.330282 -0.003473 0.000000
v 0.342375 -0.001250 0.000000
v 0.354114 0.001265 -0.000000
v 0.365370 0.004037 -0.000000
v 0.376016 0.007031 -0.000000
v 0.385921 0.010213 -0.000000
v 0.394959 0.013547 -0.000000
v 0.403000 0.017000 -0.000000
v 0.403000 0.105000 -0.000000
v 0.391931 0.100208 -0.000000
v 0.381199 0.095833 -0.000000
v 0.370766 0.091875 -0.000000
v 0.360593 0.088333 -0.000000
v 0.350642 0.085208 -0.000000
v 0.340875 0.082500 -0.000000
v 0.331254 0.080208 -0.000000
v 0.321741 0.078333 -0.000000
v 0.312297 0.076875 -0.000000
v 0.302884 0.075833 -0.000000
v 0.293465 0.075208 -0.000000
v 0.284000 0.075000 -0.000000
v 0.261683 0.076156 -0.000000
v 0.240796 0.079579 -0.000000
v 0.221437 0.085203 -0.000000
v 0.203704 0.092963 -0.000000
v 0.187692 0.102792 -0.000000
v 0.173500 0.114625 -0.000000
v 0.161225 0.128395 -0.000000
v 0.150963 0.144037 -0.000000
v 0.142812 0.161484 -0.000000
v 0.136870 0.180671 -0.000000
v 0.133234 0.201532 -0.000000
v 0.132000 0.224000 -0.000000
v 0.133149 0.246107 -0.000000
v 0.136523 0.266856 -0.000000
v 0.142016 0.286141 -0.000000
v 0.149519 0.303852 -0.000000
v 0.158924 0.319883 -0.000000
v 0.170125 0.334125 -0.000000
v 0.183013 0.346472 -0.000000
v 0.197482 0.356815 -0.000000
v 0.213422 0.365047 -0.000000
v 0.230727 0.371060 -0.000000
v 0.249289 0.374747 -0.000000
v 0.269000 0.376000 -0.000000
v 0.278659 0.375784 -0.000000
v 0.288185 0.375102 -0.000000
v 0.297656 0.373906 -0.000000
v 0.307148 0.372148 -0.000000
v 0.316737 0.369779 -0.000000
v 0.326500 0.366750 -0.000000
v 0.336513 0.363013 -0.000000
v 0.346852 0.358519 -0.000000
v 0.357594 0.353219 -0.000000
v 0.368815 0.347065 -0.000000
v 0.380591 0.340008 -0.000000
v 0.393000 0.332000 -0.000000
v 0.393000 0.427000 -0.160000
v 0.382402 0.431601 -0.159995
v 0.372051 0.435894 -0.160000
v 0.361859 0.439859 -0.160000
v 0.351741 0.443482 -0.160000
v 0.341608 0.446743 -0.160000
v 0.331375 0.449625 -0.160000
v 0.320954 0.452112 -0.160000
v 0.310259 0.454185 -0.159995
v 0.299203 0.455828 -0.160000
v 0.287699 0.457023 -0.160000
v 0.275660 0.457753 -0.159995
v 0.263000 0.458000 -0.160000
v 0.230063 0.456065 -0.160000
v 0.199333 0.450352 -0.160000
v 0.170938 0.441000 -0.160000
v 0.145000 0.428148 -0.160000
v 0.121646 0.411935 -0.159995
v 0.101000 0.392500 -0.160000
v 0.083188 0.369981 -0.160000
v 0.068333 0.344519 -0.160000
v 0.056562 0.316250 -0.159995
v 0.048000 0.285315 -0.160000
v 0.042771 0.251852 -0.160000
v 0.041000 0.216000 -0.159995
v 0.042927 0.183844 -0.159995
v 0.048583 0.153500 -0.160000
v 0.057781 0.125156 -0.160000
v 0.070333 0.099000 -0.160000
v 0.086052 0.075219 -0.160000
v 0.104750 0.054000 -0.160000
v 0.126240 0.035531 -0.159995
v 0.150333 0.020000 -0.160000
v 0.176844 0.007594 -0.160000
v 0.205583 -0.001500 -0.160000
v 0.236365 -0.007094 -0.160000
v 0.269000 -0.009000 -0.160000
v 0.280937 -0.008756 -0.159995
v 0.293162 -0.008046 -0.160000
v 0.305547 -0.006906 -0.160000
v 0.317963 -0.005370 -0.159995
v 0.330282 -0.003473 -0.160000
v 0.342375 -0.001250 -0.160000
v 0.354114 0.001265 -0.159995
v 0.365370 0.004037 -0.159995
v 0.376016 0.007031 -0.160000
v 0.385921 0.010213 -0.160000
v 0.394959 0.013547 -0.160000
v 0.403000 0.017000 -0.160000
v 0.403000 0.105000 -0.160000
v 0.391931 0.100208 -0.159995
v 0.381199 0.095833 -0.160000
v 0.370766 0.091875 -0.160000
v 0.360593 0.088333 -0.160000
v 0.350642 0.085208 -0.160000
v 0.340875 0.082500 -0.160000
v 0.331254 0.080208 -0.160000
v 0.321741 0.078333 -0.160000
v 0.312297 0.076875 -0.160000
v 0.302884 0.075833 -0.160000
v 0.293465 0.075208 -0.160000
v 0.284000 0.075000 -0.160000
v 0.261683 0.076156 -0.160000
v 0.240796 0.079579 -0.160000
v 0.221437 0.085203 -0.160000
v 0.203704 0.092963 -0.160000
v 0.187692 0.102792 -0.159995
v 0.173500 0.114625 -0.160000
v 0.161225 0.128395 -0.160000
v 0.150963 0.144037 -0.160000
v 0.142812 0.161484 -0.160000
v 0.136870 0.180671 -0.160000
v 0.133234 0.201532 -0.159995
v 0.132000 0.224000 -0.160000
v 0.133149 0.246107 -0.160000
v 0.136523 0.266856 -0.160000
v 0.142016 0.286141 -0.160000
v 0.149519 0.303852 -0.159995
v 0.158924 0.319883 -0.159995
v 0.170125 0.334125 -0.160000
v 0.183013 0.346472 -0.160000
v 0.197482 0.356815 -0.159995
v 0.213422 0.365047 -0.160000
v 0.230727 0.371060 -0.159995
v 0.249289 0.374747 -0.160000
v 0.269000 0.376000 -0.159995
v 0.278659 0.375784 -0.160000
v 0.288185 0.375102 -0.160000
v 0.297656 0.373906 -0.159995
v 0.307148 0.372148 -0.160000
v 0.316737 0.369779 -0.159995
v 0.326500 0.366750 -0.159995
v 0.336513 0.363013 -0.160000
v 0.346852 0.358519 -0.160000
v 0.357594 0.353219 -0.160000
v 0.368815 0.347065 -0.160000
v 0.380591 0.340008 -0.160000
v 0.393000 0.332000 -0.160000
usemtl Material.001
s off
f 14 12 13
f 14 11 12
f 14 10 11
f 15 10 14
f 15 9 10
f 15 8 9
f 15 7 8
f 16 7 15
f 16 6 7
f 16 5 6
f 16 4 5
f 17 4 16
f 17 3 4
f 17 2 3
f 17 1 2
f 18 1 17
f 18 90 1
f 90 91 1
f 91 92 1
f 92 93 1
f 93 94 1
f 94 95 1
f 95 96 1
f 96 97 1
f 97 98 1
f 19 88 18
f 88 89 18
f 89 90 18
f 20 86 19
f 86 87 19
f 87 88 19
f 20 85 86
f 20 84 85
f 20 83 84
f 21 83 20
f 21 82 83
f 21 81 82
f 21 80 81
f 22 80 21
f 22 79 80
f 22 78 79
f 23 78 22
f 23 77 78
f 23 76 77
f 24 76 23
f 24 75 76
f 25 75 24
f 25 74 75
f 25 73 74
f 26 73 25
f 26 72 73
f 27 72 26
f 27 71 72
f 27 70 71
f 28 70 27
f 28 69 70
f 28 68 69
f 29 68 28
f 29 67 68
f 51 49 50
f 29 66 67
f 52 49 51
f 30 66 29
f 53 49 52
f 30 65 66
f 54 49 53
f 55 49 54
f 56 49 55
f 30 64 65
f 57 49 56
f 58 49 57
f 30 63 64
f 59 49 58
f 60 49 59
f 30 62 63
f 61 49 60
f 31 62 30
f 62 49 61
f 31 49 62
f 32 49 31
f 33 49 32
f 34 49 33
f 34 48 49
f 34 47 48
f 34 46 47
f 35 46 34
f 35 45 46
f 35 44 45
f 35 43 44
f 35 42 43
f 36 42 35
f 36 41 42
f 36 40 41
f 36 39 40
f 37 39 36
f 37 38 39
f 111 110 112
f 110 109 112
f 109 108 112
f 112 108 113
f 108 107 113
f 107 106 113
f 106 105 113
f 113 105 114
f 105 104 114
f 104 103 114
f 103 102 114
f 114 102 115
f 102 101 115
f 101 100 115
f 100 99 115
f 115 99 116
f 99 188 116
f 99 189 188
f 99 190 189
f 99 191 190
f 99 192 191
f 99 193 192
f 99 194 193
f 99 195 194
f 99 196 195
f 116 186 117
f 116 187 186
f 116 188 187
f 117 184 118
f 117 185 184
f 117 186 185
f 184 183 118
f 183 182 118
f 182 181 118
f 118 181 119
f 181 180 119
f 180 179 119
f 179 178 119
f 119 178 120
f 178 177 120
f 177 176 120
f 120 176 121
f 176 175 121
f 175 174 121
f 121 174 122
f 174 173 122
f 122 173 123
f 173 172 123
f 172 171 123
f 123 171 124
f 171 170 124
f 124 170 125
f 170 169 125
f 169 168 125
f 125 168 126
f 168 167 126
f 167 166 126
f 126 166 127
f 166 165 127
f 148 147 149
f 165 164 127
f 149 147 150
f 127 164 128
f 150 147 151
f 164 163 128
f 151 147 152
f 152 147 153
f 153 147 154
f 163 162 128
f 154 147 155
f 155 147 156
f 162 161 128
f 156 147 157
f 157 147 158
f 161 160 128
f 158 147 159
f 128 160 129
f 159 147 160
f 160 147 129
f 129 147 130
f 130 147 131
f 131 147 132
f 147 146 132
f 146 145 132
f 145 144 132
f 132 144 133
f 144 143 133
f 143 142 133
f 142 141 133
f 141 140 133
f 133 140 134
f 140 139 134
f 139 138 134
f 138 137 134
f 134 137 135
f 137 136 135
f 27 26 124 125
f 14 13 111 112
f 64 63 161 162
f 68 67 165 166
f 53 52 150 151
f 16 15 113 114
f 38 37 135 136
f 31 30 128 129
f 51 50 148 149
f 22 21 119 120
f 40 39 137 138
f 92 91 189 190
f 79 78 176 177
f 45 44 142 143
f 24 23 121 122
f 82 81 179 180
f 73 72 170 171
f 6 5 103 104
f 43 42 140 141
f 36 35 133 134
f 33 32 130 131
f 61 60 158 159
f 75 74 172 173
f 8 7 105 106
f 66 65 163 164
f 87 86 184 185
f 20 19 117 118
f 59 58 156 157
f 77 76 174 175
f 47 46 144 145
f 13 12 110 111
f 71 70 168 169
f 4 3 101 102
f 34 33 131 132
f 90 89 187 188
f 11 10 108 109
f 63 62 160 161
f 85 84 182 183
f 18 17 115 116
f 96 95 193 194
f 49 48 146 147
f 28 27 125 126
f 54 53 151 152
f 97 96 194 195
f 94 93 191 192
f 15 14 112 113
f 69 68 166 167
f 2 1 99 100
f 39 38 136 137
f 56 55 153 154
f 76 75 173 174
f 65 64 162 163
f 23 22 120 121
f 26 25 123 124
f 52 51 149 150
f 17 16 114 115
f 41 40 138 139
f 7 6 104 105
f 30 29 127 128
f 81 80 178 179
f 44 43 141 142
f 25 24 122 123
f 37 36 134 135
f 32 31 129 130
f 83 82 180 181
f 50 49 147 148
f 74 73 171 172
f 35 34 132 133
f 60 59 157 158
f 80 79 177 178
f 9 8 106 107
f 67 66 164 165
f 21 20 118 119
f 95 94 192 193
f 12 11 109 110
f 78 77 175 176
f 42 41 139 140
f 19 18 116 117
f 55 54 152 153
f 89 88 186 187
f 5 4 102 103
f 88 87 185 186
f 1 98 196 99
f 91 90 188 189
f 58 57 155 156
f 3 2 100 101
f 46 45 143 144
f 86 85 183 184
f 98 97 195 196
f 93 92 190 191
f 10 9 107 108
f 72 71 169 170
f 48 47 145 146
f 29 28 126 127
f 84 83 181 182
f 57 56 154 155
f 62 61 159 160
f 70 69 167 168
