1 86 40.0 0 10.0 -1 0 0 0 1 0 0 0 -1 3010.DAT
0 STEP
1 86 10.0 -24 40.0 0 0 1 0 1 0 -1 0 0 3010.DAT
0 STEP
1 86 40.0 -48 10.0 -1 0 0 0 1 0 0 0 -1 3010.DAT
0 STEP
1 86 20.0 -72 80.0 0 0 1 0 1 0 -1 0 0 3007.DAT
0 STEP
1 86 30.0 -96 10.0 -1 0 0 0 1 0 0 0 -1 3622.DAT
0 STEP
1 86 10.0 -120 30.0 0 0 1 0 1 0 -1 0 0 3622.DAT
0 STEP
1 86 60.0 -144 10.0 -1 0 0 0 1 0 0 0 -1 3009.DAT
0 STEP
1 86 20.0 -168 40.0 0 0 1 0 1 0 -1 0 0 3001.DAT
0 STEP
1 86 10.0 -192 20.0 0 0 1 0 1 0 -1 0 0 3004.DAT
0 STEP
1 86 10.0 -216 40.0 0 0 1 0 1 0 -1 0 0 3010.DAT
0 STEP
1 86 40.0 -240 20.0 -1 0 0 0 1 0 0 0 -1 3001.DAT
0 STEP
1 86 10.0 -264 10.0 0 0 1 0 1 0 -1 0 0 3005.DAT
0 STEP
1 86 80.0 -288 10.0 -1 0 0 0 1 0 0 0 -1 3008.DAT
0 STEP
1 86 20.0 -312 60.0 0 0 1 0 1 0 -1 0 0 2456.DAT
0 STEP
1 86 10.0 -336 10.0 0 0 1 0 1 0 -1 0 0 3005.DAT
0 STEP
1 86 30.0 -360 10.0 -1 0 0 0 1 0 0 0 -1 3622.DAT
0 STEP
1 86 40.0 -384 20.0 -1 0 0 0 1 0 0 0 -1 3001.DAT
0 STEP
1 86 10.0 -408 10.0 0 0 1 0 1 0 -1 0 0 3005.DAT
0 STEP
1 86 30.0 -432 20.0 -1 0 0 0 1 0 0 0 -1 3002.DAT
0 STEP
1 86 10.0 -456 40.0 0 0 1 0 1 0 -1 0 0 3010.DAT
0 STEP
1 86 10.0 0 30.0 0 0 1 0 1 0 -1 0 0 3005.DAT
0 STEP
1 86 40.0 -48 40.0 -1 0 0 0 1 0 0 0 -1 3001.DAT
0 STEP
1 86 30.0 -96 40.0 -1 0 0 0 1 0 0 0 -1 3002.DAT
0 STEP
1 86 10.0 -144 40.0 0 0 1 0 1 0 -1 0 0 3004.DAT
0 STEP
1 86 10.0 -264 60.0 0 0 1 0 1 0 -1 0 0 3010.DAT
0 STEP
1 86 20.0 -288 60.0 0 0 1 0 1 0 -1 0 0 3001.DAT
0 STEP
1 86 10.0 -336 60.0 0 0 1 0 1 0 -1 0 0 3010.DAT
0 STEP
1 86 10.0 -360 30.0 0 0 1 0 1 0 -1 0 0 3005.DAT
0 STEP
1 86 20.0 -408 60.0 0 0 1 0 1 0 -1 0 0 3001.DAT
0 STEP
1 86 40.0 0 60.0 -1 0 0 0 1 0 0 0 -1 3001.DAT
0 STEP
1 86 20.0 -192 80.0 0 0 1 0 1 0 -1 0 0 3001.DAT
0 STEP
1 86 40.0 -240 50.0 -1 0 0 0 1 0 0 0 -1 3010.DAT
0 STEP
1 86 10.0 -360 80.0 0 0 1 0 1 0 -1 0 0 3010.DAT
0 STEP
1 86 40.0 -384 50.0 -1 0 0 0 1 0 0 0 -1 3010.DAT
0 STEP
1 86 10.0 -432 80.0 0 0 1 0 1 0 -1 0 0 3010.DAT
0 STEP
1 86 40.0 -48 80.0 -1 0 0 0 1 0 0 0 -1 3001.DAT
0 STEP
1 86 10.0 -96 120.0 0 0 1 0 1 0 -1 0 0 3009.DAT
0 STEP
1 86 30.0 -120 80.0 -1 0 0 0 1 0 0 0 -1 3002.DAT
0 STEP
1 86 20.0 -144 120.0 0 0 1 0 1 0 -1 0 0 2456.DAT
0 STEP
1 86 10.0 -240 100.0 0 0 1 0 1 0 -1 0 0 3010.DAT
0 STEP
1 86 20.0 -384 90.0 0 0 1 0 1 0 -1 0 0 3002.DAT
0 STEP
1 86 40.0 0 100.0 -1 0 0 0 1 0 0 0 -1 3001.DAT
0 STEP
1 86 10.0 -24 90.0 0 0 1 0 1 0 -1 0 0 3005.DAT
0 STEP
1 86 30.0 -168 90.0 -1 0 0 0 1 0 0 0 -1 3622.DAT
0 STEP
1 86 30.0 -216 90.0 -1 0 0 0 1 0 0 0 -1 3622.DAT
0 STEP
1 86 40.0 -456 90.0 -1 0 0 0 1 0 0 0 -1 3010.DAT
0 STEP
1 86 10.0 -24 140.0 0 0 1 0 1 0 -1 0 0 3010.DAT
0 STEP
1 86 40.0 -48 110.0 -1 0 0 0 1 0 0 0 -1 3010.DAT
0 STEP
1 86 30.0 -120 110.0 -1 0 0 0 1 0 0 0 -1 3622.DAT
0 STEP
1 86 30.0 -168 120.0 -1 0 0 0 1 0 0 0 -1 3002.DAT
0 STEP
1 86 60.0 -216 110.0 -1 0 0 0 1 0 0 0 -1 3009.DAT
0 STEP
1 86 10.0 -264 110.0 0 0 1 0 1 0 -1 0 0 3005.DAT
0 STEP
1 86 60.0 -288 110.0 -1 0 0 0 1 0 0 0 -1 3009.DAT
0 STEP
1 86 20.0 -336 110.0 -1 0 0 0 1 0 0 0 -1 3004.DAT
0 STEP
1 86 60.0 -408 110.0 -1 0 0 0 1 0 0 0 -1 3009.DAT
0 STEP
1 86 30.0 -456 110.0 -1 0 0 0 1 0 0 0 -1 3622.DAT
0 STEP
1 86 30.0 0 130.0 -1 0 0 0 1 0 0 0 -1 3622.DAT
0 STEP
1 86 30.0 -48 130.0 -1 0 0 0 1 0 0 0 -1 3622.DAT
0 STEP
1 86 30.0 -120 140.0 -1 0 0 0 1 0 0 0 -1 3002.DAT
0 STEP
1 86 20.0 -192 130.0 -1 0 0 0 1 0 0 0 -1 3004.DAT
0 STEP
1 86 10.0 -216 150.0 0 0 1 0 1 0 -1 0 0 3622.DAT
0 STEP
1 86 60.0 0 160.0 -1 0 0 0 1 0 0 0 -1 2456.DAT
0 STEP
1 86 40.0 -48 150.0 -1 0 0 0 1 0 0 0 -1 3010.DAT
0 STEP
1 86 10.0 -168 160.0 0 0 1 0 1 0 -1 0 0 3004.DAT
0 STEP
1 86 30.0 -192 160.0 -1 0 0 0 1 0 0 0 -1 3002.DAT
0 STEP
1 86 10.0 -240 150.0 0 0 1 0 1 0 -1 0 0 3005.DAT
0 STEP
1 86 10.0 -48 170.0 0 0 1 0 1 0 -1 0 0 3005.DAT
0 STEP
1 86 30.0 -72 170.0 -1 0 0 0 1 0 0 0 -1 3622.DAT
0 STEP
1 86 30.0 -120 170.0 -1 0 0 0 1 0 0 0 -1 3622.DAT
0 STEP
1 86 40.0 -240 170.0 -1 0 0 0 1 0 0 0 -1 3010.DAT
0 STEP
1 86 30.0 -24 10.0 0 0 1 0 1 0 -1 0 0 3005.DAT
0 STEP
1 86 40.0 -120 30.0 0 0 1 0 1 0 -1 0 0 3002.DAT
0 STEP
1 86 60.0 -192 20.0 -1 0 0 0 1 0 0 0 -1 3001.DAT
0 STEP
1 86 40.0 -216 40.0 0 0 1 0 1 0 -1 0 0 3001.DAT
0 STEP
1 86 100.0 -264 20.0 -1 0 0 0 1 0 0 0 -1 3007.DAT
0 STEP
1 86 30.0 -336 40.0 0 0 1 0 1 0 -1 0 0 3010.DAT
0 STEP
1 86 80.0 -408 10.0 -1 0 0 0 1 0 0 0 -1 3009.DAT
0 STEP
1 86 60.0 -456 10.0 -1 0 0 0 1 0 0 0 -1 3010.DAT
0 STEP
1 86 60.0 0 30.0 -1 0 0 0 1 0 0 0 -1 3010.DAT
0 STEP
1 86 30.0 -24 100.0 0 0 1 0 1 0 -1 0 0 3008.DAT
0 STEP
1 86 60.0 -144 40.0 -1 0 0 0 1 0 0 0 -1 3001.DAT
0 STEP
1 86 80.0 -360 30.0 -1 0 0 0 1 0 0 0 -1 3009.DAT
0 STEP
1 86 30.0 -456 50.0 0 0 1 0 1 0 -1 0 0 3622.DAT
0 STEP
1 86 40.0 -264 60.0 0 0 1 0 1 0 -1 0 0 3003.DAT
0 STEP
1 86 30.0 -360 70.0 0 0 1 0 1 0 -1 0 0 3622.DAT
0 STEP
1 86 100.0 -432 50.0 -1 0 0 0 1 0 0 0 -1 3008.DAT
0 STEP
1 86 40.0 -96 90.0 0 0 1 0 1 0 -1 0 0 3002.DAT
0 STEP
1 86 30.0 -240 70.0 0 0 1 0 1 0 -1 0 0 3005.DAT
0 STEP
1 86 40.0 -432 90.0 0 0 1 0 1 0 -1 0 0 3002.DAT
0 STEP
1 86 30.0 -240 120.0 0 0 1 0 1 0 -1 0 0 3010.DAT
0 STEP
1 86 80.0 -264 100.0 -1 0 0 0 1 0 0 0 -1 2456.DAT
0 STEP
1 86 30.0 -336 90.0 0 0 1 0 1 0 -1 0 0 3005.DAT
0 STEP
1 86 60.0 -360 110.0 -1 0 0 0 1 0 0 0 -1 3010.DAT
0 STEP
1 86 30.0 -96 160.0 0 0 1 0 1 0 -1 0 0 3010.DAT
0 STEP
1 86 60.0 -216 130.0 -1 0 0 0 1 0 0 0 -1 3010.DAT
0 STEP
1 86 60.0 -168 150.0 -1 0 0 0 1 0 0 0 -1 3010.DAT
0 STEP
1 86 30.0 -216 160.0 0 0 1 0 1 0 -1 0 0 3004.DAT
0 STEP
1 86 60.0 -48 180.0 -1 0 0 0 1 0 0 0 -1 3001.DAT
0 STEP
1 86 60.0 -168 180.0 -1 0 0 0 1 0 0 0 -1 3001.DAT
0 STEP
1 86 40.0 -72 190.0 -1 0 0 0 1 0 0 0 -1 3004.DAT
0 STEP
1 86 40.0 -192 190.0 -1 0 0 0 1 0 0 0 -1 3004.DAT
0 STEP
1 86 60.0 -216 190.0 -1 0 0 0 1 0 0 0 -1 3010.DAT
0 STEP
1 86 50.0 -24 40.0 0 0 1 0 1 0 -1 0 0 3010.DAT
0 STEP
1 86 50.0 -72 80.0 0 0 1 0 1 0 -1 0 0 3008.DAT
0 STEP
1 86 50.0 -168 40.0 0 0 1 0 1 0 -1 0 0 3010.DAT
0 STEP
1 86 80.0 -312 10.0 -1 0 0 0 1 0 0 0 -1 3010.DAT
0 STEP
1 86 50.0 -336 60.0 0 0 1 0 1 0 -1 0 0 3009.DAT
0 STEP
1 86 60.0 -288 60.0 0 0 1 0 1 0 -1 0 0 3001.DAT
0 STEP
1 86 80.0 -312 40.0 -1 0 0 0 1 0 0 0 -1 3001.DAT
0 STEP
1 86 60.0 -408 50.0 0 0 1 0 1 0 -1 0 0 3002.DAT
0 STEP
1 86 60.0 -456 50.0 0 0 1 0 1 0 -1 0 0 3002.DAT
0 STEP
1 86 70.0 -192 50.0 -1 0 0 0 1 0 0 0 -1 3622.DAT
0 STEP
1 86 50.0 -360 60.0 0 0 1 0 1 0 -1 0 0 3004.DAT
0 STEP
1 86 50.0 -144 70.0 0 0 1 0 1 0 -1 0 0 3005.DAT
0 STEP
1 86 50.0 -192 100.0 0 0 1 0 1 0 -1 0 0 3010.DAT
0 STEP
1 86 50.0 -240 100.0 0 0 1 0 1 0 -1 0 0 3010.DAT
0 STEP
1 86 80.0 -312 70.0 -1 0 0 0 1 0 0 0 -1 3010.DAT
0 STEP
1 86 50.0 -384 90.0 0 0 1 0 1 0 -1 0 0 3622.DAT
0 STEP
1 86 50.0 -24 90.0 0 0 1 0 1 0 -1 0 0 3005.DAT
0 STEP
1 86 50.0 -144 120.0 0 0 1 0 1 0 -1 0 0 3010.DAT
0 STEP
1 86 50.0 -312 100.0 0 0 1 0 1 0 -1 0 0 3004.DAT
0 STEP
1 86 70.0 -360 90.0 -1 0 0 0 1 0 0 0 -1 3622.DAT
0 STEP
1 86 80.0 -408 90.0 -1 0 0 0 1 0 0 0 -1 3010.DAT
0 STEP
1 86 60.0 -24 140.0 0 0 1 0 1 0 -1 0 0 3001.DAT
0 STEP
1 86 50.0 -96 130.0 0 0 1 0 1 0 -1 0 0 3005.DAT
0 STEP
1 86 70.0 -96 150.0 -1 0 0 0 1 0 0 0 -1 3622.DAT
0 STEP
1 86 80.0 -216 160.0 -1 0 0 0 1 0 0 0 -1 3001.DAT
0 STEP
1 86 50.0 -240 150.0 0 0 1 0 1 0 -1 0 0 3005.DAT
0 STEP
1 86 80.0 -96 180.0 -1 0 0 0 1 0 0 0 -1 3001.DAT
0 STEP
1 86 50.0 -144 170.0 0 0 1 0 1 0 -1 0 0 3005.DAT
0 STEP
1 86 140.0 -24 20.0 -1 0 0 0 1 0 0 0 -1 3007.DAT
0 STEP
1 86 70.0 -72 10.0 0 0 1 0 1 0 -1 0 0 3005.DAT
0 STEP
1 86 80.0 -96 30.0 0 0 1 0 1 0 -1 0 0 3002.DAT
0 STEP
1 86 70.0 -120 30.0 0 0 1 0 1 0 -1 0 0 3622.DAT
0 STEP
1 86 70.0 -168 30.0 0 0 1 0 1 0 -1 0 0 3622.DAT
0 STEP
1 86 120.0 -216 10.0 -1 0 0 0 1 0 0 0 -1 3009.DAT
0 STEP
1 86 70.0 -336 10.0 0 0 1 0 1 0 -1 0 0 3005.DAT
0 STEP
1 86 100.0 -360 10.0 -1 0 0 0 1 0 0 0 -1 3010.DAT
0 STEP
1 86 120.0 -432 20.0 -1 0 0 0 1 0 0 0 -1 2456.DAT
0 STEP
1 86 120.0 -72 30.0 -1 0 0 0 1 0 0 0 -1 3009.DAT
0 STEP
1 86 100.0 -216 30.0 -1 0 0 0 1 0 0 0 -1 3010.DAT
0 STEP
1 86 70.0 -336 60.0 0 0 1 0 1 0 -1 0 0 3010.DAT
0 STEP
1 86 140.0 -24 50.0 -1 0 0 0 1 0 0 0 -1 3008.DAT
0 STEP
1 86 140.0 -72 50.0 -1 0 0 0 1 0 0 0 -1 3008.DAT
0 STEP
1 86 80.0 -216 50.0 -1 0 0 0 1 0 0 0 -1 3004.DAT
0 STEP
1 86 120.0 -264 50.0 -1 0 0 0 1 0 0 0 -1 3009.DAT
0 STEP
1 86 100.0 -360 60.0 -1 0 0 0 1 0 0 0 -1 3001.DAT
0 STEP
1 86 100.0 -24 80.0 -1 0 0 0 1 0 0 0 -1 3001.DAT
0 STEP
1 86 100.0 -264 70.0 -1 0 0 0 1 0 0 0 -1 3010.DAT
0 STEP
1 86 70.0 -384 80.0 0 0 1 0 1 0 -1 0 0 3004.DAT
0 STEP
1 86 80.0 -432 90.0 0 0 1 0 1 0 -1 0 0 3002.DAT
0 STEP
1 86 70.0 -240 120.0 0 0 1 0 1 0 -1 0 0 3010.DAT
0 STEP
1 86 100.0 -312 100.0 -1 0 0 0 1 0 0 0 -1 3001.DAT
0 STEP
1 86 70.0 -336 110.0 0 0 1 0 1 0 -1 0 0 3005.DAT
0 STEP
1 86 100.0 -384 110.0 -1 0 0 0 1 0 0 0 -1 3010.DAT
0 STEP
1 86 100.0 -456 110.0 -1 0 0 0 1 0 0 0 -1 3010.DAT
0 STEP
1 86 100.0 0 130.0 -1 0 0 0 1 0 0 0 -1 3010.DAT
0 STEP
1 86 100.0 -48 130.0 -1 0 0 0 1 0 0 0 -1 3010.DAT
0 STEP
1 86 80.0 -120 150.0 0 0 1 0 1 0 -1 0 0 3002.DAT
0 STEP
1 86 70.0 -144 130.0 0 0 1 0 1 0 -1 0 0 3005.DAT
0 STEP
1 86 70.0 -192 160.0 0 0 1 0 1 0 -1 0 0 3010.DAT
0 STEP
1 86 70.0 -72 170.0 0 0 1 0 1 0 -1 0 0 3622.DAT
0 STEP
1 86 100.0 -144 160.0 -1 0 0 0 1 0 0 0 -1 3001.DAT
0 STEP
1 86 90.0 0 10.0 0 0 1 0 1 0 -1 0 0 3005.DAT
0 STEP
1 86 100.0 -48 60.0 0 0 1 0 1 0 -1 0 0 2456.DAT
0 STEP
1 86 120.0 -72 10.0 -1 0 0 0 1 0 0 0 -1 3010.DAT
0 STEP
1 86 140.0 -120 10.0 -1 0 0 0 1 0 0 0 -1 3009.DAT
0 STEP
1 86 90.0 -168 10.0 0 0 1 0 1 0 -1 0 0 3005.DAT
0 STEP
1 86 100.0 -240 30.0 0 0 1 0 1 0 -1 0 0 3002.DAT
0 STEP
1 86 90.0 -336 60.0 0 0 1 0 1 0 -1 0 0 3009.DAT
0 STEP
1 86 90.0 -384 40.0 0 0 1 0 1 0 -1 0 0 3010.DAT
0 STEP
1 86 140.0 -120 40.0 -1 0 0 0 1 0 0 0 -1 2456.DAT
0 STEP
1 86 140.0 -168 30.0 -1 0 0 0 1 0 0 0 -1 3009.DAT
0 STEP
1 86 90.0 -288 60.0 0 0 1 0 1 0 -1 0 0 3010.DAT
0 STEP
1 86 160.0 -408 30.0 -1 0 0 0 1 0 0 0 -1 3008.DAT
0 STEP
1 86 100.0 -456 60.0 0 0 1 0 1 0 -1 0 0 3001.DAT
0 STEP
1 86 90.0 0 80.0 0 0 1 0 1 0 -1 0 0 3010.DAT
0 STEP
1 86 100.0 -168 80.0 0 0 1 0 1 0 -1 0 0 3001.DAT
0 STEP
1 86 100.0 -408 60.0 0 0 1 0 1 0 -1 0 0 3003.DAT
0 STEP
1 86 110.0 -72 80.0 -1 0 0 0 1 0 0 0 -1 3002.DAT
0 STEP
1 86 90.0 -96 100.0 0 0 1 0 1 0 -1 0 0 3010.DAT
0 STEP
1 86 110.0 -120 70.0 -1 0 0 0 1 0 0 0 -1 3622.DAT
0 STEP
1 86 90.0 -144 80.0 0 0 1 0 1 0 -1 0 0 3004.DAT
0 STEP
1 86 90.0 -192 100.0 0 0 1 0 1 0 -1 0 0 3010.DAT
0 STEP
1 86 100.0 -120 90.0 -1 0 0 0 1 0 0 0 -1 3004.DAT
0 STEP
1 86 100.0 -240 120.0 0 0 1 0 1 0 -1 0 0 3001.DAT
0 STEP
1 86 90.0 -384 90.0 0 0 1 0 1 0 -1 0 0 3005.DAT
0 STEP
1 86 100.0 -24 140.0 0 0 1 0 1 0 -1 0 0 3001.DAT
0 STEP
1 86 90.0 -72 140.0 0 0 1 0 1 0 -1 0 0 3010.DAT
0 STEP
1 86 90.0 -120 110.0 0 0 1 0 1 0 -1 0 0 3005.DAT
0 STEP
1 86 110.0 -144 120.0 -1 0 0 0 1 0 0 0 -1 3002.DAT
0 STEP
1 86 90.0 -168 130.0 0 0 1 0 1 0 -1 0 0 3005.DAT
0 STEP
1 86 110.0 -48 150.0 -1 0 0 0 1 0 0 0 -1 3622.DAT
0 STEP
1 86 110.0 -192 160.0 -1 0 0 0 1 0 0 0 -1 3002.DAT
0 STEP
1 86 90.0 -240 170.0 0 0 1 0 1 0 -1 0 0 3005.DAT
0 STEP
1 86 100.0 -72 190.0 -1 0 0 0 1 0 0 0 -1 3004.DAT
0 STEP
1 86 100.0 -192 190.0 -1 0 0 0 1 0 0 0 -1 3004.DAT
0 STEP
1 86 110.0 0 60.0 0 0 1 0 1 0 -1 0 0 3009.DAT
0 STEP
1 86 110.0 -96 80.0 0 0 1 0 1 0 -1 0 0 3008.DAT
0 STEP
1 86 140.0 -168 10.0 -1 0 0 0 1 0 0 0 -1 3010.DAT
0 STEP
1 86 120.0 -192 40.0 0 0 1 0 1 0 -1 0 0 3001.DAT
0 STEP
1 86 110.0 -336 10.0 0 0 1 0 1 0 -1 0 0 3005.DAT
0 STEP
1 86 110.0 -384 10.0 0 0 1 0 1 0 -1 0 0 3005.DAT
0 STEP
1 86 110.0 -456 10.0 0 0 1 0 1 0 -1 0 0 3005.DAT
0 STEP
1 86 120.0 -144 60.0 0 0 1 0 1 0 -1 0 0 3001.DAT
0 STEP
1 86 120.0 -288 60.0 0 0 1 0 1 0 -1 0 0 3001.DAT
0 STEP
1 86 110.0 -336 60.0 0 0 1 0 1 0 -1 0 0 3010.DAT
0 STEP
1 86 110.0 -384 60.0 0 0 1 0 1 0 -1 0 0 3010.DAT
0 STEP
1 86 120.0 -216 70.0 0 0 1 0 1 0 -1 0 0 3002.DAT
0 STEP
1 86 110.0 -240 70.0 0 0 1 0 1 0 -1 0 0 3005.DAT
0 STEP
1 86 120.0 -432 90.0 0 0 1 0 1 0 -1 0 0 3002.DAT
0 STEP
1 86 120.0 -192 110.0 0 0 1 0 1 0 -1 0 0 3002.DAT
0 STEP
1 86 120.0 -360 100.0 0 0 1 0 1 0 -1 0 0 3003.DAT
0 STEP
1 86 120.0 -72 140.0 0 0 1 0 1 0 -1 0 0 3001.DAT
0 STEP
1 86 110.0 -120 140.0 0 0 1 0 1 0 -1 0 0 3010.DAT
0 STEP
1 86 110.0 -336 110.0 0 0 1 0 1 0 -1 0 0 3005.DAT
0 STEP
1 86 110.0 -168 160.0 0 0 1 0 1 0 -1 0 0 3010.DAT
0 STEP
1 86 110.0 -216 130.0 0 0 1 0 1 0 -1 0 0 3005.DAT
0 STEP
1 86 110.0 -48 180.0 0 0 1 0 1 0 -1 0 0 3004.DAT
0 STEP
1 86 140.0 -240 170.0 -1 0 0 0 1 0 0 0 -1 3010.DAT
0 STEP
1 86 110.0 -216 190.0 0 0 1 0 1 0 -1 0 0 3005.DAT
0 STEP
1 86 140.0 0 20.0 0 0 1 0 1 0 -1 0 0 3003.DAT
0 STEP
1 86 130.0 -48 60.0 0 0 1 0 1 0 -1 0 0 3009.DAT
0 STEP
1 86 130.0 -96 60.0 0 0 1 0 1 0 -1 0 0 3009.DAT
0 STEP
1 86 130.0 -144 10.0 0 0 1 0 1 0 -1 0 0 3005.DAT
0 STEP
1 86 130.0 -240 10.0 0 0 1 0 1 0 -1 0 0 3005.DAT
0 STEP
1 86 140.0 -312 30.0 0 0 1 0 1 0 -1 0 0 3002.DAT
0 STEP
1 86 160.0 -336 20.0 -1 0 0 0 1 0 0 0 -1 3001.DAT
0 STEP
1 86 130.0 -384 40.0 0 0 1 0 1 0 -1 0 0 3010.DAT
0 STEP
1 86 130.0 -456 40.0 0 0 1 0 1 0 -1 0 0 3010.DAT
0 STEP
1 86 130.0 -240 80.0 0 0 1 0 1 0 -1 0 0 3009.DAT
0 STEP
1 86 130.0 0 80.0 0 0 1 0 1 0 -1 0 0 3010.DAT
0 STEP
1 86 160.0 -168 50.0 -1 0 0 0 1 0 0 0 -1 3010.DAT
0 STEP
1 86 160.0 -336 50.0 -1 0 0 0 1 0 0 0 -1 3010.DAT
0 STEP
1 86 130.0 -408 80.0 0 0 1 0 1 0 -1 0 0 3010.DAT
0 STEP
1 86 130.0 -168 120.0 0 0 1 0 1 0 -1 0 0 3009.DAT
0 STEP
1 86 130.0 -312 70.0 0 0 1 0 1 0 -1 0 0 3005.DAT
0 STEP
1 86 130.0 -336 90.0 0 0 1 0 1 0 -1 0 0 3622.DAT
0 STEP
1 86 130.0 -120 120.0 0 0 1 0 1 0 -1 0 0 3010.DAT
0 STEP
1 86 130.0 -384 90.0 0 0 1 0 1 0 -1 0 0 3005.DAT
0 STEP
1 86 130.0 -456 90.0 0 0 1 0 1 0 -1 0 0 3005.DAT
0 STEP
1 86 130.0 -24 140.0 0 0 1 0 1 0 -1 0 0 3010.DAT
0 STEP
1 86 130.0 -216 110.0 0 0 1 0 1 0 -1 0 0 3005.DAT
0 STEP
1 86 130.0 -288 110.0 0 0 1 0 1 0 -1 0 0 3005.DAT
0 STEP
1 86 130.0 -96 150.0 0 0 1 0 1 0 -1 0 0 3622.DAT
0 STEP
1 86 200.0 -216 140.0 -1 0 0 0 1 0 0 0 -1 3007.DAT
0 STEP
1 86 130.0 0 160.0 0 0 1 0 1 0 -1 0 0 3004.DAT
0 STEP
1 86 130.0 -240 150.0 0 0 1 0 1 0 -1 0 0 3005.DAT
0 STEP
1 86 130.0 -48 170.0 0 0 1 0 1 0 -1 0 0 3005.DAT
0 STEP
1 86 130.0 -120 170.0 0 0 1 0 1 0 -1 0 0 3005.DAT
0 STEP
1 86 180.0 -216 170.0 -1 0 0 0 1 0 0 0 -1 3009.DAT
0 STEP
1 86 160.0 -48 10.0 -1 0 0 0 1 0 0 0 -1 3004.DAT
0 STEP
1 86 160.0 -96 30.0 0 0 1 0 1 0 -1 0 0 3002.DAT
0 STEP
1 86 160.0 -144 30.0 0 0 1 0 1 0 -1 0 0 3002.DAT
0 STEP
1 86 150.0 -192 30.0 0 0 1 0 1 0 -1 0 0 3622.DAT
0 STEP
1 86 150.0 -240 40.0 0 0 1 0 1 0 -1 0 0 3010.DAT
0 STEP
1 86 150.0 -360 30.0 0 0 1 0 1 0 -1 0 0 3622.DAT
0 STEP
1 86 160.0 -384 30.0 0 0 1 0 1 0 -1 0 0 3002.DAT
0 STEP
1 86 150.0 -408 10.0 0 0 1 0 1 0 -1 0 0 3005.DAT
0 STEP
1 86 150.0 -456 30.0 0 0 1 0 1 0 -1 0 0 3622.DAT
0 STEP
1 86 170.0 -48 40.0 -1 0 0 0 1 0 0 0 -1 3002.DAT
0 STEP
1 86 170.0 -216 30.0 -1 0 0 0 1 0 0 0 -1 3622.DAT
0 STEP
1 86 180.0 -288 40.0 -1 0 0 0 1 0 0 0 -1 3001.DAT
0 STEP
1 86 150.0 0 50.0 0 0 1 0 1 0 -1 0 0 3005.DAT
0 STEP
1 86 160.0 -216 80.0 0 0 1 0 1 0 -1 0 0 3001.DAT
0 STEP
1 86 150.0 -408 50.0 0 0 1 0 1 0 -1 0 0 3005.DAT
0 STEP
1 86 150.0 -240 90.0 0 0 1 0 1 0 -1 0 0 3005.DAT
0 STEP
1 86 170.0 -240 110.0 -1 0 0 0 1 0 0 0 -1 3622.DAT
0 STEP
1 86 160.0 -240 140.0 0 0 1 0 1 0 -1 0 0 3003.DAT
0 STEP
1 86 180.0 0 30.0 0 0 1 0 1 0 -1 0 0 3002.DAT
0 STEP
1 86 170.0 -72 10.0 0 0 1 0 1 0 -1 0 0 3005.DAT
0 STEP
1 86 240.0 -192 10.0 -1 0 0 0 1 0 0 0 -1 3008.DAT
0 STEP
1 86 240.0 -240 10.0 -1 0 0 0 1 0 0 0 -1 3008.DAT
0 STEP
1 86 240.0 -288 10.0 -1 0 0 0 1 0 0 0 -1 3008.DAT
0 STEP
1 86 170.0 -312 30.0 0 0 1 0 1 0 -1 0 0 3622.DAT
0 STEP
1 86 200.0 -360 10.0 -1 0 0 0 1 0 0 0 -1 3010.DAT
0 STEP
1 86 200.0 -408 10.0 -1 0 0 0 1 0 0 0 -1 3010.DAT
0 STEP
1 86 200.0 -456 10.0 -1 0 0 0 1 0 0 0 -1 3010.DAT
0 STEP
1 86 170.0 -192 30.0 0 0 1 0 1 0 -1 0 0 3005.DAT
0 STEP
1 86 170.0 -240 30.0 0 0 1 0 1 0 -1 0 0 3005.DAT
0 STEP
1 86 200.0 -360 40.0 -1 0 0 0 1 0 0 0 -1 3001.DAT
0 STEP
1 86 200.0 -456 40.0 -1 0 0 0 1 0 0 0 -1 3001.DAT
0 STEP
1 86 240.0 -192 50.0 -1 0 0 0 1 0 0 0 -1 3008.DAT
0 STEP
1 86 240.0 -240 60.0 -1 0 0 0 1 0 0 0 -1 3007.DAT
0 STEP
1 86 200.0 -408 50.0 -1 0 0 0 1 0 0 0 -1 3010.DAT
0 STEP
1 86 200.0 -240 90.0 -1 0 0 0 1 0 0 0 -1 3010.DAT
0 STEP
1 86 260.0 -48 10.0 -1 0 0 0 1 0 0 0 -1 3008.DAT
0 STEP
1 86 200.0 -72 20.0 0 0 1 0 1 0 -1 0 0 3003.DAT
0 STEP
1 86 190.0 -96 30.0 0 0 1 0 1 0 -1 0 0 3622.DAT
0 STEP
1 86 240.0 -144 20.0 -1 0 0 0 1 0 0 0 -1 2456.DAT
0 STEP
1 86 190.0 -168 10.0 0 0 1 0 1 0 -1 0 0 3005.DAT
0 STEP
1 86 190.0 -216 10.0 0 0 1 0 1 0 -1 0 0 3005.DAT
0 STEP
1 86 200.0 -264 30.0 0 0 1 0 1 0 -1 0 0 3002.DAT
0 STEP
1 86 220.0 -312 10.0 -1 0 0 0 1 0 0 0 -1 3010.DAT
0 STEP
1 86 200.0 -384 30.0 0 0 1 0 1 0 -1 0 0 3002.DAT
0 STEP
1 86 190.0 -432 30.0 0 0 1 0 1 0 -1 0 0 3622.DAT
0 STEP
1 86 260.0 -192 30.0 -1 0 0 0 1 0 0 0 -1 3008.DAT
0 STEP
1 86 220.0 -240 30.0 -1 0 0 0 1 0 0 0 -1 3010.DAT
0 STEP
1 86 220.0 -312 40.0 -1 0 0 0 1 0 0 0 -1 3001.DAT
0 STEP
1 86 240.0 -144 50.0 -1 0 0 0 1 0 0 0 -1 3009.DAT
0 STEP
1 86 190.0 -216 80.0 0 0 1 0 1 0 -1 0 0 3010.DAT
0 STEP
1 86 190.0 -240 150.0 0 0 1 0 1 0 -1 0 0 3622.DAT
0 STEP
1 86 220.0 0 30.0 0 0 1 0 1 0 -1 0 0 3002.DAT
0 STEP
1 86 260.0 -96 10.0 -1 0 0 0 1 0 0 0 -1 3009.DAT
0 STEP
1 86 220.0 -120 30.0 0 0 1 0 1 0 -1 0 0 3002.DAT
0 STEP
1 86 210.0 -168 30.0 0 0 1 0 1 0 -1 0 0 3622.DAT
0 STEP
1 86 220.0 -216 60.0 0 0 1 0 1 0 -1 0 0 2456.DAT
0 STEP
1 86 210.0 -336 40.0 0 0 1 0 1 0 -1 0 0 3010.DAT
0 STEP
1 86 210.0 -432 20.0 0 0 1 0 1 0 -1 0 0 3004.DAT
0 STEP
1 86 210.0 -48 30.0 0 0 1 0 1 0 -1 0 0 3005.DAT
0 STEP
1 86 210.0 -96 30.0 0 0 1 0 1 0 -1 0 0 3005.DAT
0 STEP
1 86 280.0 -48 50.0 -1 0 0 0 1 0 0 0 -1 3008.DAT
0 STEP
1 86 280.0 -96 50.0 -1 0 0 0 1 0 0 0 -1 3008.DAT
0 STEP
1 86 240.0 -432 50.0 -1 0 0 0 1 0 0 0 -1 3010.DAT
0 STEP
1 86 210.0 -264 70.0 0 0 1 0 1 0 -1 0 0 3005.DAT
0 STEP
1 86 260.0 -288 70.0 -1 0 0 0 1 0 0 0 -1 3009.DAT
0 STEP
1 86 230.0 -312 70.0 -1 0 0 0 1 0 0 0 -1 3622.DAT
0 STEP
1 86 220.0 -360 70.0 -1 0 0 0 1 0 0 0 -1 3004.DAT
0 STEP
1 86 210.0 -240 140.0 0 0 1 0 1 0 -1 0 0 3010.DAT
0 STEP
1 86 230.0 -24 30.0 0 0 1 0 1 0 -1 0 0 3622.DAT
0 STEP
1 86 240.0 -72 30.0 0 0 1 0 1 0 -1 0 0 3002.DAT
0 STEP
1 86 240.0 -168 30.0 0 0 1 0 1 0 -1 0 0 3002.DAT
0 STEP
1 86 240.0 -264 40.0 0 0 1 0 1 0 -1 0 0 3001.DAT
0 STEP
1 86 260.0 -336 10.0 -1 0 0 0 1 0 0 0 -1 3010.DAT
0 STEP
1 86 260.0 -384 10.0 -1 0 0 0 1 0 0 0 -1 3010.DAT
0 STEP
1 86 280.0 -432 20.0 -1 0 0 0 1 0 0 0 -1 2456.DAT
0 STEP
1 86 280.0 -48 30.0 -1 0 0 0 1 0 0 0 -1 3009.DAT
0 STEP
1 86 300.0 -96 30.0 -1 0 0 0 1 0 0 0 -1 3008.DAT
0 STEP
1 86 230.0 -288 40.0 0 0 1 0 1 0 -1 0 0 3004.DAT
0 STEP
1 86 260.0 -336 40.0 -1 0 0 0 1 0 0 0 -1 3001.DAT
0 STEP
1 86 260.0 -384 40.0 -1 0 0 0 1 0 0 0 -1 3001.DAT
0 STEP
1 86 260.0 -336 70.0 -1 0 0 0 1 0 0 0 -1 3010.DAT
0 STEP
1 86 240.0 -240 140.0 0 0 1 0 1 0 -1 0 0 3001.DAT
0 STEP
1 86 300.0 0 10.0 -1 0 0 0 1 0 0 0 -1 3009.DAT
0 STEP
1 86 260.0 -24 30.0 0 0 1 0 1 0 -1 0 0 3002.DAT
0 STEP
1 86 260.0 -120 30.0 0 0 1 0 1 0 -1 0 0 3002.DAT
0 STEP
1 86 260.0 -216 60.0 0 0 1 0 1 0 -1 0 0 2456.DAT
0 STEP
1 86 250.0 -360 40.0 0 0 1 0 1 0 -1 0 0 3010.DAT
0 STEP
1 86 250.0 -408 30.0 0 0 1 0 1 0 -1 0 0 3622.DAT
0 STEP
1 86 250.0 -456 30.0 0 0 1 0 1 0 -1 0 0 3622.DAT
0 STEP
1 86 250.0 0 30.0 0 0 1 0 1 0 -1 0 0 3005.DAT
0 STEP
1 86 300.0 -288 40.0 -1 0 0 0 1 0 0 0 -1 2456.DAT
0 STEP
1 86 300.0 0 50.0 -1 0 0 0 1 0 0 0 -1 3009.DAT
0 STEP
1 86 250.0 -240 90.0 0 0 1 0 1 0 -1 0 0 3005.DAT
0 STEP
1 86 280.0 -216 170.0 -1 0 0 0 1 0 0 0 -1 3010.DAT
0 STEP
1 86 270.0 -72 30.0 0 0 1 0 1 0 -1 0 0 3622.DAT
0 STEP
1 86 280.0 -168 30.0 0 0 1 0 1 0 -1 0 0 3002.DAT
0 STEP
1 86 280.0 -264 40.0 0 0 1 0 1 0 -1 0 0 3001.DAT
0 STEP
1 86 280.0 -312 40.0 0 0 1 0 1 0 -1 0 0 3001.DAT
0 STEP
1 86 270.0 -360 30.0 0 0 1 0 1 0 -1 0 0 3622.DAT
0 STEP
1 86 340.0 -408 10.0 -1 0 0 0 1 0 0 0 -1 3008.DAT
0 STEP
1 86 280.0 -456 30.0 0 0 1 0 1 0 -1 0 0 3002.DAT
0 STEP
1 86 300.0 0 30.0 -1 0 0 0 1 0 0 0 -1 3010.DAT
0 STEP
1 86 290.0 -240 30.0 -1 0 0 0 1 0 0 0 -1 3622.DAT
0 STEP
1 86 290.0 -408 40.0 -1 0 0 0 1 0 0 0 -1 3002.DAT
0 STEP
1 86 300.0 -360 70.0 -1 0 0 0 1 0 0 0 -1 3010.DAT
0 STEP
1 86 270.0 -240 120.0 0 0 1 0 1 0 -1 0 0 3010.DAT
0 STEP
1 86 270.0 -240 170.0 0 0 1 0 1 0 -1 0 0 3005.DAT
0 STEP
1 86 300.0 -24 30.0 0 0 1 0 1 0 -1 0 0 3002.DAT
0 STEP
1 86 300.0 -72 30.0 0 0 1 0 1 0 -1 0 0 3002.DAT
0 STEP
1 86 290.0 -120 30.0 0 0 1 0 1 0 -1 0 0 3622.DAT
0 STEP
1 86 320.0 -216 10.0 -1 0 0 0 1 0 0 0 -1 3010.DAT
0 STEP
1 86 340.0 -360 20.0 -1 0 0 0 1 0 0 0 -1 2456.DAT
0 STEP
1 86 290.0 -216 30.0 0 0 1 0 1 0 -1 0 0 3005.DAT
0 STEP
1 86 290.0 -216 100.0 0 0 1 0 1 0 -1 0 0 3009.DAT
0 STEP
1 86 290.0 -360 50.0 0 0 1 0 1 0 -1 0 0 3005.DAT
0 STEP
1 86 310.0 -432 50.0 -1 0 0 0 1 0 0 0 -1 3622.DAT
0 STEP
1 86 320.0 -240 90.0 -1 0 0 0 1 0 0 0 -1 3010.DAT
0 STEP
1 86 290.0 -240 140.0 0 0 1 0 1 0 -1 0 0 3010.DAT
0 STEP
1 86 340.0 -120 10.0 -1 0 0 0 1 0 0 0 -1 3010.DAT
0 STEP
1 86 320.0 -144 30.0 0 0 1 0 1 0 -1 0 0 3002.DAT
0 STEP
1 86 320.0 -168 30.0 0 0 1 0 1 0 -1 0 0 3002.DAT
0 STEP
1 86 360.0 -264 10.0 -1 0 0 0 1 0 0 0 -1 3009.DAT
0 STEP
1 86 340.0 -312 10.0 -1 0 0 0 1 0 0 0 -1 3010.DAT
0 STEP
1 86 320.0 -336 40.0 0 0 1 0 1 0 -1 0 0 3001.DAT
0 STEP
1 86 320.0 -384 30.0 0 0 1 0 1 0 -1 0 0 3002.DAT
0 STEP
1 86 340.0 -456 10.0 -1 0 0 0 1 0 0 0 -1 3010.DAT
0 STEP
1 86 360.0 -120 40.0 -1 0 0 0 1 0 0 0 -1 2456.DAT
0 STEP
1 86 340.0 -216 30.0 -1 0 0 0 1 0 0 0 -1 3010.DAT
0 STEP
1 86 320.0 -264 50.0 0 0 1 0 1 0 -1 0 0 3002.DAT
0 STEP
1 86 310.0 -312 40.0 0 0 1 0 1 0 -1 0 0 3004.DAT
0 STEP
1 86 340.0 -456 40.0 -1 0 0 0 1 0 0 0 -1 3001.DAT
0 STEP
1 86 320.0 -216 80.0 0 0 1 0 1 0 -1 0 0 3001.DAT
0 STEP
1 86 340.0 -360 50.0 -1 0 0 0 1 0 0 0 -1 3010.DAT
0 STEP
1 86 320.0 -312 70.0 -1 0 0 0 1 0 0 0 -1 3004.DAT
0 STEP
1 86 320.0 -240 140.0 0 0 1 0 1 0 -1 0 0 3001.DAT
0 STEP
1 86 310.0 -216 140.0 0 0 1 0 1 0 -1 0 0 3004.DAT
0 STEP
1 86 360.0 -24 10.0 -1 0 0 0 1 0 0 0 -1 3010.DAT
0 STEP
1 86 360.0 -72 20.0 -1 0 0 0 1 0 0 0 -1 3001.DAT
0 STEP
1 86 350.0 -96 10.0 -1 0 0 0 1 0 0 0 -1 3622.DAT
0 STEP
1 86 330.0 -192 10.0 0 0 1 0 1 0 -1 0 0 3005.DAT
0 STEP
1 86 330.0 -240 40.0 0 0 1 0 1 0 -1 0 0 3010.DAT
0 STEP
1 86 340.0 -288 10.0 -1 0 0 0 1 0 0 0 -1 3004.DAT
0 STEP
1 86 360.0 -24 40.0 -1 0 0 0 1 0 0 0 -1 3001.DAT
0 STEP
1 86 360.0 -312 40.0 -1 0 0 0 1 0 0 0 -1 3001.DAT
0 STEP
1 86 360.0 -408 40.0 -1 0 0 0 1 0 0 0 -1 3001.DAT
0 STEP
1 86 350.0 -72 50.0 -1 0 0 0 1 0 0 0 -1 3622.DAT
0 STEP
1 86 350.0 -192 50.0 -1 0 0 0 1 0 0 0 -1 3622.DAT
0 STEP
1 86 330.0 -288 70.0 0 0 1 0 1 0 -1 0 0 3005.DAT
0 STEP
1 86 380.0 -216 130.0 -1 0 0 0 1 0 0 0 -1 3009.DAT
0 STEP
1 86 360.0 -216 150.0 -1 0 0 0 1 0 0 0 -1 3010.DAT
0 STEP
1 86 400.0 -216 170.0 -1 0 0 0 1 0 0 0 -1 3008.DAT
0 STEP
1 86 350.0 -48 20.0 0 0 1 0 1 0 -1 0 0 3004.DAT
0 STEP
1 86 380.0 -144 10.0 -1 0 0 0 1 0 0 0 -1 3010.DAT
0 STEP
1 86 360.0 -168 30.0 0 0 1 0 1 0 -1 0 0 3002.DAT
0 STEP
1 86 400.0 -192 10.0 -1 0 0 0 1 0 0 0 -1 3009.DAT
0 STEP
1 86 380.0 -240 20.0 -1 0 0 0 1 0 0 0 -1 3001.DAT
0 STEP
1 86 350.0 -336 30.0 0 0 1 0 1 0 -1 0 0 3622.DAT
0 STEP
1 86 360.0 -384 30.0 0 0 1 0 1 0 -1 0 0 3002.DAT
0 STEP
1 86 350.0 -432 30.0 0 0 1 0 1 0 -1 0 0 3622.DAT
0 STEP
1 86 350.0 0 30.0 0 0 1 0 1 0 -1 0 0 3005.DAT
0 STEP
1 86 360.0 -144 40.0 0 0 1 0 1 0 -1 0 0 3003.DAT
0 STEP
1 86 360.0 -192 30.0 -1 0 0 0 1 0 0 0 -1 3004.DAT
0 STEP
1 86 370.0 -264 40.0 -1 0 0 0 1 0 0 0 -1 3002.DAT
0 STEP
1 86 360.0 -216 80.0 0 0 1 0 1 0 -1 0 0 3001.DAT
0 STEP
1 86 380.0 -240 50.0 -1 0 0 0 1 0 0 0 -1 3010.DAT
0 STEP
1 86 360.0 -240 70.0 -1 0 0 0 1 0 0 0 -1 3004.DAT
0 STEP
1 86 360.0 -240 140.0 0 0 1 0 1 0 -1 0 0 3001.DAT
0 STEP
1 86 370.0 0 30.0 0 0 1 0 1 0 -1 0 0 3622.DAT
0 STEP
1 86 370.0 -48 30.0 0 0 1 0 1 0 -1 0 0 3622.DAT
0 STEP
1 86 370.0 -216 10.0 0 0 1 0 1 0 -1 0 0 3005.DAT
0 STEP
1 86 380.0 -288 20.0 0 0 1 0 1 0 -1 0 0 3003.DAT
0 STEP
1 86 400.0 -336 10.0 -1 0 0 0 1 0 0 0 -1 3010.DAT
0 STEP
1 86 380.0 -432 30.0 0 0 1 0 1 0 -1 0 0 3002.DAT
0 STEP
1 86 370.0 -336 30.0 0 0 1 0 1 0 -1 0 0 3005.DAT
0 STEP
1 86 400.0 -96 50.0 -1 0 0 0 1 0 0 0 -1 3010.DAT
0 STEP
1 86 370.0 -288 50.0 0 0 1 0 1 0 -1 0 0 3005.DAT
0 STEP
1 86 400.0 -336 50.0 -1 0 0 0 1 0 0 0 -1 3010.DAT
0 STEP
1 86 370.0 -240 90.0 0 0 1 0 1 0 -1 0 0 3005.DAT
0 STEP
1 86 420.0 0 20.0 -1 0 0 0 1 0 0 0 -1 3001.DAT
0 STEP
1 86 420.0 -48 20.0 -1 0 0 0 1 0 0 0 -1 3001.DAT
0 STEP
1 86 420.0 -96 20.0 -1 0 0 0 1 0 0 0 -1 3001.DAT
0 STEP
1 86 390.0 -120 10.0 0 0 1 0 1 0 -1 0 0 3005.DAT
0 STEP
1 86 390.0 -168 10.0 0 0 1 0 1 0 -1 0 0 3005.DAT
0 STEP
1 86 390.0 -216 40.0 0 0 1 0 1 0 -1 0 0 3010.DAT
0 STEP
1 86 390.0 -312 10.0 0 0 1 0 1 0 -1 0 0 3005.DAT
0 STEP
1 86 440.0 -384 20.0 -1 0 0 0 1 0 0 0 -1 2456.DAT
0 STEP
1 86 440.0 -456 10.0 -1 0 0 0 1 0 0 0 -1 3009.DAT
0 STEP
1 86 390.0 -144 60.0 0 0 1 0 1 0 -1 0 0 3010.DAT
0 STEP
1 86 440.0 -168 40.0 -1 0 0 0 1 0 0 0 -1 2456.DAT
0 STEP
1 86 400.0 -192 100.0 0 0 1 0 1 0 -1 0 0 3007.DAT
0 STEP
1 86 440.0 -336 30.0 -1 0 0 0 1 0 0 0 -1 3009.DAT
0 STEP
1 86 390.0 -456 30.0 0 0 1 0 1 0 -1 0 0 3005.DAT
0 STEP
1 86 420.0 0 50.0 -1 0 0 0 1 0 0 0 -1 3010.DAT
0 STEP
1 86 420.0 -48 60.0 -1 0 0 0 1 0 0 0 -1 3001.DAT
0 STEP
1 86 390.0 -72 80.0 0 0 1 0 1 0 -1 0 0 3010.DAT
0 STEP
1 86 420.0 -288 60.0 -1 0 0 0 1 0 0 0 -1 3001.DAT
0 STEP
1 86 390.0 -360 80.0 0 0 1 0 1 0 -1 0 0 3010.DAT
0 STEP
1 86 440.0 -384 60.0 -1 0 0 0 1 0 0 0 -1 2456.DAT
0 STEP
1 86 390.0 -456 80.0 0 0 1 0 1 0 -1 0 0 3010.DAT
0 STEP
1 86 400.0 0 120.0 0 0 1 0 1 0 -1 0 0 2456.DAT
0 STEP
1 86 390.0 -24 100.0 0 0 1 0 1 0 -1 0 0 3010.DAT
0 STEP
1 86 420.0 -96 80.0 -1 0 0 0 1 0 0 0 -1 3001.DAT
0 STEP
1 86 390.0 -120 100.0 0 0 1 0 1 0 -1 0 0 3010.DAT
0 STEP
1 86 440.0 -168 70.0 -1 0 0 0 1 0 0 0 -1 3009.DAT
0 STEP
1 86 390.0 -240 120.0 0 0 1 0 1 0 -1 0 0 3009.DAT
0 STEP
1 86 390.0 -264 80.0 0 0 1 0 1 0 -1 0 0 3004.DAT
0 STEP
1 86 390.0 -312 90.0 0 0 1 0 1 0 -1 0 0 3622.DAT
0 STEP
1 86 420.0 -336 80.0 -1 0 0 0 1 0 0 0 -1 3001.DAT
0 STEP
1 86 390.0 -408 90.0 0 0 1 0 1 0 -1 0 0 3622.DAT
0 STEP
1 86 410.0 -432 70.0 -1 0 0 0 1 0 0 0 -1 3622.DAT
0 STEP
1 86 410.0 -48 90.0 -1 0 0 0 1 0 0 0 -1 3622.DAT
0 STEP
1 86 390.0 -168 140.0 0 0 1 0 1 0 -1 0 0 3009.DAT
0 STEP
1 86 400.0 -216 90.0 -1 0 0 0 1 0 0 0 -1 3004.DAT
0 STEP
1 86 420.0 -288 100.0 -1 0 0 0 1 0 0 0 -1 3001.DAT
0 STEP
1 86 440.0 -384 100.0 -1 0 0 0 1 0 0 0 -1 2456.DAT
0 STEP
1 86 420.0 -432 100.0 -1 0 0 0 1 0 0 0 -1 3001.DAT
0 STEP
1 86 400.0 -48 110.0 -1 0 0 0 1 0 0 0 -1 3004.DAT
0 STEP
1 86 410.0 -96 110.0 -1 0 0 0 1 0 0 0 -1 3622.DAT
0 STEP
1 86 390.0 -144 110.0 0 0 1 0 1 0 -1 0 0 3005.DAT
0 STEP
1 86 420.0 -216 110.0 -1 0 0 0 1 0 0 0 -1 3010.DAT
0 STEP
1 86 440.0 -264 110.0 -1 0 0 0 1 0 0 0 -1 3009.DAT
0 STEP
1 86 420.0 -336 110.0 -1 0 0 0 1 0 0 0 -1 3010.DAT
0 STEP
1 86 390.0 -48 160.0 0 0 1 0 1 0 -1 0 0 3010.DAT
0 STEP
1 86 420.0 -72 140.0 -1 0 0 0 1 0 0 0 -1 3001.DAT
0 STEP
1 86 390.0 -96 160.0 0 0 1 0 1 0 -1 0 0 3010.DAT
0 STEP
1 86 420.0 -144 140.0 -1 0 0 0 1 0 0 0 -1 3001.DAT
0 STEP
1 86 420.0 -24 160.0 -1 0 0 0 1 0 0 0 -1 3001.DAT
0 STEP
1 86 390.0 -120 150.0 0 0 1 0 1 0 -1 0 0 3005.DAT
0 STEP
1 86 420.0 -72 180.0 -1 0 0 0 1 0 0 0 -1 3001.DAT
0 STEP
1 86 440.0 -120 170.0 -1 0 0 0 1 0 0 0 -1 3009.DAT
0 STEP
1 86 420.0 -144 170.0 -1 0 0 0 1 0 0 0 -1 3010.DAT
0 STEP
1 86 420.0 -192 190.0 -1 0 0 0 1 0 0 0 -1 3010.DAT
0 STEP
1 86 390.0 -216 190.0 0 0 1 0 1 0 -1 0 0 3005.DAT
0 STEP
1 86 410.0 -24 40.0 0 0 1 0 1 0 -1 0 0 3010.DAT
0 STEP
1 86 410.0 -72 20.0 0 0 1 0 1 0 -1 0 0 3004.DAT
0 STEP
1 86 440.0 -120 10.0 -1 0 0 0 1 0 0 0 -1 3010.DAT
0 STEP
1 86 440.0 -168 10.0 -1 0 0 0 1 0 0 0 -1 3010.DAT
0 STEP
1 86 420.0 -216 30.0 0 0 1 0 1 0 -1 0 0 3002.DAT
0 STEP
1 86 430.0 -288 20.0 -1 0 0 0 1 0 0 0 -1 3002.DAT
0 STEP
1 86 410.0 -312 60.0 0 0 1 0 1 0 -1 0 0 3009.DAT
0 STEP
1 86 420.0 -360 60.0 0 0 1 0 1 0 -1 0 0 2456.DAT
0 STEP
1 86 420.0 -432 30.0 0 0 1 0 1 0 -1 0 0 3002.DAT
0 STEP
1 86 410.0 -144 30.0 0 0 1 0 1 0 -1 0 0 3005.DAT
0 STEP
1 86 410.0 -264 60.0 0 0 1 0 1 0 -1 0 0 3010.DAT
0 STEP
1 86 410.0 -408 30.0 0 0 1 0 1 0 -1 0 0 3005.DAT
0 STEP
1 86 410.0 -456 60.0 0 0 1 0 1 0 -1 0 0 3010.DAT
0 STEP
1 86 420.0 -72 80.0 0 0 1 0 1 0 -1 0 0 3001.DAT
0 STEP
1 86 410.0 -144 80.0 0 0 1 0 1 0 -1 0 0 3010.DAT
0 STEP
1 86 410.0 -408 80.0 0 0 1 0 1 0 -1 0 0 3010.DAT
0 STEP
1 86 410.0 -120 70.0 0 0 1 0 1 0 -1 0 0 3005.DAT
0 STEP
1 86 410.0 -216 70.0 0 0 1 0 1 0 -1 0 0 3005.DAT
0 STEP
1 86 410.0 -240 70.0 0 0 1 0 1 0 -1 0 0 3005.DAT
0 STEP
1 86 440.0 -24 90.0 -1 0 0 0 1 0 0 0 -1 3010.DAT
0 STEP
1 86 410.0 -120 120.0 0 0 1 0 1 0 -1 0 0 3010.DAT
0 STEP
1 86 420.0 -168 100.0 0 0 1 0 1 0 -1 0 0 3003.DAT
0 STEP
1 86 420.0 -240 90.0 -1 0 0 0 1 0 0 0 -1 3004.DAT
0 STEP
1 86 440.0 -24 120.0 -1 0 0 0 1 0 0 0 -1 3001.DAT
0 STEP
1 86 420.0 -240 140.0 0 0 1 0 1 0 -1 0 0 3001.DAT
0 STEP
1 86 410.0 -456 110.0 0 0 1 0 1 0 -1 0 0 3005.DAT
0 STEP
1 86 410.0 -48 140.0 0 0 1 0 1 0 -1 0 0 3004.DAT
0 STEP
1 86 420.0 -96 150.0 0 0 1 0 1 0 -1 0 0 3002.DAT
0 STEP
1 86 410.0 -168 140.0 0 0 1 0 1 0 -1 0 0 3004.DAT
0 STEP
1 86 410.0 -216 150.0 0 0 1 0 1 0 -1 0 0 3005.DAT
0 STEP
1 86 440.0 -48 180.0 -1 0 0 0 1 0 0 0 -1 3001.DAT
0 STEP
1 86 440.0 -168 180.0 -1 0 0 0 1 0 0 0 -1 3001.DAT
0 STEP
1 86 440.0 -96 190.0 -1 0 0 0 1 0 0 0 -1 3010.DAT
0 STEP
1 86 440.0 -216 190.0 -1 0 0 0 1 0 0 0 -1 3010.DAT
0 STEP
1 86 460.0 -24 20.0 -1 0 0 0 1 0 0 0 -1 3001.DAT
0 STEP
1 86 460.0 -72 20.0 -1 0 0 0 1 0 0 0 -1 3001.DAT
0 STEP
1 86 430.0 -144 40.0 0 0 1 0 1 0 -1 0 0 3010.DAT
0 STEP
1 86 460.0 -240 10.0 -1 0 0 0 1 0 0 0 -1 3010.DAT
0 STEP
1 86 440.0 -264 30.0 0 0 1 0 1 0 -1 0 0 3002.DAT
0 STEP
1 86 460.0 -312 10.0 -1 0 0 0 1 0 0 0 -1 3010.DAT
0 STEP
1 86 430.0 -408 60.0 0 0 1 0 1 0 -1 0 0 3009.DAT
0 STEP
1 86 430.0 -120 80.0 0 0 1 0 1 0 -1 0 0 3009.DAT
0 STEP
1 86 440.0 -192 100.0 0 0 1 0 1 0 -1 0 0 3007.DAT
0 STEP
1 86 430.0 -240 40.0 0 0 1 0 1 0 -1 0 0 3004.DAT
0 STEP
1 86 440.0 -312 60.0 0 0 1 0 1 0 -1 0 0 3001.DAT
0 STEP
1 86 460.0 -456 40.0 -1 0 0 0 1 0 0 0 -1 3001.DAT
0 STEP
1 86 460.0 -24 60.0 -1 0 0 0 1 0 0 0 -1 3001.DAT
0 STEP
1 86 440.0 0 120.0 0 0 1 0 1 0 -1 0 0 2456.DAT
0 STEP
1 86 460.0 -264 80.0 -1 0 0 0 1 0 0 0 -1 3001.DAT
0 STEP
1 86 440.0 -456 90.0 0 0 1 0 1 0 -1 0 0 3002.DAT
0 STEP
1 86 460.0 -144 100.0 -1 0 0 0 1 0 0 0 -1 3001.DAT
0 STEP
1 86 430.0 -48 130.0 0 0 1 0 1 0 -1 0 0 3622.DAT
0 STEP
1 86 460.0 -312 110.0 -1 0 0 0 1 0 0 0 -1 3010.DAT
0 STEP
1 86 430.0 -168 130.0 0 0 1 0 1 0 -1 0 0 3005.DAT
0 STEP
1 86 440.0 -120 150.0 -1 0 0 0 1 0 0 0 -1 3004.DAT
0 STEP
1 86 460.0 -168 150.0 -1 0 0 0 1 0 0 0 -1 3010.DAT
0 STEP
1 86 460.0 -216 150.0 -1 0 0 0 1 0 0 0 -1 3010.DAT
0 STEP
1 86 460.0 -144 40.0 0 0 1 0 1 0 -1 0 0 3001.DAT
0 STEP
1 86 470.0 -216 20.0 -1 0 0 0 1 0 0 0 -1 3002.DAT
0 STEP
1 86 470.0 -336 10.0 -1 0 0 0 1 0 0 0 -1 3622.DAT
0 STEP
1 86 460.0 -360 40.0 0 0 1 0 1 0 -1 0 0 3001.DAT
0 STEP
1 86 470.0 -408 10.0 -1 0 0 0 1 0 0 0 -1 3622.DAT
0 STEP
1 86 460.0 -432 40.0 0 0 1 0 1 0 -1 0 0 3001.DAT
0 STEP
1 86 470.0 -120 30.0 -1 0 0 0 1 0 0 0 -1 3622.DAT
0 STEP
1 86 460.0 -240 100.0 0 0 1 0 1 0 -1 0 0 3007.DAT
0 STEP
1 86 460.0 -408 30.0 -1 0 0 0 1 0 0 0 -1 3004.DAT
0 STEP
1 86 470.0 -72 60.0 -1 0 0 0 1 0 0 0 -1 3002.DAT
0 STEP
1 86 450.0 -96 50.0 0 0 1 0 1 0 -1 0 0 3005.DAT
0 STEP
1 86 450.0 -120 80.0 0 0 1 0 1 0 -1 0 0 3010.DAT
0 STEP
1 86 470.0 -216 50.0 -1 0 0 0 1 0 0 0 -1 3622.DAT
0 STEP
1 86 450.0 -336 50.0 0 0 1 0 1 0 -1 0 0 3005.DAT
0 STEP
1 86 460.0 -408 80.0 0 0 1 0 1 0 -1 0 0 3001.DAT
0 STEP
1 86 450.0 -216 80.0 0 0 1 0 1 0 -1 0 0 3004.DAT
0 STEP
1 86 450.0 -48 120.0 0 0 1 0 1 0 -1 0 0 3010.DAT
0 STEP
1 86 470.0 -72 100.0 -1 0 0 0 1 0 0 0 -1 3002.DAT
0 STEP
1 86 460.0 -168 110.0 0 0 1 0 1 0 -1 0 0 3002.DAT
0 STEP
1 86 470.0 -360 100.0 -1 0 0 0 1 0 0 0 -1 3002.DAT
0 STEP
1 86 450.0 -96 140.0 0 0 1 0 1 0 -1 0 0 3010.DAT
0 STEP
1 86 450.0 -120 130.0 0 0 1 0 1 0 -1 0 0 3005.DAT
0 STEP
1 86 450.0 -216 130.0 0 0 1 0 1 0 -1 0 0 3005.DAT
0 STEP
1 86 480.0 0 40.0 0 0 1 0 1 0 -1 0 0 3001.DAT
0 STEP
1 86 480.0 -48 80.0 0 0 1 0 1 0 -1 0 0 3007.DAT
0 STEP
1 86 480.0 -96 60.0 0 0 1 0 1 0 -1 0 0 2456.DAT
0 STEP
1 86 470.0 -192 60.0 0 0 1 0 1 0 -1 0 0 3009.DAT
0 STEP
1 86 480.0 -264 30.0 0 0 1 0 1 0 -1 0 0 3002.DAT
0 STEP
1 86 480.0 -288 60.0 0 0 1 0 1 0 -1 0 0 2456.DAT
0 STEP
1 86 480.0 -312 60.0 0 0 1 0 1 0 -1 0 0 3001.DAT
0 STEP
1 86 480.0 -120 100.0 0 0 1 0 1 0 -1 0 0 2456.DAT
0 STEP
1 86 480.0 -336 80.0 0 0 1 0 1 0 -1 0 0 3001.DAT
0 STEP
1 86 480.0 -216 100.0 0 0 1 0 1 0 -1 0 0 3001.DAT
0 STEP
1 86 480.0 -456 90.0 0 0 1 0 1 0 -1 0 0 3002.DAT
0 STEP
1 86 480.0 0 90.0 -1 0 0 0 1 0 0 0 -1 3004.DAT
0 STEP
1 86 470.0 -432 100.0 0 0 1 0 1 0 -1 0 0 3004.DAT
0 STEP
1 86 480.0 0 140.0 0 0 1 0 1 0 -1 0 0 3001.DAT
0 STEP
1 86 470.0 -72 160.0 0 0 1 0 1 0 -1 0 0 3010.DAT
0 STEP
1 86 480.0 -96 150.0 0 0 1 0 1 0 -1 0 0 3002.DAT
0 STEP
1 86 480.0 -144 150.0 0 0 1 0 1 0 -1 0 0 3002.DAT
0 STEP
1 86 470.0 -192 160.0 0 0 1 0 1 0 -1 0 0 3010.DAT
0 STEP
1 86 470.0 -24 160.0 0 0 1 0 1 0 -1 0 0 3004.DAT
0 STEP
1 86 490.0 -120 10.0 0 0 1 0 1 0 -1 0 0 3005.DAT
0 STEP
1 86 490.0 -144 40.0 0 0 1 0 1 0 -1 0 0 3010.DAT
0 STEP
1 86 490.0 -168 10.0 0 0 1 0 1 0 -1 0 0 3005.DAT
0 STEP
1 86 490.0 -192 40.0 0 0 1 0 1 0 -1 0 0 3010.DAT
0 STEP
1 86 490.0 -360 40.0 0 0 1 0 1 0 -1 0 0 3010.DAT
0 STEP
1 86 490.0 -432 60.0 0 0 1 0 1 0 -1 0 0 3009.DAT
0 STEP
1 86 490.0 -240 100.0 0 0 1 0 1 0 -1 0 0 3008.DAT
0 STEP
1 86 490.0 -408 60.0 0 0 1 0 1 0 -1 0 0 3010.DAT
0 STEP
1 86 490.0 -24 120.0 0 0 1 0 1 0 -1 0 0 3010.DAT
0 STEP
1 86 490.0 -168 110.0 0 0 1 0 1 0 -1 0 0 3622.DAT
0 STEP
1 86 490.0 -192 90.0 0 0 1 0 1 0 -1 0 0 3005.DAT
0 STEP
1 86 490.0 -192 140.0 0 0 1 0 1 0 -1 0 0 3010.DAT
0 STEP
1 86 490.0 -408 110.0 0 0 1 0 1 0 -1 0 0 3005.DAT
0 STEP
1 86 490.0 -72 150.0 0 0 1 0 1 0 -1 0 0 3622.DAT
0 STEP
1 86 490.0 -24 170.0 0 0 1 0 1 0 -1 0 0 3005.DAT
0 STEP
1 86 490.0 -48 170.0 0 0 1 0 1 0 -1 0 0 3005.DAT
0 STEP
1 86 490.0 -168 170.0 0 0 1 0 1 0 -1 0 0 3005.DAT
0 STEP
1 86 490.0 -216 170.0 0 0 1 0 1 0 -1 0 0 3005.DAT
0 STEP
