1 86 20.0 0 150.0 -1 0 0 0 1 0 0 0 -1 3004.DAT
0 STEP
1 86 20.0 -24 150.0 -1 0 0 0 1 0 0 0 -1 3004.DAT
0 STEP
1 86 40.0 -24 170.0 -1 0 0 0 1 0 0 0 -1 3004.DAT
0 STEP
1 86 40.0 -216 200.0 0 0 1 0 1 0 -1 0 0 3001.DAT
0 STEP
1 86 30.0 -240 220.0 0 0 1 0 1 0 -1 0 0 3009.DAT
0 STEP
1 86 40.0 -264 200.0 0 0 1 0 1 0 -1 0 0 3001.DAT
0 STEP
1 86 40.0 -288 170.0 -1 0 0 0 1 0 0 0 -1 3004.DAT
0 STEP
1 86 60.0 -288 190.0 -1 0 0 0 1 0 0 0 -1 3010.DAT
0 STEP
1 86 40.0 -192 220.0 0 0 1 0 1 0 -1 0 0 3003.DAT
0 STEP
1 86 30.0 -168 240.0 0 0 1 0 1 0 -1 0 0 3004.DAT
0 STEP
1 86 40.0 -192 250.0 -1 0 0 0 1 0 0 0 -1 3004.DAT
0 STEP
1 86 60.0 -216 260.0 -1 0 0 0 1 0 0 0 -1 3001.DAT
0 STEP
1 86 30.0 -264 250.0 0 0 1 0 1 0 -1 0 0 3005.DAT
0 STEP
1 86 30.0 -144 280.0 0 0 1 0 1 0 -1 0 0 3004.DAT
0 STEP
1 86 40.0 -168 280.0 0 0 1 0 1 0 -1 0 0 3003.DAT
0 STEP
1 86 40.0 -192 280.0 0 0 1 0 1 0 -1 0 0 3003.DAT
0 STEP
1 86 30.0 -216 290.0 0 0 1 0 1 0 -1 0 0 3005.DAT
0 STEP
1 86 60.0 -240 160.0 0 0 1 0 1 0 -1 0 0 3003.DAT
0 STEP
1 86 50.0 -264 150.0 0 0 1 0 1 0 -1 0 0 3005.DAT
0 STEP
1 86 50.0 -192 180.0 0 0 1 0 1 0 -1 0 0 3004.DAT
0 STEP
1 86 80.0 -312 170.0 -1 0 0 0 1 0 0 0 -1 3010.DAT
0 STEP
1 86 50.0 -24 200.0 0 0 1 0 1 0 -1 0 0 3004.DAT
0 STEP
1 86 50.0 -48 190.0 0 0 1 0 1 0 -1 0 0 3005.DAT
0 STEP
1 86 60.0 -168 190.0 -1 0 0 0 1 0 0 0 -1 3004.DAT
0 STEP
1 86 50.0 -240 200.0 0 0 1 0 1 0 -1 0 0 3004.DAT
0 STEP
1 86 50.0 -312 220.0 0 0 1 0 1 0 -1 0 0 3010.DAT
0 STEP
1 86 50.0 -144 220.0 0 0 1 0 1 0 -1 0 0 3004.DAT
0 STEP
1 86 60.0 -168 220.0 0 0 1 0 1 0 -1 0 0 3003.DAT
0 STEP
1 86 50.0 -288 240.0 0 0 1 0 1 0 -1 0 0 3010.DAT
0 STEP
1 86 50.0 -240 230.0 0 0 1 0 1 0 -1 0 0 3005.DAT
0 STEP
1 86 50.0 -144 250.0 0 0 1 0 1 0 -1 0 0 3005.DAT
0 STEP
1 86 60.0 -168 250.0 -1 0 0 0 1 0 0 0 -1 3004.DAT
0 STEP
1 86 50.0 -240 260.0 0 0 1 0 1 0 -1 0 0 3004.DAT
0 STEP
1 86 60.0 -264 250.0 -1 0 0 0 1 0 0 0 -1 3004.DAT
0 STEP
1 86 50.0 -120 270.0 0 0 1 0 1 0 -1 0 0 3005.DAT
0 STEP
1 86 60.0 -144 280.0 0 0 1 0 1 0 -1 0 0 3003.DAT
0 STEP
1 86 50.0 -264 280.0 0 0 1 0 1 0 -1 0 0 3004.DAT
0 STEP
1 86 50.0 -120 320.0 0 0 1 0 1 0 -1 0 0 3010.DAT
0 STEP
1 86 60.0 -216 300.0 0 0 1 0 1 0 -1 0 0 3003.DAT
0 STEP
1 86 50.0 -240 290.0 0 0 1 0 1 0 -1 0 0 3005.DAT
0 STEP
1 86 60.0 -288 290.0 -1 0 0 0 1 0 0 0 -1 3004.DAT
0 STEP
1 86 50.0 -144 320.0 0 0 1 0 1 0 -1 0 0 3004.DAT
0 STEP
1 86 60.0 -168 310.0 -1 0 0 0 1 0 0 0 -1 3004.DAT
0 STEP
1 86 60.0 -192 310.0 -1 0 0 0 1 0 0 0 -1 3004.DAT
0 STEP
1 86 60.0 -240 310.0 -1 0 0 0 1 0 0 0 -1 3004.DAT
0 STEP
1 86 80.0 -264 310.0 -1 0 0 0 1 0 0 0 -1 3010.DAT
0 STEP
1 86 100.0 -168 330.0 -1 0 0 0 1 0 0 0 -1 3009.DAT
0 STEP
1 86 50.0 -192 330.0 0 0 1 0 1 0 -1 0 0 3005.DAT
0 STEP
1 86 60.0 -216 330.0 -1 0 0 0 1 0 0 0 -1 3004.DAT
0 STEP
1 86 60.0 -144 350.0 -1 0 0 0 1 0 0 0 -1 3004.DAT
0 STEP
1 86 50.0 -168 350.0 0 0 1 0 1 0 -1 0 0 3005.DAT
0 STEP
1 86 70.0 0 120.0 0 0 1 0 1 0 -1 0 0 3004.DAT
0 STEP
1 86 70.0 -24 110.0 0 0 1 0 1 0 -1 0 0 3005.DAT
0 STEP
1 86 70.0 -24 160.0 0 0 1 0 1 0 -1 0 0 3010.DAT
0 STEP
1 86 70.0 -240 130.0 0 0 1 0 1 0 -1 0 0 3005.DAT
0 STEP
1 86 80.0 -264 130.0 -1 0 0 0 1 0 0 0 -1 3004.DAT
0 STEP
1 86 70.0 -288 130.0 0 0 1 0 1 0 -1 0 0 3005.DAT
0 STEP
1 86 80.0 -312 140.0 0 0 1 0 1 0 -1 0 0 3003.DAT
0 STEP
1 86 100.0 -336 140.0 -1 0 0 0 1 0 0 0 -1 3001.DAT
0 STEP
1 86 70.0 -360 140.0 0 0 1 0 1 0 -1 0 0 3004.DAT
0 STEP
1 86 80.0 -384 130.0 -1 0 0 0 1 0 0 0 -1 3004.DAT
0 STEP
1 86 80.0 -192 180.0 0 0 1 0 1 0 -1 0 0 3001.DAT
0 STEP
1 86 70.0 -216 150.0 0 0 1 0 1 0 -1 0 0 3005.DAT
0 STEP
1 86 70.0 -264 160.0 0 0 1 0 1 0 -1 0 0 3004.DAT
0 STEP
1 86 70.0 -288 160.0 0 0 1 0 1 0 -1 0 0 3004.DAT
0 STEP
1 86 70.0 -384 150.0 0 0 1 0 1 0 -1 0 0 3005.DAT
0 STEP
1 86 100.0 -408 160.0 -1 0 0 0 1 0 0 0 -1 3001.DAT
0 STEP
1 86 80.0 -48 170.0 -1 0 0 0 1 0 0 0 -1 3004.DAT
0 STEP
1 86 70.0 -168 170.0 0 0 1 0 1 0 -1 0 0 3005.DAT
0 STEP
1 86 70.0 -216 200.0 0 0 1 0 1 0 -1 0 0 3010.DAT
0 STEP
1 86 70.0 -336 170.0 0 0 1 0 1 0 -1 0 0 3005.DAT
0 STEP
1 86 100.0 -360 180.0 -1 0 0 0 1 0 0 0 -1 3001.DAT
0 STEP
1 86 80.0 -384 180.0 0 0 1 0 1 0 -1 0 0 3003.DAT
0 STEP
1 86 80.0 -48 200.0 0 0 1 0 1 0 -1 0 0 3003.DAT
0 STEP
1 86 70.0 -144 220.0 0 0 1 0 1 0 -1 0 0 3010.DAT
0 STEP
1 86 80.0 -240 190.0 -1 0 0 0 1 0 0 0 -1 3004.DAT
0 STEP
1 86 80.0 -264 200.0 0 0 1 0 1 0 -1 0 0 3003.DAT
0 STEP
1 86 70.0 -312 190.0 0 0 1 0 1 0 -1 0 0 3005.DAT
0 STEP
1 86 80.0 -336 190.0 -1 0 0 0 1 0 0 0 -1 3004.DAT
0 STEP
1 86 80.0 -24 210.0 -1 0 0 0 1 0 0 0 -1 3004.DAT
0 STEP
1 86 80.0 -72 220.0 0 0 1 0 1 0 -1 0 0 3003.DAT
0 STEP
1 86 80.0 -96 220.0 0 0 1 0 1 0 -1 0 0 3003.DAT
0 STEP
1 86 80.0 -120 220.0 0 0 1 0 1 0 -1 0 0 3003.DAT
0 STEP
1 86 70.0 -240 240.0 0 0 1 0 1 0 -1 0 0 3010.DAT
0 STEP
1 86 80.0 -288 220.0 0 0 1 0 1 0 -1 0 0 3003.DAT
0 STEP
1 86 120.0 -312 220.0 -1 0 0 0 1 0 0 0 -1 2456.DAT
0 STEP
1 86 80.0 -336 220.0 0 0 1 0 1 0 -1 0 0 3003.DAT
0 STEP
1 86 70.0 -360 210.0 0 0 1 0 1 0 -1 0 0 3005.DAT
0 STEP
1 86 70.0 -24 230.0 0 0 1 0 1 0 -1 0 0 3005.DAT
0 STEP
1 86 70.0 -48 230.0 0 0 1 0 1 0 -1 0 0 3005.DAT
0 STEP
1 86 70.0 -192 240.0 0 0 1 0 1 0 -1 0 0 3004.DAT
0 STEP
1 86 70.0 -264 230.0 0 0 1 0 1 0 -1 0 0 3005.DAT
0 STEP
1 86 70.0 -120 250.0 0 0 1 0 1 0 -1 0 0 3005.DAT
0 STEP
1 86 70.0 -288 260.0 0 0 1 0 1 0 -1 0 0 3004.DAT
0 STEP
1 86 70.0 -312 260.0 0 0 1 0 1 0 -1 0 0 3004.DAT
0 STEP
1 86 100.0 -120 280.0 -1 0 0 0 1 0 0 0 -1 3001.DAT
0 STEP
1 86 70.0 -168 280.0 0 0 1 0 1 0 -1 0 0 3004.DAT
0 STEP
1 86 80.0 -192 270.0 -1 0 0 0 1 0 0 0 -1 3004.DAT
0 STEP
1 86 80.0 -264 280.0 0 0 1 0 1 0 -1 0 0 3003.DAT
0 STEP
1 86 70.0 -192 290.0 0 0 1 0 1 0 -1 0 0 3005.DAT
0 STEP
1 86 100.0 -240 290.0 -1 0 0 0 1 0 0 0 -1 3010.DAT
0 STEP
1 86 70.0 -120 360.0 0 0 1 0 1 0 -1 0 0 3009.DAT
0 STEP
1 86 80.0 -144 320.0 0 0 1 0 1 0 -1 0 0 3003.DAT
0 STEP
1 86 80.0 -96 340.0 0 0 1 0 1 0 -1 0 0 3003.DAT
0 STEP
1 86 80.0 -192 330.0 -1 0 0 0 1 0 0 0 -1 3004.DAT
0 STEP
1 86 70.0 -240 330.0 0 0 1 0 1 0 -1 0 0 3005.DAT
0 STEP
1 86 80.0 -168 360.0 0 0 1 0 1 0 -1 0 0 3003.DAT
0 STEP
1 86 100.0 -192 350.0 -1 0 0 0 1 0 0 0 -1 3010.DAT
0 STEP
1 86 70.0 -72 400.0 0 0 1 0 1 0 -1 0 0 3010.DAT
0 STEP
1 86 70.0 -96 380.0 0 0 1 0 1 0 -1 0 0 3004.DAT
0 STEP
1 86 70.0 -144 380.0 0 0 1 0 1 0 -1 0 0 3004.DAT
0 STEP
1 86 100.0 -96 410.0 -1 0 0 0 1 0 0 0 -1 3010.DAT
0 STEP
1 86 70.0 -96 430.0 0 0 1 0 1 0 -1 0 0 3005.DAT
0 STEP
1 86 100.0 -312 20.0 0 0 1 0 1 0 -1 0 0 3003.DAT
0 STEP
1 86 90.0 -336 20.0 0 0 1 0 1 0 -1 0 0 3004.DAT
0 STEP
1 86 90.0 -288 30.0 0 0 1 0 1 0 -1 0 0 3005.DAT
0 STEP
1 86 90.0 -360 60.0 0 0 1 0 1 0 -1 0 0 3010.DAT
0 STEP
1 86 90.0 -312 60.0 0 0 1 0 1 0 -1 0 0 3004.DAT
0 STEP
1 86 90.0 -336 50.0 0 0 1 0 1 0 -1 0 0 3005.DAT
0 STEP
1 86 100.0 -384 80.0 0 0 1 0 1 0 -1 0 0 3001.DAT
0 STEP
1 86 100.0 -336 80.0 0 0 1 0 1 0 -1 0 0 3003.DAT
0 STEP
1 86 100.0 -408 70.0 -1 0 0 0 1 0 0 0 -1 3004.DAT
0 STEP
1 86 100.0 -312 90.0 -1 0 0 0 1 0 0 0 -1 3004.DAT
0 STEP
1 86 90.0 -408 90.0 0 0 1 0 1 0 -1 0 0 3005.DAT
0 STEP
1 86 90.0 -312 110.0 0 0 1 0 1 0 -1 0 0 3005.DAT
0 STEP
1 86 100.0 -336 110.0 -1 0 0 0 1 0 0 0 -1 3004.DAT
0 STEP
1 86 100.0 -360 110.0 -1 0 0 0 1 0 0 0 -1 3004.DAT
0 STEP
1 86 90.0 -408 120.0 0 0 1 0 1 0 -1 0 0 3004.DAT
0 STEP
1 86 90.0 -216 130.0 0 0 1 0 1 0 -1 0 0 3005.DAT
0 STEP
1 86 90.0 -240 140.0 0 0 1 0 1 0 -1 0 0 3004.DAT
0 STEP
1 86 90.0 -288 140.0 0 0 1 0 1 0 -1 0 0 3004.DAT
0 STEP
1 86 120.0 -360 140.0 -1 0 0 0 1 0 0 0 -1 3001.DAT
0 STEP
1 86 90.0 -216 180.0 0 0 1 0 1 0 -1 0 0 3010.DAT
0 STEP
1 86 100.0 -264 150.0 -1 0 0 0 1 0 0 0 -1 3004.DAT
0 STEP
1 86 100.0 -384 150.0 -1 0 0 0 1 0 0 0 -1 3004.DAT
0 STEP
1 86 100.0 -432 160.0 0 0 1 0 1 0 -1 0 0 3003.DAT
0 STEP
1 86 90.0 -24 180.0 0 0 1 0 1 0 -1 0 0 3004.DAT
0 STEP
1 86 90.0 -168 240.0 0 0 1 0 1 0 -1 0 0 3008.DAT
0 STEP
1 86 90.0 -240 170.0 0 0 1 0 1 0 -1 0 0 3005.DAT
0 STEP
1 86 90.0 -264 170.0 0 0 1 0 1 0 -1 0 0 3005.DAT
0 STEP
1 86 90.0 -288 170.0 0 0 1 0 1 0 -1 0 0 3005.DAT
0 STEP
1 86 100.0 -336 170.0 -1 0 0 0 1 0 0 0 -1 3004.DAT
0 STEP
1 86 100.0 -144 220.0 0 0 1 0 1 0 -1 0 0 3001.DAT
0 STEP
1 86 100.0 -312 190.0 -1 0 0 0 1 0 0 0 -1 3004.DAT
0 STEP
1 86 100.0 -408 190.0 -1 0 0 0 1 0 0 0 -1 3004.DAT
0 STEP
1 86 90.0 -432 190.0 0 0 1 0 1 0 -1 0 0 3005.DAT
0 STEP
1 86 100.0 -240 220.0 0 0 1 0 1 0 -1 0 0 3003.DAT
0 STEP
1 86 120.0 -360 210.0 -1 0 0 0 1 0 0 0 -1 3010.DAT
0 STEP
1 86 100.0 -384 210.0 -1 0 0 0 1 0 0 0 -1 3004.DAT
0 STEP
1 86 90.0 -408 210.0 0 0 1 0 1 0 -1 0 0 3005.DAT
0 STEP
1 86 100.0 -192 240.0 0 0 1 0 1 0 -1 0 0 3003.DAT
0 STEP
1 86 100.0 -216 230.0 -1 0 0 0 1 0 0 0 -1 3004.DAT
0 STEP
1 86 90.0 -264 240.0 0 0 1 0 1 0 -1 0 0 3004.DAT
0 STEP
1 86 90.0 -360 230.0 0 0 1 0 1 0 -1 0 0 3005.DAT
0 STEP
1 86 100.0 -120 250.0 -1 0 0 0 1 0 0 0 -1 3004.DAT
0 STEP
1 86 140.0 -240 250.0 -1 0 0 0 1 0 0 0 -1 3009.DAT
0 STEP
1 86 90.0 -288 250.0 0 0 1 0 1 0 -1 0 0 3005.DAT
0 STEP
1 86 120.0 -312 260.0 -1 0 0 0 1 0 0 0 -1 3001.DAT
0 STEP
1 86 90.0 -144 280.0 0 0 1 0 1 0 -1 0 0 3004.DAT
0 STEP
1 86 90.0 -240 270.0 0 0 1 0 1 0 -1 0 0 3005.DAT
0 STEP
1 86 90.0 -288 280.0 0 0 1 0 1 0 -1 0 0 3004.DAT
0 STEP
1 86 90.0 -192 300.0 0 0 1 0 1 0 -1 0 0 3004.DAT
0 STEP
1 86 90.0 -216 300.0 0 0 1 0 1 0 -1 0 0 3004.DAT
0 STEP
1 86 100.0 -96 310.0 -1 0 0 0 1 0 0 0 -1 3004.DAT
0 STEP
1 86 100.0 -120 310.0 -1 0 0 0 1 0 0 0 -1 3004.DAT
0 STEP
1 86 90.0 -240 310.0 0 0 1 0 1 0 -1 0 0 3005.DAT
0 STEP
1 86 100.0 -120 340.0 0 0 1 0 1 0 -1 0 0 3003.DAT
0 STEP
1 86 90.0 -216 330.0 0 0 1 0 1 0 -1 0 0 3005.DAT
0 STEP
1 86 100.0 -240 330.0 -1 0 0 0 1 0 0 0 -1 3004.DAT
0 STEP
1 86 90.0 -144 350.0 0 0 1 0 1 0 -1 0 0 3005.DAT
0 STEP
1 86 100.0 -216 350.0 -1 0 0 0 1 0 0 0 -1 3004.DAT
0 STEP
1 86 120.0 -72 370.0 -1 0 0 0 1 0 0 0 -1 3010.DAT
0 STEP
1 86 100.0 -96 380.0 0 0 1 0 1 0 -1 0 0 3003.DAT
0 STEP
1 86 100.0 -120 370.0 -1 0 0 0 1 0 0 0 -1 3004.DAT
0 STEP
1 86 100.0 -144 380.0 0 0 1 0 1 0 -1 0 0 3003.DAT
0 STEP
1 86 120.0 -72 400.0 -1 0 0 0 1 0 0 0 -1 3001.DAT
0 STEP
1 86 90.0 -120 400.0 0 0 1 0 1 0 -1 0 0 3004.DAT
0 STEP
1 86 100.0 -72 440.0 0 0 1 0 1 0 -1 0 0 3003.DAT
0 STEP
1 86 90.0 -96 440.0 0 0 1 0 1 0 -1 0 0 3004.DAT
0 STEP
1 86 100.0 -120 430.0 -1 0 0 0 1 0 0 0 -1 3004.DAT
0 STEP
1 86 110.0 -240 10.0 0 0 1 0 1 0 -1 0 0 3005.DAT
0 STEP
1 86 110.0 -264 20.0 0 0 1 0 1 0 -1 0 0 3004.DAT
0 STEP
1 86 110.0 -288 10.0 0 0 1 0 1 0 -1 0 0 3005.DAT
0 STEP
1 86 120.0 -336 20.0 0 0 1 0 1 0 -1 0 0 3003.DAT
0 STEP
1 86 110.0 -360 20.0 0 0 1 0 1 0 -1 0 0 3004.DAT
0 STEP
1 86 110.0 -288 40.0 0 0 1 0 1 0 -1 0 0 3004.DAT
0 STEP
1 86 110.0 -384 30.0 0 0 1 0 1 0 -1 0 0 3005.DAT
0 STEP
1 86 120.0 -312 50.0 -1 0 0 0 1 0 0 0 -1 3004.DAT
0 STEP
1 86 120.0 -336 50.0 -1 0 0 0 1 0 0 0 -1 3004.DAT
0 STEP
1 86 110.0 -360 50.0 0 0 1 0 1 0 -1 0 0 3005.DAT
0 STEP
1 86 110.0 -312 70.0 0 0 1 0 1 0 -1 0 0 3005.DAT
0 STEP
1 86 120.0 -360 80.0 0 0 1 0 1 0 -1 0 0 3003.DAT
0 STEP
1 86 120.0 -408 100.0 0 0 1 0 1 0 -1 0 0 3003.DAT
0 STEP
1 86 120.0 -312 110.0 -1 0 0 0 1 0 0 0 -1 3004.DAT
0 STEP
1 86 120.0 -216 140.0 0 0 1 0 1 0 -1 0 0 3003.DAT
0 STEP
1 86 110.0 -240 130.0 0 0 1 0 1 0 -1 0 0 3005.DAT
0 STEP
1 86 110.0 -264 130.0 0 0 1 0 1 0 -1 0 0 3005.DAT
0 STEP
1 86 120.0 -288 130.0 -1 0 0 0 1 0 0 0 -1 3004.DAT
0 STEP
1 86 110.0 -312 130.0 0 0 1 0 1 0 -1 0 0 3005.DAT
0 STEP
1 86 110.0 -384 130.0 0 0 1 0 1 0 -1 0 0 3005.DAT
0 STEP
1 86 120.0 -408 130.0 -1 0 0 0 1 0 0 0 -1 3004.DAT
0 STEP
1 86 120.0 -432 130.0 -1 0 0 0 1 0 0 0 -1 3004.DAT
0 STEP
1 86 110.0 -192 150.0 0 0 1 0 1 0 -1 0 0 3005.DAT
0 STEP
1 86 120.0 -240 150.0 -1 0 0 0 1 0 0 0 -1 3004.DAT
0 STEP
1 86 110.0 -288 200.0 0 0 1 0 1 0 -1 0 0 3009.DAT
0 STEP
1 86 120.0 -312 150.0 -1 0 0 0 1 0 0 0 -1 3004.DAT
0 STEP
1 86 120.0 -168 180.0 0 0 1 0 1 0 -1 0 0 3003.DAT
0 STEP
1 86 140.0 -192 170.0 -1 0 0 0 1 0 0 0 -1 3010.DAT
0 STEP
1 86 120.0 -216 170.0 -1 0 0 0 1 0 0 0 -1 3004.DAT
0 STEP
1 86 110.0 -240 180.0 0 0 1 0 1 0 -1 0 0 3004.DAT
0 STEP
1 86 110.0 -264 180.0 0 0 1 0 1 0 -1 0 0 3004.DAT
0 STEP
1 86 110.0 -384 180.0 0 0 1 0 1 0 -1 0 0 3004.DAT
0 STEP
1 86 110.0 -192 200.0 0 0 1 0 1 0 -1 0 0 3004.DAT
0 STEP
1 86 110.0 -216 200.0 0 0 1 0 1 0 -1 0 0 3004.DAT
0 STEP
1 86 120.0 -336 200.0 0 0 1 0 1 0 -1 0 0 3003.DAT
0 STEP
1 86 120.0 -432 190.0 -1 0 0 0 1 0 0 0 -1 3004.DAT
0 STEP
1 86 110.0 -120 220.0 0 0 1 0 1 0 -1 0 0 3004.DAT
0 STEP
1 86 110.0 -168 210.0 0 0 1 0 1 0 -1 0 0 3005.DAT
0 STEP
1 86 120.0 -264 210.0 -1 0 0 0 1 0 0 0 -1 3004.DAT
0 STEP
1 86 120.0 -408 210.0 -1 0 0 0 1 0 0 0 -1 3004.DAT
0 STEP
1 86 110.0 -96 240.0 0 0 1 0 1 0 -1 0 0 3004.DAT
0 STEP
1 86 110.0 -168 260.0 0 0 1 0 1 0 -1 0 0 3010.DAT
0 STEP
1 86 120.0 -264 240.0 0 0 1 0 1 0 -1 0 0 3003.DAT
0 STEP
1 86 110.0 -336 240.0 0 0 1 0 1 0 -1 0 0 3004.DAT
0 STEP
1 86 120.0 -360 230.0 -1 0 0 0 1 0 0 0 -1 3004.DAT
0 STEP
1 86 110.0 -216 260.0 0 0 1 0 1 0 -1 0 0 3004.DAT
0 STEP
1 86 120.0 -144 280.0 0 0 1 0 1 0 -1 0 0 3003.DAT
0 STEP
1 86 110.0 -192 300.0 0 0 1 0 1 0 -1 0 0 3010.DAT
0 STEP
1 86 120.0 -240 270.0 -1 0 0 0 1 0 0 0 -1 3004.DAT
0 STEP
1 86 110.0 -264 280.0 0 0 1 0 1 0 -1 0 0 3004.DAT
0 STEP
1 86 140.0 -288 280.0 -1 0 0 0 1 0 0 0 -1 3001.DAT
0 STEP
1 86 110.0 -96 290.0 0 0 1 0 1 0 -1 0 0 3005.DAT
0 STEP
1 86 110.0 -216 290.0 0 0 1 0 1 0 -1 0 0 3005.DAT
0 STEP
1 86 110.0 -144 310.0 0 0 1 0 1 0 -1 0 0 3005.DAT
0 STEP
1 86 120.0 -168 310.0 -1 0 0 0 1 0 0 0 -1 3004.DAT
0 STEP
1 86 110.0 -216 320.0 0 0 1 0 1 0 -1 0 0 3004.DAT
0 STEP
1 86 120.0 -240 310.0 -1 0 0 0 1 0 0 0 -1 3004.DAT
0 STEP
1 86 110.0 -288 310.0 0 0 1 0 1 0 -1 0 0 3005.DAT
0 STEP
1 86 110.0 -96 340.0 0 0 1 0 1 0 -1 0 0 3004.DAT
0 STEP
1 86 120.0 -144 340.0 0 0 1 0 1 0 -1 0 0 3003.DAT
0 STEP
1 86 110.0 -72 350.0 0 0 1 0 1 0 -1 0 0 3005.DAT
0 STEP
1 86 110.0 -168 350.0 0 0 1 0 1 0 -1 0 0 3005.DAT
0 STEP
1 86 120.0 -168 370.0 -1 0 0 0 1 0 0 0 -1 3004.DAT
0 STEP
1 86 120.0 -120 400.0 0 0 1 0 1 0 -1 0 0 3003.DAT
0 STEP
1 86 120.0 -48 420.0 0 0 1 0 1 0 -1 0 0 3003.DAT
0 STEP
1 86 120.0 -96 440.0 0 0 1 0 1 0 -1 0 0 3003.DAT
0 STEP
1 86 130.0 -312 20.0 0 0 1 0 1 0 -1 0 0 3004.DAT
0 STEP
1 86 130.0 -288 30.0 0 0 1 0 1 0 -1 0 0 3005.DAT
0 STEP
1 86 130.0 -360 40.0 0 0 1 0 1 0 -1 0 0 3004.DAT
0 STEP
1 86 130.0 -384 50.0 0 0 1 0 1 0 -1 0 0 3005.DAT
0 STEP
1 86 130.0 -312 80.0 0 0 1 0 1 0 -1 0 0 3004.DAT
0 STEP
1 86 130.0 -336 70.0 0 0 1 0 1 0 -1 0 0 3005.DAT
0 STEP
1 86 130.0 -384 100.0 0 0 1 0 1 0 -1 0 0 3010.DAT
0 STEP
1 86 130.0 -336 100.0 0 0 1 0 1 0 -1 0 0 3004.DAT
0 STEP
1 86 130.0 -360 110.0 0 0 1 0 1 0 -1 0 0 3005.DAT
0 STEP
1 86 140.0 -240 130.0 -1 0 0 0 1 0 0 0 -1 3004.DAT
0 STEP
1 86 140.0 -264 140.0 0 0 1 0 1 0 -1 0 0 3003.DAT
0 STEP
1 86 140.0 -312 130.0 -1 0 0 0 1 0 0 0 -1 3004.DAT
0 STEP
1 86 140.0 -192 150.0 -1 0 0 0 1 0 0 0 -1 3004.DAT
0 STEP
1 86 140.0 -288 150.0 -1 0 0 0 1 0 0 0 -1 3004.DAT
0 STEP
1 86 140.0 -384 160.0 0 0 1 0 1 0 -1 0 0 3003.DAT
0 STEP
1 86 130.0 -432 160.0 0 0 1 0 1 0 -1 0 0 3004.DAT
0 STEP
1 86 130.0 -24 180.0 0 0 1 0 1 0 -1 0 0 3004.DAT
0 STEP
1 86 130.0 -240 170.0 0 0 1 0 1 0 -1 0 0 3005.DAT
0 STEP
1 86 160.0 -264 170.0 -1 0 0 0 1 0 0 0 -1 3010.DAT
0 STEP
1 86 130.0 -288 170.0 0 0 1 0 1 0 -1 0 0 3005.DAT
0 STEP
1 86 130.0 -312 180.0 0 0 1 0 1 0 -1 0 0 3004.DAT
0 STEP
1 86 130.0 -336 170.0 0 0 1 0 1 0 -1 0 0 3005.DAT
0 STEP
1 86 140.0 -144 200.0 0 0 1 0 1 0 -1 0 0 3003.DAT
0 STEP
1 86 140.0 -192 200.0 0 0 1 0 1 0 -1 0 0 3003.DAT
0 STEP
1 86 140.0 -216 190.0 -1 0 0 0 1 0 0 0 -1 3004.DAT
0 STEP
1 86 130.0 -240 200.0 0 0 1 0 1 0 -1 0 0 3004.DAT
0 STEP
1 86 140.0 -264 190.0 -1 0 0 0 1 0 0 0 -1 3004.DAT
0 STEP
1 86 140.0 -288 200.0 0 0 1 0 1 0 -1 0 0 3003.DAT
0 STEP
1 86 140.0 -384 190.0 -1 0 0 0 1 0 0 0 -1 3004.DAT
0 STEP
1 86 130.0 -408 190.0 0 0 1 0 1 0 -1 0 0 3005.DAT
0 STEP
1 86 140.0 -72 220.0 0 0 1 0 1 0 -1 0 0 3003.DAT
0 STEP
1 86 140.0 -96 220.0 0 0 1 0 1 0 -1 0 0 3003.DAT
0 STEP
1 86 130.0 -120 210.0 0 0 1 0 1 0 -1 0 0 3005.DAT
0 STEP
1 86 140.0 -168 210.0 -1 0 0 0 1 0 0 0 -1 3004.DAT
0 STEP
1 86 130.0 -216 220.0 0 0 1 0 1 0 -1 0 0 3004.DAT
0 STEP
1 86 130.0 -384 210.0 0 0 1 0 1 0 -1 0 0 3005.DAT
0 STEP
1 86 130.0 -120 240.0 0 0 1 0 1 0 -1 0 0 3004.DAT
0 STEP
1 86 130.0 -144 240.0 0 0 1 0 1 0 -1 0 0 3004.DAT
0 STEP
1 86 160.0 -168 230.0 -1 0 0 0 1 0 0 0 -1 3010.DAT
0 STEP
1 86 130.0 -192 230.0 0 0 1 0 1 0 -1 0 0 3005.DAT
0 STEP
1 86 140.0 -240 230.0 -1 0 0 0 1 0 0 0 -1 3004.DAT
0 STEP
1 86 130.0 -288 230.0 0 0 1 0 1 0 -1 0 0 3005.DAT
0 STEP
1 86 130.0 -336 230.0 0 0 1 0 1 0 -1 0 0 3005.DAT
0 STEP
1 86 130.0 -168 260.0 0 0 1 0 1 0 -1 0 0 3004.DAT
0 STEP
1 86 130.0 -192 280.0 0 0 1 0 1 0 -1 0 0 3010.DAT
0 STEP
1 86 160.0 -216 250.0 -1 0 0 0 1 0 0 0 -1 3010.DAT
0 STEP
1 86 140.0 -288 250.0 -1 0 0 0 1 0 0 0 -1 3004.DAT
0 STEP
1 86 130.0 -216 280.0 0 0 1 0 1 0 -1 0 0 3004.DAT
0 STEP
1 86 130.0 -264 270.0 0 0 1 0 1 0 -1 0 0 3005.DAT
0 STEP
1 86 140.0 -168 290.0 -1 0 0 0 1 0 0 0 -1 3004.DAT
0 STEP
1 86 130.0 -264 300.0 0 0 1 0 1 0 -1 0 0 3004.DAT
0 STEP
1 86 130.0 -96 310.0 0 0 1 0 1 0 -1 0 0 3005.DAT
0 STEP
1 86 130.0 -120 310.0 0 0 1 0 1 0 -1 0 0 3005.DAT
0 STEP
1 86 140.0 -144 310.0 -1 0 0 0 1 0 0 0 -1 3004.DAT
0 STEP
1 86 140.0 -216 320.0 0 0 1 0 1 0 -1 0 0 3003.DAT
0 STEP
1 86 140.0 -96 340.0 0 0 1 0 1 0 -1 0 0 3003.DAT
0 STEP
1 86 140.0 -120 330.0 -1 0 0 0 1 0 0 0 -1 3004.DAT
0 STEP
1 86 130.0 -192 330.0 0 0 1 0 1 0 -1 0 0 3005.DAT
0 STEP
1 86 130.0 -240 330.0 0 0 1 0 1 0 -1 0 0 3005.DAT
0 STEP
1 86 130.0 -120 360.0 0 0 1 0 1 0 -1 0 0 3004.DAT
0 STEP
1 86 140.0 -168 350.0 -1 0 0 0 1 0 0 0 -1 3004.DAT
0 STEP
1 86 130.0 -96 380.0 0 0 1 0 1 0 -1 0 0 3004.DAT
0 STEP
1 86 130.0 -144 370.0 0 0 1 0 1 0 -1 0 0 3005.DAT
0 STEP
1 86 140.0 -144 390.0 -1 0 0 0 1 0 0 0 -1 3004.DAT
0 STEP
1 86 130.0 -72 430.0 0 0 1 0 1 0 -1 0 0 3005.DAT
0 STEP
1 86 130.0 -120 430.0 0 0 1 0 1 0 -1 0 0 3005.DAT
0 STEP
1 86 150.0 0 120.0 0 0 1 0 1 0 -1 0 0 3004.DAT
0 STEP
1 86 150.0 -24 140.0 0 0 1 0 1 0 -1 0 0 3010.DAT
0 STEP
1 86 150.0 -288 130.0 0 0 1 0 1 0 -1 0 0 3005.DAT
0 STEP
1 86 150.0 -216 160.0 0 0 1 0 1 0 -1 0 0 3004.DAT
0 STEP
1 86 150.0 -240 150.0 0 0 1 0 1 0 -1 0 0 3005.DAT
0 STEP
1 86 150.0 -312 150.0 0 0 1 0 1 0 -1 0 0 3005.DAT
0 STEP
1 86 150.0 -336 150.0 0 0 1 0 1 0 -1 0 0 3005.DAT
0 STEP
1 86 150.0 -408 160.0 0 0 1 0 1 0 -1 0 0 3004.DAT
0 STEP
1 86 160.0 -48 180.0 0 0 1 0 1 0 -1 0 0 3003.DAT
0 STEP
1 86 150.0 -168 180.0 0 0 1 0 1 0 -1 0 0 3004.DAT
0 STEP
1 86 150.0 -240 180.0 0 0 1 0 1 0 -1 0 0 3004.DAT
0 STEP
1 86 160.0 -288 170.0 -1 0 0 0 1 0 0 0 -1 3004.DAT
0 STEP
1 86 160.0 -312 180.0 0 0 1 0 1 0 -1 0 0 3003.DAT
0 STEP
1 86 150.0 -336 200.0 0 0 1 0 1 0 -1 0 0 3010.DAT
0 STEP
1 86 150.0 -360 180.0 0 0 1 0 1 0 -1 0 0 3004.DAT
0 STEP
1 86 160.0 -24 200.0 0 0 1 0 1 0 -1 0 0 3003.DAT
0 STEP
1 86 150.0 -48 220.0 0 0 1 0 1 0 -1 0 0 3004.DAT
0 STEP
1 86 150.0 -120 220.0 0 0 1 0 1 0 -1 0 0 3004.DAT
0 STEP
1 86 150.0 -216 210.0 0 0 1 0 1 0 -1 0 0 3005.DAT
0 STEP
1 86 150.0 -240 210.0 0 0 1 0 1 0 -1 0 0 3005.DAT
0 STEP
1 86 150.0 -264 260.0 0 0 1 0 1 0 -1 0 0 3009.DAT
0 STEP
1 86 150.0 -24 230.0 0 0 1 0 1 0 -1 0 0 3005.DAT
0 STEP
1 86 160.0 -144 230.0 -1 0 0 0 1 0 0 0 -1 3004.DAT
0 STEP
1 86 160.0 -192 240.0 0 0 1 0 1 0 -1 0 0 3003.DAT
0 STEP
1 86 160.0 -216 230.0 -1 0 0 0 1 0 0 0 -1 3004.DAT
0 STEP
1 86 160.0 -288 230.0 -1 0 0 0 1 0 0 0 -1 3004.DAT
0 STEP
1 86 160.0 -120 280.0 0 0 1 0 1 0 -1 0 0 3001.DAT
0 STEP
1 86 150.0 -144 250.0 0 0 1 0 1 0 -1 0 0 3005.DAT
0 STEP
1 86 150.0 -168 250.0 0 0 1 0 1 0 -1 0 0 3005.DAT
0 STEP
1 86 150.0 -144 280.0 0 0 1 0 1 0 -1 0 0 3004.DAT
0 STEP
1 86 160.0 -168 270.0 -1 0 0 0 1 0 0 0 -1 3004.DAT
0 STEP
1 86 160.0 -192 270.0 -1 0 0 0 1 0 0 0 -1 3004.DAT
0 STEP
1 86 160.0 -216 270.0 -1 0 0 0 1 0 0 0 -1 3004.DAT
0 STEP
1 86 150.0 -240 300.0 0 0 1 0 1 0 -1 0 0 3010.DAT
0 STEP
1 86 150.0 -192 290.0 0 0 1 0 1 0 -1 0 0 3005.DAT
0 STEP
1 86 150.0 -216 290.0 0 0 1 0 1 0 -1 0 0 3005.DAT
0 STEP
1 86 150.0 -168 310.0 0 0 1 0 1 0 -1 0 0 3005.DAT
0 STEP
1 86 160.0 -192 320.0 0 0 1 0 1 0 -1 0 0 3003.DAT
0 STEP
1 86 150.0 -144 330.0 0 0 1 0 1 0 -1 0 0 3005.DAT
0 STEP
1 86 150.0 -120 380.0 0 0 1 0 1 0 -1 0 0 3010.DAT
0 STEP
1 86 150.0 -144 360.0 0 0 1 0 1 0 -1 0 0 3004.DAT
0 STEP
1 86 150.0 -192 350.0 0 0 1 0 1 0 -1 0 0 3005.DAT
0 STEP
1 86 150.0 -96 400.0 0 0 1 0 1 0 -1 0 0 3010.DAT
0 STEP
1 86 150.0 -168 370.0 0 0 1 0 1 0 -1 0 0 3005.DAT
0 STEP
1 86 170.0 -240 160.0 0 0 1 0 1 0 -1 0 0 3004.DAT
0 STEP
1 86 170.0 -264 150.0 0 0 1 0 1 0 -1 0 0 3005.DAT
0 STEP
1 86 180.0 -24 170.0 -1 0 0 0 1 0 0 0 -1 3004.DAT
0 STEP
1 86 170.0 -216 180.0 0 0 1 0 1 0 -1 0 0 3004.DAT
0 STEP
1 86 170.0 -168 200.0 0 0 1 0 1 0 -1 0 0 3004.DAT
0 STEP
1 86 170.0 -192 200.0 0 0 1 0 1 0 -1 0 0 3004.DAT
0 STEP
1 86 170.0 -240 190.0 0 0 1 0 1 0 -1 0 0 3005.DAT
0 STEP
1 86 180.0 -264 200.0 0 0 1 0 1 0 -1 0 0 3003.DAT
0 STEP
1 86 170.0 -288 200.0 0 0 1 0 1 0 -1 0 0 3004.DAT
0 STEP
1 86 170.0 -144 210.0 0 0 1 0 1 0 -1 0 0 3005.DAT
0 STEP
1 86 180.0 -216 210.0 -1 0 0 0 1 0 0 0 -1 3004.DAT
0 STEP
1 86 180.0 -240 220.0 0 0 1 0 1 0 -1 0 0 3003.DAT
0 STEP
1 86 180.0 -264 230.0 -1 0 0 0 1 0 0 0 -1 3004.DAT
0 STEP
1 86 170.0 -144 260.0 0 0 1 0 1 0 -1 0 0 3004.DAT
0 STEP
1 86 180.0 -168 250.0 -1 0 0 0 1 0 0 0 -1 3004.DAT
0 STEP
1 86 170.0 -264 280.0 0 0 1 0 1 0 -1 0 0 3010.DAT
0 STEP
1 86 170.0 -288 250.0 0 0 1 0 1 0 -1 0 0 3005.DAT
0 STEP
1 86 170.0 -312 250.0 0 0 1 0 1 0 -1 0 0 3005.DAT
0 STEP
1 86 180.0 -240 270.0 -1 0 0 0 1 0 0 0 -1 3004.DAT
0 STEP
1 86 170.0 -144 290.0 0 0 1 0 1 0 -1 0 0 3005.DAT
0 STEP
1 86 170.0 -168 300.0 0 0 1 0 1 0 -1 0 0 3004.DAT
0 STEP
1 86 180.0 -192 290.0 -1 0 0 0 1 0 0 0 -1 3004.DAT
0 STEP
1 86 170.0 -216 300.0 0 0 1 0 1 0 -1 0 0 3004.DAT
0 STEP
1 86 170.0 -240 300.0 0 0 1 0 1 0 -1 0 0 3004.DAT
0 STEP
1 86 170.0 -144 320.0 0 0 1 0 1 0 -1 0 0 3004.DAT
0 STEP
1 86 170.0 -120 340.0 0 0 1 0 1 0 -1 0 0 3004.DAT
0 STEP
1 86 170.0 -168 330.0 0 0 1 0 1 0 -1 0 0 3005.DAT
0 STEP
1 86 170.0 -216 330.0 0 0 1 0 1 0 -1 0 0 3005.DAT
0 STEP
1 86 170.0 -96 350.0 0 0 1 0 1 0 -1 0 0 3005.DAT
0 STEP
1 86 170.0 -144 350.0 0 0 1 0 1 0 -1 0 0 3005.DAT
0 STEP
1 86 200.0 0 150.0 -1 0 0 0 1 0 0 0 -1 3004.DAT
0 STEP
1 86 200.0 -24 150.0 -1 0 0 0 1 0 0 0 -1 3004.DAT
0 STEP
1 86 190.0 -240 180.0 0 0 1 0 1 0 -1 0 0 3004.DAT
0 STEP
1 86 190.0 -216 190.0 0 0 1 0 1 0 -1 0 0 3005.DAT
0 STEP
1 86 190.0 -192 240.0 0 0 1 0 1 0 -1 0 0 3010.DAT
0 STEP
1 86 190.0 -216 230.0 0 0 1 0 1 0 -1 0 0 3005.DAT
0 STEP
1 86 190.0 -264 250.0 0 0 1 0 1 0 -1 0 0 3005.DAT
0 STEP
1 86 190.0 -144 280.0 0 0 1 0 1 0 -1 0 0 3004.DAT
0 STEP
1 86 190.0 -168 280.0 0 0 1 0 1 0 -1 0 0 3004.DAT
0 STEP
1 86 190.0 -216 280.0 0 0 1 0 1 0 -1 0 0 3004.DAT
0 STEP
