1 86 110.0 0 170.0 0 0 1 0 1 0 -1 0 0 3005.DAT
0 STEP
1 86 190.0 0 170.0 0 0 1 0 1 0 -1 0 0 3005.DAT
0 STEP
1 86 130.0 -24 130.0 0 0 1 0 1 0 -1 0 0 3005.DAT
0 STEP
1 86 130.0 -24 170.0 0 0 1 0 1 0 -1 0 0 3005.DAT
0 STEP
1 86 110.0 -48 150.0 0 0 1 0 1 0 -1 0 0 3005.DAT
0 STEP
1 86 150.0 -48 150.0 0 0 1 0 1 0 -1 0 0 3005.DAT
0 STEP
1 86 290.0 -96 130.0 0 0 1 0 1 0 -1 0 0 3005.DAT
0 STEP
1 86 50.0 -144 170.0 0 0 1 0 1 0 -1 0 0 3005.DAT
0 STEP
1 86 130.0 0 160.0 0 0 1 0 1 0 -1 0 0 3004.DAT
0 STEP
1 86 190.0 -24 160.0 0 0 1 0 1 0 -1 0 0 3004.DAT
0 STEP
1 86 200.0 -96 210.0 -1 0 0 0 1 0 0 0 -1 3004.DAT
0 STEP
1 86 140.0 -24 150.0 -1 0 0 0 1 0 0 0 -1 3004.DAT
0 STEP
1 86 110.0 -24 160.0 0 0 1 0 1 0 -1 0 0 3004.DAT
0 STEP
1 86 130.0 -48 140.0 0 0 1 0 1 0 -1 0 0 3004.DAT
0 STEP
1 86 190.0 -48 160.0 0 0 1 0 1 0 -1 0 0 3004.DAT
0 STEP
1 86 180.0 -24 190.0 -1 0 0 0 1 0 0 0 -1 3004.DAT
0 STEP
1 86 250.0 -120 180.0 0 0 1 0 1 0 -1 0 0 3004.DAT
0 STEP
1 86 180.0 -48 190.0 -1 0 0 0 1 0 0 0 -1 3004.DAT
0 STEP
1 86 250.0 -144 180.0 0 0 1 0 1 0 -1 0 0 3004.DAT
0 STEP
1 86 160.0 -72 240.0 0 0 1 0 1 0 -1 0 0 3003.DAT
0 STEP
1 86 140.0 -48 170.0 -1 0 0 0 1 0 0 0 -1 3010.DAT
0 STEP
1 86 160.0 -24 170.0 -1 0 0 0 1 0 0 0 -1 3004.DAT
0 STEP
1 86 240.0 -96 130.0 -1 0 0 0 1 0 0 0 -1 3010.DAT
0 STEP
1 86 30.0 -96 210.0 0 0 1 0 1 0 -1 0 0 3005.DAT
0 STEP
1 86 30.0 -72 130.0 0 0 1 0 1 0 -1 0 0 3005.DAT
0 STEP
1 86 70.0 -72 130.0 0 0 1 0 1 0 -1 0 0 3005.DAT
0 STEP
1 86 110.0 -72 150.0 0 0 1 0 1 0 -1 0 0 3005.DAT
0 STEP
1 86 50.0 -120 170.0 0 0 1 0 1 0 -1 0 0 3005.DAT
0 STEP
1 86 70.0 -120 190.0 0 0 1 0 1 0 -1 0 0 3005.DAT
0 STEP
1 86 50.0 -72 140.0 0 0 1 0 1 0 -1 0 0 3004.DAT
0 STEP
1 86 80.0 -72 150.0 -1 0 0 0 1 0 0 0 -1 3004.DAT
0 STEP
1 86 50.0 -96 200.0 0 0 1 0 1 0 -1 0 0 3004.DAT
0 STEP
1 86 60.0 -72 200.0 0 0 1 0 1 0 -1 0 0 3003.DAT
0 STEP
1 86 20.0 -96 190.0 -1 0 0 0 1 0 0 0 -1 3004.DAT
0 STEP
1 86 40.0 -96 170.0 -1 0 0 0 1 0 0 0 -1 3010.DAT
0 STEP
1 86 100.0 -72 180.0 0 0 1 0 1 0 -1 0 0 3003.DAT
0 STEP
1 86 10.0 -72 160.0 0 0 1 0 1 0 -1 0 0 3010.DAT
0 STEP
1 86 60.0 -72 170.0 -1 0 0 0 1 0 0 0 -1 3004.DAT
0 STEP
1 86 30.0 -72 180.0 0 0 1 0 1 0 -1 0 0 3010.DAT
0 STEP
1 86 40.0 -96 140.0 -1 0 0 0 1 0 0 0 -1 3001.DAT
0 STEP
1 86 130.0 -96 230.0 0 0 1 0 1 0 -1 0 0 3005.DAT
0 STEP
1 86 170.0 -96 250.0 0 0 1 0 1 0 -1 0 0 3005.DAT
0 STEP
1 86 110.0 -96 200.0 0 0 1 0 1 0 -1 0 0 3004.DAT
0 STEP
1 86 140.0 -96 250.0 -1 0 0 0 1 0 0 0 -1 3004.DAT
0 STEP
1 86 160.0 -96 230.0 -1 0 0 0 1 0 0 0 -1 3004.DAT
0 STEP
1 86 140.0 -96 200.0 0 0 1 0 1 0 -1 0 0 3003.DAT
0 STEP
1 86 80.0 -96 200.0 0 0 1 0 1 0 -1 0 0 3003.DAT
0 STEP
1 86 190.0 -96 160.0 0 0 1 0 1 0 -1 0 0 3010.DAT
0 STEP
1 86 120.0 -96 160.0 -1 0 0 0 1 0 0 0 -1 3001.DAT
0 STEP
1 86 10.0 -168 180.0 0 0 1 0 1 0 -1 0 0 3010.DAT
0 STEP
1 86 150.0 -72 10.0 0 0 1 0 1 0 -1 0 0 3005.DAT
0 STEP
1 86 150.0 -144 10.0 0 0 1 0 1 0 -1 0 0 3005.DAT
0 STEP
1 86 70.0 -144 190.0 0 0 1 0 1 0 -1 0 0 3005.DAT
0 STEP
1 86 150.0 -120 10.0 0 0 1 0 1 0 -1 0 0 3005.DAT
0 STEP
1 86 130.0 -96 50.0 0 0 1 0 1 0 -1 0 0 3005.DAT
0 STEP
1 86 180.0 -120 50.0 -1 0 0 0 1 0 0 0 -1 3004.DAT
0 STEP
1 86 150.0 -144 40.0 0 0 1 0 1 0 -1 0 0 3004.DAT
0 STEP
1 86 160.0 -96 130.0 -1 0 0 0 1 0 0 0 -1 3004.DAT
0 STEP
1 86 100.0 -96 130.0 -1 0 0 0 1 0 0 0 -1 3004.DAT
0 STEP
1 86 120.0 -120 20.0 0 0 1 0 1 0 -1 0 0 3003.DAT
0 STEP
1 86 170.0 -96 180.0 0 0 1 0 1 0 -1 0 0 3010.DAT
0 STEP
1 86 140.0 -96 20.0 0 0 1 0 1 0 -1 0 0 3003.DAT
0 STEP
1 86 160.0 -120 70.0 -1 0 0 0 1 0 0 0 -1 3004.DAT
0 STEP
1 86 150.0 -120 40.0 0 0 1 0 1 0 -1 0 0 3004.DAT
0 STEP
1 86 130.0 -120 60.0 0 0 1 0 1 0 -1 0 0 3004.DAT
0 STEP
1 86 160.0 -96 80.0 0 0 1 0 1 0 -1 0 0 3001.DAT
0 STEP
1 86 130.0 -96 100.0 0 0 1 0 1 0 -1 0 0 3010.DAT
0 STEP
1 86 180.0 -120 20.0 0 0 1 0 1 0 -1 0 0 3003.DAT
0 STEP
1 86 250.0 -72 130.0 0 0 1 0 1 0 -1 0 0 3005.DAT
0 STEP
1 86 230.0 -96 210.0 0 0 1 0 1 0 -1 0 0 3005.DAT
0 STEP
1 86 260.0 -96 210.0 -1 0 0 0 1 0 0 0 -1 3004.DAT
0 STEP
1 86 100.0 -72 210.0 -1 0 0 0 1 0 0 0 -1 3004.DAT
0 STEP
1 86 210.0 -72 200.0 0 0 1 0 1 0 -1 0 0 3004.DAT
0 STEP
1 86 280.0 -72 130.0 -1 0 0 0 1 0 0 0 -1 3004.DAT
0 STEP
1 86 150.0 -72 200.0 0 0 1 0 1 0 -1 0 0 3004.DAT
0 STEP
1 86 230.0 -72 160.0 0 0 1 0 1 0 -1 0 0 3004.DAT
0 STEP
1 86 260.0 -72 160.0 0 0 1 0 1 0 -1 0 0 3003.DAT
0 STEP
1 86 160.0 -72 130.0 -1 0 0 0 1 0 0 0 -1 3008.DAT
0 STEP
1 86 240.0 -96 160.0 -1 0 0 0 1 0 0 0 -1 3001.DAT
0 STEP
1 86 290.0 -72 160.0 0 0 1 0 1 0 -1 0 0 3004.DAT
0 STEP
1 86 240.0 -96 190.0 -1 0 0 0 1 0 0 0 -1 3010.DAT
0 STEP
1 86 180.0 -72 200.0 0 0 1 0 1 0 -1 0 0 3003.DAT
0 STEP
1 86 260.0 -72 200.0 -1 0 0 0 1 0 0 0 -1 3001.DAT
0 STEP
1 86 130.0 -72 200.0 0 0 1 0 1 0 -1 0 0 3009.DAT
0 STEP
1 86 290.0 -96 180.0 0 0 1 0 1 0 -1 0 0 3010.DAT
0 STEP
1 86 180.0 -72 160.0 -1 0 0 0 1 0 0 0 -1 3001.DAT
0 STEP
1 86 120.0 -120 250.0 -1 0 0 0 1 0 0 0 -1 3004.DAT
0 STEP
1 86 180.0 -120 250.0 -1 0 0 0 1 0 0 0 -1 3004.DAT
0 STEP
1 86 40.0 -168 200.0 0 0 1 0 1 0 -1 0 0 3001.DAT
0 STEP
1 86 280.0 -168 180.0 0 0 1 0 1 0 -1 0 0 3001.DAT
0 STEP
1 86 130.0 -168 170.0 0 0 1 0 1 0 -1 0 0 3005.DAT
0 STEP
1 86 150.0 -120 250.0 0 0 1 0 1 0 -1 0 0 3005.DAT
0 STEP
1 86 170.0 -168 190.0 0 0 1 0 1 0 -1 0 0 3005.DAT
0 STEP
1 86 150.0 -168 230.0 0 0 1 0 1 0 -1 0 0 3005.DAT
0 STEP
1 86 170.0 -168 150.0 0 0 1 0 1 0 -1 0 0 3005.DAT
0 STEP
1 86 130.0 -168 210.0 0 0 1 0 1 0 -1 0 0 3005.DAT
0 STEP
1 86 120.0 -168 230.0 -1 0 0 0 1 0 0 0 -1 3004.DAT
0 STEP
1 86 160.0 -168 170.0 -1 0 0 0 1 0 0 0 -1 3004.DAT
0 STEP
1 86 140.0 -168 190.0 -1 0 0 0 1 0 0 0 -1 3004.DAT
0 STEP
1 86 110.0 -144 180.0 0 0 1 0 1 0 -1 0 0 3004.DAT
0 STEP
1 86 180.0 -144 150.0 -1 0 0 0 1 0 0 0 -1 3004.DAT
0 STEP
1 86 140.0 -168 150.0 -1 0 0 0 1 0 0 0 -1 3004.DAT
0 STEP
1 86 200.0 -168 150.0 -1 0 0 0 1 0 0 0 -1 3004.DAT
0 STEP
1 86 190.0 -144 180.0 0 0 1 0 1 0 -1 0 0 3004.DAT
0 STEP
1 86 160.0 -144 170.0 -1 0 0 0 1 0 0 0 -1 3004.DAT
0 STEP
1 86 130.0 -120 200.0 0 0 1 0 1 0 -1 0 0 3010.DAT
0 STEP
1 86 130.0 -144 160.0 0 0 1 0 1 0 -1 0 0 3004.DAT
0 STEP
1 86 180.0 -168 210.0 -1 0 0 0 1 0 0 0 -1 3010.DAT
0 STEP
1 86 170.0 -120 120.0 0 0 1 0 1 0 -1 0 0 3010.DAT
0 STEP
1 86 60.0 -168 150.0 -1 0 0 0 1 0 0 0 -1 3010.DAT
0 STEP
1 86 200.0 -168 180.0 0 0 1 0 1 0 -1 0 0 3003.DAT
0 STEP
1 86 150.0 -144 140.0 0 0 1 0 1 0 -1 0 0 3004.DAT
0 STEP
1 86 220.0 -168 230.0 -1 0 0 0 1 0 0 0 -1 3009.DAT
0 STEP
1 86 140.0 -144 220.0 0 0 1 0 1 0 -1 0 0 3001.DAT
0 STEP
1 86 170.0 -144 220.0 0 0 1 0 1 0 -1 0 0 3010.DAT
0 STEP
1 86 110.0 -168 180.0 0 0 1 0 1 0 -1 0 0 3010.DAT
0 STEP
1 86 240.0 -168 180.0 0 0 1 0 1 0 -1 0 0 3001.DAT
0 STEP
1 86 160.0 -120 200.0 0 0 1 0 1 0 -1 0 0 3001.DAT
0 STEP
1 86 80.0 -168 200.0 0 0 1 0 1 0 -1 0 0 3001.DAT
0 STEP
1 86 140.0 -120 120.0 0 0 1 0 1 0 -1 0 0 3001.DAT
0 STEP
